M48
; DRILL file {KiCad (5.1.9)-1} date 08/24/25 06:13:27
; FORMAT={-:-/ absolute / metric / decimal}
; #@! TF.CreationDate,2025-08-24T06:13:27+09:00
; #@! TF.GenerationSoftware,Kicad,Pcbnew,(5.1.9)-1
FMAT,2
METRIC
T1C0.300
T2C0.800
T3C0.900
T4C1.000
T5C3.200
%
G90
G05
T1
X19.24Y41.066
X19.575Y38.084
X21.979Y46.21
X22.416Y47.668
X25.631Y48.267
T2
X14.765Y8.73
X14.765Y6.23
X24.13Y84.455
X24.13Y81.915
X24.13Y79.375
X24.13Y76.835
X24.13Y74.295
X24.13Y71.755
X24.13Y69.215
X24.13Y66.675
X24.13Y64.135
X24.13Y61.595
X24.13Y59.055
X24.13Y56.515
X24.13Y46.99
X24.13Y44.45
X24.13Y41.91
X24.13Y39.37
X24.13Y36.83
X24.13Y34.29
X24.13Y31.75
X24.13Y29.21
X24.13Y26.67
X24.13Y24.13
X24.13Y21.59
X24.13Y19.05
X24.13Y16.51
X24.13Y13.97
X26.71Y87.63
X27.94Y46.99
X27.94Y44.45
X27.94Y41.91
X27.94Y39.37
X27.94Y36.83
X27.94Y34.29
X27.94Y31.75
X27.94Y29.21
X27.94Y26.67
X27.94Y24.13
X27.94Y21.59
X27.94Y19.05
X27.94Y16.51
X27.94Y13.97
X29.21Y87.63
X30.52Y50.165
X31.75Y84.455
X31.75Y81.915
X31.75Y79.375
X31.75Y76.835
X31.75Y74.295
X31.75Y71.755
X31.75Y69.215
X31.75Y66.675
X31.75Y64.135
X31.75Y61.595
X31.75Y59.055
X31.75Y56.515
X33.02Y50.165
X35.56Y46.99
X35.56Y44.45
X35.56Y41.91
X35.56Y39.37
X35.56Y36.83
X35.56Y34.29
X35.56Y31.75
X35.56Y29.21
X35.56Y26.67
X35.56Y24.13
X35.56Y21.59
X35.56Y19.05
X35.56Y16.51
X35.56Y13.97
X36.195Y79.375
X36.195Y69.215
X36.195Y66.675
X36.195Y56.515
X39.37Y46.99
X39.37Y44.45
X39.37Y41.91
X39.37Y39.37
X39.37Y36.83
X39.37Y34.29
X39.37Y31.75
X39.37Y29.21
X39.37Y26.67
X39.37Y24.13
X39.37Y21.59
X39.37Y19.05
X39.37Y16.51
X39.37Y13.97
T3
X43.815Y76.835
X43.815Y74.295
X43.815Y64.135
X43.815Y61.595
T4
X5.715Y76.2
X5.715Y73.66
X5.715Y71.12
X5.715Y68.58
X5.715Y66.04
X5.715Y63.5
X5.715Y60.96
X5.715Y58.42
X5.715Y55.88
X5.715Y53.34
X5.715Y50.8
X5.715Y48.26
X5.715Y45.72
X5.715Y43.18
X5.715Y40.64
X5.715Y38.1
X5.715Y35.56
X5.715Y33.02
X5.715Y30.48
X5.715Y27.94
X5.715Y25.4
X5.715Y22.86
X5.715Y20.32
X5.715Y17.78
X5.715Y15.24
X8.255Y76.2
X8.255Y73.66
X8.255Y71.12
X8.255Y68.58
X8.255Y66.04
X8.255Y63.5
X8.255Y60.96
X8.255Y58.42
X8.255Y55.88
X8.255Y53.34
X8.255Y50.8
X8.255Y48.26
X8.255Y45.72
X8.255Y43.18
X8.255Y40.64
X8.255Y38.1
X8.255Y35.56
X8.255Y33.02
X8.255Y30.48
X8.255Y27.94
X8.255Y25.4
X8.255Y22.86
X8.255Y20.32
X8.255Y17.78
X8.255Y15.24
X14.605Y76.2
X14.605Y73.66
X14.605Y71.12
X14.605Y68.58
X14.605Y66.04
X14.605Y63.5
X14.605Y60.96
X14.605Y58.42
X14.605Y55.88
X14.605Y53.34
X14.605Y50.8
X14.605Y48.26
X14.605Y45.72
X14.605Y43.18
X14.605Y40.64
X14.605Y38.1
X14.605Y35.56
X14.605Y33.02
X14.605Y30.48
X14.605Y27.94
X14.605Y25.4
X14.605Y22.86
X14.605Y20.32
X14.605Y17.78
X14.605Y15.24
X17.145Y76.2
X17.145Y73.66
X17.145Y71.12
X17.145Y68.58
X17.145Y66.04
X17.145Y63.5
X17.145Y60.96
X17.145Y58.42
X17.145Y55.88
X17.145Y53.34
X17.145Y50.8
X17.145Y48.26
X17.145Y45.72
X17.145Y43.18
X17.145Y40.64
X17.145Y38.1
X17.145Y35.56
X17.145Y33.02
X17.145Y30.48
X17.145Y27.94
X17.145Y25.4
X17.145Y22.86
X17.145Y20.32
X17.145Y17.78
X17.145Y15.24
T5
X5.0Y86.0
X5.0Y5.0
X42.0Y86.0
X42.0Y5.0
T0
M30
