G04 #@! TF.GenerationSoftware,KiCad,Pcbnew,(5.1.9)-1*
G04 #@! TF.CreationDate,2025-08-23T14:44:08+09:00*
G04 #@! TF.ProjectId,PC-8001_RAM,50432d38-3030-4315-9f52-414d2e6b6963,rev?*
G04 #@! TF.SameCoordinates,PX53920b0PY93c3260*
G04 #@! TF.FileFunction,Copper,L2,Bot*
G04 #@! TF.FilePolarity,Positive*
%FSLAX46Y46*%
G04 Gerber Fmt 4.6, Leading zero omitted, Abs format (unit mm)*
G04 Created by KiCad (PCBNEW (5.1.9)-1) date 2025-08-23 14:44:08*
%MOMM*%
%LPD*%
G01*
G04 APERTURE LIST*
G04 #@! TA.AperFunction,ComponentPad*
%ADD10R,1.600000X1.600000*%
G04 #@! TD*
G04 #@! TA.AperFunction,ComponentPad*
%ADD11C,1.600000*%
G04 #@! TD*
G04 #@! TA.AperFunction,ComponentPad*
%ADD12R,1.700000X1.700000*%
G04 #@! TD*
G04 #@! TA.AperFunction,ComponentPad*
%ADD13O,1.700000X1.700000*%
G04 #@! TD*
G04 #@! TA.AperFunction,ComponentPad*
%ADD14R,2.400000X1.600000*%
G04 #@! TD*
G04 #@! TA.AperFunction,ComponentPad*
%ADD15O,2.400000X1.600000*%
G04 #@! TD*
G04 #@! TA.AperFunction,ComponentPad*
%ADD16R,1.800000X1.800000*%
G04 #@! TD*
G04 #@! TA.AperFunction,ComponentPad*
%ADD17C,1.800000*%
G04 #@! TD*
G04 #@! TA.AperFunction,ComponentPad*
%ADD18O,1.600000X1.600000*%
G04 #@! TD*
G04 #@! TA.AperFunction,ViaPad*
%ADD19C,0.500000*%
G04 #@! TD*
G04 #@! TA.AperFunction,Conductor*
%ADD20C,0.400000*%
G04 #@! TD*
G04 #@! TA.AperFunction,Conductor*
%ADD21C,0.200000*%
G04 #@! TD*
G04 #@! TA.AperFunction,Conductor*
%ADD22C,0.254000*%
G04 #@! TD*
G04 #@! TA.AperFunction,Conductor*
%ADD23C,0.100000*%
G04 #@! TD*
G04 APERTURE END LIST*
D10*
X14765000Y8730000D03*
D11*
X14765000Y6230000D03*
D12*
X8255000Y15240000D03*
D13*
X5715000Y15240000D03*
X8255000Y17780000D03*
X5715000Y17780000D03*
X8255000Y20320000D03*
X5715000Y20320000D03*
X8255000Y22860000D03*
X5715000Y22860000D03*
X8255000Y25400000D03*
X5715000Y25400000D03*
X8255000Y27940000D03*
X5715000Y27940000D03*
X8255000Y30480000D03*
X5715000Y30480000D03*
X8255000Y33020000D03*
X5715000Y33020000D03*
X8255000Y35560000D03*
X5715000Y35560000D03*
X8255000Y38100000D03*
X5715000Y38100000D03*
X8255000Y40640000D03*
X5715000Y40640000D03*
X8255000Y43180000D03*
X5715000Y43180000D03*
X8255000Y45720000D03*
X5715000Y45720000D03*
X8255000Y48260000D03*
X5715000Y48260000D03*
X8255000Y50800000D03*
X5715000Y50800000D03*
X8255000Y53340000D03*
X5715000Y53340000D03*
X8255000Y55880000D03*
X5715000Y55880000D03*
X8255000Y58420000D03*
X5715000Y58420000D03*
X8255000Y60960000D03*
X5715000Y60960000D03*
X8255000Y63500000D03*
X5715000Y63500000D03*
X8255000Y66040000D03*
X5715000Y66040000D03*
X8255000Y68580000D03*
X5715000Y68580000D03*
X8255000Y71120000D03*
X5715000Y71120000D03*
X8255000Y73660000D03*
X5715000Y73660000D03*
X8255000Y76200000D03*
X5715000Y76200000D03*
D11*
X29210000Y87630000D03*
X26710000Y87630000D03*
X30520000Y50165000D03*
X33020000Y50165000D03*
D14*
X24130000Y84455000D03*
D15*
X31750000Y56515000D03*
X24130000Y81915000D03*
X31750000Y59055000D03*
X24130000Y79375000D03*
X31750000Y61595000D03*
X24130000Y76835000D03*
X31750000Y64135000D03*
X24130000Y74295000D03*
X31750000Y66675000D03*
X24130000Y71755000D03*
X31750000Y69215000D03*
X24130000Y69215000D03*
X31750000Y71755000D03*
X24130000Y66675000D03*
X31750000Y74295000D03*
X24130000Y64135000D03*
X31750000Y76835000D03*
X24130000Y61595000D03*
X31750000Y79375000D03*
X24130000Y59055000D03*
X31750000Y81915000D03*
X24130000Y56515000D03*
X31750000Y84455000D03*
D14*
X24130000Y46990000D03*
D15*
X39370000Y13970000D03*
X24130000Y44450000D03*
X39370000Y16510000D03*
X24130000Y41910000D03*
X39370000Y19050000D03*
X24130000Y39370000D03*
X39370000Y21590000D03*
X24130000Y36830000D03*
X39370000Y24130000D03*
X24130000Y34290000D03*
X39370000Y26670000D03*
X24130000Y31750000D03*
X39370000Y29210000D03*
X24130000Y29210000D03*
X39370000Y31750000D03*
X24130000Y26670000D03*
X39370000Y34290000D03*
X24130000Y24130000D03*
X39370000Y36830000D03*
X24130000Y21590000D03*
X39370000Y39370000D03*
X24130000Y19050000D03*
X39370000Y41910000D03*
X24130000Y16510000D03*
X39370000Y44450000D03*
X24130000Y13970000D03*
X39370000Y46990000D03*
D16*
X43815000Y74295000D03*
D17*
X43815000Y76835000D03*
X43815000Y61595000D03*
D16*
X43815000Y64135000D03*
D18*
X36195000Y56515000D03*
D11*
X36195000Y66675000D03*
X36195000Y69215000D03*
D18*
X36195000Y79375000D03*
D12*
X17145000Y15240000D03*
D13*
X14605000Y15240000D03*
X17145000Y17780000D03*
X14605000Y17780000D03*
X17145000Y20320000D03*
X14605000Y20320000D03*
X17145000Y22860000D03*
X14605000Y22860000D03*
X17145000Y25400000D03*
X14605000Y25400000D03*
X17145000Y27940000D03*
X14605000Y27940000D03*
X17145000Y30480000D03*
X14605000Y30480000D03*
X17145000Y33020000D03*
X14605000Y33020000D03*
X17145000Y35560000D03*
X14605000Y35560000D03*
X17145000Y38100000D03*
X14605000Y38100000D03*
X17145000Y40640000D03*
X14605000Y40640000D03*
X17145000Y43180000D03*
X14605000Y43180000D03*
X17145000Y45720000D03*
X14605000Y45720000D03*
X17145000Y48260000D03*
X14605000Y48260000D03*
X17145000Y50800000D03*
X14605000Y50800000D03*
X17145000Y53340000D03*
X14605000Y53340000D03*
X17145000Y55880000D03*
X14605000Y55880000D03*
X17145000Y58420000D03*
X14605000Y58420000D03*
X17145000Y60960000D03*
X14605000Y60960000D03*
X17145000Y63500000D03*
X14605000Y63500000D03*
X17145000Y66040000D03*
X14605000Y66040000D03*
X17145000Y68580000D03*
X14605000Y68580000D03*
X17145000Y71120000D03*
X14605000Y71120000D03*
X17145000Y73660000D03*
X14605000Y73660000D03*
X17145000Y76200000D03*
X14605000Y76200000D03*
D14*
X27940000Y46990000D03*
D15*
X35560000Y13970000D03*
X27940000Y44450000D03*
X35560000Y16510000D03*
X27940000Y41910000D03*
X35560000Y19050000D03*
X27940000Y39370000D03*
X35560000Y21590000D03*
X27940000Y36830000D03*
X35560000Y24130000D03*
X27940000Y34290000D03*
X35560000Y26670000D03*
X27940000Y31750000D03*
X35560000Y29210000D03*
X27940000Y29210000D03*
X35560000Y31750000D03*
X27940000Y26670000D03*
X35560000Y34290000D03*
X27940000Y24130000D03*
X35560000Y36830000D03*
X27940000Y21590000D03*
X35560000Y39370000D03*
X27940000Y19050000D03*
X35560000Y41910000D03*
X27940000Y16510000D03*
X35560000Y44450000D03*
X27940000Y13970000D03*
X35560000Y46990000D03*
D19*
X19240300Y41065700D03*
X19574900Y38083600D03*
X21978500Y46209600D03*
X22415800Y47668300D03*
X25630700Y48266600D03*
D20*
X24130000Y13970000D02*
X22529700Y13970000D01*
X22529700Y13970000D02*
X14789700Y6230000D01*
X14789700Y6230000D02*
X14765000Y6230000D01*
X27940000Y13970000D02*
X24130000Y13970000D01*
X43815000Y64135000D02*
X42514700Y64135000D01*
X42514700Y64135000D02*
X41244700Y62865000D01*
X41244700Y62865000D02*
X30922300Y62865000D01*
X30922300Y62865000D02*
X25730300Y57673000D01*
X25730300Y57673000D02*
X25730300Y56515000D01*
X24130000Y56515000D02*
X25730300Y56515000D01*
X30520000Y50165000D02*
X25730300Y54954700D01*
X25730300Y54954700D02*
X25730300Y56515000D01*
X26710000Y85655400D02*
X26710000Y87630000D01*
X43815000Y74295000D02*
X39540200Y74295000D01*
X39540200Y74295000D02*
X33190300Y80644900D01*
X33190300Y80644900D02*
X30912200Y80644900D01*
X30912200Y80644900D02*
X26710000Y84847100D01*
X26710000Y84847100D02*
X26710000Y85655400D01*
X14605000Y76200000D02*
X14605000Y77552100D01*
X14605000Y77552100D02*
X22708300Y85655400D01*
X22708300Y85655400D02*
X26710000Y85655400D01*
X35560000Y31750000D02*
X39370000Y31750000D01*
D21*
X15123700Y18938600D02*
X10563900Y18938600D01*
X10563900Y18938600D02*
X9405300Y17780000D01*
X15994700Y17780000D02*
X15994700Y18067600D01*
X15994700Y18067600D02*
X15123700Y18938600D01*
X24130000Y21590000D02*
X16770800Y21590000D01*
X16770800Y21590000D02*
X15789800Y20609000D01*
X15789800Y20609000D02*
X15789800Y19604700D01*
X15789800Y19604700D02*
X15123700Y18938600D01*
X8255000Y17780000D02*
X9405300Y17780000D01*
X17145000Y17780000D02*
X15994700Y17780000D01*
X17145000Y20320000D02*
X18295300Y20320000D01*
X24130000Y19050000D02*
X19565300Y19050000D01*
X19565300Y19050000D02*
X18295300Y20320000D01*
X27940000Y19050000D02*
X24130000Y19050000D01*
X27940000Y16510000D02*
X24130000Y16510000D01*
X15994700Y22860000D02*
X15994700Y22572400D01*
X15994700Y22572400D02*
X15124400Y21702100D01*
X15124400Y21702100D02*
X10563200Y21702100D01*
X10563200Y21702100D02*
X9405300Y22860000D01*
X8255000Y22860000D02*
X9405300Y22860000D01*
X17145000Y22860000D02*
X15994700Y22860000D01*
X8255000Y25400000D02*
X9405300Y25400000D01*
X17145000Y25400000D02*
X15994700Y25400000D01*
X15994700Y25400000D02*
X15994700Y25112400D01*
X15994700Y25112400D02*
X15091700Y24209400D01*
X15091700Y24209400D02*
X10595900Y24209400D01*
X10595900Y24209400D02*
X9405300Y25400000D01*
X35560000Y13970000D02*
X39370000Y13970000D01*
X17145000Y27940000D02*
X18295300Y27940000D01*
X35560000Y16510000D02*
X34059700Y16510000D01*
X34059700Y16510000D02*
X30249700Y20320000D01*
X30249700Y20320000D02*
X27241700Y20320000D01*
X27241700Y20320000D02*
X25865400Y21696300D01*
X25865400Y21696300D02*
X25865400Y21841900D01*
X25865400Y21841900D02*
X24847300Y22860000D01*
X24847300Y22860000D02*
X23375300Y22860000D01*
X23375300Y22860000D02*
X18295300Y27940000D01*
X37869700Y16510000D02*
X35560000Y16510000D01*
X39370000Y16510000D02*
X37869700Y16510000D01*
X17145000Y27940000D02*
X16790600Y27940000D01*
X16591700Y27940000D02*
X15994700Y27940000D01*
X16591700Y27940000D02*
X16790600Y27940000D01*
X15994700Y27940000D02*
X15994700Y28227600D01*
X15994700Y28227600D02*
X15092500Y29129800D01*
X15092500Y29129800D02*
X13695400Y29129800D01*
X13695400Y29129800D02*
X12505600Y27940000D01*
X12505600Y27940000D02*
X8255000Y27940000D01*
X35560000Y19050000D02*
X34059700Y19050000D01*
X34059700Y19050000D02*
X34059700Y19987700D01*
X34059700Y19987700D02*
X28647400Y25400000D01*
X28647400Y25400000D02*
X23375300Y25400000D01*
X23375300Y25400000D02*
X18295300Y30480000D01*
X39370000Y19050000D02*
X35560000Y19050000D01*
X17145000Y30480000D02*
X18295300Y30480000D01*
X17145000Y30480000D02*
X15994700Y30480000D01*
X8255000Y30480000D02*
X12029200Y30480000D01*
X12029200Y30480000D02*
X13219800Y31670600D01*
X13219800Y31670600D02*
X15042400Y31670600D01*
X15042400Y31670600D02*
X15994700Y30718300D01*
X15994700Y30718300D02*
X15994700Y30480000D01*
X17145000Y33020000D02*
X18295300Y33020000D01*
X35560000Y21590000D02*
X34059700Y21590000D01*
X34059700Y21590000D02*
X34059700Y22527700D01*
X34059700Y22527700D02*
X28817000Y27770400D01*
X28817000Y27770400D02*
X23544900Y27770400D01*
X23544900Y27770400D02*
X18295300Y33020000D01*
X39370000Y21590000D02*
X35560000Y21590000D01*
X17145000Y33020000D02*
X15994700Y33020000D01*
X8255000Y33020000D02*
X12029200Y33020000D01*
X12029200Y33020000D02*
X13218700Y34209500D01*
X13218700Y34209500D02*
X15043500Y34209500D01*
X15043500Y34209500D02*
X15994700Y33258300D01*
X15994700Y33258300D02*
X15994700Y33020000D01*
X17145000Y35560000D02*
X15994700Y35560000D01*
X8255000Y35560000D02*
X12029200Y35560000D01*
X12029200Y35560000D02*
X13184000Y36714800D01*
X13184000Y36714800D02*
X15078200Y36714800D01*
X15078200Y36714800D02*
X15994700Y35798300D01*
X15994700Y35798300D02*
X15994700Y35560000D01*
X34059700Y24130000D02*
X34059700Y25067700D01*
X34059700Y25067700D02*
X28817000Y30310400D01*
X28817000Y30310400D02*
X23544900Y30310400D01*
X23544900Y30310400D02*
X18295300Y35560000D01*
X17145000Y35560000D02*
X18295300Y35560000D01*
X35560000Y24130000D02*
X34059700Y24130000D01*
X39370000Y24130000D02*
X35560000Y24130000D01*
X8255000Y38100000D02*
X9405300Y38100000D01*
X27940000Y24130000D02*
X24130000Y24130000D01*
X17145000Y38100000D02*
X15994700Y38100000D01*
X15994700Y38100000D02*
X15994700Y38387600D01*
X15994700Y38387600D02*
X15113000Y39269300D01*
X15113000Y39269300D02*
X10574600Y39269300D01*
X10574600Y39269300D02*
X9405300Y38100000D01*
X34059700Y39370000D02*
X32789700Y40640000D01*
X32789700Y40640000D02*
X19666000Y40640000D01*
X19666000Y40640000D02*
X19240300Y41065700D01*
X5715000Y38100000D02*
X6865300Y38100000D01*
X14605000Y38100000D02*
X13454700Y38100000D01*
X13454700Y38100000D02*
X12293400Y36938700D01*
X12293400Y36938700D02*
X7788200Y36938700D01*
X7788200Y36938700D02*
X6865300Y37861600D01*
X6865300Y37861600D02*
X6865300Y38100000D01*
X35560000Y39370000D02*
X34059700Y39370000D01*
X39370000Y39370000D02*
X35560000Y39370000D01*
X17145000Y40640000D02*
X15994700Y40640000D01*
X15994700Y40640000D02*
X15994700Y40927600D01*
X15994700Y40927600D02*
X15092500Y41829800D01*
X15092500Y41829800D02*
X13695400Y41829800D01*
X13695400Y41829800D02*
X12505600Y40640000D01*
X12505600Y40640000D02*
X8255000Y40640000D01*
X19574900Y38083600D02*
X17145000Y40513500D01*
X17145000Y40513500D02*
X17145000Y40640000D01*
X27940000Y26670000D02*
X24130000Y26670000D01*
X35560000Y36830000D02*
X34059700Y36830000D01*
X34059700Y36830000D02*
X32953600Y35723900D01*
X32953600Y35723900D02*
X21148200Y35723900D01*
X21148200Y35723900D02*
X17405300Y39466800D01*
X17405300Y39466800D02*
X15778200Y39466800D01*
X15778200Y39466800D02*
X14605000Y40640000D01*
X39370000Y36830000D02*
X35560000Y36830000D01*
X17145000Y43180000D02*
X15994700Y43180000D01*
X15994700Y43180000D02*
X15994700Y43467600D01*
X15994700Y43467600D02*
X15113000Y44349300D01*
X15113000Y44349300D02*
X14057700Y44349300D01*
X14057700Y44349300D02*
X12888400Y43180000D01*
X12888400Y43180000D02*
X8255000Y43180000D01*
X35560000Y29210000D02*
X34059700Y29210000D01*
X34059700Y29210000D02*
X34059700Y34802700D01*
X34059700Y34802700D02*
X34981100Y35724100D01*
X34981100Y35724100D02*
X40243600Y35724100D01*
X40243600Y35724100D02*
X40895100Y36375600D01*
X40895100Y36375600D02*
X40895100Y37347300D01*
X40895100Y37347300D02*
X40142400Y38100000D01*
X40142400Y38100000D02*
X21414100Y38100000D01*
X21414100Y38100000D02*
X17507400Y42006700D01*
X17507400Y42006700D02*
X15778300Y42006700D01*
X15778300Y42006700D02*
X14605000Y43180000D01*
X39370000Y29210000D02*
X35560000Y29210000D01*
X5715000Y43180000D02*
X6865300Y43180000D01*
X14605000Y43180000D02*
X13454700Y43180000D01*
X13454700Y43180000D02*
X12264100Y41989400D01*
X12264100Y41989400D02*
X7817500Y41989400D01*
X7817500Y41989400D02*
X6865300Y42941600D01*
X6865300Y42941600D02*
X6865300Y43180000D01*
X27940000Y31750000D02*
X24130000Y31750000D01*
X17145000Y45720000D02*
X15994700Y45720000D01*
X15994700Y45720000D02*
X15994700Y46007600D01*
X15994700Y46007600D02*
X15113000Y46889300D01*
X15113000Y46889300D02*
X14057700Y46889300D01*
X14057700Y46889300D02*
X12888400Y45720000D01*
X12888400Y45720000D02*
X8255000Y45720000D01*
X39370000Y34290000D02*
X40870300Y34290000D01*
X40870300Y34290000D02*
X41295500Y34715200D01*
X41295500Y34715200D02*
X41295500Y39460400D01*
X41295500Y39460400D02*
X40116100Y40639800D01*
X40116100Y40639800D02*
X34763600Y40639800D01*
X34763600Y40639800D02*
X32223400Y43180000D01*
X32223400Y43180000D02*
X21612300Y43180000D01*
X21612300Y43180000D02*
X20245600Y44546700D01*
X20245600Y44546700D02*
X15778300Y44546700D01*
X15778300Y44546700D02*
X14605000Y45720000D01*
X35560000Y34290000D02*
X39370000Y34290000D01*
X5715000Y45720000D02*
X6865300Y45720000D01*
X14605000Y45720000D02*
X13454700Y45720000D01*
X13454700Y45720000D02*
X12264100Y44529400D01*
X12264100Y44529400D02*
X7817500Y44529400D01*
X7817500Y44529400D02*
X6865300Y45481600D01*
X6865300Y45481600D02*
X6865300Y45720000D01*
X17145000Y48260000D02*
X15994700Y48260000D01*
X15994700Y48260000D02*
X15994700Y48547600D01*
X15994700Y48547600D02*
X15113000Y49429300D01*
X15113000Y49429300D02*
X14057700Y49429300D01*
X14057700Y49429300D02*
X12888400Y48260000D01*
X12888400Y48260000D02*
X8255000Y48260000D01*
X24130000Y44450000D02*
X20908700Y44450000D01*
X20908700Y44450000D02*
X18272000Y47086700D01*
X18272000Y47086700D02*
X15778300Y47086700D01*
X15778300Y47086700D02*
X14605000Y48260000D01*
X27940000Y44450000D02*
X24130000Y44450000D01*
X5715000Y48260000D02*
X6865300Y48260000D01*
X14605000Y48260000D02*
X13454700Y48260000D01*
X13454700Y48260000D02*
X12264100Y47069400D01*
X12264100Y47069400D02*
X7817500Y47069400D01*
X7817500Y47069400D02*
X6865300Y48021600D01*
X6865300Y48021600D02*
X6865300Y48260000D01*
X17145000Y50800000D02*
X17388100Y50800000D01*
X17388100Y50800000D02*
X21978500Y46209600D01*
X17145000Y50800000D02*
X15994700Y50800000D01*
X15994700Y50800000D02*
X15994700Y51087600D01*
X15994700Y51087600D02*
X15113000Y51969300D01*
X15113000Y51969300D02*
X14057700Y51969300D01*
X14057700Y51969300D02*
X12888400Y50800000D01*
X12888400Y50800000D02*
X8255000Y50800000D01*
X35560000Y41910000D02*
X34059700Y41910000D01*
X34059700Y41910000D02*
X30409300Y45560400D01*
X30409300Y45560400D02*
X21650700Y45560400D01*
X21650700Y45560400D02*
X17584400Y49626700D01*
X17584400Y49626700D02*
X15778300Y49626700D01*
X15778300Y49626700D02*
X14605000Y50800000D01*
X39370000Y41910000D02*
X35560000Y41910000D01*
X14605000Y50800000D02*
X13454700Y50800000D01*
X5715000Y50800000D02*
X6865300Y50800000D01*
X13454700Y50800000D02*
X12264100Y49609400D01*
X12264100Y49609400D02*
X7817500Y49609400D01*
X7817500Y49609400D02*
X6865300Y50561600D01*
X6865300Y50561600D02*
X6865300Y50800000D01*
X17145000Y53340000D02*
X22415800Y48069200D01*
X22415800Y48069200D02*
X22415800Y47668300D01*
X8255000Y53340000D02*
X12029200Y53340000D01*
X12029200Y53340000D02*
X13184100Y54494900D01*
X13184100Y54494900D02*
X15699000Y54494900D01*
X15699000Y54494900D02*
X16853900Y53340000D01*
X17145000Y53340000D02*
X16853900Y53340000D01*
X15755300Y53340000D02*
X15755300Y53101600D01*
X15755300Y53101600D02*
X16906500Y51950400D01*
X16906500Y51950400D02*
X17626800Y51950400D01*
X17626800Y51950400D02*
X21582300Y47994900D01*
X21582300Y47994900D02*
X21582300Y47723600D01*
X21582300Y47723600D02*
X22315800Y46990100D01*
X22315800Y46990100D02*
X22629700Y46990100D01*
X22629700Y46990100D02*
X22629700Y46990000D01*
X24130000Y46990000D02*
X22629700Y46990000D01*
X27940000Y46990000D02*
X24130000Y46990000D01*
X14605000Y53340000D02*
X15755300Y53340000D01*
X5715000Y53340000D02*
X6865300Y53340000D01*
X14605000Y53340000D02*
X13454700Y53340000D01*
X13454700Y53340000D02*
X12264100Y52149400D01*
X12264100Y52149400D02*
X7817500Y52149400D01*
X7817500Y52149400D02*
X6865300Y53101600D01*
X6865300Y53101600D02*
X6865300Y53340000D01*
X18295300Y55880000D02*
X18295300Y55602000D01*
X18295300Y55602000D02*
X25630700Y48266600D01*
X17145000Y55880000D02*
X18295300Y55880000D01*
X8255000Y55880000D02*
X9405300Y55880000D01*
X17145000Y55880000D02*
X15994700Y55880000D01*
X15994700Y55880000D02*
X15994700Y56167600D01*
X15994700Y56167600D02*
X15113000Y57049300D01*
X15113000Y57049300D02*
X10574600Y57049300D01*
X10574600Y57049300D02*
X9405300Y55880000D01*
X5715000Y55880000D02*
X6865300Y55880000D01*
X14605000Y55880000D02*
X13454700Y55880000D01*
X13454700Y55880000D02*
X12293400Y54718700D01*
X12293400Y54718700D02*
X7788200Y54718700D01*
X7788200Y54718700D02*
X6865300Y55641600D01*
X6865300Y55641600D02*
X6865300Y55880000D01*
X17145000Y59470200D02*
X17283200Y59470200D01*
X17283200Y59470200D02*
X22629600Y64816600D01*
X22629600Y64816600D02*
X22629600Y67151100D01*
X22629600Y67151100D02*
X23423500Y67945000D01*
X23423500Y67945000D02*
X24886100Y67945000D01*
X24886100Y67945000D02*
X30249700Y73308600D01*
X30249700Y73308600D02*
X30249700Y76835000D01*
X17145000Y58420000D02*
X17145000Y59470200D01*
X31750000Y76835000D02*
X30249700Y76835000D01*
X31750000Y79375000D02*
X30249700Y79375000D01*
X17145000Y60960000D02*
X17145000Y62110300D01*
X17145000Y62110300D02*
X17432700Y62110300D01*
X17432700Y62110300D02*
X18295300Y62972900D01*
X18295300Y62972900D02*
X18295300Y65344800D01*
X18295300Y65344800D02*
X23600800Y70650300D01*
X23600800Y70650300D02*
X25045200Y70650300D01*
X25045200Y70650300D02*
X27798400Y73403500D01*
X27798400Y73403500D02*
X27798400Y76923700D01*
X27798400Y76923700D02*
X30249700Y79375000D01*
X8255000Y66040000D02*
X9405300Y66040000D01*
X17145000Y67190300D02*
X10555600Y67190300D01*
X10555600Y67190300D02*
X9405300Y66040000D01*
X17145000Y67090200D02*
X17145000Y67190300D01*
X17145000Y66040000D02*
X17145000Y67090200D01*
X24130000Y84455000D02*
X22629700Y84455000D01*
X22629700Y84455000D02*
X22629700Y72436700D01*
X22629700Y72436700D02*
X17383300Y67190300D01*
X17383300Y67190300D02*
X17145000Y67190300D01*
X5715000Y63500000D02*
X6865300Y63500000D01*
X14605000Y62349700D02*
X7777200Y62349700D01*
X7777200Y62349700D02*
X6865300Y63261600D01*
X6865300Y63261600D02*
X6865300Y63500000D01*
X22597300Y56957500D02*
X22285200Y57269600D01*
X22285200Y57269600D02*
X16625700Y57269600D01*
X16625700Y57269600D02*
X15875000Y58020300D01*
X15875000Y58020300D02*
X15875000Y61318000D01*
X15875000Y61318000D02*
X14843300Y62349700D01*
X14843300Y62349700D02*
X14605000Y62349700D01*
X22597300Y56957500D02*
X23424800Y57785000D01*
X23424800Y57785000D02*
X24816200Y57785000D01*
X24816200Y57785000D02*
X30249700Y63218500D01*
X30249700Y63218500D02*
X30249700Y64135000D01*
X34059700Y44450000D02*
X22597300Y55912400D01*
X22597300Y55912400D02*
X22597300Y56957500D01*
X14605000Y63500000D02*
X14605000Y62349700D01*
X31750000Y64135000D02*
X30249700Y64135000D01*
X35560000Y44450000D02*
X34059700Y44450000D01*
X39370000Y44450000D02*
X35560000Y44450000D01*
X40870300Y26670000D02*
X41695900Y27495600D01*
X41695900Y27495600D02*
X41695900Y46681200D01*
X41695900Y46681200D02*
X33250300Y55126800D01*
X33250300Y55126800D02*
X33250300Y61595000D01*
X35560000Y26670000D02*
X39370000Y26670000D01*
X39370000Y26670000D02*
X40870300Y26670000D01*
X31750000Y61595000D02*
X33250300Y61595000D01*
X36195000Y69215000D02*
X31750000Y69215000D01*
X36195000Y66675000D02*
X31750000Y66675000D01*
X36195000Y79375000D02*
X41275000Y79375000D01*
X41275000Y79375000D02*
X43815000Y76835000D01*
X36195000Y56515000D02*
X38735000Y56515000D01*
X38735000Y56515000D02*
X43815000Y61595000D01*
X5715000Y17780000D02*
X6865300Y17780000D01*
X14605000Y17780000D02*
X13454700Y17780000D01*
X13454700Y17780000D02*
X12299900Y16625200D01*
X12299900Y16625200D02*
X7781700Y16625200D01*
X7781700Y16625200D02*
X6865300Y17541600D01*
X6865300Y17541600D02*
X6865300Y17780000D01*
X5715000Y30480000D02*
X6865300Y30480000D01*
X14605000Y30480000D02*
X13454700Y30480000D01*
X13454700Y30480000D02*
X12293400Y29318700D01*
X12293400Y29318700D02*
X7788200Y29318700D01*
X7788200Y29318700D02*
X6865300Y30241600D01*
X6865300Y30241600D02*
X6865300Y30480000D01*
X5715000Y33020000D02*
X6865300Y33020000D01*
X14605000Y33020000D02*
X13454700Y33020000D01*
X13454700Y33020000D02*
X12293400Y31858700D01*
X12293400Y31858700D02*
X7788200Y31858700D01*
X7788200Y31858700D02*
X6865300Y32781600D01*
X6865300Y32781600D02*
X6865300Y33020000D01*
X5715000Y35560000D02*
X6865300Y35560000D01*
X14605000Y35560000D02*
X13454700Y35560000D01*
X13454700Y35560000D02*
X12293400Y34398700D01*
X12293400Y34398700D02*
X7788200Y34398700D01*
X7788200Y34398700D02*
X6865300Y35321600D01*
X6865300Y35321600D02*
X6865300Y35560000D01*
X5715000Y60960000D02*
X6865300Y60960000D01*
X14605000Y60960000D02*
X13454700Y60960000D01*
X13454700Y60960000D02*
X12264100Y59769400D01*
X12264100Y59769400D02*
X7817500Y59769400D01*
X7817500Y59769400D02*
X6865300Y60721600D01*
X6865300Y60721600D02*
X6865300Y60960000D01*
X5715000Y66040000D02*
X6865300Y66040000D01*
X14605000Y66040000D02*
X13454700Y66040000D01*
X13454700Y66040000D02*
X12293400Y64878700D01*
X12293400Y64878700D02*
X7788200Y64878700D01*
X7788200Y64878700D02*
X6865300Y65801600D01*
X6865300Y65801600D02*
X6865300Y66040000D01*
X17145000Y68580000D02*
X15994700Y68580000D01*
X15994700Y68580000D02*
X15994700Y68867600D01*
X15994700Y68867600D02*
X15113000Y69749300D01*
X15113000Y69749300D02*
X14057700Y69749300D01*
X14057700Y69749300D02*
X12888400Y68580000D01*
X12888400Y68580000D02*
X8255000Y68580000D01*
X5715000Y68580000D02*
X6865300Y68580000D01*
X14605000Y68580000D02*
X13454700Y68580000D01*
X13454700Y68580000D02*
X13054300Y68179600D01*
X13054300Y68179600D02*
X10430400Y68179600D01*
X10430400Y68179600D02*
X9669500Y67418700D01*
X9669500Y67418700D02*
X7788200Y67418700D01*
X7788200Y67418700D02*
X6865300Y68341600D01*
X6865300Y68341600D02*
X6865300Y68580000D01*
X8255000Y71120000D02*
X9405300Y71120000D01*
X17145000Y71120000D02*
X15994700Y71120000D01*
X15994700Y71120000D02*
X15994700Y71407600D01*
X15994700Y71407600D02*
X15124400Y72277900D01*
X15124400Y72277900D02*
X10563200Y72277900D01*
X10563200Y72277900D02*
X9405300Y71120000D01*
X5715000Y71120000D02*
X6865300Y71120000D01*
X14605000Y71120000D02*
X13454700Y71120000D01*
X13454700Y71120000D02*
X12264100Y69929400D01*
X12264100Y69929400D02*
X7817500Y69929400D01*
X7817500Y69929400D02*
X6865300Y70881600D01*
X6865300Y70881600D02*
X6865300Y71120000D01*
X8255000Y73660000D02*
X9405300Y73660000D01*
X17145000Y73660000D02*
X15994700Y73660000D01*
X15994700Y73660000D02*
X15994700Y73947600D01*
X15994700Y73947600D02*
X15124400Y74817900D01*
X15124400Y74817900D02*
X10563200Y74817900D01*
X10563200Y74817900D02*
X9405300Y73660000D01*
D22*
X46340000Y660000D02*
X660000Y660000D01*
X660000Y5220128D01*
X2765000Y5220128D01*
X2765000Y4779872D01*
X2850890Y4348075D01*
X3019369Y3941331D01*
X3263962Y3575271D01*
X3575271Y3263962D01*
X3941331Y3019369D01*
X4348075Y2850890D01*
X4779872Y2765000D01*
X5220128Y2765000D01*
X5651925Y2850890D01*
X6058669Y3019369D01*
X6424729Y3263962D01*
X6736038Y3575271D01*
X6980631Y3941331D01*
X7149110Y4348075D01*
X7235000Y4779872D01*
X7235000Y5220128D01*
X7231585Y5237298D01*
X13951903Y5237298D01*
X14023486Y4993329D01*
X14278996Y4872429D01*
X14553184Y4803700D01*
X14835512Y4789783D01*
X15115130Y4831213D01*
X15381292Y4926397D01*
X15506514Y4993329D01*
X15573059Y5220128D01*
X39765000Y5220128D01*
X39765000Y4779872D01*
X39850890Y4348075D01*
X40019369Y3941331D01*
X40263962Y3575271D01*
X40575271Y3263962D01*
X40941331Y3019369D01*
X41348075Y2850890D01*
X41779872Y2765000D01*
X42220128Y2765000D01*
X42651925Y2850890D01*
X43058669Y3019369D01*
X43424729Y3263962D01*
X43736038Y3575271D01*
X43980631Y3941331D01*
X44149110Y4348075D01*
X44235000Y4779872D01*
X44235000Y5220128D01*
X44149110Y5651925D01*
X43980631Y6058669D01*
X43736038Y6424729D01*
X43424729Y6736038D01*
X43058669Y6980631D01*
X42651925Y7149110D01*
X42220128Y7235000D01*
X41779872Y7235000D01*
X41348075Y7149110D01*
X40941331Y6980631D01*
X40575271Y6736038D01*
X40263962Y6424729D01*
X40019369Y6058669D01*
X39850890Y5651925D01*
X39765000Y5220128D01*
X15573059Y5220128D01*
X15578097Y5237298D01*
X14765000Y6050395D01*
X13951903Y5237298D01*
X7231585Y5237298D01*
X7149110Y5651925D01*
X6980631Y6058669D01*
X6913267Y6159488D01*
X13324783Y6159488D01*
X13366213Y5879870D01*
X13461397Y5613708D01*
X13528329Y5488486D01*
X13772298Y5416903D01*
X14585395Y6230000D01*
X14944605Y6230000D01*
X15757702Y5416903D01*
X16001671Y5488486D01*
X16122571Y5743996D01*
X16191300Y6018184D01*
X16205217Y6300512D01*
X16163787Y6580130D01*
X16068603Y6846292D01*
X16001671Y6971514D01*
X15757702Y7043097D01*
X14944605Y6230000D01*
X14585395Y6230000D01*
X13772298Y7043097D01*
X13528329Y6971514D01*
X13407429Y6716004D01*
X13338700Y6441816D01*
X13324783Y6159488D01*
X6913267Y6159488D01*
X6736038Y6424729D01*
X6424729Y6736038D01*
X6058669Y6980631D01*
X5651925Y7149110D01*
X5220128Y7235000D01*
X4779872Y7235000D01*
X4348075Y7149110D01*
X3941331Y6980631D01*
X3575271Y6736038D01*
X3263962Y6424729D01*
X3019369Y6058669D01*
X2850890Y5651925D01*
X2765000Y5220128D01*
X660000Y5220128D01*
X660000Y9530000D01*
X13326928Y9530000D01*
X13326928Y7930000D01*
X13339188Y7805518D01*
X13375498Y7685820D01*
X13434463Y7575506D01*
X13513815Y7478815D01*
X13610506Y7399463D01*
X13720820Y7340498D01*
X13840518Y7304188D01*
X13965000Y7291928D01*
X13972215Y7291928D01*
X13951903Y7222702D01*
X14765000Y6409605D01*
X15578097Y7222702D01*
X15557785Y7291928D01*
X15565000Y7291928D01*
X15689482Y7304188D01*
X15809180Y7340498D01*
X15919494Y7399463D01*
X16016185Y7478815D01*
X16095537Y7575506D01*
X16154502Y7685820D01*
X16190812Y7805518D01*
X16203072Y7930000D01*
X16203072Y9530000D01*
X16190812Y9654482D01*
X16154502Y9774180D01*
X16095537Y9884494D01*
X16016185Y9981185D01*
X15919494Y10060537D01*
X15809180Y10119502D01*
X15689482Y10155812D01*
X15565000Y10168072D01*
X13965000Y10168072D01*
X13840518Y10155812D01*
X13720820Y10119502D01*
X13610506Y10060537D01*
X13513815Y9981185D01*
X13434463Y9884494D01*
X13375498Y9774180D01*
X13339188Y9654482D01*
X13326928Y9530000D01*
X660000Y9530000D01*
X660000Y13620961D01*
X22338096Y13620961D01*
X22355633Y13538182D01*
X22466285Y13278354D01*
X22625500Y13045105D01*
X22827161Y12847399D01*
X23063517Y12692834D01*
X23325486Y12587350D01*
X23603000Y12535000D01*
X24003000Y12535000D01*
X24003000Y13843000D01*
X24257000Y13843000D01*
X24257000Y12535000D01*
X24657000Y12535000D01*
X24934514Y12587350D01*
X25196483Y12692834D01*
X25432839Y12847399D01*
X25634500Y13045105D01*
X25793715Y13278354D01*
X25904367Y13538182D01*
X25921904Y13620961D01*
X26148096Y13620961D01*
X26165633Y13538182D01*
X26276285Y13278354D01*
X26435500Y13045105D01*
X26637161Y12847399D01*
X26873517Y12692834D01*
X27135486Y12587350D01*
X27413000Y12535000D01*
X27813000Y12535000D01*
X27813000Y13843000D01*
X28067000Y13843000D01*
X28067000Y12535000D01*
X28467000Y12535000D01*
X28744514Y12587350D01*
X29006483Y12692834D01*
X29242839Y12847399D01*
X29444500Y13045105D01*
X29603715Y13278354D01*
X29714367Y13538182D01*
X29731904Y13620961D01*
X29609915Y13843000D01*
X28067000Y13843000D01*
X27813000Y13843000D01*
X26270085Y13843000D01*
X26148096Y13620961D01*
X25921904Y13620961D01*
X25799915Y13843000D01*
X24257000Y13843000D01*
X24003000Y13843000D01*
X22460085Y13843000D01*
X22338096Y13620961D01*
X660000Y13620961D01*
X660000Y71266260D01*
X4230000Y71266260D01*
X4230000Y70973740D01*
X4287068Y70686842D01*
X4399010Y70416589D01*
X4561525Y70173368D01*
X4768368Y69966525D01*
X4942760Y69850000D01*
X4768368Y69733475D01*
X4561525Y69526632D01*
X4399010Y69283411D01*
X4287068Y69013158D01*
X4230000Y68726260D01*
X4230000Y68433740D01*
X4287068Y68146842D01*
X4399010Y67876589D01*
X4561525Y67633368D01*
X4768368Y67426525D01*
X4942760Y67310000D01*
X4768368Y67193475D01*
X4561525Y66986632D01*
X4399010Y66743411D01*
X4287068Y66473158D01*
X4230000Y66186260D01*
X4230000Y65893740D01*
X4287068Y65606842D01*
X4399010Y65336589D01*
X4561525Y65093368D01*
X4768368Y64886525D01*
X4942760Y64770000D01*
X4768368Y64653475D01*
X4561525Y64446632D01*
X4399010Y64203411D01*
X4287068Y63933158D01*
X4230000Y63646260D01*
X4230000Y63353740D01*
X4287068Y63066842D01*
X4399010Y62796589D01*
X4561525Y62553368D01*
X4768368Y62346525D01*
X4942760Y62230000D01*
X4768368Y62113475D01*
X4561525Y61906632D01*
X4399010Y61663411D01*
X4287068Y61393158D01*
X4230000Y61106260D01*
X4230000Y60813740D01*
X4287068Y60526842D01*
X4399010Y60256589D01*
X4561525Y60013368D01*
X4768368Y59806525D01*
X4942760Y59690000D01*
X4768368Y59573475D01*
X4561525Y59366632D01*
X4399010Y59123411D01*
X4287068Y58853158D01*
X4230000Y58566260D01*
X4230000Y58273740D01*
X4287068Y57986842D01*
X4399010Y57716589D01*
X4561525Y57473368D01*
X4768368Y57266525D01*
X4942760Y57150000D01*
X4768368Y57033475D01*
X4561525Y56826632D01*
X4399010Y56583411D01*
X4287068Y56313158D01*
X4230000Y56026260D01*
X4230000Y55733740D01*
X4287068Y55446842D01*
X4399010Y55176589D01*
X4561525Y54933368D01*
X4768368Y54726525D01*
X4942760Y54610000D01*
X4768368Y54493475D01*
X4561525Y54286632D01*
X4399010Y54043411D01*
X4287068Y53773158D01*
X4230000Y53486260D01*
X4230000Y53193740D01*
X4287068Y52906842D01*
X4399010Y52636589D01*
X4561525Y52393368D01*
X4768368Y52186525D01*
X4942760Y52070000D01*
X4768368Y51953475D01*
X4561525Y51746632D01*
X4399010Y51503411D01*
X4287068Y51233158D01*
X4230000Y50946260D01*
X4230000Y50653740D01*
X4287068Y50366842D01*
X4399010Y50096589D01*
X4561525Y49853368D01*
X4768368Y49646525D01*
X4942760Y49530000D01*
X4768368Y49413475D01*
X4561525Y49206632D01*
X4399010Y48963411D01*
X4287068Y48693158D01*
X4230000Y48406260D01*
X4230000Y48113740D01*
X4287068Y47826842D01*
X4399010Y47556589D01*
X4561525Y47313368D01*
X4768368Y47106525D01*
X4942760Y46990000D01*
X4768368Y46873475D01*
X4561525Y46666632D01*
X4399010Y46423411D01*
X4287068Y46153158D01*
X4230000Y45866260D01*
X4230000Y45573740D01*
X4287068Y45286842D01*
X4399010Y45016589D01*
X4561525Y44773368D01*
X4768368Y44566525D01*
X4942760Y44450000D01*
X4768368Y44333475D01*
X4561525Y44126632D01*
X4399010Y43883411D01*
X4287068Y43613158D01*
X4230000Y43326260D01*
X4230000Y43033740D01*
X4287068Y42746842D01*
X4399010Y42476589D01*
X4561525Y42233368D01*
X4768368Y42026525D01*
X4942760Y41910000D01*
X4768368Y41793475D01*
X4561525Y41586632D01*
X4399010Y41343411D01*
X4287068Y41073158D01*
X4230000Y40786260D01*
X4230000Y40493740D01*
X4287068Y40206842D01*
X4399010Y39936589D01*
X4561525Y39693368D01*
X4768368Y39486525D01*
X4942760Y39370000D01*
X4768368Y39253475D01*
X4561525Y39046632D01*
X4399010Y38803411D01*
X4287068Y38533158D01*
X4230000Y38246260D01*
X4230000Y37953740D01*
X4287068Y37666842D01*
X4399010Y37396589D01*
X4561525Y37153368D01*
X4768368Y36946525D01*
X4942760Y36830000D01*
X4768368Y36713475D01*
X4561525Y36506632D01*
X4399010Y36263411D01*
X4287068Y35993158D01*
X4230000Y35706260D01*
X4230000Y35413740D01*
X4287068Y35126842D01*
X4399010Y34856589D01*
X4561525Y34613368D01*
X4768368Y34406525D01*
X4942760Y34290000D01*
X4768368Y34173475D01*
X4561525Y33966632D01*
X4399010Y33723411D01*
X4287068Y33453158D01*
X4230000Y33166260D01*
X4230000Y32873740D01*
X4287068Y32586842D01*
X4399010Y32316589D01*
X4561525Y32073368D01*
X4768368Y31866525D01*
X4942760Y31750000D01*
X4768368Y31633475D01*
X4561525Y31426632D01*
X4399010Y31183411D01*
X4287068Y30913158D01*
X4230000Y30626260D01*
X4230000Y30333740D01*
X4287068Y30046842D01*
X4399010Y29776589D01*
X4561525Y29533368D01*
X4768368Y29326525D01*
X4942760Y29210000D01*
X4768368Y29093475D01*
X4561525Y28886632D01*
X4399010Y28643411D01*
X4287068Y28373158D01*
X4230000Y28086260D01*
X4230000Y27793740D01*
X4287068Y27506842D01*
X4399010Y27236589D01*
X4561525Y26993368D01*
X4768368Y26786525D01*
X4942760Y26670000D01*
X4768368Y26553475D01*
X4561525Y26346632D01*
X4399010Y26103411D01*
X4287068Y25833158D01*
X4230000Y25546260D01*
X4230000Y25253740D01*
X4287068Y24966842D01*
X4399010Y24696589D01*
X4561525Y24453368D01*
X4768368Y24246525D01*
X4942760Y24130000D01*
X4768368Y24013475D01*
X4561525Y23806632D01*
X4399010Y23563411D01*
X4287068Y23293158D01*
X4230000Y23006260D01*
X4230000Y22713740D01*
X4287068Y22426842D01*
X4399010Y22156589D01*
X4561525Y21913368D01*
X4768368Y21706525D01*
X4942760Y21590000D01*
X4768368Y21473475D01*
X4561525Y21266632D01*
X4399010Y21023411D01*
X4287068Y20753158D01*
X4230000Y20466260D01*
X4230000Y20173740D01*
X4287068Y19886842D01*
X4399010Y19616589D01*
X4561525Y19373368D01*
X4768368Y19166525D01*
X4942760Y19050000D01*
X4768368Y18933475D01*
X4561525Y18726632D01*
X4399010Y18483411D01*
X4287068Y18213158D01*
X4230000Y17926260D01*
X4230000Y17633740D01*
X4287068Y17346842D01*
X4399010Y17076589D01*
X4561525Y16833368D01*
X4768368Y16626525D01*
X4942760Y16510000D01*
X4768368Y16393475D01*
X4561525Y16186632D01*
X4399010Y15943411D01*
X4287068Y15673158D01*
X4230000Y15386260D01*
X4230000Y15093740D01*
X4287068Y14806842D01*
X4399010Y14536589D01*
X4561525Y14293368D01*
X4768368Y14086525D01*
X5011589Y13924010D01*
X5281842Y13812068D01*
X5568740Y13755000D01*
X5861260Y13755000D01*
X6148158Y13812068D01*
X6418411Y13924010D01*
X6661632Y14086525D01*
X6793487Y14218380D01*
X6815498Y14145820D01*
X6874463Y14035506D01*
X6953815Y13938815D01*
X7050506Y13859463D01*
X7160820Y13800498D01*
X7280518Y13764188D01*
X7405000Y13751928D01*
X9105000Y13751928D01*
X9229482Y13764188D01*
X9349180Y13800498D01*
X9459494Y13859463D01*
X9556185Y13938815D01*
X9635537Y14035506D01*
X9694502Y14145820D01*
X9730812Y14265518D01*
X9743072Y14390000D01*
X9743072Y15890200D01*
X12263795Y15890200D01*
X12299900Y15886644D01*
X12336005Y15890200D01*
X12443985Y15900835D01*
X12582533Y15942863D01*
X12710220Y16011113D01*
X12822138Y16102962D01*
X12845158Y16131012D01*
X13499520Y16785373D01*
X13658368Y16626525D01*
X13832760Y16510000D01*
X13658368Y16393475D01*
X13451525Y16186632D01*
X13289010Y15943411D01*
X13177068Y15673158D01*
X13120000Y15386260D01*
X13120000Y15093740D01*
X13177068Y14806842D01*
X13289010Y14536589D01*
X13451525Y14293368D01*
X13658368Y14086525D01*
X13901589Y13924010D01*
X14171842Y13812068D01*
X14458740Y13755000D01*
X14751260Y13755000D01*
X15038158Y13812068D01*
X15308411Y13924010D01*
X15551632Y14086525D01*
X15683487Y14218380D01*
X15705498Y14145820D01*
X15764463Y14035506D01*
X15843815Y13938815D01*
X15940506Y13859463D01*
X16050820Y13800498D01*
X16170518Y13764188D01*
X16295000Y13751928D01*
X17995000Y13751928D01*
X18119482Y13764188D01*
X18239180Y13800498D01*
X18349494Y13859463D01*
X18446185Y13938815D01*
X18525537Y14035506D01*
X18584502Y14145820D01*
X18620812Y14265518D01*
X18633072Y14390000D01*
X18633072Y16090000D01*
X18620812Y16214482D01*
X18584502Y16334180D01*
X18525537Y16444494D01*
X18446185Y16541185D01*
X18349494Y16620537D01*
X18239180Y16679502D01*
X18166620Y16701513D01*
X18298475Y16833368D01*
X18460990Y17076589D01*
X18572932Y17346842D01*
X18630000Y17633740D01*
X18630000Y17926260D01*
X18572932Y18213158D01*
X18460990Y18483411D01*
X18298475Y18726632D01*
X18091632Y18933475D01*
X17917240Y19050000D01*
X18091632Y19166525D01*
X18250480Y19325373D01*
X19020046Y18555807D01*
X19043062Y18527762D01*
X19154980Y18435913D01*
X19282667Y18367663D01*
X19421215Y18325635D01*
X19529195Y18315000D01*
X19529204Y18315000D01*
X19565299Y18311445D01*
X19601394Y18315000D01*
X22495736Y18315000D01*
X22531068Y18248899D01*
X22710392Y18030392D01*
X22928899Y17851068D01*
X23061858Y17780000D01*
X22928899Y17708932D01*
X22710392Y17529608D01*
X22531068Y17311101D01*
X22397818Y17061808D01*
X22315764Y16791309D01*
X22288057Y16510000D01*
X22315764Y16228691D01*
X22397818Y15958192D01*
X22531068Y15708899D01*
X22710392Y15490392D01*
X22928899Y15311068D01*
X23056741Y15242735D01*
X22827161Y15092601D01*
X22625500Y14894895D01*
X22466285Y14661646D01*
X22355633Y14401818D01*
X22338096Y14319039D01*
X22460085Y14097000D01*
X24003000Y14097000D01*
X24003000Y14117000D01*
X24257000Y14117000D01*
X24257000Y14097000D01*
X25799915Y14097000D01*
X25921904Y14319039D01*
X25904367Y14401818D01*
X25793715Y14661646D01*
X25634500Y14894895D01*
X25432839Y15092601D01*
X25203259Y15242735D01*
X25331101Y15311068D01*
X25549608Y15490392D01*
X25728932Y15708899D01*
X25764264Y15775000D01*
X26305736Y15775000D01*
X26341068Y15708899D01*
X26520392Y15490392D01*
X26738899Y15311068D01*
X26866741Y15242735D01*
X26637161Y15092601D01*
X26435500Y14894895D01*
X26276285Y14661646D01*
X26165633Y14401818D01*
X26148096Y14319039D01*
X26270085Y14097000D01*
X27813000Y14097000D01*
X27813000Y14117000D01*
X28067000Y14117000D01*
X28067000Y14097000D01*
X29609915Y14097000D01*
X29731904Y14319039D01*
X29714367Y14401818D01*
X29603715Y14661646D01*
X29444500Y14894895D01*
X29242839Y15092601D01*
X29013259Y15242735D01*
X29141101Y15311068D01*
X29359608Y15490392D01*
X29538932Y15708899D01*
X29672182Y15958192D01*
X29754236Y16228691D01*
X29781943Y16510000D01*
X29754236Y16791309D01*
X29672182Y17061808D01*
X29538932Y17311101D01*
X29359608Y17529608D01*
X29141101Y17708932D01*
X29008142Y17780000D01*
X29141101Y17851068D01*
X29359608Y18030392D01*
X29538932Y18248899D01*
X29672182Y18498192D01*
X29754236Y18768691D01*
X29781943Y19050000D01*
X29754236Y19331309D01*
X29677281Y19585000D01*
X29945254Y19585000D01*
X33514446Y16015807D01*
X33537462Y15987762D01*
X33643381Y15900836D01*
X33649380Y15895913D01*
X33777066Y15827663D01*
X33915615Y15785635D01*
X33920298Y15785174D01*
X33961068Y15708899D01*
X34140392Y15490392D01*
X34358899Y15311068D01*
X34491858Y15240000D01*
X34358899Y15168932D01*
X34140392Y14989608D01*
X33961068Y14771101D01*
X33827818Y14521808D01*
X33745764Y14251309D01*
X33718057Y13970000D01*
X33745764Y13688691D01*
X33827818Y13418192D01*
X33961068Y13168899D01*
X34140392Y12950392D01*
X34358899Y12771068D01*
X34608192Y12637818D01*
X34878691Y12555764D01*
X35089508Y12535000D01*
X36030492Y12535000D01*
X36241309Y12555764D01*
X36511808Y12637818D01*
X36761101Y12771068D01*
X36979608Y12950392D01*
X37158932Y13168899D01*
X37194264Y13235000D01*
X37735736Y13235000D01*
X37771068Y13168899D01*
X37950392Y12950392D01*
X38168899Y12771068D01*
X38418192Y12637818D01*
X38688691Y12555764D01*
X38899508Y12535000D01*
X39840492Y12535000D01*
X40051309Y12555764D01*
X40321808Y12637818D01*
X40571101Y12771068D01*
X40789608Y12950392D01*
X40968932Y13168899D01*
X41102182Y13418192D01*
X41184236Y13688691D01*
X41211943Y13970000D01*
X41184236Y14251309D01*
X41102182Y14521808D01*
X40968932Y14771101D01*
X40789608Y14989608D01*
X40571101Y15168932D01*
X40438142Y15240000D01*
X40571101Y15311068D01*
X40789608Y15490392D01*
X40968932Y15708899D01*
X41102182Y15958192D01*
X41184236Y16228691D01*
X41211943Y16510000D01*
X41184236Y16791309D01*
X41102182Y17061808D01*
X40968932Y17311101D01*
X40789608Y17529608D01*
X40571101Y17708932D01*
X40438142Y17780000D01*
X40571101Y17851068D01*
X40789608Y18030392D01*
X40968932Y18248899D01*
X41102182Y18498192D01*
X41184236Y18768691D01*
X41211943Y19050000D01*
X41184236Y19331309D01*
X41102182Y19601808D01*
X40968932Y19851101D01*
X40789608Y20069608D01*
X40571101Y20248932D01*
X40438142Y20320000D01*
X40571101Y20391068D01*
X40789608Y20570392D01*
X40968932Y20788899D01*
X41102182Y21038192D01*
X41184236Y21308691D01*
X41211943Y21590000D01*
X41184236Y21871309D01*
X41102182Y22141808D01*
X40968932Y22391101D01*
X40789608Y22609608D01*
X40571101Y22788932D01*
X40438142Y22860000D01*
X40571101Y22931068D01*
X40789608Y23110392D01*
X40968932Y23328899D01*
X41102182Y23578192D01*
X41184236Y23848691D01*
X41211943Y24130000D01*
X41184236Y24411309D01*
X41102182Y24681808D01*
X40968932Y24931101D01*
X40789608Y25149608D01*
X40571101Y25328932D01*
X40438142Y25400000D01*
X40571101Y25471068D01*
X40789608Y25650392D01*
X40968932Y25868899D01*
X41009702Y25945174D01*
X41014385Y25945635D01*
X41152933Y25987663D01*
X41280620Y26055913D01*
X41392538Y26147762D01*
X41415558Y26175812D01*
X42190097Y26950350D01*
X42218137Y26973362D01*
X42241150Y27001403D01*
X42241153Y27001406D01*
X42309987Y27085280D01*
X42378237Y27212966D01*
X42420265Y27351515D01*
X42434456Y27495600D01*
X42430900Y27531705D01*
X42430900Y46645096D01*
X42434456Y46681201D01*
X42420265Y46825286D01*
X42389921Y46925316D01*
X42378237Y46963833D01*
X42309987Y47091520D01*
X42218138Y47203438D01*
X42190093Y47226454D01*
X33985300Y55431246D01*
X33985300Y56656335D01*
X34760000Y56656335D01*
X34760000Y56373665D01*
X34815147Y56096426D01*
X34923320Y55835273D01*
X35080363Y55600241D01*
X35280241Y55400363D01*
X35515273Y55243320D01*
X35776426Y55135147D01*
X36053665Y55080000D01*
X36336335Y55080000D01*
X36613574Y55135147D01*
X36874727Y55243320D01*
X37109759Y55400363D01*
X37309637Y55600241D01*
X37429748Y55780000D01*
X38698895Y55780000D01*
X38735000Y55776444D01*
X38771105Y55780000D01*
X38879085Y55790635D01*
X39017633Y55832663D01*
X39145320Y55900913D01*
X39257238Y55992762D01*
X39280259Y56020813D01*
X43376581Y60117134D01*
X43663816Y60060000D01*
X43966184Y60060000D01*
X44262743Y60118989D01*
X44542095Y60234701D01*
X44793505Y60402688D01*
X45007312Y60616495D01*
X45175299Y60867905D01*
X45291011Y61147257D01*
X45350000Y61443816D01*
X45350000Y61746184D01*
X45291011Y62042743D01*
X45175299Y62322095D01*
X45007312Y62573505D01*
X44940873Y62639944D01*
X44959180Y62645498D01*
X45069494Y62704463D01*
X45166185Y62783815D01*
X45245537Y62880506D01*
X45304502Y62990820D01*
X45340812Y63110518D01*
X45353072Y63235000D01*
X45350000Y63849250D01*
X45191250Y64008000D01*
X43942000Y64008000D01*
X43942000Y63988000D01*
X43688000Y63988000D01*
X43688000Y64008000D01*
X42438750Y64008000D01*
X42280000Y63849250D01*
X42276928Y63235000D01*
X42289188Y63110518D01*
X42325498Y62990820D01*
X42384463Y62880506D01*
X42463815Y62783815D01*
X42560506Y62704463D01*
X42670820Y62645498D01*
X42689127Y62639944D01*
X42622688Y62573505D01*
X42454701Y62322095D01*
X42338989Y62042743D01*
X42280000Y61746184D01*
X42280000Y61443816D01*
X42337134Y61156581D01*
X38430554Y57250000D01*
X37429748Y57250000D01*
X37309637Y57429759D01*
X37109759Y57629637D01*
X36874727Y57786680D01*
X36613574Y57894853D01*
X36336335Y57950000D01*
X36053665Y57950000D01*
X35776426Y57894853D01*
X35515273Y57786680D01*
X35280241Y57629637D01*
X35080363Y57429759D01*
X34923320Y57194727D01*
X34815147Y56933574D01*
X34760000Y56656335D01*
X33985300Y56656335D01*
X33985300Y61558895D01*
X33988856Y61595000D01*
X33974665Y61739085D01*
X33932637Y61877633D01*
X33864387Y62005320D01*
X33772538Y62117238D01*
X33660620Y62209087D01*
X33532933Y62277337D01*
X33394385Y62319365D01*
X33389702Y62319826D01*
X33348932Y62396101D01*
X33169608Y62614608D01*
X32951101Y62793932D01*
X32818142Y62865000D01*
X32951101Y62936068D01*
X33169608Y63115392D01*
X33348932Y63333899D01*
X33482182Y63583192D01*
X33564236Y63853691D01*
X33591943Y64135000D01*
X33564236Y64416309D01*
X33482182Y64686808D01*
X33348932Y64936101D01*
X33267768Y65035000D01*
X42276928Y65035000D01*
X42280000Y64420750D01*
X42438750Y64262000D01*
X43688000Y64262000D01*
X43688000Y65511250D01*
X43942000Y65511250D01*
X43942000Y64262000D01*
X45191250Y64262000D01*
X45350000Y64420750D01*
X45353072Y65035000D01*
X45340812Y65159482D01*
X45304502Y65279180D01*
X45245537Y65389494D01*
X45166185Y65486185D01*
X45069494Y65565537D01*
X44959180Y65624502D01*
X44839482Y65660812D01*
X44715000Y65673072D01*
X44100750Y65670000D01*
X43942000Y65511250D01*
X43688000Y65511250D01*
X43529250Y65670000D01*
X42915000Y65673072D01*
X42790518Y65660812D01*
X42670820Y65624502D01*
X42560506Y65565537D01*
X42463815Y65486185D01*
X42384463Y65389494D01*
X42325498Y65279180D01*
X42289188Y65159482D01*
X42276928Y65035000D01*
X33267768Y65035000D01*
X33169608Y65154608D01*
X32951101Y65333932D01*
X32818142Y65405000D01*
X32951101Y65476068D01*
X33169608Y65655392D01*
X33348932Y65873899D01*
X33384264Y65940000D01*
X34960252Y65940000D01*
X35080363Y65760241D01*
X35280241Y65560363D01*
X35515273Y65403320D01*
X35776426Y65295147D01*
X36053665Y65240000D01*
X36336335Y65240000D01*
X36613574Y65295147D01*
X36874727Y65403320D01*
X37109759Y65560363D01*
X37309637Y65760241D01*
X37466680Y65995273D01*
X37574853Y66256426D01*
X37630000Y66533665D01*
X37630000Y66816335D01*
X37574853Y67093574D01*
X37466680Y67354727D01*
X37309637Y67589759D01*
X37109759Y67789637D01*
X36877241Y67945000D01*
X37109759Y68100363D01*
X37309637Y68300241D01*
X37466680Y68535273D01*
X37574853Y68796426D01*
X37630000Y69073665D01*
X37630000Y69356335D01*
X37574853Y69633574D01*
X37466680Y69894727D01*
X37309637Y70129759D01*
X37109759Y70329637D01*
X36874727Y70486680D01*
X36613574Y70594853D01*
X36336335Y70650000D01*
X36053665Y70650000D01*
X35776426Y70594853D01*
X35515273Y70486680D01*
X35280241Y70329637D01*
X35080363Y70129759D01*
X34960252Y69950000D01*
X33384264Y69950000D01*
X33348932Y70016101D01*
X33169608Y70234608D01*
X32951101Y70413932D01*
X32818142Y70485000D01*
X32951101Y70556068D01*
X33169608Y70735392D01*
X33348932Y70953899D01*
X33482182Y71203192D01*
X33564236Y71473691D01*
X33591943Y71755000D01*
X33564236Y72036309D01*
X33482182Y72306808D01*
X33348932Y72556101D01*
X33169608Y72774608D01*
X32951101Y72953932D01*
X32818142Y73025000D01*
X32951101Y73096068D01*
X33169608Y73275392D01*
X33267767Y73395000D01*
X42276928Y73395000D01*
X42289188Y73270518D01*
X42325498Y73150820D01*
X42384463Y73040506D01*
X42463815Y72943815D01*
X42560506Y72864463D01*
X42670820Y72805498D01*
X42790518Y72769188D01*
X42915000Y72756928D01*
X43529250Y72760000D01*
X43688000Y72918750D01*
X43688000Y74168000D01*
X43942000Y74168000D01*
X43942000Y72918750D01*
X44100750Y72760000D01*
X44715000Y72756928D01*
X44839482Y72769188D01*
X44959180Y72805498D01*
X45069494Y72864463D01*
X45166185Y72943815D01*
X45245537Y73040506D01*
X45304502Y73150820D01*
X45340812Y73270518D01*
X45353072Y73395000D01*
X45350000Y74009250D01*
X45191250Y74168000D01*
X43942000Y74168000D01*
X43688000Y74168000D01*
X42438750Y74168000D01*
X42280000Y74009250D01*
X42276928Y73395000D01*
X33267767Y73395000D01*
X33348932Y73493899D01*
X33482182Y73743192D01*
X33564236Y74013691D01*
X33591943Y74295000D01*
X33564236Y74576309D01*
X33482182Y74846808D01*
X33348932Y75096101D01*
X33169608Y75314608D01*
X32951101Y75493932D01*
X32818142Y75565000D01*
X32951101Y75636068D01*
X33169608Y75815392D01*
X33348932Y76033899D01*
X33482182Y76283192D01*
X33564236Y76553691D01*
X33591943Y76835000D01*
X33564236Y77116309D01*
X33482182Y77386808D01*
X33348932Y77636101D01*
X33169608Y77854608D01*
X32951101Y78033932D01*
X32818142Y78105000D01*
X32951101Y78176068D01*
X33169608Y78355392D01*
X33348932Y78573899D01*
X33482182Y78823192D01*
X33564236Y79093691D01*
X33591943Y79375000D01*
X33578023Y79516335D01*
X34760000Y79516335D01*
X34760000Y79233665D01*
X34815147Y78956426D01*
X34923320Y78695273D01*
X35080363Y78460241D01*
X35280241Y78260363D01*
X35515273Y78103320D01*
X35776426Y77995147D01*
X36053665Y77940000D01*
X36336335Y77940000D01*
X36613574Y77995147D01*
X36874727Y78103320D01*
X37109759Y78260363D01*
X37309637Y78460241D01*
X37429748Y78640000D01*
X40970554Y78640000D01*
X42337134Y77273419D01*
X42280000Y76986184D01*
X42280000Y76683816D01*
X42338989Y76387257D01*
X42454701Y76107905D01*
X42622688Y75856495D01*
X42689127Y75790056D01*
X42670820Y75784502D01*
X42560506Y75725537D01*
X42463815Y75646185D01*
X42384463Y75549494D01*
X42325498Y75439180D01*
X42289188Y75319482D01*
X42276928Y75195000D01*
X42280000Y74580750D01*
X42438750Y74422000D01*
X43688000Y74422000D01*
X43688000Y74442000D01*
X43942000Y74442000D01*
X43942000Y74422000D01*
X45191250Y74422000D01*
X45350000Y74580750D01*
X45353072Y75195000D01*
X45340812Y75319482D01*
X45304502Y75439180D01*
X45245537Y75549494D01*
X45166185Y75646185D01*
X45069494Y75725537D01*
X44959180Y75784502D01*
X44940873Y75790056D01*
X45007312Y75856495D01*
X45175299Y76107905D01*
X45291011Y76387257D01*
X45350000Y76683816D01*
X45350000Y76986184D01*
X45291011Y77282743D01*
X45175299Y77562095D01*
X45007312Y77813505D01*
X44793505Y78027312D01*
X44542095Y78195299D01*
X44262743Y78311011D01*
X43966184Y78370000D01*
X43663816Y78370000D01*
X43376581Y78312866D01*
X41820259Y79869188D01*
X41797238Y79897238D01*
X41685320Y79989087D01*
X41557633Y80057337D01*
X41419085Y80099365D01*
X41311105Y80110000D01*
X41275000Y80113556D01*
X41238895Y80110000D01*
X37429748Y80110000D01*
X37309637Y80289759D01*
X37109759Y80489637D01*
X36874727Y80646680D01*
X36613574Y80754853D01*
X36336335Y80810000D01*
X36053665Y80810000D01*
X35776426Y80754853D01*
X35515273Y80646680D01*
X35280241Y80489637D01*
X35080363Y80289759D01*
X34923320Y80054727D01*
X34815147Y79793574D01*
X34760000Y79516335D01*
X33578023Y79516335D01*
X33564236Y79656309D01*
X33482182Y79926808D01*
X33348932Y80176101D01*
X33169608Y80394608D01*
X32951101Y80573932D01*
X32818142Y80645000D01*
X32951101Y80716068D01*
X33169608Y80895392D01*
X33348932Y81113899D01*
X33482182Y81363192D01*
X33564236Y81633691D01*
X33591943Y81915000D01*
X33564236Y82196309D01*
X33482182Y82466808D01*
X33348932Y82716101D01*
X33169608Y82934608D01*
X32951101Y83113932D01*
X32818142Y83185000D01*
X32951101Y83256068D01*
X33169608Y83435392D01*
X33348932Y83653899D01*
X33482182Y83903192D01*
X33564236Y84173691D01*
X33591943Y84455000D01*
X33564236Y84736309D01*
X33482182Y85006808D01*
X33348932Y85256101D01*
X33169608Y85474608D01*
X32951101Y85653932D01*
X32701808Y85787182D01*
X32431309Y85869236D01*
X32220492Y85890000D01*
X31279508Y85890000D01*
X31068691Y85869236D01*
X30798192Y85787182D01*
X30548899Y85653932D01*
X30330392Y85474608D01*
X30151068Y85256101D01*
X30017818Y85006808D01*
X29935764Y84736309D01*
X29908057Y84455000D01*
X29935764Y84173691D01*
X30017818Y83903192D01*
X30151068Y83653899D01*
X30330392Y83435392D01*
X30548899Y83256068D01*
X30681858Y83185000D01*
X30548899Y83113932D01*
X30330392Y82934608D01*
X30151068Y82716101D01*
X30017818Y82466808D01*
X29935764Y82196309D01*
X29908057Y81915000D01*
X29935764Y81633691D01*
X30017818Y81363192D01*
X30151068Y81113899D01*
X30330392Y80895392D01*
X30548899Y80716068D01*
X30681858Y80645000D01*
X30548899Y80573932D01*
X30330392Y80394608D01*
X30151068Y80176101D01*
X30110298Y80099826D01*
X30105615Y80099365D01*
X29967066Y80057337D01*
X29839380Y79989087D01*
X29727462Y79897238D01*
X29704446Y79869193D01*
X27304208Y77468954D01*
X27276163Y77445938D01*
X27184314Y77334020D01*
X27136903Y77245320D01*
X27116064Y77206333D01*
X27074035Y77067785D01*
X27059844Y76923700D01*
X27063401Y76887585D01*
X27063400Y73707947D01*
X25792544Y72437091D01*
X25728932Y72556101D01*
X25549608Y72774608D01*
X25331101Y72953932D01*
X25198142Y73025000D01*
X25331101Y73096068D01*
X25549608Y73275392D01*
X25728932Y73493899D01*
X25862182Y73743192D01*
X25944236Y74013691D01*
X25971943Y74295000D01*
X25944236Y74576309D01*
X25862182Y74846808D01*
X25728932Y75096101D01*
X25549608Y75314608D01*
X25331101Y75493932D01*
X25198142Y75565000D01*
X25331101Y75636068D01*
X25549608Y75815392D01*
X25728932Y76033899D01*
X25862182Y76283192D01*
X25944236Y76553691D01*
X25971943Y76835000D01*
X25944236Y77116309D01*
X25862182Y77386808D01*
X25728932Y77636101D01*
X25549608Y77854608D01*
X25331101Y78033932D01*
X25198142Y78105000D01*
X25331101Y78176068D01*
X25549608Y78355392D01*
X25728932Y78573899D01*
X25862182Y78823192D01*
X25944236Y79093691D01*
X25971943Y79375000D01*
X25944236Y79656309D01*
X25862182Y79926808D01*
X25728932Y80176101D01*
X25549608Y80394608D01*
X25331101Y80573932D01*
X25198142Y80645000D01*
X25331101Y80716068D01*
X25549608Y80895392D01*
X25728932Y81113899D01*
X25862182Y81363192D01*
X25944236Y81633691D01*
X25971943Y81915000D01*
X25944236Y82196309D01*
X25862182Y82466808D01*
X25728932Y82716101D01*
X25549608Y82934608D01*
X25436518Y83027419D01*
X25454482Y83029188D01*
X25574180Y83065498D01*
X25684494Y83124463D01*
X25781185Y83203815D01*
X25860537Y83300506D01*
X25919502Y83410820D01*
X25955812Y83530518D01*
X25968072Y83655000D01*
X25968072Y85255000D01*
X25955812Y85379482D01*
X25919502Y85499180D01*
X25860537Y85609494D01*
X25781185Y85706185D01*
X25684494Y85785537D01*
X25574180Y85844502D01*
X25454482Y85880812D01*
X25330000Y85893072D01*
X22930000Y85893072D01*
X22805518Y85880812D01*
X22685820Y85844502D01*
X22575506Y85785537D01*
X22478815Y85706185D01*
X22399463Y85609494D01*
X22340498Y85499180D01*
X22304188Y85379482D01*
X22291928Y85255000D01*
X22291928Y85107865D01*
X22219380Y85069087D01*
X22107462Y84977238D01*
X22015613Y84865320D01*
X21947363Y84737633D01*
X21905335Y84599085D01*
X21891144Y84455000D01*
X21894700Y84418895D01*
X21894701Y72741148D01*
X18451367Y69297813D01*
X18298475Y69526632D01*
X18091632Y69733475D01*
X17917240Y69850000D01*
X18091632Y69966525D01*
X18298475Y70173368D01*
X18460990Y70416589D01*
X18572932Y70686842D01*
X18630000Y70973740D01*
X18630000Y71266260D01*
X18572932Y71553158D01*
X18460990Y71823411D01*
X18298475Y72066632D01*
X18091632Y72273475D01*
X17917240Y72390000D01*
X18091632Y72506525D01*
X18298475Y72713368D01*
X18460990Y72956589D01*
X18572932Y73226842D01*
X18630000Y73513740D01*
X18630000Y73806260D01*
X18572932Y74093158D01*
X18460990Y74363411D01*
X18298475Y74606632D01*
X18091632Y74813475D01*
X17917240Y74930000D01*
X18091632Y75046525D01*
X18298475Y75253368D01*
X18460990Y75496589D01*
X18572932Y75766842D01*
X18630000Y76053740D01*
X18630000Y76346260D01*
X18572932Y76633158D01*
X18460990Y76903411D01*
X18298475Y77146632D01*
X18091632Y77353475D01*
X17848411Y77515990D01*
X17578158Y77627932D01*
X17291260Y77685000D01*
X16998740Y77685000D01*
X16711842Y77627932D01*
X16441589Y77515990D01*
X16198368Y77353475D01*
X15991525Y77146632D01*
X15873900Y76970594D01*
X15702588Y77200269D01*
X15486355Y77395178D01*
X15236252Y77544157D01*
X14961891Y77641481D01*
X14732000Y77520814D01*
X14732000Y76327000D01*
X14752000Y76327000D01*
X14752000Y76073000D01*
X14732000Y76073000D01*
X14732000Y76053000D01*
X14478000Y76053000D01*
X14478000Y76073000D01*
X13284845Y76073000D01*
X13163524Y75843110D01*
X13208175Y75695901D01*
X13276288Y75552900D01*
X10599305Y75552900D01*
X10563200Y75556456D01*
X10527095Y75552900D01*
X10419115Y75542265D01*
X10280567Y75500237D01*
X10152880Y75431987D01*
X10040962Y75340138D01*
X10017946Y75312093D01*
X9360480Y74654627D01*
X9201632Y74813475D01*
X9027240Y74930000D01*
X9201632Y75046525D01*
X9408475Y75253368D01*
X9570990Y75496589D01*
X9682932Y75766842D01*
X9740000Y76053740D01*
X9740000Y76346260D01*
X9698103Y76556890D01*
X13163524Y76556890D01*
X13284845Y76327000D01*
X14478000Y76327000D01*
X14478000Y77520814D01*
X14248109Y77641481D01*
X13973748Y77544157D01*
X13723645Y77395178D01*
X13507412Y77200269D01*
X13333359Y76966920D01*
X13208175Y76704099D01*
X13163524Y76556890D01*
X9698103Y76556890D01*
X9682932Y76633158D01*
X9570990Y76903411D01*
X9408475Y77146632D01*
X9201632Y77353475D01*
X8958411Y77515990D01*
X8688158Y77627932D01*
X8401260Y77685000D01*
X8108740Y77685000D01*
X7821842Y77627932D01*
X7551589Y77515990D01*
X7308368Y77353475D01*
X7101525Y77146632D01*
X6983900Y76970594D01*
X6812588Y77200269D01*
X6596355Y77395178D01*
X6346252Y77544157D01*
X6071891Y77641481D01*
X5842000Y77520814D01*
X5842000Y76327000D01*
X5862000Y76327000D01*
X5862000Y76073000D01*
X5842000Y76073000D01*
X5842000Y73787000D01*
X5862000Y73787000D01*
X5862000Y73533000D01*
X5842000Y73533000D01*
X5842000Y73513000D01*
X5588000Y73513000D01*
X5588000Y73533000D01*
X4394845Y73533000D01*
X4273524Y73303110D01*
X4318175Y73155901D01*
X4443359Y72893080D01*
X4617412Y72659731D01*
X4833645Y72464822D01*
X4950534Y72395195D01*
X4768368Y72273475D01*
X4561525Y72066632D01*
X4399010Y71823411D01*
X4287068Y71553158D01*
X4230000Y71266260D01*
X660000Y71266260D01*
X660000Y75843110D01*
X4273524Y75843110D01*
X4318175Y75695901D01*
X4443359Y75433080D01*
X4617412Y75199731D01*
X4833645Y75004822D01*
X4959255Y74930000D01*
X4833645Y74855178D01*
X4617412Y74660269D01*
X4443359Y74426920D01*
X4318175Y74164099D01*
X4273524Y74016890D01*
X4394845Y73787000D01*
X5588000Y73787000D01*
X5588000Y76073000D01*
X4394845Y76073000D01*
X4273524Y75843110D01*
X660000Y75843110D01*
X660000Y76556890D01*
X4273524Y76556890D01*
X4394845Y76327000D01*
X5588000Y76327000D01*
X5588000Y77520814D01*
X5358109Y77641481D01*
X5083748Y77544157D01*
X4833645Y77395178D01*
X4617412Y77200269D01*
X4443359Y76966920D01*
X4318175Y76704099D01*
X4273524Y76556890D01*
X660000Y76556890D01*
X660000Y86220128D01*
X2765000Y86220128D01*
X2765000Y85779872D01*
X2850890Y85348075D01*
X3019369Y84941331D01*
X3263962Y84575271D01*
X3575271Y84263962D01*
X3941331Y84019369D01*
X4348075Y83850890D01*
X4779872Y83765000D01*
X5220128Y83765000D01*
X5651925Y83850890D01*
X6058669Y84019369D01*
X6424729Y84263962D01*
X6736038Y84575271D01*
X6980631Y84941331D01*
X7149110Y85348075D01*
X7235000Y85779872D01*
X7235000Y86220128D01*
X7152020Y86637298D01*
X25896903Y86637298D01*
X25968486Y86393329D01*
X26223996Y86272429D01*
X26498184Y86203700D01*
X26780512Y86189783D01*
X27060130Y86231213D01*
X27326292Y86326397D01*
X27451514Y86393329D01*
X27523097Y86637298D01*
X26710000Y87450395D01*
X25896903Y86637298D01*
X7152020Y86637298D01*
X7149110Y86651925D01*
X6980631Y87058669D01*
X6736038Y87424729D01*
X6601279Y87559488D01*
X25269783Y87559488D01*
X25311213Y87279870D01*
X25406397Y87013708D01*
X25473329Y86888486D01*
X25717298Y86816903D01*
X26530395Y87630000D01*
X26889605Y87630000D01*
X27702702Y86816903D01*
X27946671Y86888486D01*
X27960324Y86917341D01*
X28095363Y86715241D01*
X28295241Y86515363D01*
X28530273Y86358320D01*
X28791426Y86250147D01*
X29068665Y86195000D01*
X29351335Y86195000D01*
X29477660Y86220128D01*
X39765000Y86220128D01*
X39765000Y85779872D01*
X39850890Y85348075D01*
X40019369Y84941331D01*
X40263962Y84575271D01*
X40575271Y84263962D01*
X40941331Y84019369D01*
X41348075Y83850890D01*
X41779872Y83765000D01*
X42220128Y83765000D01*
X42651925Y83850890D01*
X43058669Y84019369D01*
X43424729Y84263962D01*
X43736038Y84575271D01*
X43980631Y84941331D01*
X44149110Y85348075D01*
X44235000Y85779872D01*
X44235000Y86220128D01*
X44149110Y86651925D01*
X43980631Y87058669D01*
X43736038Y87424729D01*
X43424729Y87736038D01*
X43058669Y87980631D01*
X42651925Y88149110D01*
X42220128Y88235000D01*
X41779872Y88235000D01*
X41348075Y88149110D01*
X40941331Y87980631D01*
X40575271Y87736038D01*
X40263962Y87424729D01*
X40019369Y87058669D01*
X39850890Y86651925D01*
X39765000Y86220128D01*
X29477660Y86220128D01*
X29628574Y86250147D01*
X29889727Y86358320D01*
X30124759Y86515363D01*
X30324637Y86715241D01*
X30481680Y86950273D01*
X30589853Y87211426D01*
X30645000Y87488665D01*
X30645000Y87771335D01*
X30589853Y88048574D01*
X30481680Y88309727D01*
X30324637Y88544759D01*
X30124759Y88744637D01*
X29889727Y88901680D01*
X29628574Y89009853D01*
X29351335Y89065000D01*
X29068665Y89065000D01*
X28791426Y89009853D01*
X28530273Y88901680D01*
X28295241Y88744637D01*
X28095363Y88544759D01*
X27961308Y88344131D01*
X27946671Y88371514D01*
X27702702Y88443097D01*
X26889605Y87630000D01*
X26530395Y87630000D01*
X25717298Y88443097D01*
X25473329Y88371514D01*
X25352429Y88116004D01*
X25283700Y87841816D01*
X25269783Y87559488D01*
X6601279Y87559488D01*
X6424729Y87736038D01*
X6058669Y87980631D01*
X5651925Y88149110D01*
X5220128Y88235000D01*
X4779872Y88235000D01*
X4348075Y88149110D01*
X3941331Y87980631D01*
X3575271Y87736038D01*
X3263962Y87424729D01*
X3019369Y87058669D01*
X2850890Y86651925D01*
X2765000Y86220128D01*
X660000Y86220128D01*
X660000Y88622702D01*
X25896903Y88622702D01*
X26710000Y87809605D01*
X27523097Y88622702D01*
X27451514Y88866671D01*
X27196004Y88987571D01*
X26921816Y89056300D01*
X26639488Y89070217D01*
X26359870Y89028787D01*
X26093708Y88933603D01*
X25968486Y88866671D01*
X25896903Y88622702D01*
X660000Y88622702D01*
X660000Y90340000D01*
X46340001Y90340000D01*
X46340000Y660000D01*
G04 #@! TA.AperFunction,Conductor*
D23*
G36*
X46340000Y660000D02*
G01*
X660000Y660000D01*
X660000Y5220128D01*
X2765000Y5220128D01*
X2765000Y4779872D01*
X2850890Y4348075D01*
X3019369Y3941331D01*
X3263962Y3575271D01*
X3575271Y3263962D01*
X3941331Y3019369D01*
X4348075Y2850890D01*
X4779872Y2765000D01*
X5220128Y2765000D01*
X5651925Y2850890D01*
X6058669Y3019369D01*
X6424729Y3263962D01*
X6736038Y3575271D01*
X6980631Y3941331D01*
X7149110Y4348075D01*
X7235000Y4779872D01*
X7235000Y5220128D01*
X7231585Y5237298D01*
X13951903Y5237298D01*
X14023486Y4993329D01*
X14278996Y4872429D01*
X14553184Y4803700D01*
X14835512Y4789783D01*
X15115130Y4831213D01*
X15381292Y4926397D01*
X15506514Y4993329D01*
X15573059Y5220128D01*
X39765000Y5220128D01*
X39765000Y4779872D01*
X39850890Y4348075D01*
X40019369Y3941331D01*
X40263962Y3575271D01*
X40575271Y3263962D01*
X40941331Y3019369D01*
X41348075Y2850890D01*
X41779872Y2765000D01*
X42220128Y2765000D01*
X42651925Y2850890D01*
X43058669Y3019369D01*
X43424729Y3263962D01*
X43736038Y3575271D01*
X43980631Y3941331D01*
X44149110Y4348075D01*
X44235000Y4779872D01*
X44235000Y5220128D01*
X44149110Y5651925D01*
X43980631Y6058669D01*
X43736038Y6424729D01*
X43424729Y6736038D01*
X43058669Y6980631D01*
X42651925Y7149110D01*
X42220128Y7235000D01*
X41779872Y7235000D01*
X41348075Y7149110D01*
X40941331Y6980631D01*
X40575271Y6736038D01*
X40263962Y6424729D01*
X40019369Y6058669D01*
X39850890Y5651925D01*
X39765000Y5220128D01*
X15573059Y5220128D01*
X15578097Y5237298D01*
X14765000Y6050395D01*
X13951903Y5237298D01*
X7231585Y5237298D01*
X7149110Y5651925D01*
X6980631Y6058669D01*
X6913267Y6159488D01*
X13324783Y6159488D01*
X13366213Y5879870D01*
X13461397Y5613708D01*
X13528329Y5488486D01*
X13772298Y5416903D01*
X14585395Y6230000D01*
X14944605Y6230000D01*
X15757702Y5416903D01*
X16001671Y5488486D01*
X16122571Y5743996D01*
X16191300Y6018184D01*
X16205217Y6300512D01*
X16163787Y6580130D01*
X16068603Y6846292D01*
X16001671Y6971514D01*
X15757702Y7043097D01*
X14944605Y6230000D01*
X14585395Y6230000D01*
X13772298Y7043097D01*
X13528329Y6971514D01*
X13407429Y6716004D01*
X13338700Y6441816D01*
X13324783Y6159488D01*
X6913267Y6159488D01*
X6736038Y6424729D01*
X6424729Y6736038D01*
X6058669Y6980631D01*
X5651925Y7149110D01*
X5220128Y7235000D01*
X4779872Y7235000D01*
X4348075Y7149110D01*
X3941331Y6980631D01*
X3575271Y6736038D01*
X3263962Y6424729D01*
X3019369Y6058669D01*
X2850890Y5651925D01*
X2765000Y5220128D01*
X660000Y5220128D01*
X660000Y9530000D01*
X13326928Y9530000D01*
X13326928Y7930000D01*
X13339188Y7805518D01*
X13375498Y7685820D01*
X13434463Y7575506D01*
X13513815Y7478815D01*
X13610506Y7399463D01*
X13720820Y7340498D01*
X13840518Y7304188D01*
X13965000Y7291928D01*
X13972215Y7291928D01*
X13951903Y7222702D01*
X14765000Y6409605D01*
X15578097Y7222702D01*
X15557785Y7291928D01*
X15565000Y7291928D01*
X15689482Y7304188D01*
X15809180Y7340498D01*
X15919494Y7399463D01*
X16016185Y7478815D01*
X16095537Y7575506D01*
X16154502Y7685820D01*
X16190812Y7805518D01*
X16203072Y7930000D01*
X16203072Y9530000D01*
X16190812Y9654482D01*
X16154502Y9774180D01*
X16095537Y9884494D01*
X16016185Y9981185D01*
X15919494Y10060537D01*
X15809180Y10119502D01*
X15689482Y10155812D01*
X15565000Y10168072D01*
X13965000Y10168072D01*
X13840518Y10155812D01*
X13720820Y10119502D01*
X13610506Y10060537D01*
X13513815Y9981185D01*
X13434463Y9884494D01*
X13375498Y9774180D01*
X13339188Y9654482D01*
X13326928Y9530000D01*
X660000Y9530000D01*
X660000Y13620961D01*
X22338096Y13620961D01*
X22355633Y13538182D01*
X22466285Y13278354D01*
X22625500Y13045105D01*
X22827161Y12847399D01*
X23063517Y12692834D01*
X23325486Y12587350D01*
X23603000Y12535000D01*
X24003000Y12535000D01*
X24003000Y13843000D01*
X24257000Y13843000D01*
X24257000Y12535000D01*
X24657000Y12535000D01*
X24934514Y12587350D01*
X25196483Y12692834D01*
X25432839Y12847399D01*
X25634500Y13045105D01*
X25793715Y13278354D01*
X25904367Y13538182D01*
X25921904Y13620961D01*
X26148096Y13620961D01*
X26165633Y13538182D01*
X26276285Y13278354D01*
X26435500Y13045105D01*
X26637161Y12847399D01*
X26873517Y12692834D01*
X27135486Y12587350D01*
X27413000Y12535000D01*
X27813000Y12535000D01*
X27813000Y13843000D01*
X28067000Y13843000D01*
X28067000Y12535000D01*
X28467000Y12535000D01*
X28744514Y12587350D01*
X29006483Y12692834D01*
X29242839Y12847399D01*
X29444500Y13045105D01*
X29603715Y13278354D01*
X29714367Y13538182D01*
X29731904Y13620961D01*
X29609915Y13843000D01*
X28067000Y13843000D01*
X27813000Y13843000D01*
X26270085Y13843000D01*
X26148096Y13620961D01*
X25921904Y13620961D01*
X25799915Y13843000D01*
X24257000Y13843000D01*
X24003000Y13843000D01*
X22460085Y13843000D01*
X22338096Y13620961D01*
X660000Y13620961D01*
X660000Y71266260D01*
X4230000Y71266260D01*
X4230000Y70973740D01*
X4287068Y70686842D01*
X4399010Y70416589D01*
X4561525Y70173368D01*
X4768368Y69966525D01*
X4942760Y69850000D01*
X4768368Y69733475D01*
X4561525Y69526632D01*
X4399010Y69283411D01*
X4287068Y69013158D01*
X4230000Y68726260D01*
X4230000Y68433740D01*
X4287068Y68146842D01*
X4399010Y67876589D01*
X4561525Y67633368D01*
X4768368Y67426525D01*
X4942760Y67310000D01*
X4768368Y67193475D01*
X4561525Y66986632D01*
X4399010Y66743411D01*
X4287068Y66473158D01*
X4230000Y66186260D01*
X4230000Y65893740D01*
X4287068Y65606842D01*
X4399010Y65336589D01*
X4561525Y65093368D01*
X4768368Y64886525D01*
X4942760Y64770000D01*
X4768368Y64653475D01*
X4561525Y64446632D01*
X4399010Y64203411D01*
X4287068Y63933158D01*
X4230000Y63646260D01*
X4230000Y63353740D01*
X4287068Y63066842D01*
X4399010Y62796589D01*
X4561525Y62553368D01*
X4768368Y62346525D01*
X4942760Y62230000D01*
X4768368Y62113475D01*
X4561525Y61906632D01*
X4399010Y61663411D01*
X4287068Y61393158D01*
X4230000Y61106260D01*
X4230000Y60813740D01*
X4287068Y60526842D01*
X4399010Y60256589D01*
X4561525Y60013368D01*
X4768368Y59806525D01*
X4942760Y59690000D01*
X4768368Y59573475D01*
X4561525Y59366632D01*
X4399010Y59123411D01*
X4287068Y58853158D01*
X4230000Y58566260D01*
X4230000Y58273740D01*
X4287068Y57986842D01*
X4399010Y57716589D01*
X4561525Y57473368D01*
X4768368Y57266525D01*
X4942760Y57150000D01*
X4768368Y57033475D01*
X4561525Y56826632D01*
X4399010Y56583411D01*
X4287068Y56313158D01*
X4230000Y56026260D01*
X4230000Y55733740D01*
X4287068Y55446842D01*
X4399010Y55176589D01*
X4561525Y54933368D01*
X4768368Y54726525D01*
X4942760Y54610000D01*
X4768368Y54493475D01*
X4561525Y54286632D01*
X4399010Y54043411D01*
X4287068Y53773158D01*
X4230000Y53486260D01*
X4230000Y53193740D01*
X4287068Y52906842D01*
X4399010Y52636589D01*
X4561525Y52393368D01*
X4768368Y52186525D01*
X4942760Y52070000D01*
X4768368Y51953475D01*
X4561525Y51746632D01*
X4399010Y51503411D01*
X4287068Y51233158D01*
X4230000Y50946260D01*
X4230000Y50653740D01*
X4287068Y50366842D01*
X4399010Y50096589D01*
X4561525Y49853368D01*
X4768368Y49646525D01*
X4942760Y49530000D01*
X4768368Y49413475D01*
X4561525Y49206632D01*
X4399010Y48963411D01*
X4287068Y48693158D01*
X4230000Y48406260D01*
X4230000Y48113740D01*
X4287068Y47826842D01*
X4399010Y47556589D01*
X4561525Y47313368D01*
X4768368Y47106525D01*
X4942760Y46990000D01*
X4768368Y46873475D01*
X4561525Y46666632D01*
X4399010Y46423411D01*
X4287068Y46153158D01*
X4230000Y45866260D01*
X4230000Y45573740D01*
X4287068Y45286842D01*
X4399010Y45016589D01*
X4561525Y44773368D01*
X4768368Y44566525D01*
X4942760Y44450000D01*
X4768368Y44333475D01*
X4561525Y44126632D01*
X4399010Y43883411D01*
X4287068Y43613158D01*
X4230000Y43326260D01*
X4230000Y43033740D01*
X4287068Y42746842D01*
X4399010Y42476589D01*
X4561525Y42233368D01*
X4768368Y42026525D01*
X4942760Y41910000D01*
X4768368Y41793475D01*
X4561525Y41586632D01*
X4399010Y41343411D01*
X4287068Y41073158D01*
X4230000Y40786260D01*
X4230000Y40493740D01*
X4287068Y40206842D01*
X4399010Y39936589D01*
X4561525Y39693368D01*
X4768368Y39486525D01*
X4942760Y39370000D01*
X4768368Y39253475D01*
X4561525Y39046632D01*
X4399010Y38803411D01*
X4287068Y38533158D01*
X4230000Y38246260D01*
X4230000Y37953740D01*
X4287068Y37666842D01*
X4399010Y37396589D01*
X4561525Y37153368D01*
X4768368Y36946525D01*
X4942760Y36830000D01*
X4768368Y36713475D01*
X4561525Y36506632D01*
X4399010Y36263411D01*
X4287068Y35993158D01*
X4230000Y35706260D01*
X4230000Y35413740D01*
X4287068Y35126842D01*
X4399010Y34856589D01*
X4561525Y34613368D01*
X4768368Y34406525D01*
X4942760Y34290000D01*
X4768368Y34173475D01*
X4561525Y33966632D01*
X4399010Y33723411D01*
X4287068Y33453158D01*
X4230000Y33166260D01*
X4230000Y32873740D01*
X4287068Y32586842D01*
X4399010Y32316589D01*
X4561525Y32073368D01*
X4768368Y31866525D01*
X4942760Y31750000D01*
X4768368Y31633475D01*
X4561525Y31426632D01*
X4399010Y31183411D01*
X4287068Y30913158D01*
X4230000Y30626260D01*
X4230000Y30333740D01*
X4287068Y30046842D01*
X4399010Y29776589D01*
X4561525Y29533368D01*
X4768368Y29326525D01*
X4942760Y29210000D01*
X4768368Y29093475D01*
X4561525Y28886632D01*
X4399010Y28643411D01*
X4287068Y28373158D01*
X4230000Y28086260D01*
X4230000Y27793740D01*
X4287068Y27506842D01*
X4399010Y27236589D01*
X4561525Y26993368D01*
X4768368Y26786525D01*
X4942760Y26670000D01*
X4768368Y26553475D01*
X4561525Y26346632D01*
X4399010Y26103411D01*
X4287068Y25833158D01*
X4230000Y25546260D01*
X4230000Y25253740D01*
X4287068Y24966842D01*
X4399010Y24696589D01*
X4561525Y24453368D01*
X4768368Y24246525D01*
X4942760Y24130000D01*
X4768368Y24013475D01*
X4561525Y23806632D01*
X4399010Y23563411D01*
X4287068Y23293158D01*
X4230000Y23006260D01*
X4230000Y22713740D01*
X4287068Y22426842D01*
X4399010Y22156589D01*
X4561525Y21913368D01*
X4768368Y21706525D01*
X4942760Y21590000D01*
X4768368Y21473475D01*
X4561525Y21266632D01*
X4399010Y21023411D01*
X4287068Y20753158D01*
X4230000Y20466260D01*
X4230000Y20173740D01*
X4287068Y19886842D01*
X4399010Y19616589D01*
X4561525Y19373368D01*
X4768368Y19166525D01*
X4942760Y19050000D01*
X4768368Y18933475D01*
X4561525Y18726632D01*
X4399010Y18483411D01*
X4287068Y18213158D01*
X4230000Y17926260D01*
X4230000Y17633740D01*
X4287068Y17346842D01*
X4399010Y17076589D01*
X4561525Y16833368D01*
X4768368Y16626525D01*
X4942760Y16510000D01*
X4768368Y16393475D01*
X4561525Y16186632D01*
X4399010Y15943411D01*
X4287068Y15673158D01*
X4230000Y15386260D01*
X4230000Y15093740D01*
X4287068Y14806842D01*
X4399010Y14536589D01*
X4561525Y14293368D01*
X4768368Y14086525D01*
X5011589Y13924010D01*
X5281842Y13812068D01*
X5568740Y13755000D01*
X5861260Y13755000D01*
X6148158Y13812068D01*
X6418411Y13924010D01*
X6661632Y14086525D01*
X6793487Y14218380D01*
X6815498Y14145820D01*
X6874463Y14035506D01*
X6953815Y13938815D01*
X7050506Y13859463D01*
X7160820Y13800498D01*
X7280518Y13764188D01*
X7405000Y13751928D01*
X9105000Y13751928D01*
X9229482Y13764188D01*
X9349180Y13800498D01*
X9459494Y13859463D01*
X9556185Y13938815D01*
X9635537Y14035506D01*
X9694502Y14145820D01*
X9730812Y14265518D01*
X9743072Y14390000D01*
X9743072Y15890200D01*
X12263795Y15890200D01*
X12299900Y15886644D01*
X12336005Y15890200D01*
X12443985Y15900835D01*
X12582533Y15942863D01*
X12710220Y16011113D01*
X12822138Y16102962D01*
X12845158Y16131012D01*
X13499520Y16785373D01*
X13658368Y16626525D01*
X13832760Y16510000D01*
X13658368Y16393475D01*
X13451525Y16186632D01*
X13289010Y15943411D01*
X13177068Y15673158D01*
X13120000Y15386260D01*
X13120000Y15093740D01*
X13177068Y14806842D01*
X13289010Y14536589D01*
X13451525Y14293368D01*
X13658368Y14086525D01*
X13901589Y13924010D01*
X14171842Y13812068D01*
X14458740Y13755000D01*
X14751260Y13755000D01*
X15038158Y13812068D01*
X15308411Y13924010D01*
X15551632Y14086525D01*
X15683487Y14218380D01*
X15705498Y14145820D01*
X15764463Y14035506D01*
X15843815Y13938815D01*
X15940506Y13859463D01*
X16050820Y13800498D01*
X16170518Y13764188D01*
X16295000Y13751928D01*
X17995000Y13751928D01*
X18119482Y13764188D01*
X18239180Y13800498D01*
X18349494Y13859463D01*
X18446185Y13938815D01*
X18525537Y14035506D01*
X18584502Y14145820D01*
X18620812Y14265518D01*
X18633072Y14390000D01*
X18633072Y16090000D01*
X18620812Y16214482D01*
X18584502Y16334180D01*
X18525537Y16444494D01*
X18446185Y16541185D01*
X18349494Y16620537D01*
X18239180Y16679502D01*
X18166620Y16701513D01*
X18298475Y16833368D01*
X18460990Y17076589D01*
X18572932Y17346842D01*
X18630000Y17633740D01*
X18630000Y17926260D01*
X18572932Y18213158D01*
X18460990Y18483411D01*
X18298475Y18726632D01*
X18091632Y18933475D01*
X17917240Y19050000D01*
X18091632Y19166525D01*
X18250480Y19325373D01*
X19020046Y18555807D01*
X19043062Y18527762D01*
X19154980Y18435913D01*
X19282667Y18367663D01*
X19421215Y18325635D01*
X19529195Y18315000D01*
X19529204Y18315000D01*
X19565299Y18311445D01*
X19601394Y18315000D01*
X22495736Y18315000D01*
X22531068Y18248899D01*
X22710392Y18030392D01*
X22928899Y17851068D01*
X23061858Y17780000D01*
X22928899Y17708932D01*
X22710392Y17529608D01*
X22531068Y17311101D01*
X22397818Y17061808D01*
X22315764Y16791309D01*
X22288057Y16510000D01*
X22315764Y16228691D01*
X22397818Y15958192D01*
X22531068Y15708899D01*
X22710392Y15490392D01*
X22928899Y15311068D01*
X23056741Y15242735D01*
X22827161Y15092601D01*
X22625500Y14894895D01*
X22466285Y14661646D01*
X22355633Y14401818D01*
X22338096Y14319039D01*
X22460085Y14097000D01*
X24003000Y14097000D01*
X24003000Y14117000D01*
X24257000Y14117000D01*
X24257000Y14097000D01*
X25799915Y14097000D01*
X25921904Y14319039D01*
X25904367Y14401818D01*
X25793715Y14661646D01*
X25634500Y14894895D01*
X25432839Y15092601D01*
X25203259Y15242735D01*
X25331101Y15311068D01*
X25549608Y15490392D01*
X25728932Y15708899D01*
X25764264Y15775000D01*
X26305736Y15775000D01*
X26341068Y15708899D01*
X26520392Y15490392D01*
X26738899Y15311068D01*
X26866741Y15242735D01*
X26637161Y15092601D01*
X26435500Y14894895D01*
X26276285Y14661646D01*
X26165633Y14401818D01*
X26148096Y14319039D01*
X26270085Y14097000D01*
X27813000Y14097000D01*
X27813000Y14117000D01*
X28067000Y14117000D01*
X28067000Y14097000D01*
X29609915Y14097000D01*
X29731904Y14319039D01*
X29714367Y14401818D01*
X29603715Y14661646D01*
X29444500Y14894895D01*
X29242839Y15092601D01*
X29013259Y15242735D01*
X29141101Y15311068D01*
X29359608Y15490392D01*
X29538932Y15708899D01*
X29672182Y15958192D01*
X29754236Y16228691D01*
X29781943Y16510000D01*
X29754236Y16791309D01*
X29672182Y17061808D01*
X29538932Y17311101D01*
X29359608Y17529608D01*
X29141101Y17708932D01*
X29008142Y17780000D01*
X29141101Y17851068D01*
X29359608Y18030392D01*
X29538932Y18248899D01*
X29672182Y18498192D01*
X29754236Y18768691D01*
X29781943Y19050000D01*
X29754236Y19331309D01*
X29677281Y19585000D01*
X29945254Y19585000D01*
X33514446Y16015807D01*
X33537462Y15987762D01*
X33643381Y15900836D01*
X33649380Y15895913D01*
X33777066Y15827663D01*
X33915615Y15785635D01*
X33920298Y15785174D01*
X33961068Y15708899D01*
X34140392Y15490392D01*
X34358899Y15311068D01*
X34491858Y15240000D01*
X34358899Y15168932D01*
X34140392Y14989608D01*
X33961068Y14771101D01*
X33827818Y14521808D01*
X33745764Y14251309D01*
X33718057Y13970000D01*
X33745764Y13688691D01*
X33827818Y13418192D01*
X33961068Y13168899D01*
X34140392Y12950392D01*
X34358899Y12771068D01*
X34608192Y12637818D01*
X34878691Y12555764D01*
X35089508Y12535000D01*
X36030492Y12535000D01*
X36241309Y12555764D01*
X36511808Y12637818D01*
X36761101Y12771068D01*
X36979608Y12950392D01*
X37158932Y13168899D01*
X37194264Y13235000D01*
X37735736Y13235000D01*
X37771068Y13168899D01*
X37950392Y12950392D01*
X38168899Y12771068D01*
X38418192Y12637818D01*
X38688691Y12555764D01*
X38899508Y12535000D01*
X39840492Y12535000D01*
X40051309Y12555764D01*
X40321808Y12637818D01*
X40571101Y12771068D01*
X40789608Y12950392D01*
X40968932Y13168899D01*
X41102182Y13418192D01*
X41184236Y13688691D01*
X41211943Y13970000D01*
X41184236Y14251309D01*
X41102182Y14521808D01*
X40968932Y14771101D01*
X40789608Y14989608D01*
X40571101Y15168932D01*
X40438142Y15240000D01*
X40571101Y15311068D01*
X40789608Y15490392D01*
X40968932Y15708899D01*
X41102182Y15958192D01*
X41184236Y16228691D01*
X41211943Y16510000D01*
X41184236Y16791309D01*
X41102182Y17061808D01*
X40968932Y17311101D01*
X40789608Y17529608D01*
X40571101Y17708932D01*
X40438142Y17780000D01*
X40571101Y17851068D01*
X40789608Y18030392D01*
X40968932Y18248899D01*
X41102182Y18498192D01*
X41184236Y18768691D01*
X41211943Y19050000D01*
X41184236Y19331309D01*
X41102182Y19601808D01*
X40968932Y19851101D01*
X40789608Y20069608D01*
X40571101Y20248932D01*
X40438142Y20320000D01*
X40571101Y20391068D01*
X40789608Y20570392D01*
X40968932Y20788899D01*
X41102182Y21038192D01*
X41184236Y21308691D01*
X41211943Y21590000D01*
X41184236Y21871309D01*
X41102182Y22141808D01*
X40968932Y22391101D01*
X40789608Y22609608D01*
X40571101Y22788932D01*
X40438142Y22860000D01*
X40571101Y22931068D01*
X40789608Y23110392D01*
X40968932Y23328899D01*
X41102182Y23578192D01*
X41184236Y23848691D01*
X41211943Y24130000D01*
X41184236Y24411309D01*
X41102182Y24681808D01*
X40968932Y24931101D01*
X40789608Y25149608D01*
X40571101Y25328932D01*
X40438142Y25400000D01*
X40571101Y25471068D01*
X40789608Y25650392D01*
X40968932Y25868899D01*
X41009702Y25945174D01*
X41014385Y25945635D01*
X41152933Y25987663D01*
X41280620Y26055913D01*
X41392538Y26147762D01*
X41415558Y26175812D01*
X42190097Y26950350D01*
X42218137Y26973362D01*
X42241150Y27001403D01*
X42241153Y27001406D01*
X42309987Y27085280D01*
X42378237Y27212966D01*
X42420265Y27351515D01*
X42434456Y27495600D01*
X42430900Y27531705D01*
X42430900Y46645096D01*
X42434456Y46681201D01*
X42420265Y46825286D01*
X42389921Y46925316D01*
X42378237Y46963833D01*
X42309987Y47091520D01*
X42218138Y47203438D01*
X42190093Y47226454D01*
X33985300Y55431246D01*
X33985300Y56656335D01*
X34760000Y56656335D01*
X34760000Y56373665D01*
X34815147Y56096426D01*
X34923320Y55835273D01*
X35080363Y55600241D01*
X35280241Y55400363D01*
X35515273Y55243320D01*
X35776426Y55135147D01*
X36053665Y55080000D01*
X36336335Y55080000D01*
X36613574Y55135147D01*
X36874727Y55243320D01*
X37109759Y55400363D01*
X37309637Y55600241D01*
X37429748Y55780000D01*
X38698895Y55780000D01*
X38735000Y55776444D01*
X38771105Y55780000D01*
X38879085Y55790635D01*
X39017633Y55832663D01*
X39145320Y55900913D01*
X39257238Y55992762D01*
X39280259Y56020813D01*
X43376581Y60117134D01*
X43663816Y60060000D01*
X43966184Y60060000D01*
X44262743Y60118989D01*
X44542095Y60234701D01*
X44793505Y60402688D01*
X45007312Y60616495D01*
X45175299Y60867905D01*
X45291011Y61147257D01*
X45350000Y61443816D01*
X45350000Y61746184D01*
X45291011Y62042743D01*
X45175299Y62322095D01*
X45007312Y62573505D01*
X44940873Y62639944D01*
X44959180Y62645498D01*
X45069494Y62704463D01*
X45166185Y62783815D01*
X45245537Y62880506D01*
X45304502Y62990820D01*
X45340812Y63110518D01*
X45353072Y63235000D01*
X45350000Y63849250D01*
X45191250Y64008000D01*
X43942000Y64008000D01*
X43942000Y63988000D01*
X43688000Y63988000D01*
X43688000Y64008000D01*
X42438750Y64008000D01*
X42280000Y63849250D01*
X42276928Y63235000D01*
X42289188Y63110518D01*
X42325498Y62990820D01*
X42384463Y62880506D01*
X42463815Y62783815D01*
X42560506Y62704463D01*
X42670820Y62645498D01*
X42689127Y62639944D01*
X42622688Y62573505D01*
X42454701Y62322095D01*
X42338989Y62042743D01*
X42280000Y61746184D01*
X42280000Y61443816D01*
X42337134Y61156581D01*
X38430554Y57250000D01*
X37429748Y57250000D01*
X37309637Y57429759D01*
X37109759Y57629637D01*
X36874727Y57786680D01*
X36613574Y57894853D01*
X36336335Y57950000D01*
X36053665Y57950000D01*
X35776426Y57894853D01*
X35515273Y57786680D01*
X35280241Y57629637D01*
X35080363Y57429759D01*
X34923320Y57194727D01*
X34815147Y56933574D01*
X34760000Y56656335D01*
X33985300Y56656335D01*
X33985300Y61558895D01*
X33988856Y61595000D01*
X33974665Y61739085D01*
X33932637Y61877633D01*
X33864387Y62005320D01*
X33772538Y62117238D01*
X33660620Y62209087D01*
X33532933Y62277337D01*
X33394385Y62319365D01*
X33389702Y62319826D01*
X33348932Y62396101D01*
X33169608Y62614608D01*
X32951101Y62793932D01*
X32818142Y62865000D01*
X32951101Y62936068D01*
X33169608Y63115392D01*
X33348932Y63333899D01*
X33482182Y63583192D01*
X33564236Y63853691D01*
X33591943Y64135000D01*
X33564236Y64416309D01*
X33482182Y64686808D01*
X33348932Y64936101D01*
X33267768Y65035000D01*
X42276928Y65035000D01*
X42280000Y64420750D01*
X42438750Y64262000D01*
X43688000Y64262000D01*
X43688000Y65511250D01*
X43942000Y65511250D01*
X43942000Y64262000D01*
X45191250Y64262000D01*
X45350000Y64420750D01*
X45353072Y65035000D01*
X45340812Y65159482D01*
X45304502Y65279180D01*
X45245537Y65389494D01*
X45166185Y65486185D01*
X45069494Y65565537D01*
X44959180Y65624502D01*
X44839482Y65660812D01*
X44715000Y65673072D01*
X44100750Y65670000D01*
X43942000Y65511250D01*
X43688000Y65511250D01*
X43529250Y65670000D01*
X42915000Y65673072D01*
X42790518Y65660812D01*
X42670820Y65624502D01*
X42560506Y65565537D01*
X42463815Y65486185D01*
X42384463Y65389494D01*
X42325498Y65279180D01*
X42289188Y65159482D01*
X42276928Y65035000D01*
X33267768Y65035000D01*
X33169608Y65154608D01*
X32951101Y65333932D01*
X32818142Y65405000D01*
X32951101Y65476068D01*
X33169608Y65655392D01*
X33348932Y65873899D01*
X33384264Y65940000D01*
X34960252Y65940000D01*
X35080363Y65760241D01*
X35280241Y65560363D01*
X35515273Y65403320D01*
X35776426Y65295147D01*
X36053665Y65240000D01*
X36336335Y65240000D01*
X36613574Y65295147D01*
X36874727Y65403320D01*
X37109759Y65560363D01*
X37309637Y65760241D01*
X37466680Y65995273D01*
X37574853Y66256426D01*
X37630000Y66533665D01*
X37630000Y66816335D01*
X37574853Y67093574D01*
X37466680Y67354727D01*
X37309637Y67589759D01*
X37109759Y67789637D01*
X36877241Y67945000D01*
X37109759Y68100363D01*
X37309637Y68300241D01*
X37466680Y68535273D01*
X37574853Y68796426D01*
X37630000Y69073665D01*
X37630000Y69356335D01*
X37574853Y69633574D01*
X37466680Y69894727D01*
X37309637Y70129759D01*
X37109759Y70329637D01*
X36874727Y70486680D01*
X36613574Y70594853D01*
X36336335Y70650000D01*
X36053665Y70650000D01*
X35776426Y70594853D01*
X35515273Y70486680D01*
X35280241Y70329637D01*
X35080363Y70129759D01*
X34960252Y69950000D01*
X33384264Y69950000D01*
X33348932Y70016101D01*
X33169608Y70234608D01*
X32951101Y70413932D01*
X32818142Y70485000D01*
X32951101Y70556068D01*
X33169608Y70735392D01*
X33348932Y70953899D01*
X33482182Y71203192D01*
X33564236Y71473691D01*
X33591943Y71755000D01*
X33564236Y72036309D01*
X33482182Y72306808D01*
X33348932Y72556101D01*
X33169608Y72774608D01*
X32951101Y72953932D01*
X32818142Y73025000D01*
X32951101Y73096068D01*
X33169608Y73275392D01*
X33267767Y73395000D01*
X42276928Y73395000D01*
X42289188Y73270518D01*
X42325498Y73150820D01*
X42384463Y73040506D01*
X42463815Y72943815D01*
X42560506Y72864463D01*
X42670820Y72805498D01*
X42790518Y72769188D01*
X42915000Y72756928D01*
X43529250Y72760000D01*
X43688000Y72918750D01*
X43688000Y74168000D01*
X43942000Y74168000D01*
X43942000Y72918750D01*
X44100750Y72760000D01*
X44715000Y72756928D01*
X44839482Y72769188D01*
X44959180Y72805498D01*
X45069494Y72864463D01*
X45166185Y72943815D01*
X45245537Y73040506D01*
X45304502Y73150820D01*
X45340812Y73270518D01*
X45353072Y73395000D01*
X45350000Y74009250D01*
X45191250Y74168000D01*
X43942000Y74168000D01*
X43688000Y74168000D01*
X42438750Y74168000D01*
X42280000Y74009250D01*
X42276928Y73395000D01*
X33267767Y73395000D01*
X33348932Y73493899D01*
X33482182Y73743192D01*
X33564236Y74013691D01*
X33591943Y74295000D01*
X33564236Y74576309D01*
X33482182Y74846808D01*
X33348932Y75096101D01*
X33169608Y75314608D01*
X32951101Y75493932D01*
X32818142Y75565000D01*
X32951101Y75636068D01*
X33169608Y75815392D01*
X33348932Y76033899D01*
X33482182Y76283192D01*
X33564236Y76553691D01*
X33591943Y76835000D01*
X33564236Y77116309D01*
X33482182Y77386808D01*
X33348932Y77636101D01*
X33169608Y77854608D01*
X32951101Y78033932D01*
X32818142Y78105000D01*
X32951101Y78176068D01*
X33169608Y78355392D01*
X33348932Y78573899D01*
X33482182Y78823192D01*
X33564236Y79093691D01*
X33591943Y79375000D01*
X33578023Y79516335D01*
X34760000Y79516335D01*
X34760000Y79233665D01*
X34815147Y78956426D01*
X34923320Y78695273D01*
X35080363Y78460241D01*
X35280241Y78260363D01*
X35515273Y78103320D01*
X35776426Y77995147D01*
X36053665Y77940000D01*
X36336335Y77940000D01*
X36613574Y77995147D01*
X36874727Y78103320D01*
X37109759Y78260363D01*
X37309637Y78460241D01*
X37429748Y78640000D01*
X40970554Y78640000D01*
X42337134Y77273419D01*
X42280000Y76986184D01*
X42280000Y76683816D01*
X42338989Y76387257D01*
X42454701Y76107905D01*
X42622688Y75856495D01*
X42689127Y75790056D01*
X42670820Y75784502D01*
X42560506Y75725537D01*
X42463815Y75646185D01*
X42384463Y75549494D01*
X42325498Y75439180D01*
X42289188Y75319482D01*
X42276928Y75195000D01*
X42280000Y74580750D01*
X42438750Y74422000D01*
X43688000Y74422000D01*
X43688000Y74442000D01*
X43942000Y74442000D01*
X43942000Y74422000D01*
X45191250Y74422000D01*
X45350000Y74580750D01*
X45353072Y75195000D01*
X45340812Y75319482D01*
X45304502Y75439180D01*
X45245537Y75549494D01*
X45166185Y75646185D01*
X45069494Y75725537D01*
X44959180Y75784502D01*
X44940873Y75790056D01*
X45007312Y75856495D01*
X45175299Y76107905D01*
X45291011Y76387257D01*
X45350000Y76683816D01*
X45350000Y76986184D01*
X45291011Y77282743D01*
X45175299Y77562095D01*
X45007312Y77813505D01*
X44793505Y78027312D01*
X44542095Y78195299D01*
X44262743Y78311011D01*
X43966184Y78370000D01*
X43663816Y78370000D01*
X43376581Y78312866D01*
X41820259Y79869188D01*
X41797238Y79897238D01*
X41685320Y79989087D01*
X41557633Y80057337D01*
X41419085Y80099365D01*
X41311105Y80110000D01*
X41275000Y80113556D01*
X41238895Y80110000D01*
X37429748Y80110000D01*
X37309637Y80289759D01*
X37109759Y80489637D01*
X36874727Y80646680D01*
X36613574Y80754853D01*
X36336335Y80810000D01*
X36053665Y80810000D01*
X35776426Y80754853D01*
X35515273Y80646680D01*
X35280241Y80489637D01*
X35080363Y80289759D01*
X34923320Y80054727D01*
X34815147Y79793574D01*
X34760000Y79516335D01*
X33578023Y79516335D01*
X33564236Y79656309D01*
X33482182Y79926808D01*
X33348932Y80176101D01*
X33169608Y80394608D01*
X32951101Y80573932D01*
X32818142Y80645000D01*
X32951101Y80716068D01*
X33169608Y80895392D01*
X33348932Y81113899D01*
X33482182Y81363192D01*
X33564236Y81633691D01*
X33591943Y81915000D01*
X33564236Y82196309D01*
X33482182Y82466808D01*
X33348932Y82716101D01*
X33169608Y82934608D01*
X32951101Y83113932D01*
X32818142Y83185000D01*
X32951101Y83256068D01*
X33169608Y83435392D01*
X33348932Y83653899D01*
X33482182Y83903192D01*
X33564236Y84173691D01*
X33591943Y84455000D01*
X33564236Y84736309D01*
X33482182Y85006808D01*
X33348932Y85256101D01*
X33169608Y85474608D01*
X32951101Y85653932D01*
X32701808Y85787182D01*
X32431309Y85869236D01*
X32220492Y85890000D01*
X31279508Y85890000D01*
X31068691Y85869236D01*
X30798192Y85787182D01*
X30548899Y85653932D01*
X30330392Y85474608D01*
X30151068Y85256101D01*
X30017818Y85006808D01*
X29935764Y84736309D01*
X29908057Y84455000D01*
X29935764Y84173691D01*
X30017818Y83903192D01*
X30151068Y83653899D01*
X30330392Y83435392D01*
X30548899Y83256068D01*
X30681858Y83185000D01*
X30548899Y83113932D01*
X30330392Y82934608D01*
X30151068Y82716101D01*
X30017818Y82466808D01*
X29935764Y82196309D01*
X29908057Y81915000D01*
X29935764Y81633691D01*
X30017818Y81363192D01*
X30151068Y81113899D01*
X30330392Y80895392D01*
X30548899Y80716068D01*
X30681858Y80645000D01*
X30548899Y80573932D01*
X30330392Y80394608D01*
X30151068Y80176101D01*
X30110298Y80099826D01*
X30105615Y80099365D01*
X29967066Y80057337D01*
X29839380Y79989087D01*
X29727462Y79897238D01*
X29704446Y79869193D01*
X27304208Y77468954D01*
X27276163Y77445938D01*
X27184314Y77334020D01*
X27136903Y77245320D01*
X27116064Y77206333D01*
X27074035Y77067785D01*
X27059844Y76923700D01*
X27063401Y76887585D01*
X27063400Y73707947D01*
X25792544Y72437091D01*
X25728932Y72556101D01*
X25549608Y72774608D01*
X25331101Y72953932D01*
X25198142Y73025000D01*
X25331101Y73096068D01*
X25549608Y73275392D01*
X25728932Y73493899D01*
X25862182Y73743192D01*
X25944236Y74013691D01*
X25971943Y74295000D01*
X25944236Y74576309D01*
X25862182Y74846808D01*
X25728932Y75096101D01*
X25549608Y75314608D01*
X25331101Y75493932D01*
X25198142Y75565000D01*
X25331101Y75636068D01*
X25549608Y75815392D01*
X25728932Y76033899D01*
X25862182Y76283192D01*
X25944236Y76553691D01*
X25971943Y76835000D01*
X25944236Y77116309D01*
X25862182Y77386808D01*
X25728932Y77636101D01*
X25549608Y77854608D01*
X25331101Y78033932D01*
X25198142Y78105000D01*
X25331101Y78176068D01*
X25549608Y78355392D01*
X25728932Y78573899D01*
X25862182Y78823192D01*
X25944236Y79093691D01*
X25971943Y79375000D01*
X25944236Y79656309D01*
X25862182Y79926808D01*
X25728932Y80176101D01*
X25549608Y80394608D01*
X25331101Y80573932D01*
X25198142Y80645000D01*
X25331101Y80716068D01*
X25549608Y80895392D01*
X25728932Y81113899D01*
X25862182Y81363192D01*
X25944236Y81633691D01*
X25971943Y81915000D01*
X25944236Y82196309D01*
X25862182Y82466808D01*
X25728932Y82716101D01*
X25549608Y82934608D01*
X25436518Y83027419D01*
X25454482Y83029188D01*
X25574180Y83065498D01*
X25684494Y83124463D01*
X25781185Y83203815D01*
X25860537Y83300506D01*
X25919502Y83410820D01*
X25955812Y83530518D01*
X25968072Y83655000D01*
X25968072Y85255000D01*
X25955812Y85379482D01*
X25919502Y85499180D01*
X25860537Y85609494D01*
X25781185Y85706185D01*
X25684494Y85785537D01*
X25574180Y85844502D01*
X25454482Y85880812D01*
X25330000Y85893072D01*
X22930000Y85893072D01*
X22805518Y85880812D01*
X22685820Y85844502D01*
X22575506Y85785537D01*
X22478815Y85706185D01*
X22399463Y85609494D01*
X22340498Y85499180D01*
X22304188Y85379482D01*
X22291928Y85255000D01*
X22291928Y85107865D01*
X22219380Y85069087D01*
X22107462Y84977238D01*
X22015613Y84865320D01*
X21947363Y84737633D01*
X21905335Y84599085D01*
X21891144Y84455000D01*
X21894700Y84418895D01*
X21894701Y72741148D01*
X18451367Y69297813D01*
X18298475Y69526632D01*
X18091632Y69733475D01*
X17917240Y69850000D01*
X18091632Y69966525D01*
X18298475Y70173368D01*
X18460990Y70416589D01*
X18572932Y70686842D01*
X18630000Y70973740D01*
X18630000Y71266260D01*
X18572932Y71553158D01*
X18460990Y71823411D01*
X18298475Y72066632D01*
X18091632Y72273475D01*
X17917240Y72390000D01*
X18091632Y72506525D01*
X18298475Y72713368D01*
X18460990Y72956589D01*
X18572932Y73226842D01*
X18630000Y73513740D01*
X18630000Y73806260D01*
X18572932Y74093158D01*
X18460990Y74363411D01*
X18298475Y74606632D01*
X18091632Y74813475D01*
X17917240Y74930000D01*
X18091632Y75046525D01*
X18298475Y75253368D01*
X18460990Y75496589D01*
X18572932Y75766842D01*
X18630000Y76053740D01*
X18630000Y76346260D01*
X18572932Y76633158D01*
X18460990Y76903411D01*
X18298475Y77146632D01*
X18091632Y77353475D01*
X17848411Y77515990D01*
X17578158Y77627932D01*
X17291260Y77685000D01*
X16998740Y77685000D01*
X16711842Y77627932D01*
X16441589Y77515990D01*
X16198368Y77353475D01*
X15991525Y77146632D01*
X15873900Y76970594D01*
X15702588Y77200269D01*
X15486355Y77395178D01*
X15236252Y77544157D01*
X14961891Y77641481D01*
X14732000Y77520814D01*
X14732000Y76327000D01*
X14752000Y76327000D01*
X14752000Y76073000D01*
X14732000Y76073000D01*
X14732000Y76053000D01*
X14478000Y76053000D01*
X14478000Y76073000D01*
X13284845Y76073000D01*
X13163524Y75843110D01*
X13208175Y75695901D01*
X13276288Y75552900D01*
X10599305Y75552900D01*
X10563200Y75556456D01*
X10527095Y75552900D01*
X10419115Y75542265D01*
X10280567Y75500237D01*
X10152880Y75431987D01*
X10040962Y75340138D01*
X10017946Y75312093D01*
X9360480Y74654627D01*
X9201632Y74813475D01*
X9027240Y74930000D01*
X9201632Y75046525D01*
X9408475Y75253368D01*
X9570990Y75496589D01*
X9682932Y75766842D01*
X9740000Y76053740D01*
X9740000Y76346260D01*
X9698103Y76556890D01*
X13163524Y76556890D01*
X13284845Y76327000D01*
X14478000Y76327000D01*
X14478000Y77520814D01*
X14248109Y77641481D01*
X13973748Y77544157D01*
X13723645Y77395178D01*
X13507412Y77200269D01*
X13333359Y76966920D01*
X13208175Y76704099D01*
X13163524Y76556890D01*
X9698103Y76556890D01*
X9682932Y76633158D01*
X9570990Y76903411D01*
X9408475Y77146632D01*
X9201632Y77353475D01*
X8958411Y77515990D01*
X8688158Y77627932D01*
X8401260Y77685000D01*
X8108740Y77685000D01*
X7821842Y77627932D01*
X7551589Y77515990D01*
X7308368Y77353475D01*
X7101525Y77146632D01*
X6983900Y76970594D01*
X6812588Y77200269D01*
X6596355Y77395178D01*
X6346252Y77544157D01*
X6071891Y77641481D01*
X5842000Y77520814D01*
X5842000Y76327000D01*
X5862000Y76327000D01*
X5862000Y76073000D01*
X5842000Y76073000D01*
X5842000Y73787000D01*
X5862000Y73787000D01*
X5862000Y73533000D01*
X5842000Y73533000D01*
X5842000Y73513000D01*
X5588000Y73513000D01*
X5588000Y73533000D01*
X4394845Y73533000D01*
X4273524Y73303110D01*
X4318175Y73155901D01*
X4443359Y72893080D01*
X4617412Y72659731D01*
X4833645Y72464822D01*
X4950534Y72395195D01*
X4768368Y72273475D01*
X4561525Y72066632D01*
X4399010Y71823411D01*
X4287068Y71553158D01*
X4230000Y71266260D01*
X660000Y71266260D01*
X660000Y75843110D01*
X4273524Y75843110D01*
X4318175Y75695901D01*
X4443359Y75433080D01*
X4617412Y75199731D01*
X4833645Y75004822D01*
X4959255Y74930000D01*
X4833645Y74855178D01*
X4617412Y74660269D01*
X4443359Y74426920D01*
X4318175Y74164099D01*
X4273524Y74016890D01*
X4394845Y73787000D01*
X5588000Y73787000D01*
X5588000Y76073000D01*
X4394845Y76073000D01*
X4273524Y75843110D01*
X660000Y75843110D01*
X660000Y76556890D01*
X4273524Y76556890D01*
X4394845Y76327000D01*
X5588000Y76327000D01*
X5588000Y77520814D01*
X5358109Y77641481D01*
X5083748Y77544157D01*
X4833645Y77395178D01*
X4617412Y77200269D01*
X4443359Y76966920D01*
X4318175Y76704099D01*
X4273524Y76556890D01*
X660000Y76556890D01*
X660000Y86220128D01*
X2765000Y86220128D01*
X2765000Y85779872D01*
X2850890Y85348075D01*
X3019369Y84941331D01*
X3263962Y84575271D01*
X3575271Y84263962D01*
X3941331Y84019369D01*
X4348075Y83850890D01*
X4779872Y83765000D01*
X5220128Y83765000D01*
X5651925Y83850890D01*
X6058669Y84019369D01*
X6424729Y84263962D01*
X6736038Y84575271D01*
X6980631Y84941331D01*
X7149110Y85348075D01*
X7235000Y85779872D01*
X7235000Y86220128D01*
X7152020Y86637298D01*
X25896903Y86637298D01*
X25968486Y86393329D01*
X26223996Y86272429D01*
X26498184Y86203700D01*
X26780512Y86189783D01*
X27060130Y86231213D01*
X27326292Y86326397D01*
X27451514Y86393329D01*
X27523097Y86637298D01*
X26710000Y87450395D01*
X25896903Y86637298D01*
X7152020Y86637298D01*
X7149110Y86651925D01*
X6980631Y87058669D01*
X6736038Y87424729D01*
X6601279Y87559488D01*
X25269783Y87559488D01*
X25311213Y87279870D01*
X25406397Y87013708D01*
X25473329Y86888486D01*
X25717298Y86816903D01*
X26530395Y87630000D01*
X26889605Y87630000D01*
X27702702Y86816903D01*
X27946671Y86888486D01*
X27960324Y86917341D01*
X28095363Y86715241D01*
X28295241Y86515363D01*
X28530273Y86358320D01*
X28791426Y86250147D01*
X29068665Y86195000D01*
X29351335Y86195000D01*
X29477660Y86220128D01*
X39765000Y86220128D01*
X39765000Y85779872D01*
X39850890Y85348075D01*
X40019369Y84941331D01*
X40263962Y84575271D01*
X40575271Y84263962D01*
X40941331Y84019369D01*
X41348075Y83850890D01*
X41779872Y83765000D01*
X42220128Y83765000D01*
X42651925Y83850890D01*
X43058669Y84019369D01*
X43424729Y84263962D01*
X43736038Y84575271D01*
X43980631Y84941331D01*
X44149110Y85348075D01*
X44235000Y85779872D01*
X44235000Y86220128D01*
X44149110Y86651925D01*
X43980631Y87058669D01*
X43736038Y87424729D01*
X43424729Y87736038D01*
X43058669Y87980631D01*
X42651925Y88149110D01*
X42220128Y88235000D01*
X41779872Y88235000D01*
X41348075Y88149110D01*
X40941331Y87980631D01*
X40575271Y87736038D01*
X40263962Y87424729D01*
X40019369Y87058669D01*
X39850890Y86651925D01*
X39765000Y86220128D01*
X29477660Y86220128D01*
X29628574Y86250147D01*
X29889727Y86358320D01*
X30124759Y86515363D01*
X30324637Y86715241D01*
X30481680Y86950273D01*
X30589853Y87211426D01*
X30645000Y87488665D01*
X30645000Y87771335D01*
X30589853Y88048574D01*
X30481680Y88309727D01*
X30324637Y88544759D01*
X30124759Y88744637D01*
X29889727Y88901680D01*
X29628574Y89009853D01*
X29351335Y89065000D01*
X29068665Y89065000D01*
X28791426Y89009853D01*
X28530273Y88901680D01*
X28295241Y88744637D01*
X28095363Y88544759D01*
X27961308Y88344131D01*
X27946671Y88371514D01*
X27702702Y88443097D01*
X26889605Y87630000D01*
X26530395Y87630000D01*
X25717298Y88443097D01*
X25473329Y88371514D01*
X25352429Y88116004D01*
X25283700Y87841816D01*
X25269783Y87559488D01*
X6601279Y87559488D01*
X6424729Y87736038D01*
X6058669Y87980631D01*
X5651925Y88149110D01*
X5220128Y88235000D01*
X4779872Y88235000D01*
X4348075Y88149110D01*
X3941331Y87980631D01*
X3575271Y87736038D01*
X3263962Y87424729D01*
X3019369Y87058669D01*
X2850890Y86651925D01*
X2765000Y86220128D01*
X660000Y86220128D01*
X660000Y88622702D01*
X25896903Y88622702D01*
X26710000Y87809605D01*
X27523097Y88622702D01*
X27451514Y88866671D01*
X27196004Y88987571D01*
X26921816Y89056300D01*
X26639488Y89070217D01*
X26359870Y89028787D01*
X26093708Y88933603D01*
X25968486Y88866671D01*
X25896903Y88622702D01*
X660000Y88622702D01*
X660000Y90340000D01*
X46340001Y90340000D01*
X46340000Y660000D01*
G37*
G04 #@! TD.AperFunction*
D22*
X37771068Y33488899D02*
X37950392Y33270392D01*
X38168899Y33091068D01*
X38296741Y33022735D01*
X38067161Y32872601D01*
X37865500Y32674895D01*
X37706285Y32441646D01*
X37595633Y32181818D01*
X37578096Y32099039D01*
X37700085Y31877000D01*
X39243000Y31877000D01*
X39243000Y31897000D01*
X39497000Y31897000D01*
X39497000Y31877000D01*
X39517000Y31877000D01*
X39517000Y31623000D01*
X39497000Y31623000D01*
X39497000Y31603000D01*
X39243000Y31603000D01*
X39243000Y31623000D01*
X37700085Y31623000D01*
X37578096Y31400961D01*
X37595633Y31318182D01*
X37706285Y31058354D01*
X37865500Y30825105D01*
X38067161Y30627399D01*
X38296741Y30477265D01*
X38168899Y30408932D01*
X37950392Y30229608D01*
X37771068Y30011101D01*
X37735736Y29945000D01*
X37194264Y29945000D01*
X37158932Y30011101D01*
X36979608Y30229608D01*
X36761101Y30408932D01*
X36633259Y30477265D01*
X36862839Y30627399D01*
X37064500Y30825105D01*
X37223715Y31058354D01*
X37334367Y31318182D01*
X37351904Y31400961D01*
X37229915Y31623000D01*
X35687000Y31623000D01*
X35687000Y31603000D01*
X35433000Y31603000D01*
X35433000Y31623000D01*
X35413000Y31623000D01*
X35413000Y31877000D01*
X35433000Y31877000D01*
X35433000Y31897000D01*
X35687000Y31897000D01*
X35687000Y31877000D01*
X37229915Y31877000D01*
X37351904Y32099039D01*
X37334367Y32181818D01*
X37223715Y32441646D01*
X37064500Y32674895D01*
X36862839Y32872601D01*
X36633259Y33022735D01*
X36761101Y33091068D01*
X36979608Y33270392D01*
X37158932Y33488899D01*
X37194264Y33555000D01*
X37735736Y33555000D01*
X37771068Y33488899D01*
G04 #@! TA.AperFunction,Conductor*
D23*
G36*
X37771068Y33488899D02*
G01*
X37950392Y33270392D01*
X38168899Y33091068D01*
X38296741Y33022735D01*
X38067161Y32872601D01*
X37865500Y32674895D01*
X37706285Y32441646D01*
X37595633Y32181818D01*
X37578096Y32099039D01*
X37700085Y31877000D01*
X39243000Y31877000D01*
X39243000Y31897000D01*
X39497000Y31897000D01*
X39497000Y31877000D01*
X39517000Y31877000D01*
X39517000Y31623000D01*
X39497000Y31623000D01*
X39497000Y31603000D01*
X39243000Y31603000D01*
X39243000Y31623000D01*
X37700085Y31623000D01*
X37578096Y31400961D01*
X37595633Y31318182D01*
X37706285Y31058354D01*
X37865500Y30825105D01*
X38067161Y30627399D01*
X38296741Y30477265D01*
X38168899Y30408932D01*
X37950392Y30229608D01*
X37771068Y30011101D01*
X37735736Y29945000D01*
X37194264Y29945000D01*
X37158932Y30011101D01*
X36979608Y30229608D01*
X36761101Y30408932D01*
X36633259Y30477265D01*
X36862839Y30627399D01*
X37064500Y30825105D01*
X37223715Y31058354D01*
X37334367Y31318182D01*
X37351904Y31400961D01*
X37229915Y31623000D01*
X35687000Y31623000D01*
X35687000Y31603000D01*
X35433000Y31603000D01*
X35433000Y31623000D01*
X35413000Y31623000D01*
X35413000Y31877000D01*
X35433000Y31877000D01*
X35433000Y31897000D01*
X35687000Y31897000D01*
X35687000Y31877000D01*
X37229915Y31877000D01*
X37351904Y32099039D01*
X37334367Y32181818D01*
X37223715Y32441646D01*
X37064500Y32674895D01*
X36862839Y32872601D01*
X36633259Y33022735D01*
X36761101Y33091068D01*
X36979608Y33270392D01*
X37158932Y33488899D01*
X37194264Y33555000D01*
X37735736Y33555000D01*
X37771068Y33488899D01*
G37*
G04 #@! TD.AperFunction*
D22*
X29908057Y61595000D02*
X29935764Y61313691D01*
X30017818Y61043192D01*
X30151068Y60793899D01*
X30330392Y60575392D01*
X30548899Y60396068D01*
X30681858Y60325000D01*
X30548899Y60253932D01*
X30330392Y60074608D01*
X30151068Y59856101D01*
X30017818Y59606808D01*
X29935764Y59336309D01*
X29908057Y59055000D01*
X29935764Y58773691D01*
X30017818Y58503192D01*
X30151068Y58253899D01*
X30330392Y58035392D01*
X30548899Y57856068D01*
X30681858Y57785000D01*
X30548899Y57713932D01*
X30330392Y57534608D01*
X30151068Y57316101D01*
X30017818Y57066808D01*
X29935764Y56796309D01*
X29908057Y56515000D01*
X29935764Y56233691D01*
X30017818Y55963192D01*
X30151068Y55713899D01*
X30330392Y55495392D01*
X30548899Y55316068D01*
X30798192Y55182818D01*
X31068691Y55100764D01*
X31279508Y55080000D01*
X32220492Y55080000D01*
X32431309Y55100764D01*
X32511901Y55125211D01*
X32515300Y55090696D01*
X32525935Y54982716D01*
X32567963Y54844168D01*
X32636213Y54716481D01*
X32728062Y54604563D01*
X32756108Y54581546D01*
X38912653Y48425000D01*
X38899508Y48425000D01*
X38688691Y48404236D01*
X38418192Y48322182D01*
X38168899Y48188932D01*
X37950392Y48009608D01*
X37771068Y47791101D01*
X37637818Y47541808D01*
X37555764Y47271309D01*
X37528057Y46990000D01*
X37555764Y46708691D01*
X37637818Y46438192D01*
X37771068Y46188899D01*
X37950392Y45970392D01*
X38168899Y45791068D01*
X38301858Y45720000D01*
X38168899Y45648932D01*
X37950392Y45469608D01*
X37771068Y45251101D01*
X37735736Y45185000D01*
X37194264Y45185000D01*
X37158932Y45251101D01*
X36979608Y45469608D01*
X36761101Y45648932D01*
X36628142Y45720000D01*
X36761101Y45791068D01*
X36979608Y45970392D01*
X37158932Y46188899D01*
X37292182Y46438192D01*
X37374236Y46708691D01*
X37401943Y46990000D01*
X37374236Y47271309D01*
X37292182Y47541808D01*
X37158932Y47791101D01*
X36979608Y48009608D01*
X36761101Y48188932D01*
X36511808Y48322182D01*
X36241309Y48404236D01*
X36030492Y48425000D01*
X35089508Y48425000D01*
X34878691Y48404236D01*
X34608192Y48322182D01*
X34358899Y48188932D01*
X34140392Y48009608D01*
X33961068Y47791101D01*
X33827818Y47541808D01*
X33745764Y47271309D01*
X33718057Y46990000D01*
X33745764Y46708691D01*
X33827818Y46438192D01*
X33961068Y46188899D01*
X34140392Y45970392D01*
X34358899Y45791068D01*
X34491858Y45720000D01*
X34358899Y45648932D01*
X34140392Y45469608D01*
X34112962Y45436185D01*
X30794186Y48754961D01*
X30870130Y48766213D01*
X31136292Y48861397D01*
X31261514Y48928329D01*
X31333097Y49172298D01*
X30520000Y49985395D01*
X30505858Y49971252D01*
X30326253Y50150857D01*
X30340395Y50165000D01*
X30699605Y50165000D01*
X31512702Y49351903D01*
X31756671Y49423486D01*
X31770324Y49452341D01*
X31905363Y49250241D01*
X32105241Y49050363D01*
X32340273Y48893320D01*
X32601426Y48785147D01*
X32878665Y48730000D01*
X33161335Y48730000D01*
X33438574Y48785147D01*
X33699727Y48893320D01*
X33934759Y49050363D01*
X34134637Y49250241D01*
X34291680Y49485273D01*
X34399853Y49746426D01*
X34455000Y50023665D01*
X34455000Y50306335D01*
X34399853Y50583574D01*
X34291680Y50844727D01*
X34134637Y51079759D01*
X33934759Y51279637D01*
X33699727Y51436680D01*
X33438574Y51544853D01*
X33161335Y51600000D01*
X32878665Y51600000D01*
X32601426Y51544853D01*
X32340273Y51436680D01*
X32105241Y51279637D01*
X31905363Y51079759D01*
X31771308Y50879131D01*
X31756671Y50906514D01*
X31512702Y50978097D01*
X30699605Y50165000D01*
X30340395Y50165000D01*
X29527298Y50978097D01*
X29283329Y50906514D01*
X29162429Y50651004D01*
X29109459Y50439687D01*
X28391444Y51157702D01*
X29706903Y51157702D01*
X30520000Y50344605D01*
X31333097Y51157702D01*
X31261514Y51401671D01*
X31006004Y51522571D01*
X30731816Y51591300D01*
X30449488Y51605217D01*
X30169870Y51563787D01*
X29903708Y51468603D01*
X29778486Y51401671D01*
X29706903Y51157702D01*
X28391444Y51157702D01*
X24469146Y55080000D01*
X24657000Y55080000D01*
X24934514Y55132350D01*
X25196483Y55237834D01*
X25432839Y55392399D01*
X25634500Y55590105D01*
X25793715Y55823354D01*
X25904367Y56083182D01*
X25921904Y56165961D01*
X25799915Y56388000D01*
X24257000Y56388000D01*
X24257000Y56368000D01*
X24003000Y56368000D01*
X24003000Y56388000D01*
X23983000Y56388000D01*
X23983000Y56642000D01*
X24003000Y56642000D01*
X24003000Y56662000D01*
X24257000Y56662000D01*
X24257000Y56642000D01*
X25799915Y56642000D01*
X25921904Y56864039D01*
X25904367Y56946818D01*
X25793715Y57206646D01*
X25634500Y57439895D01*
X25571907Y57501261D01*
X29934541Y61863894D01*
X29908057Y61595000D01*
G04 #@! TA.AperFunction,Conductor*
D23*
G36*
X29908057Y61595000D02*
G01*
X29935764Y61313691D01*
X30017818Y61043192D01*
X30151068Y60793899D01*
X30330392Y60575392D01*
X30548899Y60396068D01*
X30681858Y60325000D01*
X30548899Y60253932D01*
X30330392Y60074608D01*
X30151068Y59856101D01*
X30017818Y59606808D01*
X29935764Y59336309D01*
X29908057Y59055000D01*
X29935764Y58773691D01*
X30017818Y58503192D01*
X30151068Y58253899D01*
X30330392Y58035392D01*
X30548899Y57856068D01*
X30681858Y57785000D01*
X30548899Y57713932D01*
X30330392Y57534608D01*
X30151068Y57316101D01*
X30017818Y57066808D01*
X29935764Y56796309D01*
X29908057Y56515000D01*
X29935764Y56233691D01*
X30017818Y55963192D01*
X30151068Y55713899D01*
X30330392Y55495392D01*
X30548899Y55316068D01*
X30798192Y55182818D01*
X31068691Y55100764D01*
X31279508Y55080000D01*
X32220492Y55080000D01*
X32431309Y55100764D01*
X32511901Y55125211D01*
X32515300Y55090696D01*
X32525935Y54982716D01*
X32567963Y54844168D01*
X32636213Y54716481D01*
X32728062Y54604563D01*
X32756108Y54581546D01*
X38912653Y48425000D01*
X38899508Y48425000D01*
X38688691Y48404236D01*
X38418192Y48322182D01*
X38168899Y48188932D01*
X37950392Y48009608D01*
X37771068Y47791101D01*
X37637818Y47541808D01*
X37555764Y47271309D01*
X37528057Y46990000D01*
X37555764Y46708691D01*
X37637818Y46438192D01*
X37771068Y46188899D01*
X37950392Y45970392D01*
X38168899Y45791068D01*
X38301858Y45720000D01*
X38168899Y45648932D01*
X37950392Y45469608D01*
X37771068Y45251101D01*
X37735736Y45185000D01*
X37194264Y45185000D01*
X37158932Y45251101D01*
X36979608Y45469608D01*
X36761101Y45648932D01*
X36628142Y45720000D01*
X36761101Y45791068D01*
X36979608Y45970392D01*
X37158932Y46188899D01*
X37292182Y46438192D01*
X37374236Y46708691D01*
X37401943Y46990000D01*
X37374236Y47271309D01*
X37292182Y47541808D01*
X37158932Y47791101D01*
X36979608Y48009608D01*
X36761101Y48188932D01*
X36511808Y48322182D01*
X36241309Y48404236D01*
X36030492Y48425000D01*
X35089508Y48425000D01*
X34878691Y48404236D01*
X34608192Y48322182D01*
X34358899Y48188932D01*
X34140392Y48009608D01*
X33961068Y47791101D01*
X33827818Y47541808D01*
X33745764Y47271309D01*
X33718057Y46990000D01*
X33745764Y46708691D01*
X33827818Y46438192D01*
X33961068Y46188899D01*
X34140392Y45970392D01*
X34358899Y45791068D01*
X34491858Y45720000D01*
X34358899Y45648932D01*
X34140392Y45469608D01*
X34112962Y45436185D01*
X30794186Y48754961D01*
X30870130Y48766213D01*
X31136292Y48861397D01*
X31261514Y48928329D01*
X31333097Y49172298D01*
X30520000Y49985395D01*
X30505858Y49971252D01*
X30326253Y50150857D01*
X30340395Y50165000D01*
X30699605Y50165000D01*
X31512702Y49351903D01*
X31756671Y49423486D01*
X31770324Y49452341D01*
X31905363Y49250241D01*
X32105241Y49050363D01*
X32340273Y48893320D01*
X32601426Y48785147D01*
X32878665Y48730000D01*
X33161335Y48730000D01*
X33438574Y48785147D01*
X33699727Y48893320D01*
X33934759Y49050363D01*
X34134637Y49250241D01*
X34291680Y49485273D01*
X34399853Y49746426D01*
X34455000Y50023665D01*
X34455000Y50306335D01*
X34399853Y50583574D01*
X34291680Y50844727D01*
X34134637Y51079759D01*
X33934759Y51279637D01*
X33699727Y51436680D01*
X33438574Y51544853D01*
X33161335Y51600000D01*
X32878665Y51600000D01*
X32601426Y51544853D01*
X32340273Y51436680D01*
X32105241Y51279637D01*
X31905363Y51079759D01*
X31771308Y50879131D01*
X31756671Y50906514D01*
X31512702Y50978097D01*
X30699605Y50165000D01*
X30340395Y50165000D01*
X29527298Y50978097D01*
X29283329Y50906514D01*
X29162429Y50651004D01*
X29109459Y50439687D01*
X28391444Y51157702D01*
X29706903Y51157702D01*
X30520000Y50344605D01*
X31333097Y51157702D01*
X31261514Y51401671D01*
X31006004Y51522571D01*
X30731816Y51591300D01*
X30449488Y51605217D01*
X30169870Y51563787D01*
X29903708Y51468603D01*
X29778486Y51401671D01*
X29706903Y51157702D01*
X28391444Y51157702D01*
X24469146Y55080000D01*
X24657000Y55080000D01*
X24934514Y55132350D01*
X25196483Y55237834D01*
X25432839Y55392399D01*
X25634500Y55590105D01*
X25793715Y55823354D01*
X25904367Y56083182D01*
X25921904Y56165961D01*
X25799915Y56388000D01*
X24257000Y56388000D01*
X24257000Y56368000D01*
X24003000Y56368000D01*
X24003000Y56388000D01*
X23983000Y56388000D01*
X23983000Y56642000D01*
X24003000Y56642000D01*
X24003000Y56662000D01*
X24257000Y56662000D01*
X24257000Y56642000D01*
X25799915Y56642000D01*
X25921904Y56864039D01*
X25904367Y56946818D01*
X25793715Y57206646D01*
X25634500Y57439895D01*
X25571907Y57501261D01*
X29934541Y61863894D01*
X29908057Y61595000D01*
G37*
G04 #@! TD.AperFunction*
D22*
X13163524Y74016890D02*
X13284845Y73787000D01*
X14478000Y73787000D01*
X14478000Y73807000D01*
X14732000Y73807000D01*
X14732000Y73787000D01*
X14752000Y73787000D01*
X14752000Y73533000D01*
X14732000Y73533000D01*
X14732000Y73513000D01*
X14478000Y73513000D01*
X14478000Y73533000D01*
X13284845Y73533000D01*
X13163524Y73303110D01*
X13208175Y73155901D01*
X13276288Y73012900D01*
X10599305Y73012900D01*
X10563200Y73016456D01*
X10527095Y73012900D01*
X10419115Y73002265D01*
X10280567Y72960237D01*
X10152880Y72891987D01*
X10040962Y72800138D01*
X10017946Y72772093D01*
X9360480Y72114627D01*
X9201632Y72273475D01*
X9027240Y72390000D01*
X9201632Y72506525D01*
X9408475Y72713368D01*
X9558922Y72938528D01*
X9687933Y72977663D01*
X9815620Y73045913D01*
X9927538Y73137762D01*
X9950558Y73165812D01*
X10867647Y74082900D01*
X13183546Y74082900D01*
X13163524Y74016890D01*
G04 #@! TA.AperFunction,Conductor*
D23*
G36*
X13163524Y74016890D02*
G01*
X13284845Y73787000D01*
X14478000Y73787000D01*
X14478000Y73807000D01*
X14732000Y73807000D01*
X14732000Y73787000D01*
X14752000Y73787000D01*
X14752000Y73533000D01*
X14732000Y73533000D01*
X14732000Y73513000D01*
X14478000Y73513000D01*
X14478000Y73533000D01*
X13284845Y73533000D01*
X13163524Y73303110D01*
X13208175Y73155901D01*
X13276288Y73012900D01*
X10599305Y73012900D01*
X10563200Y73016456D01*
X10527095Y73012900D01*
X10419115Y73002265D01*
X10280567Y72960237D01*
X10152880Y72891987D01*
X10040962Y72800138D01*
X10017946Y72772093D01*
X9360480Y72114627D01*
X9201632Y72273475D01*
X9027240Y72390000D01*
X9201632Y72506525D01*
X9408475Y72713368D01*
X9558922Y72938528D01*
X9687933Y72977663D01*
X9815620Y73045913D01*
X9927538Y73137762D01*
X9950558Y73165812D01*
X10867647Y74082900D01*
X13183546Y74082900D01*
X13163524Y74016890D01*
G37*
G04 #@! TD.AperFunction*
M02*
