G04 #@! TF.GenerationSoftware,KiCad,Pcbnew,(5.1.9)-1*
G04 #@! TF.CreationDate,2026-01-15T21:52:05+09:00*
G04 #@! TF.ProjectId,PC-8001_RAM,50432d38-3030-4315-9f52-414d2e6b6963,rev?*
G04 #@! TF.SameCoordinates,PX53920b0PY93c3260*
G04 #@! TF.FileFunction,Copper,L1,Top*
G04 #@! TF.FilePolarity,Positive*
%FSLAX46Y46*%
G04 Gerber Fmt 4.6, Leading zero omitted, Abs format (unit mm)*
G04 Created by KiCad (PCBNEW (5.1.9)-1) date 2026-01-15 21:52:05*
%MOMM*%
%LPD*%
G01*
G04 APERTURE LIST*
G04 #@! TA.AperFunction,ComponentPad*
%ADD10R,1.600000X1.600000*%
G04 #@! TD*
G04 #@! TA.AperFunction,ComponentPad*
%ADD11C,1.600000*%
G04 #@! TD*
G04 #@! TA.AperFunction,ComponentPad*
%ADD12R,1.700000X1.700000*%
G04 #@! TD*
G04 #@! TA.AperFunction,ComponentPad*
%ADD13O,1.700000X1.700000*%
G04 #@! TD*
G04 #@! TA.AperFunction,ComponentPad*
%ADD14R,2.400000X1.600000*%
G04 #@! TD*
G04 #@! TA.AperFunction,ComponentPad*
%ADD15O,2.400000X1.600000*%
G04 #@! TD*
G04 #@! TA.AperFunction,ComponentPad*
%ADD16R,1.800000X1.800000*%
G04 #@! TD*
G04 #@! TA.AperFunction,ComponentPad*
%ADD17C,1.800000*%
G04 #@! TD*
G04 #@! TA.AperFunction,ComponentPad*
%ADD18O,1.600000X1.600000*%
G04 #@! TD*
G04 #@! TA.AperFunction,ViaPad*
%ADD19C,0.500000*%
G04 #@! TD*
G04 #@! TA.AperFunction,Conductor*
%ADD20C,0.400000*%
G04 #@! TD*
G04 #@! TA.AperFunction,Conductor*
%ADD21C,0.200000*%
G04 #@! TD*
G04 #@! TA.AperFunction,Conductor*
%ADD22C,0.254000*%
G04 #@! TD*
G04 #@! TA.AperFunction,Conductor*
%ADD23C,0.100000*%
G04 #@! TD*
G04 APERTURE END LIST*
D10*
X12860000Y8730000D03*
D11*
X12860000Y6230000D03*
D12*
X9525000Y15240000D03*
D13*
X6985000Y15240000D03*
X9525000Y17780000D03*
X6985000Y17780000D03*
X9525000Y20320000D03*
X6985000Y20320000D03*
X9525000Y22860000D03*
X6985000Y22860000D03*
X9525000Y25400000D03*
X6985000Y25400000D03*
X9525000Y27940000D03*
X6985000Y27940000D03*
X9525000Y30480000D03*
X6985000Y30480000D03*
X9525000Y33020000D03*
X6985000Y33020000D03*
X9525000Y35560000D03*
X6985000Y35560000D03*
X9525000Y38100000D03*
X6985000Y38100000D03*
X9525000Y40640000D03*
X6985000Y40640000D03*
X9525000Y43180000D03*
X6985000Y43180000D03*
X9525000Y45720000D03*
X6985000Y45720000D03*
X9525000Y48260000D03*
X6985000Y48260000D03*
X9525000Y50800000D03*
X6985000Y50800000D03*
X9525000Y53340000D03*
X6985000Y53340000D03*
X9525000Y55880000D03*
X6985000Y55880000D03*
X9525000Y58420000D03*
X6985000Y58420000D03*
X9525000Y60960000D03*
X6985000Y60960000D03*
X9525000Y63500000D03*
X6985000Y63500000D03*
X9525000Y66040000D03*
X6985000Y66040000D03*
X9525000Y68580000D03*
X6985000Y68580000D03*
X9525000Y71120000D03*
X6985000Y71120000D03*
X9525000Y73660000D03*
X6985000Y73660000D03*
X9525000Y76200000D03*
X6985000Y76200000D03*
D11*
X43180000Y87630000D03*
X40680000Y87630000D03*
X36830000Y46355000D03*
X39330000Y46355000D03*
D14*
X38100000Y84455000D03*
D15*
X45720000Y56515000D03*
X38100000Y81915000D03*
X45720000Y59055000D03*
X38100000Y79375000D03*
X45720000Y61595000D03*
X38100000Y76835000D03*
X45720000Y64135000D03*
X38100000Y74295000D03*
X45720000Y66675000D03*
X38100000Y71755000D03*
X45720000Y69215000D03*
X38100000Y69215000D03*
X45720000Y71755000D03*
X38100000Y66675000D03*
X45720000Y74295000D03*
X38100000Y64135000D03*
X45720000Y76835000D03*
X38100000Y61595000D03*
X45720000Y79375000D03*
X38100000Y59055000D03*
X45720000Y81915000D03*
X38100000Y56515000D03*
X45720000Y84455000D03*
D14*
X30440000Y43180000D03*
D15*
X45680000Y10160000D03*
X30440000Y40640000D03*
X45680000Y12700000D03*
X30440000Y38100000D03*
X45680000Y15240000D03*
X30440000Y35560000D03*
X45680000Y17780000D03*
X30440000Y33020000D03*
X45680000Y20320000D03*
X30440000Y30480000D03*
X45680000Y22860000D03*
X30440000Y27940000D03*
X45680000Y25400000D03*
X30440000Y25400000D03*
X45680000Y27940000D03*
X30440000Y22860000D03*
X45680000Y30480000D03*
X30440000Y20320000D03*
X45680000Y33020000D03*
X30440000Y17780000D03*
X45680000Y35560000D03*
X30440000Y15240000D03*
X45680000Y38100000D03*
X30440000Y12700000D03*
X45680000Y40640000D03*
X30440000Y10160000D03*
X45680000Y43180000D03*
D16*
X57785000Y74295000D03*
D17*
X57785000Y76835000D03*
X57785000Y61595000D03*
D16*
X57785000Y64135000D03*
D18*
X50165000Y56515000D03*
D11*
X50165000Y66675000D03*
X50165000Y69215000D03*
D18*
X50165000Y79375000D03*
D12*
X17145000Y15240000D03*
D13*
X14605000Y15240000D03*
X17145000Y17780000D03*
X14605000Y17780000D03*
X17145000Y20320000D03*
X14605000Y20320000D03*
X17145000Y22860000D03*
X14605000Y22860000D03*
X17145000Y25400000D03*
X14605000Y25400000D03*
X17145000Y27940000D03*
X14605000Y27940000D03*
X17145000Y30480000D03*
X14605000Y30480000D03*
X17145000Y33020000D03*
X14605000Y33020000D03*
X17145000Y35560000D03*
X14605000Y35560000D03*
X17145000Y38100000D03*
X14605000Y38100000D03*
X17145000Y40640000D03*
X14605000Y40640000D03*
X17145000Y43180000D03*
X14605000Y43180000D03*
X17145000Y45720000D03*
X14605000Y45720000D03*
X17145000Y48260000D03*
X14605000Y48260000D03*
X17145000Y50800000D03*
X14605000Y50800000D03*
X17145000Y53340000D03*
X14605000Y53340000D03*
X17145000Y55880000D03*
X14605000Y55880000D03*
X17145000Y58420000D03*
X14605000Y58420000D03*
X17145000Y60960000D03*
X14605000Y60960000D03*
X17145000Y63500000D03*
X14605000Y63500000D03*
X17145000Y66040000D03*
X14605000Y66040000D03*
X17145000Y68580000D03*
X14605000Y68580000D03*
X17145000Y71120000D03*
X14605000Y71120000D03*
X17145000Y73660000D03*
X14605000Y73660000D03*
X17145000Y76200000D03*
X14605000Y76200000D03*
D14*
X34250000Y43180000D03*
D15*
X41870000Y10160000D03*
X34250000Y40640000D03*
X41870000Y12700000D03*
X34250000Y38100000D03*
X41870000Y15240000D03*
X34250000Y35560000D03*
X41870000Y17780000D03*
X34250000Y33020000D03*
X41870000Y20320000D03*
X34250000Y30480000D03*
X41870000Y22860000D03*
X34250000Y27940000D03*
X41870000Y25400000D03*
X34250000Y25400000D03*
X41870000Y27940000D03*
X34250000Y22860000D03*
X41870000Y30480000D03*
X34250000Y20320000D03*
X41870000Y33020000D03*
X34250000Y17780000D03*
X41870000Y35560000D03*
X34250000Y15240000D03*
X41870000Y38100000D03*
X34250000Y12700000D03*
X41870000Y40640000D03*
X34250000Y10160000D03*
X41870000Y43180000D03*
D11*
X29210000Y74930000D03*
X26710000Y74930000D03*
D14*
X24130000Y71755000D03*
D15*
X31750000Y56515000D03*
X24130000Y69215000D03*
X31750000Y59055000D03*
X24130000Y66675000D03*
X31750000Y61595000D03*
X24130000Y64135000D03*
X31750000Y64135000D03*
X24130000Y61595000D03*
X31750000Y66675000D03*
X24130000Y59055000D03*
X31750000Y69215000D03*
X24130000Y56515000D03*
X31750000Y71755000D03*
D19*
X39376000Y40669200D03*
X35823200Y18893200D03*
X39299800Y35663200D03*
X32824500Y68107000D03*
X33569600Y57652300D03*
X29827000Y62883500D03*
D20*
X17145000Y15240000D02*
X18395300Y15240000D01*
X43775000Y43180000D02*
X43775000Y9926100D01*
X43775000Y9926100D02*
X42371200Y8522300D01*
X42371200Y8522300D02*
X25113000Y8522300D01*
X25113000Y8522300D02*
X18395300Y15240000D01*
X43775000Y43180000D02*
X45680000Y43180000D01*
X41870000Y43180000D02*
X43775000Y43180000D01*
X39750200Y80592900D02*
X36786300Y80592900D01*
X36786300Y80592900D02*
X30166700Y73973300D01*
X45720000Y84455000D02*
X43612300Y84455000D01*
X43612300Y84455000D02*
X39750200Y80592900D01*
X39750200Y80592900D02*
X39750200Y46775200D01*
X39750200Y46775200D02*
X39330000Y46355000D01*
X30166700Y73973300D02*
X31750000Y72390000D01*
X31750000Y72390000D02*
X31750000Y71755000D01*
X29210000Y74930000D02*
X30166700Y73973300D01*
X39330000Y46355000D02*
X41870000Y43815000D01*
X41870000Y43815000D02*
X41870000Y43180000D01*
X12860000Y11905000D02*
X13810000Y11905000D01*
X13810000Y11905000D02*
X17145000Y15240000D01*
X12860000Y8730000D02*
X12860000Y11905000D01*
X12860000Y11905000D02*
X9525000Y15240000D01*
X43180000Y87630000D02*
X45720000Y85090000D01*
X45720000Y85090000D02*
X45720000Y84455000D01*
X30149700Y69215000D02*
X30149700Y71490300D01*
X30149700Y71490300D02*
X26710000Y74930000D01*
X31750000Y69215000D02*
X30149700Y69215000D01*
X34250000Y10160000D02*
X35850300Y10160000D01*
X35850300Y10160000D02*
X40269700Y14579400D01*
X40269700Y14579400D02*
X40269700Y27940000D01*
X41870000Y27940000D02*
X40269700Y27940000D01*
X36830000Y46355000D02*
X40269700Y42915300D01*
X40269700Y42915300D02*
X40269700Y27940000D01*
X57785000Y64135000D02*
X57785000Y74295000D01*
D21*
X34250000Y17780000D02*
X35750300Y17780000D01*
X35750300Y17780000D02*
X37575100Y19604800D01*
X37575100Y19604800D02*
X37575100Y38868300D01*
X37575100Y38868300D02*
X39376000Y40669200D01*
X9525000Y20320000D02*
X10675300Y20320000D01*
X17145000Y20320000D02*
X15994700Y20320000D01*
X15994700Y20320000D02*
X15994700Y20032400D01*
X15994700Y20032400D02*
X15091700Y19129400D01*
X15091700Y19129400D02*
X11865900Y19129400D01*
X11865900Y19129400D02*
X10675300Y20320000D01*
X30440000Y12700000D02*
X28939700Y12700000D01*
X28939700Y12700000D02*
X18779700Y22860000D01*
X18779700Y22860000D02*
X17145000Y22860000D01*
X17145000Y25400000D02*
X18295300Y25400000D01*
X41870000Y10160000D02*
X40369700Y10160000D01*
X40369700Y10160000D02*
X39264600Y9054900D01*
X39264600Y9054900D02*
X33375800Y9054900D01*
X33375800Y9054900D02*
X32175400Y10255300D01*
X32175400Y10255300D02*
X32175400Y12988600D01*
X32175400Y12988600D02*
X31194000Y13970000D01*
X31194000Y13970000D02*
X29725300Y13970000D01*
X29725300Y13970000D02*
X18295300Y25400000D01*
X36599700Y59055000D02*
X35727200Y58182500D01*
X35727200Y58182500D02*
X35727200Y45861800D01*
X35727200Y45861800D02*
X36962800Y44626200D01*
X36962800Y44626200D02*
X36962800Y20032800D01*
X36962800Y20032800D02*
X35823200Y18893200D01*
X38100000Y59055000D02*
X36599700Y59055000D01*
X34250000Y20320000D02*
X35750300Y20320000D01*
X35750300Y20320000D02*
X36560900Y21130600D01*
X36560900Y21130600D02*
X36560900Y44437600D01*
X36560900Y44437600D02*
X35320900Y45677600D01*
X35320900Y45677600D02*
X35320900Y58342500D01*
X35320900Y58342500D02*
X38100000Y61121600D01*
X38100000Y61121600D02*
X38100000Y61595000D01*
X28939700Y20320000D02*
X18934900Y30324800D01*
X18934900Y30324800D02*
X18934900Y35398100D01*
X18934900Y35398100D02*
X17383300Y36949700D01*
X17383300Y36949700D02*
X17145000Y36949700D01*
X17145000Y38100000D02*
X17145000Y36949700D01*
X30440000Y20320000D02*
X28939700Y20320000D01*
X14605000Y38100000D02*
X14605000Y36949700D01*
X14605000Y36949700D02*
X14892700Y36949700D01*
X14892700Y36949700D02*
X15755300Y36087100D01*
X15755300Y36087100D02*
X15755300Y35261200D01*
X15755300Y35261200D02*
X16819500Y34197000D01*
X16819500Y34197000D02*
X17616700Y34197000D01*
X17616700Y34197000D02*
X18534600Y33279100D01*
X18534600Y33279100D02*
X18534600Y30119500D01*
X18534600Y30119500D02*
X29604100Y19050000D01*
X29604100Y19050000D02*
X31138300Y19050000D01*
X31138300Y19050000D02*
X32345000Y17843300D01*
X32345000Y17843300D02*
X32345000Y17697700D01*
X32345000Y17697700D02*
X33377500Y16665200D01*
X33377500Y16665200D02*
X35206200Y16665200D01*
X35206200Y16665200D02*
X39299800Y20758800D01*
X39299800Y20758800D02*
X39299800Y35663200D01*
X36599700Y64135000D02*
X36599700Y60227700D01*
X36599700Y60227700D02*
X34920600Y58548600D01*
X34920600Y58548600D02*
X34920600Y45500200D01*
X34920600Y45500200D02*
X36150600Y44270200D01*
X36150600Y44270200D02*
X36150600Y23260300D01*
X36150600Y23260300D02*
X35750300Y22860000D01*
X34250000Y22860000D02*
X35750300Y22860000D01*
X38100000Y64135000D02*
X36599700Y64135000D01*
X28939700Y22860000D02*
X19769100Y32030600D01*
X19769100Y32030600D02*
X19769100Y37103900D01*
X19769100Y37103900D02*
X17383300Y39489700D01*
X17383300Y39489700D02*
X17145000Y39489700D01*
X30440000Y22860000D02*
X28939700Y22860000D01*
X17145000Y40640000D02*
X17145000Y39489700D01*
X36599700Y66675000D02*
X35251900Y65327200D01*
X35251900Y65327200D02*
X35251900Y59446000D01*
X35251900Y59446000D02*
X34520300Y58714400D01*
X34520300Y58714400D02*
X34520300Y45334400D01*
X34520300Y45334400D02*
X35750300Y44104400D01*
X35750300Y44104400D02*
X35750300Y26923700D01*
X35750300Y26923700D02*
X34226600Y25400000D01*
X38100000Y66675000D02*
X36599700Y66675000D01*
X34226600Y25400000D02*
X33875000Y25400000D01*
X34250000Y25400000D02*
X34226600Y25400000D01*
X33875000Y25400000D02*
X31940300Y25400000D01*
X30440000Y25400000D02*
X31940300Y25400000D01*
X30440000Y25400000D02*
X28939700Y25400000D01*
X28939700Y25400000D02*
X20358400Y33981300D01*
X20358400Y33981300D02*
X20358400Y39053600D01*
X20358400Y39053600D02*
X17382300Y42029700D01*
X17382300Y42029700D02*
X17145000Y42029700D01*
X17145000Y43180000D02*
X17145000Y42029700D01*
X9525000Y46870300D02*
X9812700Y46870300D01*
X9812700Y46870300D02*
X10675300Y47732900D01*
X10675300Y47732900D02*
X10675300Y56143300D01*
X10675300Y56143300D02*
X14341600Y59809600D01*
X14341600Y59809600D02*
X15143100Y59809600D01*
X15143100Y59809600D02*
X15994600Y60661100D01*
X15994600Y60661100D02*
X15994600Y61498100D01*
X15994600Y61498100D02*
X16726500Y62230000D01*
X16726500Y62230000D02*
X17510900Y62230000D01*
X17510900Y62230000D02*
X21619100Y66338200D01*
X21619100Y66338200D02*
X21619100Y68812500D01*
X21619100Y68812500D02*
X23126800Y70320200D01*
X23126800Y70320200D02*
X27369700Y70320200D01*
X27369700Y70320200D02*
X29582900Y68107000D01*
X29582900Y68107000D02*
X32824500Y68107000D01*
X17145000Y45720000D02*
X17145000Y44569700D01*
X30440000Y27940000D02*
X28939700Y27940000D01*
X28939700Y27940000D02*
X20902000Y35977700D01*
X20902000Y35977700D02*
X20902000Y41051000D01*
X20902000Y41051000D02*
X17383300Y44569700D01*
X17383300Y44569700D02*
X17145000Y44569700D01*
X9525000Y45720000D02*
X9525000Y46870300D01*
X36599700Y71755000D02*
X34851600Y70006900D01*
X34851600Y70006900D02*
X34851600Y59611800D01*
X34851600Y59611800D02*
X34120000Y58880200D01*
X34120000Y58880200D02*
X34120000Y52631800D01*
X34120000Y52631800D02*
X32749700Y51261500D01*
X32749700Y51261500D02*
X32749700Y30884800D01*
X32749700Y30884800D02*
X32547300Y30682400D01*
X30440000Y30480000D02*
X28939700Y30480000D01*
X17145000Y48260000D02*
X17145000Y47109700D01*
X17145000Y47109700D02*
X17432600Y47109700D01*
X17432600Y47109700D02*
X24186500Y40355800D01*
X24186500Y40355800D02*
X24186500Y35233200D01*
X24186500Y35233200D02*
X28939700Y30480000D01*
X30440000Y30480000D02*
X31940300Y30480000D01*
X32749700Y30480000D02*
X32547300Y30682400D01*
X32547300Y30682400D02*
X32142700Y30682400D01*
X32142700Y30682400D02*
X31940300Y30480000D01*
X34250000Y30480000D02*
X32749700Y30480000D01*
X38100000Y71755000D02*
X36599700Y71755000D01*
X36599700Y74295000D02*
X34451300Y72146600D01*
X34451300Y72146600D02*
X34451300Y59777600D01*
X34451300Y59777600D02*
X33719700Y59046000D01*
X33719700Y59046000D02*
X33719700Y57802400D01*
X33719700Y57802400D02*
X33569600Y57652300D01*
X38100000Y74295000D02*
X36599700Y74295000D01*
X28939700Y33020000D02*
X25698000Y36261700D01*
X25698000Y36261700D02*
X25698000Y41334800D01*
X25698000Y41334800D02*
X17383100Y49649700D01*
X17383100Y49649700D02*
X17145000Y49649700D01*
X17145000Y50800000D02*
X17145000Y49649700D01*
X30440000Y33020000D02*
X28939700Y33020000D01*
X36599700Y76835000D02*
X34050900Y74286200D01*
X34050900Y74286200D02*
X34050900Y59943300D01*
X34050900Y59943300D02*
X33319400Y59211800D01*
X33319400Y59211800D02*
X33319400Y58180300D01*
X33319400Y58180300D02*
X33019300Y57880200D01*
X33019300Y57880200D02*
X33019300Y57424400D01*
X33019300Y57424400D02*
X33256100Y57187600D01*
X33256100Y57187600D02*
X33256100Y56064800D01*
X33256100Y56064800D02*
X32349300Y55158000D01*
X32349300Y55158000D02*
X32349300Y35969000D01*
X32349300Y35969000D02*
X31940300Y35560000D01*
X30440000Y35560000D02*
X31940300Y35560000D01*
X38100000Y76835000D02*
X36599700Y76835000D01*
X17145000Y53340000D02*
X17145000Y52189700D01*
X30440000Y35560000D02*
X28939700Y35560000D01*
X28939700Y35560000D02*
X28939700Y40632300D01*
X28939700Y40632300D02*
X17382300Y52189700D01*
X17382300Y52189700D02*
X17145000Y52189700D01*
X14605000Y53340000D02*
X15755300Y53340000D01*
X30440000Y43180000D02*
X28939700Y43180000D01*
X28939700Y43180000D02*
X17609800Y54509900D01*
X17609800Y54509900D02*
X16686800Y54509900D01*
X16686800Y54509900D02*
X15755300Y53578400D01*
X15755300Y53578400D02*
X15755300Y53340000D01*
X36599700Y79375000D02*
X33450600Y76225900D01*
X33450600Y76225900D02*
X33450600Y61293700D01*
X33450600Y61293700D02*
X32481900Y60325000D01*
X32481900Y60325000D02*
X30979100Y60325000D01*
X30979100Y60325000D02*
X24210500Y53556400D01*
X17145000Y55880000D02*
X18295300Y55880000D01*
X31940300Y38100000D02*
X31940300Y45826600D01*
X31940300Y45826600D02*
X24210500Y53556400D01*
X24210500Y53556400D02*
X20618900Y53556400D01*
X20618900Y53556400D02*
X18295300Y55880000D01*
X38100000Y79375000D02*
X36599700Y79375000D01*
X30440000Y38100000D02*
X31940300Y38100000D01*
X47220300Y81915000D02*
X47620600Y82315300D01*
X47620600Y82315300D02*
X47620600Y85316700D01*
X47620600Y85316700D02*
X43804600Y89132700D01*
X43804600Y89132700D02*
X34463400Y89132700D01*
X34463400Y89132700D02*
X17720700Y72390000D01*
X17720700Y72390000D02*
X16726500Y72390000D01*
X16726500Y72390000D02*
X15994600Y71658100D01*
X15994600Y71658100D02*
X15994600Y70821100D01*
X15994600Y70821100D02*
X15143100Y69969600D01*
X15143100Y69969600D02*
X14353900Y69969600D01*
X14353900Y69969600D02*
X10745900Y66361600D01*
X10745900Y66361600D02*
X10745900Y60549800D01*
X10745900Y60549800D02*
X9766400Y59570300D01*
X9766400Y59570300D02*
X8997900Y59570300D01*
X8997900Y59570300D02*
X8135300Y58707700D01*
X8135300Y58707700D02*
X8135300Y58420000D01*
X45720000Y81915000D02*
X47220300Y81915000D01*
X6985000Y58420000D02*
X8135300Y58420000D01*
X38100000Y84455000D02*
X36599700Y84455000D01*
X17145000Y67190300D02*
X17383300Y67190300D01*
X17383300Y67190300D02*
X18815500Y68622500D01*
X18815500Y68622500D02*
X18815500Y68867100D01*
X18815500Y68867100D02*
X34403300Y84454900D01*
X34403300Y84454900D02*
X36599700Y84454900D01*
X36599700Y84454900D02*
X36599700Y84455000D01*
X17145000Y66040000D02*
X17145000Y67190300D01*
X13054300Y27862600D02*
X14366600Y26550300D01*
X14366600Y26550300D02*
X14605000Y26550300D01*
X22629700Y69215000D02*
X22629700Y64777400D01*
X22629700Y64777400D02*
X17422700Y59570400D01*
X17422700Y59570400D02*
X16640000Y59570400D01*
X16640000Y59570400D02*
X15994600Y58925000D01*
X15994600Y58925000D02*
X15994600Y58145400D01*
X15994600Y58145400D02*
X14942800Y57093600D01*
X14942800Y57093600D02*
X14170400Y57093600D01*
X14170400Y57093600D02*
X13054300Y55977500D01*
X13054300Y55977500D02*
X13054300Y27862600D01*
X13054300Y27862600D02*
X11861700Y26670000D01*
X11861700Y26670000D02*
X9166900Y26670000D01*
X9166900Y26670000D02*
X8135300Y25638400D01*
X8135300Y25638400D02*
X8135300Y25400000D01*
X6985000Y25400000D02*
X8135300Y25400000D01*
X14605000Y25400000D02*
X14605000Y26550300D01*
X24130000Y69215000D02*
X22629700Y69215000D01*
X6985000Y22860000D02*
X6985000Y20320000D01*
X6985000Y25400000D02*
X6985000Y22860000D01*
X14605000Y22860000D02*
X14605000Y20320000D01*
X14605000Y25400000D02*
X14605000Y22860000D01*
X45720000Y61595000D02*
X47220300Y61595000D01*
X45680000Y22860000D02*
X47180300Y22860000D01*
X47180300Y22860000D02*
X47581900Y23261600D01*
X47581900Y23261600D02*
X47581900Y61233400D01*
X47581900Y61233400D02*
X47220300Y61595000D01*
X50165000Y56515000D02*
X52705000Y56515000D01*
X52705000Y56515000D02*
X57785000Y61595000D01*
X6985000Y15240000D02*
X8135300Y15240000D01*
X14605000Y15240000D02*
X13454700Y15240000D01*
X13454700Y15240000D02*
X12304300Y16390400D01*
X12304300Y16390400D02*
X8472200Y16390400D01*
X8472200Y16390400D02*
X8135300Y16053500D01*
X8135300Y16053500D02*
X8135300Y15240000D01*
X9525000Y73660000D02*
X10675300Y73660000D01*
X17145000Y73660000D02*
X15994700Y73660000D01*
X15994700Y73660000D02*
X15994700Y73372400D01*
X15994700Y73372400D02*
X15091700Y72469400D01*
X15091700Y72469400D02*
X11865900Y72469400D01*
X11865900Y72469400D02*
X10675300Y73660000D01*
X9525000Y76200000D02*
X10675300Y76200000D01*
X17145000Y76200000D02*
X15994700Y76200000D01*
X15994700Y76200000D02*
X15994700Y76487600D01*
X15994700Y76487600D02*
X15122300Y77360000D01*
X15122300Y77360000D02*
X11835300Y77360000D01*
X11835300Y77360000D02*
X10675300Y76200000D01*
X14605000Y27940000D02*
X14605000Y29090300D01*
X24130000Y64135000D02*
X22629700Y64135000D01*
X22629700Y64135000D02*
X22629700Y62201900D01*
X22629700Y62201900D02*
X17577800Y57150000D01*
X17577800Y57150000D02*
X16786100Y57150000D01*
X16786100Y57150000D02*
X15994600Y56358500D01*
X15994600Y56358500D02*
X15994600Y55584600D01*
X15994600Y55584600D02*
X15020000Y54610000D01*
X15020000Y54610000D02*
X14190500Y54610000D01*
X14190500Y54610000D02*
X13454600Y53874100D01*
X13454600Y53874100D02*
X13454600Y30002300D01*
X13454600Y30002300D02*
X14366600Y29090300D01*
X14366600Y29090300D02*
X14605000Y29090300D01*
X25630300Y66675000D02*
X29421800Y62883500D01*
X29421800Y62883500D02*
X29827000Y62883500D01*
X24130000Y66675000D02*
X25630300Y66675000D01*
X47180010Y42140010D02*
X45680000Y40640000D01*
X47180010Y43635639D02*
X47180010Y42140010D01*
X44219990Y46595659D02*
X47180010Y43635639D01*
X44219990Y62634990D02*
X44219990Y46595659D01*
X45720000Y64135000D02*
X44219990Y62634990D01*
D22*
X61840000Y660000D02*
X660000Y660000D01*
X660000Y5220128D01*
X2765000Y5220128D01*
X2765000Y4779872D01*
X2850890Y4348075D01*
X3019369Y3941331D01*
X3263962Y3575271D01*
X3575271Y3263962D01*
X3941331Y3019369D01*
X4348075Y2850890D01*
X4779872Y2765000D01*
X5220128Y2765000D01*
X5651925Y2850890D01*
X6058669Y3019369D01*
X6424729Y3263962D01*
X6736038Y3575271D01*
X6980631Y3941331D01*
X7149110Y4348075D01*
X7235000Y4779872D01*
X7235000Y5220128D01*
X7231585Y5237298D01*
X12046903Y5237298D01*
X12118486Y4993329D01*
X12373996Y4872429D01*
X12648184Y4803700D01*
X12930512Y4789783D01*
X13210130Y4831213D01*
X13476292Y4926397D01*
X13601514Y4993329D01*
X13668059Y5220128D01*
X55265000Y5220128D01*
X55265000Y4779872D01*
X55350890Y4348075D01*
X55519369Y3941331D01*
X55763962Y3575271D01*
X56075271Y3263962D01*
X56441331Y3019369D01*
X56848075Y2850890D01*
X57279872Y2765000D01*
X57720128Y2765000D01*
X58151925Y2850890D01*
X58558669Y3019369D01*
X58924729Y3263962D01*
X59236038Y3575271D01*
X59480631Y3941331D01*
X59649110Y4348075D01*
X59735000Y4779872D01*
X59735000Y5220128D01*
X59649110Y5651925D01*
X59480631Y6058669D01*
X59236038Y6424729D01*
X58924729Y6736038D01*
X58558669Y6980631D01*
X58151925Y7149110D01*
X57720128Y7235000D01*
X57279872Y7235000D01*
X56848075Y7149110D01*
X56441331Y6980631D01*
X56075271Y6736038D01*
X55763962Y6424729D01*
X55519369Y6058669D01*
X55350890Y5651925D01*
X55265000Y5220128D01*
X13668059Y5220128D01*
X13673097Y5237298D01*
X12860000Y6050395D01*
X12046903Y5237298D01*
X7231585Y5237298D01*
X7149110Y5651925D01*
X6980631Y6058669D01*
X6913267Y6159488D01*
X11419783Y6159488D01*
X11461213Y5879870D01*
X11556397Y5613708D01*
X11623329Y5488486D01*
X11867298Y5416903D01*
X12680395Y6230000D01*
X13039605Y6230000D01*
X13852702Y5416903D01*
X14096671Y5488486D01*
X14217571Y5743996D01*
X14286300Y6018184D01*
X14300217Y6300512D01*
X14258787Y6580130D01*
X14163603Y6846292D01*
X14096671Y6971514D01*
X13852702Y7043097D01*
X13039605Y6230000D01*
X12680395Y6230000D01*
X11867298Y7043097D01*
X11623329Y6971514D01*
X11502429Y6716004D01*
X11433700Y6441816D01*
X11419783Y6159488D01*
X6913267Y6159488D01*
X6736038Y6424729D01*
X6424729Y6736038D01*
X6058669Y6980631D01*
X5651925Y7149110D01*
X5220128Y7235000D01*
X4779872Y7235000D01*
X4348075Y7149110D01*
X3941331Y6980631D01*
X3575271Y6736038D01*
X3263962Y6424729D01*
X3019369Y6058669D01*
X2850890Y5651925D01*
X2765000Y5220128D01*
X660000Y5220128D01*
X660000Y71266260D01*
X5500000Y71266260D01*
X5500000Y70973740D01*
X5557068Y70686842D01*
X5669010Y70416589D01*
X5831525Y70173368D01*
X6038368Y69966525D01*
X6212760Y69850000D01*
X6038368Y69733475D01*
X5831525Y69526632D01*
X5669010Y69283411D01*
X5557068Y69013158D01*
X5500000Y68726260D01*
X5500000Y68433740D01*
X5557068Y68146842D01*
X5669010Y67876589D01*
X5831525Y67633368D01*
X6038368Y67426525D01*
X6212760Y67310000D01*
X6038368Y67193475D01*
X5831525Y66986632D01*
X5669010Y66743411D01*
X5557068Y66473158D01*
X5500000Y66186260D01*
X5500000Y65893740D01*
X5557068Y65606842D01*
X5669010Y65336589D01*
X5831525Y65093368D01*
X6038368Y64886525D01*
X6212760Y64770000D01*
X6038368Y64653475D01*
X5831525Y64446632D01*
X5669010Y64203411D01*
X5557068Y63933158D01*
X5500000Y63646260D01*
X5500000Y63353740D01*
X5557068Y63066842D01*
X5669010Y62796589D01*
X5831525Y62553368D01*
X6038368Y62346525D01*
X6212760Y62230000D01*
X6038368Y62113475D01*
X5831525Y61906632D01*
X5669010Y61663411D01*
X5557068Y61393158D01*
X5500000Y61106260D01*
X5500000Y60813740D01*
X5557068Y60526842D01*
X5669010Y60256589D01*
X5831525Y60013368D01*
X6038368Y59806525D01*
X6212760Y59690000D01*
X6038368Y59573475D01*
X5831525Y59366632D01*
X5669010Y59123411D01*
X5557068Y58853158D01*
X5500000Y58566260D01*
X5500000Y58273740D01*
X5557068Y57986842D01*
X5669010Y57716589D01*
X5831525Y57473368D01*
X6038368Y57266525D01*
X6212760Y57150000D01*
X6038368Y57033475D01*
X5831525Y56826632D01*
X5669010Y56583411D01*
X5557068Y56313158D01*
X5500000Y56026260D01*
X5500000Y55733740D01*
X5557068Y55446842D01*
X5669010Y55176589D01*
X5831525Y54933368D01*
X6038368Y54726525D01*
X6212760Y54610000D01*
X6038368Y54493475D01*
X5831525Y54286632D01*
X5669010Y54043411D01*
X5557068Y53773158D01*
X5500000Y53486260D01*
X5500000Y53193740D01*
X5557068Y52906842D01*
X5669010Y52636589D01*
X5831525Y52393368D01*
X6038368Y52186525D01*
X6212760Y52070000D01*
X6038368Y51953475D01*
X5831525Y51746632D01*
X5669010Y51503411D01*
X5557068Y51233158D01*
X5500000Y50946260D01*
X5500000Y50653740D01*
X5557068Y50366842D01*
X5669010Y50096589D01*
X5831525Y49853368D01*
X6038368Y49646525D01*
X6212760Y49530000D01*
X6038368Y49413475D01*
X5831525Y49206632D01*
X5669010Y48963411D01*
X5557068Y48693158D01*
X5500000Y48406260D01*
X5500000Y48113740D01*
X5557068Y47826842D01*
X5669010Y47556589D01*
X5831525Y47313368D01*
X6038368Y47106525D01*
X6212760Y46990000D01*
X6038368Y46873475D01*
X5831525Y46666632D01*
X5669010Y46423411D01*
X5557068Y46153158D01*
X5500000Y45866260D01*
X5500000Y45573740D01*
X5557068Y45286842D01*
X5669010Y45016589D01*
X5831525Y44773368D01*
X6038368Y44566525D01*
X6212760Y44450000D01*
X6038368Y44333475D01*
X5831525Y44126632D01*
X5669010Y43883411D01*
X5557068Y43613158D01*
X5500000Y43326260D01*
X5500000Y43033740D01*
X5557068Y42746842D01*
X5669010Y42476589D01*
X5831525Y42233368D01*
X6038368Y42026525D01*
X6212760Y41910000D01*
X6038368Y41793475D01*
X5831525Y41586632D01*
X5669010Y41343411D01*
X5557068Y41073158D01*
X5500000Y40786260D01*
X5500000Y40493740D01*
X5557068Y40206842D01*
X5669010Y39936589D01*
X5831525Y39693368D01*
X6038368Y39486525D01*
X6212760Y39370000D01*
X6038368Y39253475D01*
X5831525Y39046632D01*
X5669010Y38803411D01*
X5557068Y38533158D01*
X5500000Y38246260D01*
X5500000Y37953740D01*
X5557068Y37666842D01*
X5669010Y37396589D01*
X5831525Y37153368D01*
X6038368Y36946525D01*
X6212760Y36830000D01*
X6038368Y36713475D01*
X5831525Y36506632D01*
X5669010Y36263411D01*
X5557068Y35993158D01*
X5500000Y35706260D01*
X5500000Y35413740D01*
X5557068Y35126842D01*
X5669010Y34856589D01*
X5831525Y34613368D01*
X6038368Y34406525D01*
X6212760Y34290000D01*
X6038368Y34173475D01*
X5831525Y33966632D01*
X5669010Y33723411D01*
X5557068Y33453158D01*
X5500000Y33166260D01*
X5500000Y32873740D01*
X5557068Y32586842D01*
X5669010Y32316589D01*
X5831525Y32073368D01*
X6038368Y31866525D01*
X6212760Y31750000D01*
X6038368Y31633475D01*
X5831525Y31426632D01*
X5669010Y31183411D01*
X5557068Y30913158D01*
X5500000Y30626260D01*
X5500000Y30333740D01*
X5557068Y30046842D01*
X5669010Y29776589D01*
X5831525Y29533368D01*
X6038368Y29326525D01*
X6212760Y29210000D01*
X6038368Y29093475D01*
X5831525Y28886632D01*
X5669010Y28643411D01*
X5557068Y28373158D01*
X5500000Y28086260D01*
X5500000Y27793740D01*
X5557068Y27506842D01*
X5669010Y27236589D01*
X5831525Y26993368D01*
X6038368Y26786525D01*
X6212760Y26670000D01*
X6038368Y26553475D01*
X5831525Y26346632D01*
X5669010Y26103411D01*
X5557068Y25833158D01*
X5500000Y25546260D01*
X5500000Y25253740D01*
X5557068Y24966842D01*
X5669010Y24696589D01*
X5831525Y24453368D01*
X6038368Y24246525D01*
X6212760Y24130000D01*
X6038368Y24013475D01*
X5831525Y23806632D01*
X5669010Y23563411D01*
X5557068Y23293158D01*
X5500000Y23006260D01*
X5500000Y22713740D01*
X5557068Y22426842D01*
X5669010Y22156589D01*
X5831525Y21913368D01*
X6038368Y21706525D01*
X6212760Y21590000D01*
X6038368Y21473475D01*
X5831525Y21266632D01*
X5669010Y21023411D01*
X5557068Y20753158D01*
X5500000Y20466260D01*
X5500000Y20173740D01*
X5557068Y19886842D01*
X5669010Y19616589D01*
X5831525Y19373368D01*
X6038368Y19166525D01*
X6212760Y19050000D01*
X6038368Y18933475D01*
X5831525Y18726632D01*
X5669010Y18483411D01*
X5557068Y18213158D01*
X5500000Y17926260D01*
X5500000Y17633740D01*
X5557068Y17346842D01*
X5669010Y17076589D01*
X5831525Y16833368D01*
X6038368Y16626525D01*
X6212760Y16510000D01*
X6038368Y16393475D01*
X5831525Y16186632D01*
X5669010Y15943411D01*
X5557068Y15673158D01*
X5500000Y15386260D01*
X5500000Y15093740D01*
X5557068Y14806842D01*
X5669010Y14536589D01*
X5831525Y14293368D01*
X6038368Y14086525D01*
X6281589Y13924010D01*
X6551842Y13812068D01*
X6838740Y13755000D01*
X7131260Y13755000D01*
X7418158Y13812068D01*
X7688411Y13924010D01*
X7931632Y14086525D01*
X8063487Y14218380D01*
X8085498Y14145820D01*
X8144463Y14035506D01*
X8223815Y13938815D01*
X8320506Y13859463D01*
X8430820Y13800498D01*
X8550518Y13764188D01*
X8675000Y13751928D01*
X9832205Y13751928D01*
X12025001Y11559131D01*
X12025000Y10164625D01*
X11935518Y10155812D01*
X11815820Y10119502D01*
X11705506Y10060537D01*
X11608815Y9981185D01*
X11529463Y9884494D01*
X11470498Y9774180D01*
X11434188Y9654482D01*
X11421928Y9530000D01*
X11421928Y7930000D01*
X11434188Y7805518D01*
X11470498Y7685820D01*
X11529463Y7575506D01*
X11608815Y7478815D01*
X11705506Y7399463D01*
X11815820Y7340498D01*
X11935518Y7304188D01*
X12060000Y7291928D01*
X12067215Y7291928D01*
X12046903Y7222702D01*
X12860000Y6409605D01*
X13673097Y7222702D01*
X13652785Y7291928D01*
X13660000Y7291928D01*
X13784482Y7304188D01*
X13904180Y7340498D01*
X14014494Y7399463D01*
X14111185Y7478815D01*
X14190537Y7575506D01*
X14249502Y7685820D01*
X14285812Y7805518D01*
X14298072Y7930000D01*
X14298072Y9530000D01*
X14285812Y9654482D01*
X14249502Y9774180D01*
X14190537Y9884494D01*
X14111185Y9981185D01*
X14014494Y10060537D01*
X13904180Y10119502D01*
X13784482Y10155812D01*
X13695000Y10164625D01*
X13695000Y11070000D01*
X13768982Y11070000D01*
X13810000Y11065960D01*
X13851018Y11070000D01*
X13851019Y11070000D01*
X13973689Y11082082D01*
X14131087Y11129828D01*
X14276146Y11207364D01*
X14403291Y11311709D01*
X14429446Y11343579D01*
X16837796Y13751928D01*
X17995000Y13751928D01*
X18119482Y13764188D01*
X18239180Y13800498D01*
X18349494Y13859463D01*
X18446185Y13938815D01*
X18477482Y13976951D01*
X24493559Y7960873D01*
X24519709Y7929009D01*
X24646854Y7824664D01*
X24791913Y7747128D01*
X24949311Y7699382D01*
X25071981Y7687300D01*
X25071991Y7687300D01*
X25112999Y7683261D01*
X25154007Y7687300D01*
X42330182Y7687300D01*
X42371200Y7683260D01*
X42412218Y7687300D01*
X42412219Y7687300D01*
X42534889Y7699382D01*
X42692287Y7747128D01*
X42837346Y7824664D01*
X42964491Y7929009D01*
X42990646Y7960879D01*
X44219719Y9189952D01*
X44260392Y9140392D01*
X44478899Y8961068D01*
X44728192Y8827818D01*
X44998691Y8745764D01*
X45209508Y8725000D01*
X46150492Y8725000D01*
X46361309Y8745764D01*
X46631808Y8827818D01*
X46881101Y8961068D01*
X47099608Y9140392D01*
X47278932Y9358899D01*
X47412182Y9608192D01*
X47494236Y9878691D01*
X47521943Y10160000D01*
X47494236Y10441309D01*
X47412182Y10711808D01*
X47278932Y10961101D01*
X47099608Y11179608D01*
X46881101Y11358932D01*
X46748142Y11430000D01*
X46881101Y11501068D01*
X47099608Y11680392D01*
X47278932Y11898899D01*
X47412182Y12148192D01*
X47494236Y12418691D01*
X47521943Y12700000D01*
X47494236Y12981309D01*
X47412182Y13251808D01*
X47278932Y13501101D01*
X47099608Y13719608D01*
X46881101Y13898932D01*
X46748142Y13970000D01*
X46881101Y14041068D01*
X47099608Y14220392D01*
X47278932Y14438899D01*
X47412182Y14688192D01*
X47494236Y14958691D01*
X47521943Y15240000D01*
X47494236Y15521309D01*
X47412182Y15791808D01*
X47278932Y16041101D01*
X47099608Y16259608D01*
X46881101Y16438932D01*
X46748142Y16510000D01*
X46881101Y16581068D01*
X47099608Y16760392D01*
X47278932Y16978899D01*
X47412182Y17228192D01*
X47494236Y17498691D01*
X47521943Y17780000D01*
X47494236Y18061309D01*
X47412182Y18331808D01*
X47278932Y18581101D01*
X47099608Y18799608D01*
X46881101Y18978932D01*
X46748142Y19050000D01*
X46881101Y19121068D01*
X47099608Y19300392D01*
X47278932Y19518899D01*
X47412182Y19768192D01*
X47494236Y20038691D01*
X47521943Y20320000D01*
X47494236Y20601309D01*
X47412182Y20871808D01*
X47278932Y21121101D01*
X47099608Y21339608D01*
X46881101Y21518932D01*
X46748142Y21590000D01*
X46881101Y21661068D01*
X47099608Y21840392D01*
X47278932Y22058899D01*
X47319702Y22135174D01*
X47324385Y22135635D01*
X47462933Y22177663D01*
X47590620Y22245913D01*
X47702538Y22337762D01*
X47725559Y22365813D01*
X48076092Y22716346D01*
X48104137Y22739362D01*
X48195987Y22851280D01*
X48264237Y22978967D01*
X48306265Y23117515D01*
X48316900Y23225495D01*
X48316900Y23225502D01*
X48320455Y23261599D01*
X48316900Y23297696D01*
X48316900Y56656335D01*
X48730000Y56656335D01*
X48730000Y56373665D01*
X48785147Y56096426D01*
X48893320Y55835273D01*
X49050363Y55600241D01*
X49250241Y55400363D01*
X49485273Y55243320D01*
X49746426Y55135147D01*
X50023665Y55080000D01*
X50306335Y55080000D01*
X50583574Y55135147D01*
X50844727Y55243320D01*
X51079759Y55400363D01*
X51279637Y55600241D01*
X51399748Y55780000D01*
X52668895Y55780000D01*
X52705000Y55776444D01*
X52741105Y55780000D01*
X52849085Y55790635D01*
X52987633Y55832663D01*
X53115320Y55900913D01*
X53227238Y55992762D01*
X53250259Y56020813D01*
X57346581Y60117134D01*
X57633816Y60060000D01*
X57936184Y60060000D01*
X58232743Y60118989D01*
X58512095Y60234701D01*
X58763505Y60402688D01*
X58977312Y60616495D01*
X59145299Y60867905D01*
X59261011Y61147257D01*
X59320000Y61443816D01*
X59320000Y61746184D01*
X59261011Y62042743D01*
X59145299Y62322095D01*
X58977312Y62573505D01*
X58910873Y62639944D01*
X58929180Y62645498D01*
X59039494Y62704463D01*
X59136185Y62783815D01*
X59215537Y62880506D01*
X59274502Y62990820D01*
X59310812Y63110518D01*
X59323072Y63235000D01*
X59320000Y63849250D01*
X59161250Y64008000D01*
X57912000Y64008000D01*
X57912000Y63988000D01*
X57658000Y63988000D01*
X57658000Y64008000D01*
X56408750Y64008000D01*
X56250000Y63849250D01*
X56246928Y63235000D01*
X56259188Y63110518D01*
X56295498Y62990820D01*
X56354463Y62880506D01*
X56433815Y62783815D01*
X56530506Y62704463D01*
X56640820Y62645498D01*
X56659127Y62639944D01*
X56592688Y62573505D01*
X56424701Y62322095D01*
X56308989Y62042743D01*
X56250000Y61746184D01*
X56250000Y61443816D01*
X56307134Y61156581D01*
X52400554Y57250000D01*
X51399748Y57250000D01*
X51279637Y57429759D01*
X51079759Y57629637D01*
X50844727Y57786680D01*
X50583574Y57894853D01*
X50306335Y57950000D01*
X50023665Y57950000D01*
X49746426Y57894853D01*
X49485273Y57786680D01*
X49250241Y57629637D01*
X49050363Y57429759D01*
X48893320Y57194727D01*
X48785147Y56933574D01*
X48730000Y56656335D01*
X48316900Y56656335D01*
X48316900Y61197295D01*
X48320456Y61233400D01*
X48306265Y61377485D01*
X48264237Y61516034D01*
X48210850Y61615913D01*
X48195987Y61643720D01*
X48104138Y61755638D01*
X48076087Y61778659D01*
X47765559Y62089187D01*
X47742538Y62117238D01*
X47630620Y62209087D01*
X47502933Y62277337D01*
X47364385Y62319365D01*
X47359702Y62319826D01*
X47318932Y62396101D01*
X47139608Y62614608D01*
X46921101Y62793932D01*
X46788142Y62865000D01*
X46921101Y62936068D01*
X47139608Y63115392D01*
X47318932Y63333899D01*
X47452182Y63583192D01*
X47534236Y63853691D01*
X47561943Y64135000D01*
X47534236Y64416309D01*
X47452182Y64686808D01*
X47318932Y64936101D01*
X47237768Y65035000D01*
X56246928Y65035000D01*
X56250000Y64420750D01*
X56408750Y64262000D01*
X57658000Y64262000D01*
X57658000Y65511250D01*
X57912000Y65511250D01*
X57912000Y64262000D01*
X59161250Y64262000D01*
X59320000Y64420750D01*
X59323072Y65035000D01*
X59310812Y65159482D01*
X59274502Y65279180D01*
X59215537Y65389494D01*
X59136185Y65486185D01*
X59039494Y65565537D01*
X58929180Y65624502D01*
X58809482Y65660812D01*
X58685000Y65673072D01*
X58070750Y65670000D01*
X57912000Y65511250D01*
X57658000Y65511250D01*
X57499250Y65670000D01*
X56885000Y65673072D01*
X56760518Y65660812D01*
X56640820Y65624502D01*
X56530506Y65565537D01*
X56433815Y65486185D01*
X56354463Y65389494D01*
X56295498Y65279180D01*
X56259188Y65159482D01*
X56246928Y65035000D01*
X47237768Y65035000D01*
X47139608Y65154608D01*
X46921101Y65333932D01*
X46788142Y65405000D01*
X46921101Y65476068D01*
X47139608Y65655392D01*
X47318932Y65873899D01*
X47452182Y66123192D01*
X47534236Y66393691D01*
X47561943Y66675000D01*
X47534236Y66956309D01*
X47452182Y67226808D01*
X47318932Y67476101D01*
X47139608Y67694608D01*
X46921101Y67873932D01*
X46788142Y67945000D01*
X46921101Y68016068D01*
X47139608Y68195392D01*
X47318932Y68413899D01*
X47452182Y68663192D01*
X47534236Y68933691D01*
X47561943Y69215000D01*
X47548023Y69356335D01*
X48730000Y69356335D01*
X48730000Y69073665D01*
X48785147Y68796426D01*
X48893320Y68535273D01*
X49050363Y68300241D01*
X49250241Y68100363D01*
X49482759Y67945000D01*
X49250241Y67789637D01*
X49050363Y67589759D01*
X48893320Y67354727D01*
X48785147Y67093574D01*
X48730000Y66816335D01*
X48730000Y66533665D01*
X48785147Y66256426D01*
X48893320Y65995273D01*
X49050363Y65760241D01*
X49250241Y65560363D01*
X49485273Y65403320D01*
X49746426Y65295147D01*
X50023665Y65240000D01*
X50306335Y65240000D01*
X50583574Y65295147D01*
X50844727Y65403320D01*
X51079759Y65560363D01*
X51279637Y65760241D01*
X51436680Y65995273D01*
X51544853Y66256426D01*
X51600000Y66533665D01*
X51600000Y66816335D01*
X51544853Y67093574D01*
X51436680Y67354727D01*
X51279637Y67589759D01*
X51079759Y67789637D01*
X50847241Y67945000D01*
X51079759Y68100363D01*
X51279637Y68300241D01*
X51436680Y68535273D01*
X51544853Y68796426D01*
X51600000Y69073665D01*
X51600000Y69356335D01*
X51544853Y69633574D01*
X51436680Y69894727D01*
X51279637Y70129759D01*
X51079759Y70329637D01*
X50844727Y70486680D01*
X50583574Y70594853D01*
X50306335Y70650000D01*
X50023665Y70650000D01*
X49746426Y70594853D01*
X49485273Y70486680D01*
X49250241Y70329637D01*
X49050363Y70129759D01*
X48893320Y69894727D01*
X48785147Y69633574D01*
X48730000Y69356335D01*
X47548023Y69356335D01*
X47534236Y69496309D01*
X47452182Y69766808D01*
X47318932Y70016101D01*
X47139608Y70234608D01*
X46921101Y70413932D01*
X46788142Y70485000D01*
X46921101Y70556068D01*
X47139608Y70735392D01*
X47318932Y70953899D01*
X47452182Y71203192D01*
X47534236Y71473691D01*
X47561943Y71755000D01*
X47534236Y72036309D01*
X47452182Y72306808D01*
X47318932Y72556101D01*
X47139608Y72774608D01*
X46921101Y72953932D01*
X46788142Y73025000D01*
X46921101Y73096068D01*
X47139608Y73275392D01*
X47237767Y73395000D01*
X56246928Y73395000D01*
X56259188Y73270518D01*
X56295498Y73150820D01*
X56354463Y73040506D01*
X56433815Y72943815D01*
X56530506Y72864463D01*
X56640820Y72805498D01*
X56760518Y72769188D01*
X56885000Y72756928D01*
X57499250Y72760000D01*
X57658000Y72918750D01*
X57658000Y74168000D01*
X57912000Y74168000D01*
X57912000Y72918750D01*
X58070750Y72760000D01*
X58685000Y72756928D01*
X58809482Y72769188D01*
X58929180Y72805498D01*
X59039494Y72864463D01*
X59136185Y72943815D01*
X59215537Y73040506D01*
X59274502Y73150820D01*
X59310812Y73270518D01*
X59323072Y73395000D01*
X59320000Y74009250D01*
X59161250Y74168000D01*
X57912000Y74168000D01*
X57658000Y74168000D01*
X56408750Y74168000D01*
X56250000Y74009250D01*
X56246928Y73395000D01*
X47237767Y73395000D01*
X47318932Y73493899D01*
X47452182Y73743192D01*
X47534236Y74013691D01*
X47561943Y74295000D01*
X47534236Y74576309D01*
X47452182Y74846808D01*
X47318932Y75096101D01*
X47237768Y75195000D01*
X56246928Y75195000D01*
X56250000Y74580750D01*
X56408750Y74422000D01*
X57658000Y74422000D01*
X57658000Y74442000D01*
X57912000Y74442000D01*
X57912000Y74422000D01*
X59161250Y74422000D01*
X59320000Y74580750D01*
X59323072Y75195000D01*
X59310812Y75319482D01*
X59274502Y75439180D01*
X59215537Y75549494D01*
X59136185Y75646185D01*
X59039494Y75725537D01*
X58929180Y75784502D01*
X58910873Y75790056D01*
X58977312Y75856495D01*
X59145299Y76107905D01*
X59261011Y76387257D01*
X59320000Y76683816D01*
X59320000Y76986184D01*
X59261011Y77282743D01*
X59145299Y77562095D01*
X58977312Y77813505D01*
X58763505Y78027312D01*
X58512095Y78195299D01*
X58232743Y78311011D01*
X57936184Y78370000D01*
X57633816Y78370000D01*
X57337257Y78311011D01*
X57057905Y78195299D01*
X56806495Y78027312D01*
X56592688Y77813505D01*
X56424701Y77562095D01*
X56308989Y77282743D01*
X56250000Y76986184D01*
X56250000Y76683816D01*
X56308989Y76387257D01*
X56424701Y76107905D01*
X56592688Y75856495D01*
X56659127Y75790056D01*
X56640820Y75784502D01*
X56530506Y75725537D01*
X56433815Y75646185D01*
X56354463Y75549494D01*
X56295498Y75439180D01*
X56259188Y75319482D01*
X56246928Y75195000D01*
X47237768Y75195000D01*
X47139608Y75314608D01*
X46921101Y75493932D01*
X46788142Y75565000D01*
X46921101Y75636068D01*
X47139608Y75815392D01*
X47318932Y76033899D01*
X47452182Y76283192D01*
X47534236Y76553691D01*
X47561943Y76835000D01*
X47534236Y77116309D01*
X47452182Y77386808D01*
X47318932Y77636101D01*
X47139608Y77854608D01*
X46921101Y78033932D01*
X46788142Y78105000D01*
X46921101Y78176068D01*
X47139608Y78355392D01*
X47318932Y78573899D01*
X47452182Y78823192D01*
X47534236Y79093691D01*
X47561943Y79375000D01*
X47548023Y79516335D01*
X48730000Y79516335D01*
X48730000Y79233665D01*
X48785147Y78956426D01*
X48893320Y78695273D01*
X49050363Y78460241D01*
X49250241Y78260363D01*
X49485273Y78103320D01*
X49746426Y77995147D01*
X50023665Y77940000D01*
X50306335Y77940000D01*
X50583574Y77995147D01*
X50844727Y78103320D01*
X51079759Y78260363D01*
X51279637Y78460241D01*
X51436680Y78695273D01*
X51544853Y78956426D01*
X51600000Y79233665D01*
X51600000Y79516335D01*
X51544853Y79793574D01*
X51436680Y80054727D01*
X51279637Y80289759D01*
X51079759Y80489637D01*
X50844727Y80646680D01*
X50583574Y80754853D01*
X50306335Y80810000D01*
X50023665Y80810000D01*
X49746426Y80754853D01*
X49485273Y80646680D01*
X49250241Y80489637D01*
X49050363Y80289759D01*
X48893320Y80054727D01*
X48785147Y79793574D01*
X48730000Y79516335D01*
X47548023Y79516335D01*
X47534236Y79656309D01*
X47452182Y79926808D01*
X47318932Y80176101D01*
X47139608Y80394608D01*
X46921101Y80573932D01*
X46788142Y80645000D01*
X46921101Y80716068D01*
X47139608Y80895392D01*
X47318932Y81113899D01*
X47359702Y81190174D01*
X47364385Y81190635D01*
X47502933Y81232663D01*
X47630620Y81300913D01*
X47742538Y81392762D01*
X47765559Y81420813D01*
X48114792Y81770046D01*
X48142837Y81793062D01*
X48234687Y81904980D01*
X48302937Y82032666D01*
X48344965Y82171215D01*
X48359156Y82315300D01*
X48355600Y82351405D01*
X48355600Y85280595D01*
X48359156Y85316700D01*
X48344965Y85460785D01*
X48333318Y85499180D01*
X48302937Y85599333D01*
X48234687Y85727020D01*
X48142838Y85838938D01*
X48114793Y85861954D01*
X47756619Y86220128D01*
X55265000Y86220128D01*
X55265000Y85779872D01*
X55350890Y85348075D01*
X55519369Y84941331D01*
X55763962Y84575271D01*
X56075271Y84263962D01*
X56441331Y84019369D01*
X56848075Y83850890D01*
X57279872Y83765000D01*
X57720128Y83765000D01*
X58151925Y83850890D01*
X58558669Y84019369D01*
X58924729Y84263962D01*
X59236038Y84575271D01*
X59480631Y84941331D01*
X59649110Y85348075D01*
X59735000Y85779872D01*
X59735000Y86220128D01*
X59649110Y86651925D01*
X59480631Y87058669D01*
X59236038Y87424729D01*
X58924729Y87736038D01*
X58558669Y87980631D01*
X58151925Y88149110D01*
X57720128Y88235000D01*
X57279872Y88235000D01*
X56848075Y88149110D01*
X56441331Y87980631D01*
X56075271Y87736038D01*
X55763962Y87424729D01*
X55519369Y87058669D01*
X55350890Y86651925D01*
X55265000Y86220128D01*
X47756619Y86220128D01*
X44349859Y89626887D01*
X44326838Y89654938D01*
X44214920Y89746787D01*
X44087233Y89815037D01*
X43948685Y89857065D01*
X43840705Y89867700D01*
X43804600Y89871256D01*
X43768495Y89867700D01*
X34499494Y89867700D01*
X34463399Y89871255D01*
X34427304Y89867700D01*
X34427295Y89867700D01*
X34319315Y89857065D01*
X34180767Y89815037D01*
X34053080Y89746787D01*
X33941162Y89654938D01*
X33918146Y89626893D01*
X18517716Y74226462D01*
X18460990Y74363411D01*
X18298475Y74606632D01*
X18091632Y74813475D01*
X17917240Y74930000D01*
X18091632Y75046525D01*
X18298475Y75253368D01*
X18460990Y75496589D01*
X18572932Y75766842D01*
X18630000Y76053740D01*
X18630000Y76346260D01*
X18572932Y76633158D01*
X18460990Y76903411D01*
X18298475Y77146632D01*
X18091632Y77353475D01*
X17848411Y77515990D01*
X17578158Y77627932D01*
X17291260Y77685000D01*
X16998740Y77685000D01*
X16711842Y77627932D01*
X16441589Y77515990D01*
X16198368Y77353475D01*
X16183320Y77338427D01*
X15667558Y77854188D01*
X15644538Y77882238D01*
X15532620Y77974087D01*
X15404933Y78042337D01*
X15266385Y78084365D01*
X15158405Y78095000D01*
X15122300Y78098556D01*
X15086195Y78095000D01*
X11871405Y78095000D01*
X11835300Y78098556D01*
X11691215Y78084365D01*
X11552666Y78042337D01*
X11424980Y77974087D01*
X11313062Y77882238D01*
X11290046Y77854193D01*
X10630480Y77194627D01*
X10471632Y77353475D01*
X10228411Y77515990D01*
X9958158Y77627932D01*
X9671260Y77685000D01*
X9378740Y77685000D01*
X9091842Y77627932D01*
X8821589Y77515990D01*
X8578368Y77353475D01*
X8371525Y77146632D01*
X8253900Y76970594D01*
X8082588Y77200269D01*
X7866355Y77395178D01*
X7616252Y77544157D01*
X7341891Y77641481D01*
X7112000Y77520814D01*
X7112000Y76327000D01*
X7132000Y76327000D01*
X7132000Y76073000D01*
X7112000Y76073000D01*
X7112000Y73787000D01*
X7132000Y73787000D01*
X7132000Y73533000D01*
X7112000Y73533000D01*
X7112000Y73513000D01*
X6858000Y73513000D01*
X6858000Y73533000D01*
X5664845Y73533000D01*
X5543524Y73303110D01*
X5588175Y73155901D01*
X5713359Y72893080D01*
X5887412Y72659731D01*
X6103645Y72464822D01*
X6220534Y72395195D01*
X6038368Y72273475D01*
X5831525Y72066632D01*
X5669010Y71823411D01*
X5557068Y71553158D01*
X5500000Y71266260D01*
X660000Y71266260D01*
X660000Y75843110D01*
X5543524Y75843110D01*
X5588175Y75695901D01*
X5713359Y75433080D01*
X5887412Y75199731D01*
X6103645Y75004822D01*
X6229255Y74930000D01*
X6103645Y74855178D01*
X5887412Y74660269D01*
X5713359Y74426920D01*
X5588175Y74164099D01*
X5543524Y74016890D01*
X5664845Y73787000D01*
X6858000Y73787000D01*
X6858000Y76073000D01*
X5664845Y76073000D01*
X5543524Y75843110D01*
X660000Y75843110D01*
X660000Y76556890D01*
X5543524Y76556890D01*
X5664845Y76327000D01*
X6858000Y76327000D01*
X6858000Y77520814D01*
X6628109Y77641481D01*
X6353748Y77544157D01*
X6103645Y77395178D01*
X5887412Y77200269D01*
X5713359Y76966920D01*
X5588175Y76704099D01*
X5543524Y76556890D01*
X660000Y76556890D01*
X660000Y86220128D01*
X2765000Y86220128D01*
X2765000Y85779872D01*
X2850890Y85348075D01*
X3019369Y84941331D01*
X3263962Y84575271D01*
X3575271Y84263962D01*
X3941331Y84019369D01*
X4348075Y83850890D01*
X4779872Y83765000D01*
X5220128Y83765000D01*
X5651925Y83850890D01*
X6058669Y84019369D01*
X6424729Y84263962D01*
X6736038Y84575271D01*
X6980631Y84941331D01*
X7149110Y85348075D01*
X7235000Y85779872D01*
X7235000Y86220128D01*
X7149110Y86651925D01*
X6980631Y87058669D01*
X6736038Y87424729D01*
X6424729Y87736038D01*
X6058669Y87980631D01*
X5651925Y88149110D01*
X5220128Y88235000D01*
X4779872Y88235000D01*
X4348075Y88149110D01*
X3941331Y87980631D01*
X3575271Y87736038D01*
X3263962Y87424729D01*
X3019369Y87058669D01*
X2850890Y86651925D01*
X2765000Y86220128D01*
X660000Y86220128D01*
X660000Y90340000D01*
X61840001Y90340000D01*
X61840000Y660000D01*
G04 #@! TA.AperFunction,Conductor*
D23*
G36*
X61840000Y660000D02*
G01*
X660000Y660000D01*
X660000Y5220128D01*
X2765000Y5220128D01*
X2765000Y4779872D01*
X2850890Y4348075D01*
X3019369Y3941331D01*
X3263962Y3575271D01*
X3575271Y3263962D01*
X3941331Y3019369D01*
X4348075Y2850890D01*
X4779872Y2765000D01*
X5220128Y2765000D01*
X5651925Y2850890D01*
X6058669Y3019369D01*
X6424729Y3263962D01*
X6736038Y3575271D01*
X6980631Y3941331D01*
X7149110Y4348075D01*
X7235000Y4779872D01*
X7235000Y5220128D01*
X7231585Y5237298D01*
X12046903Y5237298D01*
X12118486Y4993329D01*
X12373996Y4872429D01*
X12648184Y4803700D01*
X12930512Y4789783D01*
X13210130Y4831213D01*
X13476292Y4926397D01*
X13601514Y4993329D01*
X13668059Y5220128D01*
X55265000Y5220128D01*
X55265000Y4779872D01*
X55350890Y4348075D01*
X55519369Y3941331D01*
X55763962Y3575271D01*
X56075271Y3263962D01*
X56441331Y3019369D01*
X56848075Y2850890D01*
X57279872Y2765000D01*
X57720128Y2765000D01*
X58151925Y2850890D01*
X58558669Y3019369D01*
X58924729Y3263962D01*
X59236038Y3575271D01*
X59480631Y3941331D01*
X59649110Y4348075D01*
X59735000Y4779872D01*
X59735000Y5220128D01*
X59649110Y5651925D01*
X59480631Y6058669D01*
X59236038Y6424729D01*
X58924729Y6736038D01*
X58558669Y6980631D01*
X58151925Y7149110D01*
X57720128Y7235000D01*
X57279872Y7235000D01*
X56848075Y7149110D01*
X56441331Y6980631D01*
X56075271Y6736038D01*
X55763962Y6424729D01*
X55519369Y6058669D01*
X55350890Y5651925D01*
X55265000Y5220128D01*
X13668059Y5220128D01*
X13673097Y5237298D01*
X12860000Y6050395D01*
X12046903Y5237298D01*
X7231585Y5237298D01*
X7149110Y5651925D01*
X6980631Y6058669D01*
X6913267Y6159488D01*
X11419783Y6159488D01*
X11461213Y5879870D01*
X11556397Y5613708D01*
X11623329Y5488486D01*
X11867298Y5416903D01*
X12680395Y6230000D01*
X13039605Y6230000D01*
X13852702Y5416903D01*
X14096671Y5488486D01*
X14217571Y5743996D01*
X14286300Y6018184D01*
X14300217Y6300512D01*
X14258787Y6580130D01*
X14163603Y6846292D01*
X14096671Y6971514D01*
X13852702Y7043097D01*
X13039605Y6230000D01*
X12680395Y6230000D01*
X11867298Y7043097D01*
X11623329Y6971514D01*
X11502429Y6716004D01*
X11433700Y6441816D01*
X11419783Y6159488D01*
X6913267Y6159488D01*
X6736038Y6424729D01*
X6424729Y6736038D01*
X6058669Y6980631D01*
X5651925Y7149110D01*
X5220128Y7235000D01*
X4779872Y7235000D01*
X4348075Y7149110D01*
X3941331Y6980631D01*
X3575271Y6736038D01*
X3263962Y6424729D01*
X3019369Y6058669D01*
X2850890Y5651925D01*
X2765000Y5220128D01*
X660000Y5220128D01*
X660000Y71266260D01*
X5500000Y71266260D01*
X5500000Y70973740D01*
X5557068Y70686842D01*
X5669010Y70416589D01*
X5831525Y70173368D01*
X6038368Y69966525D01*
X6212760Y69850000D01*
X6038368Y69733475D01*
X5831525Y69526632D01*
X5669010Y69283411D01*
X5557068Y69013158D01*
X5500000Y68726260D01*
X5500000Y68433740D01*
X5557068Y68146842D01*
X5669010Y67876589D01*
X5831525Y67633368D01*
X6038368Y67426525D01*
X6212760Y67310000D01*
X6038368Y67193475D01*
X5831525Y66986632D01*
X5669010Y66743411D01*
X5557068Y66473158D01*
X5500000Y66186260D01*
X5500000Y65893740D01*
X5557068Y65606842D01*
X5669010Y65336589D01*
X5831525Y65093368D01*
X6038368Y64886525D01*
X6212760Y64770000D01*
X6038368Y64653475D01*
X5831525Y64446632D01*
X5669010Y64203411D01*
X5557068Y63933158D01*
X5500000Y63646260D01*
X5500000Y63353740D01*
X5557068Y63066842D01*
X5669010Y62796589D01*
X5831525Y62553368D01*
X6038368Y62346525D01*
X6212760Y62230000D01*
X6038368Y62113475D01*
X5831525Y61906632D01*
X5669010Y61663411D01*
X5557068Y61393158D01*
X5500000Y61106260D01*
X5500000Y60813740D01*
X5557068Y60526842D01*
X5669010Y60256589D01*
X5831525Y60013368D01*
X6038368Y59806525D01*
X6212760Y59690000D01*
X6038368Y59573475D01*
X5831525Y59366632D01*
X5669010Y59123411D01*
X5557068Y58853158D01*
X5500000Y58566260D01*
X5500000Y58273740D01*
X5557068Y57986842D01*
X5669010Y57716589D01*
X5831525Y57473368D01*
X6038368Y57266525D01*
X6212760Y57150000D01*
X6038368Y57033475D01*
X5831525Y56826632D01*
X5669010Y56583411D01*
X5557068Y56313158D01*
X5500000Y56026260D01*
X5500000Y55733740D01*
X5557068Y55446842D01*
X5669010Y55176589D01*
X5831525Y54933368D01*
X6038368Y54726525D01*
X6212760Y54610000D01*
X6038368Y54493475D01*
X5831525Y54286632D01*
X5669010Y54043411D01*
X5557068Y53773158D01*
X5500000Y53486260D01*
X5500000Y53193740D01*
X5557068Y52906842D01*
X5669010Y52636589D01*
X5831525Y52393368D01*
X6038368Y52186525D01*
X6212760Y52070000D01*
X6038368Y51953475D01*
X5831525Y51746632D01*
X5669010Y51503411D01*
X5557068Y51233158D01*
X5500000Y50946260D01*
X5500000Y50653740D01*
X5557068Y50366842D01*
X5669010Y50096589D01*
X5831525Y49853368D01*
X6038368Y49646525D01*
X6212760Y49530000D01*
X6038368Y49413475D01*
X5831525Y49206632D01*
X5669010Y48963411D01*
X5557068Y48693158D01*
X5500000Y48406260D01*
X5500000Y48113740D01*
X5557068Y47826842D01*
X5669010Y47556589D01*
X5831525Y47313368D01*
X6038368Y47106525D01*
X6212760Y46990000D01*
X6038368Y46873475D01*
X5831525Y46666632D01*
X5669010Y46423411D01*
X5557068Y46153158D01*
X5500000Y45866260D01*
X5500000Y45573740D01*
X5557068Y45286842D01*
X5669010Y45016589D01*
X5831525Y44773368D01*
X6038368Y44566525D01*
X6212760Y44450000D01*
X6038368Y44333475D01*
X5831525Y44126632D01*
X5669010Y43883411D01*
X5557068Y43613158D01*
X5500000Y43326260D01*
X5500000Y43033740D01*
X5557068Y42746842D01*
X5669010Y42476589D01*
X5831525Y42233368D01*
X6038368Y42026525D01*
X6212760Y41910000D01*
X6038368Y41793475D01*
X5831525Y41586632D01*
X5669010Y41343411D01*
X5557068Y41073158D01*
X5500000Y40786260D01*
X5500000Y40493740D01*
X5557068Y40206842D01*
X5669010Y39936589D01*
X5831525Y39693368D01*
X6038368Y39486525D01*
X6212760Y39370000D01*
X6038368Y39253475D01*
X5831525Y39046632D01*
X5669010Y38803411D01*
X5557068Y38533158D01*
X5500000Y38246260D01*
X5500000Y37953740D01*
X5557068Y37666842D01*
X5669010Y37396589D01*
X5831525Y37153368D01*
X6038368Y36946525D01*
X6212760Y36830000D01*
X6038368Y36713475D01*
X5831525Y36506632D01*
X5669010Y36263411D01*
X5557068Y35993158D01*
X5500000Y35706260D01*
X5500000Y35413740D01*
X5557068Y35126842D01*
X5669010Y34856589D01*
X5831525Y34613368D01*
X6038368Y34406525D01*
X6212760Y34290000D01*
X6038368Y34173475D01*
X5831525Y33966632D01*
X5669010Y33723411D01*
X5557068Y33453158D01*
X5500000Y33166260D01*
X5500000Y32873740D01*
X5557068Y32586842D01*
X5669010Y32316589D01*
X5831525Y32073368D01*
X6038368Y31866525D01*
X6212760Y31750000D01*
X6038368Y31633475D01*
X5831525Y31426632D01*
X5669010Y31183411D01*
X5557068Y30913158D01*
X5500000Y30626260D01*
X5500000Y30333740D01*
X5557068Y30046842D01*
X5669010Y29776589D01*
X5831525Y29533368D01*
X6038368Y29326525D01*
X6212760Y29210000D01*
X6038368Y29093475D01*
X5831525Y28886632D01*
X5669010Y28643411D01*
X5557068Y28373158D01*
X5500000Y28086260D01*
X5500000Y27793740D01*
X5557068Y27506842D01*
X5669010Y27236589D01*
X5831525Y26993368D01*
X6038368Y26786525D01*
X6212760Y26670000D01*
X6038368Y26553475D01*
X5831525Y26346632D01*
X5669010Y26103411D01*
X5557068Y25833158D01*
X5500000Y25546260D01*
X5500000Y25253740D01*
X5557068Y24966842D01*
X5669010Y24696589D01*
X5831525Y24453368D01*
X6038368Y24246525D01*
X6212760Y24130000D01*
X6038368Y24013475D01*
X5831525Y23806632D01*
X5669010Y23563411D01*
X5557068Y23293158D01*
X5500000Y23006260D01*
X5500000Y22713740D01*
X5557068Y22426842D01*
X5669010Y22156589D01*
X5831525Y21913368D01*
X6038368Y21706525D01*
X6212760Y21590000D01*
X6038368Y21473475D01*
X5831525Y21266632D01*
X5669010Y21023411D01*
X5557068Y20753158D01*
X5500000Y20466260D01*
X5500000Y20173740D01*
X5557068Y19886842D01*
X5669010Y19616589D01*
X5831525Y19373368D01*
X6038368Y19166525D01*
X6212760Y19050000D01*
X6038368Y18933475D01*
X5831525Y18726632D01*
X5669010Y18483411D01*
X5557068Y18213158D01*
X5500000Y17926260D01*
X5500000Y17633740D01*
X5557068Y17346842D01*
X5669010Y17076589D01*
X5831525Y16833368D01*
X6038368Y16626525D01*
X6212760Y16510000D01*
X6038368Y16393475D01*
X5831525Y16186632D01*
X5669010Y15943411D01*
X5557068Y15673158D01*
X5500000Y15386260D01*
X5500000Y15093740D01*
X5557068Y14806842D01*
X5669010Y14536589D01*
X5831525Y14293368D01*
X6038368Y14086525D01*
X6281589Y13924010D01*
X6551842Y13812068D01*
X6838740Y13755000D01*
X7131260Y13755000D01*
X7418158Y13812068D01*
X7688411Y13924010D01*
X7931632Y14086525D01*
X8063487Y14218380D01*
X8085498Y14145820D01*
X8144463Y14035506D01*
X8223815Y13938815D01*
X8320506Y13859463D01*
X8430820Y13800498D01*
X8550518Y13764188D01*
X8675000Y13751928D01*
X9832205Y13751928D01*
X12025001Y11559131D01*
X12025000Y10164625D01*
X11935518Y10155812D01*
X11815820Y10119502D01*
X11705506Y10060537D01*
X11608815Y9981185D01*
X11529463Y9884494D01*
X11470498Y9774180D01*
X11434188Y9654482D01*
X11421928Y9530000D01*
X11421928Y7930000D01*
X11434188Y7805518D01*
X11470498Y7685820D01*
X11529463Y7575506D01*
X11608815Y7478815D01*
X11705506Y7399463D01*
X11815820Y7340498D01*
X11935518Y7304188D01*
X12060000Y7291928D01*
X12067215Y7291928D01*
X12046903Y7222702D01*
X12860000Y6409605D01*
X13673097Y7222702D01*
X13652785Y7291928D01*
X13660000Y7291928D01*
X13784482Y7304188D01*
X13904180Y7340498D01*
X14014494Y7399463D01*
X14111185Y7478815D01*
X14190537Y7575506D01*
X14249502Y7685820D01*
X14285812Y7805518D01*
X14298072Y7930000D01*
X14298072Y9530000D01*
X14285812Y9654482D01*
X14249502Y9774180D01*
X14190537Y9884494D01*
X14111185Y9981185D01*
X14014494Y10060537D01*
X13904180Y10119502D01*
X13784482Y10155812D01*
X13695000Y10164625D01*
X13695000Y11070000D01*
X13768982Y11070000D01*
X13810000Y11065960D01*
X13851018Y11070000D01*
X13851019Y11070000D01*
X13973689Y11082082D01*
X14131087Y11129828D01*
X14276146Y11207364D01*
X14403291Y11311709D01*
X14429446Y11343579D01*
X16837796Y13751928D01*
X17995000Y13751928D01*
X18119482Y13764188D01*
X18239180Y13800498D01*
X18349494Y13859463D01*
X18446185Y13938815D01*
X18477482Y13976951D01*
X24493559Y7960873D01*
X24519709Y7929009D01*
X24646854Y7824664D01*
X24791913Y7747128D01*
X24949311Y7699382D01*
X25071981Y7687300D01*
X25071991Y7687300D01*
X25112999Y7683261D01*
X25154007Y7687300D01*
X42330182Y7687300D01*
X42371200Y7683260D01*
X42412218Y7687300D01*
X42412219Y7687300D01*
X42534889Y7699382D01*
X42692287Y7747128D01*
X42837346Y7824664D01*
X42964491Y7929009D01*
X42990646Y7960879D01*
X44219719Y9189952D01*
X44260392Y9140392D01*
X44478899Y8961068D01*
X44728192Y8827818D01*
X44998691Y8745764D01*
X45209508Y8725000D01*
X46150492Y8725000D01*
X46361309Y8745764D01*
X46631808Y8827818D01*
X46881101Y8961068D01*
X47099608Y9140392D01*
X47278932Y9358899D01*
X47412182Y9608192D01*
X47494236Y9878691D01*
X47521943Y10160000D01*
X47494236Y10441309D01*
X47412182Y10711808D01*
X47278932Y10961101D01*
X47099608Y11179608D01*
X46881101Y11358932D01*
X46748142Y11430000D01*
X46881101Y11501068D01*
X47099608Y11680392D01*
X47278932Y11898899D01*
X47412182Y12148192D01*
X47494236Y12418691D01*
X47521943Y12700000D01*
X47494236Y12981309D01*
X47412182Y13251808D01*
X47278932Y13501101D01*
X47099608Y13719608D01*
X46881101Y13898932D01*
X46748142Y13970000D01*
X46881101Y14041068D01*
X47099608Y14220392D01*
X47278932Y14438899D01*
X47412182Y14688192D01*
X47494236Y14958691D01*
X47521943Y15240000D01*
X47494236Y15521309D01*
X47412182Y15791808D01*
X47278932Y16041101D01*
X47099608Y16259608D01*
X46881101Y16438932D01*
X46748142Y16510000D01*
X46881101Y16581068D01*
X47099608Y16760392D01*
X47278932Y16978899D01*
X47412182Y17228192D01*
X47494236Y17498691D01*
X47521943Y17780000D01*
X47494236Y18061309D01*
X47412182Y18331808D01*
X47278932Y18581101D01*
X47099608Y18799608D01*
X46881101Y18978932D01*
X46748142Y19050000D01*
X46881101Y19121068D01*
X47099608Y19300392D01*
X47278932Y19518899D01*
X47412182Y19768192D01*
X47494236Y20038691D01*
X47521943Y20320000D01*
X47494236Y20601309D01*
X47412182Y20871808D01*
X47278932Y21121101D01*
X47099608Y21339608D01*
X46881101Y21518932D01*
X46748142Y21590000D01*
X46881101Y21661068D01*
X47099608Y21840392D01*
X47278932Y22058899D01*
X47319702Y22135174D01*
X47324385Y22135635D01*
X47462933Y22177663D01*
X47590620Y22245913D01*
X47702538Y22337762D01*
X47725559Y22365813D01*
X48076092Y22716346D01*
X48104137Y22739362D01*
X48195987Y22851280D01*
X48264237Y22978967D01*
X48306265Y23117515D01*
X48316900Y23225495D01*
X48316900Y23225502D01*
X48320455Y23261599D01*
X48316900Y23297696D01*
X48316900Y56656335D01*
X48730000Y56656335D01*
X48730000Y56373665D01*
X48785147Y56096426D01*
X48893320Y55835273D01*
X49050363Y55600241D01*
X49250241Y55400363D01*
X49485273Y55243320D01*
X49746426Y55135147D01*
X50023665Y55080000D01*
X50306335Y55080000D01*
X50583574Y55135147D01*
X50844727Y55243320D01*
X51079759Y55400363D01*
X51279637Y55600241D01*
X51399748Y55780000D01*
X52668895Y55780000D01*
X52705000Y55776444D01*
X52741105Y55780000D01*
X52849085Y55790635D01*
X52987633Y55832663D01*
X53115320Y55900913D01*
X53227238Y55992762D01*
X53250259Y56020813D01*
X57346581Y60117134D01*
X57633816Y60060000D01*
X57936184Y60060000D01*
X58232743Y60118989D01*
X58512095Y60234701D01*
X58763505Y60402688D01*
X58977312Y60616495D01*
X59145299Y60867905D01*
X59261011Y61147257D01*
X59320000Y61443816D01*
X59320000Y61746184D01*
X59261011Y62042743D01*
X59145299Y62322095D01*
X58977312Y62573505D01*
X58910873Y62639944D01*
X58929180Y62645498D01*
X59039494Y62704463D01*
X59136185Y62783815D01*
X59215537Y62880506D01*
X59274502Y62990820D01*
X59310812Y63110518D01*
X59323072Y63235000D01*
X59320000Y63849250D01*
X59161250Y64008000D01*
X57912000Y64008000D01*
X57912000Y63988000D01*
X57658000Y63988000D01*
X57658000Y64008000D01*
X56408750Y64008000D01*
X56250000Y63849250D01*
X56246928Y63235000D01*
X56259188Y63110518D01*
X56295498Y62990820D01*
X56354463Y62880506D01*
X56433815Y62783815D01*
X56530506Y62704463D01*
X56640820Y62645498D01*
X56659127Y62639944D01*
X56592688Y62573505D01*
X56424701Y62322095D01*
X56308989Y62042743D01*
X56250000Y61746184D01*
X56250000Y61443816D01*
X56307134Y61156581D01*
X52400554Y57250000D01*
X51399748Y57250000D01*
X51279637Y57429759D01*
X51079759Y57629637D01*
X50844727Y57786680D01*
X50583574Y57894853D01*
X50306335Y57950000D01*
X50023665Y57950000D01*
X49746426Y57894853D01*
X49485273Y57786680D01*
X49250241Y57629637D01*
X49050363Y57429759D01*
X48893320Y57194727D01*
X48785147Y56933574D01*
X48730000Y56656335D01*
X48316900Y56656335D01*
X48316900Y61197295D01*
X48320456Y61233400D01*
X48306265Y61377485D01*
X48264237Y61516034D01*
X48210850Y61615913D01*
X48195987Y61643720D01*
X48104138Y61755638D01*
X48076087Y61778659D01*
X47765559Y62089187D01*
X47742538Y62117238D01*
X47630620Y62209087D01*
X47502933Y62277337D01*
X47364385Y62319365D01*
X47359702Y62319826D01*
X47318932Y62396101D01*
X47139608Y62614608D01*
X46921101Y62793932D01*
X46788142Y62865000D01*
X46921101Y62936068D01*
X47139608Y63115392D01*
X47318932Y63333899D01*
X47452182Y63583192D01*
X47534236Y63853691D01*
X47561943Y64135000D01*
X47534236Y64416309D01*
X47452182Y64686808D01*
X47318932Y64936101D01*
X47237768Y65035000D01*
X56246928Y65035000D01*
X56250000Y64420750D01*
X56408750Y64262000D01*
X57658000Y64262000D01*
X57658000Y65511250D01*
X57912000Y65511250D01*
X57912000Y64262000D01*
X59161250Y64262000D01*
X59320000Y64420750D01*
X59323072Y65035000D01*
X59310812Y65159482D01*
X59274502Y65279180D01*
X59215537Y65389494D01*
X59136185Y65486185D01*
X59039494Y65565537D01*
X58929180Y65624502D01*
X58809482Y65660812D01*
X58685000Y65673072D01*
X58070750Y65670000D01*
X57912000Y65511250D01*
X57658000Y65511250D01*
X57499250Y65670000D01*
X56885000Y65673072D01*
X56760518Y65660812D01*
X56640820Y65624502D01*
X56530506Y65565537D01*
X56433815Y65486185D01*
X56354463Y65389494D01*
X56295498Y65279180D01*
X56259188Y65159482D01*
X56246928Y65035000D01*
X47237768Y65035000D01*
X47139608Y65154608D01*
X46921101Y65333932D01*
X46788142Y65405000D01*
X46921101Y65476068D01*
X47139608Y65655392D01*
X47318932Y65873899D01*
X47452182Y66123192D01*
X47534236Y66393691D01*
X47561943Y66675000D01*
X47534236Y66956309D01*
X47452182Y67226808D01*
X47318932Y67476101D01*
X47139608Y67694608D01*
X46921101Y67873932D01*
X46788142Y67945000D01*
X46921101Y68016068D01*
X47139608Y68195392D01*
X47318932Y68413899D01*
X47452182Y68663192D01*
X47534236Y68933691D01*
X47561943Y69215000D01*
X47548023Y69356335D01*
X48730000Y69356335D01*
X48730000Y69073665D01*
X48785147Y68796426D01*
X48893320Y68535273D01*
X49050363Y68300241D01*
X49250241Y68100363D01*
X49482759Y67945000D01*
X49250241Y67789637D01*
X49050363Y67589759D01*
X48893320Y67354727D01*
X48785147Y67093574D01*
X48730000Y66816335D01*
X48730000Y66533665D01*
X48785147Y66256426D01*
X48893320Y65995273D01*
X49050363Y65760241D01*
X49250241Y65560363D01*
X49485273Y65403320D01*
X49746426Y65295147D01*
X50023665Y65240000D01*
X50306335Y65240000D01*
X50583574Y65295147D01*
X50844727Y65403320D01*
X51079759Y65560363D01*
X51279637Y65760241D01*
X51436680Y65995273D01*
X51544853Y66256426D01*
X51600000Y66533665D01*
X51600000Y66816335D01*
X51544853Y67093574D01*
X51436680Y67354727D01*
X51279637Y67589759D01*
X51079759Y67789637D01*
X50847241Y67945000D01*
X51079759Y68100363D01*
X51279637Y68300241D01*
X51436680Y68535273D01*
X51544853Y68796426D01*
X51600000Y69073665D01*
X51600000Y69356335D01*
X51544853Y69633574D01*
X51436680Y69894727D01*
X51279637Y70129759D01*
X51079759Y70329637D01*
X50844727Y70486680D01*
X50583574Y70594853D01*
X50306335Y70650000D01*
X50023665Y70650000D01*
X49746426Y70594853D01*
X49485273Y70486680D01*
X49250241Y70329637D01*
X49050363Y70129759D01*
X48893320Y69894727D01*
X48785147Y69633574D01*
X48730000Y69356335D01*
X47548023Y69356335D01*
X47534236Y69496309D01*
X47452182Y69766808D01*
X47318932Y70016101D01*
X47139608Y70234608D01*
X46921101Y70413932D01*
X46788142Y70485000D01*
X46921101Y70556068D01*
X47139608Y70735392D01*
X47318932Y70953899D01*
X47452182Y71203192D01*
X47534236Y71473691D01*
X47561943Y71755000D01*
X47534236Y72036309D01*
X47452182Y72306808D01*
X47318932Y72556101D01*
X47139608Y72774608D01*
X46921101Y72953932D01*
X46788142Y73025000D01*
X46921101Y73096068D01*
X47139608Y73275392D01*
X47237767Y73395000D01*
X56246928Y73395000D01*
X56259188Y73270518D01*
X56295498Y73150820D01*
X56354463Y73040506D01*
X56433815Y72943815D01*
X56530506Y72864463D01*
X56640820Y72805498D01*
X56760518Y72769188D01*
X56885000Y72756928D01*
X57499250Y72760000D01*
X57658000Y72918750D01*
X57658000Y74168000D01*
X57912000Y74168000D01*
X57912000Y72918750D01*
X58070750Y72760000D01*
X58685000Y72756928D01*
X58809482Y72769188D01*
X58929180Y72805498D01*
X59039494Y72864463D01*
X59136185Y72943815D01*
X59215537Y73040506D01*
X59274502Y73150820D01*
X59310812Y73270518D01*
X59323072Y73395000D01*
X59320000Y74009250D01*
X59161250Y74168000D01*
X57912000Y74168000D01*
X57658000Y74168000D01*
X56408750Y74168000D01*
X56250000Y74009250D01*
X56246928Y73395000D01*
X47237767Y73395000D01*
X47318932Y73493899D01*
X47452182Y73743192D01*
X47534236Y74013691D01*
X47561943Y74295000D01*
X47534236Y74576309D01*
X47452182Y74846808D01*
X47318932Y75096101D01*
X47237768Y75195000D01*
X56246928Y75195000D01*
X56250000Y74580750D01*
X56408750Y74422000D01*
X57658000Y74422000D01*
X57658000Y74442000D01*
X57912000Y74442000D01*
X57912000Y74422000D01*
X59161250Y74422000D01*
X59320000Y74580750D01*
X59323072Y75195000D01*
X59310812Y75319482D01*
X59274502Y75439180D01*
X59215537Y75549494D01*
X59136185Y75646185D01*
X59039494Y75725537D01*
X58929180Y75784502D01*
X58910873Y75790056D01*
X58977312Y75856495D01*
X59145299Y76107905D01*
X59261011Y76387257D01*
X59320000Y76683816D01*
X59320000Y76986184D01*
X59261011Y77282743D01*
X59145299Y77562095D01*
X58977312Y77813505D01*
X58763505Y78027312D01*
X58512095Y78195299D01*
X58232743Y78311011D01*
X57936184Y78370000D01*
X57633816Y78370000D01*
X57337257Y78311011D01*
X57057905Y78195299D01*
X56806495Y78027312D01*
X56592688Y77813505D01*
X56424701Y77562095D01*
X56308989Y77282743D01*
X56250000Y76986184D01*
X56250000Y76683816D01*
X56308989Y76387257D01*
X56424701Y76107905D01*
X56592688Y75856495D01*
X56659127Y75790056D01*
X56640820Y75784502D01*
X56530506Y75725537D01*
X56433815Y75646185D01*
X56354463Y75549494D01*
X56295498Y75439180D01*
X56259188Y75319482D01*
X56246928Y75195000D01*
X47237768Y75195000D01*
X47139608Y75314608D01*
X46921101Y75493932D01*
X46788142Y75565000D01*
X46921101Y75636068D01*
X47139608Y75815392D01*
X47318932Y76033899D01*
X47452182Y76283192D01*
X47534236Y76553691D01*
X47561943Y76835000D01*
X47534236Y77116309D01*
X47452182Y77386808D01*
X47318932Y77636101D01*
X47139608Y77854608D01*
X46921101Y78033932D01*
X46788142Y78105000D01*
X46921101Y78176068D01*
X47139608Y78355392D01*
X47318932Y78573899D01*
X47452182Y78823192D01*
X47534236Y79093691D01*
X47561943Y79375000D01*
X47548023Y79516335D01*
X48730000Y79516335D01*
X48730000Y79233665D01*
X48785147Y78956426D01*
X48893320Y78695273D01*
X49050363Y78460241D01*
X49250241Y78260363D01*
X49485273Y78103320D01*
X49746426Y77995147D01*
X50023665Y77940000D01*
X50306335Y77940000D01*
X50583574Y77995147D01*
X50844727Y78103320D01*
X51079759Y78260363D01*
X51279637Y78460241D01*
X51436680Y78695273D01*
X51544853Y78956426D01*
X51600000Y79233665D01*
X51600000Y79516335D01*
X51544853Y79793574D01*
X51436680Y80054727D01*
X51279637Y80289759D01*
X51079759Y80489637D01*
X50844727Y80646680D01*
X50583574Y80754853D01*
X50306335Y80810000D01*
X50023665Y80810000D01*
X49746426Y80754853D01*
X49485273Y80646680D01*
X49250241Y80489637D01*
X49050363Y80289759D01*
X48893320Y80054727D01*
X48785147Y79793574D01*
X48730000Y79516335D01*
X47548023Y79516335D01*
X47534236Y79656309D01*
X47452182Y79926808D01*
X47318932Y80176101D01*
X47139608Y80394608D01*
X46921101Y80573932D01*
X46788142Y80645000D01*
X46921101Y80716068D01*
X47139608Y80895392D01*
X47318932Y81113899D01*
X47359702Y81190174D01*
X47364385Y81190635D01*
X47502933Y81232663D01*
X47630620Y81300913D01*
X47742538Y81392762D01*
X47765559Y81420813D01*
X48114792Y81770046D01*
X48142837Y81793062D01*
X48234687Y81904980D01*
X48302937Y82032666D01*
X48344965Y82171215D01*
X48359156Y82315300D01*
X48355600Y82351405D01*
X48355600Y85280595D01*
X48359156Y85316700D01*
X48344965Y85460785D01*
X48333318Y85499180D01*
X48302937Y85599333D01*
X48234687Y85727020D01*
X48142838Y85838938D01*
X48114793Y85861954D01*
X47756619Y86220128D01*
X55265000Y86220128D01*
X55265000Y85779872D01*
X55350890Y85348075D01*
X55519369Y84941331D01*
X55763962Y84575271D01*
X56075271Y84263962D01*
X56441331Y84019369D01*
X56848075Y83850890D01*
X57279872Y83765000D01*
X57720128Y83765000D01*
X58151925Y83850890D01*
X58558669Y84019369D01*
X58924729Y84263962D01*
X59236038Y84575271D01*
X59480631Y84941331D01*
X59649110Y85348075D01*
X59735000Y85779872D01*
X59735000Y86220128D01*
X59649110Y86651925D01*
X59480631Y87058669D01*
X59236038Y87424729D01*
X58924729Y87736038D01*
X58558669Y87980631D01*
X58151925Y88149110D01*
X57720128Y88235000D01*
X57279872Y88235000D01*
X56848075Y88149110D01*
X56441331Y87980631D01*
X56075271Y87736038D01*
X55763962Y87424729D01*
X55519369Y87058669D01*
X55350890Y86651925D01*
X55265000Y86220128D01*
X47756619Y86220128D01*
X44349859Y89626887D01*
X44326838Y89654938D01*
X44214920Y89746787D01*
X44087233Y89815037D01*
X43948685Y89857065D01*
X43840705Y89867700D01*
X43804600Y89871256D01*
X43768495Y89867700D01*
X34499494Y89867700D01*
X34463399Y89871255D01*
X34427304Y89867700D01*
X34427295Y89867700D01*
X34319315Y89857065D01*
X34180767Y89815037D01*
X34053080Y89746787D01*
X33941162Y89654938D01*
X33918146Y89626893D01*
X18517716Y74226462D01*
X18460990Y74363411D01*
X18298475Y74606632D01*
X18091632Y74813475D01*
X17917240Y74930000D01*
X18091632Y75046525D01*
X18298475Y75253368D01*
X18460990Y75496589D01*
X18572932Y75766842D01*
X18630000Y76053740D01*
X18630000Y76346260D01*
X18572932Y76633158D01*
X18460990Y76903411D01*
X18298475Y77146632D01*
X18091632Y77353475D01*
X17848411Y77515990D01*
X17578158Y77627932D01*
X17291260Y77685000D01*
X16998740Y77685000D01*
X16711842Y77627932D01*
X16441589Y77515990D01*
X16198368Y77353475D01*
X16183320Y77338427D01*
X15667558Y77854188D01*
X15644538Y77882238D01*
X15532620Y77974087D01*
X15404933Y78042337D01*
X15266385Y78084365D01*
X15158405Y78095000D01*
X15122300Y78098556D01*
X15086195Y78095000D01*
X11871405Y78095000D01*
X11835300Y78098556D01*
X11691215Y78084365D01*
X11552666Y78042337D01*
X11424980Y77974087D01*
X11313062Y77882238D01*
X11290046Y77854193D01*
X10630480Y77194627D01*
X10471632Y77353475D01*
X10228411Y77515990D01*
X9958158Y77627932D01*
X9671260Y77685000D01*
X9378740Y77685000D01*
X9091842Y77627932D01*
X8821589Y77515990D01*
X8578368Y77353475D01*
X8371525Y77146632D01*
X8253900Y76970594D01*
X8082588Y77200269D01*
X7866355Y77395178D01*
X7616252Y77544157D01*
X7341891Y77641481D01*
X7112000Y77520814D01*
X7112000Y76327000D01*
X7132000Y76327000D01*
X7132000Y76073000D01*
X7112000Y76073000D01*
X7112000Y73787000D01*
X7132000Y73787000D01*
X7132000Y73533000D01*
X7112000Y73533000D01*
X7112000Y73513000D01*
X6858000Y73513000D01*
X6858000Y73533000D01*
X5664845Y73533000D01*
X5543524Y73303110D01*
X5588175Y73155901D01*
X5713359Y72893080D01*
X5887412Y72659731D01*
X6103645Y72464822D01*
X6220534Y72395195D01*
X6038368Y72273475D01*
X5831525Y72066632D01*
X5669010Y71823411D01*
X5557068Y71553158D01*
X5500000Y71266260D01*
X660000Y71266260D01*
X660000Y75843110D01*
X5543524Y75843110D01*
X5588175Y75695901D01*
X5713359Y75433080D01*
X5887412Y75199731D01*
X6103645Y75004822D01*
X6229255Y74930000D01*
X6103645Y74855178D01*
X5887412Y74660269D01*
X5713359Y74426920D01*
X5588175Y74164099D01*
X5543524Y74016890D01*
X5664845Y73787000D01*
X6858000Y73787000D01*
X6858000Y76073000D01*
X5664845Y76073000D01*
X5543524Y75843110D01*
X660000Y75843110D01*
X660000Y76556890D01*
X5543524Y76556890D01*
X5664845Y76327000D01*
X6858000Y76327000D01*
X6858000Y77520814D01*
X6628109Y77641481D01*
X6353748Y77544157D01*
X6103645Y77395178D01*
X5887412Y77200269D01*
X5713359Y76966920D01*
X5588175Y76704099D01*
X5543524Y76556890D01*
X660000Y76556890D01*
X660000Y86220128D01*
X2765000Y86220128D01*
X2765000Y85779872D01*
X2850890Y85348075D01*
X3019369Y84941331D01*
X3263962Y84575271D01*
X3575271Y84263962D01*
X3941331Y84019369D01*
X4348075Y83850890D01*
X4779872Y83765000D01*
X5220128Y83765000D01*
X5651925Y83850890D01*
X6058669Y84019369D01*
X6424729Y84263962D01*
X6736038Y84575271D01*
X6980631Y84941331D01*
X7149110Y85348075D01*
X7235000Y85779872D01*
X7235000Y86220128D01*
X7149110Y86651925D01*
X6980631Y87058669D01*
X6736038Y87424729D01*
X6424729Y87736038D01*
X6058669Y87980631D01*
X5651925Y88149110D01*
X5220128Y88235000D01*
X4779872Y88235000D01*
X4348075Y88149110D01*
X3941331Y87980631D01*
X3575271Y87736038D01*
X3263962Y87424729D01*
X3019369Y87058669D01*
X2850890Y86651925D01*
X2765000Y86220128D01*
X660000Y86220128D01*
X660000Y90340000D01*
X61840001Y90340000D01*
X61840000Y660000D01*
G37*
G04 #@! TD.AperFunction*
D22*
X28394446Y12205807D02*
X28417462Y12177762D01*
X28529380Y12085913D01*
X28657067Y12017663D01*
X28795615Y11975635D01*
X28800298Y11975174D01*
X28841068Y11898899D01*
X29020392Y11680392D01*
X29238899Y11501068D01*
X29366741Y11432735D01*
X29137161Y11282601D01*
X28935500Y11084895D01*
X28776285Y10851646D01*
X28665633Y10591818D01*
X28648096Y10509039D01*
X28770085Y10287000D01*
X30313000Y10287000D01*
X30313000Y10307000D01*
X30567000Y10307000D01*
X30567000Y10287000D01*
X30587000Y10287000D01*
X30587000Y10033000D01*
X30567000Y10033000D01*
X30567000Y10013000D01*
X30313000Y10013000D01*
X30313000Y10033000D01*
X28770085Y10033000D01*
X28648096Y9810961D01*
X28665633Y9728182D01*
X28776285Y9468354D01*
X28852090Y9357300D01*
X25458868Y9357300D01*
X19014746Y15801421D01*
X18988591Y15833291D01*
X18861446Y15937636D01*
X18716387Y16015172D01*
X18633072Y16040445D01*
X18633072Y16090000D01*
X18620812Y16214482D01*
X18584502Y16334180D01*
X18525537Y16444494D01*
X18446185Y16541185D01*
X18349494Y16620537D01*
X18239180Y16679502D01*
X18166620Y16701513D01*
X18298475Y16833368D01*
X18460990Y17076589D01*
X18572932Y17346842D01*
X18630000Y17633740D01*
X18630000Y17926260D01*
X18572932Y18213158D01*
X18460990Y18483411D01*
X18298475Y18726632D01*
X18091632Y18933475D01*
X17917240Y19050000D01*
X18091632Y19166525D01*
X18298475Y19373368D01*
X18460990Y19616589D01*
X18572932Y19886842D01*
X18630000Y20173740D01*
X18630000Y20466260D01*
X18572932Y20753158D01*
X18460990Y21023411D01*
X18298475Y21266632D01*
X18091632Y21473475D01*
X17917240Y21590000D01*
X18091632Y21706525D01*
X18298475Y21913368D01*
X18439883Y22125000D01*
X18475254Y22125000D01*
X28394446Y12205807D01*
G04 #@! TA.AperFunction,Conductor*
D23*
G36*
X28394446Y12205807D02*
G01*
X28417462Y12177762D01*
X28529380Y12085913D01*
X28657067Y12017663D01*
X28795615Y11975635D01*
X28800298Y11975174D01*
X28841068Y11898899D01*
X29020392Y11680392D01*
X29238899Y11501068D01*
X29366741Y11432735D01*
X29137161Y11282601D01*
X28935500Y11084895D01*
X28776285Y10851646D01*
X28665633Y10591818D01*
X28648096Y10509039D01*
X28770085Y10287000D01*
X30313000Y10287000D01*
X30313000Y10307000D01*
X30567000Y10307000D01*
X30567000Y10287000D01*
X30587000Y10287000D01*
X30587000Y10033000D01*
X30567000Y10033000D01*
X30567000Y10013000D01*
X30313000Y10013000D01*
X30313000Y10033000D01*
X28770085Y10033000D01*
X28648096Y9810961D01*
X28665633Y9728182D01*
X28776285Y9468354D01*
X28852090Y9357300D01*
X25458868Y9357300D01*
X19014746Y15801421D01*
X18988591Y15833291D01*
X18861446Y15937636D01*
X18716387Y16015172D01*
X18633072Y16040445D01*
X18633072Y16090000D01*
X18620812Y16214482D01*
X18584502Y16334180D01*
X18525537Y16444494D01*
X18446185Y16541185D01*
X18349494Y16620537D01*
X18239180Y16679502D01*
X18166620Y16701513D01*
X18298475Y16833368D01*
X18460990Y17076589D01*
X18572932Y17346842D01*
X18630000Y17633740D01*
X18630000Y17926260D01*
X18572932Y18213158D01*
X18460990Y18483411D01*
X18298475Y18726632D01*
X18091632Y18933475D01*
X17917240Y19050000D01*
X18091632Y19166525D01*
X18298475Y19373368D01*
X18460990Y19616589D01*
X18572932Y19886842D01*
X18630000Y20173740D01*
X18630000Y20466260D01*
X18572932Y20753158D01*
X18460990Y21023411D01*
X18298475Y21266632D01*
X18091632Y21473475D01*
X17917240Y21590000D01*
X18091632Y21706525D01*
X18298475Y21913368D01*
X18439883Y22125000D01*
X18475254Y22125000D01*
X28394446Y12205807D01*
G37*
G04 #@! TD.AperFunction*
D22*
X40055764Y22578691D02*
X40137818Y22308192D01*
X40271068Y22058899D01*
X40450392Y21840392D01*
X40668899Y21661068D01*
X40801858Y21590000D01*
X40668899Y21518932D01*
X40450392Y21339608D01*
X40271068Y21121101D01*
X40137818Y20871808D01*
X40055764Y20601309D01*
X40028057Y20320000D01*
X40055764Y20038691D01*
X40137818Y19768192D01*
X40271068Y19518899D01*
X40450392Y19300392D01*
X40668899Y19121068D01*
X40801858Y19050000D01*
X40668899Y18978932D01*
X40450392Y18799608D01*
X40271068Y18581101D01*
X40137818Y18331808D01*
X40055764Y18061309D01*
X40028057Y17780000D01*
X40055764Y17498691D01*
X40137818Y17228192D01*
X40271068Y16978899D01*
X40450392Y16760392D01*
X40668899Y16581068D01*
X40801858Y16510000D01*
X40668899Y16438932D01*
X40450392Y16259608D01*
X40271068Y16041101D01*
X40137818Y15791808D01*
X40055764Y15521309D01*
X40028057Y15240000D01*
X40055764Y14958691D01*
X40137818Y14688192D01*
X40271068Y14438899D01*
X40450392Y14220392D01*
X40668899Y14041068D01*
X40801858Y13970000D01*
X40668899Y13898932D01*
X40450392Y13719608D01*
X40271068Y13501101D01*
X40137818Y13251808D01*
X40055764Y12981309D01*
X40028057Y12700000D01*
X40055764Y12418691D01*
X40137818Y12148192D01*
X40271068Y11898899D01*
X40450392Y11680392D01*
X40668899Y11501068D01*
X40801858Y11430000D01*
X40668899Y11358932D01*
X40450392Y11179608D01*
X40271068Y10961101D01*
X40230298Y10884826D01*
X40225615Y10884365D01*
X40087067Y10842337D01*
X39959380Y10774087D01*
X39847462Y10682238D01*
X39824446Y10654193D01*
X38960154Y9789900D01*
X36037442Y9789900D01*
X36041904Y9810961D01*
X35919915Y10033000D01*
X34377000Y10033000D01*
X34377000Y10013000D01*
X34123000Y10013000D01*
X34123000Y10033000D01*
X34103000Y10033000D01*
X34103000Y10287000D01*
X34123000Y10287000D01*
X34123000Y10307000D01*
X34377000Y10307000D01*
X34377000Y10287000D01*
X35919915Y10287000D01*
X36041904Y10509039D01*
X36024367Y10591818D01*
X35913715Y10851646D01*
X35754500Y11084895D01*
X35552839Y11282601D01*
X35323259Y11432735D01*
X35451101Y11501068D01*
X35669608Y11680392D01*
X35848932Y11898899D01*
X35982182Y12148192D01*
X36064236Y12418691D01*
X36091943Y12700000D01*
X36064236Y12981309D01*
X35982182Y13251808D01*
X35848932Y13501101D01*
X35669608Y13719608D01*
X35451101Y13898932D01*
X35318142Y13970000D01*
X35451101Y14041068D01*
X35669608Y14220392D01*
X35848932Y14438899D01*
X35982182Y14688192D01*
X36064236Y14958691D01*
X36091943Y15240000D01*
X36064236Y15521309D01*
X35982182Y15791808D01*
X35848932Y16041101D01*
X35746887Y16165443D01*
X35751459Y16171013D01*
X39793997Y20213550D01*
X39822037Y20236562D01*
X39845050Y20264603D01*
X39845053Y20264606D01*
X39913887Y20348480D01*
X39982137Y20476166D01*
X40024165Y20614715D01*
X40038356Y20758800D01*
X40034800Y20794905D01*
X40034800Y22791538D01*
X40055764Y22578691D01*
G04 #@! TA.AperFunction,Conductor*
D23*
G36*
X40055764Y22578691D02*
G01*
X40137818Y22308192D01*
X40271068Y22058899D01*
X40450392Y21840392D01*
X40668899Y21661068D01*
X40801858Y21590000D01*
X40668899Y21518932D01*
X40450392Y21339608D01*
X40271068Y21121101D01*
X40137818Y20871808D01*
X40055764Y20601309D01*
X40028057Y20320000D01*
X40055764Y20038691D01*
X40137818Y19768192D01*
X40271068Y19518899D01*
X40450392Y19300392D01*
X40668899Y19121068D01*
X40801858Y19050000D01*
X40668899Y18978932D01*
X40450392Y18799608D01*
X40271068Y18581101D01*
X40137818Y18331808D01*
X40055764Y18061309D01*
X40028057Y17780000D01*
X40055764Y17498691D01*
X40137818Y17228192D01*
X40271068Y16978899D01*
X40450392Y16760392D01*
X40668899Y16581068D01*
X40801858Y16510000D01*
X40668899Y16438932D01*
X40450392Y16259608D01*
X40271068Y16041101D01*
X40137818Y15791808D01*
X40055764Y15521309D01*
X40028057Y15240000D01*
X40055764Y14958691D01*
X40137818Y14688192D01*
X40271068Y14438899D01*
X40450392Y14220392D01*
X40668899Y14041068D01*
X40801858Y13970000D01*
X40668899Y13898932D01*
X40450392Y13719608D01*
X40271068Y13501101D01*
X40137818Y13251808D01*
X40055764Y12981309D01*
X40028057Y12700000D01*
X40055764Y12418691D01*
X40137818Y12148192D01*
X40271068Y11898899D01*
X40450392Y11680392D01*
X40668899Y11501068D01*
X40801858Y11430000D01*
X40668899Y11358932D01*
X40450392Y11179608D01*
X40271068Y10961101D01*
X40230298Y10884826D01*
X40225615Y10884365D01*
X40087067Y10842337D01*
X39959380Y10774087D01*
X39847462Y10682238D01*
X39824446Y10654193D01*
X38960154Y9789900D01*
X36037442Y9789900D01*
X36041904Y9810961D01*
X35919915Y10033000D01*
X34377000Y10033000D01*
X34377000Y10013000D01*
X34123000Y10013000D01*
X34123000Y10033000D01*
X34103000Y10033000D01*
X34103000Y10287000D01*
X34123000Y10287000D01*
X34123000Y10307000D01*
X34377000Y10307000D01*
X34377000Y10287000D01*
X35919915Y10287000D01*
X36041904Y10509039D01*
X36024367Y10591818D01*
X35913715Y10851646D01*
X35754500Y11084895D01*
X35552839Y11282601D01*
X35323259Y11432735D01*
X35451101Y11501068D01*
X35669608Y11680392D01*
X35848932Y11898899D01*
X35982182Y12148192D01*
X36064236Y12418691D01*
X36091943Y12700000D01*
X36064236Y12981309D01*
X35982182Y13251808D01*
X35848932Y13501101D01*
X35669608Y13719608D01*
X35451101Y13898932D01*
X35318142Y13970000D01*
X35451101Y14041068D01*
X35669608Y14220392D01*
X35848932Y14438899D01*
X35982182Y14688192D01*
X36064236Y14958691D01*
X36091943Y15240000D01*
X36064236Y15521309D01*
X35982182Y15791808D01*
X35848932Y16041101D01*
X35746887Y16165443D01*
X35751459Y16171013D01*
X39793997Y20213550D01*
X39822037Y20236562D01*
X39845050Y20264603D01*
X39845053Y20264606D01*
X39913887Y20348480D01*
X39982137Y20476166D01*
X40024165Y20614715D01*
X40038356Y20758800D01*
X40034800Y20794905D01*
X40034800Y22791538D01*
X40055764Y22578691D01*
G37*
G04 #@! TD.AperFunction*
D22*
X40055764Y30198691D02*
X40137818Y29928192D01*
X40271068Y29678899D01*
X40450392Y29460392D01*
X40668899Y29281068D01*
X40796741Y29212735D01*
X40567161Y29062601D01*
X40365500Y28864895D01*
X40206285Y28631646D01*
X40095633Y28371818D01*
X40078096Y28289039D01*
X40200085Y28067000D01*
X41743000Y28067000D01*
X41743000Y28087000D01*
X41997000Y28087000D01*
X41997000Y28067000D01*
X42017000Y28067000D01*
X42017000Y27813000D01*
X41997000Y27813000D01*
X41997000Y27793000D01*
X41743000Y27793000D01*
X41743000Y27813000D01*
X40200085Y27813000D01*
X40078096Y27590961D01*
X40095633Y27508182D01*
X40206285Y27248354D01*
X40365500Y27015105D01*
X40567161Y26817399D01*
X40796741Y26667265D01*
X40668899Y26598932D01*
X40450392Y26419608D01*
X40271068Y26201101D01*
X40137818Y25951808D01*
X40055764Y25681309D01*
X40034800Y25468462D01*
X40034800Y30411538D01*
X40055764Y30198691D01*
G04 #@! TA.AperFunction,Conductor*
D23*
G36*
X40055764Y30198691D02*
G01*
X40137818Y29928192D01*
X40271068Y29678899D01*
X40450392Y29460392D01*
X40668899Y29281068D01*
X40796741Y29212735D01*
X40567161Y29062601D01*
X40365500Y28864895D01*
X40206285Y28631646D01*
X40095633Y28371818D01*
X40078096Y28289039D01*
X40200085Y28067000D01*
X41743000Y28067000D01*
X41743000Y28087000D01*
X41997000Y28087000D01*
X41997000Y28067000D01*
X42017000Y28067000D01*
X42017000Y27813000D01*
X41997000Y27813000D01*
X41997000Y27793000D01*
X41743000Y27793000D01*
X41743000Y27813000D01*
X40200085Y27813000D01*
X40078096Y27590961D01*
X40095633Y27508182D01*
X40206285Y27248354D01*
X40365500Y27015105D01*
X40567161Y26817399D01*
X40796741Y26667265D01*
X40668899Y26598932D01*
X40450392Y26419608D01*
X40271068Y26201101D01*
X40137818Y25951808D01*
X40055764Y25681309D01*
X40034800Y25468462D01*
X40034800Y30411538D01*
X40055764Y30198691D01*
G37*
G04 #@! TD.AperFunction*
D22*
X45807000Y28067000D02*
X45827000Y28067000D01*
X45827000Y27813000D01*
X45807000Y27813000D01*
X45807000Y27793000D01*
X45553000Y27793000D01*
X45553000Y27813000D01*
X45533000Y27813000D01*
X45533000Y28067000D01*
X45553000Y28067000D01*
X45553000Y28087000D01*
X45807000Y28087000D01*
X45807000Y28067000D01*
G04 #@! TA.AperFunction,Conductor*
D23*
G36*
X45807000Y28067000D02*
G01*
X45827000Y28067000D01*
X45827000Y27813000D01*
X45807000Y27813000D01*
X45807000Y27793000D01*
X45553000Y27793000D01*
X45553000Y27813000D01*
X45533000Y27813000D01*
X45533000Y28067000D01*
X45553000Y28067000D01*
X45553000Y28087000D01*
X45807000Y28087000D01*
X45807000Y28067000D01*
G37*
G04 #@! TD.AperFunction*
D22*
X38227000Y56642000D02*
X38247000Y56642000D01*
X38247000Y56388000D01*
X38227000Y56388000D01*
X38227000Y55080000D01*
X38627000Y55080000D01*
X38904514Y55132350D01*
X38915201Y55136653D01*
X38915201Y47735604D01*
X38911426Y47734853D01*
X38650273Y47626680D01*
X38415241Y47469637D01*
X38215363Y47269759D01*
X38081308Y47069131D01*
X38066671Y47096514D01*
X37822702Y47168097D01*
X37009605Y46355000D01*
X37822702Y45541903D01*
X38066671Y45613486D01*
X38080324Y45642341D01*
X38215363Y45440241D01*
X38415241Y45240363D01*
X38650273Y45083320D01*
X38911426Y44975147D01*
X39188665Y44920000D01*
X39471335Y44920000D01*
X39565418Y44938715D01*
X40384642Y44119491D01*
X40271068Y43981101D01*
X40137818Y43731808D01*
X40055764Y43461309D01*
X40028057Y43180000D01*
X40055764Y42898691D01*
X40137818Y42628192D01*
X40271068Y42378899D01*
X40450392Y42160392D01*
X40668899Y41981068D01*
X40801858Y41910000D01*
X40668899Y41838932D01*
X40450392Y41659608D01*
X40271068Y41441101D01*
X40137818Y41191808D01*
X40123258Y41143808D01*
X40063424Y41233355D01*
X39940155Y41356624D01*
X39795205Y41453477D01*
X39634145Y41520190D01*
X39463165Y41554200D01*
X39288835Y41554200D01*
X39117855Y41520190D01*
X38956795Y41453477D01*
X38811845Y41356624D01*
X38688576Y41233355D01*
X38591723Y41088405D01*
X38525010Y40927345D01*
X38507706Y40840353D01*
X37697800Y40030446D01*
X37697800Y44590106D01*
X37701355Y44626201D01*
X37697800Y44662296D01*
X37697800Y44662305D01*
X37687165Y44770285D01*
X37645137Y44908833D01*
X37576887Y45036520D01*
X37531406Y45091938D01*
X37528581Y45095381D01*
X37571514Y45118329D01*
X37643097Y45362298D01*
X36830000Y46175395D01*
X36815858Y46161252D01*
X36636253Y46340857D01*
X36650395Y46355000D01*
X36636253Y46369142D01*
X36815858Y46548747D01*
X36830000Y46534605D01*
X37643097Y47347702D01*
X37571514Y47591671D01*
X37316004Y47712571D01*
X37041816Y47781300D01*
X36759488Y47795217D01*
X36479870Y47753787D01*
X36462200Y47747468D01*
X36462200Y55785389D01*
X36595500Y55590105D01*
X36797161Y55392399D01*
X37033517Y55237834D01*
X37295486Y55132350D01*
X37573000Y55080000D01*
X37973000Y55080000D01*
X37973000Y56388000D01*
X37953000Y56388000D01*
X37953000Y56642000D01*
X37973000Y56642000D01*
X37973000Y56662000D01*
X38227000Y56662000D01*
X38227000Y56642000D01*
G04 #@! TA.AperFunction,Conductor*
D23*
G36*
X38227000Y56642000D02*
G01*
X38247000Y56642000D01*
X38247000Y56388000D01*
X38227000Y56388000D01*
X38227000Y55080000D01*
X38627000Y55080000D01*
X38904514Y55132350D01*
X38915201Y55136653D01*
X38915201Y47735604D01*
X38911426Y47734853D01*
X38650273Y47626680D01*
X38415241Y47469637D01*
X38215363Y47269759D01*
X38081308Y47069131D01*
X38066671Y47096514D01*
X37822702Y47168097D01*
X37009605Y46355000D01*
X37822702Y45541903D01*
X38066671Y45613486D01*
X38080324Y45642341D01*
X38215363Y45440241D01*
X38415241Y45240363D01*
X38650273Y45083320D01*
X38911426Y44975147D01*
X39188665Y44920000D01*
X39471335Y44920000D01*
X39565418Y44938715D01*
X40384642Y44119491D01*
X40271068Y43981101D01*
X40137818Y43731808D01*
X40055764Y43461309D01*
X40028057Y43180000D01*
X40055764Y42898691D01*
X40137818Y42628192D01*
X40271068Y42378899D01*
X40450392Y42160392D01*
X40668899Y41981068D01*
X40801858Y41910000D01*
X40668899Y41838932D01*
X40450392Y41659608D01*
X40271068Y41441101D01*
X40137818Y41191808D01*
X40123258Y41143808D01*
X40063424Y41233355D01*
X39940155Y41356624D01*
X39795205Y41453477D01*
X39634145Y41520190D01*
X39463165Y41554200D01*
X39288835Y41554200D01*
X39117855Y41520190D01*
X38956795Y41453477D01*
X38811845Y41356624D01*
X38688576Y41233355D01*
X38591723Y41088405D01*
X38525010Y40927345D01*
X38507706Y40840353D01*
X37697800Y40030446D01*
X37697800Y44590106D01*
X37701355Y44626201D01*
X37697800Y44662296D01*
X37697800Y44662305D01*
X37687165Y44770285D01*
X37645137Y44908833D01*
X37576887Y45036520D01*
X37531406Y45091938D01*
X37528581Y45095381D01*
X37571514Y45118329D01*
X37643097Y45362298D01*
X36830000Y46175395D01*
X36815858Y46161252D01*
X36636253Y46340857D01*
X36650395Y46355000D01*
X36636253Y46369142D01*
X36815858Y46548747D01*
X36830000Y46534605D01*
X37643097Y47347702D01*
X37571514Y47591671D01*
X37316004Y47712571D01*
X37041816Y47781300D01*
X36759488Y47795217D01*
X36479870Y47753787D01*
X36462200Y47747468D01*
X36462200Y55785389D01*
X36595500Y55590105D01*
X36797161Y55392399D01*
X37033517Y55237834D01*
X37295486Y55132350D01*
X37573000Y55080000D01*
X37973000Y55080000D01*
X37973000Y56388000D01*
X37953000Y56388000D01*
X37953000Y56642000D01*
X37973000Y56642000D01*
X37973000Y56662000D01*
X38227000Y56662000D01*
X38227000Y56642000D01*
G37*
G04 #@! TD.AperFunction*
D22*
X28876546Y62389307D02*
X28899562Y62361262D01*
X28950638Y62319345D01*
X29011480Y62269413D01*
X29139166Y62201163D01*
X29277715Y62159135D01*
X29325118Y62154466D01*
X29407795Y62099223D01*
X29568855Y62032510D01*
X29739835Y61998500D01*
X29914165Y61998500D01*
X29976597Y62010918D01*
X29935764Y61876309D01*
X29908057Y61595000D01*
X29935764Y61313691D01*
X30017818Y61043192D01*
X30151068Y60793899D01*
X30267130Y60652477D01*
X25871804Y56257150D01*
X25799915Y56388000D01*
X24257000Y56388000D01*
X24257000Y55080000D01*
X24657000Y55080000D01*
X24703408Y55088754D01*
X23906054Y54291400D01*
X20923347Y54291400D01*
X19048786Y56165961D01*
X22338096Y56165961D01*
X22355633Y56083182D01*
X22466285Y55823354D01*
X22625500Y55590105D01*
X22827161Y55392399D01*
X23063517Y55237834D01*
X23325486Y55132350D01*
X23603000Y55080000D01*
X24003000Y55080000D01*
X24003000Y56388000D01*
X22460085Y56388000D01*
X22338096Y56165961D01*
X19048786Y56165961D01*
X18840559Y56374188D01*
X18817538Y56402238D01*
X18705620Y56494087D01*
X18577933Y56562337D01*
X18448922Y56601472D01*
X18298475Y56826632D01*
X18296177Y56828930D01*
X22437707Y60970460D01*
X22466285Y60903354D01*
X22625500Y60670105D01*
X22827161Y60472399D01*
X23056741Y60322265D01*
X22928899Y60253932D01*
X22710392Y60074608D01*
X22531068Y59856101D01*
X22397818Y59606808D01*
X22315764Y59336309D01*
X22288057Y59055000D01*
X22315764Y58773691D01*
X22397818Y58503192D01*
X22531068Y58253899D01*
X22710392Y58035392D01*
X22928899Y57856068D01*
X23056741Y57787735D01*
X22827161Y57637601D01*
X22625500Y57439895D01*
X22466285Y57206646D01*
X22355633Y56946818D01*
X22338096Y56864039D01*
X22460085Y56642000D01*
X24003000Y56642000D01*
X24003000Y56662000D01*
X24257000Y56662000D01*
X24257000Y56642000D01*
X25799915Y56642000D01*
X25921904Y56864039D01*
X25904367Y56946818D01*
X25793715Y57206646D01*
X25634500Y57439895D01*
X25432839Y57637601D01*
X25203259Y57787735D01*
X25331101Y57856068D01*
X25549608Y58035392D01*
X25728932Y58253899D01*
X25862182Y58503192D01*
X25944236Y58773691D01*
X25971943Y59055000D01*
X25944236Y59336309D01*
X25862182Y59606808D01*
X25728932Y59856101D01*
X25549608Y60074608D01*
X25331101Y60253932D01*
X25203259Y60322265D01*
X25432839Y60472399D01*
X25634500Y60670105D01*
X25793715Y60903354D01*
X25904367Y61163182D01*
X25921904Y61245961D01*
X25799915Y61468000D01*
X24257000Y61468000D01*
X24257000Y61448000D01*
X24003000Y61448000D01*
X24003000Y61468000D01*
X23983000Y61468000D01*
X23983000Y61722000D01*
X24003000Y61722000D01*
X24003000Y61742000D01*
X24257000Y61742000D01*
X24257000Y61722000D01*
X25799915Y61722000D01*
X25921904Y61944039D01*
X25904367Y62026818D01*
X25793715Y62286646D01*
X25634500Y62519895D01*
X25432839Y62717601D01*
X25203259Y62867735D01*
X25331101Y62936068D01*
X25549608Y63115392D01*
X25728932Y63333899D01*
X25862182Y63583192D01*
X25944236Y63853691D01*
X25971943Y64135000D01*
X25944236Y64416309D01*
X25862182Y64686808D01*
X25728932Y64936101D01*
X25549608Y65154608D01*
X25331101Y65333932D01*
X25198142Y65405000D01*
X25331101Y65476068D01*
X25549608Y65655392D01*
X25577038Y65688816D01*
X28876546Y62389307D01*
G04 #@! TA.AperFunction,Conductor*
D23*
G36*
X28876546Y62389307D02*
G01*
X28899562Y62361262D01*
X28950638Y62319345D01*
X29011480Y62269413D01*
X29139166Y62201163D01*
X29277715Y62159135D01*
X29325118Y62154466D01*
X29407795Y62099223D01*
X29568855Y62032510D01*
X29739835Y61998500D01*
X29914165Y61998500D01*
X29976597Y62010918D01*
X29935764Y61876309D01*
X29908057Y61595000D01*
X29935764Y61313691D01*
X30017818Y61043192D01*
X30151068Y60793899D01*
X30267130Y60652477D01*
X25871804Y56257150D01*
X25799915Y56388000D01*
X24257000Y56388000D01*
X24257000Y55080000D01*
X24657000Y55080000D01*
X24703408Y55088754D01*
X23906054Y54291400D01*
X20923347Y54291400D01*
X19048786Y56165961D01*
X22338096Y56165961D01*
X22355633Y56083182D01*
X22466285Y55823354D01*
X22625500Y55590105D01*
X22827161Y55392399D01*
X23063517Y55237834D01*
X23325486Y55132350D01*
X23603000Y55080000D01*
X24003000Y55080000D01*
X24003000Y56388000D01*
X22460085Y56388000D01*
X22338096Y56165961D01*
X19048786Y56165961D01*
X18840559Y56374188D01*
X18817538Y56402238D01*
X18705620Y56494087D01*
X18577933Y56562337D01*
X18448922Y56601472D01*
X18298475Y56826632D01*
X18296177Y56828930D01*
X22437707Y60970460D01*
X22466285Y60903354D01*
X22625500Y60670105D01*
X22827161Y60472399D01*
X23056741Y60322265D01*
X22928899Y60253932D01*
X22710392Y60074608D01*
X22531068Y59856101D01*
X22397818Y59606808D01*
X22315764Y59336309D01*
X22288057Y59055000D01*
X22315764Y58773691D01*
X22397818Y58503192D01*
X22531068Y58253899D01*
X22710392Y58035392D01*
X22928899Y57856068D01*
X23056741Y57787735D01*
X22827161Y57637601D01*
X22625500Y57439895D01*
X22466285Y57206646D01*
X22355633Y56946818D01*
X22338096Y56864039D01*
X22460085Y56642000D01*
X24003000Y56642000D01*
X24003000Y56662000D01*
X24257000Y56662000D01*
X24257000Y56642000D01*
X25799915Y56642000D01*
X25921904Y56864039D01*
X25904367Y56946818D01*
X25793715Y57206646D01*
X25634500Y57439895D01*
X25432839Y57637601D01*
X25203259Y57787735D01*
X25331101Y57856068D01*
X25549608Y58035392D01*
X25728932Y58253899D01*
X25862182Y58503192D01*
X25944236Y58773691D01*
X25971943Y59055000D01*
X25944236Y59336309D01*
X25862182Y59606808D01*
X25728932Y59856101D01*
X25549608Y60074608D01*
X25331101Y60253932D01*
X25203259Y60322265D01*
X25432839Y60472399D01*
X25634500Y60670105D01*
X25793715Y60903354D01*
X25904367Y61163182D01*
X25921904Y61245961D01*
X25799915Y61468000D01*
X24257000Y61468000D01*
X24257000Y61448000D01*
X24003000Y61448000D01*
X24003000Y61468000D01*
X23983000Y61468000D01*
X23983000Y61722000D01*
X24003000Y61722000D01*
X24003000Y61742000D01*
X24257000Y61742000D01*
X24257000Y61722000D01*
X25799915Y61722000D01*
X25921904Y61944039D01*
X25904367Y62026818D01*
X25793715Y62286646D01*
X25634500Y62519895D01*
X25432839Y62717601D01*
X25203259Y62867735D01*
X25331101Y62936068D01*
X25549608Y63115392D01*
X25728932Y63333899D01*
X25862182Y63583192D01*
X25944236Y63853691D01*
X25971943Y64135000D01*
X25944236Y64416309D01*
X25862182Y64686808D01*
X25728932Y64936101D01*
X25549608Y65154608D01*
X25331101Y65333932D01*
X25198142Y65405000D01*
X25331101Y65476068D01*
X25549608Y65655392D01*
X25577038Y65688816D01*
X28876546Y62389307D01*
G37*
G04 #@! TD.AperFunction*
D22*
X31877000Y59182000D02*
X31897000Y59182000D01*
X31897000Y58928000D01*
X31877000Y58928000D01*
X31877000Y58908000D01*
X31623000Y58908000D01*
X31623000Y58928000D01*
X31603000Y58928000D01*
X31603000Y59182000D01*
X31623000Y59182000D01*
X31623000Y59202000D01*
X31877000Y59202000D01*
X31877000Y59182000D01*
G04 #@! TA.AperFunction,Conductor*
D23*
G36*
X31877000Y59182000D02*
G01*
X31897000Y59182000D01*
X31897000Y58928000D01*
X31877000Y58928000D01*
X31877000Y58908000D01*
X31623000Y58908000D01*
X31623000Y58928000D01*
X31603000Y58928000D01*
X31603000Y59182000D01*
X31623000Y59182000D01*
X31623000Y59202000D01*
X31877000Y59202000D01*
X31877000Y59182000D01*
G37*
G04 #@! TD.AperFunction*
D22*
X29037646Y67612807D02*
X29060662Y67584762D01*
X29172580Y67492913D01*
X29300267Y67424663D01*
X29438815Y67382635D01*
X29546795Y67372000D01*
X29546804Y67372000D01*
X29582899Y67368445D01*
X29618994Y67372000D01*
X30095425Y67372000D01*
X30017818Y67226808D01*
X29935764Y66956309D01*
X29908057Y66675000D01*
X29935764Y66393691D01*
X30017818Y66123192D01*
X30151068Y65873899D01*
X30330392Y65655392D01*
X30548899Y65476068D01*
X30676741Y65407735D01*
X30447161Y65257601D01*
X30245500Y65059895D01*
X30086285Y64826646D01*
X29975633Y64566818D01*
X29958096Y64484039D01*
X30080085Y64262000D01*
X31623000Y64262000D01*
X31623000Y64282000D01*
X31877000Y64282000D01*
X31877000Y64262000D01*
X31897000Y64262000D01*
X31897000Y64008000D01*
X31877000Y64008000D01*
X31877000Y63988000D01*
X31623000Y63988000D01*
X31623000Y64008000D01*
X30080085Y64008000D01*
X29958096Y63785961D01*
X29963891Y63758609D01*
X29914165Y63768500D01*
X29739835Y63768500D01*
X29603388Y63741359D01*
X26175559Y67169187D01*
X26152538Y67197238D01*
X26040620Y67289087D01*
X25912933Y67357337D01*
X25774385Y67399365D01*
X25769702Y67399826D01*
X25728932Y67476101D01*
X25549608Y67694608D01*
X25331101Y67873932D01*
X25198142Y67945000D01*
X25331101Y68016068D01*
X25549608Y68195392D01*
X25728932Y68413899D01*
X25862182Y68663192D01*
X25944236Y68933691D01*
X25971943Y69215000D01*
X25944236Y69496309D01*
X25917272Y69585200D01*
X27065254Y69585200D01*
X29037646Y67612807D01*
G04 #@! TA.AperFunction,Conductor*
D23*
G36*
X29037646Y67612807D02*
G01*
X29060662Y67584762D01*
X29172580Y67492913D01*
X29300267Y67424663D01*
X29438815Y67382635D01*
X29546795Y67372000D01*
X29546804Y67372000D01*
X29582899Y67368445D01*
X29618994Y67372000D01*
X30095425Y67372000D01*
X30017818Y67226808D01*
X29935764Y66956309D01*
X29908057Y66675000D01*
X29935764Y66393691D01*
X30017818Y66123192D01*
X30151068Y65873899D01*
X30330392Y65655392D01*
X30548899Y65476068D01*
X30676741Y65407735D01*
X30447161Y65257601D01*
X30245500Y65059895D01*
X30086285Y64826646D01*
X29975633Y64566818D01*
X29958096Y64484039D01*
X30080085Y64262000D01*
X31623000Y64262000D01*
X31623000Y64282000D01*
X31877000Y64282000D01*
X31877000Y64262000D01*
X31897000Y64262000D01*
X31897000Y64008000D01*
X31877000Y64008000D01*
X31877000Y63988000D01*
X31623000Y63988000D01*
X31623000Y64008000D01*
X30080085Y64008000D01*
X29958096Y63785961D01*
X29963891Y63758609D01*
X29914165Y63768500D01*
X29739835Y63768500D01*
X29603388Y63741359D01*
X26175559Y67169187D01*
X26152538Y67197238D01*
X26040620Y67289087D01*
X25912933Y67357337D01*
X25774385Y67399365D01*
X25769702Y67399826D01*
X25728932Y67476101D01*
X25549608Y67694608D01*
X25331101Y67873932D01*
X25198142Y67945000D01*
X25331101Y68016068D01*
X25549608Y68195392D01*
X25728932Y68413899D01*
X25862182Y68663192D01*
X25944236Y68933691D01*
X25971943Y69215000D01*
X25944236Y69496309D01*
X25917272Y69585200D01*
X27065254Y69585200D01*
X29037646Y67612807D01*
G37*
G04 #@! TD.AperFunction*
D22*
X36261928Y83655000D02*
X36274188Y83530518D01*
X36310498Y83410820D01*
X36369463Y83300506D01*
X36448815Y83203815D01*
X36545506Y83124463D01*
X36655820Y83065498D01*
X36775518Y83029188D01*
X36793482Y83027419D01*
X36680392Y82934608D01*
X36501068Y82716101D01*
X36367818Y82466808D01*
X36285764Y82196309D01*
X36258057Y81915000D01*
X36285764Y81633691D01*
X36367818Y81363192D01*
X36387432Y81326497D01*
X36320154Y81290536D01*
X36193009Y81186191D01*
X36166861Y81154329D01*
X30522855Y75510322D01*
X30481680Y75609727D01*
X30324637Y75844759D01*
X30124759Y76044637D01*
X29889727Y76201680D01*
X29628574Y76309853D01*
X29351335Y76365000D01*
X29068665Y76365000D01*
X28791426Y76309853D01*
X28530273Y76201680D01*
X28295241Y76044637D01*
X28095363Y75844759D01*
X27961308Y75644131D01*
X27946671Y75671514D01*
X27702702Y75743097D01*
X26889605Y74930000D01*
X27702702Y74116903D01*
X27946671Y74188486D01*
X27960324Y74217341D01*
X28095363Y74015241D01*
X28295241Y73815363D01*
X28530273Y73658320D01*
X28791426Y73550147D01*
X29068665Y73495000D01*
X29351335Y73495000D01*
X29445418Y73513714D01*
X29547267Y73411865D01*
X29573410Y73380010D01*
X29605265Y73353867D01*
X29605270Y73353862D01*
X29605275Y73353858D01*
X30264642Y72694491D01*
X30151068Y72556101D01*
X30017818Y72306808D01*
X29935764Y72036309D01*
X29908057Y71755000D01*
X29935764Y71473691D01*
X30017818Y71203192D01*
X30151068Y70953899D01*
X30330392Y70735392D01*
X30548899Y70556068D01*
X30676741Y70487735D01*
X30447161Y70337601D01*
X30245500Y70139895D01*
X30086285Y69906646D01*
X29975633Y69646818D01*
X29958096Y69564039D01*
X30080085Y69342000D01*
X31623000Y69342000D01*
X31623000Y69362000D01*
X31877000Y69362000D01*
X31877000Y69342000D01*
X31897000Y69342000D01*
X31897000Y69088000D01*
X31877000Y69088000D01*
X31877000Y69068000D01*
X31623000Y69068000D01*
X31623000Y69088000D01*
X30080085Y69088000D01*
X29958096Y68865961D01*
X29963172Y68842000D01*
X29887347Y68842000D01*
X27914958Y70814388D01*
X27891938Y70842438D01*
X27780020Y70934287D01*
X27652333Y71002537D01*
X27513785Y71044565D01*
X27405805Y71055200D01*
X27369700Y71058756D01*
X27333595Y71055200D01*
X25968072Y71055200D01*
X25968072Y72555000D01*
X25955812Y72679482D01*
X25919502Y72799180D01*
X25860537Y72909494D01*
X25781185Y73006185D01*
X25684494Y73085537D01*
X25574180Y73144502D01*
X25454482Y73180812D01*
X25330000Y73193072D01*
X24180918Y73193072D01*
X24925144Y73937298D01*
X25896903Y73937298D01*
X25968486Y73693329D01*
X26223996Y73572429D01*
X26498184Y73503700D01*
X26780512Y73489783D01*
X27060130Y73531213D01*
X27326292Y73626397D01*
X27451514Y73693329D01*
X27523097Y73937298D01*
X26710000Y74750395D01*
X25896903Y73937298D01*
X24925144Y73937298D01*
X25378780Y74390933D01*
X25406397Y74313708D01*
X25473329Y74188486D01*
X25717298Y74116903D01*
X26530395Y74930000D01*
X26516253Y74944142D01*
X26695858Y75123747D01*
X26710000Y75109605D01*
X27523097Y75922702D01*
X27451514Y76166671D01*
X27249910Y76262064D01*
X34707747Y83719900D01*
X36261928Y83719900D01*
X36261928Y83655000D01*
G04 #@! TA.AperFunction,Conductor*
D23*
G36*
X36261928Y83655000D02*
G01*
X36274188Y83530518D01*
X36310498Y83410820D01*
X36369463Y83300506D01*
X36448815Y83203815D01*
X36545506Y83124463D01*
X36655820Y83065498D01*
X36775518Y83029188D01*
X36793482Y83027419D01*
X36680392Y82934608D01*
X36501068Y82716101D01*
X36367818Y82466808D01*
X36285764Y82196309D01*
X36258057Y81915000D01*
X36285764Y81633691D01*
X36367818Y81363192D01*
X36387432Y81326497D01*
X36320154Y81290536D01*
X36193009Y81186191D01*
X36166861Y81154329D01*
X30522855Y75510322D01*
X30481680Y75609727D01*
X30324637Y75844759D01*
X30124759Y76044637D01*
X29889727Y76201680D01*
X29628574Y76309853D01*
X29351335Y76365000D01*
X29068665Y76365000D01*
X28791426Y76309853D01*
X28530273Y76201680D01*
X28295241Y76044637D01*
X28095363Y75844759D01*
X27961308Y75644131D01*
X27946671Y75671514D01*
X27702702Y75743097D01*
X26889605Y74930000D01*
X27702702Y74116903D01*
X27946671Y74188486D01*
X27960324Y74217341D01*
X28095363Y74015241D01*
X28295241Y73815363D01*
X28530273Y73658320D01*
X28791426Y73550147D01*
X29068665Y73495000D01*
X29351335Y73495000D01*
X29445418Y73513714D01*
X29547267Y73411865D01*
X29573410Y73380010D01*
X29605265Y73353867D01*
X29605270Y73353862D01*
X29605275Y73353858D01*
X30264642Y72694491D01*
X30151068Y72556101D01*
X30017818Y72306808D01*
X29935764Y72036309D01*
X29908057Y71755000D01*
X29935764Y71473691D01*
X30017818Y71203192D01*
X30151068Y70953899D01*
X30330392Y70735392D01*
X30548899Y70556068D01*
X30676741Y70487735D01*
X30447161Y70337601D01*
X30245500Y70139895D01*
X30086285Y69906646D01*
X29975633Y69646818D01*
X29958096Y69564039D01*
X30080085Y69342000D01*
X31623000Y69342000D01*
X31623000Y69362000D01*
X31877000Y69362000D01*
X31877000Y69342000D01*
X31897000Y69342000D01*
X31897000Y69088000D01*
X31877000Y69088000D01*
X31877000Y69068000D01*
X31623000Y69068000D01*
X31623000Y69088000D01*
X30080085Y69088000D01*
X29958096Y68865961D01*
X29963172Y68842000D01*
X29887347Y68842000D01*
X27914958Y70814388D01*
X27891938Y70842438D01*
X27780020Y70934287D01*
X27652333Y71002537D01*
X27513785Y71044565D01*
X27405805Y71055200D01*
X27369700Y71058756D01*
X27333595Y71055200D01*
X25968072Y71055200D01*
X25968072Y72555000D01*
X25955812Y72679482D01*
X25919502Y72799180D01*
X25860537Y72909494D01*
X25781185Y73006185D01*
X25684494Y73085537D01*
X25574180Y73144502D01*
X25454482Y73180812D01*
X25330000Y73193072D01*
X24180918Y73193072D01*
X24925144Y73937298D01*
X25896903Y73937298D01*
X25968486Y73693329D01*
X26223996Y73572429D01*
X26498184Y73503700D01*
X26780512Y73489783D01*
X27060130Y73531213D01*
X27326292Y73626397D01*
X27451514Y73693329D01*
X27523097Y73937298D01*
X26710000Y74750395D01*
X25896903Y73937298D01*
X24925144Y73937298D01*
X25378780Y74390933D01*
X25406397Y74313708D01*
X25473329Y74188486D01*
X25717298Y74116903D01*
X26530395Y74930000D01*
X26516253Y74944142D01*
X26695858Y75123747D01*
X26710000Y75109605D01*
X27523097Y75922702D01*
X27451514Y76166671D01*
X27249910Y76262064D01*
X34707747Y83719900D01*
X36261928Y83719900D01*
X36261928Y83655000D01*
G37*
G04 #@! TD.AperFunction*
D22*
X39443329Y88371514D02*
X39322429Y88116004D01*
X39253700Y87841816D01*
X39239783Y87559488D01*
X39281213Y87279870D01*
X39376397Y87013708D01*
X39443329Y86888486D01*
X39687298Y86816903D01*
X40500395Y87630000D01*
X40486253Y87644142D01*
X40665858Y87823747D01*
X40680000Y87809605D01*
X40694143Y87823747D01*
X40873748Y87644142D01*
X40859605Y87630000D01*
X41672702Y86816903D01*
X41916671Y86888486D01*
X41930324Y86917341D01*
X42065363Y86715241D01*
X42265241Y86515363D01*
X42500273Y86358320D01*
X42761426Y86250147D01*
X43038665Y86195000D01*
X43321335Y86195000D01*
X43415418Y86213715D01*
X44234642Y85394491D01*
X44148888Y85290000D01*
X43653318Y85290000D01*
X43612299Y85294040D01*
X43571281Y85290000D01*
X43448611Y85277918D01*
X43291213Y85230172D01*
X43146154Y85152636D01*
X43019009Y85048291D01*
X42992859Y85016427D01*
X39937414Y81960981D01*
X39914236Y82196309D01*
X39832182Y82466808D01*
X39698932Y82716101D01*
X39519608Y82934608D01*
X39406518Y83027419D01*
X39424482Y83029188D01*
X39544180Y83065498D01*
X39654494Y83124463D01*
X39751185Y83203815D01*
X39830537Y83300506D01*
X39889502Y83410820D01*
X39925812Y83530518D01*
X39938072Y83655000D01*
X39938072Y85255000D01*
X39925812Y85379482D01*
X39889502Y85499180D01*
X39830537Y85609494D01*
X39751185Y85706185D01*
X39654494Y85785537D01*
X39544180Y85844502D01*
X39424482Y85880812D01*
X39300000Y85893072D01*
X36900000Y85893072D01*
X36775518Y85880812D01*
X36655820Y85844502D01*
X36545506Y85785537D01*
X36448815Y85706185D01*
X36369463Y85609494D01*
X36310498Y85499180D01*
X36274188Y85379482D01*
X36261928Y85255000D01*
X36261928Y85189900D01*
X34439396Y85189900D01*
X34403299Y85193455D01*
X34367202Y85189900D01*
X34367195Y85189900D01*
X34273432Y85180665D01*
X34259214Y85179265D01*
X34217186Y85166516D01*
X34120667Y85137237D01*
X33992980Y85068987D01*
X33881062Y84977138D01*
X33858046Y84949093D01*
X18353394Y69444440D01*
X18298475Y69526632D01*
X18091632Y69733475D01*
X17917240Y69850000D01*
X18091632Y69966525D01*
X18298475Y70173368D01*
X18460990Y70416589D01*
X18572932Y70686842D01*
X18630000Y70973740D01*
X18630000Y71266260D01*
X18572932Y71553158D01*
X18460990Y71823411D01*
X18353871Y71983725D01*
X33007444Y86637298D01*
X39866903Y86637298D01*
X39938486Y86393329D01*
X40193996Y86272429D01*
X40468184Y86203700D01*
X40750512Y86189783D01*
X41030130Y86231213D01*
X41296292Y86326397D01*
X41421514Y86393329D01*
X41493097Y86637298D01*
X40680000Y87450395D01*
X39866903Y86637298D01*
X33007444Y86637298D01*
X34767847Y88397700D01*
X39532576Y88397700D01*
X39443329Y88371514D01*
G04 #@! TA.AperFunction,Conductor*
D23*
G36*
X39443329Y88371514D02*
G01*
X39322429Y88116004D01*
X39253700Y87841816D01*
X39239783Y87559488D01*
X39281213Y87279870D01*
X39376397Y87013708D01*
X39443329Y86888486D01*
X39687298Y86816903D01*
X40500395Y87630000D01*
X40486253Y87644142D01*
X40665858Y87823747D01*
X40680000Y87809605D01*
X40694143Y87823747D01*
X40873748Y87644142D01*
X40859605Y87630000D01*
X41672702Y86816903D01*
X41916671Y86888486D01*
X41930324Y86917341D01*
X42065363Y86715241D01*
X42265241Y86515363D01*
X42500273Y86358320D01*
X42761426Y86250147D01*
X43038665Y86195000D01*
X43321335Y86195000D01*
X43415418Y86213715D01*
X44234642Y85394491D01*
X44148888Y85290000D01*
X43653318Y85290000D01*
X43612299Y85294040D01*
X43571281Y85290000D01*
X43448611Y85277918D01*
X43291213Y85230172D01*
X43146154Y85152636D01*
X43019009Y85048291D01*
X42992859Y85016427D01*
X39937414Y81960981D01*
X39914236Y82196309D01*
X39832182Y82466808D01*
X39698932Y82716101D01*
X39519608Y82934608D01*
X39406518Y83027419D01*
X39424482Y83029188D01*
X39544180Y83065498D01*
X39654494Y83124463D01*
X39751185Y83203815D01*
X39830537Y83300506D01*
X39889502Y83410820D01*
X39925812Y83530518D01*
X39938072Y83655000D01*
X39938072Y85255000D01*
X39925812Y85379482D01*
X39889502Y85499180D01*
X39830537Y85609494D01*
X39751185Y85706185D01*
X39654494Y85785537D01*
X39544180Y85844502D01*
X39424482Y85880812D01*
X39300000Y85893072D01*
X36900000Y85893072D01*
X36775518Y85880812D01*
X36655820Y85844502D01*
X36545506Y85785537D01*
X36448815Y85706185D01*
X36369463Y85609494D01*
X36310498Y85499180D01*
X36274188Y85379482D01*
X36261928Y85255000D01*
X36261928Y85189900D01*
X34439396Y85189900D01*
X34403299Y85193455D01*
X34367202Y85189900D01*
X34367195Y85189900D01*
X34273432Y85180665D01*
X34259214Y85179265D01*
X34217186Y85166516D01*
X34120667Y85137237D01*
X33992980Y85068987D01*
X33881062Y84977138D01*
X33858046Y84949093D01*
X18353394Y69444440D01*
X18298475Y69526632D01*
X18091632Y69733475D01*
X17917240Y69850000D01*
X18091632Y69966525D01*
X18298475Y70173368D01*
X18460990Y70416589D01*
X18572932Y70686842D01*
X18630000Y70973740D01*
X18630000Y71266260D01*
X18572932Y71553158D01*
X18460990Y71823411D01*
X18353871Y71983725D01*
X33007444Y86637298D01*
X39866903Y86637298D01*
X39938486Y86393329D01*
X40193996Y86272429D01*
X40468184Y86203700D01*
X40750512Y86189783D01*
X41030130Y86231213D01*
X41296292Y86326397D01*
X41421514Y86393329D01*
X41493097Y86637298D01*
X40680000Y87450395D01*
X39866903Y86637298D01*
X33007444Y86637298D01*
X34767847Y88397700D01*
X39532576Y88397700D01*
X39443329Y88371514D01*
G37*
G04 #@! TD.AperFunction*
D22*
X13163524Y76556890D02*
X13284845Y76327000D01*
X14478000Y76327000D01*
X14478000Y76347000D01*
X14732000Y76347000D01*
X14732000Y76327000D01*
X14752000Y76327000D01*
X14752000Y76073000D01*
X14732000Y76073000D01*
X14732000Y73787000D01*
X14752000Y73787000D01*
X14752000Y73533000D01*
X14732000Y73533000D01*
X14732000Y73513000D01*
X14478000Y73513000D01*
X14478000Y73533000D01*
X13284845Y73533000D01*
X13163524Y73303110D01*
X13193464Y73204400D01*
X12170347Y73204400D01*
X11220558Y74154188D01*
X11197538Y74182238D01*
X11085620Y74274087D01*
X10957933Y74342337D01*
X10828922Y74381472D01*
X10678475Y74606632D01*
X10471632Y74813475D01*
X10297240Y74930000D01*
X10471632Y75046525D01*
X10678475Y75253368D01*
X10828922Y75478528D01*
X10957933Y75517663D01*
X11085620Y75585913D01*
X11197538Y75677762D01*
X11220558Y75705812D01*
X11357856Y75843110D01*
X13163524Y75843110D01*
X13208175Y75695901D01*
X13333359Y75433080D01*
X13507412Y75199731D01*
X13723645Y75004822D01*
X13849255Y74930000D01*
X13723645Y74855178D01*
X13507412Y74660269D01*
X13333359Y74426920D01*
X13208175Y74164099D01*
X13163524Y74016890D01*
X13284845Y73787000D01*
X14478000Y73787000D01*
X14478000Y76073000D01*
X13284845Y76073000D01*
X13163524Y75843110D01*
X11357856Y75843110D01*
X12139747Y76625000D01*
X13184183Y76625000D01*
X13163524Y76556890D01*
G04 #@! TA.AperFunction,Conductor*
D23*
G36*
X13163524Y76556890D02*
G01*
X13284845Y76327000D01*
X14478000Y76327000D01*
X14478000Y76347000D01*
X14732000Y76347000D01*
X14732000Y76327000D01*
X14752000Y76327000D01*
X14752000Y76073000D01*
X14732000Y76073000D01*
X14732000Y73787000D01*
X14752000Y73787000D01*
X14752000Y73533000D01*
X14732000Y73533000D01*
X14732000Y73513000D01*
X14478000Y73513000D01*
X14478000Y73533000D01*
X13284845Y73533000D01*
X13163524Y73303110D01*
X13193464Y73204400D01*
X12170347Y73204400D01*
X11220558Y74154188D01*
X11197538Y74182238D01*
X11085620Y74274087D01*
X10957933Y74342337D01*
X10828922Y74381472D01*
X10678475Y74606632D01*
X10471632Y74813475D01*
X10297240Y74930000D01*
X10471632Y75046525D01*
X10678475Y75253368D01*
X10828922Y75478528D01*
X10957933Y75517663D01*
X11085620Y75585913D01*
X11197538Y75677762D01*
X11220558Y75705812D01*
X11357856Y75843110D01*
X13163524Y75843110D01*
X13208175Y75695901D01*
X13333359Y75433080D01*
X13507412Y75199731D01*
X13723645Y75004822D01*
X13849255Y74930000D01*
X13723645Y74855178D01*
X13507412Y74660269D01*
X13333359Y74426920D01*
X13208175Y74164099D01*
X13163524Y74016890D01*
X13284845Y73787000D01*
X14478000Y73787000D01*
X14478000Y76073000D01*
X13284845Y76073000D01*
X13163524Y75843110D01*
X11357856Y75843110D01*
X12139747Y76625000D01*
X13184183Y76625000D01*
X13163524Y76556890D01*
G37*
G04 #@! TD.AperFunction*
M02*
