G04 #@! TF.GenerationSoftware,KiCad,Pcbnew,(5.1.9)-1*
G04 #@! TF.CreationDate,2025-08-24T06:13:25+09:00*
G04 #@! TF.ProjectId,PC-8001_RAM,50432d38-3030-4315-9f52-414d2e6b6963,rev?*
G04 #@! TF.SameCoordinates,PX53920b0PY93c3260*
G04 #@! TF.FileFunction,Legend,Top*
G04 #@! TF.FilePolarity,Positive*
%FSLAX46Y46*%
G04 Gerber Fmt 4.6, Leading zero omitted, Abs format (unit mm)*
G04 Created by KiCad (PCBNEW (5.1.9)-1) date 2025-08-24 06:13:25*
%MOMM*%
%LPD*%
G01*
G04 APERTURE LIST*
%ADD10C,0.100000*%
%ADD11C,0.150000*%
%ADD12C,0.500000*%
%ADD13C,0.120000*%
G04 APERTURE END LIST*
D10*
G36*
X11430000Y14605000D02*
G01*
X10160000Y15240000D01*
X11430000Y15875000D01*
X11430000Y14605000D01*
G37*
X11430000Y14605000D02*
X10160000Y15240000D01*
X11430000Y15875000D01*
X11430000Y14605000D01*
G36*
X20320000Y14605000D02*
G01*
X19050000Y15240000D01*
X20320000Y15875000D01*
X20320000Y14605000D01*
G37*
X20320000Y14605000D02*
X19050000Y15240000D01*
X20320000Y15875000D01*
X20320000Y14605000D01*
D11*
X31482857Y27823810D02*
X31435238Y27871429D01*
X31387619Y28014286D01*
X31387619Y28109524D01*
X31435238Y28252381D01*
X31530476Y28347620D01*
X31625714Y28395239D01*
X31816190Y28442858D01*
X31959047Y28442858D01*
X32149523Y28395239D01*
X32244761Y28347620D01*
X32340000Y28252381D01*
X32387619Y28109524D01*
X32387619Y28014286D01*
X32340000Y27871429D01*
X32292380Y27823810D01*
X31863809Y27204762D02*
X31387619Y27204762D01*
X32387619Y27538096D02*
X31863809Y27204762D01*
X32387619Y26871429D01*
X32387619Y26633334D02*
X32387619Y25966667D01*
X31387619Y26395239D01*
X31482857Y25014286D02*
X31435238Y25061905D01*
X31387619Y25204762D01*
X31387619Y25300000D01*
X31435238Y25442858D01*
X31530476Y25538096D01*
X31625714Y25585715D01*
X31816190Y25633334D01*
X31959047Y25633334D01*
X32149523Y25585715D01*
X32244761Y25538096D01*
X32340000Y25442858D01*
X32387619Y25300000D01*
X32387619Y25204762D01*
X32340000Y25061905D01*
X32292380Y25014286D01*
X31387619Y24061905D02*
X31387619Y24633334D01*
X31387619Y24347620D02*
X32387619Y24347620D01*
X32244761Y24442858D01*
X32149523Y24538096D01*
X32101904Y24633334D01*
X31387619Y23585715D02*
X31387619Y23395239D01*
X31435238Y23300000D01*
X31482857Y23252381D01*
X31625714Y23157143D01*
X31816190Y23109524D01*
X32197142Y23109524D01*
X32292380Y23157143D01*
X32340000Y23204762D01*
X32387619Y23300000D01*
X32387619Y23490477D01*
X32340000Y23585715D01*
X32292380Y23633334D01*
X32197142Y23680953D01*
X31959047Y23680953D01*
X31863809Y23633334D01*
X31816190Y23585715D01*
X31768571Y23490477D01*
X31768571Y23300000D01*
X31816190Y23204762D01*
X31863809Y23157143D01*
X31959047Y23109524D01*
X31387619Y22633334D02*
X31387619Y22442858D01*
X31435238Y22347620D01*
X31482857Y22300000D01*
X31625714Y22204762D01*
X31816190Y22157143D01*
X32197142Y22157143D01*
X32292380Y22204762D01*
X32340000Y22252381D01*
X32387619Y22347620D01*
X32387619Y22538096D01*
X32340000Y22633334D01*
X32292380Y22680953D01*
X32197142Y22728572D01*
X31959047Y22728572D01*
X31863809Y22680953D01*
X31816190Y22633334D01*
X31768571Y22538096D01*
X31768571Y22347620D01*
X31816190Y22252381D01*
X31863809Y22204762D01*
X31959047Y22157143D01*
X42727619Y68333810D02*
X43203809Y68667143D01*
X42727619Y68905239D02*
X43727619Y68905239D01*
X43727619Y68524286D01*
X43680000Y68429048D01*
X43632380Y68381429D01*
X43537142Y68333810D01*
X43394285Y68333810D01*
X43299047Y68381429D01*
X43251428Y68429048D01*
X43203809Y68524286D01*
X43203809Y68905239D01*
X42775238Y67524286D02*
X42727619Y67619524D01*
X42727619Y67810000D01*
X42775238Y67905239D01*
X42870476Y67952858D01*
X43251428Y67952858D01*
X43346666Y67905239D01*
X43394285Y67810000D01*
X43394285Y67619524D01*
X43346666Y67524286D01*
X43251428Y67476667D01*
X43156190Y67476667D01*
X43060952Y67952858D01*
X42727619Y66619524D02*
X43251428Y66619524D01*
X43346666Y66667143D01*
X43394285Y66762381D01*
X43394285Y66952858D01*
X43346666Y67048096D01*
X42775238Y66619524D02*
X42727619Y66714762D01*
X42727619Y66952858D01*
X42775238Y67048096D01*
X42870476Y67095715D01*
X42965714Y67095715D01*
X43060952Y67048096D01*
X43108571Y66952858D01*
X43108571Y66714762D01*
X43156190Y66619524D01*
X42727619Y65714762D02*
X43727619Y65714762D01*
X42775238Y65714762D02*
X42727619Y65810000D01*
X42727619Y66000477D01*
X42775238Y66095715D01*
X42822857Y66143334D01*
X42918095Y66190953D01*
X43203809Y66190953D01*
X43299047Y66143334D01*
X43346666Y66095715D01*
X43394285Y66000477D01*
X43394285Y65810000D01*
X43346666Y65714762D01*
X43727619Y82335477D02*
X42727619Y82097381D01*
X43441904Y81906905D01*
X42727619Y81716429D01*
X43727619Y81478334D01*
X42727619Y81097381D02*
X43394285Y81097381D01*
X43203809Y81097381D02*
X43299047Y81049762D01*
X43346666Y81002143D01*
X43394285Y80906905D01*
X43394285Y80811667D01*
X42727619Y80478334D02*
X43394285Y80478334D01*
X43727619Y80478334D02*
X43680000Y80525953D01*
X43632380Y80478334D01*
X43680000Y80430715D01*
X43727619Y80478334D01*
X43632380Y80478334D01*
X43394285Y80145000D02*
X43394285Y79764048D01*
X43727619Y80002143D02*
X42870476Y80002143D01*
X42775238Y79954524D01*
X42727619Y79859286D01*
X42727619Y79764048D01*
X42775238Y79049762D02*
X42727619Y79145000D01*
X42727619Y79335477D01*
X42775238Y79430715D01*
X42870476Y79478334D01*
X43251428Y79478334D01*
X43346666Y79430715D01*
X43394285Y79335477D01*
X43394285Y79145000D01*
X43346666Y79049762D01*
X43251428Y79002143D01*
X43156190Y79002143D01*
X43060952Y79478334D01*
X38647619Y62880715D02*
X38647619Y62261667D01*
X38266666Y62595000D01*
X38266666Y62452143D01*
X38219047Y62356905D01*
X38171428Y62309286D01*
X38076190Y62261667D01*
X37838095Y62261667D01*
X37742857Y62309286D01*
X37695238Y62356905D01*
X37647619Y62452143D01*
X37647619Y62737858D01*
X37695238Y62833096D01*
X37742857Y62880715D01*
X38647619Y61928334D02*
X38647619Y61309286D01*
X38266666Y61642620D01*
X38266666Y61499762D01*
X38219047Y61404524D01*
X38171428Y61356905D01*
X38076190Y61309286D01*
X37838095Y61309286D01*
X37742857Y61356905D01*
X37695238Y61404524D01*
X37647619Y61499762D01*
X37647619Y61785477D01*
X37695238Y61880715D01*
X37742857Y61928334D01*
X38647619Y60690239D02*
X38647619Y60595000D01*
X38600000Y60499762D01*
X38552380Y60452143D01*
X38457142Y60404524D01*
X38266666Y60356905D01*
X38028571Y60356905D01*
X37838095Y60404524D01*
X37742857Y60452143D01*
X37695238Y60499762D01*
X37647619Y60595000D01*
X37647619Y60690239D01*
X37695238Y60785477D01*
X37742857Y60833096D01*
X37838095Y60880715D01*
X38028571Y60928334D01*
X38266666Y60928334D01*
X38457142Y60880715D01*
X38552380Y60833096D01*
X38600000Y60785477D01*
X38647619Y60690239D01*
X38647619Y75580715D02*
X38647619Y74961667D01*
X38266666Y75295000D01*
X38266666Y75152143D01*
X38219047Y75056905D01*
X38171428Y75009286D01*
X38076190Y74961667D01*
X37838095Y74961667D01*
X37742857Y75009286D01*
X37695238Y75056905D01*
X37647619Y75152143D01*
X37647619Y75437858D01*
X37695238Y75533096D01*
X37742857Y75580715D01*
X38647619Y74628334D02*
X38647619Y74009286D01*
X38266666Y74342620D01*
X38266666Y74199762D01*
X38219047Y74104524D01*
X38171428Y74056905D01*
X38076190Y74009286D01*
X37838095Y74009286D01*
X37742857Y74056905D01*
X37695238Y74104524D01*
X37647619Y74199762D01*
X37647619Y74485477D01*
X37695238Y74580715D01*
X37742857Y74628334D01*
X38647619Y73390239D02*
X38647619Y73295000D01*
X38600000Y73199762D01*
X38552380Y73152143D01*
X38457142Y73104524D01*
X38266666Y73056905D01*
X38028571Y73056905D01*
X37838095Y73104524D01*
X37742857Y73152143D01*
X37695238Y73199762D01*
X37647619Y73295000D01*
X37647619Y73390239D01*
X37695238Y73485477D01*
X37742857Y73533096D01*
X37838095Y73580715D01*
X38028571Y73628334D01*
X38266666Y73628334D01*
X38457142Y73580715D01*
X38552380Y73533096D01*
X38600000Y73485477D01*
X38647619Y73390239D01*
X10061904Y34977620D02*
X10061904Y35977620D01*
X10300000Y35977620D01*
X10442857Y35930000D01*
X10538095Y35834762D01*
X10585714Y35739524D01*
X10633333Y35549048D01*
X10633333Y35406191D01*
X10585714Y35215715D01*
X10538095Y35120477D01*
X10442857Y35025239D01*
X10300000Y34977620D01*
X10061904Y34977620D01*
X10966666Y35977620D02*
X11633333Y35977620D01*
X11204761Y34977620D01*
X1825714Y40673334D02*
X2301904Y40673334D01*
X1730476Y40387620D02*
X2063809Y41387620D01*
X2397142Y40387620D01*
X2778095Y40387620D02*
X2968571Y40387620D01*
X3063809Y40435239D01*
X3111428Y40482858D01*
X3206666Y40625715D01*
X3254285Y40816191D01*
X3254285Y41197143D01*
X3206666Y41292381D01*
X3159047Y41340000D01*
X3063809Y41387620D01*
X2873333Y41387620D01*
X2778095Y41340000D01*
X2730476Y41292381D01*
X2682857Y41197143D01*
X2682857Y40959048D01*
X2730476Y40863810D01*
X2778095Y40816191D01*
X2873333Y40768572D01*
X3063809Y40768572D01*
X3159047Y40816191D01*
X3206666Y40863810D01*
X3254285Y40959048D01*
X1349523Y43173334D02*
X1825714Y43173334D01*
X1254285Y42887620D02*
X1587619Y43887620D01*
X1920952Y42887620D01*
X2778095Y42887620D02*
X2206666Y42887620D01*
X2492380Y42887620D02*
X2492380Y43887620D01*
X2397142Y43744762D01*
X2301904Y43649524D01*
X2206666Y43601905D01*
X3397142Y43887620D02*
X3492380Y43887620D01*
X3587619Y43840000D01*
X3635238Y43792381D01*
X3682857Y43697143D01*
X3730476Y43506667D01*
X3730476Y43268572D01*
X3682857Y43078096D01*
X3635238Y42982858D01*
X3587619Y42935239D01*
X3492380Y42887620D01*
X3397142Y42887620D01*
X3301904Y42935239D01*
X3254285Y42982858D01*
X3206666Y43078096D01*
X3159047Y43268572D01*
X3159047Y43506667D01*
X3206666Y43697143D01*
X3254285Y43792381D01*
X3301904Y43840000D01*
X3397142Y43887620D01*
X1349523Y48173334D02*
X1825714Y48173334D01*
X1254285Y47887620D02*
X1587619Y48887620D01*
X1920952Y47887620D01*
X2778095Y47887620D02*
X2206666Y47887620D01*
X2492380Y47887620D02*
X2492380Y48887620D01*
X2397142Y48744762D01*
X2301904Y48649524D01*
X2206666Y48601905D01*
X3159047Y48792381D02*
X3206666Y48840000D01*
X3301904Y48887620D01*
X3540000Y48887620D01*
X3635238Y48840000D01*
X3682857Y48792381D01*
X3730476Y48697143D01*
X3730476Y48601905D01*
X3682857Y48459048D01*
X3111428Y47887620D01*
X3730476Y47887620D01*
X1349523Y50673334D02*
X1825714Y50673334D01*
X1254285Y50387620D02*
X1587619Y51387620D01*
X1920952Y50387620D01*
X2778095Y50387620D02*
X2206666Y50387620D01*
X2492380Y50387620D02*
X2492380Y51387620D01*
X2397142Y51244762D01*
X2301904Y51149524D01*
X2206666Y51101905D01*
X3111428Y51387620D02*
X3730476Y51387620D01*
X3397142Y51006667D01*
X3540000Y51006667D01*
X3635238Y50959048D01*
X3682857Y50911429D01*
X3730476Y50816191D01*
X3730476Y50578096D01*
X3682857Y50482858D01*
X3635238Y50435239D01*
X3540000Y50387620D01*
X3254285Y50387620D01*
X3159047Y50435239D01*
X3111428Y50482858D01*
X1738095Y76700000D02*
X1642857Y76747620D01*
X1500000Y76747620D01*
X1357142Y76700000D01*
X1261904Y76604762D01*
X1214285Y76509524D01*
X1166666Y76319048D01*
X1166666Y76176191D01*
X1214285Y75985715D01*
X1261904Y75890477D01*
X1357142Y75795239D01*
X1500000Y75747620D01*
X1595238Y75747620D01*
X1738095Y75795239D01*
X1785714Y75842858D01*
X1785714Y76176191D01*
X1595238Y76176191D01*
X2214285Y75747620D02*
X2214285Y76747620D01*
X2785714Y75747620D01*
X2785714Y76747620D01*
X3261904Y75747620D02*
X3261904Y76747620D01*
X3500000Y76747620D01*
X3642857Y76700000D01*
X3738095Y76604762D01*
X3785714Y76509524D01*
X3833333Y76319048D01*
X3833333Y76176191D01*
X3785714Y75985715D01*
X3738095Y75890477D01*
X3642857Y75795239D01*
X3500000Y75747620D01*
X3261904Y75747620D01*
X1738095Y74160000D02*
X1642857Y74207620D01*
X1500000Y74207620D01*
X1357142Y74160000D01*
X1261904Y74064762D01*
X1214285Y73969524D01*
X1166666Y73779048D01*
X1166666Y73636191D01*
X1214285Y73445715D01*
X1261904Y73350477D01*
X1357142Y73255239D01*
X1500000Y73207620D01*
X1595238Y73207620D01*
X1738095Y73255239D01*
X1785714Y73302858D01*
X1785714Y73636191D01*
X1595238Y73636191D01*
X2214285Y73207620D02*
X2214285Y74207620D01*
X2785714Y73207620D01*
X2785714Y74207620D01*
X3261904Y73207620D02*
X3261904Y74207620D01*
X3500000Y74207620D01*
X3642857Y74160000D01*
X3738095Y74064762D01*
X3785714Y73969524D01*
X3833333Y73779048D01*
X3833333Y73636191D01*
X3785714Y73445715D01*
X3738095Y73350477D01*
X3642857Y73255239D01*
X3500000Y73207620D01*
X3261904Y73207620D01*
X21455000Y67039762D02*
X21502619Y67135000D01*
X21502619Y67277858D01*
X21455000Y67420715D01*
X21359761Y67515953D01*
X21264523Y67563572D01*
X21074047Y67611191D01*
X20931190Y67611191D01*
X20740714Y67563572D01*
X20645476Y67515953D01*
X20550238Y67420715D01*
X20502619Y67277858D01*
X20502619Y67182620D01*
X20550238Y67039762D01*
X20597857Y66992143D01*
X20931190Y66992143D01*
X20931190Y67182620D01*
X20788333Y66611191D02*
X20788333Y66135000D01*
X20502619Y66706429D02*
X21502619Y66373096D01*
X20502619Y66039762D01*
X20502619Y65230239D02*
X20502619Y65706429D01*
X21502619Y65706429D01*
X21407380Y64944524D02*
X21455000Y64896905D01*
X21502619Y64801667D01*
X21502619Y64563572D01*
X21455000Y64468334D01*
X21407380Y64420715D01*
X21312142Y64373096D01*
X21216904Y64373096D01*
X21074047Y64420715D01*
X20502619Y64992143D01*
X20502619Y64373096D01*
X21407380Y63992143D02*
X21455000Y63944524D01*
X21502619Y63849286D01*
X21502619Y63611191D01*
X21455000Y63515953D01*
X21407380Y63468334D01*
X21312142Y63420715D01*
X21216904Y63420715D01*
X21074047Y63468334D01*
X20502619Y64039762D01*
X20502619Y63420715D01*
X21502619Y63135000D02*
X20502619Y62801667D01*
X21502619Y62468334D01*
X20502619Y61611191D02*
X20502619Y62182620D01*
X20502619Y61896905D02*
X21502619Y61896905D01*
X21359761Y61992143D01*
X21264523Y62087381D01*
X21216904Y62182620D01*
X21502619Y60992143D02*
X21502619Y60896905D01*
X21455000Y60801667D01*
X21407380Y60754048D01*
X21312142Y60706429D01*
X21121666Y60658810D01*
X20883571Y60658810D01*
X20693095Y60706429D01*
X20597857Y60754048D01*
X20550238Y60801667D01*
X20502619Y60896905D01*
X20502619Y60992143D01*
X20550238Y61087381D01*
X20597857Y61135000D01*
X20693095Y61182620D01*
X20883571Y61230239D01*
X21121666Y61230239D01*
X21312142Y61182620D01*
X21407380Y61135000D01*
X21455000Y61087381D01*
X21502619Y60992143D01*
X33567619Y89272858D02*
X33567619Y89177620D01*
X33520000Y89082381D01*
X33472380Y89034762D01*
X33377142Y88987143D01*
X33186666Y88939524D01*
X32948571Y88939524D01*
X32758095Y88987143D01*
X32662857Y89034762D01*
X32615238Y89082381D01*
X32567619Y89177620D01*
X32567619Y89272858D01*
X32615238Y89368096D01*
X32662857Y89415715D01*
X32758095Y89463334D01*
X32948571Y89510953D01*
X33186666Y89510953D01*
X33377142Y89463334D01*
X33472380Y89415715D01*
X33520000Y89368096D01*
X33567619Y89272858D01*
X32662857Y88510953D02*
X32615238Y88463334D01*
X32567619Y88510953D01*
X32615238Y88558572D01*
X32662857Y88510953D01*
X32567619Y88510953D01*
X32567619Y87510953D02*
X32567619Y88082381D01*
X32567619Y87796667D02*
X33567619Y87796667D01*
X33424761Y87891905D01*
X33329523Y87987143D01*
X33281904Y88082381D01*
X33234285Y86653810D02*
X32567619Y86653810D01*
X33234285Y87082381D02*
X32710476Y87082381D01*
X32615238Y87034762D01*
X32567619Y86939524D01*
X32567619Y86796667D01*
X32615238Y86701429D01*
X32662857Y86653810D01*
X33091428Y85844286D02*
X33091428Y86177620D01*
X32567619Y86177620D02*
X33567619Y86177620D01*
X33567619Y85701429D01*
X36107619Y52442858D02*
X36107619Y52347620D01*
X36060000Y52252381D01*
X36012380Y52204762D01*
X35917142Y52157143D01*
X35726666Y52109524D01*
X35488571Y52109524D01*
X35298095Y52157143D01*
X35202857Y52204762D01*
X35155238Y52252381D01*
X35107619Y52347620D01*
X35107619Y52442858D01*
X35155238Y52538096D01*
X35202857Y52585715D01*
X35298095Y52633334D01*
X35488571Y52680953D01*
X35726666Y52680953D01*
X35917142Y52633334D01*
X36012380Y52585715D01*
X36060000Y52538096D01*
X36107619Y52442858D01*
X35202857Y51680953D02*
X35155238Y51633334D01*
X35107619Y51680953D01*
X35155238Y51728572D01*
X35202857Y51680953D01*
X35107619Y51680953D01*
X35107619Y50680953D02*
X35107619Y51252381D01*
X35107619Y50966667D02*
X36107619Y50966667D01*
X35964761Y51061905D01*
X35869523Y51157143D01*
X35821904Y51252381D01*
X35774285Y49823810D02*
X35107619Y49823810D01*
X35774285Y50252381D02*
X35250476Y50252381D01*
X35155238Y50204762D01*
X35107619Y50109524D01*
X35107619Y49966667D01*
X35155238Y49871429D01*
X35202857Y49823810D01*
X35631428Y49014286D02*
X35631428Y49347620D01*
X35107619Y49347620D02*
X36107619Y49347620D01*
X36107619Y48871429D01*
X1349523Y55713334D02*
X1825714Y55713334D01*
X1254285Y55427620D02*
X1587619Y56427620D01*
X1920952Y55427620D01*
X2778095Y55427620D02*
X2206666Y55427620D01*
X2492380Y55427620D02*
X2492380Y56427620D01*
X2397142Y56284762D01*
X2301904Y56189524D01*
X2206666Y56141905D01*
X3682857Y56427620D02*
X3206666Y56427620D01*
X3159047Y55951429D01*
X3206666Y55999048D01*
X3301904Y56046667D01*
X3540000Y56046667D01*
X3635238Y55999048D01*
X3682857Y55951429D01*
X3730476Y55856191D01*
X3730476Y55618096D01*
X3682857Y55522858D01*
X3635238Y55475239D01*
X3540000Y55427620D01*
X3301904Y55427620D01*
X3206666Y55475239D01*
X3159047Y55522858D01*
X1349523Y45553334D02*
X1825714Y45553334D01*
X1254285Y45267620D02*
X1587619Y46267620D01*
X1920952Y45267620D01*
X2778095Y45267620D02*
X2206666Y45267620D01*
X2492380Y45267620D02*
X2492380Y46267620D01*
X2397142Y46124762D01*
X2301904Y46029524D01*
X2206666Y45981905D01*
X3730476Y45267620D02*
X3159047Y45267620D01*
X3444761Y45267620D02*
X3444761Y46267620D01*
X3349523Y46124762D01*
X3254285Y46029524D01*
X3159047Y45981905D01*
D10*
X1016190Y28790000D02*
X1516190Y28790000D01*
X1420952Y27487620D02*
X1254285Y27963810D01*
X1135238Y27487620D02*
X1135238Y28487620D01*
X1325714Y28487620D01*
X1373333Y28440000D01*
X1397142Y28392381D01*
X1420952Y28297143D01*
X1420952Y28154286D01*
X1397142Y28059048D01*
X1373333Y28011429D01*
X1325714Y27963810D01*
X1135238Y27963810D01*
X1516190Y28790000D02*
X2040000Y28790000D01*
X1730476Y28487620D02*
X1825714Y28487620D01*
X1873333Y28440000D01*
X1920952Y28344762D01*
X1944761Y28154286D01*
X1944761Y27820953D01*
X1920952Y27630477D01*
X1873333Y27535239D01*
X1825714Y27487620D01*
X1730476Y27487620D01*
X1682857Y27535239D01*
X1635238Y27630477D01*
X1611428Y27820953D01*
X1611428Y28154286D01*
X1635238Y28344762D01*
X1682857Y28440000D01*
X1730476Y28487620D01*
X2040000Y28790000D02*
X2611428Y28790000D01*
X2159047Y27487620D02*
X2159047Y28487620D01*
X2325714Y27773334D01*
X2492380Y28487620D01*
X2492380Y27487620D01*
X2611428Y28790000D02*
X3111428Y28790000D01*
X2730476Y27487620D02*
X2730476Y28487620D01*
X2849523Y28487620D01*
X2920952Y28440000D01*
X2968571Y28344762D01*
X2992380Y28249524D01*
X3016190Y28059048D01*
X3016190Y27916191D01*
X2992380Y27725715D01*
X2968571Y27630477D01*
X2920952Y27535239D01*
X2849523Y27487620D01*
X2730476Y27487620D01*
X3111428Y28790000D02*
X3587619Y28790000D01*
X3206666Y27535239D02*
X3278095Y27487620D01*
X3397142Y27487620D01*
X3444761Y27535239D01*
X3468571Y27582858D01*
X3492380Y27678096D01*
X3492380Y27773334D01*
X3468571Y27868572D01*
X3444761Y27916191D01*
X3397142Y27963810D01*
X3301904Y28011429D01*
X3254285Y28059048D01*
X3230476Y28106667D01*
X3206666Y28201905D01*
X3206666Y28297143D01*
X3230476Y28392381D01*
X3254285Y28440000D01*
X3301904Y28487620D01*
X3420952Y28487620D01*
X3492380Y28440000D01*
X3587619Y28790000D02*
X4063809Y28790000D01*
X3659047Y28487620D02*
X3968571Y28487620D01*
X3801904Y28106667D01*
X3873333Y28106667D01*
X3920952Y28059048D01*
X3944761Y28011429D01*
X3968571Y27916191D01*
X3968571Y27678096D01*
X3944761Y27582858D01*
X3920952Y27535239D01*
X3873333Y27487620D01*
X3730476Y27487620D01*
X3682857Y27535239D01*
X3659047Y27582858D01*
D11*
X22137619Y27114286D02*
X22137619Y27304762D01*
X22090000Y27400000D01*
X22042380Y27447620D01*
X21899523Y27542858D01*
X21709047Y27590477D01*
X21328095Y27590477D01*
X21232857Y27542858D01*
X21185238Y27495239D01*
X21137619Y27400000D01*
X21137619Y27209524D01*
X21185238Y27114286D01*
X21232857Y27066667D01*
X21328095Y27019048D01*
X21566190Y27019048D01*
X21661428Y27066667D01*
X21709047Y27114286D01*
X21756666Y27209524D01*
X21756666Y27400000D01*
X21709047Y27495239D01*
X21661428Y27542858D01*
X21566190Y27590477D01*
X22042380Y26638096D02*
X22090000Y26590477D01*
X22137619Y26495239D01*
X22137619Y26257143D01*
X22090000Y26161905D01*
X22042380Y26114286D01*
X21947142Y26066667D01*
X21851904Y26066667D01*
X21709047Y26114286D01*
X21137619Y26685715D01*
X21137619Y26066667D01*
X22042380Y25685715D02*
X22090000Y25638096D01*
X22137619Y25542858D01*
X22137619Y25304762D01*
X22090000Y25209524D01*
X22042380Y25161905D01*
X21947142Y25114286D01*
X21851904Y25114286D01*
X21709047Y25161905D01*
X21137619Y25733334D01*
X21137619Y25114286D01*
X22137619Y24209524D02*
X22137619Y24685715D01*
X21661428Y24733334D01*
X21709047Y24685715D01*
X21756666Y24590477D01*
X21756666Y24352381D01*
X21709047Y24257143D01*
X21661428Y24209524D01*
X21566190Y24161905D01*
X21328095Y24161905D01*
X21232857Y24209524D01*
X21185238Y24257143D01*
X21137619Y24352381D01*
X21137619Y24590477D01*
X21185238Y24685715D01*
X21232857Y24733334D01*
X22137619Y23304762D02*
X22137619Y23495239D01*
X22090000Y23590477D01*
X22042380Y23638096D01*
X21899523Y23733334D01*
X21709047Y23780953D01*
X21328095Y23780953D01*
X21232857Y23733334D01*
X21185238Y23685715D01*
X21137619Y23590477D01*
X21137619Y23400000D01*
X21185238Y23304762D01*
X21232857Y23257143D01*
X21328095Y23209524D01*
X21566190Y23209524D01*
X21661428Y23257143D01*
X21709047Y23304762D01*
X21756666Y23400000D01*
X21756666Y23590477D01*
X21709047Y23685715D01*
X21661428Y23733334D01*
X21566190Y23780953D01*
X1452619Y88986667D02*
X2452619Y88986667D01*
X2452619Y88605715D01*
X2405000Y88510477D01*
X2357380Y88462858D01*
X2262142Y88415239D01*
X2119285Y88415239D01*
X2024047Y88462858D01*
X1976428Y88510477D01*
X1928809Y88605715D01*
X1928809Y88986667D01*
X1547857Y87415239D02*
X1500238Y87462858D01*
X1452619Y87605715D01*
X1452619Y87700953D01*
X1500238Y87843810D01*
X1595476Y87939048D01*
X1690714Y87986667D01*
X1881190Y88034286D01*
X2024047Y88034286D01*
X2214523Y87986667D01*
X2309761Y87939048D01*
X2405000Y87843810D01*
X2452619Y87700953D01*
X2452619Y87605715D01*
X2405000Y87462858D01*
X2357380Y87415239D01*
X1833571Y86986667D02*
X1833571Y86224762D01*
X2024047Y85605715D02*
X2071666Y85700953D01*
X2119285Y85748572D01*
X2214523Y85796191D01*
X2262142Y85796191D01*
X2357380Y85748572D01*
X2405000Y85700953D01*
X2452619Y85605715D01*
X2452619Y85415239D01*
X2405000Y85320000D01*
X2357380Y85272381D01*
X2262142Y85224762D01*
X2214523Y85224762D01*
X2119285Y85272381D01*
X2071666Y85320000D01*
X2024047Y85415239D01*
X2024047Y85605715D01*
X1976428Y85700953D01*
X1928809Y85748572D01*
X1833571Y85796191D01*
X1643095Y85796191D01*
X1547857Y85748572D01*
X1500238Y85700953D01*
X1452619Y85605715D01*
X1452619Y85415239D01*
X1500238Y85320000D01*
X1547857Y85272381D01*
X1643095Y85224762D01*
X1833571Y85224762D01*
X1928809Y85272381D01*
X1976428Y85320000D01*
X2024047Y85415239D01*
X2452619Y84605715D02*
X2452619Y84510477D01*
X2405000Y84415239D01*
X2357380Y84367620D01*
X2262142Y84320000D01*
X2071666Y84272381D01*
X1833571Y84272381D01*
X1643095Y84320000D01*
X1547857Y84367620D01*
X1500238Y84415239D01*
X1452619Y84510477D01*
X1452619Y84605715D01*
X1500238Y84700953D01*
X1547857Y84748572D01*
X1643095Y84796191D01*
X1833571Y84843810D01*
X2071666Y84843810D01*
X2262142Y84796191D01*
X2357380Y84748572D01*
X2405000Y84700953D01*
X2452619Y84605715D01*
X2452619Y83653334D02*
X2452619Y83558096D01*
X2405000Y83462858D01*
X2357380Y83415239D01*
X2262142Y83367620D01*
X2071666Y83320000D01*
X1833571Y83320000D01*
X1643095Y83367620D01*
X1547857Y83415239D01*
X1500238Y83462858D01*
X1452619Y83558096D01*
X1452619Y83653334D01*
X1500238Y83748572D01*
X1547857Y83796191D01*
X1643095Y83843810D01*
X1833571Y83891429D01*
X2071666Y83891429D01*
X2262142Y83843810D01*
X2357380Y83796191D01*
X2405000Y83748572D01*
X2452619Y83653334D01*
X1452619Y82367620D02*
X1452619Y82939048D01*
X1452619Y82653334D02*
X2452619Y82653334D01*
X2309761Y82748572D01*
X2214523Y82843810D01*
X2166904Y82939048D01*
X1976428Y80843810D02*
X1928809Y80700953D01*
X1881190Y80653334D01*
X1785952Y80605715D01*
X1643095Y80605715D01*
X1547857Y80653334D01*
X1500238Y80700953D01*
X1452619Y80796191D01*
X1452619Y81177143D01*
X2452619Y81177143D01*
X2452619Y80843810D01*
X2405000Y80748572D01*
X2357380Y80700953D01*
X2262142Y80653334D01*
X2166904Y80653334D01*
X2071666Y80700953D01*
X2024047Y80748572D01*
X1976428Y80843810D01*
X1976428Y81177143D01*
X2452619Y80177143D02*
X1643095Y80177143D01*
X1547857Y80129524D01*
X1500238Y80081905D01*
X1452619Y79986667D01*
X1452619Y79796191D01*
X1500238Y79700953D01*
X1547857Y79653334D01*
X1643095Y79605715D01*
X2452619Y79605715D01*
X1500238Y79177143D02*
X1452619Y79034286D01*
X1452619Y78796191D01*
X1500238Y78700953D01*
X1547857Y78653334D01*
X1643095Y78605715D01*
X1738333Y78605715D01*
X1833571Y78653334D01*
X1881190Y78700953D01*
X1928809Y78796191D01*
X1976428Y78986667D01*
X2024047Y79081905D01*
X2071666Y79129524D01*
X2166904Y79177143D01*
X2262142Y79177143D01*
X2357380Y79129524D01*
X2405000Y79081905D01*
X2452619Y78986667D01*
X2452619Y78748572D01*
X2405000Y78605715D01*
X10342619Y8532620D02*
X10342619Y9104048D01*
X10342619Y8818334D02*
X11342619Y8818334D01*
X11199761Y8913572D01*
X11104523Y9008810D01*
X11056904Y9104048D01*
X11342619Y7913572D02*
X11342619Y7818334D01*
X11295000Y7723096D01*
X11247380Y7675477D01*
X11152142Y7627858D01*
X10961666Y7580239D01*
X10723571Y7580239D01*
X10533095Y7627858D01*
X10437857Y7675477D01*
X10390238Y7723096D01*
X10342619Y7818334D01*
X10342619Y7913572D01*
X10390238Y8008810D01*
X10437857Y8056429D01*
X10533095Y8104048D01*
X10723571Y8151667D01*
X10961666Y8151667D01*
X11152142Y8104048D01*
X11247380Y8056429D01*
X11295000Y8008810D01*
X11342619Y7913572D01*
X11342619Y6961191D02*
X11342619Y6865953D01*
X11295000Y6770715D01*
X11247380Y6723096D01*
X11152142Y6675477D01*
X10961666Y6627858D01*
X10723571Y6627858D01*
X10533095Y6675477D01*
X10437857Y6723096D01*
X10390238Y6770715D01*
X10342619Y6865953D01*
X10342619Y6961191D01*
X10390238Y7056429D01*
X10437857Y7104048D01*
X10533095Y7151667D01*
X10723571Y7199286D01*
X10961666Y7199286D01*
X11152142Y7151667D01*
X11247380Y7104048D01*
X11295000Y7056429D01*
X11342619Y6961191D01*
X11009285Y5770715D02*
X10342619Y5770715D01*
X11009285Y6199286D02*
X10485476Y6199286D01*
X10390238Y6151667D01*
X10342619Y6056429D01*
X10342619Y5913572D01*
X10390238Y5818334D01*
X10437857Y5770715D01*
X10866428Y4961191D02*
X10866428Y5294524D01*
X10342619Y5294524D02*
X11342619Y5294524D01*
X11342619Y4818334D01*
X1349523Y53173334D02*
X1825714Y53173334D01*
X1254285Y52887620D02*
X1587619Y53887620D01*
X1920952Y52887620D01*
X2778095Y52887620D02*
X2206666Y52887620D01*
X2492380Y52887620D02*
X2492380Y53887620D01*
X2397142Y53744762D01*
X2301904Y53649524D01*
X2206666Y53601905D01*
X3635238Y53554286D02*
X3635238Y52887620D01*
X3397142Y53935239D02*
X3159047Y53220953D01*
X3778095Y53220953D01*
D10*
X1409047Y59270000D02*
X1909047Y59270000D01*
X1813809Y57967620D02*
X1647142Y58443810D01*
X1528095Y57967620D02*
X1528095Y58967620D01*
X1718571Y58967620D01*
X1766190Y58920000D01*
X1790000Y58872381D01*
X1813809Y58777143D01*
X1813809Y58634286D01*
X1790000Y58539048D01*
X1766190Y58491429D01*
X1718571Y58443810D01*
X1528095Y58443810D01*
X1909047Y59270000D02*
X2361428Y59270000D01*
X2028095Y58491429D02*
X2194761Y58491429D01*
X2266190Y57967620D02*
X2028095Y57967620D01*
X2028095Y58967620D01*
X2266190Y58967620D01*
X2361428Y59270000D02*
X2837619Y59270000D01*
X2456666Y58015239D02*
X2528095Y57967620D01*
X2647142Y57967620D01*
X2694761Y58015239D01*
X2718571Y58062858D01*
X2742380Y58158096D01*
X2742380Y58253334D01*
X2718571Y58348572D01*
X2694761Y58396191D01*
X2647142Y58443810D01*
X2551904Y58491429D01*
X2504285Y58539048D01*
X2480476Y58586667D01*
X2456666Y58681905D01*
X2456666Y58777143D01*
X2480476Y58872381D01*
X2504285Y58920000D01*
X2551904Y58967620D01*
X2670952Y58967620D01*
X2742380Y58920000D01*
X2837619Y59270000D02*
X3290000Y59270000D01*
X2956666Y58491429D02*
X3123333Y58491429D01*
X3194761Y57967620D02*
X2956666Y57967620D01*
X2956666Y58967620D01*
X3194761Y58967620D01*
X3290000Y59270000D02*
X3670952Y59270000D01*
X3337619Y58967620D02*
X3623333Y58967620D01*
X3480476Y57967620D02*
X3480476Y58967620D01*
D11*
X1825714Y37933334D02*
X2301904Y37933334D01*
X1730476Y37647620D02*
X2063809Y38647620D01*
X2397142Y37647620D01*
X2873333Y38219048D02*
X2778095Y38266667D01*
X2730476Y38314286D01*
X2682857Y38409524D01*
X2682857Y38457143D01*
X2730476Y38552381D01*
X2778095Y38600000D01*
X2873333Y38647620D01*
X3063809Y38647620D01*
X3159047Y38600000D01*
X3206666Y38552381D01*
X3254285Y38457143D01*
X3254285Y38409524D01*
X3206666Y38314286D01*
X3159047Y38266667D01*
X3063809Y38219048D01*
X2873333Y38219048D01*
X2778095Y38171429D01*
X2730476Y38123810D01*
X2682857Y38028572D01*
X2682857Y37838096D01*
X2730476Y37742858D01*
X2778095Y37695239D01*
X2873333Y37647620D01*
X3063809Y37647620D01*
X3159047Y37695239D01*
X3206666Y37742858D01*
X3254285Y37838096D01*
X3254285Y38028572D01*
X3206666Y38123810D01*
X3159047Y38171429D01*
X3063809Y38219048D01*
X10239523Y14517620D02*
X10572857Y13517620D01*
X10906190Y14517620D01*
X11668095Y13565239D02*
X11572857Y13517620D01*
X11382380Y13517620D01*
X11287142Y13565239D01*
X11239523Y13612858D01*
X11191904Y13708096D01*
X11191904Y13993810D01*
X11239523Y14089048D01*
X11287142Y14136667D01*
X11382380Y14184286D01*
X11572857Y14184286D01*
X11668095Y14136667D01*
X12525238Y13565239D02*
X12430000Y13517620D01*
X12239523Y13517620D01*
X12144285Y13565239D01*
X12096666Y13612858D01*
X12049047Y13708096D01*
X12049047Y13993810D01*
X12096666Y14089048D01*
X12144285Y14136667D01*
X12239523Y14184286D01*
X12430000Y14184286D01*
X12525238Y14136667D01*
X10056904Y17327620D02*
X10056904Y18327620D01*
X10295000Y18327620D01*
X10437857Y18280000D01*
X10533095Y18184762D01*
X10580714Y18089524D01*
X10628333Y17899048D01*
X10628333Y17756191D01*
X10580714Y17565715D01*
X10533095Y17470477D01*
X10437857Y17375239D01*
X10295000Y17327620D01*
X10056904Y17327620D01*
X11247380Y18327620D02*
X11342619Y18327620D01*
X11437857Y18280000D01*
X11485476Y18232381D01*
X11533095Y18137143D01*
X11580714Y17946667D01*
X11580714Y17708572D01*
X11533095Y17518096D01*
X11485476Y17422858D01*
X11437857Y17375239D01*
X11342619Y17327620D01*
X11247380Y17327620D01*
X11152142Y17375239D01*
X11104523Y17422858D01*
X11056904Y17518096D01*
X11009285Y17708572D01*
X11009285Y17946667D01*
X11056904Y18137143D01*
X11104523Y18232381D01*
X11152142Y18280000D01*
X11247380Y18327620D01*
X10056904Y19867620D02*
X10056904Y20867620D01*
X10295000Y20867620D01*
X10437857Y20820000D01*
X10533095Y20724762D01*
X10580714Y20629524D01*
X10628333Y20439048D01*
X10628333Y20296191D01*
X10580714Y20105715D01*
X10533095Y20010477D01*
X10437857Y19915239D01*
X10295000Y19867620D01*
X10056904Y19867620D01*
X11580714Y19867620D02*
X11009285Y19867620D01*
X11295000Y19867620D02*
X11295000Y20867620D01*
X11199761Y20724762D01*
X11104523Y20629524D01*
X11009285Y20581905D01*
X10056904Y22407620D02*
X10056904Y23407620D01*
X10295000Y23407620D01*
X10437857Y23360000D01*
X10533095Y23264762D01*
X10580714Y23169524D01*
X10628333Y22979048D01*
X10628333Y22836191D01*
X10580714Y22645715D01*
X10533095Y22550477D01*
X10437857Y22455239D01*
X10295000Y22407620D01*
X10056904Y22407620D01*
X11009285Y23312381D02*
X11056904Y23360000D01*
X11152142Y23407620D01*
X11390238Y23407620D01*
X11485476Y23360000D01*
X11533095Y23312381D01*
X11580714Y23217143D01*
X11580714Y23121905D01*
X11533095Y22979048D01*
X10961666Y22407620D01*
X11580714Y22407620D01*
X10056904Y24947620D02*
X10056904Y25947620D01*
X10295000Y25947620D01*
X10437857Y25900000D01*
X10533095Y25804762D01*
X10580714Y25709524D01*
X10628333Y25519048D01*
X10628333Y25376191D01*
X10580714Y25185715D01*
X10533095Y25090477D01*
X10437857Y24995239D01*
X10295000Y24947620D01*
X10056904Y24947620D01*
X10961666Y25947620D02*
X11580714Y25947620D01*
X11247380Y25566667D01*
X11390238Y25566667D01*
X11485476Y25519048D01*
X11533095Y25471429D01*
X11580714Y25376191D01*
X11580714Y25138096D01*
X11533095Y25042858D01*
X11485476Y24995239D01*
X11390238Y24947620D01*
X11104523Y24947620D01*
X11009285Y24995239D01*
X10961666Y25042858D01*
X10056904Y27487620D02*
X10056904Y28487620D01*
X10295000Y28487620D01*
X10437857Y28440000D01*
X10533095Y28344762D01*
X10580714Y28249524D01*
X10628333Y28059048D01*
X10628333Y27916191D01*
X10580714Y27725715D01*
X10533095Y27630477D01*
X10437857Y27535239D01*
X10295000Y27487620D01*
X10056904Y27487620D01*
X11485476Y28154286D02*
X11485476Y27487620D01*
X11247380Y28535239D02*
X11009285Y27820953D01*
X11628333Y27820953D01*
X10056904Y30027620D02*
X10056904Y31027620D01*
X10295000Y31027620D01*
X10437857Y30980000D01*
X10533095Y30884762D01*
X10580714Y30789524D01*
X10628333Y30599048D01*
X10628333Y30456191D01*
X10580714Y30265715D01*
X10533095Y30170477D01*
X10437857Y30075239D01*
X10295000Y30027620D01*
X10056904Y30027620D01*
X11533095Y31027620D02*
X11056904Y31027620D01*
X11009285Y30551429D01*
X11056904Y30599048D01*
X11152142Y30646667D01*
X11390238Y30646667D01*
X11485476Y30599048D01*
X11533095Y30551429D01*
X11580714Y30456191D01*
X11580714Y30218096D01*
X11533095Y30122858D01*
X11485476Y30075239D01*
X11390238Y30027620D01*
X11152142Y30027620D01*
X11056904Y30075239D01*
X11009285Y30122858D01*
X10056904Y32567620D02*
X10056904Y33567620D01*
X10295000Y33567620D01*
X10437857Y33520000D01*
X10533095Y33424762D01*
X10580714Y33329524D01*
X10628333Y33139048D01*
X10628333Y32996191D01*
X10580714Y32805715D01*
X10533095Y32710477D01*
X10437857Y32615239D01*
X10295000Y32567620D01*
X10056904Y32567620D01*
X11485476Y33567620D02*
X11295000Y33567620D01*
X11199761Y33520000D01*
X11152142Y33472381D01*
X11056904Y33329524D01*
X11009285Y33139048D01*
X11009285Y32758096D01*
X11056904Y32662858D01*
X11104523Y32615239D01*
X11199761Y32567620D01*
X11390238Y32567620D01*
X11485476Y32615239D01*
X11533095Y32662858D01*
X11580714Y32758096D01*
X11580714Y32996191D01*
X11533095Y33091429D01*
X11485476Y33139048D01*
X11390238Y33186667D01*
X11199761Y33186667D01*
X11104523Y33139048D01*
X11056904Y33091429D01*
X11009285Y32996191D01*
X10080714Y37933334D02*
X10556904Y37933334D01*
X9985476Y37647620D02*
X10318809Y38647620D01*
X10652142Y37647620D01*
X11175952Y38647620D02*
X11271190Y38647620D01*
X11366428Y38600000D01*
X11414047Y38552381D01*
X11461666Y38457143D01*
X11509285Y38266667D01*
X11509285Y38028572D01*
X11461666Y37838096D01*
X11414047Y37742858D01*
X11366428Y37695239D01*
X11271190Y37647620D01*
X11175952Y37647620D01*
X11080714Y37695239D01*
X11033095Y37742858D01*
X10985476Y37838096D01*
X10937857Y38028572D01*
X10937857Y38266667D01*
X10985476Y38457143D01*
X11033095Y38552381D01*
X11080714Y38600000D01*
X11175952Y38647620D01*
X10080714Y40473334D02*
X10556904Y40473334D01*
X9985476Y40187620D02*
X10318809Y41187620D01*
X10652142Y40187620D01*
X11509285Y40187620D02*
X10937857Y40187620D01*
X11223571Y40187620D02*
X11223571Y41187620D01*
X11128333Y41044762D01*
X11033095Y40949524D01*
X10937857Y40901905D01*
X10080714Y43013334D02*
X10556904Y43013334D01*
X9985476Y42727620D02*
X10318809Y43727620D01*
X10652142Y42727620D01*
X10937857Y43632381D02*
X10985476Y43680000D01*
X11080714Y43727620D01*
X11318809Y43727620D01*
X11414047Y43680000D01*
X11461666Y43632381D01*
X11509285Y43537143D01*
X11509285Y43441905D01*
X11461666Y43299048D01*
X10890238Y42727620D01*
X11509285Y42727620D01*
X10080714Y45553334D02*
X10556904Y45553334D01*
X9985476Y45267620D02*
X10318809Y46267620D01*
X10652142Y45267620D01*
X10890238Y46267620D02*
X11509285Y46267620D01*
X11175952Y45886667D01*
X11318809Y45886667D01*
X11414047Y45839048D01*
X11461666Y45791429D01*
X11509285Y45696191D01*
X11509285Y45458096D01*
X11461666Y45362858D01*
X11414047Y45315239D01*
X11318809Y45267620D01*
X11033095Y45267620D01*
X10937857Y45315239D01*
X10890238Y45362858D01*
X10080714Y48093334D02*
X10556904Y48093334D01*
X9985476Y47807620D02*
X10318809Y48807620D01*
X10652142Y47807620D01*
X11414047Y48474286D02*
X11414047Y47807620D01*
X11175952Y48855239D02*
X10937857Y48140953D01*
X11556904Y48140953D01*
X10080714Y50633334D02*
X10556904Y50633334D01*
X9985476Y50347620D02*
X10318809Y51347620D01*
X10652142Y50347620D01*
X11461666Y51347620D02*
X10985476Y51347620D01*
X10937857Y50871429D01*
X10985476Y50919048D01*
X11080714Y50966667D01*
X11318809Y50966667D01*
X11414047Y50919048D01*
X11461666Y50871429D01*
X11509285Y50776191D01*
X11509285Y50538096D01*
X11461666Y50442858D01*
X11414047Y50395239D01*
X11318809Y50347620D01*
X11080714Y50347620D01*
X10985476Y50395239D01*
X10937857Y50442858D01*
X10080714Y53173334D02*
X10556904Y53173334D01*
X9985476Y52887620D02*
X10318809Y53887620D01*
X10652142Y52887620D01*
X11414047Y53887620D02*
X11223571Y53887620D01*
X11128333Y53840000D01*
X11080714Y53792381D01*
X10985476Y53649524D01*
X10937857Y53459048D01*
X10937857Y53078096D01*
X10985476Y52982858D01*
X11033095Y52935239D01*
X11128333Y52887620D01*
X11318809Y52887620D01*
X11414047Y52935239D01*
X11461666Y52982858D01*
X11509285Y53078096D01*
X11509285Y53316191D01*
X11461666Y53411429D01*
X11414047Y53459048D01*
X11318809Y53506667D01*
X11128333Y53506667D01*
X11033095Y53459048D01*
X10985476Y53411429D01*
X10937857Y53316191D01*
X10080714Y55713334D02*
X10556904Y55713334D01*
X9985476Y55427620D02*
X10318809Y56427620D01*
X10652142Y55427620D01*
X10890238Y56427620D02*
X11556904Y56427620D01*
X11128333Y55427620D01*
X9795000Y59335000D02*
X10795000Y59335000D01*
X10604523Y57967620D02*
X10271190Y58443810D01*
X10033095Y57967620D02*
X10033095Y58967620D01*
X10414047Y58967620D01*
X10509285Y58920000D01*
X10556904Y58872381D01*
X10604523Y58777143D01*
X10604523Y58634286D01*
X10556904Y58539048D01*
X10509285Y58491429D01*
X10414047Y58443810D01*
X10033095Y58443810D01*
X10795000Y59335000D02*
X11795000Y59335000D01*
X11033095Y57967620D02*
X11033095Y58967620D01*
X11271190Y58967620D01*
X11414047Y58920000D01*
X11509285Y58824762D01*
X11556904Y58729524D01*
X11604523Y58539048D01*
X11604523Y58396191D01*
X11556904Y58205715D01*
X11509285Y58110477D01*
X11414047Y58015239D01*
X11271190Y57967620D01*
X11033095Y57967620D01*
X9723571Y61875000D02*
X10866428Y61875000D01*
X9866428Y61507620D02*
X10104523Y60507620D01*
X10295000Y61221905D01*
X10485476Y60507620D01*
X10723571Y61507620D01*
X10866428Y61875000D02*
X11866428Y61875000D01*
X11675952Y60507620D02*
X11342619Y60983810D01*
X11104523Y60507620D02*
X11104523Y61507620D01*
X11485476Y61507620D01*
X11580714Y61460000D01*
X11628333Y61412381D01*
X11675952Y61317143D01*
X11675952Y61174286D01*
X11628333Y61079048D01*
X11580714Y61031429D01*
X11485476Y60983810D01*
X11104523Y60983810D01*
D10*
X9771190Y64350000D02*
X10342619Y64350000D01*
X9890238Y63047620D02*
X9890238Y64047620D01*
X10056904Y63333334D01*
X10223571Y64047620D01*
X10223571Y63047620D01*
X10342619Y64350000D02*
X10842619Y64350000D01*
X10747380Y63047620D02*
X10580714Y63523810D01*
X10461666Y63047620D02*
X10461666Y64047620D01*
X10652142Y64047620D01*
X10699761Y64000000D01*
X10723571Y63952381D01*
X10747380Y63857143D01*
X10747380Y63714286D01*
X10723571Y63619048D01*
X10699761Y63571429D01*
X10652142Y63523810D01*
X10461666Y63523810D01*
X10842619Y64350000D02*
X11295000Y64350000D01*
X10961666Y63571429D02*
X11128333Y63571429D01*
X11199761Y63047620D02*
X10961666Y63047620D01*
X10961666Y64047620D01*
X11199761Y64047620D01*
X11295000Y64350000D02*
X11818809Y64350000D01*
X11747380Y62952381D02*
X11699761Y63000000D01*
X11652142Y63095239D01*
X11580714Y63238096D01*
X11533095Y63285715D01*
X11485476Y63285715D01*
X11509285Y63047620D02*
X11461666Y63095239D01*
X11414047Y63190477D01*
X11390238Y63380953D01*
X11390238Y63714286D01*
X11414047Y63904762D01*
X11461666Y64000000D01*
X11509285Y64047620D01*
X11604523Y64047620D01*
X11652142Y64000000D01*
X11699761Y63904762D01*
X11723571Y63714286D01*
X11723571Y63380953D01*
X11699761Y63190477D01*
X11652142Y63095239D01*
X11604523Y63047620D01*
X11509285Y63047620D01*
X9675952Y66890000D02*
X9914047Y66890000D01*
X9795000Y65587620D02*
X9795000Y66587620D01*
X9914047Y66890000D02*
X10437857Y66890000D01*
X10128333Y66587620D02*
X10223571Y66587620D01*
X10271190Y66540000D01*
X10318809Y66444762D01*
X10342619Y66254286D01*
X10342619Y65920953D01*
X10318809Y65730477D01*
X10271190Y65635239D01*
X10223571Y65587620D01*
X10128333Y65587620D01*
X10080714Y65635239D01*
X10033095Y65730477D01*
X10009285Y65920953D01*
X10009285Y66254286D01*
X10033095Y66444762D01*
X10080714Y66540000D01*
X10128333Y66587620D01*
X10437857Y66890000D02*
X10937857Y66890000D01*
X10842619Y65587620D02*
X10675952Y66063810D01*
X10556904Y65587620D02*
X10556904Y66587620D01*
X10747380Y66587620D01*
X10795000Y66540000D01*
X10818809Y66492381D01*
X10842619Y66397143D01*
X10842619Y66254286D01*
X10818809Y66159048D01*
X10795000Y66111429D01*
X10747380Y66063810D01*
X10556904Y66063810D01*
X10937857Y66890000D02*
X11390238Y66890000D01*
X11056904Y66111429D02*
X11223571Y66111429D01*
X11295000Y65587620D02*
X11056904Y65587620D01*
X11056904Y66587620D01*
X11295000Y66587620D01*
X11390238Y66890000D02*
X11914047Y66890000D01*
X11842619Y65492381D02*
X11795000Y65540000D01*
X11747380Y65635239D01*
X11675952Y65778096D01*
X11628333Y65825715D01*
X11580714Y65825715D01*
X11604523Y65587620D02*
X11556904Y65635239D01*
X11509285Y65730477D01*
X11485476Y65920953D01*
X11485476Y66254286D01*
X11509285Y66444762D01*
X11556904Y66540000D01*
X11604523Y66587620D01*
X11699761Y66587620D01*
X11747380Y66540000D01*
X11795000Y66444762D01*
X11818809Y66254286D01*
X11818809Y65920953D01*
X11795000Y65730477D01*
X11747380Y65635239D01*
X11699761Y65587620D01*
X11604523Y65587620D01*
D12*
X42457857Y56650953D02*
X45457857Y56650953D01*
X45457857Y55698572D01*
X45315000Y55460477D01*
X45172142Y55341429D01*
X44886428Y55222381D01*
X44457857Y55222381D01*
X44172142Y55341429D01*
X44029285Y55460477D01*
X43886428Y55698572D01*
X43886428Y56650953D01*
X42743571Y52722381D02*
X42600714Y52841429D01*
X42457857Y53198572D01*
X42457857Y53436667D01*
X42600714Y53793810D01*
X42886428Y54031905D01*
X43172142Y54150953D01*
X43743571Y54270000D01*
X44172142Y54270000D01*
X44743571Y54150953D01*
X45029285Y54031905D01*
X45315000Y53793810D01*
X45457857Y53436667D01*
X45457857Y53198572D01*
X45315000Y52841429D01*
X45172142Y52722381D01*
X43600714Y51650953D02*
X43600714Y49746191D01*
X44172142Y48198572D02*
X44315000Y48436667D01*
X44457857Y48555715D01*
X44743571Y48674762D01*
X44886428Y48674762D01*
X45172142Y48555715D01*
X45315000Y48436667D01*
X45457857Y48198572D01*
X45457857Y47722381D01*
X45315000Y47484286D01*
X45172142Y47365239D01*
X44886428Y47246191D01*
X44743571Y47246191D01*
X44457857Y47365239D01*
X44315000Y47484286D01*
X44172142Y47722381D01*
X44172142Y48198572D01*
X44029285Y48436667D01*
X43886428Y48555715D01*
X43600714Y48674762D01*
X43029285Y48674762D01*
X42743571Y48555715D01*
X42600714Y48436667D01*
X42457857Y48198572D01*
X42457857Y47722381D01*
X42600714Y47484286D01*
X42743571Y47365239D01*
X43029285Y47246191D01*
X43600714Y47246191D01*
X43886428Y47365239D01*
X44029285Y47484286D01*
X44172142Y47722381D01*
X45457857Y45698572D02*
X45457857Y45460477D01*
X45315000Y45222381D01*
X45172142Y45103334D01*
X44886428Y44984286D01*
X44315000Y44865239D01*
X43600714Y44865239D01*
X43029285Y44984286D01*
X42743571Y45103334D01*
X42600714Y45222381D01*
X42457857Y45460477D01*
X42457857Y45698572D01*
X42600714Y45936667D01*
X42743571Y46055715D01*
X43029285Y46174762D01*
X43600714Y46293810D01*
X44315000Y46293810D01*
X44886428Y46174762D01*
X45172142Y46055715D01*
X45315000Y45936667D01*
X45457857Y45698572D01*
X45457857Y43317620D02*
X45457857Y43079524D01*
X45315000Y42841429D01*
X45172142Y42722381D01*
X44886428Y42603334D01*
X44315000Y42484286D01*
X43600714Y42484286D01*
X43029285Y42603334D01*
X42743571Y42722381D01*
X42600714Y42841429D01*
X42457857Y43079524D01*
X42457857Y43317620D01*
X42600714Y43555715D01*
X42743571Y43674762D01*
X43029285Y43793810D01*
X43600714Y43912858D01*
X44315000Y43912858D01*
X44886428Y43793810D01*
X45172142Y43674762D01*
X45315000Y43555715D01*
X45457857Y43317620D01*
X42457857Y40103334D02*
X42457857Y41531905D01*
X42457857Y40817620D02*
X45457857Y40817620D01*
X45029285Y41055715D01*
X44743571Y41293810D01*
X44600714Y41531905D01*
X45457857Y37365239D02*
X45457857Y35817620D01*
X44315000Y36650953D01*
X44315000Y36293810D01*
X44172142Y36055715D01*
X44029285Y35936667D01*
X43743571Y35817620D01*
X43029285Y35817620D01*
X42743571Y35936667D01*
X42600714Y36055715D01*
X42457857Y36293810D01*
X42457857Y37008096D01*
X42600714Y37246191D01*
X42743571Y37365239D01*
X45172142Y34865239D02*
X45315000Y34746191D01*
X45457857Y34508096D01*
X45457857Y33912858D01*
X45315000Y33674762D01*
X45172142Y33555715D01*
X44886428Y33436667D01*
X44600714Y33436667D01*
X44172142Y33555715D01*
X42457857Y34984286D01*
X42457857Y33436667D01*
X42457857Y32365239D02*
X45457857Y32365239D01*
X42457857Y30936667D02*
X44172142Y32008096D01*
X45457857Y30936667D02*
X43743571Y32365239D01*
X42457857Y28436667D02*
X43886428Y29270000D01*
X42457857Y29865239D02*
X45457857Y29865239D01*
X45457857Y28912858D01*
X45315000Y28674762D01*
X45172142Y28555715D01*
X44886428Y28436667D01*
X44457857Y28436667D01*
X44172142Y28555715D01*
X44029285Y28674762D01*
X43886428Y28912858D01*
X43886428Y29865239D01*
X43315000Y27484286D02*
X43315000Y26293810D01*
X42457857Y27722381D02*
X45457857Y26889048D01*
X42457857Y26055715D01*
X42457857Y25222381D02*
X45457857Y25222381D01*
X43315000Y24389048D01*
X45457857Y23555715D01*
X42457857Y23555715D01*
X44029285Y19627143D02*
X43886428Y19270000D01*
X43743571Y19150953D01*
X43457857Y19031905D01*
X43029285Y19031905D01*
X42743571Y19150953D01*
X42600714Y19270000D01*
X42457857Y19508096D01*
X42457857Y20460477D01*
X45457857Y20460477D01*
X45457857Y19627143D01*
X45315000Y19389048D01*
X45172142Y19270000D01*
X44886428Y19150953D01*
X44600714Y19150953D01*
X44315000Y19270000D01*
X44172142Y19389048D01*
X44029285Y19627143D01*
X44029285Y20460477D01*
X45457857Y17484286D02*
X45457857Y17008096D01*
X45315000Y16770000D01*
X45029285Y16531905D01*
X44457857Y16412858D01*
X43457857Y16412858D01*
X42886428Y16531905D01*
X42600714Y16770000D01*
X42457857Y17008096D01*
X42457857Y17484286D01*
X42600714Y17722381D01*
X42886428Y17960477D01*
X43457857Y18079524D01*
X44457857Y18079524D01*
X45029285Y17960477D01*
X45315000Y17722381D01*
X45457857Y17484286D01*
X43315000Y15460477D02*
X43315000Y14270000D01*
X42457857Y15698572D02*
X45457857Y14865239D01*
X42457857Y14031905D01*
X42457857Y11770000D02*
X43886428Y12603334D01*
X42457857Y13198572D02*
X45457857Y13198572D01*
X45457857Y12246191D01*
X45315000Y12008096D01*
X45172142Y11889048D01*
X44886428Y11770000D01*
X44457857Y11770000D01*
X44172142Y11889048D01*
X44029285Y12008096D01*
X43886428Y12246191D01*
X43886428Y13198572D01*
X42457857Y10698572D02*
X45457857Y10698572D01*
X45457857Y10103334D01*
X45315000Y9746191D01*
X45029285Y9508096D01*
X44743571Y9389048D01*
X44172142Y9270000D01*
X43743571Y9270000D01*
X43172142Y9389048D01*
X42886428Y9508096D01*
X42600714Y9746191D01*
X42457857Y10103334D01*
X42457857Y10698572D01*
D13*
X17385000Y7480000D02*
G75*
G03*
X17385000Y7480000I-2620000J0D01*
G01*
X17345000Y7480000D02*
X12185000Y7480000D01*
X17345000Y7440000D02*
X12185000Y7440000D01*
X17344000Y7400000D02*
X12186000Y7400000D01*
X17343000Y7360000D02*
X12187000Y7360000D01*
X17341000Y7320000D02*
X12189000Y7320000D01*
X17338000Y7280000D02*
X12192000Y7280000D01*
X17334000Y7240000D02*
X15805000Y7240000D01*
X13725000Y7240000D02*
X12196000Y7240000D01*
X17330000Y7200000D02*
X15805000Y7200000D01*
X13725000Y7200000D02*
X12200000Y7200000D01*
X17326000Y7160000D02*
X15805000Y7160000D01*
X13725000Y7160000D02*
X12204000Y7160000D01*
X17321000Y7120000D02*
X15805000Y7120000D01*
X13725000Y7120000D02*
X12209000Y7120000D01*
X17315000Y7080000D02*
X15805000Y7080000D01*
X13725000Y7080000D02*
X12215000Y7080000D01*
X17308000Y7040000D02*
X15805000Y7040000D01*
X13725000Y7040000D02*
X12222000Y7040000D01*
X17301000Y7000000D02*
X15805000Y7000000D01*
X13725000Y7000000D02*
X12229000Y7000000D01*
X17293000Y6960000D02*
X15805000Y6960000D01*
X13725000Y6960000D02*
X12237000Y6960000D01*
X17285000Y6920000D02*
X15805000Y6920000D01*
X13725000Y6920000D02*
X12245000Y6920000D01*
X17276000Y6880000D02*
X15805000Y6880000D01*
X13725000Y6880000D02*
X12254000Y6880000D01*
X17266000Y6840000D02*
X15805000Y6840000D01*
X13725000Y6840000D02*
X12264000Y6840000D01*
X17256000Y6800000D02*
X15805000Y6800000D01*
X13725000Y6800000D02*
X12274000Y6800000D01*
X17245000Y6759000D02*
X15805000Y6759000D01*
X13725000Y6759000D02*
X12285000Y6759000D01*
X17233000Y6719000D02*
X15805000Y6719000D01*
X13725000Y6719000D02*
X12297000Y6719000D01*
X17220000Y6679000D02*
X15805000Y6679000D01*
X13725000Y6679000D02*
X12310000Y6679000D01*
X17207000Y6639000D02*
X15805000Y6639000D01*
X13725000Y6639000D02*
X12323000Y6639000D01*
X17193000Y6599000D02*
X15805000Y6599000D01*
X13725000Y6599000D02*
X12337000Y6599000D01*
X17179000Y6559000D02*
X15805000Y6559000D01*
X13725000Y6559000D02*
X12351000Y6559000D01*
X17163000Y6519000D02*
X15805000Y6519000D01*
X13725000Y6519000D02*
X12367000Y6519000D01*
X17147000Y6479000D02*
X15805000Y6479000D01*
X13725000Y6479000D02*
X12383000Y6479000D01*
X17130000Y6439000D02*
X15805000Y6439000D01*
X13725000Y6439000D02*
X12400000Y6439000D01*
X17113000Y6399000D02*
X15805000Y6399000D01*
X13725000Y6399000D02*
X12417000Y6399000D01*
X17094000Y6359000D02*
X15805000Y6359000D01*
X13725000Y6359000D02*
X12436000Y6359000D01*
X17075000Y6319000D02*
X15805000Y6319000D01*
X13725000Y6319000D02*
X12455000Y6319000D01*
X17055000Y6279000D02*
X15805000Y6279000D01*
X13725000Y6279000D02*
X12475000Y6279000D01*
X17033000Y6239000D02*
X15805000Y6239000D01*
X13725000Y6239000D02*
X12497000Y6239000D01*
X17012000Y6199000D02*
X15805000Y6199000D01*
X13725000Y6199000D02*
X12518000Y6199000D01*
X16989000Y6159000D02*
X15805000Y6159000D01*
X13725000Y6159000D02*
X12541000Y6159000D01*
X16965000Y6119000D02*
X15805000Y6119000D01*
X13725000Y6119000D02*
X12565000Y6119000D01*
X16940000Y6079000D02*
X15805000Y6079000D01*
X13725000Y6079000D02*
X12590000Y6079000D01*
X16914000Y6039000D02*
X15805000Y6039000D01*
X13725000Y6039000D02*
X12616000Y6039000D01*
X16887000Y5999000D02*
X15805000Y5999000D01*
X13725000Y5999000D02*
X12643000Y5999000D01*
X16860000Y5959000D02*
X15805000Y5959000D01*
X13725000Y5959000D02*
X12670000Y5959000D01*
X16830000Y5919000D02*
X15805000Y5919000D01*
X13725000Y5919000D02*
X12700000Y5919000D01*
X16800000Y5879000D02*
X15805000Y5879000D01*
X13725000Y5879000D02*
X12730000Y5879000D01*
X16769000Y5839000D02*
X15805000Y5839000D01*
X13725000Y5839000D02*
X12761000Y5839000D01*
X16736000Y5799000D02*
X15805000Y5799000D01*
X13725000Y5799000D02*
X12794000Y5799000D01*
X16702000Y5759000D02*
X15805000Y5759000D01*
X13725000Y5759000D02*
X12828000Y5759000D01*
X16666000Y5719000D02*
X15805000Y5719000D01*
X13725000Y5719000D02*
X12864000Y5719000D01*
X16629000Y5679000D02*
X15805000Y5679000D01*
X13725000Y5679000D02*
X12901000Y5679000D01*
X16591000Y5639000D02*
X15805000Y5639000D01*
X13725000Y5639000D02*
X12939000Y5639000D01*
X16550000Y5599000D02*
X15805000Y5599000D01*
X13725000Y5599000D02*
X12980000Y5599000D01*
X16508000Y5559000D02*
X15805000Y5559000D01*
X13725000Y5559000D02*
X13022000Y5559000D01*
X16464000Y5519000D02*
X15805000Y5519000D01*
X13725000Y5519000D02*
X13066000Y5519000D01*
X16418000Y5479000D02*
X15805000Y5479000D01*
X13725000Y5479000D02*
X13112000Y5479000D01*
X16370000Y5439000D02*
X15805000Y5439000D01*
X13725000Y5439000D02*
X13160000Y5439000D01*
X16319000Y5399000D02*
X15805000Y5399000D01*
X13725000Y5399000D02*
X13211000Y5399000D01*
X16265000Y5359000D02*
X15805000Y5359000D01*
X13725000Y5359000D02*
X13265000Y5359000D01*
X16208000Y5319000D02*
X15805000Y5319000D01*
X13725000Y5319000D02*
X13322000Y5319000D01*
X16148000Y5279000D02*
X15805000Y5279000D01*
X13725000Y5279000D02*
X13382000Y5279000D01*
X16084000Y5239000D02*
X15805000Y5239000D01*
X13725000Y5239000D02*
X13446000Y5239000D01*
X16016000Y5199000D02*
X15805000Y5199000D01*
X13725000Y5199000D02*
X13514000Y5199000D01*
X15943000Y5159000D02*
X13587000Y5159000D01*
X15863000Y5119000D02*
X13667000Y5119000D01*
X15776000Y5079000D02*
X13754000Y5079000D01*
X15680000Y5039000D02*
X13850000Y5039000D01*
X15570000Y4999000D02*
X13960000Y4999000D01*
X15442000Y4959000D02*
X14088000Y4959000D01*
X15283000Y4919000D02*
X14247000Y4919000D01*
X15049000Y4879000D02*
X14481000Y4879000D01*
X16240000Y10284775D02*
X16240000Y9784775D01*
X16490000Y10034775D02*
X15990000Y10034775D01*
X4275000Y13910000D02*
X4275000Y77530000D01*
X4275000Y77530000D02*
X1615000Y77530000D01*
X1615000Y77530000D02*
X1615000Y13910000D01*
X1615000Y13910000D02*
X4275000Y13910000D01*
X1615000Y14860000D02*
X-4385000Y14860000D01*
X-4385000Y14860000D02*
X-4385000Y15620000D01*
X-4385000Y15620000D02*
X1615000Y15620000D01*
X1615000Y14920000D02*
X-4385000Y14920000D01*
X1615000Y15040000D02*
X-4385000Y15040000D01*
X1615000Y15160000D02*
X-4385000Y15160000D01*
X1615000Y15280000D02*
X-4385000Y15280000D01*
X1615000Y15400000D02*
X-4385000Y15400000D01*
X1615000Y15520000D02*
X-4385000Y15520000D01*
X4672071Y14860000D02*
X4275000Y14860000D01*
X4672071Y15620000D02*
X4275000Y15620000D01*
X7145000Y14860000D02*
X6757929Y14860000D01*
X7145000Y15620000D02*
X6757929Y15620000D01*
X4275000Y16510000D02*
X1615000Y16510000D01*
X1615000Y17400000D02*
X-4385000Y17400000D01*
X-4385000Y17400000D02*
X-4385000Y18160000D01*
X-4385000Y18160000D02*
X1615000Y18160000D01*
X4672071Y17400000D02*
X4275000Y17400000D01*
X4672071Y18160000D02*
X4275000Y18160000D01*
X7212071Y17400000D02*
X6757929Y17400000D01*
X7212071Y18160000D02*
X6757929Y18160000D01*
X4275000Y19050000D02*
X1615000Y19050000D01*
X1615000Y19940000D02*
X-4385000Y19940000D01*
X-4385000Y19940000D02*
X-4385000Y20700000D01*
X-4385000Y20700000D02*
X1615000Y20700000D01*
X4672071Y19940000D02*
X4275000Y19940000D01*
X4672071Y20700000D02*
X4275000Y20700000D01*
X7212071Y19940000D02*
X6757929Y19940000D01*
X7212071Y20700000D02*
X6757929Y20700000D01*
X4275000Y21590000D02*
X1615000Y21590000D01*
X1615000Y22480000D02*
X-4385000Y22480000D01*
X-4385000Y22480000D02*
X-4385000Y23240000D01*
X-4385000Y23240000D02*
X1615000Y23240000D01*
X4672071Y22480000D02*
X4275000Y22480000D01*
X4672071Y23240000D02*
X4275000Y23240000D01*
X7212071Y22480000D02*
X6757929Y22480000D01*
X7212071Y23240000D02*
X6757929Y23240000D01*
X4275000Y24130000D02*
X1615000Y24130000D01*
X1615000Y25020000D02*
X-4385000Y25020000D01*
X-4385000Y25020000D02*
X-4385000Y25780000D01*
X-4385000Y25780000D02*
X1615000Y25780000D01*
X4672071Y25020000D02*
X4275000Y25020000D01*
X4672071Y25780000D02*
X4275000Y25780000D01*
X7212071Y25020000D02*
X6757929Y25020000D01*
X7212071Y25780000D02*
X6757929Y25780000D01*
X4275000Y26670000D02*
X1615000Y26670000D01*
X1615000Y27560000D02*
X-4385000Y27560000D01*
X-4385000Y27560000D02*
X-4385000Y28320000D01*
X-4385000Y28320000D02*
X1615000Y28320000D01*
X4672071Y27560000D02*
X4275000Y27560000D01*
X4672071Y28320000D02*
X4275000Y28320000D01*
X7212071Y27560000D02*
X6757929Y27560000D01*
X7212071Y28320000D02*
X6757929Y28320000D01*
X4275000Y29210000D02*
X1615000Y29210000D01*
X1615000Y30100000D02*
X-4385000Y30100000D01*
X-4385000Y30100000D02*
X-4385000Y30860000D01*
X-4385000Y30860000D02*
X1615000Y30860000D01*
X4672071Y30100000D02*
X4275000Y30100000D01*
X4672071Y30860000D02*
X4275000Y30860000D01*
X7212071Y30100000D02*
X6757929Y30100000D01*
X7212071Y30860000D02*
X6757929Y30860000D01*
X4275000Y31750000D02*
X1615000Y31750000D01*
X1615000Y32640000D02*
X-4385000Y32640000D01*
X-4385000Y32640000D02*
X-4385000Y33400000D01*
X-4385000Y33400000D02*
X1615000Y33400000D01*
X4672071Y32640000D02*
X4275000Y32640000D01*
X4672071Y33400000D02*
X4275000Y33400000D01*
X7212071Y32640000D02*
X6757929Y32640000D01*
X7212071Y33400000D02*
X6757929Y33400000D01*
X4275000Y34290000D02*
X1615000Y34290000D01*
X1615000Y35180000D02*
X-4385000Y35180000D01*
X-4385000Y35180000D02*
X-4385000Y35940000D01*
X-4385000Y35940000D02*
X1615000Y35940000D01*
X4672071Y35180000D02*
X4275000Y35180000D01*
X4672071Y35940000D02*
X4275000Y35940000D01*
X7212071Y35180000D02*
X6757929Y35180000D01*
X7212071Y35940000D02*
X6757929Y35940000D01*
X4275000Y36830000D02*
X1615000Y36830000D01*
X1615000Y37720000D02*
X-4385000Y37720000D01*
X-4385000Y37720000D02*
X-4385000Y38480000D01*
X-4385000Y38480000D02*
X1615000Y38480000D01*
X4672071Y37720000D02*
X4275000Y37720000D01*
X4672071Y38480000D02*
X4275000Y38480000D01*
X7212071Y37720000D02*
X6757929Y37720000D01*
X7212071Y38480000D02*
X6757929Y38480000D01*
X4275000Y39370000D02*
X1615000Y39370000D01*
X1615000Y40260000D02*
X-4385000Y40260000D01*
X-4385000Y40260000D02*
X-4385000Y41020000D01*
X-4385000Y41020000D02*
X1615000Y41020000D01*
X4672071Y40260000D02*
X4275000Y40260000D01*
X4672071Y41020000D02*
X4275000Y41020000D01*
X7212071Y40260000D02*
X6757929Y40260000D01*
X7212071Y41020000D02*
X6757929Y41020000D01*
X4275000Y41910000D02*
X1615000Y41910000D01*
X1615000Y42800000D02*
X-4385000Y42800000D01*
X-4385000Y42800000D02*
X-4385000Y43560000D01*
X-4385000Y43560000D02*
X1615000Y43560000D01*
X4672071Y42800000D02*
X4275000Y42800000D01*
X4672071Y43560000D02*
X4275000Y43560000D01*
X7212071Y42800000D02*
X6757929Y42800000D01*
X7212071Y43560000D02*
X6757929Y43560000D01*
X4275000Y44450000D02*
X1615000Y44450000D01*
X1615000Y45340000D02*
X-4385000Y45340000D01*
X-4385000Y45340000D02*
X-4385000Y46100000D01*
X-4385000Y46100000D02*
X1615000Y46100000D01*
X4672071Y45340000D02*
X4275000Y45340000D01*
X4672071Y46100000D02*
X4275000Y46100000D01*
X7212071Y45340000D02*
X6757929Y45340000D01*
X7212071Y46100000D02*
X6757929Y46100000D01*
X4275000Y46990000D02*
X1615000Y46990000D01*
X1615000Y47880000D02*
X-4385000Y47880000D01*
X-4385000Y47880000D02*
X-4385000Y48640000D01*
X-4385000Y48640000D02*
X1615000Y48640000D01*
X4672071Y47880000D02*
X4275000Y47880000D01*
X4672071Y48640000D02*
X4275000Y48640000D01*
X7212071Y47880000D02*
X6757929Y47880000D01*
X7212071Y48640000D02*
X6757929Y48640000D01*
X4275000Y49530000D02*
X1615000Y49530000D01*
X1615000Y50420000D02*
X-4385000Y50420000D01*
X-4385000Y50420000D02*
X-4385000Y51180000D01*
X-4385000Y51180000D02*
X1615000Y51180000D01*
X4672071Y50420000D02*
X4275000Y50420000D01*
X4672071Y51180000D02*
X4275000Y51180000D01*
X7212071Y50420000D02*
X6757929Y50420000D01*
X7212071Y51180000D02*
X6757929Y51180000D01*
X4275000Y52070000D02*
X1615000Y52070000D01*
X1615000Y52960000D02*
X-4385000Y52960000D01*
X-4385000Y52960000D02*
X-4385000Y53720000D01*
X-4385000Y53720000D02*
X1615000Y53720000D01*
X4672071Y52960000D02*
X4275000Y52960000D01*
X4672071Y53720000D02*
X4275000Y53720000D01*
X7212071Y52960000D02*
X6757929Y52960000D01*
X7212071Y53720000D02*
X6757929Y53720000D01*
X4275000Y54610000D02*
X1615000Y54610000D01*
X1615000Y55500000D02*
X-4385000Y55500000D01*
X-4385000Y55500000D02*
X-4385000Y56260000D01*
X-4385000Y56260000D02*
X1615000Y56260000D01*
X4672071Y55500000D02*
X4275000Y55500000D01*
X4672071Y56260000D02*
X4275000Y56260000D01*
X7212071Y55500000D02*
X6757929Y55500000D01*
X7212071Y56260000D02*
X6757929Y56260000D01*
X4275000Y57150000D02*
X1615000Y57150000D01*
X1615000Y58040000D02*
X-4385000Y58040000D01*
X-4385000Y58040000D02*
X-4385000Y58800000D01*
X-4385000Y58800000D02*
X1615000Y58800000D01*
X4672071Y58040000D02*
X4275000Y58040000D01*
X4672071Y58800000D02*
X4275000Y58800000D01*
X7212071Y58040000D02*
X6757929Y58040000D01*
X7212071Y58800000D02*
X6757929Y58800000D01*
X4275000Y59690000D02*
X1615000Y59690000D01*
X1615000Y60580000D02*
X-4385000Y60580000D01*
X-4385000Y60580000D02*
X-4385000Y61340000D01*
X-4385000Y61340000D02*
X1615000Y61340000D01*
X4672071Y60580000D02*
X4275000Y60580000D01*
X4672071Y61340000D02*
X4275000Y61340000D01*
X7212071Y60580000D02*
X6757929Y60580000D01*
X7212071Y61340000D02*
X6757929Y61340000D01*
X4275000Y62230000D02*
X1615000Y62230000D01*
X1615000Y63120000D02*
X-4385000Y63120000D01*
X-4385000Y63120000D02*
X-4385000Y63880000D01*
X-4385000Y63880000D02*
X1615000Y63880000D01*
X4672071Y63120000D02*
X4275000Y63120000D01*
X4672071Y63880000D02*
X4275000Y63880000D01*
X7212071Y63120000D02*
X6757929Y63120000D01*
X7212071Y63880000D02*
X6757929Y63880000D01*
X4275000Y64770000D02*
X1615000Y64770000D01*
X1615000Y65660000D02*
X-4385000Y65660000D01*
X-4385000Y65660000D02*
X-4385000Y66420000D01*
X-4385000Y66420000D02*
X1615000Y66420000D01*
X4672071Y65660000D02*
X4275000Y65660000D01*
X4672071Y66420000D02*
X4275000Y66420000D01*
X7212071Y65660000D02*
X6757929Y65660000D01*
X7212071Y66420000D02*
X6757929Y66420000D01*
X4275000Y67310000D02*
X1615000Y67310000D01*
X1615000Y68200000D02*
X-4385000Y68200000D01*
X-4385000Y68200000D02*
X-4385000Y68960000D01*
X-4385000Y68960000D02*
X1615000Y68960000D01*
X4672071Y68200000D02*
X4275000Y68200000D01*
X4672071Y68960000D02*
X4275000Y68960000D01*
X7212071Y68200000D02*
X6757929Y68200000D01*
X7212071Y68960000D02*
X6757929Y68960000D01*
X4275000Y69850000D02*
X1615000Y69850000D01*
X1615000Y70740000D02*
X-4385000Y70740000D01*
X-4385000Y70740000D02*
X-4385000Y71500000D01*
X-4385000Y71500000D02*
X1615000Y71500000D01*
X4672071Y70740000D02*
X4275000Y70740000D01*
X4672071Y71500000D02*
X4275000Y71500000D01*
X7212071Y70740000D02*
X6757929Y70740000D01*
X7212071Y71500000D02*
X6757929Y71500000D01*
X4275000Y72390000D02*
X1615000Y72390000D01*
X1615000Y73280000D02*
X-4385000Y73280000D01*
X-4385000Y73280000D02*
X-4385000Y74040000D01*
X-4385000Y74040000D02*
X1615000Y74040000D01*
X4672071Y73280000D02*
X4275000Y73280000D01*
X4672071Y74040000D02*
X4275000Y74040000D01*
X7212071Y73280000D02*
X6757929Y73280000D01*
X7212071Y74040000D02*
X6757929Y74040000D01*
X4275000Y74930000D02*
X1615000Y74930000D01*
X1615000Y75820000D02*
X-4385000Y75820000D01*
X-4385000Y75820000D02*
X-4385000Y76580000D01*
X-4385000Y76580000D02*
X1615000Y76580000D01*
X4672071Y75820000D02*
X4275000Y75820000D01*
X4672071Y76580000D02*
X4275000Y76580000D01*
X7212071Y75820000D02*
X6757929Y75820000D01*
X7212071Y76580000D02*
X6757929Y76580000D01*
X9525000Y15240000D02*
X9525000Y13970000D01*
X9525000Y13970000D02*
X8255000Y13970000D01*
X25840000Y88295000D02*
X25840000Y89000000D01*
X25840000Y86260000D02*
X25840000Y86965000D01*
X30080000Y88295000D02*
X30080000Y89000000D01*
X30080000Y86260000D02*
X30080000Y86965000D01*
X30080000Y89000000D02*
X25840000Y89000000D01*
X30080000Y86260000D02*
X25840000Y86260000D01*
X33890000Y48795000D02*
X29650000Y48795000D01*
X33890000Y51535000D02*
X29650000Y51535000D01*
X33890000Y48795000D02*
X33890000Y49500000D01*
X33890000Y50830000D02*
X33890000Y51535000D01*
X29650000Y48795000D02*
X29650000Y49500000D01*
X29650000Y50830000D02*
X29650000Y51535000D01*
X30190000Y85785000D02*
X28940000Y85785000D01*
X30190000Y55185000D02*
X30190000Y85785000D01*
X25690000Y55185000D02*
X30190000Y55185000D01*
X25690000Y85785000D02*
X25690000Y55185000D01*
X26940000Y85785000D02*
X25690000Y85785000D01*
X28940000Y85785000D02*
G75*
G02*
X26940000Y85785000I-1000000J0D01*
G01*
X37810000Y48320000D02*
X32750000Y48320000D01*
X37810000Y12640000D02*
X37810000Y48320000D01*
X25690000Y12640000D02*
X37810000Y12640000D01*
X25690000Y48320000D02*
X25690000Y12640000D01*
X30750000Y48320000D02*
X25690000Y48320000D01*
X32750000Y48320000D02*
G75*
G02*
X30750000Y48320000I-1000000J0D01*
G01*
X42270000Y73005000D02*
X45360000Y73005000D01*
X46315000Y75565000D02*
G75*
G03*
X46315000Y75565000I-2500000J0D01*
G01*
X43815462Y78555000D02*
G75*
G03*
X42270170Y73005000I-462J-2990000D01*
G01*
X43814538Y78555000D02*
G75*
G02*
X45359830Y73005000I462J-2990000D01*
G01*
X46315000Y62865000D02*
G75*
G03*
X46315000Y62865000I-2500000J0D01*
G01*
X45360000Y65425000D02*
X42270000Y65425000D01*
X43815462Y59875000D02*
G75*
G02*
X42270170Y65425000I-462J2990000D01*
G01*
X43814538Y59875000D02*
G75*
G03*
X45359830Y65425000I462J2990000D01*
G01*
X37565000Y64865000D02*
X34825000Y64865000D01*
X34825000Y64865000D02*
X34825000Y58325000D01*
X34825000Y58325000D02*
X37565000Y58325000D01*
X37565000Y58325000D02*
X37565000Y64865000D01*
X36195000Y65635000D02*
X36195000Y64865000D01*
X36195000Y57555000D02*
X36195000Y58325000D01*
X36195000Y78335000D02*
X36195000Y77565000D01*
X36195000Y70255000D02*
X36195000Y71025000D01*
X34825000Y77565000D02*
X34825000Y71025000D01*
X37565000Y77565000D02*
X34825000Y77565000D01*
X37565000Y71025000D02*
X37565000Y77565000D01*
X34825000Y71025000D02*
X37565000Y71025000D01*
X18475000Y77530000D02*
X13275000Y77530000D01*
X18475000Y16510000D02*
X18475000Y77530000D01*
X13275000Y13910000D02*
X13275000Y77530000D01*
X18475000Y16510000D02*
X15875000Y16510000D01*
X15875000Y16510000D02*
X15875000Y13910000D01*
X15875000Y13910000D02*
X13275000Y13910000D01*
X18475000Y15240000D02*
X18475000Y13910000D01*
X18475000Y13910000D02*
X17145000Y13910000D01*
X34000000Y48320000D02*
X32750000Y48320000D01*
X34000000Y12640000D02*
X34000000Y48320000D01*
X29500000Y12640000D02*
X34000000Y12640000D01*
X29500000Y48320000D02*
X29500000Y12640000D01*
X30750000Y48320000D02*
X29500000Y48320000D01*
X32750000Y48320000D02*
G75*
G02*
X30750000Y48320000I-1000000J0D01*
G01*
D11*
X18057857Y7786667D02*
X18010238Y7834286D01*
X17962619Y7977143D01*
X17962619Y8072381D01*
X18010238Y8215239D01*
X18105476Y8310477D01*
X18200714Y8358096D01*
X18391190Y8405715D01*
X18534047Y8405715D01*
X18724523Y8358096D01*
X18819761Y8310477D01*
X18915000Y8215239D01*
X18962619Y8072381D01*
X18962619Y7977143D01*
X18915000Y7834286D01*
X18867380Y7786667D01*
X18962619Y7453334D02*
X18962619Y6834286D01*
X18581666Y7167620D01*
X18581666Y7024762D01*
X18534047Y6929524D01*
X18486428Y6881905D01*
X18391190Y6834286D01*
X18153095Y6834286D01*
X18057857Y6881905D01*
X18010238Y6929524D01*
X17962619Y7024762D01*
X17962619Y7310477D01*
X18010238Y7405715D01*
X18057857Y7453334D01*
X2266666Y13517620D02*
X2266666Y12803334D01*
X2219047Y12660477D01*
X2123809Y12565239D01*
X1980952Y12517620D01*
X1885714Y12517620D01*
X3266666Y12517620D02*
X2695238Y12517620D01*
X2980952Y12517620D02*
X2980952Y13517620D01*
X2885714Y13374762D01*
X2790476Y13279524D01*
X2695238Y13231905D01*
X23772857Y87796667D02*
X23725238Y87844286D01*
X23677619Y87987143D01*
X23677619Y88082381D01*
X23725238Y88225239D01*
X23820476Y88320477D01*
X23915714Y88368096D01*
X24106190Y88415715D01*
X24249047Y88415715D01*
X24439523Y88368096D01*
X24534761Y88320477D01*
X24630000Y88225239D01*
X24677619Y88082381D01*
X24677619Y87987143D01*
X24630000Y87844286D01*
X24582380Y87796667D01*
X23677619Y86844286D02*
X23677619Y87415715D01*
X23677619Y87130000D02*
X24677619Y87130000D01*
X24534761Y87225239D01*
X24439523Y87320477D01*
X24391904Y87415715D01*
X27582857Y50331667D02*
X27535238Y50379286D01*
X27487619Y50522143D01*
X27487619Y50617381D01*
X27535238Y50760239D01*
X27630476Y50855477D01*
X27725714Y50903096D01*
X27916190Y50950715D01*
X28059047Y50950715D01*
X28249523Y50903096D01*
X28344761Y50855477D01*
X28440000Y50760239D01*
X28487619Y50617381D01*
X28487619Y50522143D01*
X28440000Y50379286D01*
X28392380Y50331667D01*
X28392380Y49950715D02*
X28440000Y49903096D01*
X28487619Y49807858D01*
X28487619Y49569762D01*
X28440000Y49474524D01*
X28392380Y49426905D01*
X28297142Y49379286D01*
X28201904Y49379286D01*
X28059047Y49426905D01*
X27487619Y49998334D01*
X27487619Y49379286D01*
X21502619Y77596905D02*
X20693095Y77596905D01*
X20597857Y77549286D01*
X20550238Y77501667D01*
X20502619Y77406429D01*
X20502619Y77215953D01*
X20550238Y77120715D01*
X20597857Y77073096D01*
X20693095Y77025477D01*
X21502619Y77025477D01*
X20502619Y76025477D02*
X20502619Y76596905D01*
X20502619Y76311191D02*
X21502619Y76311191D01*
X21359761Y76406429D01*
X21264523Y76501667D01*
X21216904Y76596905D01*
X22137619Y35686905D02*
X21328095Y35686905D01*
X21232857Y35639286D01*
X21185238Y35591667D01*
X21137619Y35496429D01*
X21137619Y35305953D01*
X21185238Y35210715D01*
X21232857Y35163096D01*
X21328095Y35115477D01*
X22137619Y35115477D01*
X22042380Y34686905D02*
X22090000Y34639286D01*
X22137619Y34544048D01*
X22137619Y34305953D01*
X22090000Y34210715D01*
X22042380Y34163096D01*
X21947142Y34115477D01*
X21851904Y34115477D01*
X21709047Y34163096D01*
X21137619Y34734524D01*
X21137619Y34115477D01*
X39552619Y76303096D02*
X40552619Y76303096D01*
X40552619Y76065000D01*
X40505000Y75922143D01*
X40409761Y75826905D01*
X40314523Y75779286D01*
X40124047Y75731667D01*
X39981190Y75731667D01*
X39790714Y75779286D01*
X39695476Y75826905D01*
X39600238Y75922143D01*
X39552619Y76065000D01*
X39552619Y76303096D01*
X39552619Y74779286D02*
X39552619Y75350715D01*
X39552619Y75065000D02*
X40552619Y75065000D01*
X40409761Y75160239D01*
X40314523Y75255477D01*
X40266904Y75350715D01*
X39552619Y63603096D02*
X40552619Y63603096D01*
X40552619Y63365000D01*
X40505000Y63222143D01*
X40409761Y63126905D01*
X40314523Y63079286D01*
X40124047Y63031667D01*
X39981190Y63031667D01*
X39790714Y63079286D01*
X39695476Y63126905D01*
X39600238Y63222143D01*
X39552619Y63365000D01*
X39552619Y63603096D01*
X40457380Y62650715D02*
X40505000Y62603096D01*
X40552619Y62507858D01*
X40552619Y62269762D01*
X40505000Y62174524D01*
X40457380Y62126905D01*
X40362142Y62079286D01*
X40266904Y62079286D01*
X40124047Y62126905D01*
X39552619Y62698334D01*
X39552619Y62079286D01*
X38282619Y56681667D02*
X38758809Y57015000D01*
X38282619Y57253096D02*
X39282619Y57253096D01*
X39282619Y56872143D01*
X39235000Y56776905D01*
X39187380Y56729286D01*
X39092142Y56681667D01*
X38949285Y56681667D01*
X38854047Y56729286D01*
X38806428Y56776905D01*
X38758809Y56872143D01*
X38758809Y57253096D01*
X38282619Y55729286D02*
X38282619Y56300715D01*
X38282619Y56015000D02*
X39282619Y56015000D01*
X39139761Y56110239D01*
X39044523Y56205477D01*
X38996904Y56300715D01*
X35742619Y82081667D02*
X36218809Y82415000D01*
X35742619Y82653096D02*
X36742619Y82653096D01*
X36742619Y82272143D01*
X36695000Y82176905D01*
X36647380Y82129286D01*
X36552142Y82081667D01*
X36409285Y82081667D01*
X36314047Y82129286D01*
X36266428Y82176905D01*
X36218809Y82272143D01*
X36218809Y82653096D01*
X36647380Y81700715D02*
X36695000Y81653096D01*
X36742619Y81557858D01*
X36742619Y81319762D01*
X36695000Y81224524D01*
X36647380Y81176905D01*
X36552142Y81129286D01*
X36456904Y81129286D01*
X36314047Y81176905D01*
X35742619Y81748334D01*
X35742619Y81129286D01*
X15541666Y13457620D02*
X15541666Y12743334D01*
X15494047Y12600477D01*
X15398809Y12505239D01*
X15255952Y12457620D01*
X15160714Y12457620D01*
X15970238Y13362381D02*
X16017857Y13410000D01*
X16113095Y13457620D01*
X16351190Y13457620D01*
X16446428Y13410000D01*
X16494047Y13362381D01*
X16541666Y13267143D01*
X16541666Y13171905D01*
X16494047Y13029048D01*
X15922619Y12457620D01*
X16541666Y12457620D01*
X30988095Y49867620D02*
X30988095Y49058096D01*
X31035714Y48962858D01*
X31083333Y48915239D01*
X31178571Y48867620D01*
X31369047Y48867620D01*
X31464285Y48915239D01*
X31511904Y48962858D01*
X31559523Y49058096D01*
X31559523Y49867620D01*
X31940476Y49867620D02*
X32559523Y49867620D01*
X32226190Y49486667D01*
X32369047Y49486667D01*
X32464285Y49439048D01*
X32511904Y49391429D01*
X32559523Y49296191D01*
X32559523Y49058096D01*
X32511904Y48962858D01*
X32464285Y48915239D01*
X32369047Y48867620D01*
X32083333Y48867620D01*
X31988095Y48915239D01*
X31940476Y48962858D01*
M02*
