G04 #@! TF.GenerationSoftware,KiCad,Pcbnew,(5.1.9)-1*
G04 #@! TF.CreationDate,2025-08-23T14:44:08+09:00*
G04 #@! TF.ProjectId,PC-8001_RAM,50432d38-3030-4315-9f52-414d2e6b6963,rev?*
G04 #@! TF.SameCoordinates,PX53920b0PY93c3260*
G04 #@! TF.FileFunction,Copper,L1,Top*
G04 #@! TF.FilePolarity,Positive*
%FSLAX46Y46*%
G04 Gerber Fmt 4.6, Leading zero omitted, Abs format (unit mm)*
G04 Created by KiCad (PCBNEW (5.1.9)-1) date 2025-08-23 14:44:08*
%MOMM*%
%LPD*%
G01*
G04 APERTURE LIST*
G04 #@! TA.AperFunction,ComponentPad*
%ADD10R,1.600000X1.600000*%
G04 #@! TD*
G04 #@! TA.AperFunction,ComponentPad*
%ADD11C,1.600000*%
G04 #@! TD*
G04 #@! TA.AperFunction,ComponentPad*
%ADD12R,1.700000X1.700000*%
G04 #@! TD*
G04 #@! TA.AperFunction,ComponentPad*
%ADD13O,1.700000X1.700000*%
G04 #@! TD*
G04 #@! TA.AperFunction,ComponentPad*
%ADD14R,2.400000X1.600000*%
G04 #@! TD*
G04 #@! TA.AperFunction,ComponentPad*
%ADD15O,2.400000X1.600000*%
G04 #@! TD*
G04 #@! TA.AperFunction,ComponentPad*
%ADD16R,1.800000X1.800000*%
G04 #@! TD*
G04 #@! TA.AperFunction,ComponentPad*
%ADD17C,1.800000*%
G04 #@! TD*
G04 #@! TA.AperFunction,ComponentPad*
%ADD18O,1.600000X1.600000*%
G04 #@! TD*
G04 #@! TA.AperFunction,ViaPad*
%ADD19C,0.500000*%
G04 #@! TD*
G04 #@! TA.AperFunction,Conductor*
%ADD20C,0.400000*%
G04 #@! TD*
G04 #@! TA.AperFunction,Conductor*
%ADD21C,0.200000*%
G04 #@! TD*
G04 #@! TA.AperFunction,Conductor*
%ADD22C,0.254000*%
G04 #@! TD*
G04 #@! TA.AperFunction,Conductor*
%ADD23C,0.100000*%
G04 #@! TD*
G04 APERTURE END LIST*
D10*
X14765000Y8730000D03*
D11*
X14765000Y6230000D03*
D12*
X8255000Y15240000D03*
D13*
X5715000Y15240000D03*
X8255000Y17780000D03*
X5715000Y17780000D03*
X8255000Y20320000D03*
X5715000Y20320000D03*
X8255000Y22860000D03*
X5715000Y22860000D03*
X8255000Y25400000D03*
X5715000Y25400000D03*
X8255000Y27940000D03*
X5715000Y27940000D03*
X8255000Y30480000D03*
X5715000Y30480000D03*
X8255000Y33020000D03*
X5715000Y33020000D03*
X8255000Y35560000D03*
X5715000Y35560000D03*
X8255000Y38100000D03*
X5715000Y38100000D03*
X8255000Y40640000D03*
X5715000Y40640000D03*
X8255000Y43180000D03*
X5715000Y43180000D03*
X8255000Y45720000D03*
X5715000Y45720000D03*
X8255000Y48260000D03*
X5715000Y48260000D03*
X8255000Y50800000D03*
X5715000Y50800000D03*
X8255000Y53340000D03*
X5715000Y53340000D03*
X8255000Y55880000D03*
X5715000Y55880000D03*
X8255000Y58420000D03*
X5715000Y58420000D03*
X8255000Y60960000D03*
X5715000Y60960000D03*
X8255000Y63500000D03*
X5715000Y63500000D03*
X8255000Y66040000D03*
X5715000Y66040000D03*
X8255000Y68580000D03*
X5715000Y68580000D03*
X8255000Y71120000D03*
X5715000Y71120000D03*
X8255000Y73660000D03*
X5715000Y73660000D03*
X8255000Y76200000D03*
X5715000Y76200000D03*
D11*
X29210000Y87630000D03*
X26710000Y87630000D03*
X30520000Y50165000D03*
X33020000Y50165000D03*
D14*
X24130000Y84455000D03*
D15*
X31750000Y56515000D03*
X24130000Y81915000D03*
X31750000Y59055000D03*
X24130000Y79375000D03*
X31750000Y61595000D03*
X24130000Y76835000D03*
X31750000Y64135000D03*
X24130000Y74295000D03*
X31750000Y66675000D03*
X24130000Y71755000D03*
X31750000Y69215000D03*
X24130000Y69215000D03*
X31750000Y71755000D03*
X24130000Y66675000D03*
X31750000Y74295000D03*
X24130000Y64135000D03*
X31750000Y76835000D03*
X24130000Y61595000D03*
X31750000Y79375000D03*
X24130000Y59055000D03*
X31750000Y81915000D03*
X24130000Y56515000D03*
X31750000Y84455000D03*
D14*
X24130000Y46990000D03*
D15*
X39370000Y13970000D03*
X24130000Y44450000D03*
X39370000Y16510000D03*
X24130000Y41910000D03*
X39370000Y19050000D03*
X24130000Y39370000D03*
X39370000Y21590000D03*
X24130000Y36830000D03*
X39370000Y24130000D03*
X24130000Y34290000D03*
X39370000Y26670000D03*
X24130000Y31750000D03*
X39370000Y29210000D03*
X24130000Y29210000D03*
X39370000Y31750000D03*
X24130000Y26670000D03*
X39370000Y34290000D03*
X24130000Y24130000D03*
X39370000Y36830000D03*
X24130000Y21590000D03*
X39370000Y39370000D03*
X24130000Y19050000D03*
X39370000Y41910000D03*
X24130000Y16510000D03*
X39370000Y44450000D03*
X24130000Y13970000D03*
X39370000Y46990000D03*
D16*
X43815000Y74295000D03*
D17*
X43815000Y76835000D03*
X43815000Y61595000D03*
D16*
X43815000Y64135000D03*
D18*
X36195000Y56515000D03*
D11*
X36195000Y66675000D03*
X36195000Y69215000D03*
D18*
X36195000Y79375000D03*
D12*
X17145000Y15240000D03*
D13*
X14605000Y15240000D03*
X17145000Y17780000D03*
X14605000Y17780000D03*
X17145000Y20320000D03*
X14605000Y20320000D03*
X17145000Y22860000D03*
X14605000Y22860000D03*
X17145000Y25400000D03*
X14605000Y25400000D03*
X17145000Y27940000D03*
X14605000Y27940000D03*
X17145000Y30480000D03*
X14605000Y30480000D03*
X17145000Y33020000D03*
X14605000Y33020000D03*
X17145000Y35560000D03*
X14605000Y35560000D03*
X17145000Y38100000D03*
X14605000Y38100000D03*
X17145000Y40640000D03*
X14605000Y40640000D03*
X17145000Y43180000D03*
X14605000Y43180000D03*
X17145000Y45720000D03*
X14605000Y45720000D03*
X17145000Y48260000D03*
X14605000Y48260000D03*
X17145000Y50800000D03*
X14605000Y50800000D03*
X17145000Y53340000D03*
X14605000Y53340000D03*
X17145000Y55880000D03*
X14605000Y55880000D03*
X17145000Y58420000D03*
X14605000Y58420000D03*
X17145000Y60960000D03*
X14605000Y60960000D03*
X17145000Y63500000D03*
X14605000Y63500000D03*
X17145000Y66040000D03*
X14605000Y66040000D03*
X17145000Y68580000D03*
X14605000Y68580000D03*
X17145000Y71120000D03*
X14605000Y71120000D03*
X17145000Y73660000D03*
X14605000Y73660000D03*
X17145000Y76200000D03*
X14605000Y76200000D03*
D14*
X27940000Y46990000D03*
D15*
X35560000Y13970000D03*
X27940000Y44450000D03*
X35560000Y16510000D03*
X27940000Y41910000D03*
X35560000Y19050000D03*
X27940000Y39370000D03*
X35560000Y21590000D03*
X27940000Y36830000D03*
X35560000Y24130000D03*
X27940000Y34290000D03*
X35560000Y26670000D03*
X27940000Y31750000D03*
X35560000Y29210000D03*
X27940000Y29210000D03*
X35560000Y31750000D03*
X27940000Y26670000D03*
X35560000Y34290000D03*
X27940000Y24130000D03*
X35560000Y36830000D03*
X27940000Y21590000D03*
X35560000Y39370000D03*
X27940000Y19050000D03*
X35560000Y41910000D03*
X27940000Y16510000D03*
X35560000Y44450000D03*
X27940000Y13970000D03*
X35560000Y46990000D03*
D19*
X19240300Y41065700D03*
X19574900Y38083600D03*
X21978500Y46209600D03*
X22415800Y47668300D03*
X25630700Y48266600D03*
D20*
X17145000Y15240000D02*
X18395300Y15240000D01*
X37465000Y46990000D02*
X37465000Y13713700D01*
X37465000Y13713700D02*
X36030200Y12278900D01*
X36030200Y12278900D02*
X21356400Y12278900D01*
X21356400Y12278900D02*
X18395300Y15240000D01*
X37465000Y46990000D02*
X39370000Y46990000D01*
X35560000Y46990000D02*
X37465000Y46990000D01*
X31750000Y84772500D02*
X33380200Y83142300D01*
X33380200Y83142300D02*
X33380200Y50525200D01*
X33380200Y50525200D02*
X33020000Y50165000D01*
X31750000Y84772500D02*
X31750000Y84455000D01*
X29210000Y87630000D02*
X31750000Y85090000D01*
X31750000Y85090000D02*
X31750000Y84772500D01*
X17145000Y15240000D02*
X17145000Y11110000D01*
X17145000Y11110000D02*
X14765000Y8730000D01*
X8255000Y15240000D02*
X9505000Y13990000D01*
X9505000Y13990000D02*
X15895000Y13990000D01*
X15895000Y13990000D02*
X17145000Y15240000D01*
X33020000Y50165000D02*
X35560000Y47625000D01*
X35560000Y47625000D02*
X35560000Y46990000D01*
X6965300Y75681900D02*
X6965300Y76200000D01*
X14605000Y74930000D02*
X7717200Y74930000D01*
X7717200Y74930000D02*
X6965300Y75681900D01*
X6965300Y75681900D02*
X6193700Y74910300D01*
X6193700Y74910300D02*
X5715000Y74910300D01*
X5715000Y73660000D02*
X5715000Y74910300D01*
X14605000Y74930000D02*
X14605000Y73660000D01*
X14605000Y76200000D02*
X14605000Y74930000D01*
X5715000Y76200000D02*
X6965300Y76200000D01*
X33959600Y31750000D02*
X33959600Y46725400D01*
X33959600Y46725400D02*
X30520000Y50165000D01*
X34109800Y31750000D02*
X33959600Y31750000D01*
X29540300Y13970000D02*
X33959600Y18389300D01*
X33959600Y18389300D02*
X33959600Y31750000D01*
X35560000Y31750000D02*
X34109800Y31750000D01*
X27940000Y13970000D02*
X29540300Y13970000D01*
X43815000Y64135000D02*
X43815000Y74295000D01*
D21*
X27940000Y21590000D02*
X29440300Y21590000D01*
X29440300Y21590000D02*
X30253800Y22403500D01*
X30253800Y22403500D02*
X30253800Y48807800D01*
X30253800Y48807800D02*
X29401300Y49660300D01*
X29401300Y49660300D02*
X29401300Y55666600D01*
X29401300Y55666600D02*
X30249700Y56515000D01*
X27940000Y21590000D02*
X24130000Y21590000D01*
X31750000Y56515000D02*
X30249700Y56515000D01*
X30249700Y59055000D02*
X29000900Y57806200D01*
X29000900Y57806200D02*
X29000900Y49494400D01*
X29000900Y49494400D02*
X29853400Y48641900D01*
X29853400Y48641900D02*
X29853400Y26627000D01*
X29853400Y26627000D02*
X28626400Y25400000D01*
X28626400Y25400000D02*
X27172800Y25400000D01*
X27172800Y25400000D02*
X26337500Y24564700D01*
X26337500Y24564700D02*
X26337500Y24342800D01*
X26337500Y24342800D02*
X24685100Y22690400D01*
X24685100Y22690400D02*
X23237500Y22690400D01*
X23237500Y22690400D02*
X22550500Y22003400D01*
X22550500Y22003400D02*
X22550500Y20629500D01*
X22550500Y20629500D02*
X24130000Y19050000D01*
X31750000Y59055000D02*
X30249700Y59055000D01*
X17145000Y20320000D02*
X15994700Y20320000D01*
X8255000Y20320000D02*
X9405300Y20320000D01*
X9405300Y20320000D02*
X10595900Y19129400D01*
X10595900Y19129400D02*
X15042400Y19129400D01*
X15042400Y19129400D02*
X15994700Y20081700D01*
X15994700Y20081700D02*
X15994700Y20320000D01*
X17145000Y22860000D02*
X17145000Y21709700D01*
X24130000Y16510000D02*
X22629700Y16510000D01*
X22629700Y16510000D02*
X17430000Y21709700D01*
X17430000Y21709700D02*
X17145000Y21709700D01*
X17145000Y25400000D02*
X17145000Y24249700D01*
X35560000Y13970000D02*
X34059700Y13970000D01*
X34059700Y13970000D02*
X32937100Y12847400D01*
X32937100Y12847400D02*
X27072500Y12847400D01*
X27072500Y12847400D02*
X25865400Y14054500D01*
X25865400Y14054500D02*
X25865400Y16798600D01*
X25865400Y16798600D02*
X24884000Y17780000D01*
X24884000Y17780000D02*
X23431000Y17780000D01*
X23431000Y17780000D02*
X18534600Y22676400D01*
X18534600Y22676400D02*
X18534600Y23098400D01*
X18534600Y23098400D02*
X17383300Y24249700D01*
X17383300Y24249700D02*
X17145000Y24249700D01*
X24130000Y59055000D02*
X24130000Y58561400D01*
X24130000Y58561400D02*
X22229400Y56660800D01*
X22229400Y56660800D02*
X22229400Y49392600D01*
X22229400Y49392600D02*
X20627500Y47790700D01*
X20627500Y47790700D02*
X20627500Y39914400D01*
X20627500Y39914400D02*
X18295300Y37582200D01*
X18295300Y37582200D02*
X18295300Y29952900D01*
X18295300Y29952900D02*
X17432700Y29090300D01*
X17432700Y29090300D02*
X17145000Y29090300D01*
X17145000Y27940000D02*
X17145000Y29090300D01*
X17145000Y38100000D02*
X20227200Y41182200D01*
X20227200Y41182200D02*
X20227200Y47956500D01*
X20227200Y47956500D02*
X21829100Y49558400D01*
X21829100Y49558400D02*
X21829100Y56917000D01*
X21829100Y56917000D02*
X22629700Y57717600D01*
X22629700Y57717600D02*
X22629700Y61595000D01*
X17145000Y38100000D02*
X17145000Y36949700D01*
X24130000Y24130000D02*
X22629700Y24130000D01*
X22629700Y24130000D02*
X20089700Y26670000D01*
X20089700Y26670000D02*
X16726500Y26670000D01*
X16726500Y26670000D02*
X15973600Y27422900D01*
X15973600Y27422900D02*
X15973600Y36016700D01*
X15973600Y36016700D02*
X16906600Y36949700D01*
X16906600Y36949700D02*
X17145000Y36949700D01*
X24130000Y61595000D02*
X22629700Y61595000D01*
X15755300Y38100000D02*
X15755300Y38338400D01*
X15755300Y38338400D02*
X16786900Y39370000D01*
X16786900Y39370000D02*
X17544600Y39370000D01*
X17544600Y39370000D02*
X19240300Y41065700D01*
X14605000Y38100000D02*
X15755300Y38100000D01*
X17145000Y41790300D02*
X17432600Y41790300D01*
X17432600Y41790300D02*
X19826900Y44184600D01*
X19826900Y44184600D02*
X19826900Y48405300D01*
X19826900Y48405300D02*
X21428800Y50007200D01*
X21428800Y50007200D02*
X21428800Y57082800D01*
X21428800Y57082800D02*
X22203000Y57857000D01*
X22203000Y57857000D02*
X22203000Y63708300D01*
X22203000Y63708300D02*
X22629700Y64135000D01*
X24130000Y26670000D02*
X22629700Y26670000D01*
X22629700Y26670000D02*
X19574900Y29724800D01*
X19574900Y29724800D02*
X19574900Y38083600D01*
X24130000Y64135000D02*
X22629700Y64135000D01*
X17145000Y40640000D02*
X17145000Y41790300D01*
X5715000Y40640000D02*
X6865300Y40640000D01*
X14605000Y40640000D02*
X13454700Y40640000D01*
X13454700Y40640000D02*
X12264100Y39449400D01*
X12264100Y39449400D02*
X7817500Y39449400D01*
X7817500Y39449400D02*
X6865300Y40401600D01*
X6865300Y40401600D02*
X6865300Y40640000D01*
X17145000Y44330300D02*
X17383300Y44330300D01*
X17383300Y44330300D02*
X19026300Y45973300D01*
X19026300Y45973300D02*
X19026300Y48453900D01*
X19026300Y48453900D02*
X21028500Y50456100D01*
X21028500Y50456100D02*
X21028500Y57248600D01*
X21028500Y57248600D02*
X21802700Y58022800D01*
X21802700Y58022800D02*
X21802700Y65848000D01*
X21802700Y65848000D02*
X22629700Y66675000D01*
X22629700Y29210000D02*
X21027800Y30811900D01*
X21027800Y30811900D02*
X21027800Y47624900D01*
X21027800Y47624900D02*
X25630300Y52227400D01*
X25630300Y52227400D02*
X25630300Y66675000D01*
X24130000Y66675000D02*
X25630300Y66675000D01*
X24130000Y29210000D02*
X22629700Y29210000D01*
X24563500Y29210000D02*
X24130000Y29210000D01*
X24563500Y29210000D02*
X25630300Y29210000D01*
X26439700Y29210000D02*
X25630300Y29210000D01*
X27940000Y29210000D02*
X26439700Y29210000D01*
X17145000Y43180000D02*
X17145000Y44330300D01*
X24130000Y66675000D02*
X22629700Y66675000D01*
X17145000Y46870300D02*
X17401800Y46870300D01*
X17401800Y46870300D02*
X18626000Y48094500D01*
X18626000Y48094500D02*
X18626000Y48619700D01*
X18626000Y48619700D02*
X20628200Y50621900D01*
X20628200Y50621900D02*
X20628200Y57414400D01*
X20628200Y57414400D02*
X21402400Y58188600D01*
X21402400Y58188600D02*
X21402400Y67987700D01*
X21402400Y67987700D02*
X22629700Y69215000D01*
X22629700Y31750000D02*
X21428100Y32951600D01*
X21428100Y32951600D02*
X21428100Y47459100D01*
X21428100Y47459100D02*
X26083800Y52114800D01*
X26083800Y52114800D02*
X26083800Y67261200D01*
X26083800Y67261200D02*
X24130000Y69215000D01*
X24130000Y31750000D02*
X22629700Y31750000D01*
X17145000Y45720000D02*
X17145000Y46870300D01*
X24130000Y69215000D02*
X22629700Y69215000D01*
X17145000Y49410300D02*
X17383300Y49410300D01*
X17383300Y49410300D02*
X19827600Y51854600D01*
X19827600Y51854600D02*
X19827600Y56491800D01*
X19827600Y56491800D02*
X20227900Y56892100D01*
X20227900Y56892100D02*
X20227900Y57580200D01*
X20227900Y57580200D02*
X21002100Y58354400D01*
X21002100Y58354400D02*
X21002100Y68170000D01*
X21002100Y68170000D02*
X24069400Y71237300D01*
X24069400Y71237300D02*
X26548500Y68758100D01*
X26548500Y68758100D02*
X26548500Y51380700D01*
X26548500Y51380700D02*
X28609900Y49319300D01*
X28609900Y49319300D02*
X28609900Y48753200D01*
X28609900Y48753200D02*
X29440300Y47922800D01*
X29440300Y47922800D02*
X29440300Y34290000D01*
X24069400Y71237300D02*
X24069300Y71237300D01*
X24069300Y71237300D02*
X24069300Y71315900D01*
X24069300Y71315900D02*
X24130000Y71376600D01*
X24130000Y71376600D02*
X24130000Y71755000D01*
X27940000Y34290000D02*
X29440300Y34290000D01*
X27940000Y34290000D02*
X24130000Y34290000D01*
X17145000Y48260000D02*
X17145000Y49410300D01*
X17145000Y51950300D02*
X17432600Y51950300D01*
X17432600Y51950300D02*
X19427300Y53945000D01*
X19427300Y53945000D02*
X19427300Y57345700D01*
X19427300Y57345700D02*
X20601800Y58520200D01*
X20601800Y58520200D02*
X20601800Y68520600D01*
X20601800Y68520600D02*
X22629700Y70548500D01*
X22629700Y70548500D02*
X22629700Y74295000D01*
X22629700Y36830000D02*
X21978500Y37481200D01*
X21978500Y37481200D02*
X21978500Y46209600D01*
X24130000Y36830000D02*
X22629700Y36830000D01*
X27940000Y36830000D02*
X24130000Y36830000D01*
X24130000Y74295000D02*
X22629700Y74295000D01*
X17145000Y50800000D02*
X17145000Y51950300D01*
X17145000Y53340000D02*
X19027000Y55222000D01*
X19027000Y55222000D02*
X19027000Y57511500D01*
X19027000Y57511500D02*
X20201500Y58686000D01*
X20201500Y58686000D02*
X20201500Y68686400D01*
X20201500Y68686400D02*
X20536100Y69021000D01*
X20536100Y69021000D02*
X20536100Y74741400D01*
X20536100Y74741400D02*
X22629700Y76835000D01*
X22629700Y39370000D02*
X22629700Y47454400D01*
X22629700Y47454400D02*
X22415800Y47668300D01*
X24130000Y39370000D02*
X22629700Y39370000D01*
X27940000Y39370000D02*
X24130000Y39370000D01*
X24130000Y76835000D02*
X22629700Y76835000D01*
X25630700Y41910000D02*
X25630700Y48266600D01*
X25630700Y41910000D02*
X24130000Y41910000D01*
X27189900Y41910000D02*
X25630700Y41910000D01*
X17145000Y57030300D02*
X17382400Y57030300D01*
X17382400Y57030300D02*
X19400800Y59048700D01*
X19400800Y59048700D02*
X19400800Y69017900D01*
X19400800Y69017900D02*
X19735500Y69352600D01*
X19735500Y69352600D02*
X19735500Y76480800D01*
X19735500Y76480800D02*
X22629700Y79375000D01*
X24130000Y79375000D02*
X22629700Y79375000D01*
X17145000Y55880000D02*
X17145000Y57030300D01*
X27940000Y41910000D02*
X27189900Y41910000D01*
X14605000Y57030300D02*
X14892700Y57030300D01*
X14892700Y57030300D02*
X15755300Y57892900D01*
X15755300Y57892900D02*
X15755300Y58718800D01*
X15755300Y58718800D02*
X16726500Y59690000D01*
X16726500Y59690000D02*
X17539700Y59690000D01*
X17539700Y59690000D02*
X18935000Y61085300D01*
X18935000Y61085300D02*
X18935000Y69118200D01*
X18935000Y69118200D02*
X19335200Y69518400D01*
X19335200Y69518400D02*
X19335200Y76646800D01*
X19335200Y76646800D02*
X23200100Y80511700D01*
X23200100Y80511700D02*
X25011100Y80511700D01*
X25011100Y80511700D02*
X30249700Y75273100D01*
X30249700Y75273100D02*
X30249700Y74295000D01*
X31750000Y74295000D02*
X30249700Y74295000D01*
X14605000Y55880000D02*
X14605000Y57030300D01*
X8255000Y58420000D02*
X9405300Y58420000D01*
X17145000Y58420000D02*
X15755400Y57030400D01*
X15755400Y57030400D02*
X15755400Y55341900D01*
X15755400Y55341900D02*
X15115000Y54701500D01*
X15115000Y54701500D02*
X13123800Y54701500D01*
X13123800Y54701500D02*
X9405300Y58420000D01*
X14605000Y58420000D02*
X13454700Y58420000D01*
X13454700Y58420000D02*
X12304400Y59570300D01*
X12304400Y59570300D02*
X5715000Y59570300D01*
X31750000Y81915000D02*
X30249700Y81915000D01*
X5715000Y58420000D02*
X5715000Y59570300D01*
X5715000Y59570300D02*
X5427400Y59570300D01*
X5427400Y59570300D02*
X4527100Y60470600D01*
X4527100Y60470600D02*
X4527100Y63940600D01*
X4527100Y63940600D02*
X5436900Y64850400D01*
X5436900Y64850400D02*
X8720500Y64850400D01*
X8720500Y64850400D02*
X13720100Y69850000D01*
X13720100Y69850000D02*
X17556700Y69850000D01*
X17556700Y69850000D02*
X18334500Y70627800D01*
X18334500Y70627800D02*
X18334500Y78250100D01*
X18334500Y78250100D02*
X23146300Y83061900D01*
X23146300Y83061900D02*
X29102800Y83061900D01*
X29102800Y83061900D02*
X30249700Y81915000D01*
X8255000Y60960000D02*
X9405300Y60960000D01*
X17145000Y60960000D02*
X15994700Y60960000D01*
X15994700Y60960000D02*
X15994700Y61247600D01*
X15994700Y61247600D02*
X15091700Y62150600D01*
X15091700Y62150600D02*
X10595900Y62150600D01*
X10595900Y62150600D02*
X9405300Y60960000D01*
X17145000Y64650300D02*
X17383300Y64650300D01*
X17383300Y64650300D02*
X18534600Y65801600D01*
X18534600Y65801600D02*
X18534600Y69283900D01*
X18534600Y69283900D02*
X18934800Y69684100D01*
X18934800Y69684100D02*
X18934800Y78220100D01*
X18934800Y78220100D02*
X22629700Y81915000D01*
X8255000Y63500000D02*
X9405300Y63500000D01*
X17145000Y64650300D02*
X10555600Y64650300D01*
X10555600Y64650300D02*
X9405300Y63500000D01*
X17145000Y64550200D02*
X17145000Y64650300D01*
X17145000Y63500000D02*
X17145000Y64550200D01*
X24130000Y81915000D02*
X22629700Y81915000D01*
X14605000Y27940000D02*
X14605000Y29090300D01*
X31750000Y71755000D02*
X30249700Y71755000D01*
X30249700Y71755000D02*
X30249700Y72692700D01*
X30249700Y72692700D02*
X24982800Y77959600D01*
X24982800Y77959600D02*
X23188000Y77959600D01*
X23188000Y77959600D02*
X20135800Y74907400D01*
X20135800Y74907400D02*
X20135800Y69186800D01*
X20135800Y69186800D02*
X19801200Y68852200D01*
X19801200Y68852200D02*
X19801200Y58851800D01*
X19801200Y58851800D02*
X18602700Y57653300D01*
X18602700Y57653300D02*
X18602700Y55705800D01*
X18602700Y55705800D02*
X17387300Y54490400D01*
X17387300Y54490400D02*
X16631100Y54490400D01*
X16631100Y54490400D02*
X15755400Y53614700D01*
X15755400Y53614700D02*
X15755400Y40101900D01*
X15755400Y40101900D02*
X15023500Y39370000D01*
X15023500Y39370000D02*
X14191300Y39370000D01*
X14191300Y39370000D02*
X13443500Y38622200D01*
X13443500Y38622200D02*
X13443500Y30013400D01*
X13443500Y30013400D02*
X14366600Y29090300D01*
X14366600Y29090300D02*
X14605000Y29090300D01*
X5715000Y21590000D02*
X5715000Y20320000D01*
X5715000Y22860000D02*
X5715000Y21590000D01*
X14605000Y21590000D02*
X5715000Y21590000D01*
X14605000Y21590000D02*
X14605000Y20320000D01*
X14605000Y22860000D02*
X14605000Y21590000D01*
X5715000Y25400000D02*
X5715000Y22860000D01*
X14605000Y27940000D02*
X14605000Y25400000D01*
X5715000Y27940000D02*
X5715000Y25400000D01*
X14605000Y25400000D02*
X14605000Y22860000D01*
X5715000Y15240000D02*
X6865300Y15240000D01*
X14605000Y15240000D02*
X13454700Y15240000D01*
X13454700Y15240000D02*
X12304300Y16390400D01*
X12304300Y16390400D02*
X7202200Y16390400D01*
X7202200Y16390400D02*
X6865300Y16053500D01*
X6865300Y16053500D02*
X6865300Y15240000D01*
X8255000Y76200000D02*
X9405300Y76200000D01*
X17145000Y76200000D02*
X15994700Y76200000D01*
X15994700Y76200000D02*
X15994700Y76487600D01*
X15994700Y76487600D02*
X15116800Y77365500D01*
X15116800Y77365500D02*
X10570800Y77365500D01*
X10570800Y77365500D02*
X9405300Y76200000D01*
D22*
X46340000Y660000D02*
X660000Y660000D01*
X660000Y5220128D01*
X2765000Y5220128D01*
X2765000Y4779872D01*
X2850890Y4348075D01*
X3019369Y3941331D01*
X3263962Y3575271D01*
X3575271Y3263962D01*
X3941331Y3019369D01*
X4348075Y2850890D01*
X4779872Y2765000D01*
X5220128Y2765000D01*
X5651925Y2850890D01*
X6058669Y3019369D01*
X6424729Y3263962D01*
X6736038Y3575271D01*
X6980631Y3941331D01*
X7149110Y4348075D01*
X7235000Y4779872D01*
X7235000Y5220128D01*
X7231585Y5237298D01*
X13951903Y5237298D01*
X14023486Y4993329D01*
X14278996Y4872429D01*
X14553184Y4803700D01*
X14835512Y4789783D01*
X15115130Y4831213D01*
X15381292Y4926397D01*
X15506514Y4993329D01*
X15573059Y5220128D01*
X39765000Y5220128D01*
X39765000Y4779872D01*
X39850890Y4348075D01*
X40019369Y3941331D01*
X40263962Y3575271D01*
X40575271Y3263962D01*
X40941331Y3019369D01*
X41348075Y2850890D01*
X41779872Y2765000D01*
X42220128Y2765000D01*
X42651925Y2850890D01*
X43058669Y3019369D01*
X43424729Y3263962D01*
X43736038Y3575271D01*
X43980631Y3941331D01*
X44149110Y4348075D01*
X44235000Y4779872D01*
X44235000Y5220128D01*
X44149110Y5651925D01*
X43980631Y6058669D01*
X43736038Y6424729D01*
X43424729Y6736038D01*
X43058669Y6980631D01*
X42651925Y7149110D01*
X42220128Y7235000D01*
X41779872Y7235000D01*
X41348075Y7149110D01*
X40941331Y6980631D01*
X40575271Y6736038D01*
X40263962Y6424729D01*
X40019369Y6058669D01*
X39850890Y5651925D01*
X39765000Y5220128D01*
X15573059Y5220128D01*
X15578097Y5237298D01*
X14765000Y6050395D01*
X13951903Y5237298D01*
X7231585Y5237298D01*
X7149110Y5651925D01*
X6980631Y6058669D01*
X6913267Y6159488D01*
X13324783Y6159488D01*
X13366213Y5879870D01*
X13461397Y5613708D01*
X13528329Y5488486D01*
X13772298Y5416903D01*
X14585395Y6230000D01*
X14944605Y6230000D01*
X15757702Y5416903D01*
X16001671Y5488486D01*
X16122571Y5743996D01*
X16191300Y6018184D01*
X16205217Y6300512D01*
X16163787Y6580130D01*
X16068603Y6846292D01*
X16001671Y6971514D01*
X15757702Y7043097D01*
X14944605Y6230000D01*
X14585395Y6230000D01*
X13772298Y7043097D01*
X13528329Y6971514D01*
X13407429Y6716004D01*
X13338700Y6441816D01*
X13324783Y6159488D01*
X6913267Y6159488D01*
X6736038Y6424729D01*
X6424729Y6736038D01*
X6058669Y6980631D01*
X5651925Y7149110D01*
X5220128Y7235000D01*
X4779872Y7235000D01*
X4348075Y7149110D01*
X3941331Y6980631D01*
X3575271Y6736038D01*
X3263962Y6424729D01*
X3019369Y6058669D01*
X2850890Y5651925D01*
X2765000Y5220128D01*
X660000Y5220128D01*
X660000Y63940600D01*
X3788544Y63940600D01*
X3792101Y63904485D01*
X3792100Y60506705D01*
X3788544Y60470600D01*
X3802735Y60326516D01*
X3844763Y60187968D01*
X3913013Y60060281D01*
X4004862Y59948363D01*
X4032908Y59925346D01*
X4576573Y59381680D01*
X4561525Y59366632D01*
X4399010Y59123411D01*
X4287068Y58853158D01*
X4230000Y58566260D01*
X4230000Y58273740D01*
X4287068Y57986842D01*
X4399010Y57716589D01*
X4561525Y57473368D01*
X4768368Y57266525D01*
X4942760Y57150000D01*
X4768368Y57033475D01*
X4561525Y56826632D01*
X4399010Y56583411D01*
X4287068Y56313158D01*
X4230000Y56026260D01*
X4230000Y55733740D01*
X4287068Y55446842D01*
X4399010Y55176589D01*
X4561525Y54933368D01*
X4768368Y54726525D01*
X4942760Y54610000D01*
X4768368Y54493475D01*
X4561525Y54286632D01*
X4399010Y54043411D01*
X4287068Y53773158D01*
X4230000Y53486260D01*
X4230000Y53193740D01*
X4287068Y52906842D01*
X4399010Y52636589D01*
X4561525Y52393368D01*
X4768368Y52186525D01*
X4942760Y52070000D01*
X4768368Y51953475D01*
X4561525Y51746632D01*
X4399010Y51503411D01*
X4287068Y51233158D01*
X4230000Y50946260D01*
X4230000Y50653740D01*
X4287068Y50366842D01*
X4399010Y50096589D01*
X4561525Y49853368D01*
X4768368Y49646525D01*
X4942760Y49530000D01*
X4768368Y49413475D01*
X4561525Y49206632D01*
X4399010Y48963411D01*
X4287068Y48693158D01*
X4230000Y48406260D01*
X4230000Y48113740D01*
X4287068Y47826842D01*
X4399010Y47556589D01*
X4561525Y47313368D01*
X4768368Y47106525D01*
X4942760Y46990000D01*
X4768368Y46873475D01*
X4561525Y46666632D01*
X4399010Y46423411D01*
X4287068Y46153158D01*
X4230000Y45866260D01*
X4230000Y45573740D01*
X4287068Y45286842D01*
X4399010Y45016589D01*
X4561525Y44773368D01*
X4768368Y44566525D01*
X4942760Y44450000D01*
X4768368Y44333475D01*
X4561525Y44126632D01*
X4399010Y43883411D01*
X4287068Y43613158D01*
X4230000Y43326260D01*
X4230000Y43033740D01*
X4287068Y42746842D01*
X4399010Y42476589D01*
X4561525Y42233368D01*
X4768368Y42026525D01*
X4942760Y41910000D01*
X4768368Y41793475D01*
X4561525Y41586632D01*
X4399010Y41343411D01*
X4287068Y41073158D01*
X4230000Y40786260D01*
X4230000Y40493740D01*
X4287068Y40206842D01*
X4399010Y39936589D01*
X4561525Y39693368D01*
X4768368Y39486525D01*
X4942760Y39370000D01*
X4768368Y39253475D01*
X4561525Y39046632D01*
X4399010Y38803411D01*
X4287068Y38533158D01*
X4230000Y38246260D01*
X4230000Y37953740D01*
X4287068Y37666842D01*
X4399010Y37396589D01*
X4561525Y37153368D01*
X4768368Y36946525D01*
X4942760Y36830000D01*
X4768368Y36713475D01*
X4561525Y36506632D01*
X4399010Y36263411D01*
X4287068Y35993158D01*
X4230000Y35706260D01*
X4230000Y35413740D01*
X4287068Y35126842D01*
X4399010Y34856589D01*
X4561525Y34613368D01*
X4768368Y34406525D01*
X4942760Y34290000D01*
X4768368Y34173475D01*
X4561525Y33966632D01*
X4399010Y33723411D01*
X4287068Y33453158D01*
X4230000Y33166260D01*
X4230000Y32873740D01*
X4287068Y32586842D01*
X4399010Y32316589D01*
X4561525Y32073368D01*
X4768368Y31866525D01*
X4942760Y31750000D01*
X4768368Y31633475D01*
X4561525Y31426632D01*
X4399010Y31183411D01*
X4287068Y30913158D01*
X4230000Y30626260D01*
X4230000Y30333740D01*
X4287068Y30046842D01*
X4399010Y29776589D01*
X4561525Y29533368D01*
X4768368Y29326525D01*
X4942760Y29210000D01*
X4768368Y29093475D01*
X4561525Y28886632D01*
X4399010Y28643411D01*
X4287068Y28373158D01*
X4230000Y28086260D01*
X4230000Y27793740D01*
X4287068Y27506842D01*
X4399010Y27236589D01*
X4561525Y26993368D01*
X4768368Y26786525D01*
X4942760Y26670000D01*
X4768368Y26553475D01*
X4561525Y26346632D01*
X4399010Y26103411D01*
X4287068Y25833158D01*
X4230000Y25546260D01*
X4230000Y25253740D01*
X4287068Y24966842D01*
X4399010Y24696589D01*
X4561525Y24453368D01*
X4768368Y24246525D01*
X4942760Y24130000D01*
X4768368Y24013475D01*
X4561525Y23806632D01*
X4399010Y23563411D01*
X4287068Y23293158D01*
X4230000Y23006260D01*
X4230000Y22713740D01*
X4287068Y22426842D01*
X4399010Y22156589D01*
X4561525Y21913368D01*
X4768368Y21706525D01*
X4942760Y21590000D01*
X4768368Y21473475D01*
X4561525Y21266632D01*
X4399010Y21023411D01*
X4287068Y20753158D01*
X4230000Y20466260D01*
X4230000Y20173740D01*
X4287068Y19886842D01*
X4399010Y19616589D01*
X4561525Y19373368D01*
X4768368Y19166525D01*
X4942760Y19050000D01*
X4768368Y18933475D01*
X4561525Y18726632D01*
X4399010Y18483411D01*
X4287068Y18213158D01*
X4230000Y17926260D01*
X4230000Y17633740D01*
X4287068Y17346842D01*
X4399010Y17076589D01*
X4561525Y16833368D01*
X4768368Y16626525D01*
X4942760Y16510000D01*
X4768368Y16393475D01*
X4561525Y16186632D01*
X4399010Y15943411D01*
X4287068Y15673158D01*
X4230000Y15386260D01*
X4230000Y15093740D01*
X4287068Y14806842D01*
X4399010Y14536589D01*
X4561525Y14293368D01*
X4768368Y14086525D01*
X5011589Y13924010D01*
X5281842Y13812068D01*
X5568740Y13755000D01*
X5861260Y13755000D01*
X6148158Y13812068D01*
X6418411Y13924010D01*
X6661632Y14086525D01*
X6793487Y14218380D01*
X6815498Y14145820D01*
X6874463Y14035506D01*
X6953815Y13938815D01*
X7050506Y13859463D01*
X7160820Y13800498D01*
X7280518Y13764188D01*
X7405000Y13751928D01*
X8562204Y13751928D01*
X8885563Y13428568D01*
X8911709Y13396709D01*
X8943568Y13370563D01*
X8943570Y13370561D01*
X9038854Y13292364D01*
X9183913Y13214828D01*
X9341311Y13167082D01*
X9505000Y13150960D01*
X9546018Y13155000D01*
X15853982Y13155000D01*
X15895000Y13150960D01*
X15936018Y13155000D01*
X15936019Y13155000D01*
X16058689Y13167082D01*
X16216087Y13214828D01*
X16310000Y13265026D01*
X16310001Y11455869D01*
X15022205Y10168072D01*
X13965000Y10168072D01*
X13840518Y10155812D01*
X13720820Y10119502D01*
X13610506Y10060537D01*
X13513815Y9981185D01*
X13434463Y9884494D01*
X13375498Y9774180D01*
X13339188Y9654482D01*
X13326928Y9530000D01*
X13326928Y7930000D01*
X13339188Y7805518D01*
X13375498Y7685820D01*
X13434463Y7575506D01*
X13513815Y7478815D01*
X13610506Y7399463D01*
X13720820Y7340498D01*
X13840518Y7304188D01*
X13965000Y7291928D01*
X13972215Y7291928D01*
X13951903Y7222702D01*
X14765000Y6409605D01*
X15578097Y7222702D01*
X15557785Y7291928D01*
X15565000Y7291928D01*
X15689482Y7304188D01*
X15809180Y7340498D01*
X15919494Y7399463D01*
X16016185Y7478815D01*
X16095537Y7575506D01*
X16154502Y7685820D01*
X16190812Y7805518D01*
X16203072Y7930000D01*
X16203072Y8987205D01*
X17706427Y10490559D01*
X17738291Y10516709D01*
X17842636Y10643854D01*
X17920172Y10788913D01*
X17967918Y10946311D01*
X17980000Y11068981D01*
X17980000Y11068991D01*
X17984039Y11109999D01*
X17980000Y11151007D01*
X17980000Y13751928D01*
X17995000Y13751928D01*
X18119482Y13764188D01*
X18239180Y13800498D01*
X18349494Y13859463D01*
X18446185Y13938815D01*
X18477482Y13976951D01*
X20736963Y11717468D01*
X20763109Y11685609D01*
X20890254Y11581264D01*
X21035313Y11503728D01*
X21192711Y11455982D01*
X21315381Y11443900D01*
X21315382Y11443900D01*
X21356400Y11439860D01*
X21397418Y11443900D01*
X35989182Y11443900D01*
X36030200Y11439860D01*
X36071218Y11443900D01*
X36071219Y11443900D01*
X36193889Y11455982D01*
X36351287Y11503728D01*
X36496346Y11581264D01*
X36623491Y11685609D01*
X36649646Y11717478D01*
X37919817Y12987648D01*
X37950392Y12950392D01*
X38168899Y12771068D01*
X38418192Y12637818D01*
X38688691Y12555764D01*
X38899508Y12535000D01*
X39840492Y12535000D01*
X40051309Y12555764D01*
X40321808Y12637818D01*
X40571101Y12771068D01*
X40789608Y12950392D01*
X40968932Y13168899D01*
X41102182Y13418192D01*
X41184236Y13688691D01*
X41211943Y13970000D01*
X41184236Y14251309D01*
X41102182Y14521808D01*
X40968932Y14771101D01*
X40789608Y14989608D01*
X40571101Y15168932D01*
X40438142Y15240000D01*
X40571101Y15311068D01*
X40789608Y15490392D01*
X40968932Y15708899D01*
X41102182Y15958192D01*
X41184236Y16228691D01*
X41211943Y16510000D01*
X41184236Y16791309D01*
X41102182Y17061808D01*
X40968932Y17311101D01*
X40789608Y17529608D01*
X40571101Y17708932D01*
X40438142Y17780000D01*
X40571101Y17851068D01*
X40789608Y18030392D01*
X40968932Y18248899D01*
X41102182Y18498192D01*
X41184236Y18768691D01*
X41211943Y19050000D01*
X41184236Y19331309D01*
X41102182Y19601808D01*
X40968932Y19851101D01*
X40789608Y20069608D01*
X40571101Y20248932D01*
X40438142Y20320000D01*
X40571101Y20391068D01*
X40789608Y20570392D01*
X40968932Y20788899D01*
X41102182Y21038192D01*
X41184236Y21308691D01*
X41211943Y21590000D01*
X41184236Y21871309D01*
X41102182Y22141808D01*
X40968932Y22391101D01*
X40789608Y22609608D01*
X40571101Y22788932D01*
X40438142Y22860000D01*
X40571101Y22931068D01*
X40789608Y23110392D01*
X40968932Y23328899D01*
X41102182Y23578192D01*
X41184236Y23848691D01*
X41211943Y24130000D01*
X41184236Y24411309D01*
X41102182Y24681808D01*
X40968932Y24931101D01*
X40789608Y25149608D01*
X40571101Y25328932D01*
X40438142Y25400000D01*
X40571101Y25471068D01*
X40789608Y25650392D01*
X40968932Y25868899D01*
X41102182Y26118192D01*
X41184236Y26388691D01*
X41211943Y26670000D01*
X41184236Y26951309D01*
X41102182Y27221808D01*
X40968932Y27471101D01*
X40789608Y27689608D01*
X40571101Y27868932D01*
X40438142Y27940000D01*
X40571101Y28011068D01*
X40789608Y28190392D01*
X40968932Y28408899D01*
X41102182Y28658192D01*
X41184236Y28928691D01*
X41211943Y29210000D01*
X41184236Y29491309D01*
X41102182Y29761808D01*
X40968932Y30011101D01*
X40789608Y30229608D01*
X40571101Y30408932D01*
X40443259Y30477265D01*
X40672839Y30627399D01*
X40874500Y30825105D01*
X41033715Y31058354D01*
X41144367Y31318182D01*
X41161904Y31400961D01*
X41039915Y31623000D01*
X39497000Y31623000D01*
X39497000Y31603000D01*
X39243000Y31603000D01*
X39243000Y31623000D01*
X39223000Y31623000D01*
X39223000Y31877000D01*
X39243000Y31877000D01*
X39243000Y31897000D01*
X39497000Y31897000D01*
X39497000Y31877000D01*
X41039915Y31877000D01*
X41161904Y32099039D01*
X41144367Y32181818D01*
X41033715Y32441646D01*
X40874500Y32674895D01*
X40672839Y32872601D01*
X40443259Y33022735D01*
X40571101Y33091068D01*
X40789608Y33270392D01*
X40968932Y33488899D01*
X41102182Y33738192D01*
X41184236Y34008691D01*
X41211943Y34290000D01*
X41184236Y34571309D01*
X41102182Y34841808D01*
X40968932Y35091101D01*
X40789608Y35309608D01*
X40571101Y35488932D01*
X40438142Y35560000D01*
X40571101Y35631068D01*
X40789608Y35810392D01*
X40968932Y36028899D01*
X41102182Y36278192D01*
X41184236Y36548691D01*
X41211943Y36830000D01*
X41184236Y37111309D01*
X41102182Y37381808D01*
X40968932Y37631101D01*
X40789608Y37849608D01*
X40571101Y38028932D01*
X40438142Y38100000D01*
X40571101Y38171068D01*
X40789608Y38350392D01*
X40968932Y38568899D01*
X41102182Y38818192D01*
X41184236Y39088691D01*
X41211943Y39370000D01*
X41184236Y39651309D01*
X41102182Y39921808D01*
X40968932Y40171101D01*
X40789608Y40389608D01*
X40571101Y40568932D01*
X40438142Y40640000D01*
X40571101Y40711068D01*
X40789608Y40890392D01*
X40968932Y41108899D01*
X41102182Y41358192D01*
X41184236Y41628691D01*
X41211943Y41910000D01*
X41184236Y42191309D01*
X41102182Y42461808D01*
X40968932Y42711101D01*
X40789608Y42929608D01*
X40571101Y43108932D01*
X40438142Y43180000D01*
X40571101Y43251068D01*
X40789608Y43430392D01*
X40968932Y43648899D01*
X41102182Y43898192D01*
X41184236Y44168691D01*
X41211943Y44450000D01*
X41184236Y44731309D01*
X41102182Y45001808D01*
X40968932Y45251101D01*
X40789608Y45469608D01*
X40571101Y45648932D01*
X40438142Y45720000D01*
X40571101Y45791068D01*
X40789608Y45970392D01*
X40968932Y46188899D01*
X41102182Y46438192D01*
X41184236Y46708691D01*
X41211943Y46990000D01*
X41184236Y47271309D01*
X41102182Y47541808D01*
X40968932Y47791101D01*
X40789608Y48009608D01*
X40571101Y48188932D01*
X40321808Y48322182D01*
X40051309Y48404236D01*
X39840492Y48425000D01*
X38899508Y48425000D01*
X38688691Y48404236D01*
X38418192Y48322182D01*
X38168899Y48188932D01*
X37950392Y48009608D01*
X37798888Y47825000D01*
X37506018Y47825000D01*
X37465000Y47829040D01*
X37423981Y47825000D01*
X37131112Y47825000D01*
X36979608Y48009608D01*
X36761101Y48188932D01*
X36511808Y48322182D01*
X36241309Y48404236D01*
X36030492Y48425000D01*
X35940868Y48425000D01*
X34436285Y49929582D01*
X34455000Y50023665D01*
X34455000Y50306335D01*
X34399853Y50583574D01*
X34291680Y50844727D01*
X34215200Y50959188D01*
X34215200Y56656335D01*
X34760000Y56656335D01*
X34760000Y56373665D01*
X34815147Y56096426D01*
X34923320Y55835273D01*
X35080363Y55600241D01*
X35280241Y55400363D01*
X35515273Y55243320D01*
X35776426Y55135147D01*
X36053665Y55080000D01*
X36336335Y55080000D01*
X36613574Y55135147D01*
X36874727Y55243320D01*
X37109759Y55400363D01*
X37309637Y55600241D01*
X37466680Y55835273D01*
X37574853Y56096426D01*
X37630000Y56373665D01*
X37630000Y56656335D01*
X37574853Y56933574D01*
X37466680Y57194727D01*
X37309637Y57429759D01*
X37109759Y57629637D01*
X36874727Y57786680D01*
X36613574Y57894853D01*
X36336335Y57950000D01*
X36053665Y57950000D01*
X35776426Y57894853D01*
X35515273Y57786680D01*
X35280241Y57629637D01*
X35080363Y57429759D01*
X34923320Y57194727D01*
X34815147Y56933574D01*
X34760000Y56656335D01*
X34215200Y56656335D01*
X34215200Y63235000D01*
X42276928Y63235000D01*
X42289188Y63110518D01*
X42325498Y62990820D01*
X42384463Y62880506D01*
X42463815Y62783815D01*
X42560506Y62704463D01*
X42670820Y62645498D01*
X42689127Y62639944D01*
X42622688Y62573505D01*
X42454701Y62322095D01*
X42338989Y62042743D01*
X42280000Y61746184D01*
X42280000Y61443816D01*
X42338989Y61147257D01*
X42454701Y60867905D01*
X42622688Y60616495D01*
X42836495Y60402688D01*
X43087905Y60234701D01*
X43367257Y60118989D01*
X43663816Y60060000D01*
X43966184Y60060000D01*
X44262743Y60118989D01*
X44542095Y60234701D01*
X44793505Y60402688D01*
X45007312Y60616495D01*
X45175299Y60867905D01*
X45291011Y61147257D01*
X45350000Y61443816D01*
X45350000Y61746184D01*
X45291011Y62042743D01*
X45175299Y62322095D01*
X45007312Y62573505D01*
X44940873Y62639944D01*
X44959180Y62645498D01*
X45069494Y62704463D01*
X45166185Y62783815D01*
X45245537Y62880506D01*
X45304502Y62990820D01*
X45340812Y63110518D01*
X45353072Y63235000D01*
X45350000Y63849250D01*
X45191250Y64008000D01*
X43942000Y64008000D01*
X43942000Y63988000D01*
X43688000Y63988000D01*
X43688000Y64008000D01*
X42438750Y64008000D01*
X42280000Y63849250D01*
X42276928Y63235000D01*
X34215200Y63235000D01*
X34215200Y65035000D01*
X42276928Y65035000D01*
X42280000Y64420750D01*
X42438750Y64262000D01*
X43688000Y64262000D01*
X43688000Y65511250D01*
X43942000Y65511250D01*
X43942000Y64262000D01*
X45191250Y64262000D01*
X45350000Y64420750D01*
X45353072Y65035000D01*
X45340812Y65159482D01*
X45304502Y65279180D01*
X45245537Y65389494D01*
X45166185Y65486185D01*
X45069494Y65565537D01*
X44959180Y65624502D01*
X44839482Y65660812D01*
X44715000Y65673072D01*
X44100750Y65670000D01*
X43942000Y65511250D01*
X43688000Y65511250D01*
X43529250Y65670000D01*
X42915000Y65673072D01*
X42790518Y65660812D01*
X42670820Y65624502D01*
X42560506Y65565537D01*
X42463815Y65486185D01*
X42384463Y65389494D01*
X42325498Y65279180D01*
X42289188Y65159482D01*
X42276928Y65035000D01*
X34215200Y65035000D01*
X34215200Y69356335D01*
X34760000Y69356335D01*
X34760000Y69073665D01*
X34815147Y68796426D01*
X34923320Y68535273D01*
X35080363Y68300241D01*
X35280241Y68100363D01*
X35512759Y67945000D01*
X35280241Y67789637D01*
X35080363Y67589759D01*
X34923320Y67354727D01*
X34815147Y67093574D01*
X34760000Y66816335D01*
X34760000Y66533665D01*
X34815147Y66256426D01*
X34923320Y65995273D01*
X35080363Y65760241D01*
X35280241Y65560363D01*
X35515273Y65403320D01*
X35776426Y65295147D01*
X36053665Y65240000D01*
X36336335Y65240000D01*
X36613574Y65295147D01*
X36874727Y65403320D01*
X37109759Y65560363D01*
X37309637Y65760241D01*
X37466680Y65995273D01*
X37574853Y66256426D01*
X37630000Y66533665D01*
X37630000Y66816335D01*
X37574853Y67093574D01*
X37466680Y67354727D01*
X37309637Y67589759D01*
X37109759Y67789637D01*
X36877241Y67945000D01*
X37109759Y68100363D01*
X37309637Y68300241D01*
X37466680Y68535273D01*
X37574853Y68796426D01*
X37630000Y69073665D01*
X37630000Y69356335D01*
X37574853Y69633574D01*
X37466680Y69894727D01*
X37309637Y70129759D01*
X37109759Y70329637D01*
X36874727Y70486680D01*
X36613574Y70594853D01*
X36336335Y70650000D01*
X36053665Y70650000D01*
X35776426Y70594853D01*
X35515273Y70486680D01*
X35280241Y70329637D01*
X35080363Y70129759D01*
X34923320Y69894727D01*
X34815147Y69633574D01*
X34760000Y69356335D01*
X34215200Y69356335D01*
X34215200Y73395000D01*
X42276928Y73395000D01*
X42289188Y73270518D01*
X42325498Y73150820D01*
X42384463Y73040506D01*
X42463815Y72943815D01*
X42560506Y72864463D01*
X42670820Y72805498D01*
X42790518Y72769188D01*
X42915000Y72756928D01*
X43529250Y72760000D01*
X43688000Y72918750D01*
X43688000Y74168000D01*
X43942000Y74168000D01*
X43942000Y72918750D01*
X44100750Y72760000D01*
X44715000Y72756928D01*
X44839482Y72769188D01*
X44959180Y72805498D01*
X45069494Y72864463D01*
X45166185Y72943815D01*
X45245537Y73040506D01*
X45304502Y73150820D01*
X45340812Y73270518D01*
X45353072Y73395000D01*
X45350000Y74009250D01*
X45191250Y74168000D01*
X43942000Y74168000D01*
X43688000Y74168000D01*
X42438750Y74168000D01*
X42280000Y74009250D01*
X42276928Y73395000D01*
X34215200Y73395000D01*
X34215200Y75195000D01*
X42276928Y75195000D01*
X42280000Y74580750D01*
X42438750Y74422000D01*
X43688000Y74422000D01*
X43688000Y74442000D01*
X43942000Y74442000D01*
X43942000Y74422000D01*
X45191250Y74422000D01*
X45350000Y74580750D01*
X45353072Y75195000D01*
X45340812Y75319482D01*
X45304502Y75439180D01*
X45245537Y75549494D01*
X45166185Y75646185D01*
X45069494Y75725537D01*
X44959180Y75784502D01*
X44940873Y75790056D01*
X45007312Y75856495D01*
X45175299Y76107905D01*
X45291011Y76387257D01*
X45350000Y76683816D01*
X45350000Y76986184D01*
X45291011Y77282743D01*
X45175299Y77562095D01*
X45007312Y77813505D01*
X44793505Y78027312D01*
X44542095Y78195299D01*
X44262743Y78311011D01*
X43966184Y78370000D01*
X43663816Y78370000D01*
X43367257Y78311011D01*
X43087905Y78195299D01*
X42836495Y78027312D01*
X42622688Y77813505D01*
X42454701Y77562095D01*
X42338989Y77282743D01*
X42280000Y76986184D01*
X42280000Y76683816D01*
X42338989Y76387257D01*
X42454701Y76107905D01*
X42622688Y75856495D01*
X42689127Y75790056D01*
X42670820Y75784502D01*
X42560506Y75725537D01*
X42463815Y75646185D01*
X42384463Y75549494D01*
X42325498Y75439180D01*
X42289188Y75319482D01*
X42276928Y75195000D01*
X34215200Y75195000D01*
X34215200Y79516335D01*
X34760000Y79516335D01*
X34760000Y79233665D01*
X34815147Y78956426D01*
X34923320Y78695273D01*
X35080363Y78460241D01*
X35280241Y78260363D01*
X35515273Y78103320D01*
X35776426Y77995147D01*
X36053665Y77940000D01*
X36336335Y77940000D01*
X36613574Y77995147D01*
X36874727Y78103320D01*
X37109759Y78260363D01*
X37309637Y78460241D01*
X37466680Y78695273D01*
X37574853Y78956426D01*
X37630000Y79233665D01*
X37630000Y79516335D01*
X37574853Y79793574D01*
X37466680Y80054727D01*
X37309637Y80289759D01*
X37109759Y80489637D01*
X36874727Y80646680D01*
X36613574Y80754853D01*
X36336335Y80810000D01*
X36053665Y80810000D01*
X35776426Y80754853D01*
X35515273Y80646680D01*
X35280241Y80489637D01*
X35080363Y80289759D01*
X34923320Y80054727D01*
X34815147Y79793574D01*
X34760000Y79516335D01*
X34215200Y79516335D01*
X34215200Y83101282D01*
X34219240Y83142300D01*
X34203118Y83305989D01*
X34155372Y83463387D01*
X34077836Y83608446D01*
X33999639Y83703730D01*
X33999637Y83703732D01*
X33973491Y83735591D01*
X33941633Y83761736D01*
X33556193Y84147176D01*
X33564236Y84173691D01*
X33591943Y84455000D01*
X33564236Y84736309D01*
X33482182Y85006808D01*
X33348932Y85256101D01*
X33169608Y85474608D01*
X32951101Y85653932D01*
X32701808Y85787182D01*
X32431309Y85869236D01*
X32220492Y85890000D01*
X32130868Y85890000D01*
X31800740Y86220128D01*
X39765000Y86220128D01*
X39765000Y85779872D01*
X39850890Y85348075D01*
X40019369Y84941331D01*
X40263962Y84575271D01*
X40575271Y84263962D01*
X40941331Y84019369D01*
X41348075Y83850890D01*
X41779872Y83765000D01*
X42220128Y83765000D01*
X42651925Y83850890D01*
X43058669Y84019369D01*
X43424729Y84263962D01*
X43736038Y84575271D01*
X43980631Y84941331D01*
X44149110Y85348075D01*
X44235000Y85779872D01*
X44235000Y86220128D01*
X44149110Y86651925D01*
X43980631Y87058669D01*
X43736038Y87424729D01*
X43424729Y87736038D01*
X43058669Y87980631D01*
X42651925Y88149110D01*
X42220128Y88235000D01*
X41779872Y88235000D01*
X41348075Y88149110D01*
X40941331Y87980631D01*
X40575271Y87736038D01*
X40263962Y87424729D01*
X40019369Y87058669D01*
X39850890Y86651925D01*
X39765000Y86220128D01*
X31800740Y86220128D01*
X30626285Y87394582D01*
X30645000Y87488665D01*
X30645000Y87771335D01*
X30589853Y88048574D01*
X30481680Y88309727D01*
X30324637Y88544759D01*
X30124759Y88744637D01*
X29889727Y88901680D01*
X29628574Y89009853D01*
X29351335Y89065000D01*
X29068665Y89065000D01*
X28791426Y89009853D01*
X28530273Y88901680D01*
X28295241Y88744637D01*
X28095363Y88544759D01*
X27961308Y88344131D01*
X27946671Y88371514D01*
X27702702Y88443097D01*
X26889605Y87630000D01*
X27702702Y86816903D01*
X27946671Y86888486D01*
X27960324Y86917341D01*
X28095363Y86715241D01*
X28295241Y86515363D01*
X28530273Y86358320D01*
X28791426Y86250147D01*
X29068665Y86195000D01*
X29351335Y86195000D01*
X29445418Y86213715D01*
X30264642Y85394491D01*
X30151068Y85256101D01*
X30017818Y85006808D01*
X29935764Y84736309D01*
X29908057Y84455000D01*
X29935764Y84173691D01*
X30017818Y83903192D01*
X30151068Y83653899D01*
X30330392Y83435392D01*
X30548899Y83256068D01*
X30681858Y83185000D01*
X30548899Y83113932D01*
X30330392Y82934608D01*
X30302962Y82901185D01*
X29648058Y83556088D01*
X29625038Y83584138D01*
X29513120Y83675987D01*
X29385433Y83744237D01*
X29246885Y83786265D01*
X29138905Y83796900D01*
X29102800Y83800456D01*
X29066695Y83796900D01*
X25968072Y83796900D01*
X25968072Y85255000D01*
X25955812Y85379482D01*
X25919502Y85499180D01*
X25860537Y85609494D01*
X25781185Y85706185D01*
X25684494Y85785537D01*
X25574180Y85844502D01*
X25454482Y85880812D01*
X25330000Y85893072D01*
X22930000Y85893072D01*
X22805518Y85880812D01*
X22685820Y85844502D01*
X22575506Y85785537D01*
X22478815Y85706185D01*
X22399463Y85609494D01*
X22340498Y85499180D01*
X22304188Y85379482D01*
X22291928Y85255000D01*
X22291928Y83655000D01*
X22304188Y83530518D01*
X22340498Y83410820D01*
X22380652Y83335699D01*
X17840308Y78795354D01*
X17812263Y78772338D01*
X17720414Y78660420D01*
X17674054Y78573686D01*
X17652164Y78532733D01*
X17610135Y78394185D01*
X17595944Y78250100D01*
X17599501Y78213985D01*
X17599501Y77619092D01*
X17578158Y77627932D01*
X17291260Y77685000D01*
X16998740Y77685000D01*
X16711842Y77627932D01*
X16441589Y77515990D01*
X16198368Y77353475D01*
X16183320Y77338427D01*
X15662058Y77859688D01*
X15639038Y77887738D01*
X15527120Y77979587D01*
X15399433Y78047837D01*
X15260885Y78089865D01*
X15152905Y78100500D01*
X15116800Y78104056D01*
X15080695Y78100500D01*
X10606905Y78100500D01*
X10570800Y78104056D01*
X10534695Y78100500D01*
X10426715Y78089865D01*
X10288167Y78047837D01*
X10160480Y77979587D01*
X10048562Y77887738D01*
X10025546Y77859693D01*
X9360480Y77194627D01*
X9201632Y77353475D01*
X8958411Y77515990D01*
X8688158Y77627932D01*
X8401260Y77685000D01*
X8108740Y77685000D01*
X7821842Y77627932D01*
X7551589Y77515990D01*
X7308368Y77353475D01*
X7101525Y77146632D01*
X6983900Y76970594D01*
X6812588Y77200269D01*
X6596355Y77395178D01*
X6346252Y77544157D01*
X6071891Y77641481D01*
X5842000Y77520814D01*
X5842000Y76327000D01*
X5862000Y76327000D01*
X5862000Y76073000D01*
X5842000Y76073000D01*
X5842000Y73787000D01*
X5862000Y73787000D01*
X5862000Y73533000D01*
X5842000Y73533000D01*
X5842000Y73513000D01*
X5588000Y73513000D01*
X5588000Y73533000D01*
X4394845Y73533000D01*
X4273524Y73303110D01*
X4318175Y73155901D01*
X4443359Y72893080D01*
X4617412Y72659731D01*
X4833645Y72464822D01*
X4950534Y72395195D01*
X4768368Y72273475D01*
X4561525Y72066632D01*
X4399010Y71823411D01*
X4287068Y71553158D01*
X4230000Y71266260D01*
X4230000Y70973740D01*
X4287068Y70686842D01*
X4399010Y70416589D01*
X4561525Y70173368D01*
X4768368Y69966525D01*
X4942760Y69850000D01*
X4768368Y69733475D01*
X4561525Y69526632D01*
X4399010Y69283411D01*
X4287068Y69013158D01*
X4230000Y68726260D01*
X4230000Y68433740D01*
X4287068Y68146842D01*
X4399010Y67876589D01*
X4561525Y67633368D01*
X4768368Y67426525D01*
X4942760Y67310000D01*
X4768368Y67193475D01*
X4561525Y66986632D01*
X4399010Y66743411D01*
X4287068Y66473158D01*
X4230000Y66186260D01*
X4230000Y65893740D01*
X4287068Y65606842D01*
X4399010Y65336589D01*
X4561525Y65093368D01*
X4600973Y65053920D01*
X4032908Y64485854D01*
X4004863Y64462838D01*
X3913014Y64350920D01*
X3851756Y64236314D01*
X3844764Y64223233D01*
X3802735Y64084685D01*
X3788544Y63940600D01*
X660000Y63940600D01*
X660000Y75843110D01*
X4273524Y75843110D01*
X4318175Y75695901D01*
X4443359Y75433080D01*
X4617412Y75199731D01*
X4833645Y75004822D01*
X4959255Y74930000D01*
X4833645Y74855178D01*
X4617412Y74660269D01*
X4443359Y74426920D01*
X4318175Y74164099D01*
X4273524Y74016890D01*
X4394845Y73787000D01*
X5588000Y73787000D01*
X5588000Y76073000D01*
X4394845Y76073000D01*
X4273524Y75843110D01*
X660000Y75843110D01*
X660000Y76556890D01*
X4273524Y76556890D01*
X4394845Y76327000D01*
X5588000Y76327000D01*
X5588000Y77520814D01*
X5358109Y77641481D01*
X5083748Y77544157D01*
X4833645Y77395178D01*
X4617412Y77200269D01*
X4443359Y76966920D01*
X4318175Y76704099D01*
X4273524Y76556890D01*
X660000Y76556890D01*
X660000Y86220128D01*
X2765000Y86220128D01*
X2765000Y85779872D01*
X2850890Y85348075D01*
X3019369Y84941331D01*
X3263962Y84575271D01*
X3575271Y84263962D01*
X3941331Y84019369D01*
X4348075Y83850890D01*
X4779872Y83765000D01*
X5220128Y83765000D01*
X5651925Y83850890D01*
X6058669Y84019369D01*
X6424729Y84263962D01*
X6736038Y84575271D01*
X6980631Y84941331D01*
X7149110Y85348075D01*
X7235000Y85779872D01*
X7235000Y86220128D01*
X7152020Y86637298D01*
X25896903Y86637298D01*
X25968486Y86393329D01*
X26223996Y86272429D01*
X26498184Y86203700D01*
X26780512Y86189783D01*
X27060130Y86231213D01*
X27326292Y86326397D01*
X27451514Y86393329D01*
X27523097Y86637298D01*
X26710000Y87450395D01*
X25896903Y86637298D01*
X7152020Y86637298D01*
X7149110Y86651925D01*
X6980631Y87058669D01*
X6736038Y87424729D01*
X6601279Y87559488D01*
X25269783Y87559488D01*
X25311213Y87279870D01*
X25406397Y87013708D01*
X25473329Y86888486D01*
X25717298Y86816903D01*
X26530395Y87630000D01*
X25717298Y88443097D01*
X25473329Y88371514D01*
X25352429Y88116004D01*
X25283700Y87841816D01*
X25269783Y87559488D01*
X6601279Y87559488D01*
X6424729Y87736038D01*
X6058669Y87980631D01*
X5651925Y88149110D01*
X5220128Y88235000D01*
X4779872Y88235000D01*
X4348075Y88149110D01*
X3941331Y87980631D01*
X3575271Y87736038D01*
X3263962Y87424729D01*
X3019369Y87058669D01*
X2850890Y86651925D01*
X2765000Y86220128D01*
X660000Y86220128D01*
X660000Y88622702D01*
X25896903Y88622702D01*
X26710000Y87809605D01*
X27523097Y88622702D01*
X27451514Y88866671D01*
X27196004Y88987571D01*
X26921816Y89056300D01*
X26639488Y89070217D01*
X26359870Y89028787D01*
X26093708Y88933603D01*
X25968486Y88866671D01*
X25896903Y88622702D01*
X660000Y88622702D01*
X660000Y90340000D01*
X46340001Y90340000D01*
X46340000Y660000D01*
G04 #@! TA.AperFunction,Conductor*
D23*
G36*
X46340000Y660000D02*
G01*
X660000Y660000D01*
X660000Y5220128D01*
X2765000Y5220128D01*
X2765000Y4779872D01*
X2850890Y4348075D01*
X3019369Y3941331D01*
X3263962Y3575271D01*
X3575271Y3263962D01*
X3941331Y3019369D01*
X4348075Y2850890D01*
X4779872Y2765000D01*
X5220128Y2765000D01*
X5651925Y2850890D01*
X6058669Y3019369D01*
X6424729Y3263962D01*
X6736038Y3575271D01*
X6980631Y3941331D01*
X7149110Y4348075D01*
X7235000Y4779872D01*
X7235000Y5220128D01*
X7231585Y5237298D01*
X13951903Y5237298D01*
X14023486Y4993329D01*
X14278996Y4872429D01*
X14553184Y4803700D01*
X14835512Y4789783D01*
X15115130Y4831213D01*
X15381292Y4926397D01*
X15506514Y4993329D01*
X15573059Y5220128D01*
X39765000Y5220128D01*
X39765000Y4779872D01*
X39850890Y4348075D01*
X40019369Y3941331D01*
X40263962Y3575271D01*
X40575271Y3263962D01*
X40941331Y3019369D01*
X41348075Y2850890D01*
X41779872Y2765000D01*
X42220128Y2765000D01*
X42651925Y2850890D01*
X43058669Y3019369D01*
X43424729Y3263962D01*
X43736038Y3575271D01*
X43980631Y3941331D01*
X44149110Y4348075D01*
X44235000Y4779872D01*
X44235000Y5220128D01*
X44149110Y5651925D01*
X43980631Y6058669D01*
X43736038Y6424729D01*
X43424729Y6736038D01*
X43058669Y6980631D01*
X42651925Y7149110D01*
X42220128Y7235000D01*
X41779872Y7235000D01*
X41348075Y7149110D01*
X40941331Y6980631D01*
X40575271Y6736038D01*
X40263962Y6424729D01*
X40019369Y6058669D01*
X39850890Y5651925D01*
X39765000Y5220128D01*
X15573059Y5220128D01*
X15578097Y5237298D01*
X14765000Y6050395D01*
X13951903Y5237298D01*
X7231585Y5237298D01*
X7149110Y5651925D01*
X6980631Y6058669D01*
X6913267Y6159488D01*
X13324783Y6159488D01*
X13366213Y5879870D01*
X13461397Y5613708D01*
X13528329Y5488486D01*
X13772298Y5416903D01*
X14585395Y6230000D01*
X14944605Y6230000D01*
X15757702Y5416903D01*
X16001671Y5488486D01*
X16122571Y5743996D01*
X16191300Y6018184D01*
X16205217Y6300512D01*
X16163787Y6580130D01*
X16068603Y6846292D01*
X16001671Y6971514D01*
X15757702Y7043097D01*
X14944605Y6230000D01*
X14585395Y6230000D01*
X13772298Y7043097D01*
X13528329Y6971514D01*
X13407429Y6716004D01*
X13338700Y6441816D01*
X13324783Y6159488D01*
X6913267Y6159488D01*
X6736038Y6424729D01*
X6424729Y6736038D01*
X6058669Y6980631D01*
X5651925Y7149110D01*
X5220128Y7235000D01*
X4779872Y7235000D01*
X4348075Y7149110D01*
X3941331Y6980631D01*
X3575271Y6736038D01*
X3263962Y6424729D01*
X3019369Y6058669D01*
X2850890Y5651925D01*
X2765000Y5220128D01*
X660000Y5220128D01*
X660000Y63940600D01*
X3788544Y63940600D01*
X3792101Y63904485D01*
X3792100Y60506705D01*
X3788544Y60470600D01*
X3802735Y60326516D01*
X3844763Y60187968D01*
X3913013Y60060281D01*
X4004862Y59948363D01*
X4032908Y59925346D01*
X4576573Y59381680D01*
X4561525Y59366632D01*
X4399010Y59123411D01*
X4287068Y58853158D01*
X4230000Y58566260D01*
X4230000Y58273740D01*
X4287068Y57986842D01*
X4399010Y57716589D01*
X4561525Y57473368D01*
X4768368Y57266525D01*
X4942760Y57150000D01*
X4768368Y57033475D01*
X4561525Y56826632D01*
X4399010Y56583411D01*
X4287068Y56313158D01*
X4230000Y56026260D01*
X4230000Y55733740D01*
X4287068Y55446842D01*
X4399010Y55176589D01*
X4561525Y54933368D01*
X4768368Y54726525D01*
X4942760Y54610000D01*
X4768368Y54493475D01*
X4561525Y54286632D01*
X4399010Y54043411D01*
X4287068Y53773158D01*
X4230000Y53486260D01*
X4230000Y53193740D01*
X4287068Y52906842D01*
X4399010Y52636589D01*
X4561525Y52393368D01*
X4768368Y52186525D01*
X4942760Y52070000D01*
X4768368Y51953475D01*
X4561525Y51746632D01*
X4399010Y51503411D01*
X4287068Y51233158D01*
X4230000Y50946260D01*
X4230000Y50653740D01*
X4287068Y50366842D01*
X4399010Y50096589D01*
X4561525Y49853368D01*
X4768368Y49646525D01*
X4942760Y49530000D01*
X4768368Y49413475D01*
X4561525Y49206632D01*
X4399010Y48963411D01*
X4287068Y48693158D01*
X4230000Y48406260D01*
X4230000Y48113740D01*
X4287068Y47826842D01*
X4399010Y47556589D01*
X4561525Y47313368D01*
X4768368Y47106525D01*
X4942760Y46990000D01*
X4768368Y46873475D01*
X4561525Y46666632D01*
X4399010Y46423411D01*
X4287068Y46153158D01*
X4230000Y45866260D01*
X4230000Y45573740D01*
X4287068Y45286842D01*
X4399010Y45016589D01*
X4561525Y44773368D01*
X4768368Y44566525D01*
X4942760Y44450000D01*
X4768368Y44333475D01*
X4561525Y44126632D01*
X4399010Y43883411D01*
X4287068Y43613158D01*
X4230000Y43326260D01*
X4230000Y43033740D01*
X4287068Y42746842D01*
X4399010Y42476589D01*
X4561525Y42233368D01*
X4768368Y42026525D01*
X4942760Y41910000D01*
X4768368Y41793475D01*
X4561525Y41586632D01*
X4399010Y41343411D01*
X4287068Y41073158D01*
X4230000Y40786260D01*
X4230000Y40493740D01*
X4287068Y40206842D01*
X4399010Y39936589D01*
X4561525Y39693368D01*
X4768368Y39486525D01*
X4942760Y39370000D01*
X4768368Y39253475D01*
X4561525Y39046632D01*
X4399010Y38803411D01*
X4287068Y38533158D01*
X4230000Y38246260D01*
X4230000Y37953740D01*
X4287068Y37666842D01*
X4399010Y37396589D01*
X4561525Y37153368D01*
X4768368Y36946525D01*
X4942760Y36830000D01*
X4768368Y36713475D01*
X4561525Y36506632D01*
X4399010Y36263411D01*
X4287068Y35993158D01*
X4230000Y35706260D01*
X4230000Y35413740D01*
X4287068Y35126842D01*
X4399010Y34856589D01*
X4561525Y34613368D01*
X4768368Y34406525D01*
X4942760Y34290000D01*
X4768368Y34173475D01*
X4561525Y33966632D01*
X4399010Y33723411D01*
X4287068Y33453158D01*
X4230000Y33166260D01*
X4230000Y32873740D01*
X4287068Y32586842D01*
X4399010Y32316589D01*
X4561525Y32073368D01*
X4768368Y31866525D01*
X4942760Y31750000D01*
X4768368Y31633475D01*
X4561525Y31426632D01*
X4399010Y31183411D01*
X4287068Y30913158D01*
X4230000Y30626260D01*
X4230000Y30333740D01*
X4287068Y30046842D01*
X4399010Y29776589D01*
X4561525Y29533368D01*
X4768368Y29326525D01*
X4942760Y29210000D01*
X4768368Y29093475D01*
X4561525Y28886632D01*
X4399010Y28643411D01*
X4287068Y28373158D01*
X4230000Y28086260D01*
X4230000Y27793740D01*
X4287068Y27506842D01*
X4399010Y27236589D01*
X4561525Y26993368D01*
X4768368Y26786525D01*
X4942760Y26670000D01*
X4768368Y26553475D01*
X4561525Y26346632D01*
X4399010Y26103411D01*
X4287068Y25833158D01*
X4230000Y25546260D01*
X4230000Y25253740D01*
X4287068Y24966842D01*
X4399010Y24696589D01*
X4561525Y24453368D01*
X4768368Y24246525D01*
X4942760Y24130000D01*
X4768368Y24013475D01*
X4561525Y23806632D01*
X4399010Y23563411D01*
X4287068Y23293158D01*
X4230000Y23006260D01*
X4230000Y22713740D01*
X4287068Y22426842D01*
X4399010Y22156589D01*
X4561525Y21913368D01*
X4768368Y21706525D01*
X4942760Y21590000D01*
X4768368Y21473475D01*
X4561525Y21266632D01*
X4399010Y21023411D01*
X4287068Y20753158D01*
X4230000Y20466260D01*
X4230000Y20173740D01*
X4287068Y19886842D01*
X4399010Y19616589D01*
X4561525Y19373368D01*
X4768368Y19166525D01*
X4942760Y19050000D01*
X4768368Y18933475D01*
X4561525Y18726632D01*
X4399010Y18483411D01*
X4287068Y18213158D01*
X4230000Y17926260D01*
X4230000Y17633740D01*
X4287068Y17346842D01*
X4399010Y17076589D01*
X4561525Y16833368D01*
X4768368Y16626525D01*
X4942760Y16510000D01*
X4768368Y16393475D01*
X4561525Y16186632D01*
X4399010Y15943411D01*
X4287068Y15673158D01*
X4230000Y15386260D01*
X4230000Y15093740D01*
X4287068Y14806842D01*
X4399010Y14536589D01*
X4561525Y14293368D01*
X4768368Y14086525D01*
X5011589Y13924010D01*
X5281842Y13812068D01*
X5568740Y13755000D01*
X5861260Y13755000D01*
X6148158Y13812068D01*
X6418411Y13924010D01*
X6661632Y14086525D01*
X6793487Y14218380D01*
X6815498Y14145820D01*
X6874463Y14035506D01*
X6953815Y13938815D01*
X7050506Y13859463D01*
X7160820Y13800498D01*
X7280518Y13764188D01*
X7405000Y13751928D01*
X8562204Y13751928D01*
X8885563Y13428568D01*
X8911709Y13396709D01*
X8943568Y13370563D01*
X8943570Y13370561D01*
X9038854Y13292364D01*
X9183913Y13214828D01*
X9341311Y13167082D01*
X9505000Y13150960D01*
X9546018Y13155000D01*
X15853982Y13155000D01*
X15895000Y13150960D01*
X15936018Y13155000D01*
X15936019Y13155000D01*
X16058689Y13167082D01*
X16216087Y13214828D01*
X16310000Y13265026D01*
X16310001Y11455869D01*
X15022205Y10168072D01*
X13965000Y10168072D01*
X13840518Y10155812D01*
X13720820Y10119502D01*
X13610506Y10060537D01*
X13513815Y9981185D01*
X13434463Y9884494D01*
X13375498Y9774180D01*
X13339188Y9654482D01*
X13326928Y9530000D01*
X13326928Y7930000D01*
X13339188Y7805518D01*
X13375498Y7685820D01*
X13434463Y7575506D01*
X13513815Y7478815D01*
X13610506Y7399463D01*
X13720820Y7340498D01*
X13840518Y7304188D01*
X13965000Y7291928D01*
X13972215Y7291928D01*
X13951903Y7222702D01*
X14765000Y6409605D01*
X15578097Y7222702D01*
X15557785Y7291928D01*
X15565000Y7291928D01*
X15689482Y7304188D01*
X15809180Y7340498D01*
X15919494Y7399463D01*
X16016185Y7478815D01*
X16095537Y7575506D01*
X16154502Y7685820D01*
X16190812Y7805518D01*
X16203072Y7930000D01*
X16203072Y8987205D01*
X17706427Y10490559D01*
X17738291Y10516709D01*
X17842636Y10643854D01*
X17920172Y10788913D01*
X17967918Y10946311D01*
X17980000Y11068981D01*
X17980000Y11068991D01*
X17984039Y11109999D01*
X17980000Y11151007D01*
X17980000Y13751928D01*
X17995000Y13751928D01*
X18119482Y13764188D01*
X18239180Y13800498D01*
X18349494Y13859463D01*
X18446185Y13938815D01*
X18477482Y13976951D01*
X20736963Y11717468D01*
X20763109Y11685609D01*
X20890254Y11581264D01*
X21035313Y11503728D01*
X21192711Y11455982D01*
X21315381Y11443900D01*
X21315382Y11443900D01*
X21356400Y11439860D01*
X21397418Y11443900D01*
X35989182Y11443900D01*
X36030200Y11439860D01*
X36071218Y11443900D01*
X36071219Y11443900D01*
X36193889Y11455982D01*
X36351287Y11503728D01*
X36496346Y11581264D01*
X36623491Y11685609D01*
X36649646Y11717478D01*
X37919817Y12987648D01*
X37950392Y12950392D01*
X38168899Y12771068D01*
X38418192Y12637818D01*
X38688691Y12555764D01*
X38899508Y12535000D01*
X39840492Y12535000D01*
X40051309Y12555764D01*
X40321808Y12637818D01*
X40571101Y12771068D01*
X40789608Y12950392D01*
X40968932Y13168899D01*
X41102182Y13418192D01*
X41184236Y13688691D01*
X41211943Y13970000D01*
X41184236Y14251309D01*
X41102182Y14521808D01*
X40968932Y14771101D01*
X40789608Y14989608D01*
X40571101Y15168932D01*
X40438142Y15240000D01*
X40571101Y15311068D01*
X40789608Y15490392D01*
X40968932Y15708899D01*
X41102182Y15958192D01*
X41184236Y16228691D01*
X41211943Y16510000D01*
X41184236Y16791309D01*
X41102182Y17061808D01*
X40968932Y17311101D01*
X40789608Y17529608D01*
X40571101Y17708932D01*
X40438142Y17780000D01*
X40571101Y17851068D01*
X40789608Y18030392D01*
X40968932Y18248899D01*
X41102182Y18498192D01*
X41184236Y18768691D01*
X41211943Y19050000D01*
X41184236Y19331309D01*
X41102182Y19601808D01*
X40968932Y19851101D01*
X40789608Y20069608D01*
X40571101Y20248932D01*
X40438142Y20320000D01*
X40571101Y20391068D01*
X40789608Y20570392D01*
X40968932Y20788899D01*
X41102182Y21038192D01*
X41184236Y21308691D01*
X41211943Y21590000D01*
X41184236Y21871309D01*
X41102182Y22141808D01*
X40968932Y22391101D01*
X40789608Y22609608D01*
X40571101Y22788932D01*
X40438142Y22860000D01*
X40571101Y22931068D01*
X40789608Y23110392D01*
X40968932Y23328899D01*
X41102182Y23578192D01*
X41184236Y23848691D01*
X41211943Y24130000D01*
X41184236Y24411309D01*
X41102182Y24681808D01*
X40968932Y24931101D01*
X40789608Y25149608D01*
X40571101Y25328932D01*
X40438142Y25400000D01*
X40571101Y25471068D01*
X40789608Y25650392D01*
X40968932Y25868899D01*
X41102182Y26118192D01*
X41184236Y26388691D01*
X41211943Y26670000D01*
X41184236Y26951309D01*
X41102182Y27221808D01*
X40968932Y27471101D01*
X40789608Y27689608D01*
X40571101Y27868932D01*
X40438142Y27940000D01*
X40571101Y28011068D01*
X40789608Y28190392D01*
X40968932Y28408899D01*
X41102182Y28658192D01*
X41184236Y28928691D01*
X41211943Y29210000D01*
X41184236Y29491309D01*
X41102182Y29761808D01*
X40968932Y30011101D01*
X40789608Y30229608D01*
X40571101Y30408932D01*
X40443259Y30477265D01*
X40672839Y30627399D01*
X40874500Y30825105D01*
X41033715Y31058354D01*
X41144367Y31318182D01*
X41161904Y31400961D01*
X41039915Y31623000D01*
X39497000Y31623000D01*
X39497000Y31603000D01*
X39243000Y31603000D01*
X39243000Y31623000D01*
X39223000Y31623000D01*
X39223000Y31877000D01*
X39243000Y31877000D01*
X39243000Y31897000D01*
X39497000Y31897000D01*
X39497000Y31877000D01*
X41039915Y31877000D01*
X41161904Y32099039D01*
X41144367Y32181818D01*
X41033715Y32441646D01*
X40874500Y32674895D01*
X40672839Y32872601D01*
X40443259Y33022735D01*
X40571101Y33091068D01*
X40789608Y33270392D01*
X40968932Y33488899D01*
X41102182Y33738192D01*
X41184236Y34008691D01*
X41211943Y34290000D01*
X41184236Y34571309D01*
X41102182Y34841808D01*
X40968932Y35091101D01*
X40789608Y35309608D01*
X40571101Y35488932D01*
X40438142Y35560000D01*
X40571101Y35631068D01*
X40789608Y35810392D01*
X40968932Y36028899D01*
X41102182Y36278192D01*
X41184236Y36548691D01*
X41211943Y36830000D01*
X41184236Y37111309D01*
X41102182Y37381808D01*
X40968932Y37631101D01*
X40789608Y37849608D01*
X40571101Y38028932D01*
X40438142Y38100000D01*
X40571101Y38171068D01*
X40789608Y38350392D01*
X40968932Y38568899D01*
X41102182Y38818192D01*
X41184236Y39088691D01*
X41211943Y39370000D01*
X41184236Y39651309D01*
X41102182Y39921808D01*
X40968932Y40171101D01*
X40789608Y40389608D01*
X40571101Y40568932D01*
X40438142Y40640000D01*
X40571101Y40711068D01*
X40789608Y40890392D01*
X40968932Y41108899D01*
X41102182Y41358192D01*
X41184236Y41628691D01*
X41211943Y41910000D01*
X41184236Y42191309D01*
X41102182Y42461808D01*
X40968932Y42711101D01*
X40789608Y42929608D01*
X40571101Y43108932D01*
X40438142Y43180000D01*
X40571101Y43251068D01*
X40789608Y43430392D01*
X40968932Y43648899D01*
X41102182Y43898192D01*
X41184236Y44168691D01*
X41211943Y44450000D01*
X41184236Y44731309D01*
X41102182Y45001808D01*
X40968932Y45251101D01*
X40789608Y45469608D01*
X40571101Y45648932D01*
X40438142Y45720000D01*
X40571101Y45791068D01*
X40789608Y45970392D01*
X40968932Y46188899D01*
X41102182Y46438192D01*
X41184236Y46708691D01*
X41211943Y46990000D01*
X41184236Y47271309D01*
X41102182Y47541808D01*
X40968932Y47791101D01*
X40789608Y48009608D01*
X40571101Y48188932D01*
X40321808Y48322182D01*
X40051309Y48404236D01*
X39840492Y48425000D01*
X38899508Y48425000D01*
X38688691Y48404236D01*
X38418192Y48322182D01*
X38168899Y48188932D01*
X37950392Y48009608D01*
X37798888Y47825000D01*
X37506018Y47825000D01*
X37465000Y47829040D01*
X37423981Y47825000D01*
X37131112Y47825000D01*
X36979608Y48009608D01*
X36761101Y48188932D01*
X36511808Y48322182D01*
X36241309Y48404236D01*
X36030492Y48425000D01*
X35940868Y48425000D01*
X34436285Y49929582D01*
X34455000Y50023665D01*
X34455000Y50306335D01*
X34399853Y50583574D01*
X34291680Y50844727D01*
X34215200Y50959188D01*
X34215200Y56656335D01*
X34760000Y56656335D01*
X34760000Y56373665D01*
X34815147Y56096426D01*
X34923320Y55835273D01*
X35080363Y55600241D01*
X35280241Y55400363D01*
X35515273Y55243320D01*
X35776426Y55135147D01*
X36053665Y55080000D01*
X36336335Y55080000D01*
X36613574Y55135147D01*
X36874727Y55243320D01*
X37109759Y55400363D01*
X37309637Y55600241D01*
X37466680Y55835273D01*
X37574853Y56096426D01*
X37630000Y56373665D01*
X37630000Y56656335D01*
X37574853Y56933574D01*
X37466680Y57194727D01*
X37309637Y57429759D01*
X37109759Y57629637D01*
X36874727Y57786680D01*
X36613574Y57894853D01*
X36336335Y57950000D01*
X36053665Y57950000D01*
X35776426Y57894853D01*
X35515273Y57786680D01*
X35280241Y57629637D01*
X35080363Y57429759D01*
X34923320Y57194727D01*
X34815147Y56933574D01*
X34760000Y56656335D01*
X34215200Y56656335D01*
X34215200Y63235000D01*
X42276928Y63235000D01*
X42289188Y63110518D01*
X42325498Y62990820D01*
X42384463Y62880506D01*
X42463815Y62783815D01*
X42560506Y62704463D01*
X42670820Y62645498D01*
X42689127Y62639944D01*
X42622688Y62573505D01*
X42454701Y62322095D01*
X42338989Y62042743D01*
X42280000Y61746184D01*
X42280000Y61443816D01*
X42338989Y61147257D01*
X42454701Y60867905D01*
X42622688Y60616495D01*
X42836495Y60402688D01*
X43087905Y60234701D01*
X43367257Y60118989D01*
X43663816Y60060000D01*
X43966184Y60060000D01*
X44262743Y60118989D01*
X44542095Y60234701D01*
X44793505Y60402688D01*
X45007312Y60616495D01*
X45175299Y60867905D01*
X45291011Y61147257D01*
X45350000Y61443816D01*
X45350000Y61746184D01*
X45291011Y62042743D01*
X45175299Y62322095D01*
X45007312Y62573505D01*
X44940873Y62639944D01*
X44959180Y62645498D01*
X45069494Y62704463D01*
X45166185Y62783815D01*
X45245537Y62880506D01*
X45304502Y62990820D01*
X45340812Y63110518D01*
X45353072Y63235000D01*
X45350000Y63849250D01*
X45191250Y64008000D01*
X43942000Y64008000D01*
X43942000Y63988000D01*
X43688000Y63988000D01*
X43688000Y64008000D01*
X42438750Y64008000D01*
X42280000Y63849250D01*
X42276928Y63235000D01*
X34215200Y63235000D01*
X34215200Y65035000D01*
X42276928Y65035000D01*
X42280000Y64420750D01*
X42438750Y64262000D01*
X43688000Y64262000D01*
X43688000Y65511250D01*
X43942000Y65511250D01*
X43942000Y64262000D01*
X45191250Y64262000D01*
X45350000Y64420750D01*
X45353072Y65035000D01*
X45340812Y65159482D01*
X45304502Y65279180D01*
X45245537Y65389494D01*
X45166185Y65486185D01*
X45069494Y65565537D01*
X44959180Y65624502D01*
X44839482Y65660812D01*
X44715000Y65673072D01*
X44100750Y65670000D01*
X43942000Y65511250D01*
X43688000Y65511250D01*
X43529250Y65670000D01*
X42915000Y65673072D01*
X42790518Y65660812D01*
X42670820Y65624502D01*
X42560506Y65565537D01*
X42463815Y65486185D01*
X42384463Y65389494D01*
X42325498Y65279180D01*
X42289188Y65159482D01*
X42276928Y65035000D01*
X34215200Y65035000D01*
X34215200Y69356335D01*
X34760000Y69356335D01*
X34760000Y69073665D01*
X34815147Y68796426D01*
X34923320Y68535273D01*
X35080363Y68300241D01*
X35280241Y68100363D01*
X35512759Y67945000D01*
X35280241Y67789637D01*
X35080363Y67589759D01*
X34923320Y67354727D01*
X34815147Y67093574D01*
X34760000Y66816335D01*
X34760000Y66533665D01*
X34815147Y66256426D01*
X34923320Y65995273D01*
X35080363Y65760241D01*
X35280241Y65560363D01*
X35515273Y65403320D01*
X35776426Y65295147D01*
X36053665Y65240000D01*
X36336335Y65240000D01*
X36613574Y65295147D01*
X36874727Y65403320D01*
X37109759Y65560363D01*
X37309637Y65760241D01*
X37466680Y65995273D01*
X37574853Y66256426D01*
X37630000Y66533665D01*
X37630000Y66816335D01*
X37574853Y67093574D01*
X37466680Y67354727D01*
X37309637Y67589759D01*
X37109759Y67789637D01*
X36877241Y67945000D01*
X37109759Y68100363D01*
X37309637Y68300241D01*
X37466680Y68535273D01*
X37574853Y68796426D01*
X37630000Y69073665D01*
X37630000Y69356335D01*
X37574853Y69633574D01*
X37466680Y69894727D01*
X37309637Y70129759D01*
X37109759Y70329637D01*
X36874727Y70486680D01*
X36613574Y70594853D01*
X36336335Y70650000D01*
X36053665Y70650000D01*
X35776426Y70594853D01*
X35515273Y70486680D01*
X35280241Y70329637D01*
X35080363Y70129759D01*
X34923320Y69894727D01*
X34815147Y69633574D01*
X34760000Y69356335D01*
X34215200Y69356335D01*
X34215200Y73395000D01*
X42276928Y73395000D01*
X42289188Y73270518D01*
X42325498Y73150820D01*
X42384463Y73040506D01*
X42463815Y72943815D01*
X42560506Y72864463D01*
X42670820Y72805498D01*
X42790518Y72769188D01*
X42915000Y72756928D01*
X43529250Y72760000D01*
X43688000Y72918750D01*
X43688000Y74168000D01*
X43942000Y74168000D01*
X43942000Y72918750D01*
X44100750Y72760000D01*
X44715000Y72756928D01*
X44839482Y72769188D01*
X44959180Y72805498D01*
X45069494Y72864463D01*
X45166185Y72943815D01*
X45245537Y73040506D01*
X45304502Y73150820D01*
X45340812Y73270518D01*
X45353072Y73395000D01*
X45350000Y74009250D01*
X45191250Y74168000D01*
X43942000Y74168000D01*
X43688000Y74168000D01*
X42438750Y74168000D01*
X42280000Y74009250D01*
X42276928Y73395000D01*
X34215200Y73395000D01*
X34215200Y75195000D01*
X42276928Y75195000D01*
X42280000Y74580750D01*
X42438750Y74422000D01*
X43688000Y74422000D01*
X43688000Y74442000D01*
X43942000Y74442000D01*
X43942000Y74422000D01*
X45191250Y74422000D01*
X45350000Y74580750D01*
X45353072Y75195000D01*
X45340812Y75319482D01*
X45304502Y75439180D01*
X45245537Y75549494D01*
X45166185Y75646185D01*
X45069494Y75725537D01*
X44959180Y75784502D01*
X44940873Y75790056D01*
X45007312Y75856495D01*
X45175299Y76107905D01*
X45291011Y76387257D01*
X45350000Y76683816D01*
X45350000Y76986184D01*
X45291011Y77282743D01*
X45175299Y77562095D01*
X45007312Y77813505D01*
X44793505Y78027312D01*
X44542095Y78195299D01*
X44262743Y78311011D01*
X43966184Y78370000D01*
X43663816Y78370000D01*
X43367257Y78311011D01*
X43087905Y78195299D01*
X42836495Y78027312D01*
X42622688Y77813505D01*
X42454701Y77562095D01*
X42338989Y77282743D01*
X42280000Y76986184D01*
X42280000Y76683816D01*
X42338989Y76387257D01*
X42454701Y76107905D01*
X42622688Y75856495D01*
X42689127Y75790056D01*
X42670820Y75784502D01*
X42560506Y75725537D01*
X42463815Y75646185D01*
X42384463Y75549494D01*
X42325498Y75439180D01*
X42289188Y75319482D01*
X42276928Y75195000D01*
X34215200Y75195000D01*
X34215200Y79516335D01*
X34760000Y79516335D01*
X34760000Y79233665D01*
X34815147Y78956426D01*
X34923320Y78695273D01*
X35080363Y78460241D01*
X35280241Y78260363D01*
X35515273Y78103320D01*
X35776426Y77995147D01*
X36053665Y77940000D01*
X36336335Y77940000D01*
X36613574Y77995147D01*
X36874727Y78103320D01*
X37109759Y78260363D01*
X37309637Y78460241D01*
X37466680Y78695273D01*
X37574853Y78956426D01*
X37630000Y79233665D01*
X37630000Y79516335D01*
X37574853Y79793574D01*
X37466680Y80054727D01*
X37309637Y80289759D01*
X37109759Y80489637D01*
X36874727Y80646680D01*
X36613574Y80754853D01*
X36336335Y80810000D01*
X36053665Y80810000D01*
X35776426Y80754853D01*
X35515273Y80646680D01*
X35280241Y80489637D01*
X35080363Y80289759D01*
X34923320Y80054727D01*
X34815147Y79793574D01*
X34760000Y79516335D01*
X34215200Y79516335D01*
X34215200Y83101282D01*
X34219240Y83142300D01*
X34203118Y83305989D01*
X34155372Y83463387D01*
X34077836Y83608446D01*
X33999639Y83703730D01*
X33999637Y83703732D01*
X33973491Y83735591D01*
X33941633Y83761736D01*
X33556193Y84147176D01*
X33564236Y84173691D01*
X33591943Y84455000D01*
X33564236Y84736309D01*
X33482182Y85006808D01*
X33348932Y85256101D01*
X33169608Y85474608D01*
X32951101Y85653932D01*
X32701808Y85787182D01*
X32431309Y85869236D01*
X32220492Y85890000D01*
X32130868Y85890000D01*
X31800740Y86220128D01*
X39765000Y86220128D01*
X39765000Y85779872D01*
X39850890Y85348075D01*
X40019369Y84941331D01*
X40263962Y84575271D01*
X40575271Y84263962D01*
X40941331Y84019369D01*
X41348075Y83850890D01*
X41779872Y83765000D01*
X42220128Y83765000D01*
X42651925Y83850890D01*
X43058669Y84019369D01*
X43424729Y84263962D01*
X43736038Y84575271D01*
X43980631Y84941331D01*
X44149110Y85348075D01*
X44235000Y85779872D01*
X44235000Y86220128D01*
X44149110Y86651925D01*
X43980631Y87058669D01*
X43736038Y87424729D01*
X43424729Y87736038D01*
X43058669Y87980631D01*
X42651925Y88149110D01*
X42220128Y88235000D01*
X41779872Y88235000D01*
X41348075Y88149110D01*
X40941331Y87980631D01*
X40575271Y87736038D01*
X40263962Y87424729D01*
X40019369Y87058669D01*
X39850890Y86651925D01*
X39765000Y86220128D01*
X31800740Y86220128D01*
X30626285Y87394582D01*
X30645000Y87488665D01*
X30645000Y87771335D01*
X30589853Y88048574D01*
X30481680Y88309727D01*
X30324637Y88544759D01*
X30124759Y88744637D01*
X29889727Y88901680D01*
X29628574Y89009853D01*
X29351335Y89065000D01*
X29068665Y89065000D01*
X28791426Y89009853D01*
X28530273Y88901680D01*
X28295241Y88744637D01*
X28095363Y88544759D01*
X27961308Y88344131D01*
X27946671Y88371514D01*
X27702702Y88443097D01*
X26889605Y87630000D01*
X27702702Y86816903D01*
X27946671Y86888486D01*
X27960324Y86917341D01*
X28095363Y86715241D01*
X28295241Y86515363D01*
X28530273Y86358320D01*
X28791426Y86250147D01*
X29068665Y86195000D01*
X29351335Y86195000D01*
X29445418Y86213715D01*
X30264642Y85394491D01*
X30151068Y85256101D01*
X30017818Y85006808D01*
X29935764Y84736309D01*
X29908057Y84455000D01*
X29935764Y84173691D01*
X30017818Y83903192D01*
X30151068Y83653899D01*
X30330392Y83435392D01*
X30548899Y83256068D01*
X30681858Y83185000D01*
X30548899Y83113932D01*
X30330392Y82934608D01*
X30302962Y82901185D01*
X29648058Y83556088D01*
X29625038Y83584138D01*
X29513120Y83675987D01*
X29385433Y83744237D01*
X29246885Y83786265D01*
X29138905Y83796900D01*
X29102800Y83800456D01*
X29066695Y83796900D01*
X25968072Y83796900D01*
X25968072Y85255000D01*
X25955812Y85379482D01*
X25919502Y85499180D01*
X25860537Y85609494D01*
X25781185Y85706185D01*
X25684494Y85785537D01*
X25574180Y85844502D01*
X25454482Y85880812D01*
X25330000Y85893072D01*
X22930000Y85893072D01*
X22805518Y85880812D01*
X22685820Y85844502D01*
X22575506Y85785537D01*
X22478815Y85706185D01*
X22399463Y85609494D01*
X22340498Y85499180D01*
X22304188Y85379482D01*
X22291928Y85255000D01*
X22291928Y83655000D01*
X22304188Y83530518D01*
X22340498Y83410820D01*
X22380652Y83335699D01*
X17840308Y78795354D01*
X17812263Y78772338D01*
X17720414Y78660420D01*
X17674054Y78573686D01*
X17652164Y78532733D01*
X17610135Y78394185D01*
X17595944Y78250100D01*
X17599501Y78213985D01*
X17599501Y77619092D01*
X17578158Y77627932D01*
X17291260Y77685000D01*
X16998740Y77685000D01*
X16711842Y77627932D01*
X16441589Y77515990D01*
X16198368Y77353475D01*
X16183320Y77338427D01*
X15662058Y77859688D01*
X15639038Y77887738D01*
X15527120Y77979587D01*
X15399433Y78047837D01*
X15260885Y78089865D01*
X15152905Y78100500D01*
X15116800Y78104056D01*
X15080695Y78100500D01*
X10606905Y78100500D01*
X10570800Y78104056D01*
X10534695Y78100500D01*
X10426715Y78089865D01*
X10288167Y78047837D01*
X10160480Y77979587D01*
X10048562Y77887738D01*
X10025546Y77859693D01*
X9360480Y77194627D01*
X9201632Y77353475D01*
X8958411Y77515990D01*
X8688158Y77627932D01*
X8401260Y77685000D01*
X8108740Y77685000D01*
X7821842Y77627932D01*
X7551589Y77515990D01*
X7308368Y77353475D01*
X7101525Y77146632D01*
X6983900Y76970594D01*
X6812588Y77200269D01*
X6596355Y77395178D01*
X6346252Y77544157D01*
X6071891Y77641481D01*
X5842000Y77520814D01*
X5842000Y76327000D01*
X5862000Y76327000D01*
X5862000Y76073000D01*
X5842000Y76073000D01*
X5842000Y73787000D01*
X5862000Y73787000D01*
X5862000Y73533000D01*
X5842000Y73533000D01*
X5842000Y73513000D01*
X5588000Y73513000D01*
X5588000Y73533000D01*
X4394845Y73533000D01*
X4273524Y73303110D01*
X4318175Y73155901D01*
X4443359Y72893080D01*
X4617412Y72659731D01*
X4833645Y72464822D01*
X4950534Y72395195D01*
X4768368Y72273475D01*
X4561525Y72066632D01*
X4399010Y71823411D01*
X4287068Y71553158D01*
X4230000Y71266260D01*
X4230000Y70973740D01*
X4287068Y70686842D01*
X4399010Y70416589D01*
X4561525Y70173368D01*
X4768368Y69966525D01*
X4942760Y69850000D01*
X4768368Y69733475D01*
X4561525Y69526632D01*
X4399010Y69283411D01*
X4287068Y69013158D01*
X4230000Y68726260D01*
X4230000Y68433740D01*
X4287068Y68146842D01*
X4399010Y67876589D01*
X4561525Y67633368D01*
X4768368Y67426525D01*
X4942760Y67310000D01*
X4768368Y67193475D01*
X4561525Y66986632D01*
X4399010Y66743411D01*
X4287068Y66473158D01*
X4230000Y66186260D01*
X4230000Y65893740D01*
X4287068Y65606842D01*
X4399010Y65336589D01*
X4561525Y65093368D01*
X4600973Y65053920D01*
X4032908Y64485854D01*
X4004863Y64462838D01*
X3913014Y64350920D01*
X3851756Y64236314D01*
X3844764Y64223233D01*
X3802735Y64084685D01*
X3788544Y63940600D01*
X660000Y63940600D01*
X660000Y75843110D01*
X4273524Y75843110D01*
X4318175Y75695901D01*
X4443359Y75433080D01*
X4617412Y75199731D01*
X4833645Y75004822D01*
X4959255Y74930000D01*
X4833645Y74855178D01*
X4617412Y74660269D01*
X4443359Y74426920D01*
X4318175Y74164099D01*
X4273524Y74016890D01*
X4394845Y73787000D01*
X5588000Y73787000D01*
X5588000Y76073000D01*
X4394845Y76073000D01*
X4273524Y75843110D01*
X660000Y75843110D01*
X660000Y76556890D01*
X4273524Y76556890D01*
X4394845Y76327000D01*
X5588000Y76327000D01*
X5588000Y77520814D01*
X5358109Y77641481D01*
X5083748Y77544157D01*
X4833645Y77395178D01*
X4617412Y77200269D01*
X4443359Y76966920D01*
X4318175Y76704099D01*
X4273524Y76556890D01*
X660000Y76556890D01*
X660000Y86220128D01*
X2765000Y86220128D01*
X2765000Y85779872D01*
X2850890Y85348075D01*
X3019369Y84941331D01*
X3263962Y84575271D01*
X3575271Y84263962D01*
X3941331Y84019369D01*
X4348075Y83850890D01*
X4779872Y83765000D01*
X5220128Y83765000D01*
X5651925Y83850890D01*
X6058669Y84019369D01*
X6424729Y84263962D01*
X6736038Y84575271D01*
X6980631Y84941331D01*
X7149110Y85348075D01*
X7235000Y85779872D01*
X7235000Y86220128D01*
X7152020Y86637298D01*
X25896903Y86637298D01*
X25968486Y86393329D01*
X26223996Y86272429D01*
X26498184Y86203700D01*
X26780512Y86189783D01*
X27060130Y86231213D01*
X27326292Y86326397D01*
X27451514Y86393329D01*
X27523097Y86637298D01*
X26710000Y87450395D01*
X25896903Y86637298D01*
X7152020Y86637298D01*
X7149110Y86651925D01*
X6980631Y87058669D01*
X6736038Y87424729D01*
X6601279Y87559488D01*
X25269783Y87559488D01*
X25311213Y87279870D01*
X25406397Y87013708D01*
X25473329Y86888486D01*
X25717298Y86816903D01*
X26530395Y87630000D01*
X25717298Y88443097D01*
X25473329Y88371514D01*
X25352429Y88116004D01*
X25283700Y87841816D01*
X25269783Y87559488D01*
X6601279Y87559488D01*
X6424729Y87736038D01*
X6058669Y87980631D01*
X5651925Y88149110D01*
X5220128Y88235000D01*
X4779872Y88235000D01*
X4348075Y88149110D01*
X3941331Y87980631D01*
X3575271Y87736038D01*
X3263962Y87424729D01*
X3019369Y87058669D01*
X2850890Y86651925D01*
X2765000Y86220128D01*
X660000Y86220128D01*
X660000Y88622702D01*
X25896903Y88622702D01*
X26710000Y87809605D01*
X27523097Y88622702D01*
X27451514Y88866671D01*
X27196004Y88987571D01*
X26921816Y89056300D01*
X26639488Y89070217D01*
X26359870Y89028787D01*
X26093708Y88933603D01*
X25968486Y88866671D01*
X25896903Y88622702D01*
X660000Y88622702D01*
X660000Y90340000D01*
X46340001Y90340000D01*
X46340000Y660000D01*
G37*
G04 #@! TD.AperFunction*
D22*
X22084446Y16015807D02*
X22107462Y15987762D01*
X22219380Y15895913D01*
X22347067Y15827663D01*
X22485615Y15785635D01*
X22490298Y15785174D01*
X22531068Y15708899D01*
X22710392Y15490392D01*
X22928899Y15311068D01*
X23056741Y15242735D01*
X22827161Y15092601D01*
X22625500Y14894895D01*
X22466285Y14661646D01*
X22355633Y14401818D01*
X22338096Y14319039D01*
X22460085Y14097000D01*
X24003000Y14097000D01*
X24003000Y14117000D01*
X24257000Y14117000D01*
X24257000Y14097000D01*
X24277000Y14097000D01*
X24277000Y13843000D01*
X24257000Y13843000D01*
X24257000Y13823000D01*
X24003000Y13823000D01*
X24003000Y13843000D01*
X22460085Y13843000D01*
X22338096Y13620961D01*
X22355633Y13538182D01*
X22466285Y13278354D01*
X22578541Y13113900D01*
X21702269Y13113900D01*
X19014746Y15801421D01*
X18988591Y15833291D01*
X18861446Y15937636D01*
X18716387Y16015172D01*
X18633072Y16040445D01*
X18633072Y16090000D01*
X18620812Y16214482D01*
X18584502Y16334180D01*
X18525537Y16444494D01*
X18446185Y16541185D01*
X18349494Y16620537D01*
X18239180Y16679502D01*
X18166620Y16701513D01*
X18298475Y16833368D01*
X18460990Y17076589D01*
X18572932Y17346842D01*
X18630000Y17633740D01*
X18630000Y17926260D01*
X18572932Y18213158D01*
X18460990Y18483411D01*
X18298475Y18726632D01*
X18091632Y18933475D01*
X17917240Y19050000D01*
X18091632Y19166525D01*
X18298475Y19373368D01*
X18460990Y19616589D01*
X18467631Y19632622D01*
X22084446Y16015807D01*
G04 #@! TA.AperFunction,Conductor*
D23*
G36*
X22084446Y16015807D02*
G01*
X22107462Y15987762D01*
X22219380Y15895913D01*
X22347067Y15827663D01*
X22485615Y15785635D01*
X22490298Y15785174D01*
X22531068Y15708899D01*
X22710392Y15490392D01*
X22928899Y15311068D01*
X23056741Y15242735D01*
X22827161Y15092601D01*
X22625500Y14894895D01*
X22466285Y14661646D01*
X22355633Y14401818D01*
X22338096Y14319039D01*
X22460085Y14097000D01*
X24003000Y14097000D01*
X24003000Y14117000D01*
X24257000Y14117000D01*
X24257000Y14097000D01*
X24277000Y14097000D01*
X24277000Y13843000D01*
X24257000Y13843000D01*
X24257000Y13823000D01*
X24003000Y13823000D01*
X24003000Y13843000D01*
X22460085Y13843000D01*
X22338096Y13620961D01*
X22355633Y13538182D01*
X22466285Y13278354D01*
X22578541Y13113900D01*
X21702269Y13113900D01*
X19014746Y15801421D01*
X18988591Y15833291D01*
X18861446Y15937636D01*
X18716387Y16015172D01*
X18633072Y16040445D01*
X18633072Y16090000D01*
X18620812Y16214482D01*
X18584502Y16334180D01*
X18525537Y16444494D01*
X18446185Y16541185D01*
X18349494Y16620537D01*
X18239180Y16679502D01*
X18166620Y16701513D01*
X18298475Y16833368D01*
X18460990Y17076589D01*
X18572932Y17346842D01*
X18630000Y17633740D01*
X18630000Y17926260D01*
X18572932Y18213158D01*
X18460990Y18483411D01*
X18298475Y18726632D01*
X18091632Y18933475D01*
X17917240Y19050000D01*
X18091632Y19166525D01*
X18298475Y19373368D01*
X18460990Y19616589D01*
X18467631Y19632622D01*
X22084446Y16015807D01*
G37*
G04 #@! TD.AperFunction*
D22*
X30330392Y55495392D02*
X30548899Y55316068D01*
X30798192Y55182818D01*
X31068691Y55100764D01*
X31279508Y55080000D01*
X32220492Y55080000D01*
X32431309Y55100764D01*
X32545201Y55135312D01*
X32545201Y51521564D01*
X32340273Y51436680D01*
X32105241Y51279637D01*
X31905363Y51079759D01*
X31771308Y50879131D01*
X31756671Y50906514D01*
X31512702Y50978097D01*
X30699605Y50165000D01*
X31512702Y49351903D01*
X31756671Y49423486D01*
X31770324Y49452341D01*
X31905363Y49250241D01*
X32105241Y49050363D01*
X32340273Y48893320D01*
X32601426Y48785147D01*
X32878665Y48730000D01*
X33161335Y48730000D01*
X33255418Y48748715D01*
X34074642Y47929491D01*
X33961068Y47791101D01*
X33827818Y47541808D01*
X33745764Y47271309D01*
X33718057Y46990000D01*
X33745764Y46708691D01*
X33827818Y46438192D01*
X33961068Y46188899D01*
X34140392Y45970392D01*
X34358899Y45791068D01*
X34491858Y45720000D01*
X34358899Y45648932D01*
X34140392Y45469608D01*
X33961068Y45251101D01*
X33827818Y45001808D01*
X33745764Y44731309D01*
X33718057Y44450000D01*
X33745764Y44168691D01*
X33827818Y43898192D01*
X33961068Y43648899D01*
X34140392Y43430392D01*
X34358899Y43251068D01*
X34491858Y43180000D01*
X34358899Y43108932D01*
X34140392Y42929608D01*
X33961068Y42711101D01*
X33827818Y42461808D01*
X33745764Y42191309D01*
X33718057Y41910000D01*
X33745764Y41628691D01*
X33827818Y41358192D01*
X33961068Y41108899D01*
X34140392Y40890392D01*
X34358899Y40711068D01*
X34491858Y40640000D01*
X34358899Y40568932D01*
X34140392Y40389608D01*
X33961068Y40171101D01*
X33827818Y39921808D01*
X33745764Y39651309D01*
X33718057Y39370000D01*
X33745764Y39088691D01*
X33827818Y38818192D01*
X33961068Y38568899D01*
X34140392Y38350392D01*
X34358899Y38171068D01*
X34491858Y38100000D01*
X34358899Y38028932D01*
X34140392Y37849608D01*
X33961068Y37631101D01*
X33827818Y37381808D01*
X33745764Y37111309D01*
X33718057Y36830000D01*
X33745764Y36548691D01*
X33827818Y36278192D01*
X33961068Y36028899D01*
X34140392Y35810392D01*
X34358899Y35631068D01*
X34491858Y35560000D01*
X34358899Y35488932D01*
X34140392Y35309608D01*
X33961068Y35091101D01*
X33827818Y34841808D01*
X33745764Y34571309D01*
X33718057Y34290000D01*
X33745764Y34008691D01*
X33827818Y33738192D01*
X33961068Y33488899D01*
X34140392Y33270392D01*
X34358899Y33091068D01*
X34486741Y33022735D01*
X34257161Y32872601D01*
X34055500Y32674895D01*
X33896285Y32441646D01*
X33785633Y32181818D01*
X33768096Y32099039D01*
X33890085Y31877000D01*
X35433000Y31877000D01*
X35433000Y31897000D01*
X35687000Y31897000D01*
X35687000Y31877000D01*
X35707000Y31877000D01*
X35707000Y31623000D01*
X35687000Y31623000D01*
X35687000Y31603000D01*
X35433000Y31603000D01*
X35433000Y31623000D01*
X33890085Y31623000D01*
X33768096Y31400961D01*
X33785633Y31318182D01*
X33896285Y31058354D01*
X34055500Y30825105D01*
X34257161Y30627399D01*
X34486741Y30477265D01*
X34358899Y30408932D01*
X34140392Y30229608D01*
X33961068Y30011101D01*
X33827818Y29761808D01*
X33745764Y29491309D01*
X33718057Y29210000D01*
X33745764Y28928691D01*
X33827818Y28658192D01*
X33961068Y28408899D01*
X34140392Y28190392D01*
X34358899Y28011068D01*
X34491858Y27940000D01*
X34358899Y27868932D01*
X34140392Y27689608D01*
X33961068Y27471101D01*
X33827818Y27221808D01*
X33745764Y26951309D01*
X33718057Y26670000D01*
X33745764Y26388691D01*
X33827818Y26118192D01*
X33961068Y25868899D01*
X34140392Y25650392D01*
X34358899Y25471068D01*
X34491858Y25400000D01*
X34358899Y25328932D01*
X34140392Y25149608D01*
X33961068Y24931101D01*
X33827818Y24681808D01*
X33745764Y24411309D01*
X33718057Y24130000D01*
X33745764Y23848691D01*
X33827818Y23578192D01*
X33961068Y23328899D01*
X34140392Y23110392D01*
X34358899Y22931068D01*
X34491858Y22860000D01*
X34358899Y22788932D01*
X34140392Y22609608D01*
X33961068Y22391101D01*
X33827818Y22141808D01*
X33745764Y21871309D01*
X33718057Y21590000D01*
X33745764Y21308691D01*
X33827818Y21038192D01*
X33961068Y20788899D01*
X34140392Y20570392D01*
X34358899Y20391068D01*
X34491858Y20320000D01*
X34358899Y20248932D01*
X34140392Y20069608D01*
X33961068Y19851101D01*
X33827818Y19601808D01*
X33745764Y19331309D01*
X33718057Y19050000D01*
X33745764Y18768691D01*
X33827818Y18498192D01*
X33961068Y18248899D01*
X34140392Y18030392D01*
X34358899Y17851068D01*
X34491858Y17780000D01*
X34358899Y17708932D01*
X34140392Y17529608D01*
X33961068Y17311101D01*
X33827818Y17061808D01*
X33745764Y16791309D01*
X33718057Y16510000D01*
X33745764Y16228691D01*
X33827818Y15958192D01*
X33961068Y15708899D01*
X34140392Y15490392D01*
X34358899Y15311068D01*
X34491858Y15240000D01*
X34358899Y15168932D01*
X34140392Y14989608D01*
X33961068Y14771101D01*
X33920298Y14694826D01*
X33915614Y14694365D01*
X33893432Y14687636D01*
X33777067Y14652337D01*
X33649380Y14584087D01*
X33537462Y14492238D01*
X33514446Y14464193D01*
X32632654Y13582400D01*
X29723735Y13582400D01*
X29731904Y13620961D01*
X29609915Y13843000D01*
X28067000Y13843000D01*
X28067000Y13823000D01*
X27813000Y13823000D01*
X27813000Y13843000D01*
X27793000Y13843000D01*
X27793000Y14097000D01*
X27813000Y14097000D01*
X27813000Y14117000D01*
X28067000Y14117000D01*
X28067000Y14097000D01*
X29609915Y14097000D01*
X29731904Y14319039D01*
X29714367Y14401818D01*
X29603715Y14661646D01*
X29444500Y14894895D01*
X29242839Y15092601D01*
X29013259Y15242735D01*
X29141101Y15311068D01*
X29359608Y15490392D01*
X29538932Y15708899D01*
X29672182Y15958192D01*
X29754236Y16228691D01*
X29781943Y16510000D01*
X29754236Y16791309D01*
X29672182Y17061808D01*
X29538932Y17311101D01*
X29359608Y17529608D01*
X29141101Y17708932D01*
X29008142Y17780000D01*
X29141101Y17851068D01*
X29359608Y18030392D01*
X29538932Y18248899D01*
X29672182Y18498192D01*
X29754236Y18768691D01*
X29781943Y19050000D01*
X29754236Y19331309D01*
X29672182Y19601808D01*
X29538932Y19851101D01*
X29359608Y20069608D01*
X29141101Y20248932D01*
X29008142Y20320000D01*
X29141101Y20391068D01*
X29359608Y20570392D01*
X29538932Y20788899D01*
X29579702Y20865174D01*
X29584385Y20865635D01*
X29722933Y20907663D01*
X29850620Y20975913D01*
X29962538Y21067762D01*
X29985558Y21095812D01*
X30747997Y21858250D01*
X30776037Y21881262D01*
X30799050Y21909303D01*
X30799053Y21909306D01*
X30867887Y21993180D01*
X30936137Y22120866D01*
X30978165Y22259415D01*
X30992356Y22403500D01*
X30988800Y22439605D01*
X30988800Y48771696D01*
X30992356Y48807801D01*
X30992154Y48809851D01*
X31136292Y48861397D01*
X31261514Y48928329D01*
X31333097Y49172298D01*
X30520000Y49985395D01*
X30505858Y49971252D01*
X30326253Y50150857D01*
X30340395Y50165000D01*
X30326253Y50179142D01*
X30505858Y50358747D01*
X30520000Y50344605D01*
X31333097Y51157702D01*
X31261514Y51401671D01*
X31006004Y51522571D01*
X30731816Y51591300D01*
X30449488Y51605217D01*
X30169870Y51563787D01*
X30136300Y51551782D01*
X30136300Y55362154D01*
X30302962Y55528816D01*
X30330392Y55495392D01*
G04 #@! TA.AperFunction,Conductor*
D23*
G36*
X30330392Y55495392D02*
G01*
X30548899Y55316068D01*
X30798192Y55182818D01*
X31068691Y55100764D01*
X31279508Y55080000D01*
X32220492Y55080000D01*
X32431309Y55100764D01*
X32545201Y55135312D01*
X32545201Y51521564D01*
X32340273Y51436680D01*
X32105241Y51279637D01*
X31905363Y51079759D01*
X31771308Y50879131D01*
X31756671Y50906514D01*
X31512702Y50978097D01*
X30699605Y50165000D01*
X31512702Y49351903D01*
X31756671Y49423486D01*
X31770324Y49452341D01*
X31905363Y49250241D01*
X32105241Y49050363D01*
X32340273Y48893320D01*
X32601426Y48785147D01*
X32878665Y48730000D01*
X33161335Y48730000D01*
X33255418Y48748715D01*
X34074642Y47929491D01*
X33961068Y47791101D01*
X33827818Y47541808D01*
X33745764Y47271309D01*
X33718057Y46990000D01*
X33745764Y46708691D01*
X33827818Y46438192D01*
X33961068Y46188899D01*
X34140392Y45970392D01*
X34358899Y45791068D01*
X34491858Y45720000D01*
X34358899Y45648932D01*
X34140392Y45469608D01*
X33961068Y45251101D01*
X33827818Y45001808D01*
X33745764Y44731309D01*
X33718057Y44450000D01*
X33745764Y44168691D01*
X33827818Y43898192D01*
X33961068Y43648899D01*
X34140392Y43430392D01*
X34358899Y43251068D01*
X34491858Y43180000D01*
X34358899Y43108932D01*
X34140392Y42929608D01*
X33961068Y42711101D01*
X33827818Y42461808D01*
X33745764Y42191309D01*
X33718057Y41910000D01*
X33745764Y41628691D01*
X33827818Y41358192D01*
X33961068Y41108899D01*
X34140392Y40890392D01*
X34358899Y40711068D01*
X34491858Y40640000D01*
X34358899Y40568932D01*
X34140392Y40389608D01*
X33961068Y40171101D01*
X33827818Y39921808D01*
X33745764Y39651309D01*
X33718057Y39370000D01*
X33745764Y39088691D01*
X33827818Y38818192D01*
X33961068Y38568899D01*
X34140392Y38350392D01*
X34358899Y38171068D01*
X34491858Y38100000D01*
X34358899Y38028932D01*
X34140392Y37849608D01*
X33961068Y37631101D01*
X33827818Y37381808D01*
X33745764Y37111309D01*
X33718057Y36830000D01*
X33745764Y36548691D01*
X33827818Y36278192D01*
X33961068Y36028899D01*
X34140392Y35810392D01*
X34358899Y35631068D01*
X34491858Y35560000D01*
X34358899Y35488932D01*
X34140392Y35309608D01*
X33961068Y35091101D01*
X33827818Y34841808D01*
X33745764Y34571309D01*
X33718057Y34290000D01*
X33745764Y34008691D01*
X33827818Y33738192D01*
X33961068Y33488899D01*
X34140392Y33270392D01*
X34358899Y33091068D01*
X34486741Y33022735D01*
X34257161Y32872601D01*
X34055500Y32674895D01*
X33896285Y32441646D01*
X33785633Y32181818D01*
X33768096Y32099039D01*
X33890085Y31877000D01*
X35433000Y31877000D01*
X35433000Y31897000D01*
X35687000Y31897000D01*
X35687000Y31877000D01*
X35707000Y31877000D01*
X35707000Y31623000D01*
X35687000Y31623000D01*
X35687000Y31603000D01*
X35433000Y31603000D01*
X35433000Y31623000D01*
X33890085Y31623000D01*
X33768096Y31400961D01*
X33785633Y31318182D01*
X33896285Y31058354D01*
X34055500Y30825105D01*
X34257161Y30627399D01*
X34486741Y30477265D01*
X34358899Y30408932D01*
X34140392Y30229608D01*
X33961068Y30011101D01*
X33827818Y29761808D01*
X33745764Y29491309D01*
X33718057Y29210000D01*
X33745764Y28928691D01*
X33827818Y28658192D01*
X33961068Y28408899D01*
X34140392Y28190392D01*
X34358899Y28011068D01*
X34491858Y27940000D01*
X34358899Y27868932D01*
X34140392Y27689608D01*
X33961068Y27471101D01*
X33827818Y27221808D01*
X33745764Y26951309D01*
X33718057Y26670000D01*
X33745764Y26388691D01*
X33827818Y26118192D01*
X33961068Y25868899D01*
X34140392Y25650392D01*
X34358899Y25471068D01*
X34491858Y25400000D01*
X34358899Y25328932D01*
X34140392Y25149608D01*
X33961068Y24931101D01*
X33827818Y24681808D01*
X33745764Y24411309D01*
X33718057Y24130000D01*
X33745764Y23848691D01*
X33827818Y23578192D01*
X33961068Y23328899D01*
X34140392Y23110392D01*
X34358899Y22931068D01*
X34491858Y22860000D01*
X34358899Y22788932D01*
X34140392Y22609608D01*
X33961068Y22391101D01*
X33827818Y22141808D01*
X33745764Y21871309D01*
X33718057Y21590000D01*
X33745764Y21308691D01*
X33827818Y21038192D01*
X33961068Y20788899D01*
X34140392Y20570392D01*
X34358899Y20391068D01*
X34491858Y20320000D01*
X34358899Y20248932D01*
X34140392Y20069608D01*
X33961068Y19851101D01*
X33827818Y19601808D01*
X33745764Y19331309D01*
X33718057Y19050000D01*
X33745764Y18768691D01*
X33827818Y18498192D01*
X33961068Y18248899D01*
X34140392Y18030392D01*
X34358899Y17851068D01*
X34491858Y17780000D01*
X34358899Y17708932D01*
X34140392Y17529608D01*
X33961068Y17311101D01*
X33827818Y17061808D01*
X33745764Y16791309D01*
X33718057Y16510000D01*
X33745764Y16228691D01*
X33827818Y15958192D01*
X33961068Y15708899D01*
X34140392Y15490392D01*
X34358899Y15311068D01*
X34491858Y15240000D01*
X34358899Y15168932D01*
X34140392Y14989608D01*
X33961068Y14771101D01*
X33920298Y14694826D01*
X33915614Y14694365D01*
X33893432Y14687636D01*
X33777067Y14652337D01*
X33649380Y14584087D01*
X33537462Y14492238D01*
X33514446Y14464193D01*
X32632654Y13582400D01*
X29723735Y13582400D01*
X29731904Y13620961D01*
X29609915Y13843000D01*
X28067000Y13843000D01*
X28067000Y13823000D01*
X27813000Y13823000D01*
X27813000Y13843000D01*
X27793000Y13843000D01*
X27793000Y14097000D01*
X27813000Y14097000D01*
X27813000Y14117000D01*
X28067000Y14117000D01*
X28067000Y14097000D01*
X29609915Y14097000D01*
X29731904Y14319039D01*
X29714367Y14401818D01*
X29603715Y14661646D01*
X29444500Y14894895D01*
X29242839Y15092601D01*
X29013259Y15242735D01*
X29141101Y15311068D01*
X29359608Y15490392D01*
X29538932Y15708899D01*
X29672182Y15958192D01*
X29754236Y16228691D01*
X29781943Y16510000D01*
X29754236Y16791309D01*
X29672182Y17061808D01*
X29538932Y17311101D01*
X29359608Y17529608D01*
X29141101Y17708932D01*
X29008142Y17780000D01*
X29141101Y17851068D01*
X29359608Y18030392D01*
X29538932Y18248899D01*
X29672182Y18498192D01*
X29754236Y18768691D01*
X29781943Y19050000D01*
X29754236Y19331309D01*
X29672182Y19601808D01*
X29538932Y19851101D01*
X29359608Y20069608D01*
X29141101Y20248932D01*
X29008142Y20320000D01*
X29141101Y20391068D01*
X29359608Y20570392D01*
X29538932Y20788899D01*
X29579702Y20865174D01*
X29584385Y20865635D01*
X29722933Y20907663D01*
X29850620Y20975913D01*
X29962538Y21067762D01*
X29985558Y21095812D01*
X30747997Y21858250D01*
X30776037Y21881262D01*
X30799050Y21909303D01*
X30799053Y21909306D01*
X30867887Y21993180D01*
X30936137Y22120866D01*
X30978165Y22259415D01*
X30992356Y22403500D01*
X30988800Y22439605D01*
X30988800Y48771696D01*
X30992356Y48807801D01*
X30992154Y48809851D01*
X31136292Y48861397D01*
X31261514Y48928329D01*
X31333097Y49172298D01*
X30520000Y49985395D01*
X30505858Y49971252D01*
X30326253Y50150857D01*
X30340395Y50165000D01*
X30326253Y50179142D01*
X30505858Y50358747D01*
X30520000Y50344605D01*
X31333097Y51157702D01*
X31261514Y51401671D01*
X31006004Y51522571D01*
X30731816Y51591300D01*
X30449488Y51605217D01*
X30169870Y51563787D01*
X30136300Y51551782D01*
X30136300Y55362154D01*
X30302962Y55528816D01*
X30330392Y55495392D01*
G37*
G04 #@! TD.AperFunction*
D22*
X24257000Y56642000D02*
X24277000Y56642000D01*
X24277000Y56388000D01*
X24257000Y56388000D01*
X24257000Y55080000D01*
X24657000Y55080000D01*
X24895300Y55124953D01*
X24895300Y52531847D01*
X22964400Y50600947D01*
X22964400Y55302652D01*
X23063517Y55237834D01*
X23325486Y55132350D01*
X23603000Y55080000D01*
X24003000Y55080000D01*
X24003000Y56388000D01*
X23983000Y56388000D01*
X23983000Y56642000D01*
X24003000Y56642000D01*
X24003000Y56662000D01*
X24257000Y56662000D01*
X24257000Y56642000D01*
G04 #@! TA.AperFunction,Conductor*
D23*
G36*
X24257000Y56642000D02*
G01*
X24277000Y56642000D01*
X24277000Y56388000D01*
X24257000Y56388000D01*
X24257000Y55080000D01*
X24657000Y55080000D01*
X24895300Y55124953D01*
X24895300Y52531847D01*
X22964400Y50600947D01*
X22964400Y55302652D01*
X23063517Y55237834D01*
X23325486Y55132350D01*
X23603000Y55080000D01*
X24003000Y55080000D01*
X24003000Y56388000D01*
X23983000Y56388000D01*
X23983000Y56642000D01*
X24003000Y56642000D01*
X24003000Y56662000D01*
X24257000Y56662000D01*
X24257000Y56642000D01*
G37*
G04 #@! TD.AperFunction*
D22*
X13163524Y76556890D02*
X13284845Y76327000D01*
X14478000Y76327000D01*
X14478000Y76347000D01*
X14732000Y76347000D01*
X14732000Y76327000D01*
X14752000Y76327000D01*
X14752000Y76073000D01*
X14732000Y76073000D01*
X14732000Y73787000D01*
X14752000Y73787000D01*
X14752000Y73533000D01*
X14732000Y73533000D01*
X14732000Y73513000D01*
X14478000Y73513000D01*
X14478000Y73533000D01*
X13284845Y73533000D01*
X13163524Y73303110D01*
X13208175Y73155901D01*
X13333359Y72893080D01*
X13507412Y72659731D01*
X13723645Y72464822D01*
X13840534Y72395195D01*
X13658368Y72273475D01*
X13451525Y72066632D01*
X13289010Y71823411D01*
X13177068Y71553158D01*
X13120000Y71266260D01*
X13120000Y70973740D01*
X13177068Y70686842D01*
X13279596Y70439316D01*
X13197862Y70372238D01*
X13174846Y70344193D01*
X9571891Y66741237D01*
X9570990Y66743411D01*
X9408475Y66986632D01*
X9201632Y67193475D01*
X9027240Y67310000D01*
X9201632Y67426525D01*
X9408475Y67633368D01*
X9570990Y67876589D01*
X9682932Y68146842D01*
X9740000Y68433740D01*
X9740000Y68726260D01*
X9682932Y69013158D01*
X9570990Y69283411D01*
X9408475Y69526632D01*
X9201632Y69733475D01*
X9027240Y69850000D01*
X9201632Y69966525D01*
X9408475Y70173368D01*
X9570990Y70416589D01*
X9682932Y70686842D01*
X9740000Y70973740D01*
X9740000Y71266260D01*
X9682932Y71553158D01*
X9570990Y71823411D01*
X9408475Y72066632D01*
X9201632Y72273475D01*
X9027240Y72390000D01*
X9201632Y72506525D01*
X9408475Y72713368D01*
X9570990Y72956589D01*
X9682932Y73226842D01*
X9740000Y73513740D01*
X9740000Y73806260D01*
X9682932Y74093158D01*
X9570990Y74363411D01*
X9408475Y74606632D01*
X9201632Y74813475D01*
X9027240Y74930000D01*
X9201632Y75046525D01*
X9408475Y75253368D01*
X9558922Y75478528D01*
X9687933Y75517663D01*
X9815620Y75585913D01*
X9927538Y75677762D01*
X9950558Y75705812D01*
X10087856Y75843110D01*
X13163524Y75843110D01*
X13208175Y75695901D01*
X13333359Y75433080D01*
X13507412Y75199731D01*
X13723645Y75004822D01*
X13849255Y74930000D01*
X13723645Y74855178D01*
X13507412Y74660269D01*
X13333359Y74426920D01*
X13208175Y74164099D01*
X13163524Y74016890D01*
X13284845Y73787000D01*
X14478000Y73787000D01*
X14478000Y76073000D01*
X13284845Y76073000D01*
X13163524Y75843110D01*
X10087856Y75843110D01*
X10875247Y76630500D01*
X13185851Y76630500D01*
X13163524Y76556890D01*
G04 #@! TA.AperFunction,Conductor*
D23*
G36*
X13163524Y76556890D02*
G01*
X13284845Y76327000D01*
X14478000Y76327000D01*
X14478000Y76347000D01*
X14732000Y76347000D01*
X14732000Y76327000D01*
X14752000Y76327000D01*
X14752000Y76073000D01*
X14732000Y76073000D01*
X14732000Y73787000D01*
X14752000Y73787000D01*
X14752000Y73533000D01*
X14732000Y73533000D01*
X14732000Y73513000D01*
X14478000Y73513000D01*
X14478000Y73533000D01*
X13284845Y73533000D01*
X13163524Y73303110D01*
X13208175Y73155901D01*
X13333359Y72893080D01*
X13507412Y72659731D01*
X13723645Y72464822D01*
X13840534Y72395195D01*
X13658368Y72273475D01*
X13451525Y72066632D01*
X13289010Y71823411D01*
X13177068Y71553158D01*
X13120000Y71266260D01*
X13120000Y70973740D01*
X13177068Y70686842D01*
X13279596Y70439316D01*
X13197862Y70372238D01*
X13174846Y70344193D01*
X9571891Y66741237D01*
X9570990Y66743411D01*
X9408475Y66986632D01*
X9201632Y67193475D01*
X9027240Y67310000D01*
X9201632Y67426525D01*
X9408475Y67633368D01*
X9570990Y67876589D01*
X9682932Y68146842D01*
X9740000Y68433740D01*
X9740000Y68726260D01*
X9682932Y69013158D01*
X9570990Y69283411D01*
X9408475Y69526632D01*
X9201632Y69733475D01*
X9027240Y69850000D01*
X9201632Y69966525D01*
X9408475Y70173368D01*
X9570990Y70416589D01*
X9682932Y70686842D01*
X9740000Y70973740D01*
X9740000Y71266260D01*
X9682932Y71553158D01*
X9570990Y71823411D01*
X9408475Y72066632D01*
X9201632Y72273475D01*
X9027240Y72390000D01*
X9201632Y72506525D01*
X9408475Y72713368D01*
X9570990Y72956589D01*
X9682932Y73226842D01*
X9740000Y73513740D01*
X9740000Y73806260D01*
X9682932Y74093158D01*
X9570990Y74363411D01*
X9408475Y74606632D01*
X9201632Y74813475D01*
X9027240Y74930000D01*
X9201632Y75046525D01*
X9408475Y75253368D01*
X9558922Y75478528D01*
X9687933Y75517663D01*
X9815620Y75585913D01*
X9927538Y75677762D01*
X9950558Y75705812D01*
X10087856Y75843110D01*
X13163524Y75843110D01*
X13208175Y75695901D01*
X13333359Y75433080D01*
X13507412Y75199731D01*
X13723645Y75004822D01*
X13849255Y74930000D01*
X13723645Y74855178D01*
X13507412Y74660269D01*
X13333359Y74426920D01*
X13208175Y74164099D01*
X13163524Y74016890D01*
X13284845Y73787000D01*
X14478000Y73787000D01*
X14478000Y76073000D01*
X13284845Y76073000D01*
X13163524Y75843110D01*
X10087856Y75843110D01*
X10875247Y76630500D01*
X13185851Y76630500D01*
X13163524Y76556890D01*
G37*
G04 #@! TD.AperFunction*
M02*
