G04 #@! TF.GenerationSoftware,KiCad,Pcbnew,(5.1.9)-1*
G04 #@! TF.CreationDate,2026-01-15T21:52:05+09:00*
G04 #@! TF.ProjectId,PC-8001_RAM,50432d38-3030-4315-9f52-414d2e6b6963,rev?*
G04 #@! TF.SameCoordinates,PX53920b0PY93c3260*
G04 #@! TF.FileFunction,Copper,L2,Bot*
G04 #@! TF.FilePolarity,Positive*
%FSLAX46Y46*%
G04 Gerber Fmt 4.6, Leading zero omitted, Abs format (unit mm)*
G04 Created by KiCad (PCBNEW (5.1.9)-1) date 2026-01-15 21:52:05*
%MOMM*%
%LPD*%
G01*
G04 APERTURE LIST*
G04 #@! TA.AperFunction,ComponentPad*
%ADD10R,1.600000X1.600000*%
G04 #@! TD*
G04 #@! TA.AperFunction,ComponentPad*
%ADD11C,1.600000*%
G04 #@! TD*
G04 #@! TA.AperFunction,ComponentPad*
%ADD12R,1.700000X1.700000*%
G04 #@! TD*
G04 #@! TA.AperFunction,ComponentPad*
%ADD13O,1.700000X1.700000*%
G04 #@! TD*
G04 #@! TA.AperFunction,ComponentPad*
%ADD14R,2.400000X1.600000*%
G04 #@! TD*
G04 #@! TA.AperFunction,ComponentPad*
%ADD15O,2.400000X1.600000*%
G04 #@! TD*
G04 #@! TA.AperFunction,ComponentPad*
%ADD16R,1.800000X1.800000*%
G04 #@! TD*
G04 #@! TA.AperFunction,ComponentPad*
%ADD17C,1.800000*%
G04 #@! TD*
G04 #@! TA.AperFunction,ComponentPad*
%ADD18O,1.600000X1.600000*%
G04 #@! TD*
G04 #@! TA.AperFunction,ViaPad*
%ADD19C,0.500000*%
G04 #@! TD*
G04 #@! TA.AperFunction,Conductor*
%ADD20C,0.400000*%
G04 #@! TD*
G04 #@! TA.AperFunction,Conductor*
%ADD21C,0.200000*%
G04 #@! TD*
G04 #@! TA.AperFunction,Conductor*
%ADD22C,0.254000*%
G04 #@! TD*
G04 #@! TA.AperFunction,Conductor*
%ADD23C,0.100000*%
G04 #@! TD*
G04 APERTURE END LIST*
D10*
X12860000Y8730000D03*
D11*
X12860000Y6230000D03*
D12*
X9525000Y15240000D03*
D13*
X6985000Y15240000D03*
X9525000Y17780000D03*
X6985000Y17780000D03*
X9525000Y20320000D03*
X6985000Y20320000D03*
X9525000Y22860000D03*
X6985000Y22860000D03*
X9525000Y25400000D03*
X6985000Y25400000D03*
X9525000Y27940000D03*
X6985000Y27940000D03*
X9525000Y30480000D03*
X6985000Y30480000D03*
X9525000Y33020000D03*
X6985000Y33020000D03*
X9525000Y35560000D03*
X6985000Y35560000D03*
X9525000Y38100000D03*
X6985000Y38100000D03*
X9525000Y40640000D03*
X6985000Y40640000D03*
X9525000Y43180000D03*
X6985000Y43180000D03*
X9525000Y45720000D03*
X6985000Y45720000D03*
X9525000Y48260000D03*
X6985000Y48260000D03*
X9525000Y50800000D03*
X6985000Y50800000D03*
X9525000Y53340000D03*
X6985000Y53340000D03*
X9525000Y55880000D03*
X6985000Y55880000D03*
X9525000Y58420000D03*
X6985000Y58420000D03*
X9525000Y60960000D03*
X6985000Y60960000D03*
X9525000Y63500000D03*
X6985000Y63500000D03*
X9525000Y66040000D03*
X6985000Y66040000D03*
X9525000Y68580000D03*
X6985000Y68580000D03*
X9525000Y71120000D03*
X6985000Y71120000D03*
X9525000Y73660000D03*
X6985000Y73660000D03*
X9525000Y76200000D03*
X6985000Y76200000D03*
D11*
X43180000Y87630000D03*
X40680000Y87630000D03*
X36830000Y46355000D03*
X39330000Y46355000D03*
D14*
X38100000Y84455000D03*
D15*
X45720000Y56515000D03*
X38100000Y81915000D03*
X45720000Y59055000D03*
X38100000Y79375000D03*
X45720000Y61595000D03*
X38100000Y76835000D03*
X45720000Y64135000D03*
X38100000Y74295000D03*
X45720000Y66675000D03*
X38100000Y71755000D03*
X45720000Y69215000D03*
X38100000Y69215000D03*
X45720000Y71755000D03*
X38100000Y66675000D03*
X45720000Y74295000D03*
X38100000Y64135000D03*
X45720000Y76835000D03*
X38100000Y61595000D03*
X45720000Y79375000D03*
X38100000Y59055000D03*
X45720000Y81915000D03*
X38100000Y56515000D03*
X45720000Y84455000D03*
D14*
X30440000Y43180000D03*
D15*
X45680000Y10160000D03*
X30440000Y40640000D03*
X45680000Y12700000D03*
X30440000Y38100000D03*
X45680000Y15240000D03*
X30440000Y35560000D03*
X45680000Y17780000D03*
X30440000Y33020000D03*
X45680000Y20320000D03*
X30440000Y30480000D03*
X45680000Y22860000D03*
X30440000Y27940000D03*
X45680000Y25400000D03*
X30440000Y25400000D03*
X45680000Y27940000D03*
X30440000Y22860000D03*
X45680000Y30480000D03*
X30440000Y20320000D03*
X45680000Y33020000D03*
X30440000Y17780000D03*
X45680000Y35560000D03*
X30440000Y15240000D03*
X45680000Y38100000D03*
X30440000Y12700000D03*
X45680000Y40640000D03*
X30440000Y10160000D03*
X45680000Y43180000D03*
D16*
X57785000Y74295000D03*
D17*
X57785000Y76835000D03*
X57785000Y61595000D03*
D16*
X57785000Y64135000D03*
D18*
X50165000Y56515000D03*
D11*
X50165000Y66675000D03*
X50165000Y69215000D03*
D18*
X50165000Y79375000D03*
D12*
X17145000Y15240000D03*
D13*
X14605000Y15240000D03*
X17145000Y17780000D03*
X14605000Y17780000D03*
X17145000Y20320000D03*
X14605000Y20320000D03*
X17145000Y22860000D03*
X14605000Y22860000D03*
X17145000Y25400000D03*
X14605000Y25400000D03*
X17145000Y27940000D03*
X14605000Y27940000D03*
X17145000Y30480000D03*
X14605000Y30480000D03*
X17145000Y33020000D03*
X14605000Y33020000D03*
X17145000Y35560000D03*
X14605000Y35560000D03*
X17145000Y38100000D03*
X14605000Y38100000D03*
X17145000Y40640000D03*
X14605000Y40640000D03*
X17145000Y43180000D03*
X14605000Y43180000D03*
X17145000Y45720000D03*
X14605000Y45720000D03*
X17145000Y48260000D03*
X14605000Y48260000D03*
X17145000Y50800000D03*
X14605000Y50800000D03*
X17145000Y53340000D03*
X14605000Y53340000D03*
X17145000Y55880000D03*
X14605000Y55880000D03*
X17145000Y58420000D03*
X14605000Y58420000D03*
X17145000Y60960000D03*
X14605000Y60960000D03*
X17145000Y63500000D03*
X14605000Y63500000D03*
X17145000Y66040000D03*
X14605000Y66040000D03*
X17145000Y68580000D03*
X14605000Y68580000D03*
X17145000Y71120000D03*
X14605000Y71120000D03*
X17145000Y73660000D03*
X14605000Y73660000D03*
X17145000Y76200000D03*
X14605000Y76200000D03*
D14*
X34250000Y43180000D03*
D15*
X41870000Y10160000D03*
X34250000Y40640000D03*
X41870000Y12700000D03*
X34250000Y38100000D03*
X41870000Y15240000D03*
X34250000Y35560000D03*
X41870000Y17780000D03*
X34250000Y33020000D03*
X41870000Y20320000D03*
X34250000Y30480000D03*
X41870000Y22860000D03*
X34250000Y27940000D03*
X41870000Y25400000D03*
X34250000Y25400000D03*
X41870000Y27940000D03*
X34250000Y22860000D03*
X41870000Y30480000D03*
X34250000Y20320000D03*
X41870000Y33020000D03*
X34250000Y17780000D03*
X41870000Y35560000D03*
X34250000Y15240000D03*
X41870000Y38100000D03*
X34250000Y12700000D03*
X41870000Y40640000D03*
X34250000Y10160000D03*
X41870000Y43180000D03*
D11*
X29210000Y74930000D03*
X26710000Y74930000D03*
D14*
X24130000Y71755000D03*
D15*
X31750000Y56515000D03*
X24130000Y69215000D03*
X31750000Y59055000D03*
X24130000Y66675000D03*
X31750000Y61595000D03*
X24130000Y64135000D03*
X31750000Y64135000D03*
X24130000Y61595000D03*
X31750000Y66675000D03*
X24130000Y59055000D03*
X31750000Y69215000D03*
X24130000Y56515000D03*
X31750000Y71755000D03*
D19*
X39376000Y40669200D03*
X35823200Y18893200D03*
X39299800Y35663200D03*
X32824500Y68107000D03*
X33569600Y57652300D03*
X29827000Y62883500D03*
D20*
X26710000Y74930000D02*
X26710000Y75676100D01*
X26710000Y75676100D02*
X38663900Y87630000D01*
X38663900Y87630000D02*
X40680000Y87630000D01*
X14605000Y74930000D02*
X26710000Y74930000D01*
X30440000Y10160000D02*
X16790000Y10160000D01*
X16790000Y10160000D02*
X12860000Y6230000D01*
X34250000Y10160000D02*
X30440000Y10160000D01*
X14605000Y76200000D02*
X14605000Y74930000D01*
X14605000Y74930000D02*
X8987200Y74930000D01*
X8987200Y74930000D02*
X8235300Y75681900D01*
X14605000Y74910300D02*
X14605000Y74930000D01*
X8235300Y75681900D02*
X8235300Y76200000D01*
X8235300Y75681900D02*
X7463700Y74910300D01*
X7463700Y74910300D02*
X6985000Y74910300D01*
X6985000Y73660000D02*
X6985000Y74910300D01*
X6985000Y76200000D02*
X8235300Y76200000D01*
X31750000Y69215000D02*
X30149700Y69215000D01*
X30149700Y69215000D02*
X30149700Y64135000D01*
X27609700Y61595000D02*
X25730300Y61595000D01*
X29210000Y59994700D02*
X27609700Y61595000D01*
X27609700Y61595000D02*
X30149700Y64135000D01*
X31750000Y64135000D02*
X30149700Y64135000D01*
X30149700Y59055000D02*
X29210000Y59994700D01*
X25730300Y56515000D02*
X29210000Y59994700D01*
X24130000Y56515000D02*
X25730300Y56515000D01*
X31750000Y59055000D02*
X30149700Y59055000D01*
X14605000Y73660000D02*
X14605000Y74910300D01*
X36830000Y56515000D02*
X36499700Y56515000D01*
X38100000Y56515000D02*
X36830000Y56515000D01*
X36830000Y46355000D02*
X36830000Y56515000D01*
X38100000Y56515000D02*
X39700300Y56515000D01*
X57785000Y64135000D02*
X56484700Y64135000D01*
X56484700Y64135000D02*
X50134700Y57785000D01*
X50134700Y57785000D02*
X40970300Y57785000D01*
X40970300Y57785000D02*
X39700300Y56515000D01*
X41870000Y27940000D02*
X45680000Y27940000D01*
X31750000Y59055000D02*
X33959700Y59055000D01*
X33959700Y59055000D02*
X36499700Y56515000D01*
X24130000Y61595000D02*
X25730300Y61595000D01*
D21*
X45720000Y56515000D02*
X44219700Y56515000D01*
X39376000Y40669200D02*
X39376000Y43226000D01*
X39376000Y43226000D02*
X44219700Y48069700D01*
X44219700Y48069700D02*
X44219700Y56515000D01*
X15123700Y18938600D02*
X11833900Y18938600D01*
X11833900Y18938600D02*
X10675300Y17780000D01*
X15994700Y17780000D02*
X15994700Y18067600D01*
X15994700Y18067600D02*
X15123700Y18938600D01*
X30440000Y17780000D02*
X27889000Y17780000D01*
X27889000Y17780000D02*
X24174600Y21494400D01*
X24174600Y21494400D02*
X16664000Y21494400D01*
X16664000Y21494400D02*
X15755400Y20585800D01*
X15755400Y20585800D02*
X15755400Y19570300D01*
X15755400Y19570300D02*
X15123700Y18938600D01*
X34250000Y17780000D02*
X30440000Y17780000D01*
X17145000Y17780000D02*
X15994700Y17780000D01*
X9525000Y17780000D02*
X10675300Y17780000D01*
X17145000Y20320000D02*
X18295300Y20320000D01*
X30440000Y15240000D02*
X23375300Y15240000D01*
X23375300Y15240000D02*
X18295300Y20320000D01*
X34250000Y15240000D02*
X30440000Y15240000D01*
X9525000Y22860000D02*
X10675300Y22860000D01*
X17145000Y22860000D02*
X15994700Y22860000D01*
X15994700Y22860000D02*
X15994700Y22572400D01*
X15994700Y22572400D02*
X15100300Y21678000D01*
X15100300Y21678000D02*
X11857300Y21678000D01*
X11857300Y21678000D02*
X10675300Y22860000D01*
X34250000Y12700000D02*
X30440000Y12700000D01*
X9525000Y25400000D02*
X10675300Y25400000D01*
X17145000Y25400000D02*
X15994700Y25400000D01*
X15994700Y25400000D02*
X15994700Y25112400D01*
X15994700Y25112400D02*
X15091700Y24209400D01*
X15091700Y24209400D02*
X11865900Y24209400D01*
X11865900Y24209400D02*
X10675300Y25400000D01*
X41870000Y10160000D02*
X45680000Y10160000D01*
X35822700Y18892700D02*
X35823200Y18893200D01*
X18295300Y27940000D02*
X27342600Y18892700D01*
X27342600Y18892700D02*
X35822700Y18892700D01*
X35822700Y18892700D02*
X35822700Y17247000D01*
X35822700Y17247000D02*
X40369700Y12700000D01*
X41870000Y12700000D02*
X40369700Y12700000D01*
X41870000Y12700000D02*
X45680000Y12700000D01*
X17145000Y27940000D02*
X18295300Y27940000D01*
X17145000Y27940000D02*
X15994700Y27940000D01*
X15994700Y27940000D02*
X15994700Y28227600D01*
X15994700Y28227600D02*
X15113000Y29109300D01*
X15113000Y29109300D02*
X14057700Y29109300D01*
X14057700Y29109300D02*
X12888400Y27940000D01*
X12888400Y27940000D02*
X9525000Y27940000D01*
X41870000Y15240000D02*
X40369700Y15240000D01*
X40369700Y15240000D02*
X40369700Y16177700D01*
X40369700Y16177700D02*
X35099000Y21448400D01*
X35099000Y21448400D02*
X27326900Y21448400D01*
X27326900Y21448400D02*
X18295300Y30480000D01*
X41870000Y15240000D02*
X45680000Y15240000D01*
X17145000Y30480000D02*
X18295300Y30480000D01*
X17145000Y30480000D02*
X15994700Y30480000D01*
X15994700Y30480000D02*
X15994700Y30767600D01*
X15994700Y30767600D02*
X15113000Y31649300D01*
X15113000Y31649300D02*
X14057700Y31649300D01*
X14057700Y31649300D02*
X12888400Y30480000D01*
X12888400Y30480000D02*
X9525000Y30480000D01*
X41870000Y17780000D02*
X40369700Y17780000D01*
X40369700Y17780000D02*
X40369700Y18717700D01*
X40369700Y18717700D02*
X35099000Y23988400D01*
X35099000Y23988400D02*
X27326900Y23988400D01*
X27326900Y23988400D02*
X18295300Y33020000D01*
X41870000Y17780000D02*
X45680000Y17780000D01*
X17145000Y33020000D02*
X18295300Y33020000D01*
X17145000Y33020000D02*
X15994700Y33020000D01*
X15994700Y33020000D02*
X15994700Y33307600D01*
X15994700Y33307600D02*
X15113000Y34189300D01*
X15113000Y34189300D02*
X14057700Y34189300D01*
X14057700Y34189300D02*
X12888400Y33020000D01*
X12888400Y33020000D02*
X9525000Y33020000D01*
X41870000Y20320000D02*
X40369700Y20320000D01*
X40369700Y20320000D02*
X40369700Y21257700D01*
X40369700Y21257700D02*
X34957400Y26670000D01*
X34957400Y26670000D02*
X27185300Y26670000D01*
X27185300Y26670000D02*
X18295300Y35560000D01*
X41870000Y20320000D02*
X45680000Y20320000D01*
X17145000Y35560000D02*
X18295300Y35560000D01*
X17145000Y35560000D02*
X15994700Y35560000D01*
X15994700Y35560000D02*
X15994700Y35847600D01*
X15994700Y35847600D02*
X15113000Y36729300D01*
X15113000Y36729300D02*
X14057700Y36729300D01*
X14057700Y36729300D02*
X12888400Y35560000D01*
X12888400Y35560000D02*
X9525000Y35560000D01*
X17145000Y38100000D02*
X15994700Y38100000D01*
X15994700Y38100000D02*
X15994700Y38387600D01*
X15994700Y38387600D02*
X15113000Y39269300D01*
X15113000Y39269300D02*
X14057700Y39269300D01*
X14057700Y39269300D02*
X12888400Y38100000D01*
X12888400Y38100000D02*
X9525000Y38100000D01*
X34250000Y20320000D02*
X30440000Y20320000D01*
X6985000Y38100000D02*
X8135300Y38100000D01*
X14605000Y38100000D02*
X13454700Y38100000D01*
X13454700Y38100000D02*
X12264100Y36909400D01*
X12264100Y36909400D02*
X9087500Y36909400D01*
X9087500Y36909400D02*
X8135300Y37861600D01*
X8135300Y37861600D02*
X8135300Y38100000D01*
X41870000Y35560000D02*
X40369700Y35560000D01*
X39299800Y35663200D02*
X40266500Y35663200D01*
X40266500Y35663200D02*
X40369700Y35560000D01*
X41870000Y35560000D02*
X45680000Y35560000D01*
X34250000Y22860000D02*
X30440000Y22860000D01*
X17145000Y40640000D02*
X15994700Y40640000D01*
X15994700Y40640000D02*
X15994700Y40927600D01*
X15994700Y40927600D02*
X15113000Y41809300D01*
X15113000Y41809300D02*
X14057700Y41809300D01*
X14057700Y41809300D02*
X12888400Y40640000D01*
X12888400Y40640000D02*
X9525000Y40640000D01*
X45680000Y33020000D02*
X47180300Y33020000D01*
X47180300Y33020000D02*
X47180300Y24890600D01*
X47180300Y24890600D02*
X46512000Y24222300D01*
X46512000Y24222300D02*
X40921500Y24222300D01*
X40921500Y24222300D02*
X35933800Y29210000D01*
X35933800Y29210000D02*
X28983200Y29210000D01*
X28983200Y29210000D02*
X18942800Y39250400D01*
X18942800Y39250400D02*
X15994600Y39250400D01*
X15994600Y39250400D02*
X14605000Y40640000D01*
X45680000Y33020000D02*
X41870000Y33020000D01*
X14605000Y40640000D02*
X13454700Y40640000D01*
X6985000Y40640000D02*
X8135300Y40640000D01*
X13454700Y40640000D02*
X12264100Y39449400D01*
X12264100Y39449400D02*
X9087500Y39449400D01*
X9087500Y39449400D02*
X8135300Y40401600D01*
X8135300Y40401600D02*
X8135300Y40640000D01*
X17145000Y43180000D02*
X15994700Y43180000D01*
X15994700Y43180000D02*
X15994700Y43467600D01*
X15994700Y43467600D02*
X15113000Y44349300D01*
X15113000Y44349300D02*
X14057700Y44349300D01*
X14057700Y44349300D02*
X12888400Y43180000D01*
X12888400Y43180000D02*
X9525000Y43180000D01*
X41870000Y25400000D02*
X40369700Y25400000D01*
X40369700Y25400000D02*
X40369700Y26337700D01*
X40369700Y26337700D02*
X34957400Y31750000D01*
X34957400Y31750000D02*
X29133900Y31750000D01*
X29133900Y31750000D02*
X18877200Y42006700D01*
X18877200Y42006700D02*
X15778300Y42006700D01*
X15778300Y42006700D02*
X14605000Y43180000D01*
X45680000Y25400000D02*
X41870000Y25400000D01*
X6985000Y43180000D02*
X8135300Y43180000D01*
X14605000Y43180000D02*
X13454700Y43180000D01*
X13454700Y43180000D02*
X12264100Y41989400D01*
X12264100Y41989400D02*
X9087500Y41989400D01*
X9087500Y41989400D02*
X8135300Y42941600D01*
X8135300Y42941600D02*
X8135300Y43180000D01*
X36599700Y69215000D02*
X35491700Y68107000D01*
X35491700Y68107000D02*
X32824500Y68107000D01*
X38100000Y69215000D02*
X36599700Y69215000D01*
X17145000Y45720000D02*
X15994700Y45720000D01*
X15994700Y45720000D02*
X15994700Y46007600D01*
X15994700Y46007600D02*
X15113000Y46889300D01*
X15113000Y46889300D02*
X14057700Y46889300D01*
X14057700Y46889300D02*
X12888400Y45720000D01*
X12888400Y45720000D02*
X9525000Y45720000D01*
X34250000Y27940000D02*
X30440000Y27940000D01*
X41870000Y30480000D02*
X40369700Y30480000D01*
X40369700Y30480000D02*
X40369700Y31417700D01*
X40369700Y31417700D02*
X34957400Y36830000D01*
X34957400Y36830000D02*
X27046200Y36830000D01*
X27046200Y36830000D02*
X19329500Y44546700D01*
X19329500Y44546700D02*
X15778300Y44546700D01*
X15778300Y44546700D02*
X14605000Y45720000D01*
X45680000Y30480000D02*
X41870000Y30480000D01*
X14605000Y45720000D02*
X13454700Y45720000D01*
X6985000Y45720000D02*
X8135300Y45720000D01*
X13454700Y45720000D02*
X12264100Y44529400D01*
X12264100Y44529400D02*
X9087500Y44529400D01*
X9087500Y44529400D02*
X8135300Y45481600D01*
X8135300Y45481600D02*
X8135300Y45720000D01*
X17145000Y48260000D02*
X15994700Y48260000D01*
X15994700Y48260000D02*
X15994700Y48547600D01*
X15994700Y48547600D02*
X15098300Y49444000D01*
X15098300Y49444000D02*
X14072400Y49444000D01*
X14072400Y49444000D02*
X12888400Y48260000D01*
X12888400Y48260000D02*
X9525000Y48260000D01*
X14605000Y48260000D02*
X15778300Y47086700D01*
X15778300Y47086700D02*
X22493000Y47086700D01*
X22493000Y47086700D02*
X28939700Y40640000D01*
X30440000Y40640000D02*
X28939700Y40640000D01*
X34250000Y40640000D02*
X30440000Y40640000D01*
X6985000Y48260000D02*
X8135300Y48260000D01*
X14605000Y48260000D02*
X13454700Y48260000D01*
X13454700Y48260000D02*
X12264100Y47069400D01*
X12264100Y47069400D02*
X9087500Y47069400D01*
X9087500Y47069400D02*
X8135300Y48021600D01*
X8135300Y48021600D02*
X8135300Y48260000D01*
X17145000Y51409000D02*
X22809600Y51409000D01*
X22809600Y51409000D02*
X29052900Y57652300D01*
X29052900Y57652300D02*
X33569600Y57652300D01*
X9525000Y50800000D02*
X12888400Y50800000D01*
X12888400Y50800000D02*
X14057700Y51969300D01*
X14057700Y51969300D02*
X16584700Y51969300D01*
X16584700Y51969300D02*
X17145000Y51409000D01*
X17145000Y51325100D02*
X17145000Y51409000D01*
X17145000Y50800000D02*
X17145000Y51325100D01*
X34250000Y33020000D02*
X30440000Y33020000D01*
X14605000Y50800000D02*
X15755300Y50800000D01*
X41870000Y38100000D02*
X40369700Y38100000D01*
X40369700Y38100000D02*
X36418000Y42051700D01*
X36418000Y42051700D02*
X28939600Y42051700D01*
X28939600Y42051700D02*
X21580900Y49410400D01*
X21580900Y49410400D02*
X16906500Y49410400D01*
X16906500Y49410400D02*
X15755300Y50561600D01*
X15755300Y50561600D02*
X15755300Y50800000D01*
X45680000Y38100000D02*
X41870000Y38100000D01*
X14605000Y50800000D02*
X13454700Y50800000D01*
X13454700Y50800000D02*
X12293400Y49638700D01*
X12293400Y49638700D02*
X9058200Y49638700D01*
X9058200Y49638700D02*
X8135300Y50561600D01*
X8135300Y50561600D02*
X8135300Y50800000D01*
X6985000Y50800000D02*
X8135300Y50800000D01*
X34250000Y35560000D02*
X30440000Y35560000D01*
X17145000Y53340000D02*
X15994700Y53340000D01*
X15994700Y53340000D02*
X15994700Y53627600D01*
X15994700Y53627600D02*
X15113000Y54509300D01*
X15113000Y54509300D02*
X14057700Y54509300D01*
X14057700Y54509300D02*
X12888400Y53340000D01*
X12888400Y53340000D02*
X9525000Y53340000D01*
X34250000Y43180000D02*
X30440000Y43180000D01*
X6985000Y53340000D02*
X8135300Y53340000D01*
X14605000Y53340000D02*
X13454700Y53340000D01*
X13454700Y53340000D02*
X12264100Y52149400D01*
X12264100Y52149400D02*
X9087500Y52149400D01*
X9087500Y52149400D02*
X8135300Y53101600D01*
X8135300Y53101600D02*
X8135300Y53340000D01*
X17145000Y55880000D02*
X15994700Y55880000D01*
X15994700Y55880000D02*
X15994700Y56167600D01*
X15994700Y56167600D02*
X15121200Y57041100D01*
X15121200Y57041100D02*
X14049500Y57041100D01*
X14049500Y57041100D02*
X12888400Y55880000D01*
X12888400Y55880000D02*
X9525000Y55880000D01*
X34250000Y38100000D02*
X30440000Y38100000D01*
X14605000Y55880000D02*
X15788000Y54697000D01*
X15788000Y54697000D02*
X17589100Y54697000D01*
X17589100Y54697000D02*
X22387800Y59495700D01*
X22387800Y59495700D02*
X22387800Y61819200D01*
X22387800Y61819200D02*
X23433600Y62865000D01*
X23433600Y62865000D02*
X24830000Y62865000D01*
X24830000Y62865000D02*
X29257900Y67292900D01*
X29257900Y67292900D02*
X29257900Y69117000D01*
X29257900Y69117000D02*
X30633900Y70493000D01*
X30633900Y70493000D02*
X40417700Y70493000D01*
X40417700Y70493000D02*
X44219700Y74295000D01*
X14029900Y55880000D02*
X14605000Y55880000D01*
X45720000Y74295000D02*
X44219700Y74295000D01*
X14029900Y55880000D02*
X13454700Y55880000D01*
X6985000Y55880000D02*
X8135300Y55880000D01*
X13454700Y55880000D02*
X12264100Y54689400D01*
X12264100Y54689400D02*
X9087500Y54689400D01*
X9087500Y54689400D02*
X8135300Y55641600D01*
X8135300Y55641600D02*
X8135300Y55880000D01*
X17145000Y59570300D02*
X17592600Y59570300D01*
X17592600Y59570300D02*
X23427300Y65405000D01*
X23427300Y65405000D02*
X24835500Y65405000D01*
X24835500Y65405000D02*
X28148800Y68718300D01*
X28148800Y68718300D02*
X28148800Y70189600D01*
X28148800Y70189600D02*
X33354600Y75395400D01*
X33354600Y75395400D02*
X42780100Y75395400D01*
X42780100Y75395400D02*
X44219700Y76835000D01*
X17145000Y59570300D02*
X14038700Y59570300D01*
X14038700Y59570300D02*
X12888400Y58420000D01*
X12888400Y58420000D02*
X9525000Y58420000D01*
X45720000Y76835000D02*
X44219700Y76835000D01*
X17145000Y58420000D02*
X17145000Y59570300D01*
X14605000Y58420000D02*
X13454700Y58420000D01*
X6985000Y58420000D02*
X8135300Y58420000D01*
X13454700Y58420000D02*
X12264100Y57229400D01*
X12264100Y57229400D02*
X9087500Y57229400D01*
X9087500Y57229400D02*
X8135300Y58181600D01*
X8135300Y58181600D02*
X8135300Y58420000D01*
X17145000Y62110300D02*
X14038700Y62110300D01*
X14038700Y62110300D02*
X12888400Y60960000D01*
X12888400Y60960000D02*
X9525000Y60960000D01*
X17145000Y62010200D02*
X17145000Y62110300D01*
X17145000Y60960000D02*
X17145000Y62010200D01*
X45720000Y79375000D02*
X44219700Y79375000D01*
X44219700Y79375000D02*
X42949700Y78105000D01*
X42949700Y78105000D02*
X34976400Y78105000D01*
X34976400Y78105000D02*
X24815700Y67944300D01*
X24815700Y67944300D02*
X23425000Y67944300D01*
X23425000Y67944300D02*
X17591000Y62110300D01*
X17591000Y62110300D02*
X17145000Y62110300D01*
X17145000Y64650300D02*
X14038700Y64650300D01*
X14038700Y64650300D02*
X12888400Y63500000D01*
X12888400Y63500000D02*
X9525000Y63500000D01*
X17145000Y64550200D02*
X17145000Y64650300D01*
X17145000Y63500000D02*
X17145000Y64550200D01*
X38100000Y81915000D02*
X36599700Y81915000D01*
X36599700Y81915000D02*
X36599700Y80696000D01*
X36599700Y80696000D02*
X26530400Y70626700D01*
X26530400Y70626700D02*
X23568900Y70626700D01*
X23568900Y70626700D02*
X17592500Y64650300D01*
X17592500Y64650300D02*
X17145000Y64650300D01*
X15994700Y66040000D02*
X15994700Y66327600D01*
X15994700Y66327600D02*
X15123700Y67198600D01*
X15123700Y67198600D02*
X14047000Y67198600D01*
X14047000Y67198600D02*
X12888400Y66040000D01*
X12888400Y66040000D02*
X9525000Y66040000D01*
X17145000Y66040000D02*
X15994700Y66040000D01*
X6985000Y63500000D02*
X8135300Y63500000D01*
X14605000Y63500000D02*
X13454700Y63500000D01*
X13454700Y63500000D02*
X12264100Y62309400D01*
X12264100Y62309400D02*
X9087500Y62309400D01*
X9087500Y62309400D02*
X8135300Y63261600D01*
X8135300Y63261600D02*
X8135300Y63500000D01*
X41870000Y22860000D02*
X45680000Y22860000D01*
X50165000Y69215000D02*
X45720000Y69215000D01*
X50165000Y66675000D02*
X45720000Y66675000D01*
X50165000Y79375000D02*
X55245000Y79375000D01*
X55245000Y79375000D02*
X57785000Y76835000D01*
X6985000Y17780000D02*
X8135300Y17780000D01*
X14605000Y17780000D02*
X13454700Y17780000D01*
X13454700Y17780000D02*
X12299900Y16625200D01*
X12299900Y16625200D02*
X9051700Y16625200D01*
X9051700Y16625200D02*
X8135300Y17541600D01*
X8135300Y17541600D02*
X8135300Y17780000D01*
X6985000Y30480000D02*
X8135300Y30480000D01*
X14605000Y30480000D02*
X13454700Y30480000D01*
X13454700Y30480000D02*
X12264100Y29289400D01*
X12264100Y29289400D02*
X9087500Y29289400D01*
X9087500Y29289400D02*
X8135300Y30241600D01*
X8135300Y30241600D02*
X8135300Y30480000D01*
X6985000Y33020000D02*
X8135300Y33020000D01*
X14605000Y33020000D02*
X13454700Y33020000D01*
X13454700Y33020000D02*
X12264100Y31829400D01*
X12264100Y31829400D02*
X9087500Y31829400D01*
X9087500Y31829400D02*
X8135300Y32781600D01*
X8135300Y32781600D02*
X8135300Y33020000D01*
X6985000Y35560000D02*
X8135300Y35560000D01*
X14605000Y35560000D02*
X13454700Y35560000D01*
X13454700Y35560000D02*
X12264100Y34369400D01*
X12264100Y34369400D02*
X9087500Y34369400D01*
X9087500Y34369400D02*
X8135300Y35321600D01*
X8135300Y35321600D02*
X8135300Y35560000D01*
X6985000Y60960000D02*
X8135300Y60960000D01*
X14605000Y60960000D02*
X13454700Y60960000D01*
X13454700Y60960000D02*
X12293400Y59798700D01*
X12293400Y59798700D02*
X9058200Y59798700D01*
X9058200Y59798700D02*
X8135300Y60721600D01*
X8135300Y60721600D02*
X8135300Y60960000D01*
X6985000Y66040000D02*
X8135300Y66040000D01*
X14605000Y66040000D02*
X13454700Y66040000D01*
X13454700Y66040000D02*
X12264100Y64849400D01*
X12264100Y64849400D02*
X9087500Y64849400D01*
X9087500Y64849400D02*
X8135300Y65801600D01*
X8135300Y65801600D02*
X8135300Y66040000D01*
X17145000Y68580000D02*
X15994700Y68580000D01*
X15994700Y68580000D02*
X15994700Y68867600D01*
X15994700Y68867600D02*
X15113000Y69749300D01*
X15113000Y69749300D02*
X14057700Y69749300D01*
X14057700Y69749300D02*
X12888400Y68580000D01*
X12888400Y68580000D02*
X9525000Y68580000D01*
X6985000Y68580000D02*
X8135300Y68580000D01*
X14605000Y68580000D02*
X13454700Y68580000D01*
X13454700Y68580000D02*
X12264100Y67389400D01*
X12264100Y67389400D02*
X9087500Y67389400D01*
X9087500Y67389400D02*
X8135300Y68341600D01*
X8135300Y68341600D02*
X8135300Y68580000D01*
X9525000Y71120000D02*
X10675300Y71120000D01*
X17145000Y71120000D02*
X15994700Y71120000D01*
X15994700Y71120000D02*
X15994700Y71407600D01*
X15994700Y71407600D02*
X15125200Y72277100D01*
X15125200Y72277100D02*
X11832400Y72277100D01*
X11832400Y72277100D02*
X10675300Y71120000D01*
X6985000Y71120000D02*
X8135300Y71120000D01*
X14605000Y71120000D02*
X13454700Y71120000D01*
X13454700Y71120000D02*
X12264100Y69929400D01*
X12264100Y69929400D02*
X9087500Y69929400D01*
X9087500Y69929400D02*
X8135300Y70881600D01*
X8135300Y70881600D02*
X8135300Y71120000D01*
X6985000Y27940000D02*
X8135300Y27940000D01*
X14605000Y27940000D02*
X13454700Y27940000D01*
X13454700Y27940000D02*
X12264100Y26749400D01*
X12264100Y26749400D02*
X9087500Y26749400D01*
X9087500Y26749400D02*
X8135300Y27701600D01*
X8135300Y27701600D02*
X8135300Y27940000D01*
X44219700Y59055000D02*
X40391200Y62883500D01*
X40391200Y62883500D02*
X29827000Y62883500D01*
X45720000Y59055000D02*
X44219700Y59055000D01*
X45720000Y71755000D02*
X47220300Y71755000D01*
X24130000Y71755000D02*
X25630300Y71755000D01*
X25630300Y71755000D02*
X27960000Y74084700D01*
X27960000Y74084700D02*
X27960000Y75279900D01*
X27960000Y75279900D02*
X35700200Y83020100D01*
X35700200Y83020100D02*
X42414700Y83020100D01*
X42414700Y83020100D02*
X44789800Y80645000D01*
X44789800Y80645000D02*
X46489300Y80645000D01*
X46489300Y80645000D02*
X47220300Y79914000D01*
X47220300Y79914000D02*
X47220300Y71755000D01*
X45680000Y40640000D02*
X41870000Y40640000D01*
D22*
X61840000Y660000D02*
X660000Y660000D01*
X660000Y5220128D01*
X2765000Y5220128D01*
X2765000Y4779872D01*
X2850890Y4348075D01*
X3019369Y3941331D01*
X3263962Y3575271D01*
X3575271Y3263962D01*
X3941331Y3019369D01*
X4348075Y2850890D01*
X4779872Y2765000D01*
X5220128Y2765000D01*
X5651925Y2850890D01*
X6058669Y3019369D01*
X6424729Y3263962D01*
X6736038Y3575271D01*
X6980631Y3941331D01*
X7149110Y4348075D01*
X7235000Y4779872D01*
X7235000Y5220128D01*
X7231585Y5237298D01*
X12046903Y5237298D01*
X12118486Y4993329D01*
X12373996Y4872429D01*
X12648184Y4803700D01*
X12930512Y4789783D01*
X13210130Y4831213D01*
X13476292Y4926397D01*
X13601514Y4993329D01*
X13668059Y5220128D01*
X55265000Y5220128D01*
X55265000Y4779872D01*
X55350890Y4348075D01*
X55519369Y3941331D01*
X55763962Y3575271D01*
X56075271Y3263962D01*
X56441331Y3019369D01*
X56848075Y2850890D01*
X57279872Y2765000D01*
X57720128Y2765000D01*
X58151925Y2850890D01*
X58558669Y3019369D01*
X58924729Y3263962D01*
X59236038Y3575271D01*
X59480631Y3941331D01*
X59649110Y4348075D01*
X59735000Y4779872D01*
X59735000Y5220128D01*
X59649110Y5651925D01*
X59480631Y6058669D01*
X59236038Y6424729D01*
X58924729Y6736038D01*
X58558669Y6980631D01*
X58151925Y7149110D01*
X57720128Y7235000D01*
X57279872Y7235000D01*
X56848075Y7149110D01*
X56441331Y6980631D01*
X56075271Y6736038D01*
X55763962Y6424729D01*
X55519369Y6058669D01*
X55350890Y5651925D01*
X55265000Y5220128D01*
X13668059Y5220128D01*
X13673097Y5237298D01*
X12860000Y6050395D01*
X12046903Y5237298D01*
X7231585Y5237298D01*
X7149110Y5651925D01*
X6980631Y6058669D01*
X6913267Y6159488D01*
X11419783Y6159488D01*
X11461213Y5879870D01*
X11556397Y5613708D01*
X11623329Y5488486D01*
X11867298Y5416903D01*
X12680395Y6230000D01*
X13039605Y6230000D01*
X13852702Y5416903D01*
X14096671Y5488486D01*
X14217571Y5743996D01*
X14286300Y6018184D01*
X14300217Y6300512D01*
X14258787Y6580130D01*
X14163603Y6846292D01*
X14096671Y6971514D01*
X13852702Y7043097D01*
X13039605Y6230000D01*
X12680395Y6230000D01*
X11867298Y7043097D01*
X11623329Y6971514D01*
X11502429Y6716004D01*
X11433700Y6441816D01*
X11419783Y6159488D01*
X6913267Y6159488D01*
X6736038Y6424729D01*
X6424729Y6736038D01*
X6058669Y6980631D01*
X5651925Y7149110D01*
X5220128Y7235000D01*
X4779872Y7235000D01*
X4348075Y7149110D01*
X3941331Y6980631D01*
X3575271Y6736038D01*
X3263962Y6424729D01*
X3019369Y6058669D01*
X2850890Y5651925D01*
X2765000Y5220128D01*
X660000Y5220128D01*
X660000Y9530000D01*
X11421928Y9530000D01*
X11421928Y7930000D01*
X11434188Y7805518D01*
X11470498Y7685820D01*
X11529463Y7575506D01*
X11608815Y7478815D01*
X11705506Y7399463D01*
X11815820Y7340498D01*
X11935518Y7304188D01*
X12060000Y7291928D01*
X12067215Y7291928D01*
X12046903Y7222702D01*
X12860000Y6409605D01*
X13673097Y7222702D01*
X13652785Y7291928D01*
X13660000Y7291928D01*
X13784482Y7304188D01*
X13904180Y7340498D01*
X14014494Y7399463D01*
X14111185Y7478815D01*
X14190537Y7575506D01*
X14249502Y7685820D01*
X14285812Y7805518D01*
X14298072Y7930000D01*
X14298072Y9530000D01*
X14285812Y9654482D01*
X14249502Y9774180D01*
X14229842Y9810961D01*
X28648096Y9810961D01*
X28665633Y9728182D01*
X28776285Y9468354D01*
X28935500Y9235105D01*
X29137161Y9037399D01*
X29373517Y8882834D01*
X29635486Y8777350D01*
X29913000Y8725000D01*
X30313000Y8725000D01*
X30313000Y10033000D01*
X30567000Y10033000D01*
X30567000Y8725000D01*
X30967000Y8725000D01*
X31244514Y8777350D01*
X31506483Y8882834D01*
X31742839Y9037399D01*
X31944500Y9235105D01*
X32103715Y9468354D01*
X32214367Y9728182D01*
X32231904Y9810961D01*
X32458096Y9810961D01*
X32475633Y9728182D01*
X32586285Y9468354D01*
X32745500Y9235105D01*
X32947161Y9037399D01*
X33183517Y8882834D01*
X33445486Y8777350D01*
X33723000Y8725000D01*
X34123000Y8725000D01*
X34123000Y10033000D01*
X34377000Y10033000D01*
X34377000Y8725000D01*
X34777000Y8725000D01*
X35054514Y8777350D01*
X35316483Y8882834D01*
X35552839Y9037399D01*
X35754500Y9235105D01*
X35913715Y9468354D01*
X36024367Y9728182D01*
X36041904Y9810961D01*
X35919915Y10033000D01*
X34377000Y10033000D01*
X34123000Y10033000D01*
X32580085Y10033000D01*
X32458096Y9810961D01*
X32231904Y9810961D01*
X32109915Y10033000D01*
X30567000Y10033000D01*
X30313000Y10033000D01*
X28770085Y10033000D01*
X28648096Y9810961D01*
X14229842Y9810961D01*
X14190537Y9884494D01*
X14111185Y9981185D01*
X14014494Y10060537D01*
X13904180Y10119502D01*
X13784482Y10155812D01*
X13660000Y10168072D01*
X12060000Y10168072D01*
X11935518Y10155812D01*
X11815820Y10119502D01*
X11705506Y10060537D01*
X11608815Y9981185D01*
X11529463Y9884494D01*
X11470498Y9774180D01*
X11434188Y9654482D01*
X11421928Y9530000D01*
X660000Y9530000D01*
X660000Y71266260D01*
X5500000Y71266260D01*
X5500000Y70973740D01*
X5557068Y70686842D01*
X5669010Y70416589D01*
X5831525Y70173368D01*
X6038368Y69966525D01*
X6212760Y69850000D01*
X6038368Y69733475D01*
X5831525Y69526632D01*
X5669010Y69283411D01*
X5557068Y69013158D01*
X5500000Y68726260D01*
X5500000Y68433740D01*
X5557068Y68146842D01*
X5669010Y67876589D01*
X5831525Y67633368D01*
X6038368Y67426525D01*
X6212760Y67310000D01*
X6038368Y67193475D01*
X5831525Y66986632D01*
X5669010Y66743411D01*
X5557068Y66473158D01*
X5500000Y66186260D01*
X5500000Y65893740D01*
X5557068Y65606842D01*
X5669010Y65336589D01*
X5831525Y65093368D01*
X6038368Y64886525D01*
X6212760Y64770000D01*
X6038368Y64653475D01*
X5831525Y64446632D01*
X5669010Y64203411D01*
X5557068Y63933158D01*
X5500000Y63646260D01*
X5500000Y63353740D01*
X5557068Y63066842D01*
X5669010Y62796589D01*
X5831525Y62553368D01*
X6038368Y62346525D01*
X6212760Y62230000D01*
X6038368Y62113475D01*
X5831525Y61906632D01*
X5669010Y61663411D01*
X5557068Y61393158D01*
X5500000Y61106260D01*
X5500000Y60813740D01*
X5557068Y60526842D01*
X5669010Y60256589D01*
X5831525Y60013368D01*
X6038368Y59806525D01*
X6212760Y59690000D01*
X6038368Y59573475D01*
X5831525Y59366632D01*
X5669010Y59123411D01*
X5557068Y58853158D01*
X5500000Y58566260D01*
X5500000Y58273740D01*
X5557068Y57986842D01*
X5669010Y57716589D01*
X5831525Y57473368D01*
X6038368Y57266525D01*
X6212760Y57150000D01*
X6038368Y57033475D01*
X5831525Y56826632D01*
X5669010Y56583411D01*
X5557068Y56313158D01*
X5500000Y56026260D01*
X5500000Y55733740D01*
X5557068Y55446842D01*
X5669010Y55176589D01*
X5831525Y54933368D01*
X6038368Y54726525D01*
X6212760Y54610000D01*
X6038368Y54493475D01*
X5831525Y54286632D01*
X5669010Y54043411D01*
X5557068Y53773158D01*
X5500000Y53486260D01*
X5500000Y53193740D01*
X5557068Y52906842D01*
X5669010Y52636589D01*
X5831525Y52393368D01*
X6038368Y52186525D01*
X6212760Y52070000D01*
X6038368Y51953475D01*
X5831525Y51746632D01*
X5669010Y51503411D01*
X5557068Y51233158D01*
X5500000Y50946260D01*
X5500000Y50653740D01*
X5557068Y50366842D01*
X5669010Y50096589D01*
X5831525Y49853368D01*
X6038368Y49646525D01*
X6212760Y49530000D01*
X6038368Y49413475D01*
X5831525Y49206632D01*
X5669010Y48963411D01*
X5557068Y48693158D01*
X5500000Y48406260D01*
X5500000Y48113740D01*
X5557068Y47826842D01*
X5669010Y47556589D01*
X5831525Y47313368D01*
X6038368Y47106525D01*
X6212760Y46990000D01*
X6038368Y46873475D01*
X5831525Y46666632D01*
X5669010Y46423411D01*
X5557068Y46153158D01*
X5500000Y45866260D01*
X5500000Y45573740D01*
X5557068Y45286842D01*
X5669010Y45016589D01*
X5831525Y44773368D01*
X6038368Y44566525D01*
X6212760Y44450000D01*
X6038368Y44333475D01*
X5831525Y44126632D01*
X5669010Y43883411D01*
X5557068Y43613158D01*
X5500000Y43326260D01*
X5500000Y43033740D01*
X5557068Y42746842D01*
X5669010Y42476589D01*
X5831525Y42233368D01*
X6038368Y42026525D01*
X6212760Y41910000D01*
X6038368Y41793475D01*
X5831525Y41586632D01*
X5669010Y41343411D01*
X5557068Y41073158D01*
X5500000Y40786260D01*
X5500000Y40493740D01*
X5557068Y40206842D01*
X5669010Y39936589D01*
X5831525Y39693368D01*
X6038368Y39486525D01*
X6212760Y39370000D01*
X6038368Y39253475D01*
X5831525Y39046632D01*
X5669010Y38803411D01*
X5557068Y38533158D01*
X5500000Y38246260D01*
X5500000Y37953740D01*
X5557068Y37666842D01*
X5669010Y37396589D01*
X5831525Y37153368D01*
X6038368Y36946525D01*
X6212760Y36830000D01*
X6038368Y36713475D01*
X5831525Y36506632D01*
X5669010Y36263411D01*
X5557068Y35993158D01*
X5500000Y35706260D01*
X5500000Y35413740D01*
X5557068Y35126842D01*
X5669010Y34856589D01*
X5831525Y34613368D01*
X6038368Y34406525D01*
X6212760Y34290000D01*
X6038368Y34173475D01*
X5831525Y33966632D01*
X5669010Y33723411D01*
X5557068Y33453158D01*
X5500000Y33166260D01*
X5500000Y32873740D01*
X5557068Y32586842D01*
X5669010Y32316589D01*
X5831525Y32073368D01*
X6038368Y31866525D01*
X6212760Y31750000D01*
X6038368Y31633475D01*
X5831525Y31426632D01*
X5669010Y31183411D01*
X5557068Y30913158D01*
X5500000Y30626260D01*
X5500000Y30333740D01*
X5557068Y30046842D01*
X5669010Y29776589D01*
X5831525Y29533368D01*
X6038368Y29326525D01*
X6212760Y29210000D01*
X6038368Y29093475D01*
X5831525Y28886632D01*
X5669010Y28643411D01*
X5557068Y28373158D01*
X5500000Y28086260D01*
X5500000Y27793740D01*
X5557068Y27506842D01*
X5669010Y27236589D01*
X5831525Y26993368D01*
X6038368Y26786525D01*
X6212760Y26670000D01*
X6038368Y26553475D01*
X5831525Y26346632D01*
X5669010Y26103411D01*
X5557068Y25833158D01*
X5500000Y25546260D01*
X5500000Y25253740D01*
X5557068Y24966842D01*
X5669010Y24696589D01*
X5831525Y24453368D01*
X6038368Y24246525D01*
X6212760Y24130000D01*
X6038368Y24013475D01*
X5831525Y23806632D01*
X5669010Y23563411D01*
X5557068Y23293158D01*
X5500000Y23006260D01*
X5500000Y22713740D01*
X5557068Y22426842D01*
X5669010Y22156589D01*
X5831525Y21913368D01*
X6038368Y21706525D01*
X6212760Y21590000D01*
X6038368Y21473475D01*
X5831525Y21266632D01*
X5669010Y21023411D01*
X5557068Y20753158D01*
X5500000Y20466260D01*
X5500000Y20173740D01*
X5557068Y19886842D01*
X5669010Y19616589D01*
X5831525Y19373368D01*
X6038368Y19166525D01*
X6212760Y19050000D01*
X6038368Y18933475D01*
X5831525Y18726632D01*
X5669010Y18483411D01*
X5557068Y18213158D01*
X5500000Y17926260D01*
X5500000Y17633740D01*
X5557068Y17346842D01*
X5669010Y17076589D01*
X5831525Y16833368D01*
X6038368Y16626525D01*
X6212760Y16510000D01*
X6038368Y16393475D01*
X5831525Y16186632D01*
X5669010Y15943411D01*
X5557068Y15673158D01*
X5500000Y15386260D01*
X5500000Y15093740D01*
X5557068Y14806842D01*
X5669010Y14536589D01*
X5831525Y14293368D01*
X6038368Y14086525D01*
X6281589Y13924010D01*
X6551842Y13812068D01*
X6838740Y13755000D01*
X7131260Y13755000D01*
X7418158Y13812068D01*
X7688411Y13924010D01*
X7931632Y14086525D01*
X8063487Y14218380D01*
X8085498Y14145820D01*
X8144463Y14035506D01*
X8223815Y13938815D01*
X8320506Y13859463D01*
X8430820Y13800498D01*
X8550518Y13764188D01*
X8675000Y13751928D01*
X10375000Y13751928D01*
X10499482Y13764188D01*
X10619180Y13800498D01*
X10729494Y13859463D01*
X10826185Y13938815D01*
X10905537Y14035506D01*
X10964502Y14145820D01*
X11000812Y14265518D01*
X11013072Y14390000D01*
X11013072Y15890200D01*
X12263795Y15890200D01*
X12299900Y15886644D01*
X12336005Y15890200D01*
X12443985Y15900835D01*
X12582533Y15942863D01*
X12710220Y16011113D01*
X12822138Y16102962D01*
X12845158Y16131012D01*
X13499520Y16785373D01*
X13658368Y16626525D01*
X13832760Y16510000D01*
X13658368Y16393475D01*
X13451525Y16186632D01*
X13289010Y15943411D01*
X13177068Y15673158D01*
X13120000Y15386260D01*
X13120000Y15093740D01*
X13177068Y14806842D01*
X13289010Y14536589D01*
X13451525Y14293368D01*
X13658368Y14086525D01*
X13901589Y13924010D01*
X14171842Y13812068D01*
X14458740Y13755000D01*
X14751260Y13755000D01*
X15038158Y13812068D01*
X15308411Y13924010D01*
X15551632Y14086525D01*
X15683487Y14218380D01*
X15705498Y14145820D01*
X15764463Y14035506D01*
X15843815Y13938815D01*
X15940506Y13859463D01*
X16050820Y13800498D01*
X16170518Y13764188D01*
X16295000Y13751928D01*
X17995000Y13751928D01*
X18119482Y13764188D01*
X18239180Y13800498D01*
X18349494Y13859463D01*
X18446185Y13938815D01*
X18525537Y14035506D01*
X18584502Y14145820D01*
X18620812Y14265518D01*
X18633072Y14390000D01*
X18633072Y16090000D01*
X18620812Y16214482D01*
X18584502Y16334180D01*
X18525537Y16444494D01*
X18446185Y16541185D01*
X18349494Y16620537D01*
X18239180Y16679502D01*
X18166620Y16701513D01*
X18298475Y16833368D01*
X18460990Y17076589D01*
X18572932Y17346842D01*
X18630000Y17633740D01*
X18630000Y17926260D01*
X18572932Y18213158D01*
X18460990Y18483411D01*
X18298475Y18726632D01*
X18091632Y18933475D01*
X17917240Y19050000D01*
X18091632Y19166525D01*
X18250480Y19325373D01*
X22830046Y14745807D01*
X22853062Y14717762D01*
X22964980Y14625913D01*
X23092667Y14557663D01*
X23231215Y14515635D01*
X23375300Y14501444D01*
X23411405Y14505000D01*
X28805736Y14505000D01*
X28841068Y14438899D01*
X29020392Y14220392D01*
X29238899Y14041068D01*
X29371858Y13970000D01*
X29238899Y13898932D01*
X29020392Y13719608D01*
X28841068Y13501101D01*
X28707818Y13251808D01*
X28625764Y12981309D01*
X28598057Y12700000D01*
X28625764Y12418691D01*
X28707818Y12148192D01*
X28841068Y11898899D01*
X29020392Y11680392D01*
X29238899Y11501068D01*
X29366741Y11432735D01*
X29137161Y11282601D01*
X28935500Y11084895D01*
X28776285Y10851646D01*
X28665633Y10591818D01*
X28648096Y10509039D01*
X28770085Y10287000D01*
X30313000Y10287000D01*
X30313000Y10307000D01*
X30567000Y10307000D01*
X30567000Y10287000D01*
X32109915Y10287000D01*
X32231904Y10509039D01*
X32214367Y10591818D01*
X32103715Y10851646D01*
X31944500Y11084895D01*
X31742839Y11282601D01*
X31513259Y11432735D01*
X31641101Y11501068D01*
X31859608Y11680392D01*
X32038932Y11898899D01*
X32074264Y11965000D01*
X32615736Y11965000D01*
X32651068Y11898899D01*
X32830392Y11680392D01*
X33048899Y11501068D01*
X33176741Y11432735D01*
X32947161Y11282601D01*
X32745500Y11084895D01*
X32586285Y10851646D01*
X32475633Y10591818D01*
X32458096Y10509039D01*
X32580085Y10287000D01*
X34123000Y10287000D01*
X34123000Y10307000D01*
X34377000Y10307000D01*
X34377000Y10287000D01*
X35919915Y10287000D01*
X36041904Y10509039D01*
X36024367Y10591818D01*
X35913715Y10851646D01*
X35754500Y11084895D01*
X35552839Y11282601D01*
X35323259Y11432735D01*
X35451101Y11501068D01*
X35669608Y11680392D01*
X35848932Y11898899D01*
X35982182Y12148192D01*
X36064236Y12418691D01*
X36091943Y12700000D01*
X36064236Y12981309D01*
X35982182Y13251808D01*
X35848932Y13501101D01*
X35669608Y13719608D01*
X35451101Y13898932D01*
X35318142Y13970000D01*
X35451101Y14041068D01*
X35669608Y14220392D01*
X35848932Y14438899D01*
X35982182Y14688192D01*
X36064236Y14958691D01*
X36091943Y15240000D01*
X36064236Y15521309D01*
X35982182Y15791808D01*
X35848932Y16041101D01*
X35669608Y16259608D01*
X35451101Y16438932D01*
X35318142Y16510000D01*
X35449853Y16580401D01*
X39824446Y12205807D01*
X39847462Y12177762D01*
X39959380Y12085913D01*
X40087067Y12017663D01*
X40183586Y11988384D01*
X40225614Y11975635D01*
X40230298Y11975174D01*
X40271068Y11898899D01*
X40450392Y11680392D01*
X40668899Y11501068D01*
X40801858Y11430000D01*
X40668899Y11358932D01*
X40450392Y11179608D01*
X40271068Y10961101D01*
X40137818Y10711808D01*
X40055764Y10441309D01*
X40028057Y10160000D01*
X40055764Y9878691D01*
X40137818Y9608192D01*
X40271068Y9358899D01*
X40450392Y9140392D01*
X40668899Y8961068D01*
X40918192Y8827818D01*
X41188691Y8745764D01*
X41399508Y8725000D01*
X42340492Y8725000D01*
X42551309Y8745764D01*
X42821808Y8827818D01*
X43071101Y8961068D01*
X43289608Y9140392D01*
X43468932Y9358899D01*
X43504264Y9425000D01*
X44045736Y9425000D01*
X44081068Y9358899D01*
X44260392Y9140392D01*
X44478899Y8961068D01*
X44728192Y8827818D01*
X44998691Y8745764D01*
X45209508Y8725000D01*
X46150492Y8725000D01*
X46361309Y8745764D01*
X46631808Y8827818D01*
X46881101Y8961068D01*
X47099608Y9140392D01*
X47278932Y9358899D01*
X47412182Y9608192D01*
X47494236Y9878691D01*
X47521943Y10160000D01*
X47494236Y10441309D01*
X47412182Y10711808D01*
X47278932Y10961101D01*
X47099608Y11179608D01*
X46881101Y11358932D01*
X46748142Y11430000D01*
X46881101Y11501068D01*
X47099608Y11680392D01*
X47278932Y11898899D01*
X47412182Y12148192D01*
X47494236Y12418691D01*
X47521943Y12700000D01*
X47494236Y12981309D01*
X47412182Y13251808D01*
X47278932Y13501101D01*
X47099608Y13719608D01*
X46881101Y13898932D01*
X46748142Y13970000D01*
X46881101Y14041068D01*
X47099608Y14220392D01*
X47278932Y14438899D01*
X47412182Y14688192D01*
X47494236Y14958691D01*
X47521943Y15240000D01*
X47494236Y15521309D01*
X47412182Y15791808D01*
X47278932Y16041101D01*
X47099608Y16259608D01*
X46881101Y16438932D01*
X46748142Y16510000D01*
X46881101Y16581068D01*
X47099608Y16760392D01*
X47278932Y16978899D01*
X47412182Y17228192D01*
X47494236Y17498691D01*
X47521943Y17780000D01*
X47494236Y18061309D01*
X47412182Y18331808D01*
X47278932Y18581101D01*
X47099608Y18799608D01*
X46881101Y18978932D01*
X46748142Y19050000D01*
X46881101Y19121068D01*
X47099608Y19300392D01*
X47278932Y19518899D01*
X47412182Y19768192D01*
X47494236Y20038691D01*
X47521943Y20320000D01*
X47494236Y20601309D01*
X47412182Y20871808D01*
X47278932Y21121101D01*
X47099608Y21339608D01*
X46881101Y21518932D01*
X46748142Y21590000D01*
X46881101Y21661068D01*
X47099608Y21840392D01*
X47278932Y22058899D01*
X47412182Y22308192D01*
X47494236Y22578691D01*
X47521943Y22860000D01*
X47494236Y23141309D01*
X47412182Y23411808D01*
X47278932Y23661101D01*
X47148806Y23819660D01*
X47674493Y24345346D01*
X47702538Y24368362D01*
X47794387Y24480280D01*
X47862637Y24607967D01*
X47904665Y24746515D01*
X47915300Y24854495D01*
X47918856Y24890600D01*
X47915300Y24926705D01*
X47915300Y32983896D01*
X47918856Y33020000D01*
X47904665Y33164085D01*
X47862637Y33302633D01*
X47794387Y33430320D01*
X47702538Y33542238D01*
X47590620Y33634087D01*
X47462933Y33702337D01*
X47324385Y33744365D01*
X47319702Y33744826D01*
X47278932Y33821101D01*
X47099608Y34039608D01*
X46881101Y34218932D01*
X46748142Y34290000D01*
X46881101Y34361068D01*
X47099608Y34540392D01*
X47278932Y34758899D01*
X47412182Y35008192D01*
X47494236Y35278691D01*
X47521943Y35560000D01*
X47494236Y35841309D01*
X47412182Y36111808D01*
X47278932Y36361101D01*
X47099608Y36579608D01*
X46881101Y36758932D01*
X46748142Y36830000D01*
X46881101Y36901068D01*
X47099608Y37080392D01*
X47278932Y37298899D01*
X47412182Y37548192D01*
X47494236Y37818691D01*
X47521943Y38100000D01*
X47494236Y38381309D01*
X47412182Y38651808D01*
X47278932Y38901101D01*
X47099608Y39119608D01*
X46881101Y39298932D01*
X46748142Y39370000D01*
X46881101Y39441068D01*
X47099608Y39620392D01*
X47278932Y39838899D01*
X47412182Y40088192D01*
X47494236Y40358691D01*
X47521943Y40640000D01*
X47494236Y40921309D01*
X47412182Y41191808D01*
X47278932Y41441101D01*
X47099608Y41659608D01*
X46881101Y41838932D01*
X46748142Y41910000D01*
X46881101Y41981068D01*
X47099608Y42160392D01*
X47278932Y42378899D01*
X47412182Y42628192D01*
X47494236Y42898691D01*
X47521943Y43180000D01*
X47494236Y43461309D01*
X47412182Y43731808D01*
X47278932Y43981101D01*
X47099608Y44199608D01*
X46881101Y44378932D01*
X46631808Y44512182D01*
X46361309Y44594236D01*
X46150492Y44615000D01*
X45209508Y44615000D01*
X44998691Y44594236D01*
X44728192Y44512182D01*
X44478899Y44378932D01*
X44260392Y44199608D01*
X44081068Y43981101D01*
X43947818Y43731808D01*
X43865764Y43461309D01*
X43838057Y43180000D01*
X43865764Y42898691D01*
X43947818Y42628192D01*
X44081068Y42378899D01*
X44260392Y42160392D01*
X44478899Y41981068D01*
X44611858Y41910000D01*
X44478899Y41838932D01*
X44260392Y41659608D01*
X44081068Y41441101D01*
X44045736Y41375000D01*
X43504264Y41375000D01*
X43468932Y41441101D01*
X43289608Y41659608D01*
X43071101Y41838932D01*
X42938142Y41910000D01*
X43071101Y41981068D01*
X43289608Y42160392D01*
X43468932Y42378899D01*
X43602182Y42628192D01*
X43684236Y42898691D01*
X43711943Y43180000D01*
X43684236Y43461309D01*
X43602182Y43731808D01*
X43468932Y43981101D01*
X43289608Y44199608D01*
X43071101Y44378932D01*
X42821808Y44512182D01*
X42551309Y44594236D01*
X42340492Y44615000D01*
X41804446Y44615000D01*
X44713897Y47524451D01*
X44741937Y47547462D01*
X44764950Y47575503D01*
X44764953Y47575506D01*
X44833786Y47659379D01*
X44833787Y47659380D01*
X44902037Y47787067D01*
X44944065Y47925615D01*
X44954700Y48033595D01*
X44954700Y48033604D01*
X44958255Y48069699D01*
X44954700Y48105794D01*
X44954700Y55126242D01*
X45038691Y55100764D01*
X45249508Y55080000D01*
X46190492Y55080000D01*
X46401309Y55100764D01*
X46671808Y55182818D01*
X46921101Y55316068D01*
X47139608Y55495392D01*
X47318932Y55713899D01*
X47452182Y55963192D01*
X47534236Y56233691D01*
X47561943Y56515000D01*
X47548023Y56656335D01*
X48730000Y56656335D01*
X48730000Y56373665D01*
X48785147Y56096426D01*
X48893320Y55835273D01*
X49050363Y55600241D01*
X49250241Y55400363D01*
X49485273Y55243320D01*
X49746426Y55135147D01*
X50023665Y55080000D01*
X50306335Y55080000D01*
X50583574Y55135147D01*
X50844727Y55243320D01*
X51079759Y55400363D01*
X51279637Y55600241D01*
X51436680Y55835273D01*
X51544853Y56096426D01*
X51600000Y56373665D01*
X51600000Y56656335D01*
X51544853Y56933574D01*
X51436680Y57194727D01*
X51279637Y57429759D01*
X51079759Y57629637D01*
X50844727Y57786680D01*
X50583574Y57894853D01*
X50306335Y57950000D01*
X50023665Y57950000D01*
X49746426Y57894853D01*
X49485273Y57786680D01*
X49250241Y57629637D01*
X49050363Y57429759D01*
X48893320Y57194727D01*
X48785147Y56933574D01*
X48730000Y56656335D01*
X47548023Y56656335D01*
X47534236Y56796309D01*
X47452182Y57066808D01*
X47318932Y57316101D01*
X47139608Y57534608D01*
X46921101Y57713932D01*
X46788142Y57785000D01*
X46921101Y57856068D01*
X47139608Y58035392D01*
X47318932Y58253899D01*
X47452182Y58503192D01*
X47534236Y58773691D01*
X47561943Y59055000D01*
X47534236Y59336309D01*
X47452182Y59606808D01*
X47318932Y59856101D01*
X47139608Y60074608D01*
X46921101Y60253932D01*
X46788142Y60325000D01*
X46921101Y60396068D01*
X47139608Y60575392D01*
X47318932Y60793899D01*
X47452182Y61043192D01*
X47534236Y61313691D01*
X47561943Y61595000D01*
X47534236Y61876309D01*
X47452182Y62146808D01*
X47318932Y62396101D01*
X47139608Y62614608D01*
X46921101Y62793932D01*
X46788142Y62865000D01*
X46921101Y62936068D01*
X47139608Y63115392D01*
X47237767Y63235000D01*
X56246928Y63235000D01*
X56259188Y63110518D01*
X56295498Y62990820D01*
X56354463Y62880506D01*
X56433815Y62783815D01*
X56530506Y62704463D01*
X56640820Y62645498D01*
X56659127Y62639944D01*
X56592688Y62573505D01*
X56424701Y62322095D01*
X56308989Y62042743D01*
X56250000Y61746184D01*
X56250000Y61443816D01*
X56308989Y61147257D01*
X56424701Y60867905D01*
X56592688Y60616495D01*
X56806495Y60402688D01*
X57057905Y60234701D01*
X57337257Y60118989D01*
X57633816Y60060000D01*
X57936184Y60060000D01*
X58232743Y60118989D01*
X58512095Y60234701D01*
X58763505Y60402688D01*
X58977312Y60616495D01*
X59145299Y60867905D01*
X59261011Y61147257D01*
X59320000Y61443816D01*
X59320000Y61746184D01*
X59261011Y62042743D01*
X59145299Y62322095D01*
X58977312Y62573505D01*
X58910873Y62639944D01*
X58929180Y62645498D01*
X59039494Y62704463D01*
X59136185Y62783815D01*
X59215537Y62880506D01*
X59274502Y62990820D01*
X59310812Y63110518D01*
X59323072Y63235000D01*
X59320000Y63849250D01*
X59161250Y64008000D01*
X57912000Y64008000D01*
X57912000Y63988000D01*
X57658000Y63988000D01*
X57658000Y64008000D01*
X56408750Y64008000D01*
X56250000Y63849250D01*
X56246928Y63235000D01*
X47237767Y63235000D01*
X47318932Y63333899D01*
X47452182Y63583192D01*
X47534236Y63853691D01*
X47561943Y64135000D01*
X47534236Y64416309D01*
X47452182Y64686808D01*
X47318932Y64936101D01*
X47237768Y65035000D01*
X56246928Y65035000D01*
X56250000Y64420750D01*
X56408750Y64262000D01*
X57658000Y64262000D01*
X57658000Y65511250D01*
X57912000Y65511250D01*
X57912000Y64262000D01*
X59161250Y64262000D01*
X59320000Y64420750D01*
X59323072Y65035000D01*
X59310812Y65159482D01*
X59274502Y65279180D01*
X59215537Y65389494D01*
X59136185Y65486185D01*
X59039494Y65565537D01*
X58929180Y65624502D01*
X58809482Y65660812D01*
X58685000Y65673072D01*
X58070750Y65670000D01*
X57912000Y65511250D01*
X57658000Y65511250D01*
X57499250Y65670000D01*
X56885000Y65673072D01*
X56760518Y65660812D01*
X56640820Y65624502D01*
X56530506Y65565537D01*
X56433815Y65486185D01*
X56354463Y65389494D01*
X56295498Y65279180D01*
X56259188Y65159482D01*
X56246928Y65035000D01*
X47237768Y65035000D01*
X47139608Y65154608D01*
X46921101Y65333932D01*
X46788142Y65405000D01*
X46921101Y65476068D01*
X47139608Y65655392D01*
X47318932Y65873899D01*
X47354264Y65940000D01*
X48930252Y65940000D01*
X49050363Y65760241D01*
X49250241Y65560363D01*
X49485273Y65403320D01*
X49746426Y65295147D01*
X50023665Y65240000D01*
X50306335Y65240000D01*
X50583574Y65295147D01*
X50844727Y65403320D01*
X51079759Y65560363D01*
X51279637Y65760241D01*
X51436680Y65995273D01*
X51544853Y66256426D01*
X51600000Y66533665D01*
X51600000Y66816335D01*
X51544853Y67093574D01*
X51436680Y67354727D01*
X51279637Y67589759D01*
X51079759Y67789637D01*
X50847241Y67945000D01*
X51079759Y68100363D01*
X51279637Y68300241D01*
X51436680Y68535273D01*
X51544853Y68796426D01*
X51600000Y69073665D01*
X51600000Y69356335D01*
X51544853Y69633574D01*
X51436680Y69894727D01*
X51279637Y70129759D01*
X51079759Y70329637D01*
X50844727Y70486680D01*
X50583574Y70594853D01*
X50306335Y70650000D01*
X50023665Y70650000D01*
X49746426Y70594853D01*
X49485273Y70486680D01*
X49250241Y70329637D01*
X49050363Y70129759D01*
X48930252Y69950000D01*
X47354264Y69950000D01*
X47318932Y70016101D01*
X47139608Y70234608D01*
X46921101Y70413932D01*
X46788142Y70485000D01*
X46921101Y70556068D01*
X47139608Y70735392D01*
X47318932Y70953899D01*
X47359702Y71030174D01*
X47364385Y71030635D01*
X47502933Y71072663D01*
X47630620Y71140913D01*
X47742538Y71232762D01*
X47834387Y71344680D01*
X47902637Y71472367D01*
X47944665Y71610915D01*
X47958856Y71755000D01*
X47955300Y71791105D01*
X47955300Y73395000D01*
X56246928Y73395000D01*
X56259188Y73270518D01*
X56295498Y73150820D01*
X56354463Y73040506D01*
X56433815Y72943815D01*
X56530506Y72864463D01*
X56640820Y72805498D01*
X56760518Y72769188D01*
X56885000Y72756928D01*
X57499250Y72760000D01*
X57658000Y72918750D01*
X57658000Y74168000D01*
X57912000Y74168000D01*
X57912000Y72918750D01*
X58070750Y72760000D01*
X58685000Y72756928D01*
X58809482Y72769188D01*
X58929180Y72805498D01*
X59039494Y72864463D01*
X59136185Y72943815D01*
X59215537Y73040506D01*
X59274502Y73150820D01*
X59310812Y73270518D01*
X59323072Y73395000D01*
X59320000Y74009250D01*
X59161250Y74168000D01*
X57912000Y74168000D01*
X57658000Y74168000D01*
X56408750Y74168000D01*
X56250000Y74009250D01*
X56246928Y73395000D01*
X47955300Y73395000D01*
X47955300Y79516335D01*
X48730000Y79516335D01*
X48730000Y79233665D01*
X48785147Y78956426D01*
X48893320Y78695273D01*
X49050363Y78460241D01*
X49250241Y78260363D01*
X49485273Y78103320D01*
X49746426Y77995147D01*
X50023665Y77940000D01*
X50306335Y77940000D01*
X50583574Y77995147D01*
X50844727Y78103320D01*
X51079759Y78260363D01*
X51279637Y78460241D01*
X51399748Y78640000D01*
X54940554Y78640000D01*
X56307134Y77273419D01*
X56250000Y76986184D01*
X56250000Y76683816D01*
X56308989Y76387257D01*
X56424701Y76107905D01*
X56592688Y75856495D01*
X56659127Y75790056D01*
X56640820Y75784502D01*
X56530506Y75725537D01*
X56433815Y75646185D01*
X56354463Y75549494D01*
X56295498Y75439180D01*
X56259188Y75319482D01*
X56246928Y75195000D01*
X56250000Y74580750D01*
X56408750Y74422000D01*
X57658000Y74422000D01*
X57658000Y74442000D01*
X57912000Y74442000D01*
X57912000Y74422000D01*
X59161250Y74422000D01*
X59320000Y74580750D01*
X59323072Y75195000D01*
X59310812Y75319482D01*
X59274502Y75439180D01*
X59215537Y75549494D01*
X59136185Y75646185D01*
X59039494Y75725537D01*
X58929180Y75784502D01*
X58910873Y75790056D01*
X58977312Y75856495D01*
X59145299Y76107905D01*
X59261011Y76387257D01*
X59320000Y76683816D01*
X59320000Y76986184D01*
X59261011Y77282743D01*
X59145299Y77562095D01*
X58977312Y77813505D01*
X58763505Y78027312D01*
X58512095Y78195299D01*
X58232743Y78311011D01*
X57936184Y78370000D01*
X57633816Y78370000D01*
X57346581Y78312866D01*
X55790259Y79869188D01*
X55767238Y79897238D01*
X55655320Y79989087D01*
X55527633Y80057337D01*
X55389085Y80099365D01*
X55281105Y80110000D01*
X55245000Y80113556D01*
X55208895Y80110000D01*
X51399748Y80110000D01*
X51279637Y80289759D01*
X51079759Y80489637D01*
X50844727Y80646680D01*
X50583574Y80754853D01*
X50306335Y80810000D01*
X50023665Y80810000D01*
X49746426Y80754853D01*
X49485273Y80646680D01*
X49250241Y80489637D01*
X49050363Y80289759D01*
X48893320Y80054727D01*
X48785147Y79793574D01*
X48730000Y79516335D01*
X47955300Y79516335D01*
X47955300Y79877904D01*
X47958855Y79914001D01*
X47955300Y79950098D01*
X47955300Y79950105D01*
X47944665Y80058085D01*
X47902637Y80196633D01*
X47834387Y80324320D01*
X47803162Y80362367D01*
X47765553Y80408194D01*
X47765550Y80408197D01*
X47742537Y80436238D01*
X47714497Y80459250D01*
X47202148Y80971598D01*
X47318932Y81113899D01*
X47452182Y81363192D01*
X47534236Y81633691D01*
X47561943Y81915000D01*
X47534236Y82196309D01*
X47452182Y82466808D01*
X47318932Y82716101D01*
X47139608Y82934608D01*
X46921101Y83113932D01*
X46788142Y83185000D01*
X46921101Y83256068D01*
X47139608Y83435392D01*
X47318932Y83653899D01*
X47452182Y83903192D01*
X47534236Y84173691D01*
X47561943Y84455000D01*
X47534236Y84736309D01*
X47452182Y85006808D01*
X47318932Y85256101D01*
X47139608Y85474608D01*
X46921101Y85653932D01*
X46671808Y85787182D01*
X46401309Y85869236D01*
X46190492Y85890000D01*
X45249508Y85890000D01*
X45038691Y85869236D01*
X44768192Y85787182D01*
X44518899Y85653932D01*
X44300392Y85474608D01*
X44121068Y85256101D01*
X43987818Y85006808D01*
X43905764Y84736309D01*
X43878057Y84455000D01*
X43905764Y84173691D01*
X43987818Y83903192D01*
X44121068Y83653899D01*
X44300392Y83435392D01*
X44518899Y83256068D01*
X44651858Y83185000D01*
X44518899Y83113932D01*
X44300392Y82934608D01*
X44121068Y82716101D01*
X43994652Y82479594D01*
X42959959Y83514288D01*
X42936938Y83542338D01*
X42825020Y83634187D01*
X42697333Y83702437D01*
X42558785Y83744465D01*
X42450805Y83755100D01*
X42414700Y83758656D01*
X42378595Y83755100D01*
X39938072Y83755100D01*
X39938072Y85255000D01*
X39925812Y85379482D01*
X39889502Y85499180D01*
X39830537Y85609494D01*
X39751185Y85706185D01*
X39654494Y85785537D01*
X39544180Y85844502D01*
X39424482Y85880812D01*
X39300000Y85893072D01*
X36900000Y85893072D01*
X36775518Y85880812D01*
X36655820Y85844502D01*
X36545506Y85785537D01*
X36448815Y85706185D01*
X36369463Y85609494D01*
X36310498Y85499180D01*
X36274188Y85379482D01*
X36261928Y85255000D01*
X36261928Y83755100D01*
X35736305Y83755100D01*
X35700200Y83758656D01*
X35664095Y83755100D01*
X35556115Y83744465D01*
X35417567Y83702437D01*
X35289880Y83634187D01*
X35177962Y83542338D01*
X35154946Y83514293D01*
X27659500Y76018847D01*
X27639370Y76038977D01*
X27523097Y75922704D01*
X27451514Y76166671D01*
X27196004Y76287571D01*
X26921816Y76356300D01*
X26639488Y76370217D01*
X26359870Y76328787D01*
X26093708Y76233603D01*
X25968486Y76166671D01*
X25896903Y75922702D01*
X26710000Y75109605D01*
X26724143Y75123747D01*
X26903748Y74944142D01*
X26889605Y74930000D01*
X26903748Y74915857D01*
X26724143Y74736252D01*
X26710000Y74750395D01*
X25896903Y73937298D01*
X25968486Y73693329D01*
X26223996Y73572429D01*
X26371347Y73535493D01*
X25808615Y72972761D01*
X25781185Y73006185D01*
X25684494Y73085537D01*
X25574180Y73144502D01*
X25454482Y73180812D01*
X25330000Y73193072D01*
X22930000Y73193072D01*
X22805518Y73180812D01*
X22685820Y73144502D01*
X22575506Y73085537D01*
X22478815Y73006185D01*
X22399463Y72909494D01*
X22340498Y72799180D01*
X22304188Y72679482D01*
X22291928Y72555000D01*
X22291928Y70955000D01*
X22304188Y70830518D01*
X22340498Y70710820D01*
X22399463Y70600506D01*
X22446249Y70543496D01*
X18515226Y66612473D01*
X18460990Y66743411D01*
X18298475Y66986632D01*
X18091632Y67193475D01*
X17917240Y67310000D01*
X18091632Y67426525D01*
X18298475Y67633368D01*
X18460990Y67876589D01*
X18572932Y68146842D01*
X18630000Y68433740D01*
X18630000Y68726260D01*
X18572932Y69013158D01*
X18460990Y69283411D01*
X18298475Y69526632D01*
X18091632Y69733475D01*
X17917240Y69850000D01*
X18091632Y69966525D01*
X18298475Y70173368D01*
X18460990Y70416589D01*
X18572932Y70686842D01*
X18630000Y70973740D01*
X18630000Y71266260D01*
X18572932Y71553158D01*
X18460990Y71823411D01*
X18298475Y72066632D01*
X18091632Y72273475D01*
X17917240Y72390000D01*
X18091632Y72506525D01*
X18298475Y72713368D01*
X18460990Y72956589D01*
X18572932Y73226842D01*
X18630000Y73513740D01*
X18630000Y73806260D01*
X18572932Y74093158D01*
X18460990Y74363411D01*
X18298475Y74606632D01*
X18091632Y74813475D01*
X18022769Y74859488D01*
X25269783Y74859488D01*
X25311213Y74579870D01*
X25406397Y74313708D01*
X25473329Y74188486D01*
X25717298Y74116903D01*
X26530395Y74930000D01*
X25717298Y75743097D01*
X25473329Y75671514D01*
X25352429Y75416004D01*
X25283700Y75141816D01*
X25269783Y74859488D01*
X18022769Y74859488D01*
X17917240Y74930000D01*
X18091632Y75046525D01*
X18298475Y75253368D01*
X18460990Y75496589D01*
X18572932Y75766842D01*
X18630000Y76053740D01*
X18630000Y76346260D01*
X18572932Y76633158D01*
X18460990Y76903411D01*
X18298475Y77146632D01*
X18091632Y77353475D01*
X17848411Y77515990D01*
X17578158Y77627932D01*
X17291260Y77685000D01*
X16998740Y77685000D01*
X16711842Y77627932D01*
X16441589Y77515990D01*
X16198368Y77353475D01*
X15991525Y77146632D01*
X15873900Y76970594D01*
X15702588Y77200269D01*
X15486355Y77395178D01*
X15236252Y77544157D01*
X14961891Y77641481D01*
X14732000Y77520814D01*
X14732000Y76327000D01*
X14752000Y76327000D01*
X14752000Y76073000D01*
X14732000Y76073000D01*
X14732000Y73787000D01*
X14752000Y73787000D01*
X14752000Y73533000D01*
X14732000Y73533000D01*
X14732000Y73513000D01*
X14478000Y73513000D01*
X14478000Y73533000D01*
X13284845Y73533000D01*
X13163524Y73303110D01*
X13208175Y73155901D01*
X13276669Y73012100D01*
X11868505Y73012100D01*
X11832400Y73015656D01*
X11688315Y73001465D01*
X11549766Y72959437D01*
X11456330Y72909494D01*
X11422080Y72891187D01*
X11310162Y72799338D01*
X11287146Y72771293D01*
X10630480Y72114627D01*
X10471632Y72273475D01*
X10297240Y72390000D01*
X10471632Y72506525D01*
X10678475Y72713368D01*
X10840990Y72956589D01*
X10952932Y73226842D01*
X11010000Y73513740D01*
X11010000Y73806260D01*
X10952932Y74093158D01*
X10840990Y74363411D01*
X10678475Y74606632D01*
X10471632Y74813475D01*
X10297240Y74930000D01*
X10471632Y75046525D01*
X10678475Y75253368D01*
X10840990Y75496589D01*
X10952932Y75766842D01*
X10968102Y75843110D01*
X13163524Y75843110D01*
X13208175Y75695901D01*
X13333359Y75433080D01*
X13507412Y75199731D01*
X13723645Y75004822D01*
X13849255Y74930000D01*
X13723645Y74855178D01*
X13507412Y74660269D01*
X13333359Y74426920D01*
X13208175Y74164099D01*
X13163524Y74016890D01*
X13284845Y73787000D01*
X14478000Y73787000D01*
X14478000Y76073000D01*
X13284845Y76073000D01*
X13163524Y75843110D01*
X10968102Y75843110D01*
X11010000Y76053740D01*
X11010000Y76346260D01*
X10968103Y76556890D01*
X13163524Y76556890D01*
X13284845Y76327000D01*
X14478000Y76327000D01*
X14478000Y77520814D01*
X14248109Y77641481D01*
X13973748Y77544157D01*
X13723645Y77395178D01*
X13507412Y77200269D01*
X13333359Y76966920D01*
X13208175Y76704099D01*
X13163524Y76556890D01*
X10968103Y76556890D01*
X10952932Y76633158D01*
X10840990Y76903411D01*
X10678475Y77146632D01*
X10471632Y77353475D01*
X10228411Y77515990D01*
X9958158Y77627932D01*
X9671260Y77685000D01*
X9378740Y77685000D01*
X9091842Y77627932D01*
X8821589Y77515990D01*
X8578368Y77353475D01*
X8371525Y77146632D01*
X8253900Y76970594D01*
X8082588Y77200269D01*
X7866355Y77395178D01*
X7616252Y77544157D01*
X7341891Y77641481D01*
X7112000Y77520814D01*
X7112000Y76327000D01*
X7132000Y76327000D01*
X7132000Y76073000D01*
X7112000Y76073000D01*
X7112000Y73787000D01*
X7132000Y73787000D01*
X7132000Y73533000D01*
X7112000Y73533000D01*
X7112000Y73513000D01*
X6858000Y73513000D01*
X6858000Y73533000D01*
X5664845Y73533000D01*
X5543524Y73303110D01*
X5588175Y73155901D01*
X5713359Y72893080D01*
X5887412Y72659731D01*
X6103645Y72464822D01*
X6220534Y72395195D01*
X6038368Y72273475D01*
X5831525Y72066632D01*
X5669010Y71823411D01*
X5557068Y71553158D01*
X5500000Y71266260D01*
X660000Y71266260D01*
X660000Y75843110D01*
X5543524Y75843110D01*
X5588175Y75695901D01*
X5713359Y75433080D01*
X5887412Y75199731D01*
X6103645Y75004822D01*
X6229255Y74930000D01*
X6103645Y74855178D01*
X5887412Y74660269D01*
X5713359Y74426920D01*
X5588175Y74164099D01*
X5543524Y74016890D01*
X5664845Y73787000D01*
X6858000Y73787000D01*
X6858000Y76073000D01*
X5664845Y76073000D01*
X5543524Y75843110D01*
X660000Y75843110D01*
X660000Y76556890D01*
X5543524Y76556890D01*
X5664845Y76327000D01*
X6858000Y76327000D01*
X6858000Y77520814D01*
X6628109Y77641481D01*
X6353748Y77544157D01*
X6103645Y77395178D01*
X5887412Y77200269D01*
X5713359Y76966920D01*
X5588175Y76704099D01*
X5543524Y76556890D01*
X660000Y76556890D01*
X660000Y86220128D01*
X2765000Y86220128D01*
X2765000Y85779872D01*
X2850890Y85348075D01*
X3019369Y84941331D01*
X3263962Y84575271D01*
X3575271Y84263962D01*
X3941331Y84019369D01*
X4348075Y83850890D01*
X4779872Y83765000D01*
X5220128Y83765000D01*
X5651925Y83850890D01*
X6058669Y84019369D01*
X6424729Y84263962D01*
X6736038Y84575271D01*
X6980631Y84941331D01*
X7149110Y85348075D01*
X7235000Y85779872D01*
X7235000Y86220128D01*
X7152020Y86637298D01*
X39866903Y86637298D01*
X39938486Y86393329D01*
X40193996Y86272429D01*
X40468184Y86203700D01*
X40750512Y86189783D01*
X41030130Y86231213D01*
X41296292Y86326397D01*
X41421514Y86393329D01*
X41493097Y86637298D01*
X40680000Y87450395D01*
X39866903Y86637298D01*
X7152020Y86637298D01*
X7149110Y86651925D01*
X6980631Y87058669D01*
X6736038Y87424729D01*
X6601279Y87559488D01*
X39239783Y87559488D01*
X39281213Y87279870D01*
X39376397Y87013708D01*
X39443329Y86888486D01*
X39687298Y86816903D01*
X40500395Y87630000D01*
X40859605Y87630000D01*
X41672702Y86816903D01*
X41916671Y86888486D01*
X41930324Y86917341D01*
X42065363Y86715241D01*
X42265241Y86515363D01*
X42500273Y86358320D01*
X42761426Y86250147D01*
X43038665Y86195000D01*
X43321335Y86195000D01*
X43447660Y86220128D01*
X55265000Y86220128D01*
X55265000Y85779872D01*
X55350890Y85348075D01*
X55519369Y84941331D01*
X55763962Y84575271D01*
X56075271Y84263962D01*
X56441331Y84019369D01*
X56848075Y83850890D01*
X57279872Y83765000D01*
X57720128Y83765000D01*
X58151925Y83850890D01*
X58558669Y84019369D01*
X58924729Y84263962D01*
X59236038Y84575271D01*
X59480631Y84941331D01*
X59649110Y85348075D01*
X59735000Y85779872D01*
X59735000Y86220128D01*
X59649110Y86651925D01*
X59480631Y87058669D01*
X59236038Y87424729D01*
X58924729Y87736038D01*
X58558669Y87980631D01*
X58151925Y88149110D01*
X57720128Y88235000D01*
X57279872Y88235000D01*
X56848075Y88149110D01*
X56441331Y87980631D01*
X56075271Y87736038D01*
X55763962Y87424729D01*
X55519369Y87058669D01*
X55350890Y86651925D01*
X55265000Y86220128D01*
X43447660Y86220128D01*
X43598574Y86250147D01*
X43859727Y86358320D01*
X44094759Y86515363D01*
X44294637Y86715241D01*
X44451680Y86950273D01*
X44559853Y87211426D01*
X44615000Y87488665D01*
X44615000Y87771335D01*
X44559853Y88048574D01*
X44451680Y88309727D01*
X44294637Y88544759D01*
X44094759Y88744637D01*
X43859727Y88901680D01*
X43598574Y89009853D01*
X43321335Y89065000D01*
X43038665Y89065000D01*
X42761426Y89009853D01*
X42500273Y88901680D01*
X42265241Y88744637D01*
X42065363Y88544759D01*
X41931308Y88344131D01*
X41916671Y88371514D01*
X41672702Y88443097D01*
X40859605Y87630000D01*
X40500395Y87630000D01*
X39687298Y88443097D01*
X39443329Y88371514D01*
X39322429Y88116004D01*
X39253700Y87841816D01*
X39239783Y87559488D01*
X6601279Y87559488D01*
X6424729Y87736038D01*
X6058669Y87980631D01*
X5651925Y88149110D01*
X5220128Y88235000D01*
X4779872Y88235000D01*
X4348075Y88149110D01*
X3941331Y87980631D01*
X3575271Y87736038D01*
X3263962Y87424729D01*
X3019369Y87058669D01*
X2850890Y86651925D01*
X2765000Y86220128D01*
X660000Y86220128D01*
X660000Y88622702D01*
X39866903Y88622702D01*
X40680000Y87809605D01*
X41493097Y88622702D01*
X41421514Y88866671D01*
X41166004Y88987571D01*
X40891816Y89056300D01*
X40609488Y89070217D01*
X40329870Y89028787D01*
X40063708Y88933603D01*
X39938486Y88866671D01*
X39866903Y88622702D01*
X660000Y88622702D01*
X660000Y90340000D01*
X61840001Y90340000D01*
X61840000Y660000D01*
G04 #@! TA.AperFunction,Conductor*
D23*
G36*
X61840000Y660000D02*
G01*
X660000Y660000D01*
X660000Y5220128D01*
X2765000Y5220128D01*
X2765000Y4779872D01*
X2850890Y4348075D01*
X3019369Y3941331D01*
X3263962Y3575271D01*
X3575271Y3263962D01*
X3941331Y3019369D01*
X4348075Y2850890D01*
X4779872Y2765000D01*
X5220128Y2765000D01*
X5651925Y2850890D01*
X6058669Y3019369D01*
X6424729Y3263962D01*
X6736038Y3575271D01*
X6980631Y3941331D01*
X7149110Y4348075D01*
X7235000Y4779872D01*
X7235000Y5220128D01*
X7231585Y5237298D01*
X12046903Y5237298D01*
X12118486Y4993329D01*
X12373996Y4872429D01*
X12648184Y4803700D01*
X12930512Y4789783D01*
X13210130Y4831213D01*
X13476292Y4926397D01*
X13601514Y4993329D01*
X13668059Y5220128D01*
X55265000Y5220128D01*
X55265000Y4779872D01*
X55350890Y4348075D01*
X55519369Y3941331D01*
X55763962Y3575271D01*
X56075271Y3263962D01*
X56441331Y3019369D01*
X56848075Y2850890D01*
X57279872Y2765000D01*
X57720128Y2765000D01*
X58151925Y2850890D01*
X58558669Y3019369D01*
X58924729Y3263962D01*
X59236038Y3575271D01*
X59480631Y3941331D01*
X59649110Y4348075D01*
X59735000Y4779872D01*
X59735000Y5220128D01*
X59649110Y5651925D01*
X59480631Y6058669D01*
X59236038Y6424729D01*
X58924729Y6736038D01*
X58558669Y6980631D01*
X58151925Y7149110D01*
X57720128Y7235000D01*
X57279872Y7235000D01*
X56848075Y7149110D01*
X56441331Y6980631D01*
X56075271Y6736038D01*
X55763962Y6424729D01*
X55519369Y6058669D01*
X55350890Y5651925D01*
X55265000Y5220128D01*
X13668059Y5220128D01*
X13673097Y5237298D01*
X12860000Y6050395D01*
X12046903Y5237298D01*
X7231585Y5237298D01*
X7149110Y5651925D01*
X6980631Y6058669D01*
X6913267Y6159488D01*
X11419783Y6159488D01*
X11461213Y5879870D01*
X11556397Y5613708D01*
X11623329Y5488486D01*
X11867298Y5416903D01*
X12680395Y6230000D01*
X13039605Y6230000D01*
X13852702Y5416903D01*
X14096671Y5488486D01*
X14217571Y5743996D01*
X14286300Y6018184D01*
X14300217Y6300512D01*
X14258787Y6580130D01*
X14163603Y6846292D01*
X14096671Y6971514D01*
X13852702Y7043097D01*
X13039605Y6230000D01*
X12680395Y6230000D01*
X11867298Y7043097D01*
X11623329Y6971514D01*
X11502429Y6716004D01*
X11433700Y6441816D01*
X11419783Y6159488D01*
X6913267Y6159488D01*
X6736038Y6424729D01*
X6424729Y6736038D01*
X6058669Y6980631D01*
X5651925Y7149110D01*
X5220128Y7235000D01*
X4779872Y7235000D01*
X4348075Y7149110D01*
X3941331Y6980631D01*
X3575271Y6736038D01*
X3263962Y6424729D01*
X3019369Y6058669D01*
X2850890Y5651925D01*
X2765000Y5220128D01*
X660000Y5220128D01*
X660000Y9530000D01*
X11421928Y9530000D01*
X11421928Y7930000D01*
X11434188Y7805518D01*
X11470498Y7685820D01*
X11529463Y7575506D01*
X11608815Y7478815D01*
X11705506Y7399463D01*
X11815820Y7340498D01*
X11935518Y7304188D01*
X12060000Y7291928D01*
X12067215Y7291928D01*
X12046903Y7222702D01*
X12860000Y6409605D01*
X13673097Y7222702D01*
X13652785Y7291928D01*
X13660000Y7291928D01*
X13784482Y7304188D01*
X13904180Y7340498D01*
X14014494Y7399463D01*
X14111185Y7478815D01*
X14190537Y7575506D01*
X14249502Y7685820D01*
X14285812Y7805518D01*
X14298072Y7930000D01*
X14298072Y9530000D01*
X14285812Y9654482D01*
X14249502Y9774180D01*
X14229842Y9810961D01*
X28648096Y9810961D01*
X28665633Y9728182D01*
X28776285Y9468354D01*
X28935500Y9235105D01*
X29137161Y9037399D01*
X29373517Y8882834D01*
X29635486Y8777350D01*
X29913000Y8725000D01*
X30313000Y8725000D01*
X30313000Y10033000D01*
X30567000Y10033000D01*
X30567000Y8725000D01*
X30967000Y8725000D01*
X31244514Y8777350D01*
X31506483Y8882834D01*
X31742839Y9037399D01*
X31944500Y9235105D01*
X32103715Y9468354D01*
X32214367Y9728182D01*
X32231904Y9810961D01*
X32458096Y9810961D01*
X32475633Y9728182D01*
X32586285Y9468354D01*
X32745500Y9235105D01*
X32947161Y9037399D01*
X33183517Y8882834D01*
X33445486Y8777350D01*
X33723000Y8725000D01*
X34123000Y8725000D01*
X34123000Y10033000D01*
X34377000Y10033000D01*
X34377000Y8725000D01*
X34777000Y8725000D01*
X35054514Y8777350D01*
X35316483Y8882834D01*
X35552839Y9037399D01*
X35754500Y9235105D01*
X35913715Y9468354D01*
X36024367Y9728182D01*
X36041904Y9810961D01*
X35919915Y10033000D01*
X34377000Y10033000D01*
X34123000Y10033000D01*
X32580085Y10033000D01*
X32458096Y9810961D01*
X32231904Y9810961D01*
X32109915Y10033000D01*
X30567000Y10033000D01*
X30313000Y10033000D01*
X28770085Y10033000D01*
X28648096Y9810961D01*
X14229842Y9810961D01*
X14190537Y9884494D01*
X14111185Y9981185D01*
X14014494Y10060537D01*
X13904180Y10119502D01*
X13784482Y10155812D01*
X13660000Y10168072D01*
X12060000Y10168072D01*
X11935518Y10155812D01*
X11815820Y10119502D01*
X11705506Y10060537D01*
X11608815Y9981185D01*
X11529463Y9884494D01*
X11470498Y9774180D01*
X11434188Y9654482D01*
X11421928Y9530000D01*
X660000Y9530000D01*
X660000Y71266260D01*
X5500000Y71266260D01*
X5500000Y70973740D01*
X5557068Y70686842D01*
X5669010Y70416589D01*
X5831525Y70173368D01*
X6038368Y69966525D01*
X6212760Y69850000D01*
X6038368Y69733475D01*
X5831525Y69526632D01*
X5669010Y69283411D01*
X5557068Y69013158D01*
X5500000Y68726260D01*
X5500000Y68433740D01*
X5557068Y68146842D01*
X5669010Y67876589D01*
X5831525Y67633368D01*
X6038368Y67426525D01*
X6212760Y67310000D01*
X6038368Y67193475D01*
X5831525Y66986632D01*
X5669010Y66743411D01*
X5557068Y66473158D01*
X5500000Y66186260D01*
X5500000Y65893740D01*
X5557068Y65606842D01*
X5669010Y65336589D01*
X5831525Y65093368D01*
X6038368Y64886525D01*
X6212760Y64770000D01*
X6038368Y64653475D01*
X5831525Y64446632D01*
X5669010Y64203411D01*
X5557068Y63933158D01*
X5500000Y63646260D01*
X5500000Y63353740D01*
X5557068Y63066842D01*
X5669010Y62796589D01*
X5831525Y62553368D01*
X6038368Y62346525D01*
X6212760Y62230000D01*
X6038368Y62113475D01*
X5831525Y61906632D01*
X5669010Y61663411D01*
X5557068Y61393158D01*
X5500000Y61106260D01*
X5500000Y60813740D01*
X5557068Y60526842D01*
X5669010Y60256589D01*
X5831525Y60013368D01*
X6038368Y59806525D01*
X6212760Y59690000D01*
X6038368Y59573475D01*
X5831525Y59366632D01*
X5669010Y59123411D01*
X5557068Y58853158D01*
X5500000Y58566260D01*
X5500000Y58273740D01*
X5557068Y57986842D01*
X5669010Y57716589D01*
X5831525Y57473368D01*
X6038368Y57266525D01*
X6212760Y57150000D01*
X6038368Y57033475D01*
X5831525Y56826632D01*
X5669010Y56583411D01*
X5557068Y56313158D01*
X5500000Y56026260D01*
X5500000Y55733740D01*
X5557068Y55446842D01*
X5669010Y55176589D01*
X5831525Y54933368D01*
X6038368Y54726525D01*
X6212760Y54610000D01*
X6038368Y54493475D01*
X5831525Y54286632D01*
X5669010Y54043411D01*
X5557068Y53773158D01*
X5500000Y53486260D01*
X5500000Y53193740D01*
X5557068Y52906842D01*
X5669010Y52636589D01*
X5831525Y52393368D01*
X6038368Y52186525D01*
X6212760Y52070000D01*
X6038368Y51953475D01*
X5831525Y51746632D01*
X5669010Y51503411D01*
X5557068Y51233158D01*
X5500000Y50946260D01*
X5500000Y50653740D01*
X5557068Y50366842D01*
X5669010Y50096589D01*
X5831525Y49853368D01*
X6038368Y49646525D01*
X6212760Y49530000D01*
X6038368Y49413475D01*
X5831525Y49206632D01*
X5669010Y48963411D01*
X5557068Y48693158D01*
X5500000Y48406260D01*
X5500000Y48113740D01*
X5557068Y47826842D01*
X5669010Y47556589D01*
X5831525Y47313368D01*
X6038368Y47106525D01*
X6212760Y46990000D01*
X6038368Y46873475D01*
X5831525Y46666632D01*
X5669010Y46423411D01*
X5557068Y46153158D01*
X5500000Y45866260D01*
X5500000Y45573740D01*
X5557068Y45286842D01*
X5669010Y45016589D01*
X5831525Y44773368D01*
X6038368Y44566525D01*
X6212760Y44450000D01*
X6038368Y44333475D01*
X5831525Y44126632D01*
X5669010Y43883411D01*
X5557068Y43613158D01*
X5500000Y43326260D01*
X5500000Y43033740D01*
X5557068Y42746842D01*
X5669010Y42476589D01*
X5831525Y42233368D01*
X6038368Y42026525D01*
X6212760Y41910000D01*
X6038368Y41793475D01*
X5831525Y41586632D01*
X5669010Y41343411D01*
X5557068Y41073158D01*
X5500000Y40786260D01*
X5500000Y40493740D01*
X5557068Y40206842D01*
X5669010Y39936589D01*
X5831525Y39693368D01*
X6038368Y39486525D01*
X6212760Y39370000D01*
X6038368Y39253475D01*
X5831525Y39046632D01*
X5669010Y38803411D01*
X5557068Y38533158D01*
X5500000Y38246260D01*
X5500000Y37953740D01*
X5557068Y37666842D01*
X5669010Y37396589D01*
X5831525Y37153368D01*
X6038368Y36946525D01*
X6212760Y36830000D01*
X6038368Y36713475D01*
X5831525Y36506632D01*
X5669010Y36263411D01*
X5557068Y35993158D01*
X5500000Y35706260D01*
X5500000Y35413740D01*
X5557068Y35126842D01*
X5669010Y34856589D01*
X5831525Y34613368D01*
X6038368Y34406525D01*
X6212760Y34290000D01*
X6038368Y34173475D01*
X5831525Y33966632D01*
X5669010Y33723411D01*
X5557068Y33453158D01*
X5500000Y33166260D01*
X5500000Y32873740D01*
X5557068Y32586842D01*
X5669010Y32316589D01*
X5831525Y32073368D01*
X6038368Y31866525D01*
X6212760Y31750000D01*
X6038368Y31633475D01*
X5831525Y31426632D01*
X5669010Y31183411D01*
X5557068Y30913158D01*
X5500000Y30626260D01*
X5500000Y30333740D01*
X5557068Y30046842D01*
X5669010Y29776589D01*
X5831525Y29533368D01*
X6038368Y29326525D01*
X6212760Y29210000D01*
X6038368Y29093475D01*
X5831525Y28886632D01*
X5669010Y28643411D01*
X5557068Y28373158D01*
X5500000Y28086260D01*
X5500000Y27793740D01*
X5557068Y27506842D01*
X5669010Y27236589D01*
X5831525Y26993368D01*
X6038368Y26786525D01*
X6212760Y26670000D01*
X6038368Y26553475D01*
X5831525Y26346632D01*
X5669010Y26103411D01*
X5557068Y25833158D01*
X5500000Y25546260D01*
X5500000Y25253740D01*
X5557068Y24966842D01*
X5669010Y24696589D01*
X5831525Y24453368D01*
X6038368Y24246525D01*
X6212760Y24130000D01*
X6038368Y24013475D01*
X5831525Y23806632D01*
X5669010Y23563411D01*
X5557068Y23293158D01*
X5500000Y23006260D01*
X5500000Y22713740D01*
X5557068Y22426842D01*
X5669010Y22156589D01*
X5831525Y21913368D01*
X6038368Y21706525D01*
X6212760Y21590000D01*
X6038368Y21473475D01*
X5831525Y21266632D01*
X5669010Y21023411D01*
X5557068Y20753158D01*
X5500000Y20466260D01*
X5500000Y20173740D01*
X5557068Y19886842D01*
X5669010Y19616589D01*
X5831525Y19373368D01*
X6038368Y19166525D01*
X6212760Y19050000D01*
X6038368Y18933475D01*
X5831525Y18726632D01*
X5669010Y18483411D01*
X5557068Y18213158D01*
X5500000Y17926260D01*
X5500000Y17633740D01*
X5557068Y17346842D01*
X5669010Y17076589D01*
X5831525Y16833368D01*
X6038368Y16626525D01*
X6212760Y16510000D01*
X6038368Y16393475D01*
X5831525Y16186632D01*
X5669010Y15943411D01*
X5557068Y15673158D01*
X5500000Y15386260D01*
X5500000Y15093740D01*
X5557068Y14806842D01*
X5669010Y14536589D01*
X5831525Y14293368D01*
X6038368Y14086525D01*
X6281589Y13924010D01*
X6551842Y13812068D01*
X6838740Y13755000D01*
X7131260Y13755000D01*
X7418158Y13812068D01*
X7688411Y13924010D01*
X7931632Y14086525D01*
X8063487Y14218380D01*
X8085498Y14145820D01*
X8144463Y14035506D01*
X8223815Y13938815D01*
X8320506Y13859463D01*
X8430820Y13800498D01*
X8550518Y13764188D01*
X8675000Y13751928D01*
X10375000Y13751928D01*
X10499482Y13764188D01*
X10619180Y13800498D01*
X10729494Y13859463D01*
X10826185Y13938815D01*
X10905537Y14035506D01*
X10964502Y14145820D01*
X11000812Y14265518D01*
X11013072Y14390000D01*
X11013072Y15890200D01*
X12263795Y15890200D01*
X12299900Y15886644D01*
X12336005Y15890200D01*
X12443985Y15900835D01*
X12582533Y15942863D01*
X12710220Y16011113D01*
X12822138Y16102962D01*
X12845158Y16131012D01*
X13499520Y16785373D01*
X13658368Y16626525D01*
X13832760Y16510000D01*
X13658368Y16393475D01*
X13451525Y16186632D01*
X13289010Y15943411D01*
X13177068Y15673158D01*
X13120000Y15386260D01*
X13120000Y15093740D01*
X13177068Y14806842D01*
X13289010Y14536589D01*
X13451525Y14293368D01*
X13658368Y14086525D01*
X13901589Y13924010D01*
X14171842Y13812068D01*
X14458740Y13755000D01*
X14751260Y13755000D01*
X15038158Y13812068D01*
X15308411Y13924010D01*
X15551632Y14086525D01*
X15683487Y14218380D01*
X15705498Y14145820D01*
X15764463Y14035506D01*
X15843815Y13938815D01*
X15940506Y13859463D01*
X16050820Y13800498D01*
X16170518Y13764188D01*
X16295000Y13751928D01*
X17995000Y13751928D01*
X18119482Y13764188D01*
X18239180Y13800498D01*
X18349494Y13859463D01*
X18446185Y13938815D01*
X18525537Y14035506D01*
X18584502Y14145820D01*
X18620812Y14265518D01*
X18633072Y14390000D01*
X18633072Y16090000D01*
X18620812Y16214482D01*
X18584502Y16334180D01*
X18525537Y16444494D01*
X18446185Y16541185D01*
X18349494Y16620537D01*
X18239180Y16679502D01*
X18166620Y16701513D01*
X18298475Y16833368D01*
X18460990Y17076589D01*
X18572932Y17346842D01*
X18630000Y17633740D01*
X18630000Y17926260D01*
X18572932Y18213158D01*
X18460990Y18483411D01*
X18298475Y18726632D01*
X18091632Y18933475D01*
X17917240Y19050000D01*
X18091632Y19166525D01*
X18250480Y19325373D01*
X22830046Y14745807D01*
X22853062Y14717762D01*
X22964980Y14625913D01*
X23092667Y14557663D01*
X23231215Y14515635D01*
X23375300Y14501444D01*
X23411405Y14505000D01*
X28805736Y14505000D01*
X28841068Y14438899D01*
X29020392Y14220392D01*
X29238899Y14041068D01*
X29371858Y13970000D01*
X29238899Y13898932D01*
X29020392Y13719608D01*
X28841068Y13501101D01*
X28707818Y13251808D01*
X28625764Y12981309D01*
X28598057Y12700000D01*
X28625764Y12418691D01*
X28707818Y12148192D01*
X28841068Y11898899D01*
X29020392Y11680392D01*
X29238899Y11501068D01*
X29366741Y11432735D01*
X29137161Y11282601D01*
X28935500Y11084895D01*
X28776285Y10851646D01*
X28665633Y10591818D01*
X28648096Y10509039D01*
X28770085Y10287000D01*
X30313000Y10287000D01*
X30313000Y10307000D01*
X30567000Y10307000D01*
X30567000Y10287000D01*
X32109915Y10287000D01*
X32231904Y10509039D01*
X32214367Y10591818D01*
X32103715Y10851646D01*
X31944500Y11084895D01*
X31742839Y11282601D01*
X31513259Y11432735D01*
X31641101Y11501068D01*
X31859608Y11680392D01*
X32038932Y11898899D01*
X32074264Y11965000D01*
X32615736Y11965000D01*
X32651068Y11898899D01*
X32830392Y11680392D01*
X33048899Y11501068D01*
X33176741Y11432735D01*
X32947161Y11282601D01*
X32745500Y11084895D01*
X32586285Y10851646D01*
X32475633Y10591818D01*
X32458096Y10509039D01*
X32580085Y10287000D01*
X34123000Y10287000D01*
X34123000Y10307000D01*
X34377000Y10307000D01*
X34377000Y10287000D01*
X35919915Y10287000D01*
X36041904Y10509039D01*
X36024367Y10591818D01*
X35913715Y10851646D01*
X35754500Y11084895D01*
X35552839Y11282601D01*
X35323259Y11432735D01*
X35451101Y11501068D01*
X35669608Y11680392D01*
X35848932Y11898899D01*
X35982182Y12148192D01*
X36064236Y12418691D01*
X36091943Y12700000D01*
X36064236Y12981309D01*
X35982182Y13251808D01*
X35848932Y13501101D01*
X35669608Y13719608D01*
X35451101Y13898932D01*
X35318142Y13970000D01*
X35451101Y14041068D01*
X35669608Y14220392D01*
X35848932Y14438899D01*
X35982182Y14688192D01*
X36064236Y14958691D01*
X36091943Y15240000D01*
X36064236Y15521309D01*
X35982182Y15791808D01*
X35848932Y16041101D01*
X35669608Y16259608D01*
X35451101Y16438932D01*
X35318142Y16510000D01*
X35449853Y16580401D01*
X39824446Y12205807D01*
X39847462Y12177762D01*
X39959380Y12085913D01*
X40087067Y12017663D01*
X40183586Y11988384D01*
X40225614Y11975635D01*
X40230298Y11975174D01*
X40271068Y11898899D01*
X40450392Y11680392D01*
X40668899Y11501068D01*
X40801858Y11430000D01*
X40668899Y11358932D01*
X40450392Y11179608D01*
X40271068Y10961101D01*
X40137818Y10711808D01*
X40055764Y10441309D01*
X40028057Y10160000D01*
X40055764Y9878691D01*
X40137818Y9608192D01*
X40271068Y9358899D01*
X40450392Y9140392D01*
X40668899Y8961068D01*
X40918192Y8827818D01*
X41188691Y8745764D01*
X41399508Y8725000D01*
X42340492Y8725000D01*
X42551309Y8745764D01*
X42821808Y8827818D01*
X43071101Y8961068D01*
X43289608Y9140392D01*
X43468932Y9358899D01*
X43504264Y9425000D01*
X44045736Y9425000D01*
X44081068Y9358899D01*
X44260392Y9140392D01*
X44478899Y8961068D01*
X44728192Y8827818D01*
X44998691Y8745764D01*
X45209508Y8725000D01*
X46150492Y8725000D01*
X46361309Y8745764D01*
X46631808Y8827818D01*
X46881101Y8961068D01*
X47099608Y9140392D01*
X47278932Y9358899D01*
X47412182Y9608192D01*
X47494236Y9878691D01*
X47521943Y10160000D01*
X47494236Y10441309D01*
X47412182Y10711808D01*
X47278932Y10961101D01*
X47099608Y11179608D01*
X46881101Y11358932D01*
X46748142Y11430000D01*
X46881101Y11501068D01*
X47099608Y11680392D01*
X47278932Y11898899D01*
X47412182Y12148192D01*
X47494236Y12418691D01*
X47521943Y12700000D01*
X47494236Y12981309D01*
X47412182Y13251808D01*
X47278932Y13501101D01*
X47099608Y13719608D01*
X46881101Y13898932D01*
X46748142Y13970000D01*
X46881101Y14041068D01*
X47099608Y14220392D01*
X47278932Y14438899D01*
X47412182Y14688192D01*
X47494236Y14958691D01*
X47521943Y15240000D01*
X47494236Y15521309D01*
X47412182Y15791808D01*
X47278932Y16041101D01*
X47099608Y16259608D01*
X46881101Y16438932D01*
X46748142Y16510000D01*
X46881101Y16581068D01*
X47099608Y16760392D01*
X47278932Y16978899D01*
X47412182Y17228192D01*
X47494236Y17498691D01*
X47521943Y17780000D01*
X47494236Y18061309D01*
X47412182Y18331808D01*
X47278932Y18581101D01*
X47099608Y18799608D01*
X46881101Y18978932D01*
X46748142Y19050000D01*
X46881101Y19121068D01*
X47099608Y19300392D01*
X47278932Y19518899D01*
X47412182Y19768192D01*
X47494236Y20038691D01*
X47521943Y20320000D01*
X47494236Y20601309D01*
X47412182Y20871808D01*
X47278932Y21121101D01*
X47099608Y21339608D01*
X46881101Y21518932D01*
X46748142Y21590000D01*
X46881101Y21661068D01*
X47099608Y21840392D01*
X47278932Y22058899D01*
X47412182Y22308192D01*
X47494236Y22578691D01*
X47521943Y22860000D01*
X47494236Y23141309D01*
X47412182Y23411808D01*
X47278932Y23661101D01*
X47148806Y23819660D01*
X47674493Y24345346D01*
X47702538Y24368362D01*
X47794387Y24480280D01*
X47862637Y24607967D01*
X47904665Y24746515D01*
X47915300Y24854495D01*
X47918856Y24890600D01*
X47915300Y24926705D01*
X47915300Y32983896D01*
X47918856Y33020000D01*
X47904665Y33164085D01*
X47862637Y33302633D01*
X47794387Y33430320D01*
X47702538Y33542238D01*
X47590620Y33634087D01*
X47462933Y33702337D01*
X47324385Y33744365D01*
X47319702Y33744826D01*
X47278932Y33821101D01*
X47099608Y34039608D01*
X46881101Y34218932D01*
X46748142Y34290000D01*
X46881101Y34361068D01*
X47099608Y34540392D01*
X47278932Y34758899D01*
X47412182Y35008192D01*
X47494236Y35278691D01*
X47521943Y35560000D01*
X47494236Y35841309D01*
X47412182Y36111808D01*
X47278932Y36361101D01*
X47099608Y36579608D01*
X46881101Y36758932D01*
X46748142Y36830000D01*
X46881101Y36901068D01*
X47099608Y37080392D01*
X47278932Y37298899D01*
X47412182Y37548192D01*
X47494236Y37818691D01*
X47521943Y38100000D01*
X47494236Y38381309D01*
X47412182Y38651808D01*
X47278932Y38901101D01*
X47099608Y39119608D01*
X46881101Y39298932D01*
X46748142Y39370000D01*
X46881101Y39441068D01*
X47099608Y39620392D01*
X47278932Y39838899D01*
X47412182Y40088192D01*
X47494236Y40358691D01*
X47521943Y40640000D01*
X47494236Y40921309D01*
X47412182Y41191808D01*
X47278932Y41441101D01*
X47099608Y41659608D01*
X46881101Y41838932D01*
X46748142Y41910000D01*
X46881101Y41981068D01*
X47099608Y42160392D01*
X47278932Y42378899D01*
X47412182Y42628192D01*
X47494236Y42898691D01*
X47521943Y43180000D01*
X47494236Y43461309D01*
X47412182Y43731808D01*
X47278932Y43981101D01*
X47099608Y44199608D01*
X46881101Y44378932D01*
X46631808Y44512182D01*
X46361309Y44594236D01*
X46150492Y44615000D01*
X45209508Y44615000D01*
X44998691Y44594236D01*
X44728192Y44512182D01*
X44478899Y44378932D01*
X44260392Y44199608D01*
X44081068Y43981101D01*
X43947818Y43731808D01*
X43865764Y43461309D01*
X43838057Y43180000D01*
X43865764Y42898691D01*
X43947818Y42628192D01*
X44081068Y42378899D01*
X44260392Y42160392D01*
X44478899Y41981068D01*
X44611858Y41910000D01*
X44478899Y41838932D01*
X44260392Y41659608D01*
X44081068Y41441101D01*
X44045736Y41375000D01*
X43504264Y41375000D01*
X43468932Y41441101D01*
X43289608Y41659608D01*
X43071101Y41838932D01*
X42938142Y41910000D01*
X43071101Y41981068D01*
X43289608Y42160392D01*
X43468932Y42378899D01*
X43602182Y42628192D01*
X43684236Y42898691D01*
X43711943Y43180000D01*
X43684236Y43461309D01*
X43602182Y43731808D01*
X43468932Y43981101D01*
X43289608Y44199608D01*
X43071101Y44378932D01*
X42821808Y44512182D01*
X42551309Y44594236D01*
X42340492Y44615000D01*
X41804446Y44615000D01*
X44713897Y47524451D01*
X44741937Y47547462D01*
X44764950Y47575503D01*
X44764953Y47575506D01*
X44833786Y47659379D01*
X44833787Y47659380D01*
X44902037Y47787067D01*
X44944065Y47925615D01*
X44954700Y48033595D01*
X44954700Y48033604D01*
X44958255Y48069699D01*
X44954700Y48105794D01*
X44954700Y55126242D01*
X45038691Y55100764D01*
X45249508Y55080000D01*
X46190492Y55080000D01*
X46401309Y55100764D01*
X46671808Y55182818D01*
X46921101Y55316068D01*
X47139608Y55495392D01*
X47318932Y55713899D01*
X47452182Y55963192D01*
X47534236Y56233691D01*
X47561943Y56515000D01*
X47548023Y56656335D01*
X48730000Y56656335D01*
X48730000Y56373665D01*
X48785147Y56096426D01*
X48893320Y55835273D01*
X49050363Y55600241D01*
X49250241Y55400363D01*
X49485273Y55243320D01*
X49746426Y55135147D01*
X50023665Y55080000D01*
X50306335Y55080000D01*
X50583574Y55135147D01*
X50844727Y55243320D01*
X51079759Y55400363D01*
X51279637Y55600241D01*
X51436680Y55835273D01*
X51544853Y56096426D01*
X51600000Y56373665D01*
X51600000Y56656335D01*
X51544853Y56933574D01*
X51436680Y57194727D01*
X51279637Y57429759D01*
X51079759Y57629637D01*
X50844727Y57786680D01*
X50583574Y57894853D01*
X50306335Y57950000D01*
X50023665Y57950000D01*
X49746426Y57894853D01*
X49485273Y57786680D01*
X49250241Y57629637D01*
X49050363Y57429759D01*
X48893320Y57194727D01*
X48785147Y56933574D01*
X48730000Y56656335D01*
X47548023Y56656335D01*
X47534236Y56796309D01*
X47452182Y57066808D01*
X47318932Y57316101D01*
X47139608Y57534608D01*
X46921101Y57713932D01*
X46788142Y57785000D01*
X46921101Y57856068D01*
X47139608Y58035392D01*
X47318932Y58253899D01*
X47452182Y58503192D01*
X47534236Y58773691D01*
X47561943Y59055000D01*
X47534236Y59336309D01*
X47452182Y59606808D01*
X47318932Y59856101D01*
X47139608Y60074608D01*
X46921101Y60253932D01*
X46788142Y60325000D01*
X46921101Y60396068D01*
X47139608Y60575392D01*
X47318932Y60793899D01*
X47452182Y61043192D01*
X47534236Y61313691D01*
X47561943Y61595000D01*
X47534236Y61876309D01*
X47452182Y62146808D01*
X47318932Y62396101D01*
X47139608Y62614608D01*
X46921101Y62793932D01*
X46788142Y62865000D01*
X46921101Y62936068D01*
X47139608Y63115392D01*
X47237767Y63235000D01*
X56246928Y63235000D01*
X56259188Y63110518D01*
X56295498Y62990820D01*
X56354463Y62880506D01*
X56433815Y62783815D01*
X56530506Y62704463D01*
X56640820Y62645498D01*
X56659127Y62639944D01*
X56592688Y62573505D01*
X56424701Y62322095D01*
X56308989Y62042743D01*
X56250000Y61746184D01*
X56250000Y61443816D01*
X56308989Y61147257D01*
X56424701Y60867905D01*
X56592688Y60616495D01*
X56806495Y60402688D01*
X57057905Y60234701D01*
X57337257Y60118989D01*
X57633816Y60060000D01*
X57936184Y60060000D01*
X58232743Y60118989D01*
X58512095Y60234701D01*
X58763505Y60402688D01*
X58977312Y60616495D01*
X59145299Y60867905D01*
X59261011Y61147257D01*
X59320000Y61443816D01*
X59320000Y61746184D01*
X59261011Y62042743D01*
X59145299Y62322095D01*
X58977312Y62573505D01*
X58910873Y62639944D01*
X58929180Y62645498D01*
X59039494Y62704463D01*
X59136185Y62783815D01*
X59215537Y62880506D01*
X59274502Y62990820D01*
X59310812Y63110518D01*
X59323072Y63235000D01*
X59320000Y63849250D01*
X59161250Y64008000D01*
X57912000Y64008000D01*
X57912000Y63988000D01*
X57658000Y63988000D01*
X57658000Y64008000D01*
X56408750Y64008000D01*
X56250000Y63849250D01*
X56246928Y63235000D01*
X47237767Y63235000D01*
X47318932Y63333899D01*
X47452182Y63583192D01*
X47534236Y63853691D01*
X47561943Y64135000D01*
X47534236Y64416309D01*
X47452182Y64686808D01*
X47318932Y64936101D01*
X47237768Y65035000D01*
X56246928Y65035000D01*
X56250000Y64420750D01*
X56408750Y64262000D01*
X57658000Y64262000D01*
X57658000Y65511250D01*
X57912000Y65511250D01*
X57912000Y64262000D01*
X59161250Y64262000D01*
X59320000Y64420750D01*
X59323072Y65035000D01*
X59310812Y65159482D01*
X59274502Y65279180D01*
X59215537Y65389494D01*
X59136185Y65486185D01*
X59039494Y65565537D01*
X58929180Y65624502D01*
X58809482Y65660812D01*
X58685000Y65673072D01*
X58070750Y65670000D01*
X57912000Y65511250D01*
X57658000Y65511250D01*
X57499250Y65670000D01*
X56885000Y65673072D01*
X56760518Y65660812D01*
X56640820Y65624502D01*
X56530506Y65565537D01*
X56433815Y65486185D01*
X56354463Y65389494D01*
X56295498Y65279180D01*
X56259188Y65159482D01*
X56246928Y65035000D01*
X47237768Y65035000D01*
X47139608Y65154608D01*
X46921101Y65333932D01*
X46788142Y65405000D01*
X46921101Y65476068D01*
X47139608Y65655392D01*
X47318932Y65873899D01*
X47354264Y65940000D01*
X48930252Y65940000D01*
X49050363Y65760241D01*
X49250241Y65560363D01*
X49485273Y65403320D01*
X49746426Y65295147D01*
X50023665Y65240000D01*
X50306335Y65240000D01*
X50583574Y65295147D01*
X50844727Y65403320D01*
X51079759Y65560363D01*
X51279637Y65760241D01*
X51436680Y65995273D01*
X51544853Y66256426D01*
X51600000Y66533665D01*
X51600000Y66816335D01*
X51544853Y67093574D01*
X51436680Y67354727D01*
X51279637Y67589759D01*
X51079759Y67789637D01*
X50847241Y67945000D01*
X51079759Y68100363D01*
X51279637Y68300241D01*
X51436680Y68535273D01*
X51544853Y68796426D01*
X51600000Y69073665D01*
X51600000Y69356335D01*
X51544853Y69633574D01*
X51436680Y69894727D01*
X51279637Y70129759D01*
X51079759Y70329637D01*
X50844727Y70486680D01*
X50583574Y70594853D01*
X50306335Y70650000D01*
X50023665Y70650000D01*
X49746426Y70594853D01*
X49485273Y70486680D01*
X49250241Y70329637D01*
X49050363Y70129759D01*
X48930252Y69950000D01*
X47354264Y69950000D01*
X47318932Y70016101D01*
X47139608Y70234608D01*
X46921101Y70413932D01*
X46788142Y70485000D01*
X46921101Y70556068D01*
X47139608Y70735392D01*
X47318932Y70953899D01*
X47359702Y71030174D01*
X47364385Y71030635D01*
X47502933Y71072663D01*
X47630620Y71140913D01*
X47742538Y71232762D01*
X47834387Y71344680D01*
X47902637Y71472367D01*
X47944665Y71610915D01*
X47958856Y71755000D01*
X47955300Y71791105D01*
X47955300Y73395000D01*
X56246928Y73395000D01*
X56259188Y73270518D01*
X56295498Y73150820D01*
X56354463Y73040506D01*
X56433815Y72943815D01*
X56530506Y72864463D01*
X56640820Y72805498D01*
X56760518Y72769188D01*
X56885000Y72756928D01*
X57499250Y72760000D01*
X57658000Y72918750D01*
X57658000Y74168000D01*
X57912000Y74168000D01*
X57912000Y72918750D01*
X58070750Y72760000D01*
X58685000Y72756928D01*
X58809482Y72769188D01*
X58929180Y72805498D01*
X59039494Y72864463D01*
X59136185Y72943815D01*
X59215537Y73040506D01*
X59274502Y73150820D01*
X59310812Y73270518D01*
X59323072Y73395000D01*
X59320000Y74009250D01*
X59161250Y74168000D01*
X57912000Y74168000D01*
X57658000Y74168000D01*
X56408750Y74168000D01*
X56250000Y74009250D01*
X56246928Y73395000D01*
X47955300Y73395000D01*
X47955300Y79516335D01*
X48730000Y79516335D01*
X48730000Y79233665D01*
X48785147Y78956426D01*
X48893320Y78695273D01*
X49050363Y78460241D01*
X49250241Y78260363D01*
X49485273Y78103320D01*
X49746426Y77995147D01*
X50023665Y77940000D01*
X50306335Y77940000D01*
X50583574Y77995147D01*
X50844727Y78103320D01*
X51079759Y78260363D01*
X51279637Y78460241D01*
X51399748Y78640000D01*
X54940554Y78640000D01*
X56307134Y77273419D01*
X56250000Y76986184D01*
X56250000Y76683816D01*
X56308989Y76387257D01*
X56424701Y76107905D01*
X56592688Y75856495D01*
X56659127Y75790056D01*
X56640820Y75784502D01*
X56530506Y75725537D01*
X56433815Y75646185D01*
X56354463Y75549494D01*
X56295498Y75439180D01*
X56259188Y75319482D01*
X56246928Y75195000D01*
X56250000Y74580750D01*
X56408750Y74422000D01*
X57658000Y74422000D01*
X57658000Y74442000D01*
X57912000Y74442000D01*
X57912000Y74422000D01*
X59161250Y74422000D01*
X59320000Y74580750D01*
X59323072Y75195000D01*
X59310812Y75319482D01*
X59274502Y75439180D01*
X59215537Y75549494D01*
X59136185Y75646185D01*
X59039494Y75725537D01*
X58929180Y75784502D01*
X58910873Y75790056D01*
X58977312Y75856495D01*
X59145299Y76107905D01*
X59261011Y76387257D01*
X59320000Y76683816D01*
X59320000Y76986184D01*
X59261011Y77282743D01*
X59145299Y77562095D01*
X58977312Y77813505D01*
X58763505Y78027312D01*
X58512095Y78195299D01*
X58232743Y78311011D01*
X57936184Y78370000D01*
X57633816Y78370000D01*
X57346581Y78312866D01*
X55790259Y79869188D01*
X55767238Y79897238D01*
X55655320Y79989087D01*
X55527633Y80057337D01*
X55389085Y80099365D01*
X55281105Y80110000D01*
X55245000Y80113556D01*
X55208895Y80110000D01*
X51399748Y80110000D01*
X51279637Y80289759D01*
X51079759Y80489637D01*
X50844727Y80646680D01*
X50583574Y80754853D01*
X50306335Y80810000D01*
X50023665Y80810000D01*
X49746426Y80754853D01*
X49485273Y80646680D01*
X49250241Y80489637D01*
X49050363Y80289759D01*
X48893320Y80054727D01*
X48785147Y79793574D01*
X48730000Y79516335D01*
X47955300Y79516335D01*
X47955300Y79877904D01*
X47958855Y79914001D01*
X47955300Y79950098D01*
X47955300Y79950105D01*
X47944665Y80058085D01*
X47902637Y80196633D01*
X47834387Y80324320D01*
X47803162Y80362367D01*
X47765553Y80408194D01*
X47765550Y80408197D01*
X47742537Y80436238D01*
X47714497Y80459250D01*
X47202148Y80971598D01*
X47318932Y81113899D01*
X47452182Y81363192D01*
X47534236Y81633691D01*
X47561943Y81915000D01*
X47534236Y82196309D01*
X47452182Y82466808D01*
X47318932Y82716101D01*
X47139608Y82934608D01*
X46921101Y83113932D01*
X46788142Y83185000D01*
X46921101Y83256068D01*
X47139608Y83435392D01*
X47318932Y83653899D01*
X47452182Y83903192D01*
X47534236Y84173691D01*
X47561943Y84455000D01*
X47534236Y84736309D01*
X47452182Y85006808D01*
X47318932Y85256101D01*
X47139608Y85474608D01*
X46921101Y85653932D01*
X46671808Y85787182D01*
X46401309Y85869236D01*
X46190492Y85890000D01*
X45249508Y85890000D01*
X45038691Y85869236D01*
X44768192Y85787182D01*
X44518899Y85653932D01*
X44300392Y85474608D01*
X44121068Y85256101D01*
X43987818Y85006808D01*
X43905764Y84736309D01*
X43878057Y84455000D01*
X43905764Y84173691D01*
X43987818Y83903192D01*
X44121068Y83653899D01*
X44300392Y83435392D01*
X44518899Y83256068D01*
X44651858Y83185000D01*
X44518899Y83113932D01*
X44300392Y82934608D01*
X44121068Y82716101D01*
X43994652Y82479594D01*
X42959959Y83514288D01*
X42936938Y83542338D01*
X42825020Y83634187D01*
X42697333Y83702437D01*
X42558785Y83744465D01*
X42450805Y83755100D01*
X42414700Y83758656D01*
X42378595Y83755100D01*
X39938072Y83755100D01*
X39938072Y85255000D01*
X39925812Y85379482D01*
X39889502Y85499180D01*
X39830537Y85609494D01*
X39751185Y85706185D01*
X39654494Y85785537D01*
X39544180Y85844502D01*
X39424482Y85880812D01*
X39300000Y85893072D01*
X36900000Y85893072D01*
X36775518Y85880812D01*
X36655820Y85844502D01*
X36545506Y85785537D01*
X36448815Y85706185D01*
X36369463Y85609494D01*
X36310498Y85499180D01*
X36274188Y85379482D01*
X36261928Y85255000D01*
X36261928Y83755100D01*
X35736305Y83755100D01*
X35700200Y83758656D01*
X35664095Y83755100D01*
X35556115Y83744465D01*
X35417567Y83702437D01*
X35289880Y83634187D01*
X35177962Y83542338D01*
X35154946Y83514293D01*
X27659500Y76018847D01*
X27639370Y76038977D01*
X27523097Y75922704D01*
X27451514Y76166671D01*
X27196004Y76287571D01*
X26921816Y76356300D01*
X26639488Y76370217D01*
X26359870Y76328787D01*
X26093708Y76233603D01*
X25968486Y76166671D01*
X25896903Y75922702D01*
X26710000Y75109605D01*
X26724143Y75123747D01*
X26903748Y74944142D01*
X26889605Y74930000D01*
X26903748Y74915857D01*
X26724143Y74736252D01*
X26710000Y74750395D01*
X25896903Y73937298D01*
X25968486Y73693329D01*
X26223996Y73572429D01*
X26371347Y73535493D01*
X25808615Y72972761D01*
X25781185Y73006185D01*
X25684494Y73085537D01*
X25574180Y73144502D01*
X25454482Y73180812D01*
X25330000Y73193072D01*
X22930000Y73193072D01*
X22805518Y73180812D01*
X22685820Y73144502D01*
X22575506Y73085537D01*
X22478815Y73006185D01*
X22399463Y72909494D01*
X22340498Y72799180D01*
X22304188Y72679482D01*
X22291928Y72555000D01*
X22291928Y70955000D01*
X22304188Y70830518D01*
X22340498Y70710820D01*
X22399463Y70600506D01*
X22446249Y70543496D01*
X18515226Y66612473D01*
X18460990Y66743411D01*
X18298475Y66986632D01*
X18091632Y67193475D01*
X17917240Y67310000D01*
X18091632Y67426525D01*
X18298475Y67633368D01*
X18460990Y67876589D01*
X18572932Y68146842D01*
X18630000Y68433740D01*
X18630000Y68726260D01*
X18572932Y69013158D01*
X18460990Y69283411D01*
X18298475Y69526632D01*
X18091632Y69733475D01*
X17917240Y69850000D01*
X18091632Y69966525D01*
X18298475Y70173368D01*
X18460990Y70416589D01*
X18572932Y70686842D01*
X18630000Y70973740D01*
X18630000Y71266260D01*
X18572932Y71553158D01*
X18460990Y71823411D01*
X18298475Y72066632D01*
X18091632Y72273475D01*
X17917240Y72390000D01*
X18091632Y72506525D01*
X18298475Y72713368D01*
X18460990Y72956589D01*
X18572932Y73226842D01*
X18630000Y73513740D01*
X18630000Y73806260D01*
X18572932Y74093158D01*
X18460990Y74363411D01*
X18298475Y74606632D01*
X18091632Y74813475D01*
X18022769Y74859488D01*
X25269783Y74859488D01*
X25311213Y74579870D01*
X25406397Y74313708D01*
X25473329Y74188486D01*
X25717298Y74116903D01*
X26530395Y74930000D01*
X25717298Y75743097D01*
X25473329Y75671514D01*
X25352429Y75416004D01*
X25283700Y75141816D01*
X25269783Y74859488D01*
X18022769Y74859488D01*
X17917240Y74930000D01*
X18091632Y75046525D01*
X18298475Y75253368D01*
X18460990Y75496589D01*
X18572932Y75766842D01*
X18630000Y76053740D01*
X18630000Y76346260D01*
X18572932Y76633158D01*
X18460990Y76903411D01*
X18298475Y77146632D01*
X18091632Y77353475D01*
X17848411Y77515990D01*
X17578158Y77627932D01*
X17291260Y77685000D01*
X16998740Y77685000D01*
X16711842Y77627932D01*
X16441589Y77515990D01*
X16198368Y77353475D01*
X15991525Y77146632D01*
X15873900Y76970594D01*
X15702588Y77200269D01*
X15486355Y77395178D01*
X15236252Y77544157D01*
X14961891Y77641481D01*
X14732000Y77520814D01*
X14732000Y76327000D01*
X14752000Y76327000D01*
X14752000Y76073000D01*
X14732000Y76073000D01*
X14732000Y73787000D01*
X14752000Y73787000D01*
X14752000Y73533000D01*
X14732000Y73533000D01*
X14732000Y73513000D01*
X14478000Y73513000D01*
X14478000Y73533000D01*
X13284845Y73533000D01*
X13163524Y73303110D01*
X13208175Y73155901D01*
X13276669Y73012100D01*
X11868505Y73012100D01*
X11832400Y73015656D01*
X11688315Y73001465D01*
X11549766Y72959437D01*
X11456330Y72909494D01*
X11422080Y72891187D01*
X11310162Y72799338D01*
X11287146Y72771293D01*
X10630480Y72114627D01*
X10471632Y72273475D01*
X10297240Y72390000D01*
X10471632Y72506525D01*
X10678475Y72713368D01*
X10840990Y72956589D01*
X10952932Y73226842D01*
X11010000Y73513740D01*
X11010000Y73806260D01*
X10952932Y74093158D01*
X10840990Y74363411D01*
X10678475Y74606632D01*
X10471632Y74813475D01*
X10297240Y74930000D01*
X10471632Y75046525D01*
X10678475Y75253368D01*
X10840990Y75496589D01*
X10952932Y75766842D01*
X10968102Y75843110D01*
X13163524Y75843110D01*
X13208175Y75695901D01*
X13333359Y75433080D01*
X13507412Y75199731D01*
X13723645Y75004822D01*
X13849255Y74930000D01*
X13723645Y74855178D01*
X13507412Y74660269D01*
X13333359Y74426920D01*
X13208175Y74164099D01*
X13163524Y74016890D01*
X13284845Y73787000D01*
X14478000Y73787000D01*
X14478000Y76073000D01*
X13284845Y76073000D01*
X13163524Y75843110D01*
X10968102Y75843110D01*
X11010000Y76053740D01*
X11010000Y76346260D01*
X10968103Y76556890D01*
X13163524Y76556890D01*
X13284845Y76327000D01*
X14478000Y76327000D01*
X14478000Y77520814D01*
X14248109Y77641481D01*
X13973748Y77544157D01*
X13723645Y77395178D01*
X13507412Y77200269D01*
X13333359Y76966920D01*
X13208175Y76704099D01*
X13163524Y76556890D01*
X10968103Y76556890D01*
X10952932Y76633158D01*
X10840990Y76903411D01*
X10678475Y77146632D01*
X10471632Y77353475D01*
X10228411Y77515990D01*
X9958158Y77627932D01*
X9671260Y77685000D01*
X9378740Y77685000D01*
X9091842Y77627932D01*
X8821589Y77515990D01*
X8578368Y77353475D01*
X8371525Y77146632D01*
X8253900Y76970594D01*
X8082588Y77200269D01*
X7866355Y77395178D01*
X7616252Y77544157D01*
X7341891Y77641481D01*
X7112000Y77520814D01*
X7112000Y76327000D01*
X7132000Y76327000D01*
X7132000Y76073000D01*
X7112000Y76073000D01*
X7112000Y73787000D01*
X7132000Y73787000D01*
X7132000Y73533000D01*
X7112000Y73533000D01*
X7112000Y73513000D01*
X6858000Y73513000D01*
X6858000Y73533000D01*
X5664845Y73533000D01*
X5543524Y73303110D01*
X5588175Y73155901D01*
X5713359Y72893080D01*
X5887412Y72659731D01*
X6103645Y72464822D01*
X6220534Y72395195D01*
X6038368Y72273475D01*
X5831525Y72066632D01*
X5669010Y71823411D01*
X5557068Y71553158D01*
X5500000Y71266260D01*
X660000Y71266260D01*
X660000Y75843110D01*
X5543524Y75843110D01*
X5588175Y75695901D01*
X5713359Y75433080D01*
X5887412Y75199731D01*
X6103645Y75004822D01*
X6229255Y74930000D01*
X6103645Y74855178D01*
X5887412Y74660269D01*
X5713359Y74426920D01*
X5588175Y74164099D01*
X5543524Y74016890D01*
X5664845Y73787000D01*
X6858000Y73787000D01*
X6858000Y76073000D01*
X5664845Y76073000D01*
X5543524Y75843110D01*
X660000Y75843110D01*
X660000Y76556890D01*
X5543524Y76556890D01*
X5664845Y76327000D01*
X6858000Y76327000D01*
X6858000Y77520814D01*
X6628109Y77641481D01*
X6353748Y77544157D01*
X6103645Y77395178D01*
X5887412Y77200269D01*
X5713359Y76966920D01*
X5588175Y76704099D01*
X5543524Y76556890D01*
X660000Y76556890D01*
X660000Y86220128D01*
X2765000Y86220128D01*
X2765000Y85779872D01*
X2850890Y85348075D01*
X3019369Y84941331D01*
X3263962Y84575271D01*
X3575271Y84263962D01*
X3941331Y84019369D01*
X4348075Y83850890D01*
X4779872Y83765000D01*
X5220128Y83765000D01*
X5651925Y83850890D01*
X6058669Y84019369D01*
X6424729Y84263962D01*
X6736038Y84575271D01*
X6980631Y84941331D01*
X7149110Y85348075D01*
X7235000Y85779872D01*
X7235000Y86220128D01*
X7152020Y86637298D01*
X39866903Y86637298D01*
X39938486Y86393329D01*
X40193996Y86272429D01*
X40468184Y86203700D01*
X40750512Y86189783D01*
X41030130Y86231213D01*
X41296292Y86326397D01*
X41421514Y86393329D01*
X41493097Y86637298D01*
X40680000Y87450395D01*
X39866903Y86637298D01*
X7152020Y86637298D01*
X7149110Y86651925D01*
X6980631Y87058669D01*
X6736038Y87424729D01*
X6601279Y87559488D01*
X39239783Y87559488D01*
X39281213Y87279870D01*
X39376397Y87013708D01*
X39443329Y86888486D01*
X39687298Y86816903D01*
X40500395Y87630000D01*
X40859605Y87630000D01*
X41672702Y86816903D01*
X41916671Y86888486D01*
X41930324Y86917341D01*
X42065363Y86715241D01*
X42265241Y86515363D01*
X42500273Y86358320D01*
X42761426Y86250147D01*
X43038665Y86195000D01*
X43321335Y86195000D01*
X43447660Y86220128D01*
X55265000Y86220128D01*
X55265000Y85779872D01*
X55350890Y85348075D01*
X55519369Y84941331D01*
X55763962Y84575271D01*
X56075271Y84263962D01*
X56441331Y84019369D01*
X56848075Y83850890D01*
X57279872Y83765000D01*
X57720128Y83765000D01*
X58151925Y83850890D01*
X58558669Y84019369D01*
X58924729Y84263962D01*
X59236038Y84575271D01*
X59480631Y84941331D01*
X59649110Y85348075D01*
X59735000Y85779872D01*
X59735000Y86220128D01*
X59649110Y86651925D01*
X59480631Y87058669D01*
X59236038Y87424729D01*
X58924729Y87736038D01*
X58558669Y87980631D01*
X58151925Y88149110D01*
X57720128Y88235000D01*
X57279872Y88235000D01*
X56848075Y88149110D01*
X56441331Y87980631D01*
X56075271Y87736038D01*
X55763962Y87424729D01*
X55519369Y87058669D01*
X55350890Y86651925D01*
X55265000Y86220128D01*
X43447660Y86220128D01*
X43598574Y86250147D01*
X43859727Y86358320D01*
X44094759Y86515363D01*
X44294637Y86715241D01*
X44451680Y86950273D01*
X44559853Y87211426D01*
X44615000Y87488665D01*
X44615000Y87771335D01*
X44559853Y88048574D01*
X44451680Y88309727D01*
X44294637Y88544759D01*
X44094759Y88744637D01*
X43859727Y88901680D01*
X43598574Y89009853D01*
X43321335Y89065000D01*
X43038665Y89065000D01*
X42761426Y89009853D01*
X42500273Y88901680D01*
X42265241Y88744637D01*
X42065363Y88544759D01*
X41931308Y88344131D01*
X41916671Y88371514D01*
X41672702Y88443097D01*
X40859605Y87630000D01*
X40500395Y87630000D01*
X39687298Y88443097D01*
X39443329Y88371514D01*
X39322429Y88116004D01*
X39253700Y87841816D01*
X39239783Y87559488D01*
X6601279Y87559488D01*
X6424729Y87736038D01*
X6058669Y87980631D01*
X5651925Y88149110D01*
X5220128Y88235000D01*
X4779872Y88235000D01*
X4348075Y88149110D01*
X3941331Y87980631D01*
X3575271Y87736038D01*
X3263962Y87424729D01*
X3019369Y87058669D01*
X2850890Y86651925D01*
X2765000Y86220128D01*
X660000Y86220128D01*
X660000Y88622702D01*
X39866903Y88622702D01*
X40680000Y87809605D01*
X41493097Y88622702D01*
X41421514Y88866671D01*
X41166004Y88987571D01*
X40891816Y89056300D01*
X40609488Y89070217D01*
X40329870Y89028787D01*
X40063708Y88933603D01*
X39938486Y88866671D01*
X39866903Y88622702D01*
X660000Y88622702D01*
X660000Y90340000D01*
X61840001Y90340000D01*
X61840000Y660000D01*
G37*
G04 #@! TD.AperFunction*
D22*
X39634701Y31113252D02*
X39634700Y30516106D01*
X39631144Y30480000D01*
X39645335Y30335915D01*
X39687363Y30197367D01*
X39755613Y30069680D01*
X39847462Y29957762D01*
X39927184Y29892336D01*
X39959380Y29865913D01*
X40087067Y29797663D01*
X40225615Y29755635D01*
X40230298Y29755174D01*
X40271068Y29678899D01*
X40450392Y29460392D01*
X40668899Y29281068D01*
X40796741Y29212735D01*
X40567161Y29062601D01*
X40365500Y28864895D01*
X40206285Y28631646D01*
X40095633Y28371818D01*
X40078096Y28289039D01*
X40200085Y28067000D01*
X41743000Y28067000D01*
X41743000Y28087000D01*
X41997000Y28087000D01*
X41997000Y28067000D01*
X43539915Y28067000D01*
X43661904Y28289039D01*
X43644367Y28371818D01*
X43533715Y28631646D01*
X43374500Y28864895D01*
X43172839Y29062601D01*
X42943259Y29212735D01*
X43071101Y29281068D01*
X43289608Y29460392D01*
X43468932Y29678899D01*
X43504264Y29745000D01*
X44045736Y29745000D01*
X44081068Y29678899D01*
X44260392Y29460392D01*
X44478899Y29281068D01*
X44606741Y29212735D01*
X44377161Y29062601D01*
X44175500Y28864895D01*
X44016285Y28631646D01*
X43905633Y28371818D01*
X43888096Y28289039D01*
X44010085Y28067000D01*
X45553000Y28067000D01*
X45553000Y28087000D01*
X45807000Y28087000D01*
X45807000Y28067000D01*
X45827000Y28067000D01*
X45827000Y27813000D01*
X45807000Y27813000D01*
X45807000Y27793000D01*
X45553000Y27793000D01*
X45553000Y27813000D01*
X44010085Y27813000D01*
X43888096Y27590961D01*
X43905633Y27508182D01*
X44016285Y27248354D01*
X44175500Y27015105D01*
X44377161Y26817399D01*
X44606741Y26667265D01*
X44478899Y26598932D01*
X44260392Y26419608D01*
X44081068Y26201101D01*
X44045736Y26135000D01*
X43504264Y26135000D01*
X43468932Y26201101D01*
X43289608Y26419608D01*
X43071101Y26598932D01*
X42943259Y26667265D01*
X43172839Y26817399D01*
X43374500Y27015105D01*
X43533715Y27248354D01*
X43644367Y27508182D01*
X43661904Y27590961D01*
X43539915Y27813000D01*
X41997000Y27813000D01*
X41997000Y27793000D01*
X41743000Y27793000D01*
X41743000Y27813000D01*
X40200085Y27813000D01*
X40105680Y27641167D01*
X35704247Y32042599D01*
X35848932Y32218899D01*
X35982182Y32468192D01*
X36064236Y32738691D01*
X36091943Y33020000D01*
X36064236Y33301309D01*
X35982182Y33571808D01*
X35848932Y33821101D01*
X35669608Y34039608D01*
X35451101Y34218932D01*
X35318142Y34290000D01*
X35451101Y34361068D01*
X35669608Y34540392D01*
X35848932Y34758899D01*
X35897741Y34850213D01*
X39634701Y31113252D01*
G04 #@! TA.AperFunction,Conductor*
D23*
G36*
X39634701Y31113252D02*
G01*
X39634700Y30516106D01*
X39631144Y30480000D01*
X39645335Y30335915D01*
X39687363Y30197367D01*
X39755613Y30069680D01*
X39847462Y29957762D01*
X39927184Y29892336D01*
X39959380Y29865913D01*
X40087067Y29797663D01*
X40225615Y29755635D01*
X40230298Y29755174D01*
X40271068Y29678899D01*
X40450392Y29460392D01*
X40668899Y29281068D01*
X40796741Y29212735D01*
X40567161Y29062601D01*
X40365500Y28864895D01*
X40206285Y28631646D01*
X40095633Y28371818D01*
X40078096Y28289039D01*
X40200085Y28067000D01*
X41743000Y28067000D01*
X41743000Y28087000D01*
X41997000Y28087000D01*
X41997000Y28067000D01*
X43539915Y28067000D01*
X43661904Y28289039D01*
X43644367Y28371818D01*
X43533715Y28631646D01*
X43374500Y28864895D01*
X43172839Y29062601D01*
X42943259Y29212735D01*
X43071101Y29281068D01*
X43289608Y29460392D01*
X43468932Y29678899D01*
X43504264Y29745000D01*
X44045736Y29745000D01*
X44081068Y29678899D01*
X44260392Y29460392D01*
X44478899Y29281068D01*
X44606741Y29212735D01*
X44377161Y29062601D01*
X44175500Y28864895D01*
X44016285Y28631646D01*
X43905633Y28371818D01*
X43888096Y28289039D01*
X44010085Y28067000D01*
X45553000Y28067000D01*
X45553000Y28087000D01*
X45807000Y28087000D01*
X45807000Y28067000D01*
X45827000Y28067000D01*
X45827000Y27813000D01*
X45807000Y27813000D01*
X45807000Y27793000D01*
X45553000Y27793000D01*
X45553000Y27813000D01*
X44010085Y27813000D01*
X43888096Y27590961D01*
X43905633Y27508182D01*
X44016285Y27248354D01*
X44175500Y27015105D01*
X44377161Y26817399D01*
X44606741Y26667265D01*
X44478899Y26598932D01*
X44260392Y26419608D01*
X44081068Y26201101D01*
X44045736Y26135000D01*
X43504264Y26135000D01*
X43468932Y26201101D01*
X43289608Y26419608D01*
X43071101Y26598932D01*
X42943259Y26667265D01*
X43172839Y26817399D01*
X43374500Y27015105D01*
X43533715Y27248354D01*
X43644367Y27508182D01*
X43661904Y27590961D01*
X43539915Y27813000D01*
X41997000Y27813000D01*
X41997000Y27793000D01*
X41743000Y27793000D01*
X41743000Y27813000D01*
X40200085Y27813000D01*
X40105680Y27641167D01*
X35704247Y32042599D01*
X35848932Y32218899D01*
X35982182Y32468192D01*
X36064236Y32738691D01*
X36091943Y33020000D01*
X36064236Y33301309D01*
X35982182Y33571808D01*
X35848932Y33821101D01*
X35669608Y34039608D01*
X35451101Y34218932D01*
X35318142Y34290000D01*
X35451101Y34361068D01*
X35669608Y34540392D01*
X35848932Y34758899D01*
X35897741Y34850213D01*
X39634701Y31113252D01*
G37*
G04 #@! TD.AperFunction*
D22*
X30086285Y68523354D02*
X30245500Y68290105D01*
X30447161Y68092399D01*
X30676741Y67942265D01*
X30548899Y67873932D01*
X30330392Y67694608D01*
X30151068Y67476101D01*
X30017818Y67226808D01*
X29935764Y66956309D01*
X29908057Y66675000D01*
X29935764Y66393691D01*
X30017818Y66123192D01*
X30151068Y65873899D01*
X30330392Y65655392D01*
X30548899Y65476068D01*
X30676741Y65407735D01*
X30447161Y65257601D01*
X30245500Y65059895D01*
X30086285Y64826646D01*
X29975633Y64566818D01*
X29958096Y64484039D01*
X30080085Y64262000D01*
X31623000Y64262000D01*
X31623000Y64282000D01*
X31877000Y64282000D01*
X31877000Y64262000D01*
X33419915Y64262000D01*
X33541904Y64484039D01*
X33524367Y64566818D01*
X33413715Y64826646D01*
X33254500Y65059895D01*
X33052839Y65257601D01*
X32823259Y65407735D01*
X32951101Y65476068D01*
X33169608Y65655392D01*
X33348932Y65873899D01*
X33482182Y66123192D01*
X33564236Y66393691D01*
X33591943Y66675000D01*
X33564236Y66956309D01*
X33482182Y67226808D01*
X33404575Y67372000D01*
X35455595Y67372000D01*
X35491700Y67368444D01*
X35527805Y67372000D01*
X35635785Y67382635D01*
X35774333Y67424663D01*
X35902020Y67492913D01*
X36013938Y67584762D01*
X36036958Y67612812D01*
X36652962Y68228815D01*
X36680392Y68195392D01*
X36898899Y68016068D01*
X37031858Y67945000D01*
X36898899Y67873932D01*
X36680392Y67694608D01*
X36501068Y67476101D01*
X36367818Y67226808D01*
X36285764Y66956309D01*
X36258057Y66675000D01*
X36285764Y66393691D01*
X36367818Y66123192D01*
X36501068Y65873899D01*
X36680392Y65655392D01*
X36898899Y65476068D01*
X37031858Y65405000D01*
X36898899Y65333932D01*
X36680392Y65154608D01*
X36501068Y64936101D01*
X36367818Y64686808D01*
X36285764Y64416309D01*
X36258057Y64135000D01*
X36285764Y63853691D01*
X36357108Y63618500D01*
X33488304Y63618500D01*
X33524367Y63703182D01*
X33541904Y63785961D01*
X33419915Y64008000D01*
X31877000Y64008000D01*
X31877000Y63988000D01*
X31623000Y63988000D01*
X31623000Y64008000D01*
X30080085Y64008000D01*
X29958096Y63785961D01*
X29963891Y63758609D01*
X29914165Y63768500D01*
X29739835Y63768500D01*
X29568855Y63734490D01*
X29407795Y63667777D01*
X29262845Y63570924D01*
X29139576Y63447655D01*
X29042723Y63302705D01*
X28976010Y63141645D01*
X28942000Y62970665D01*
X28942000Y62796335D01*
X28976010Y62625355D01*
X29042723Y62464295D01*
X29139576Y62319345D01*
X29262845Y62196076D01*
X29407795Y62099223D01*
X29568855Y62032510D01*
X29739835Y61998500D01*
X29914165Y61998500D01*
X29976597Y62010918D01*
X29935764Y61876309D01*
X29908057Y61595000D01*
X29935764Y61313691D01*
X30017818Y61043192D01*
X30151068Y60793899D01*
X30330392Y60575392D01*
X30548899Y60396068D01*
X30676741Y60327735D01*
X30447161Y60177601D01*
X30245500Y59979895D01*
X30086285Y59746646D01*
X29975633Y59486818D01*
X29958096Y59404039D01*
X30080085Y59182000D01*
X31623000Y59182000D01*
X31623000Y59202000D01*
X31877000Y59202000D01*
X31877000Y59182000D01*
X33419915Y59182000D01*
X33541904Y59404039D01*
X33524367Y59486818D01*
X33413715Y59746646D01*
X33254500Y59979895D01*
X33052839Y60177601D01*
X32823259Y60327735D01*
X32951101Y60396068D01*
X33169608Y60575392D01*
X33348932Y60793899D01*
X33482182Y61043192D01*
X33564236Y61313691D01*
X33591943Y61595000D01*
X33564236Y61876309D01*
X33482182Y62146808D01*
X33481278Y62148500D01*
X36368722Y62148500D01*
X36367818Y62146808D01*
X36285764Y61876309D01*
X36258057Y61595000D01*
X36285764Y61313691D01*
X36367818Y61043192D01*
X36501068Y60793899D01*
X36680392Y60575392D01*
X36898899Y60396068D01*
X37031858Y60325000D01*
X36898899Y60253932D01*
X36680392Y60074608D01*
X36501068Y59856101D01*
X36367818Y59606808D01*
X36285764Y59336309D01*
X36258057Y59055000D01*
X36285764Y58773691D01*
X36367818Y58503192D01*
X36501068Y58253899D01*
X36680392Y58035392D01*
X36898899Y57856068D01*
X37026741Y57787735D01*
X36797161Y57637601D01*
X36595500Y57439895D01*
X36436285Y57206646D01*
X36325633Y56946818D01*
X36308096Y56864039D01*
X36430085Y56642000D01*
X37973000Y56642000D01*
X37973000Y56662000D01*
X38227000Y56662000D01*
X38227000Y56642000D01*
X39769915Y56642000D01*
X39891904Y56864039D01*
X39874367Y56946818D01*
X39763715Y57206646D01*
X39604500Y57439895D01*
X39402839Y57637601D01*
X39173259Y57787735D01*
X39301101Y57856068D01*
X39519608Y58035392D01*
X39698932Y58253899D01*
X39832182Y58503192D01*
X39914236Y58773691D01*
X39941943Y59055000D01*
X39914236Y59336309D01*
X39832182Y59606808D01*
X39698932Y59856101D01*
X39519608Y60074608D01*
X39301101Y60253932D01*
X39168142Y60325000D01*
X39301101Y60396068D01*
X39519608Y60575392D01*
X39698932Y60793899D01*
X39832182Y61043192D01*
X39914236Y61313691D01*
X39941943Y61595000D01*
X39914236Y61876309D01*
X39832182Y62146808D01*
X39831278Y62148500D01*
X40086754Y62148500D01*
X43674446Y58560807D01*
X43697462Y58532762D01*
X43725506Y58509747D01*
X43809380Y58440913D01*
X43937066Y58372663D01*
X44075615Y58330635D01*
X44080298Y58330174D01*
X44121068Y58253899D01*
X44300392Y58035392D01*
X44518899Y57856068D01*
X44651858Y57785000D01*
X44518899Y57713932D01*
X44300392Y57534608D01*
X44121068Y57316101D01*
X44080298Y57239826D01*
X44075615Y57239365D01*
X43937067Y57197337D01*
X43809380Y57129087D01*
X43697462Y57037238D01*
X43605613Y56925320D01*
X43537363Y56797633D01*
X43495335Y56659085D01*
X43481144Y56515000D01*
X43484701Y56478885D01*
X43484700Y48374147D01*
X38881808Y43771254D01*
X38853763Y43748238D01*
X38761914Y43636320D01*
X38693664Y43508633D01*
X38651635Y43370085D01*
X38637444Y43226000D01*
X38641001Y43189885D01*
X38641000Y41162153D01*
X38591723Y41088405D01*
X38541644Y40967503D01*
X36963259Y42545887D01*
X36940238Y42573938D01*
X36828320Y42665787D01*
X36700633Y42734037D01*
X36562085Y42776065D01*
X36454105Y42786700D01*
X36418000Y42790256D01*
X36381895Y42786700D01*
X36088072Y42786700D01*
X36088072Y43980000D01*
X36075812Y44104482D01*
X36039502Y44224180D01*
X35980537Y44334494D01*
X35901185Y44431185D01*
X35804494Y44510537D01*
X35694180Y44569502D01*
X35574482Y44605812D01*
X35450000Y44618072D01*
X33050000Y44618072D01*
X32925518Y44605812D01*
X32805820Y44569502D01*
X32695506Y44510537D01*
X32598815Y44431185D01*
X32519463Y44334494D01*
X32460498Y44224180D01*
X32424188Y44104482D01*
X32411928Y43980000D01*
X32411928Y43915000D01*
X32278072Y43915000D01*
X32278072Y43980000D01*
X32265812Y44104482D01*
X32229502Y44224180D01*
X32170537Y44334494D01*
X32091185Y44431185D01*
X31994494Y44510537D01*
X31884180Y44569502D01*
X31764482Y44605812D01*
X31640000Y44618072D01*
X29240000Y44618072D01*
X29115518Y44605812D01*
X28995820Y44569502D01*
X28885506Y44510537D01*
X28788815Y44431185D01*
X28709463Y44334494D01*
X28650498Y44224180D01*
X28614188Y44104482D01*
X28601928Y43980000D01*
X28601928Y43428819D01*
X26668449Y45362298D01*
X36016903Y45362298D01*
X36088486Y45118329D01*
X36343996Y44997429D01*
X36618184Y44928700D01*
X36900512Y44914783D01*
X37180130Y44956213D01*
X37446292Y45051397D01*
X37571514Y45118329D01*
X37643097Y45362298D01*
X36830000Y46175395D01*
X36016903Y45362298D01*
X26668449Y45362298D01*
X25746259Y46284488D01*
X35389783Y46284488D01*
X35431213Y46004870D01*
X35526397Y45738708D01*
X35593329Y45613486D01*
X35837298Y45541903D01*
X36650395Y46355000D01*
X37009605Y46355000D01*
X37822702Y45541903D01*
X38066671Y45613486D01*
X38080324Y45642341D01*
X38215363Y45440241D01*
X38415241Y45240363D01*
X38650273Y45083320D01*
X38911426Y44975147D01*
X39188665Y44920000D01*
X39471335Y44920000D01*
X39748574Y44975147D01*
X40009727Y45083320D01*
X40244759Y45240363D01*
X40444637Y45440241D01*
X40601680Y45675273D01*
X40709853Y45936426D01*
X40765000Y46213665D01*
X40765000Y46496335D01*
X40709853Y46773574D01*
X40601680Y47034727D01*
X40444637Y47269759D01*
X40244759Y47469637D01*
X40009727Y47626680D01*
X39748574Y47734853D01*
X39471335Y47790000D01*
X39188665Y47790000D01*
X38911426Y47734853D01*
X38650273Y47626680D01*
X38415241Y47469637D01*
X38215363Y47269759D01*
X38081308Y47069131D01*
X38066671Y47096514D01*
X37822702Y47168097D01*
X37009605Y46355000D01*
X36650395Y46355000D01*
X35837298Y47168097D01*
X35593329Y47096514D01*
X35472429Y46841004D01*
X35403700Y46566816D01*
X35389783Y46284488D01*
X25746259Y46284488D01*
X24683045Y47347702D01*
X36016903Y47347702D01*
X36830000Y46534605D01*
X37643097Y47347702D01*
X37571514Y47591671D01*
X37316004Y47712571D01*
X37041816Y47781300D01*
X36759488Y47795217D01*
X36479870Y47753787D01*
X36213708Y47658603D01*
X36088486Y47591671D01*
X36016903Y47347702D01*
X24683045Y47347702D01*
X22126159Y49904587D01*
X22103138Y49932638D01*
X21991220Y50024487D01*
X21863533Y50092737D01*
X21724985Y50134765D01*
X21617005Y50145400D01*
X21580900Y50148956D01*
X21544795Y50145400D01*
X18481208Y50145400D01*
X18572932Y50366842D01*
X18630000Y50653740D01*
X18630000Y50674000D01*
X22773495Y50674000D01*
X22809600Y50670444D01*
X22845705Y50674000D01*
X22953685Y50684635D01*
X23092233Y50726663D01*
X23219920Y50794913D01*
X23331838Y50886762D01*
X23354859Y50914813D01*
X29357347Y56917300D01*
X29972466Y56917300D01*
X29935764Y56796309D01*
X29908057Y56515000D01*
X29935764Y56233691D01*
X30017818Y55963192D01*
X30151068Y55713899D01*
X30330392Y55495392D01*
X30548899Y55316068D01*
X30798192Y55182818D01*
X31068691Y55100764D01*
X31279508Y55080000D01*
X32220492Y55080000D01*
X32431309Y55100764D01*
X32701808Y55182818D01*
X32951101Y55316068D01*
X33169608Y55495392D01*
X33348932Y55713899D01*
X33482182Y55963192D01*
X33543690Y56165961D01*
X36308096Y56165961D01*
X36325633Y56083182D01*
X36436285Y55823354D01*
X36595500Y55590105D01*
X36797161Y55392399D01*
X37033517Y55237834D01*
X37295486Y55132350D01*
X37573000Y55080000D01*
X37973000Y55080000D01*
X37973000Y56388000D01*
X38227000Y56388000D01*
X38227000Y55080000D01*
X38627000Y55080000D01*
X38904514Y55132350D01*
X39166483Y55237834D01*
X39402839Y55392399D01*
X39604500Y55590105D01*
X39763715Y55823354D01*
X39874367Y56083182D01*
X39891904Y56165961D01*
X39769915Y56388000D01*
X38227000Y56388000D01*
X37973000Y56388000D01*
X36430085Y56388000D01*
X36308096Y56165961D01*
X33543690Y56165961D01*
X33564236Y56233691D01*
X33591943Y56515000D01*
X33567093Y56767300D01*
X33656765Y56767300D01*
X33827745Y56801310D01*
X33988805Y56868023D01*
X34133755Y56964876D01*
X34257024Y57088145D01*
X34353877Y57233095D01*
X34420590Y57394155D01*
X34454600Y57565135D01*
X34454600Y57739465D01*
X34420590Y57910445D01*
X34353877Y58071505D01*
X34257024Y58216455D01*
X34133755Y58339724D01*
X33988805Y58436577D01*
X33827745Y58503290D01*
X33656765Y58537300D01*
X33487793Y58537300D01*
X33524367Y58623182D01*
X33541904Y58705961D01*
X33419915Y58928000D01*
X31877000Y58928000D01*
X31877000Y58908000D01*
X31623000Y58908000D01*
X31623000Y58928000D01*
X30080085Y58928000D01*
X29958096Y58705961D01*
X29975633Y58623182D01*
X30076087Y58387300D01*
X29089005Y58387300D01*
X29052900Y58390856D01*
X28908815Y58376665D01*
X28770266Y58334637D01*
X28642580Y58266387D01*
X28530662Y58174538D01*
X28507646Y58146493D01*
X22505154Y52144000D01*
X18027989Y52144000D01*
X18091632Y52186525D01*
X18298475Y52393368D01*
X18460990Y52636589D01*
X18572932Y52906842D01*
X18630000Y53193740D01*
X18630000Y53486260D01*
X18572932Y53773158D01*
X18460990Y54043411D01*
X18298475Y54286632D01*
X18258327Y54326780D01*
X20097508Y56165961D01*
X22338096Y56165961D01*
X22355633Y56083182D01*
X22466285Y55823354D01*
X22625500Y55590105D01*
X22827161Y55392399D01*
X23063517Y55237834D01*
X23325486Y55132350D01*
X23603000Y55080000D01*
X24003000Y55080000D01*
X24003000Y56388000D01*
X24257000Y56388000D01*
X24257000Y55080000D01*
X24657000Y55080000D01*
X24934514Y55132350D01*
X25196483Y55237834D01*
X25432839Y55392399D01*
X25634500Y55590105D01*
X25793715Y55823354D01*
X25904367Y56083182D01*
X25921904Y56165961D01*
X25799915Y56388000D01*
X24257000Y56388000D01*
X24003000Y56388000D01*
X22460085Y56388000D01*
X22338096Y56165961D01*
X20097508Y56165961D01*
X22410679Y58479132D01*
X22531068Y58253899D01*
X22710392Y58035392D01*
X22928899Y57856068D01*
X23056741Y57787735D01*
X22827161Y57637601D01*
X22625500Y57439895D01*
X22466285Y57206646D01*
X22355633Y56946818D01*
X22338096Y56864039D01*
X22460085Y56642000D01*
X24003000Y56642000D01*
X24003000Y56662000D01*
X24257000Y56662000D01*
X24257000Y56642000D01*
X25799915Y56642000D01*
X25921904Y56864039D01*
X25904367Y56946818D01*
X25793715Y57206646D01*
X25634500Y57439895D01*
X25432839Y57637601D01*
X25203259Y57787735D01*
X25331101Y57856068D01*
X25549608Y58035392D01*
X25728932Y58253899D01*
X25862182Y58503192D01*
X25944236Y58773691D01*
X25971943Y59055000D01*
X25944236Y59336309D01*
X25862182Y59606808D01*
X25728932Y59856101D01*
X25549608Y60074608D01*
X25331101Y60253932D01*
X25203259Y60322265D01*
X25432839Y60472399D01*
X25634500Y60670105D01*
X25793715Y60903354D01*
X25904367Y61163182D01*
X25921904Y61245961D01*
X25799915Y61468000D01*
X24257000Y61468000D01*
X24257000Y61448000D01*
X24003000Y61448000D01*
X24003000Y61468000D01*
X23983000Y61468000D01*
X23983000Y61722000D01*
X24003000Y61722000D01*
X24003000Y61742000D01*
X24257000Y61742000D01*
X24257000Y61722000D01*
X25799915Y61722000D01*
X25921904Y61944039D01*
X25904367Y62026818D01*
X25793715Y62286646D01*
X25634500Y62519895D01*
X25578875Y62574429D01*
X29752097Y66747650D01*
X29780137Y66770662D01*
X29803150Y66798703D01*
X29803153Y66798706D01*
X29871986Y66882579D01*
X29871987Y66882580D01*
X29940237Y67010267D01*
X29982265Y67148815D01*
X29992900Y67256795D01*
X29992900Y67256804D01*
X29996455Y67292899D01*
X29992900Y67328994D01*
X29992900Y68742636D01*
X30086285Y68523354D01*
G04 #@! TA.AperFunction,Conductor*
D23*
G36*
X30086285Y68523354D02*
G01*
X30245500Y68290105D01*
X30447161Y68092399D01*
X30676741Y67942265D01*
X30548899Y67873932D01*
X30330392Y67694608D01*
X30151068Y67476101D01*
X30017818Y67226808D01*
X29935764Y66956309D01*
X29908057Y66675000D01*
X29935764Y66393691D01*
X30017818Y66123192D01*
X30151068Y65873899D01*
X30330392Y65655392D01*
X30548899Y65476068D01*
X30676741Y65407735D01*
X30447161Y65257601D01*
X30245500Y65059895D01*
X30086285Y64826646D01*
X29975633Y64566818D01*
X29958096Y64484039D01*
X30080085Y64262000D01*
X31623000Y64262000D01*
X31623000Y64282000D01*
X31877000Y64282000D01*
X31877000Y64262000D01*
X33419915Y64262000D01*
X33541904Y64484039D01*
X33524367Y64566818D01*
X33413715Y64826646D01*
X33254500Y65059895D01*
X33052839Y65257601D01*
X32823259Y65407735D01*
X32951101Y65476068D01*
X33169608Y65655392D01*
X33348932Y65873899D01*
X33482182Y66123192D01*
X33564236Y66393691D01*
X33591943Y66675000D01*
X33564236Y66956309D01*
X33482182Y67226808D01*
X33404575Y67372000D01*
X35455595Y67372000D01*
X35491700Y67368444D01*
X35527805Y67372000D01*
X35635785Y67382635D01*
X35774333Y67424663D01*
X35902020Y67492913D01*
X36013938Y67584762D01*
X36036958Y67612812D01*
X36652962Y68228815D01*
X36680392Y68195392D01*
X36898899Y68016068D01*
X37031858Y67945000D01*
X36898899Y67873932D01*
X36680392Y67694608D01*
X36501068Y67476101D01*
X36367818Y67226808D01*
X36285764Y66956309D01*
X36258057Y66675000D01*
X36285764Y66393691D01*
X36367818Y66123192D01*
X36501068Y65873899D01*
X36680392Y65655392D01*
X36898899Y65476068D01*
X37031858Y65405000D01*
X36898899Y65333932D01*
X36680392Y65154608D01*
X36501068Y64936101D01*
X36367818Y64686808D01*
X36285764Y64416309D01*
X36258057Y64135000D01*
X36285764Y63853691D01*
X36357108Y63618500D01*
X33488304Y63618500D01*
X33524367Y63703182D01*
X33541904Y63785961D01*
X33419915Y64008000D01*
X31877000Y64008000D01*
X31877000Y63988000D01*
X31623000Y63988000D01*
X31623000Y64008000D01*
X30080085Y64008000D01*
X29958096Y63785961D01*
X29963891Y63758609D01*
X29914165Y63768500D01*
X29739835Y63768500D01*
X29568855Y63734490D01*
X29407795Y63667777D01*
X29262845Y63570924D01*
X29139576Y63447655D01*
X29042723Y63302705D01*
X28976010Y63141645D01*
X28942000Y62970665D01*
X28942000Y62796335D01*
X28976010Y62625355D01*
X29042723Y62464295D01*
X29139576Y62319345D01*
X29262845Y62196076D01*
X29407795Y62099223D01*
X29568855Y62032510D01*
X29739835Y61998500D01*
X29914165Y61998500D01*
X29976597Y62010918D01*
X29935764Y61876309D01*
X29908057Y61595000D01*
X29935764Y61313691D01*
X30017818Y61043192D01*
X30151068Y60793899D01*
X30330392Y60575392D01*
X30548899Y60396068D01*
X30676741Y60327735D01*
X30447161Y60177601D01*
X30245500Y59979895D01*
X30086285Y59746646D01*
X29975633Y59486818D01*
X29958096Y59404039D01*
X30080085Y59182000D01*
X31623000Y59182000D01*
X31623000Y59202000D01*
X31877000Y59202000D01*
X31877000Y59182000D01*
X33419915Y59182000D01*
X33541904Y59404039D01*
X33524367Y59486818D01*
X33413715Y59746646D01*
X33254500Y59979895D01*
X33052839Y60177601D01*
X32823259Y60327735D01*
X32951101Y60396068D01*
X33169608Y60575392D01*
X33348932Y60793899D01*
X33482182Y61043192D01*
X33564236Y61313691D01*
X33591943Y61595000D01*
X33564236Y61876309D01*
X33482182Y62146808D01*
X33481278Y62148500D01*
X36368722Y62148500D01*
X36367818Y62146808D01*
X36285764Y61876309D01*
X36258057Y61595000D01*
X36285764Y61313691D01*
X36367818Y61043192D01*
X36501068Y60793899D01*
X36680392Y60575392D01*
X36898899Y60396068D01*
X37031858Y60325000D01*
X36898899Y60253932D01*
X36680392Y60074608D01*
X36501068Y59856101D01*
X36367818Y59606808D01*
X36285764Y59336309D01*
X36258057Y59055000D01*
X36285764Y58773691D01*
X36367818Y58503192D01*
X36501068Y58253899D01*
X36680392Y58035392D01*
X36898899Y57856068D01*
X37026741Y57787735D01*
X36797161Y57637601D01*
X36595500Y57439895D01*
X36436285Y57206646D01*
X36325633Y56946818D01*
X36308096Y56864039D01*
X36430085Y56642000D01*
X37973000Y56642000D01*
X37973000Y56662000D01*
X38227000Y56662000D01*
X38227000Y56642000D01*
X39769915Y56642000D01*
X39891904Y56864039D01*
X39874367Y56946818D01*
X39763715Y57206646D01*
X39604500Y57439895D01*
X39402839Y57637601D01*
X39173259Y57787735D01*
X39301101Y57856068D01*
X39519608Y58035392D01*
X39698932Y58253899D01*
X39832182Y58503192D01*
X39914236Y58773691D01*
X39941943Y59055000D01*
X39914236Y59336309D01*
X39832182Y59606808D01*
X39698932Y59856101D01*
X39519608Y60074608D01*
X39301101Y60253932D01*
X39168142Y60325000D01*
X39301101Y60396068D01*
X39519608Y60575392D01*
X39698932Y60793899D01*
X39832182Y61043192D01*
X39914236Y61313691D01*
X39941943Y61595000D01*
X39914236Y61876309D01*
X39832182Y62146808D01*
X39831278Y62148500D01*
X40086754Y62148500D01*
X43674446Y58560807D01*
X43697462Y58532762D01*
X43725506Y58509747D01*
X43809380Y58440913D01*
X43937066Y58372663D01*
X44075615Y58330635D01*
X44080298Y58330174D01*
X44121068Y58253899D01*
X44300392Y58035392D01*
X44518899Y57856068D01*
X44651858Y57785000D01*
X44518899Y57713932D01*
X44300392Y57534608D01*
X44121068Y57316101D01*
X44080298Y57239826D01*
X44075615Y57239365D01*
X43937067Y57197337D01*
X43809380Y57129087D01*
X43697462Y57037238D01*
X43605613Y56925320D01*
X43537363Y56797633D01*
X43495335Y56659085D01*
X43481144Y56515000D01*
X43484701Y56478885D01*
X43484700Y48374147D01*
X38881808Y43771254D01*
X38853763Y43748238D01*
X38761914Y43636320D01*
X38693664Y43508633D01*
X38651635Y43370085D01*
X38637444Y43226000D01*
X38641001Y43189885D01*
X38641000Y41162153D01*
X38591723Y41088405D01*
X38541644Y40967503D01*
X36963259Y42545887D01*
X36940238Y42573938D01*
X36828320Y42665787D01*
X36700633Y42734037D01*
X36562085Y42776065D01*
X36454105Y42786700D01*
X36418000Y42790256D01*
X36381895Y42786700D01*
X36088072Y42786700D01*
X36088072Y43980000D01*
X36075812Y44104482D01*
X36039502Y44224180D01*
X35980537Y44334494D01*
X35901185Y44431185D01*
X35804494Y44510537D01*
X35694180Y44569502D01*
X35574482Y44605812D01*
X35450000Y44618072D01*
X33050000Y44618072D01*
X32925518Y44605812D01*
X32805820Y44569502D01*
X32695506Y44510537D01*
X32598815Y44431185D01*
X32519463Y44334494D01*
X32460498Y44224180D01*
X32424188Y44104482D01*
X32411928Y43980000D01*
X32411928Y43915000D01*
X32278072Y43915000D01*
X32278072Y43980000D01*
X32265812Y44104482D01*
X32229502Y44224180D01*
X32170537Y44334494D01*
X32091185Y44431185D01*
X31994494Y44510537D01*
X31884180Y44569502D01*
X31764482Y44605812D01*
X31640000Y44618072D01*
X29240000Y44618072D01*
X29115518Y44605812D01*
X28995820Y44569502D01*
X28885506Y44510537D01*
X28788815Y44431185D01*
X28709463Y44334494D01*
X28650498Y44224180D01*
X28614188Y44104482D01*
X28601928Y43980000D01*
X28601928Y43428819D01*
X26668449Y45362298D01*
X36016903Y45362298D01*
X36088486Y45118329D01*
X36343996Y44997429D01*
X36618184Y44928700D01*
X36900512Y44914783D01*
X37180130Y44956213D01*
X37446292Y45051397D01*
X37571514Y45118329D01*
X37643097Y45362298D01*
X36830000Y46175395D01*
X36016903Y45362298D01*
X26668449Y45362298D01*
X25746259Y46284488D01*
X35389783Y46284488D01*
X35431213Y46004870D01*
X35526397Y45738708D01*
X35593329Y45613486D01*
X35837298Y45541903D01*
X36650395Y46355000D01*
X37009605Y46355000D01*
X37822702Y45541903D01*
X38066671Y45613486D01*
X38080324Y45642341D01*
X38215363Y45440241D01*
X38415241Y45240363D01*
X38650273Y45083320D01*
X38911426Y44975147D01*
X39188665Y44920000D01*
X39471335Y44920000D01*
X39748574Y44975147D01*
X40009727Y45083320D01*
X40244759Y45240363D01*
X40444637Y45440241D01*
X40601680Y45675273D01*
X40709853Y45936426D01*
X40765000Y46213665D01*
X40765000Y46496335D01*
X40709853Y46773574D01*
X40601680Y47034727D01*
X40444637Y47269759D01*
X40244759Y47469637D01*
X40009727Y47626680D01*
X39748574Y47734853D01*
X39471335Y47790000D01*
X39188665Y47790000D01*
X38911426Y47734853D01*
X38650273Y47626680D01*
X38415241Y47469637D01*
X38215363Y47269759D01*
X38081308Y47069131D01*
X38066671Y47096514D01*
X37822702Y47168097D01*
X37009605Y46355000D01*
X36650395Y46355000D01*
X35837298Y47168097D01*
X35593329Y47096514D01*
X35472429Y46841004D01*
X35403700Y46566816D01*
X35389783Y46284488D01*
X25746259Y46284488D01*
X24683045Y47347702D01*
X36016903Y47347702D01*
X36830000Y46534605D01*
X37643097Y47347702D01*
X37571514Y47591671D01*
X37316004Y47712571D01*
X37041816Y47781300D01*
X36759488Y47795217D01*
X36479870Y47753787D01*
X36213708Y47658603D01*
X36088486Y47591671D01*
X36016903Y47347702D01*
X24683045Y47347702D01*
X22126159Y49904587D01*
X22103138Y49932638D01*
X21991220Y50024487D01*
X21863533Y50092737D01*
X21724985Y50134765D01*
X21617005Y50145400D01*
X21580900Y50148956D01*
X21544795Y50145400D01*
X18481208Y50145400D01*
X18572932Y50366842D01*
X18630000Y50653740D01*
X18630000Y50674000D01*
X22773495Y50674000D01*
X22809600Y50670444D01*
X22845705Y50674000D01*
X22953685Y50684635D01*
X23092233Y50726663D01*
X23219920Y50794913D01*
X23331838Y50886762D01*
X23354859Y50914813D01*
X29357347Y56917300D01*
X29972466Y56917300D01*
X29935764Y56796309D01*
X29908057Y56515000D01*
X29935764Y56233691D01*
X30017818Y55963192D01*
X30151068Y55713899D01*
X30330392Y55495392D01*
X30548899Y55316068D01*
X30798192Y55182818D01*
X31068691Y55100764D01*
X31279508Y55080000D01*
X32220492Y55080000D01*
X32431309Y55100764D01*
X32701808Y55182818D01*
X32951101Y55316068D01*
X33169608Y55495392D01*
X33348932Y55713899D01*
X33482182Y55963192D01*
X33543690Y56165961D01*
X36308096Y56165961D01*
X36325633Y56083182D01*
X36436285Y55823354D01*
X36595500Y55590105D01*
X36797161Y55392399D01*
X37033517Y55237834D01*
X37295486Y55132350D01*
X37573000Y55080000D01*
X37973000Y55080000D01*
X37973000Y56388000D01*
X38227000Y56388000D01*
X38227000Y55080000D01*
X38627000Y55080000D01*
X38904514Y55132350D01*
X39166483Y55237834D01*
X39402839Y55392399D01*
X39604500Y55590105D01*
X39763715Y55823354D01*
X39874367Y56083182D01*
X39891904Y56165961D01*
X39769915Y56388000D01*
X38227000Y56388000D01*
X37973000Y56388000D01*
X36430085Y56388000D01*
X36308096Y56165961D01*
X33543690Y56165961D01*
X33564236Y56233691D01*
X33591943Y56515000D01*
X33567093Y56767300D01*
X33656765Y56767300D01*
X33827745Y56801310D01*
X33988805Y56868023D01*
X34133755Y56964876D01*
X34257024Y57088145D01*
X34353877Y57233095D01*
X34420590Y57394155D01*
X34454600Y57565135D01*
X34454600Y57739465D01*
X34420590Y57910445D01*
X34353877Y58071505D01*
X34257024Y58216455D01*
X34133755Y58339724D01*
X33988805Y58436577D01*
X33827745Y58503290D01*
X33656765Y58537300D01*
X33487793Y58537300D01*
X33524367Y58623182D01*
X33541904Y58705961D01*
X33419915Y58928000D01*
X31877000Y58928000D01*
X31877000Y58908000D01*
X31623000Y58908000D01*
X31623000Y58928000D01*
X30080085Y58928000D01*
X29958096Y58705961D01*
X29975633Y58623182D01*
X30076087Y58387300D01*
X29089005Y58387300D01*
X29052900Y58390856D01*
X28908815Y58376665D01*
X28770266Y58334637D01*
X28642580Y58266387D01*
X28530662Y58174538D01*
X28507646Y58146493D01*
X22505154Y52144000D01*
X18027989Y52144000D01*
X18091632Y52186525D01*
X18298475Y52393368D01*
X18460990Y52636589D01*
X18572932Y52906842D01*
X18630000Y53193740D01*
X18630000Y53486260D01*
X18572932Y53773158D01*
X18460990Y54043411D01*
X18298475Y54286632D01*
X18258327Y54326780D01*
X20097508Y56165961D01*
X22338096Y56165961D01*
X22355633Y56083182D01*
X22466285Y55823354D01*
X22625500Y55590105D01*
X22827161Y55392399D01*
X23063517Y55237834D01*
X23325486Y55132350D01*
X23603000Y55080000D01*
X24003000Y55080000D01*
X24003000Y56388000D01*
X24257000Y56388000D01*
X24257000Y55080000D01*
X24657000Y55080000D01*
X24934514Y55132350D01*
X25196483Y55237834D01*
X25432839Y55392399D01*
X25634500Y55590105D01*
X25793715Y55823354D01*
X25904367Y56083182D01*
X25921904Y56165961D01*
X25799915Y56388000D01*
X24257000Y56388000D01*
X24003000Y56388000D01*
X22460085Y56388000D01*
X22338096Y56165961D01*
X20097508Y56165961D01*
X22410679Y58479132D01*
X22531068Y58253899D01*
X22710392Y58035392D01*
X22928899Y57856068D01*
X23056741Y57787735D01*
X22827161Y57637601D01*
X22625500Y57439895D01*
X22466285Y57206646D01*
X22355633Y56946818D01*
X22338096Y56864039D01*
X22460085Y56642000D01*
X24003000Y56642000D01*
X24003000Y56662000D01*
X24257000Y56662000D01*
X24257000Y56642000D01*
X25799915Y56642000D01*
X25921904Y56864039D01*
X25904367Y56946818D01*
X25793715Y57206646D01*
X25634500Y57439895D01*
X25432839Y57637601D01*
X25203259Y57787735D01*
X25331101Y57856068D01*
X25549608Y58035392D01*
X25728932Y58253899D01*
X25862182Y58503192D01*
X25944236Y58773691D01*
X25971943Y59055000D01*
X25944236Y59336309D01*
X25862182Y59606808D01*
X25728932Y59856101D01*
X25549608Y60074608D01*
X25331101Y60253932D01*
X25203259Y60322265D01*
X25432839Y60472399D01*
X25634500Y60670105D01*
X25793715Y60903354D01*
X25904367Y61163182D01*
X25921904Y61245961D01*
X25799915Y61468000D01*
X24257000Y61468000D01*
X24257000Y61448000D01*
X24003000Y61448000D01*
X24003000Y61468000D01*
X23983000Y61468000D01*
X23983000Y61722000D01*
X24003000Y61722000D01*
X24003000Y61742000D01*
X24257000Y61742000D01*
X24257000Y61722000D01*
X25799915Y61722000D01*
X25921904Y61944039D01*
X25904367Y62026818D01*
X25793715Y62286646D01*
X25634500Y62519895D01*
X25578875Y62574429D01*
X29752097Y66747650D01*
X29780137Y66770662D01*
X29803150Y66798703D01*
X29803153Y66798706D01*
X29871986Y66882579D01*
X29871987Y66882580D01*
X29940237Y67010267D01*
X29982265Y67148815D01*
X29992900Y67256795D01*
X29992900Y67256804D01*
X29996455Y67292899D01*
X29992900Y67328994D01*
X29992900Y68742636D01*
X30086285Y68523354D01*
G37*
G04 #@! TD.AperFunction*
D22*
X36077462Y69737238D02*
X36054446Y69709193D01*
X35187254Y68842000D01*
X33536828Y68842000D01*
X33541904Y68865961D01*
X33419915Y69088000D01*
X31877000Y69088000D01*
X31877000Y69068000D01*
X31623000Y69068000D01*
X31623000Y69088000D01*
X31603000Y69088000D01*
X31603000Y69342000D01*
X31623000Y69342000D01*
X31623000Y69362000D01*
X31877000Y69362000D01*
X31877000Y69342000D01*
X33419915Y69342000D01*
X33541904Y69564039D01*
X33524367Y69646818D01*
X33477018Y69758000D01*
X36102760Y69758000D01*
X36077462Y69737238D01*
G04 #@! TA.AperFunction,Conductor*
D23*
G36*
X36077462Y69737238D02*
G01*
X36054446Y69709193D01*
X35187254Y68842000D01*
X33536828Y68842000D01*
X33541904Y68865961D01*
X33419915Y69088000D01*
X31877000Y69088000D01*
X31877000Y69068000D01*
X31623000Y69068000D01*
X31623000Y69088000D01*
X31603000Y69088000D01*
X31603000Y69342000D01*
X31623000Y69342000D01*
X31623000Y69362000D01*
X31877000Y69362000D01*
X31877000Y69342000D01*
X33419915Y69342000D01*
X33541904Y69564039D01*
X33524367Y69646818D01*
X33477018Y69758000D01*
X36102760Y69758000D01*
X36077462Y69737238D01*
G37*
G04 #@! TD.AperFunction*
M02*
