M48
; DRILL file {KiCad (5.1.9)-1} date 01/15/26 21:52:06
; FORMAT={-:-/ absolute / metric / decimal}
; #@! TF.CreationDate,2026-01-15T21:52:06+09:00
; #@! TF.GenerationSoftware,Kicad,Pcbnew,(5.1.9)-1
FMAT,2
METRIC
T1C0.300
T2C0.800
T3C0.900
T4C1.000
T5C3.200
%
G90
G05
T1
X29.827Y62.883
X32.825Y68.107
X33.57Y57.652
X35.823Y18.893
X39.3Y35.663
X39.376Y40.669
T2
X12.86Y8.73
X12.86Y6.23
X24.13Y71.755
X24.13Y69.215
X24.13Y66.675
X24.13Y64.135
X24.13Y61.595
X24.13Y59.055
X24.13Y56.515
X26.71Y74.93
X29.21Y74.93
X30.44Y43.18
X30.44Y40.64
X30.44Y38.1
X30.44Y35.56
X30.44Y33.02
X30.44Y30.48
X30.44Y27.94
X30.44Y25.4
X30.44Y22.86
X30.44Y20.32
X30.44Y17.78
X30.44Y15.24
X30.44Y12.7
X30.44Y10.16
X31.75Y71.755
X31.75Y69.215
X31.75Y66.675
X31.75Y64.135
X31.75Y61.595
X31.75Y59.055
X31.75Y56.515
X34.25Y43.18
X34.25Y40.64
X34.25Y38.1
X34.25Y35.56
X34.25Y33.02
X34.25Y30.48
X34.25Y27.94
X34.25Y25.4
X34.25Y22.86
X34.25Y20.32
X34.25Y17.78
X34.25Y15.24
X34.25Y12.7
X34.25Y10.16
X36.83Y46.355
X38.1Y84.455
X38.1Y81.915
X38.1Y79.375
X38.1Y76.835
X38.1Y74.295
X38.1Y71.755
X38.1Y69.215
X38.1Y66.675
X38.1Y64.135
X38.1Y61.595
X38.1Y59.055
X38.1Y56.515
X39.33Y46.355
X40.68Y87.63
X41.87Y43.18
X41.87Y40.64
X41.87Y38.1
X41.87Y35.56
X41.87Y33.02
X41.87Y30.48
X41.87Y27.94
X41.87Y25.4
X41.87Y22.86
X41.87Y20.32
X41.87Y17.78
X41.87Y15.24
X41.87Y12.7
X41.87Y10.16
X43.18Y87.63
X45.68Y43.18
X45.68Y40.64
X45.68Y38.1
X45.68Y35.56
X45.68Y33.02
X45.68Y30.48
X45.68Y27.94
X45.68Y25.4
X45.68Y22.86
X45.68Y20.32
X45.68Y17.78
X45.68Y15.24
X45.68Y12.7
X45.68Y10.16
X45.72Y84.455
X45.72Y81.915
X45.72Y79.375
X45.72Y76.835
X45.72Y74.295
X45.72Y71.755
X45.72Y69.215
X45.72Y66.675
X45.72Y64.135
X45.72Y61.595
X45.72Y59.055
X45.72Y56.515
X50.165Y79.375
X50.165Y69.215
X50.165Y66.675
X50.165Y56.515
T3
X57.785Y76.835
X57.785Y74.295
X57.785Y64.135
X57.785Y61.595
T4
X6.985Y76.2
X6.985Y73.66
X6.985Y71.12
X6.985Y68.58
X6.985Y66.04
X6.985Y63.5
X6.985Y60.96
X6.985Y58.42
X6.985Y55.88
X6.985Y53.34
X6.985Y50.8
X6.985Y48.26
X6.985Y45.72
X6.985Y43.18
X6.985Y40.64
X6.985Y38.1
X6.985Y35.56
X6.985Y33.02
X6.985Y30.48
X6.985Y27.94
X6.985Y25.4
X6.985Y22.86
X6.985Y20.32
X6.985Y17.78
X6.985Y15.24
X9.525Y76.2
X9.525Y73.66
X9.525Y71.12
X9.525Y68.58
X9.525Y66.04
X9.525Y63.5
X9.525Y60.96
X9.525Y58.42
X9.525Y55.88
X9.525Y53.34
X9.525Y50.8
X9.525Y48.26
X9.525Y45.72
X9.525Y43.18
X9.525Y40.64
X9.525Y38.1
X9.525Y35.56
X9.525Y33.02
X9.525Y30.48
X9.525Y27.94
X9.525Y25.4
X9.525Y22.86
X9.525Y20.32
X9.525Y17.78
X9.525Y15.24
X14.605Y76.2
X14.605Y73.66
X14.605Y71.12
X14.605Y68.58
X14.605Y66.04
X14.605Y63.5
X14.605Y60.96
X14.605Y58.42
X14.605Y55.88
X14.605Y53.34
X14.605Y50.8
X14.605Y48.26
X14.605Y45.72
X14.605Y43.18
X14.605Y40.64
X14.605Y38.1
X14.605Y35.56
X14.605Y33.02
X14.605Y30.48
X14.605Y27.94
X14.605Y25.4
X14.605Y22.86
X14.605Y20.32
X14.605Y17.78
X14.605Y15.24
X17.145Y76.2
X17.145Y73.66
X17.145Y71.12
X17.145Y68.58
X17.145Y66.04
X17.145Y63.5
X17.145Y60.96
X17.145Y58.42
X17.145Y55.88
X17.145Y53.34
X17.145Y50.8
X17.145Y48.26
X17.145Y45.72
X17.145Y43.18
X17.145Y40.64
X17.145Y38.1
X17.145Y35.56
X17.145Y33.02
X17.145Y30.48
X17.145Y27.94
X17.145Y25.4
X17.145Y22.86
X17.145Y20.32
X17.145Y17.78
X17.145Y15.24
T5
X5.0Y86.0
X5.0Y5.0
X57.5Y86.0
X57.5Y5.0
T0
M30
