G04 #@! TF.GenerationSoftware,KiCad,Pcbnew,(5.1.9)-1*
G04 #@! TF.CreationDate,2025-10-31T21:16:21+09:00*
G04 #@! TF.ProjectId,PC-8001_RAM,50432d38-3030-4315-9f52-414d2e6b6963,rev?*
G04 #@! TF.SameCoordinates,PX53920b0PY93c3260*
G04 #@! TF.FileFunction,Legend,Top*
G04 #@! TF.FilePolarity,Positive*
%FSLAX46Y46*%
G04 Gerber Fmt 4.6, Leading zero omitted, Abs format (unit mm)*
G04 Created by KiCad (PCBNEW (5.1.9)-1) date 2025-10-31 21:16:21*
%MOMM*%
%LPD*%
G01*
G04 APERTURE LIST*
%ADD10C,0.150000*%
%ADD11C,0.100000*%
%ADD12C,0.500000*%
%ADD13C,0.120000*%
G04 APERTURE END LIST*
D10*
X22127619Y61192858D02*
X22127619Y60526191D01*
X21127619Y60954762D01*
X21794285Y59716667D02*
X21127619Y59716667D01*
X22175238Y59954762D02*
X21460952Y60192858D01*
X21460952Y59573810D01*
X21127619Y58716667D02*
X21127619Y59192858D01*
X22127619Y59192858D01*
X21175238Y58430953D02*
X21127619Y58288096D01*
X21127619Y58050000D01*
X21175238Y57954762D01*
X21222857Y57907143D01*
X21318095Y57859524D01*
X21413333Y57859524D01*
X21508571Y57907143D01*
X21556190Y57954762D01*
X21603809Y58050000D01*
X21651428Y58240477D01*
X21699047Y58335715D01*
X21746666Y58383334D01*
X21841904Y58430953D01*
X21937142Y58430953D01*
X22032380Y58383334D01*
X22080000Y58335715D01*
X22127619Y58240477D01*
X22127619Y58002381D01*
X22080000Y57859524D01*
X22127619Y57240477D02*
X22127619Y57145239D01*
X22080000Y57050000D01*
X22032380Y57002381D01*
X21937142Y56954762D01*
X21746666Y56907143D01*
X21508571Y56907143D01*
X21318095Y56954762D01*
X21222857Y57002381D01*
X21175238Y57050000D01*
X21127619Y57145239D01*
X21127619Y57240477D01*
X21175238Y57335715D01*
X21222857Y57383334D01*
X21318095Y57430953D01*
X21508571Y57478572D01*
X21746666Y57478572D01*
X21937142Y57430953D01*
X22032380Y57383334D01*
X22080000Y57335715D01*
X22127619Y57240477D01*
X21794285Y56050000D02*
X21127619Y56050000D01*
X22175238Y56288096D02*
X21460952Y56526191D01*
X21460952Y55907143D01*
X32037619Y76772858D02*
X32037619Y76677620D01*
X31990000Y76582381D01*
X31942380Y76534762D01*
X31847142Y76487143D01*
X31656666Y76439524D01*
X31418571Y76439524D01*
X31228095Y76487143D01*
X31132857Y76534762D01*
X31085238Y76582381D01*
X31037619Y76677620D01*
X31037619Y76772858D01*
X31085238Y76868096D01*
X31132857Y76915715D01*
X31228095Y76963334D01*
X31418571Y77010953D01*
X31656666Y77010953D01*
X31847142Y76963334D01*
X31942380Y76915715D01*
X31990000Y76868096D01*
X32037619Y76772858D01*
X31132857Y76010953D02*
X31085238Y75963334D01*
X31037619Y76010953D01*
X31085238Y76058572D01*
X31132857Y76010953D01*
X31037619Y76010953D01*
X31037619Y75010953D02*
X31037619Y75582381D01*
X31037619Y75296667D02*
X32037619Y75296667D01*
X31894761Y75391905D01*
X31799523Y75487143D01*
X31751904Y75582381D01*
X31704285Y74153810D02*
X31037619Y74153810D01*
X31704285Y74582381D02*
X31180476Y74582381D01*
X31085238Y74534762D01*
X31037619Y74439524D01*
X31037619Y74296667D01*
X31085238Y74201429D01*
X31132857Y74153810D01*
X31561428Y73344286D02*
X31561428Y73677620D01*
X31037619Y73677620D02*
X32037619Y73677620D01*
X32037619Y73201429D01*
D11*
G36*
X12700000Y14605000D02*
G01*
X11430000Y15240000D01*
X12700000Y15875000D01*
X12700000Y14605000D01*
G37*
X12700000Y14605000D02*
X11430000Y15240000D01*
X12700000Y15875000D01*
X12700000Y14605000D01*
G36*
X20320000Y14605000D02*
G01*
X19050000Y15240000D01*
X20320000Y15875000D01*
X20320000Y14605000D01*
G37*
X20320000Y14605000D02*
X19050000Y15240000D01*
X20320000Y15875000D01*
X20320000Y14605000D01*
D10*
X37792857Y24013810D02*
X37745238Y24061429D01*
X37697619Y24204286D01*
X37697619Y24299524D01*
X37745238Y24442381D01*
X37840476Y24537620D01*
X37935714Y24585239D01*
X38126190Y24632858D01*
X38269047Y24632858D01*
X38459523Y24585239D01*
X38554761Y24537620D01*
X38650000Y24442381D01*
X38697619Y24299524D01*
X38697619Y24204286D01*
X38650000Y24061429D01*
X38602380Y24013810D01*
X38173809Y23394762D02*
X37697619Y23394762D01*
X38697619Y23728096D02*
X38173809Y23394762D01*
X38697619Y23061429D01*
X38697619Y22823334D02*
X38697619Y22156667D01*
X37697619Y22585239D01*
X37792857Y21204286D02*
X37745238Y21251905D01*
X37697619Y21394762D01*
X37697619Y21490000D01*
X37745238Y21632858D01*
X37840476Y21728096D01*
X37935714Y21775715D01*
X38126190Y21823334D01*
X38269047Y21823334D01*
X38459523Y21775715D01*
X38554761Y21728096D01*
X38650000Y21632858D01*
X38697619Y21490000D01*
X38697619Y21394762D01*
X38650000Y21251905D01*
X38602380Y21204286D01*
X37697619Y20251905D02*
X37697619Y20823334D01*
X37697619Y20537620D02*
X38697619Y20537620D01*
X38554761Y20632858D01*
X38459523Y20728096D01*
X38411904Y20823334D01*
X37697619Y19775715D02*
X37697619Y19585239D01*
X37745238Y19490000D01*
X37792857Y19442381D01*
X37935714Y19347143D01*
X38126190Y19299524D01*
X38507142Y19299524D01*
X38602380Y19347143D01*
X38650000Y19394762D01*
X38697619Y19490000D01*
X38697619Y19680477D01*
X38650000Y19775715D01*
X38602380Y19823334D01*
X38507142Y19870953D01*
X38269047Y19870953D01*
X38173809Y19823334D01*
X38126190Y19775715D01*
X38078571Y19680477D01*
X38078571Y19490000D01*
X38126190Y19394762D01*
X38173809Y19347143D01*
X38269047Y19299524D01*
X37697619Y18823334D02*
X37697619Y18632858D01*
X37745238Y18537620D01*
X37792857Y18490000D01*
X37935714Y18394762D01*
X38126190Y18347143D01*
X38507142Y18347143D01*
X38602380Y18394762D01*
X38650000Y18442381D01*
X38697619Y18537620D01*
X38697619Y18728096D01*
X38650000Y18823334D01*
X38602380Y18870953D01*
X38507142Y18918572D01*
X38269047Y18918572D01*
X38173809Y18870953D01*
X38126190Y18823334D01*
X38078571Y18728096D01*
X38078571Y18537620D01*
X38126190Y18442381D01*
X38173809Y18394762D01*
X38269047Y18347143D01*
X56697619Y68333810D02*
X57173809Y68667143D01*
X56697619Y68905239D02*
X57697619Y68905239D01*
X57697619Y68524286D01*
X57650000Y68429048D01*
X57602380Y68381429D01*
X57507142Y68333810D01*
X57364285Y68333810D01*
X57269047Y68381429D01*
X57221428Y68429048D01*
X57173809Y68524286D01*
X57173809Y68905239D01*
X56745238Y67524286D02*
X56697619Y67619524D01*
X56697619Y67810000D01*
X56745238Y67905239D01*
X56840476Y67952858D01*
X57221428Y67952858D01*
X57316666Y67905239D01*
X57364285Y67810000D01*
X57364285Y67619524D01*
X57316666Y67524286D01*
X57221428Y67476667D01*
X57126190Y67476667D01*
X57030952Y67952858D01*
X56697619Y66619524D02*
X57221428Y66619524D01*
X57316666Y66667143D01*
X57364285Y66762381D01*
X57364285Y66952858D01*
X57316666Y67048096D01*
X56745238Y66619524D02*
X56697619Y66714762D01*
X56697619Y66952858D01*
X56745238Y67048096D01*
X56840476Y67095715D01*
X56935714Y67095715D01*
X57030952Y67048096D01*
X57078571Y66952858D01*
X57078571Y66714762D01*
X57126190Y66619524D01*
X56697619Y65714762D02*
X57697619Y65714762D01*
X56745238Y65714762D02*
X56697619Y65810000D01*
X56697619Y66000477D01*
X56745238Y66095715D01*
X56792857Y66143334D01*
X56888095Y66190953D01*
X57173809Y66190953D01*
X57269047Y66143334D01*
X57316666Y66095715D01*
X57364285Y66000477D01*
X57364285Y65810000D01*
X57316666Y65714762D01*
X57697619Y82335477D02*
X56697619Y82097381D01*
X57411904Y81906905D01*
X56697619Y81716429D01*
X57697619Y81478334D01*
X56697619Y81097381D02*
X57364285Y81097381D01*
X57173809Y81097381D02*
X57269047Y81049762D01*
X57316666Y81002143D01*
X57364285Y80906905D01*
X57364285Y80811667D01*
X56697619Y80478334D02*
X57364285Y80478334D01*
X57697619Y80478334D02*
X57650000Y80525953D01*
X57602380Y80478334D01*
X57650000Y80430715D01*
X57697619Y80478334D01*
X57602380Y80478334D01*
X57364285Y80145000D02*
X57364285Y79764048D01*
X57697619Y80002143D02*
X56840476Y80002143D01*
X56745238Y79954524D01*
X56697619Y79859286D01*
X56697619Y79764048D01*
X56745238Y79049762D02*
X56697619Y79145000D01*
X56697619Y79335477D01*
X56745238Y79430715D01*
X56840476Y79478334D01*
X57221428Y79478334D01*
X57316666Y79430715D01*
X57364285Y79335477D01*
X57364285Y79145000D01*
X57316666Y79049762D01*
X57221428Y79002143D01*
X57126190Y79002143D01*
X57030952Y79478334D01*
X52617619Y62880715D02*
X52617619Y62261667D01*
X52236666Y62595000D01*
X52236666Y62452143D01*
X52189047Y62356905D01*
X52141428Y62309286D01*
X52046190Y62261667D01*
X51808095Y62261667D01*
X51712857Y62309286D01*
X51665238Y62356905D01*
X51617619Y62452143D01*
X51617619Y62737858D01*
X51665238Y62833096D01*
X51712857Y62880715D01*
X52617619Y61928334D02*
X52617619Y61309286D01*
X52236666Y61642620D01*
X52236666Y61499762D01*
X52189047Y61404524D01*
X52141428Y61356905D01*
X52046190Y61309286D01*
X51808095Y61309286D01*
X51712857Y61356905D01*
X51665238Y61404524D01*
X51617619Y61499762D01*
X51617619Y61785477D01*
X51665238Y61880715D01*
X51712857Y61928334D01*
X52617619Y60690239D02*
X52617619Y60595000D01*
X52570000Y60499762D01*
X52522380Y60452143D01*
X52427142Y60404524D01*
X52236666Y60356905D01*
X51998571Y60356905D01*
X51808095Y60404524D01*
X51712857Y60452143D01*
X51665238Y60499762D01*
X51617619Y60595000D01*
X51617619Y60690239D01*
X51665238Y60785477D01*
X51712857Y60833096D01*
X51808095Y60880715D01*
X51998571Y60928334D01*
X52236666Y60928334D01*
X52427142Y60880715D01*
X52522380Y60833096D01*
X52570000Y60785477D01*
X52617619Y60690239D01*
X52617619Y75580715D02*
X52617619Y74961667D01*
X52236666Y75295000D01*
X52236666Y75152143D01*
X52189047Y75056905D01*
X52141428Y75009286D01*
X52046190Y74961667D01*
X51808095Y74961667D01*
X51712857Y75009286D01*
X51665238Y75056905D01*
X51617619Y75152143D01*
X51617619Y75437858D01*
X51665238Y75533096D01*
X51712857Y75580715D01*
X52617619Y74628334D02*
X52617619Y74009286D01*
X52236666Y74342620D01*
X52236666Y74199762D01*
X52189047Y74104524D01*
X52141428Y74056905D01*
X52046190Y74009286D01*
X51808095Y74009286D01*
X51712857Y74056905D01*
X51665238Y74104524D01*
X51617619Y74199762D01*
X51617619Y74485477D01*
X51665238Y74580715D01*
X51712857Y74628334D01*
X52617619Y73390239D02*
X52617619Y73295000D01*
X52570000Y73199762D01*
X52522380Y73152143D01*
X52427142Y73104524D01*
X52236666Y73056905D01*
X51998571Y73056905D01*
X51808095Y73104524D01*
X51712857Y73152143D01*
X51665238Y73199762D01*
X51617619Y73295000D01*
X51617619Y73390239D01*
X51665238Y73485477D01*
X51712857Y73533096D01*
X51808095Y73580715D01*
X51998571Y73628334D01*
X52236666Y73628334D01*
X52427142Y73580715D01*
X52522380Y73533096D01*
X52570000Y73485477D01*
X52617619Y73390239D01*
X11331904Y34977620D02*
X11331904Y35977620D01*
X11570000Y35977620D01*
X11712857Y35930000D01*
X11808095Y35834762D01*
X11855714Y35739524D01*
X11903333Y35549048D01*
X11903333Y35406191D01*
X11855714Y35215715D01*
X11808095Y35120477D01*
X11712857Y35025239D01*
X11570000Y34977620D01*
X11331904Y34977620D01*
X12236666Y35977620D02*
X12903333Y35977620D01*
X12474761Y34977620D01*
X3095714Y40673334D02*
X3571904Y40673334D01*
X3000476Y40387620D02*
X3333809Y41387620D01*
X3667142Y40387620D01*
X4048095Y40387620D02*
X4238571Y40387620D01*
X4333809Y40435239D01*
X4381428Y40482858D01*
X4476666Y40625715D01*
X4524285Y40816191D01*
X4524285Y41197143D01*
X4476666Y41292381D01*
X4429047Y41340000D01*
X4333809Y41387620D01*
X4143333Y41387620D01*
X4048095Y41340000D01*
X4000476Y41292381D01*
X3952857Y41197143D01*
X3952857Y40959048D01*
X4000476Y40863810D01*
X4048095Y40816191D01*
X4143333Y40768572D01*
X4333809Y40768572D01*
X4429047Y40816191D01*
X4476666Y40863810D01*
X4524285Y40959048D01*
X2619523Y43173334D02*
X3095714Y43173334D01*
X2524285Y42887620D02*
X2857619Y43887620D01*
X3190952Y42887620D01*
X4048095Y42887620D02*
X3476666Y42887620D01*
X3762380Y42887620D02*
X3762380Y43887620D01*
X3667142Y43744762D01*
X3571904Y43649524D01*
X3476666Y43601905D01*
X4667142Y43887620D02*
X4762380Y43887620D01*
X4857619Y43840000D01*
X4905238Y43792381D01*
X4952857Y43697143D01*
X5000476Y43506667D01*
X5000476Y43268572D01*
X4952857Y43078096D01*
X4905238Y42982858D01*
X4857619Y42935239D01*
X4762380Y42887620D01*
X4667142Y42887620D01*
X4571904Y42935239D01*
X4524285Y42982858D01*
X4476666Y43078096D01*
X4429047Y43268572D01*
X4429047Y43506667D01*
X4476666Y43697143D01*
X4524285Y43792381D01*
X4571904Y43840000D01*
X4667142Y43887620D01*
X2619523Y48173334D02*
X3095714Y48173334D01*
X2524285Y47887620D02*
X2857619Y48887620D01*
X3190952Y47887620D01*
X4048095Y47887620D02*
X3476666Y47887620D01*
X3762380Y47887620D02*
X3762380Y48887620D01*
X3667142Y48744762D01*
X3571904Y48649524D01*
X3476666Y48601905D01*
X4429047Y48792381D02*
X4476666Y48840000D01*
X4571904Y48887620D01*
X4810000Y48887620D01*
X4905238Y48840000D01*
X4952857Y48792381D01*
X5000476Y48697143D01*
X5000476Y48601905D01*
X4952857Y48459048D01*
X4381428Y47887620D01*
X5000476Y47887620D01*
X2619523Y50673334D02*
X3095714Y50673334D01*
X2524285Y50387620D02*
X2857619Y51387620D01*
X3190952Y50387620D01*
X4048095Y50387620D02*
X3476666Y50387620D01*
X3762380Y50387620D02*
X3762380Y51387620D01*
X3667142Y51244762D01*
X3571904Y51149524D01*
X3476666Y51101905D01*
X4381428Y51387620D02*
X5000476Y51387620D01*
X4667142Y51006667D01*
X4810000Y51006667D01*
X4905238Y50959048D01*
X4952857Y50911429D01*
X5000476Y50816191D01*
X5000476Y50578096D01*
X4952857Y50482858D01*
X4905238Y50435239D01*
X4810000Y50387620D01*
X4524285Y50387620D01*
X4429047Y50435239D01*
X4381428Y50482858D01*
X3008095Y76700000D02*
X2912857Y76747620D01*
X2770000Y76747620D01*
X2627142Y76700000D01*
X2531904Y76604762D01*
X2484285Y76509524D01*
X2436666Y76319048D01*
X2436666Y76176191D01*
X2484285Y75985715D01*
X2531904Y75890477D01*
X2627142Y75795239D01*
X2770000Y75747620D01*
X2865238Y75747620D01*
X3008095Y75795239D01*
X3055714Y75842858D01*
X3055714Y76176191D01*
X2865238Y76176191D01*
X3484285Y75747620D02*
X3484285Y76747620D01*
X4055714Y75747620D01*
X4055714Y76747620D01*
X4531904Y75747620D02*
X4531904Y76747620D01*
X4770000Y76747620D01*
X4912857Y76700000D01*
X5008095Y76604762D01*
X5055714Y76509524D01*
X5103333Y76319048D01*
X5103333Y76176191D01*
X5055714Y75985715D01*
X5008095Y75890477D01*
X4912857Y75795239D01*
X4770000Y75747620D01*
X4531904Y75747620D01*
X3008095Y74160000D02*
X2912857Y74207620D01*
X2770000Y74207620D01*
X2627142Y74160000D01*
X2531904Y74064762D01*
X2484285Y73969524D01*
X2436666Y73779048D01*
X2436666Y73636191D01*
X2484285Y73445715D01*
X2531904Y73350477D01*
X2627142Y73255239D01*
X2770000Y73207620D01*
X2865238Y73207620D01*
X3008095Y73255239D01*
X3055714Y73302858D01*
X3055714Y73636191D01*
X2865238Y73636191D01*
X3484285Y73207620D02*
X3484285Y74207620D01*
X4055714Y73207620D01*
X4055714Y74207620D01*
X4531904Y73207620D02*
X4531904Y74207620D01*
X4770000Y74207620D01*
X4912857Y74160000D01*
X5008095Y74064762D01*
X5055714Y73969524D01*
X5103333Y73779048D01*
X5103333Y73636191D01*
X5055714Y73445715D01*
X5008095Y73350477D01*
X4912857Y73255239D01*
X4770000Y73207620D01*
X4531904Y73207620D01*
X35425000Y67039762D02*
X35472619Y67135000D01*
X35472619Y67277858D01*
X35425000Y67420715D01*
X35329761Y67515953D01*
X35234523Y67563572D01*
X35044047Y67611191D01*
X34901190Y67611191D01*
X34710714Y67563572D01*
X34615476Y67515953D01*
X34520238Y67420715D01*
X34472619Y67277858D01*
X34472619Y67182620D01*
X34520238Y67039762D01*
X34567857Y66992143D01*
X34901190Y66992143D01*
X34901190Y67182620D01*
X34758333Y66611191D02*
X34758333Y66135000D01*
X34472619Y66706429D02*
X35472619Y66373096D01*
X34472619Y66039762D01*
X34472619Y65230239D02*
X34472619Y65706429D01*
X35472619Y65706429D01*
X35377380Y64944524D02*
X35425000Y64896905D01*
X35472619Y64801667D01*
X35472619Y64563572D01*
X35425000Y64468334D01*
X35377380Y64420715D01*
X35282142Y64373096D01*
X35186904Y64373096D01*
X35044047Y64420715D01*
X34472619Y64992143D01*
X34472619Y64373096D01*
X35377380Y63992143D02*
X35425000Y63944524D01*
X35472619Y63849286D01*
X35472619Y63611191D01*
X35425000Y63515953D01*
X35377380Y63468334D01*
X35282142Y63420715D01*
X35186904Y63420715D01*
X35044047Y63468334D01*
X34472619Y64039762D01*
X34472619Y63420715D01*
X35472619Y63135000D02*
X34472619Y62801667D01*
X35472619Y62468334D01*
X34472619Y61611191D02*
X34472619Y62182620D01*
X34472619Y61896905D02*
X35472619Y61896905D01*
X35329761Y61992143D01*
X35234523Y62087381D01*
X35186904Y62182620D01*
X35472619Y60992143D02*
X35472619Y60896905D01*
X35425000Y60801667D01*
X35377380Y60754048D01*
X35282142Y60706429D01*
X35091666Y60658810D01*
X34853571Y60658810D01*
X34663095Y60706429D01*
X34567857Y60754048D01*
X34520238Y60801667D01*
X34472619Y60896905D01*
X34472619Y60992143D01*
X34520238Y61087381D01*
X34567857Y61135000D01*
X34663095Y61182620D01*
X34853571Y61230239D01*
X35091666Y61230239D01*
X35282142Y61182620D01*
X35377380Y61135000D01*
X35425000Y61087381D01*
X35472619Y60992143D01*
X46047619Y89272858D02*
X46047619Y89177620D01*
X46000000Y89082381D01*
X45952380Y89034762D01*
X45857142Y88987143D01*
X45666666Y88939524D01*
X45428571Y88939524D01*
X45238095Y88987143D01*
X45142857Y89034762D01*
X45095238Y89082381D01*
X45047619Y89177620D01*
X45047619Y89272858D01*
X45095238Y89368096D01*
X45142857Y89415715D01*
X45238095Y89463334D01*
X45428571Y89510953D01*
X45666666Y89510953D01*
X45857142Y89463334D01*
X45952380Y89415715D01*
X46000000Y89368096D01*
X46047619Y89272858D01*
X45142857Y88510953D02*
X45095238Y88463334D01*
X45047619Y88510953D01*
X45095238Y88558572D01*
X45142857Y88510953D01*
X45047619Y88510953D01*
X45047619Y87510953D02*
X45047619Y88082381D01*
X45047619Y87796667D02*
X46047619Y87796667D01*
X45904761Y87891905D01*
X45809523Y87987143D01*
X45761904Y88082381D01*
X45714285Y86653810D02*
X45047619Y86653810D01*
X45714285Y87082381D02*
X45190476Y87082381D01*
X45095238Y87034762D01*
X45047619Y86939524D01*
X45047619Y86796667D01*
X45095238Y86701429D01*
X45142857Y86653810D01*
X45571428Y85844286D02*
X45571428Y86177620D01*
X45047619Y86177620D02*
X46047619Y86177620D01*
X46047619Y85701429D01*
X42417619Y48632858D02*
X42417619Y48537620D01*
X42370000Y48442381D01*
X42322380Y48394762D01*
X42227142Y48347143D01*
X42036666Y48299524D01*
X41798571Y48299524D01*
X41608095Y48347143D01*
X41512857Y48394762D01*
X41465238Y48442381D01*
X41417619Y48537620D01*
X41417619Y48632858D01*
X41465238Y48728096D01*
X41512857Y48775715D01*
X41608095Y48823334D01*
X41798571Y48870953D01*
X42036666Y48870953D01*
X42227142Y48823334D01*
X42322380Y48775715D01*
X42370000Y48728096D01*
X42417619Y48632858D01*
X41512857Y47870953D02*
X41465238Y47823334D01*
X41417619Y47870953D01*
X41465238Y47918572D01*
X41512857Y47870953D01*
X41417619Y47870953D01*
X41417619Y46870953D02*
X41417619Y47442381D01*
X41417619Y47156667D02*
X42417619Y47156667D01*
X42274761Y47251905D01*
X42179523Y47347143D01*
X42131904Y47442381D01*
X42084285Y46013810D02*
X41417619Y46013810D01*
X42084285Y46442381D02*
X41560476Y46442381D01*
X41465238Y46394762D01*
X41417619Y46299524D01*
X41417619Y46156667D01*
X41465238Y46061429D01*
X41512857Y46013810D01*
X41941428Y45204286D02*
X41941428Y45537620D01*
X41417619Y45537620D02*
X42417619Y45537620D01*
X42417619Y45061429D01*
X2619523Y55713334D02*
X3095714Y55713334D01*
X2524285Y55427620D02*
X2857619Y56427620D01*
X3190952Y55427620D01*
X4048095Y55427620D02*
X3476666Y55427620D01*
X3762380Y55427620D02*
X3762380Y56427620D01*
X3667142Y56284762D01*
X3571904Y56189524D01*
X3476666Y56141905D01*
X4952857Y56427620D02*
X4476666Y56427620D01*
X4429047Y55951429D01*
X4476666Y55999048D01*
X4571904Y56046667D01*
X4810000Y56046667D01*
X4905238Y55999048D01*
X4952857Y55951429D01*
X5000476Y55856191D01*
X5000476Y55618096D01*
X4952857Y55522858D01*
X4905238Y55475239D01*
X4810000Y55427620D01*
X4571904Y55427620D01*
X4476666Y55475239D01*
X4429047Y55522858D01*
X2619523Y45553334D02*
X3095714Y45553334D01*
X2524285Y45267620D02*
X2857619Y46267620D01*
X3190952Y45267620D01*
X4048095Y45267620D02*
X3476666Y45267620D01*
X3762380Y45267620D02*
X3762380Y46267620D01*
X3667142Y46124762D01*
X3571904Y46029524D01*
X3476666Y45981905D01*
X5000476Y45267620D02*
X4429047Y45267620D01*
X4714761Y45267620D02*
X4714761Y46267620D01*
X4619523Y46124762D01*
X4524285Y46029524D01*
X4429047Y45981905D01*
D11*
X2286190Y28790000D02*
X2786190Y28790000D01*
X2690952Y27487620D02*
X2524285Y27963810D01*
X2405238Y27487620D02*
X2405238Y28487620D01*
X2595714Y28487620D01*
X2643333Y28440000D01*
X2667142Y28392381D01*
X2690952Y28297143D01*
X2690952Y28154286D01*
X2667142Y28059048D01*
X2643333Y28011429D01*
X2595714Y27963810D01*
X2405238Y27963810D01*
X2786190Y28790000D02*
X3310000Y28790000D01*
X3000476Y28487620D02*
X3095714Y28487620D01*
X3143333Y28440000D01*
X3190952Y28344762D01*
X3214761Y28154286D01*
X3214761Y27820953D01*
X3190952Y27630477D01*
X3143333Y27535239D01*
X3095714Y27487620D01*
X3000476Y27487620D01*
X2952857Y27535239D01*
X2905238Y27630477D01*
X2881428Y27820953D01*
X2881428Y28154286D01*
X2905238Y28344762D01*
X2952857Y28440000D01*
X3000476Y28487620D01*
X3310000Y28790000D02*
X3881428Y28790000D01*
X3429047Y27487620D02*
X3429047Y28487620D01*
X3595714Y27773334D01*
X3762380Y28487620D01*
X3762380Y27487620D01*
X3881428Y28790000D02*
X4381428Y28790000D01*
X4000476Y27487620D02*
X4000476Y28487620D01*
X4119523Y28487620D01*
X4190952Y28440000D01*
X4238571Y28344762D01*
X4262380Y28249524D01*
X4286190Y28059048D01*
X4286190Y27916191D01*
X4262380Y27725715D01*
X4238571Y27630477D01*
X4190952Y27535239D01*
X4119523Y27487620D01*
X4000476Y27487620D01*
X4381428Y28790000D02*
X4857619Y28790000D01*
X4476666Y27535239D02*
X4548095Y27487620D01*
X4667142Y27487620D01*
X4714761Y27535239D01*
X4738571Y27582858D01*
X4762380Y27678096D01*
X4762380Y27773334D01*
X4738571Y27868572D01*
X4714761Y27916191D01*
X4667142Y27963810D01*
X4571904Y28011429D01*
X4524285Y28059048D01*
X4500476Y28106667D01*
X4476666Y28201905D01*
X4476666Y28297143D01*
X4500476Y28392381D01*
X4524285Y28440000D01*
X4571904Y28487620D01*
X4690952Y28487620D01*
X4762380Y28440000D01*
X4857619Y28790000D02*
X5333809Y28790000D01*
X4929047Y28487620D02*
X5238571Y28487620D01*
X5071904Y28106667D01*
X5143333Y28106667D01*
X5190952Y28059048D01*
X5214761Y28011429D01*
X5238571Y27916191D01*
X5238571Y27678096D01*
X5214761Y27582858D01*
X5190952Y27535239D01*
X5143333Y27487620D01*
X5000476Y27487620D01*
X4952857Y27535239D01*
X4929047Y27582858D01*
D10*
X28447619Y27114286D02*
X28447619Y27304762D01*
X28400000Y27400000D01*
X28352380Y27447620D01*
X28209523Y27542858D01*
X28019047Y27590477D01*
X27638095Y27590477D01*
X27542857Y27542858D01*
X27495238Y27495239D01*
X27447619Y27400000D01*
X27447619Y27209524D01*
X27495238Y27114286D01*
X27542857Y27066667D01*
X27638095Y27019048D01*
X27876190Y27019048D01*
X27971428Y27066667D01*
X28019047Y27114286D01*
X28066666Y27209524D01*
X28066666Y27400000D01*
X28019047Y27495239D01*
X27971428Y27542858D01*
X27876190Y27590477D01*
X28352380Y26638096D02*
X28400000Y26590477D01*
X28447619Y26495239D01*
X28447619Y26257143D01*
X28400000Y26161905D01*
X28352380Y26114286D01*
X28257142Y26066667D01*
X28161904Y26066667D01*
X28019047Y26114286D01*
X27447619Y26685715D01*
X27447619Y26066667D01*
X28352380Y25685715D02*
X28400000Y25638096D01*
X28447619Y25542858D01*
X28447619Y25304762D01*
X28400000Y25209524D01*
X28352380Y25161905D01*
X28257142Y25114286D01*
X28161904Y25114286D01*
X28019047Y25161905D01*
X27447619Y25733334D01*
X27447619Y25114286D01*
X28447619Y24209524D02*
X28447619Y24685715D01*
X27971428Y24733334D01*
X28019047Y24685715D01*
X28066666Y24590477D01*
X28066666Y24352381D01*
X28019047Y24257143D01*
X27971428Y24209524D01*
X27876190Y24161905D01*
X27638095Y24161905D01*
X27542857Y24209524D01*
X27495238Y24257143D01*
X27447619Y24352381D01*
X27447619Y24590477D01*
X27495238Y24685715D01*
X27542857Y24733334D01*
X28447619Y23304762D02*
X28447619Y23495239D01*
X28400000Y23590477D01*
X28352380Y23638096D01*
X28209523Y23733334D01*
X28019047Y23780953D01*
X27638095Y23780953D01*
X27542857Y23733334D01*
X27495238Y23685715D01*
X27447619Y23590477D01*
X27447619Y23400000D01*
X27495238Y23304762D01*
X27542857Y23257143D01*
X27638095Y23209524D01*
X27876190Y23209524D01*
X27971428Y23257143D01*
X28019047Y23304762D01*
X28066666Y23400000D01*
X28066666Y23590477D01*
X28019047Y23685715D01*
X27971428Y23733334D01*
X27876190Y23780953D01*
X1452619Y88986667D02*
X2452619Y88986667D01*
X2452619Y88605715D01*
X2405000Y88510477D01*
X2357380Y88462858D01*
X2262142Y88415239D01*
X2119285Y88415239D01*
X2024047Y88462858D01*
X1976428Y88510477D01*
X1928809Y88605715D01*
X1928809Y88986667D01*
X1547857Y87415239D02*
X1500238Y87462858D01*
X1452619Y87605715D01*
X1452619Y87700953D01*
X1500238Y87843810D01*
X1595476Y87939048D01*
X1690714Y87986667D01*
X1881190Y88034286D01*
X2024047Y88034286D01*
X2214523Y87986667D01*
X2309761Y87939048D01*
X2405000Y87843810D01*
X2452619Y87700953D01*
X2452619Y87605715D01*
X2405000Y87462858D01*
X2357380Y87415239D01*
X1833571Y86986667D02*
X1833571Y86224762D01*
X2024047Y85605715D02*
X2071666Y85700953D01*
X2119285Y85748572D01*
X2214523Y85796191D01*
X2262142Y85796191D01*
X2357380Y85748572D01*
X2405000Y85700953D01*
X2452619Y85605715D01*
X2452619Y85415239D01*
X2405000Y85320000D01*
X2357380Y85272381D01*
X2262142Y85224762D01*
X2214523Y85224762D01*
X2119285Y85272381D01*
X2071666Y85320000D01*
X2024047Y85415239D01*
X2024047Y85605715D01*
X1976428Y85700953D01*
X1928809Y85748572D01*
X1833571Y85796191D01*
X1643095Y85796191D01*
X1547857Y85748572D01*
X1500238Y85700953D01*
X1452619Y85605715D01*
X1452619Y85415239D01*
X1500238Y85320000D01*
X1547857Y85272381D01*
X1643095Y85224762D01*
X1833571Y85224762D01*
X1928809Y85272381D01*
X1976428Y85320000D01*
X2024047Y85415239D01*
X2452619Y84605715D02*
X2452619Y84510477D01*
X2405000Y84415239D01*
X2357380Y84367620D01*
X2262142Y84320000D01*
X2071666Y84272381D01*
X1833571Y84272381D01*
X1643095Y84320000D01*
X1547857Y84367620D01*
X1500238Y84415239D01*
X1452619Y84510477D01*
X1452619Y84605715D01*
X1500238Y84700953D01*
X1547857Y84748572D01*
X1643095Y84796191D01*
X1833571Y84843810D01*
X2071666Y84843810D01*
X2262142Y84796191D01*
X2357380Y84748572D01*
X2405000Y84700953D01*
X2452619Y84605715D01*
X2452619Y83653334D02*
X2452619Y83558096D01*
X2405000Y83462858D01*
X2357380Y83415239D01*
X2262142Y83367620D01*
X2071666Y83320000D01*
X1833571Y83320000D01*
X1643095Y83367620D01*
X1547857Y83415239D01*
X1500238Y83462858D01*
X1452619Y83558096D01*
X1452619Y83653334D01*
X1500238Y83748572D01*
X1547857Y83796191D01*
X1643095Y83843810D01*
X1833571Y83891429D01*
X2071666Y83891429D01*
X2262142Y83843810D01*
X2357380Y83796191D01*
X2405000Y83748572D01*
X2452619Y83653334D01*
X1452619Y82367620D02*
X1452619Y82939048D01*
X1452619Y82653334D02*
X2452619Y82653334D01*
X2309761Y82748572D01*
X2214523Y82843810D01*
X2166904Y82939048D01*
X1976428Y80843810D02*
X1928809Y80700953D01*
X1881190Y80653334D01*
X1785952Y80605715D01*
X1643095Y80605715D01*
X1547857Y80653334D01*
X1500238Y80700953D01*
X1452619Y80796191D01*
X1452619Y81177143D01*
X2452619Y81177143D01*
X2452619Y80843810D01*
X2405000Y80748572D01*
X2357380Y80700953D01*
X2262142Y80653334D01*
X2166904Y80653334D01*
X2071666Y80700953D01*
X2024047Y80748572D01*
X1976428Y80843810D01*
X1976428Y81177143D01*
X2452619Y80177143D02*
X1643095Y80177143D01*
X1547857Y80129524D01*
X1500238Y80081905D01*
X1452619Y79986667D01*
X1452619Y79796191D01*
X1500238Y79700953D01*
X1547857Y79653334D01*
X1643095Y79605715D01*
X2452619Y79605715D01*
X1500238Y79177143D02*
X1452619Y79034286D01*
X1452619Y78796191D01*
X1500238Y78700953D01*
X1547857Y78653334D01*
X1643095Y78605715D01*
X1738333Y78605715D01*
X1833571Y78653334D01*
X1881190Y78700953D01*
X1928809Y78796191D01*
X1976428Y78986667D01*
X2024047Y79081905D01*
X2071666Y79129524D01*
X2166904Y79177143D01*
X2262142Y79177143D01*
X2357380Y79129524D01*
X2405000Y79081905D01*
X2452619Y78986667D01*
X2452619Y78748572D01*
X2405000Y78605715D01*
X8437619Y8532620D02*
X8437619Y9104048D01*
X8437619Y8818334D02*
X9437619Y8818334D01*
X9294761Y8913572D01*
X9199523Y9008810D01*
X9151904Y9104048D01*
X9437619Y7913572D02*
X9437619Y7818334D01*
X9390000Y7723096D01*
X9342380Y7675477D01*
X9247142Y7627858D01*
X9056666Y7580239D01*
X8818571Y7580239D01*
X8628095Y7627858D01*
X8532857Y7675477D01*
X8485238Y7723096D01*
X8437619Y7818334D01*
X8437619Y7913572D01*
X8485238Y8008810D01*
X8532857Y8056429D01*
X8628095Y8104048D01*
X8818571Y8151667D01*
X9056666Y8151667D01*
X9247142Y8104048D01*
X9342380Y8056429D01*
X9390000Y8008810D01*
X9437619Y7913572D01*
X9437619Y6961191D02*
X9437619Y6865953D01*
X9390000Y6770715D01*
X9342380Y6723096D01*
X9247142Y6675477D01*
X9056666Y6627858D01*
X8818571Y6627858D01*
X8628095Y6675477D01*
X8532857Y6723096D01*
X8485238Y6770715D01*
X8437619Y6865953D01*
X8437619Y6961191D01*
X8485238Y7056429D01*
X8532857Y7104048D01*
X8628095Y7151667D01*
X8818571Y7199286D01*
X9056666Y7199286D01*
X9247142Y7151667D01*
X9342380Y7104048D01*
X9390000Y7056429D01*
X9437619Y6961191D01*
X9104285Y5770715D02*
X8437619Y5770715D01*
X9104285Y6199286D02*
X8580476Y6199286D01*
X8485238Y6151667D01*
X8437619Y6056429D01*
X8437619Y5913572D01*
X8485238Y5818334D01*
X8532857Y5770715D01*
X8961428Y4961191D02*
X8961428Y5294524D01*
X8437619Y5294524D02*
X9437619Y5294524D01*
X9437619Y4818334D01*
X2619523Y53173334D02*
X3095714Y53173334D01*
X2524285Y52887620D02*
X2857619Y53887620D01*
X3190952Y52887620D01*
X4048095Y52887620D02*
X3476666Y52887620D01*
X3762380Y52887620D02*
X3762380Y53887620D01*
X3667142Y53744762D01*
X3571904Y53649524D01*
X3476666Y53601905D01*
X4905238Y53554286D02*
X4905238Y52887620D01*
X4667142Y53935239D02*
X4429047Y53220953D01*
X5048095Y53220953D01*
D11*
X2679047Y59270000D02*
X3179047Y59270000D01*
X3083809Y57967620D02*
X2917142Y58443810D01*
X2798095Y57967620D02*
X2798095Y58967620D01*
X2988571Y58967620D01*
X3036190Y58920000D01*
X3060000Y58872381D01*
X3083809Y58777143D01*
X3083809Y58634286D01*
X3060000Y58539048D01*
X3036190Y58491429D01*
X2988571Y58443810D01*
X2798095Y58443810D01*
X3179047Y59270000D02*
X3631428Y59270000D01*
X3298095Y58491429D02*
X3464761Y58491429D01*
X3536190Y57967620D02*
X3298095Y57967620D01*
X3298095Y58967620D01*
X3536190Y58967620D01*
X3631428Y59270000D02*
X4107619Y59270000D01*
X3726666Y58015239D02*
X3798095Y57967620D01*
X3917142Y57967620D01*
X3964761Y58015239D01*
X3988571Y58062858D01*
X4012380Y58158096D01*
X4012380Y58253334D01*
X3988571Y58348572D01*
X3964761Y58396191D01*
X3917142Y58443810D01*
X3821904Y58491429D01*
X3774285Y58539048D01*
X3750476Y58586667D01*
X3726666Y58681905D01*
X3726666Y58777143D01*
X3750476Y58872381D01*
X3774285Y58920000D01*
X3821904Y58967620D01*
X3940952Y58967620D01*
X4012380Y58920000D01*
X4107619Y59270000D02*
X4560000Y59270000D01*
X4226666Y58491429D02*
X4393333Y58491429D01*
X4464761Y57967620D02*
X4226666Y57967620D01*
X4226666Y58967620D01*
X4464761Y58967620D01*
X4560000Y59270000D02*
X4940952Y59270000D01*
X4607619Y58967620D02*
X4893333Y58967620D01*
X4750476Y57967620D02*
X4750476Y58967620D01*
D10*
X3095714Y37933334D02*
X3571904Y37933334D01*
X3000476Y37647620D02*
X3333809Y38647620D01*
X3667142Y37647620D01*
X4143333Y38219048D02*
X4048095Y38266667D01*
X4000476Y38314286D01*
X3952857Y38409524D01*
X3952857Y38457143D01*
X4000476Y38552381D01*
X4048095Y38600000D01*
X4143333Y38647620D01*
X4333809Y38647620D01*
X4429047Y38600000D01*
X4476666Y38552381D01*
X4524285Y38457143D01*
X4524285Y38409524D01*
X4476666Y38314286D01*
X4429047Y38266667D01*
X4333809Y38219048D01*
X4143333Y38219048D01*
X4048095Y38171429D01*
X4000476Y38123810D01*
X3952857Y38028572D01*
X3952857Y37838096D01*
X4000476Y37742858D01*
X4048095Y37695239D01*
X4143333Y37647620D01*
X4333809Y37647620D01*
X4429047Y37695239D01*
X4476666Y37742858D01*
X4524285Y37838096D01*
X4524285Y38028572D01*
X4476666Y38123810D01*
X4429047Y38171429D01*
X4333809Y38219048D01*
X10874523Y13882620D02*
X11207857Y12882620D01*
X11541190Y13882620D01*
X12303095Y12930239D02*
X12207857Y12882620D01*
X12017380Y12882620D01*
X11922142Y12930239D01*
X11874523Y12977858D01*
X11826904Y13073096D01*
X11826904Y13358810D01*
X11874523Y13454048D01*
X11922142Y13501667D01*
X12017380Y13549286D01*
X12207857Y13549286D01*
X12303095Y13501667D01*
X13160238Y12930239D02*
X13065000Y12882620D01*
X12874523Y12882620D01*
X12779285Y12930239D01*
X12731666Y12977858D01*
X12684047Y13073096D01*
X12684047Y13358810D01*
X12731666Y13454048D01*
X12779285Y13501667D01*
X12874523Y13549286D01*
X13065000Y13549286D01*
X13160238Y13501667D01*
X11326904Y17327620D02*
X11326904Y18327620D01*
X11565000Y18327620D01*
X11707857Y18280000D01*
X11803095Y18184762D01*
X11850714Y18089524D01*
X11898333Y17899048D01*
X11898333Y17756191D01*
X11850714Y17565715D01*
X11803095Y17470477D01*
X11707857Y17375239D01*
X11565000Y17327620D01*
X11326904Y17327620D01*
X12517380Y18327620D02*
X12612619Y18327620D01*
X12707857Y18280000D01*
X12755476Y18232381D01*
X12803095Y18137143D01*
X12850714Y17946667D01*
X12850714Y17708572D01*
X12803095Y17518096D01*
X12755476Y17422858D01*
X12707857Y17375239D01*
X12612619Y17327620D01*
X12517380Y17327620D01*
X12422142Y17375239D01*
X12374523Y17422858D01*
X12326904Y17518096D01*
X12279285Y17708572D01*
X12279285Y17946667D01*
X12326904Y18137143D01*
X12374523Y18232381D01*
X12422142Y18280000D01*
X12517380Y18327620D01*
X11326904Y19867620D02*
X11326904Y20867620D01*
X11565000Y20867620D01*
X11707857Y20820000D01*
X11803095Y20724762D01*
X11850714Y20629524D01*
X11898333Y20439048D01*
X11898333Y20296191D01*
X11850714Y20105715D01*
X11803095Y20010477D01*
X11707857Y19915239D01*
X11565000Y19867620D01*
X11326904Y19867620D01*
X12850714Y19867620D02*
X12279285Y19867620D01*
X12565000Y19867620D02*
X12565000Y20867620D01*
X12469761Y20724762D01*
X12374523Y20629524D01*
X12279285Y20581905D01*
X11326904Y22407620D02*
X11326904Y23407620D01*
X11565000Y23407620D01*
X11707857Y23360000D01*
X11803095Y23264762D01*
X11850714Y23169524D01*
X11898333Y22979048D01*
X11898333Y22836191D01*
X11850714Y22645715D01*
X11803095Y22550477D01*
X11707857Y22455239D01*
X11565000Y22407620D01*
X11326904Y22407620D01*
X12279285Y23312381D02*
X12326904Y23360000D01*
X12422142Y23407620D01*
X12660238Y23407620D01*
X12755476Y23360000D01*
X12803095Y23312381D01*
X12850714Y23217143D01*
X12850714Y23121905D01*
X12803095Y22979048D01*
X12231666Y22407620D01*
X12850714Y22407620D01*
X11326904Y24947620D02*
X11326904Y25947620D01*
X11565000Y25947620D01*
X11707857Y25900000D01*
X11803095Y25804762D01*
X11850714Y25709524D01*
X11898333Y25519048D01*
X11898333Y25376191D01*
X11850714Y25185715D01*
X11803095Y25090477D01*
X11707857Y24995239D01*
X11565000Y24947620D01*
X11326904Y24947620D01*
X12231666Y25947620D02*
X12850714Y25947620D01*
X12517380Y25566667D01*
X12660238Y25566667D01*
X12755476Y25519048D01*
X12803095Y25471429D01*
X12850714Y25376191D01*
X12850714Y25138096D01*
X12803095Y25042858D01*
X12755476Y24995239D01*
X12660238Y24947620D01*
X12374523Y24947620D01*
X12279285Y24995239D01*
X12231666Y25042858D01*
X11326904Y27487620D02*
X11326904Y28487620D01*
X11565000Y28487620D01*
X11707857Y28440000D01*
X11803095Y28344762D01*
X11850714Y28249524D01*
X11898333Y28059048D01*
X11898333Y27916191D01*
X11850714Y27725715D01*
X11803095Y27630477D01*
X11707857Y27535239D01*
X11565000Y27487620D01*
X11326904Y27487620D01*
X12755476Y28154286D02*
X12755476Y27487620D01*
X12517380Y28535239D02*
X12279285Y27820953D01*
X12898333Y27820953D01*
X11326904Y30027620D02*
X11326904Y31027620D01*
X11565000Y31027620D01*
X11707857Y30980000D01*
X11803095Y30884762D01*
X11850714Y30789524D01*
X11898333Y30599048D01*
X11898333Y30456191D01*
X11850714Y30265715D01*
X11803095Y30170477D01*
X11707857Y30075239D01*
X11565000Y30027620D01*
X11326904Y30027620D01*
X12803095Y31027620D02*
X12326904Y31027620D01*
X12279285Y30551429D01*
X12326904Y30599048D01*
X12422142Y30646667D01*
X12660238Y30646667D01*
X12755476Y30599048D01*
X12803095Y30551429D01*
X12850714Y30456191D01*
X12850714Y30218096D01*
X12803095Y30122858D01*
X12755476Y30075239D01*
X12660238Y30027620D01*
X12422142Y30027620D01*
X12326904Y30075239D01*
X12279285Y30122858D01*
X11326904Y32567620D02*
X11326904Y33567620D01*
X11565000Y33567620D01*
X11707857Y33520000D01*
X11803095Y33424762D01*
X11850714Y33329524D01*
X11898333Y33139048D01*
X11898333Y32996191D01*
X11850714Y32805715D01*
X11803095Y32710477D01*
X11707857Y32615239D01*
X11565000Y32567620D01*
X11326904Y32567620D01*
X12755476Y33567620D02*
X12565000Y33567620D01*
X12469761Y33520000D01*
X12422142Y33472381D01*
X12326904Y33329524D01*
X12279285Y33139048D01*
X12279285Y32758096D01*
X12326904Y32662858D01*
X12374523Y32615239D01*
X12469761Y32567620D01*
X12660238Y32567620D01*
X12755476Y32615239D01*
X12803095Y32662858D01*
X12850714Y32758096D01*
X12850714Y32996191D01*
X12803095Y33091429D01*
X12755476Y33139048D01*
X12660238Y33186667D01*
X12469761Y33186667D01*
X12374523Y33139048D01*
X12326904Y33091429D01*
X12279285Y32996191D01*
X11350714Y37933334D02*
X11826904Y37933334D01*
X11255476Y37647620D02*
X11588809Y38647620D01*
X11922142Y37647620D01*
X12445952Y38647620D02*
X12541190Y38647620D01*
X12636428Y38600000D01*
X12684047Y38552381D01*
X12731666Y38457143D01*
X12779285Y38266667D01*
X12779285Y38028572D01*
X12731666Y37838096D01*
X12684047Y37742858D01*
X12636428Y37695239D01*
X12541190Y37647620D01*
X12445952Y37647620D01*
X12350714Y37695239D01*
X12303095Y37742858D01*
X12255476Y37838096D01*
X12207857Y38028572D01*
X12207857Y38266667D01*
X12255476Y38457143D01*
X12303095Y38552381D01*
X12350714Y38600000D01*
X12445952Y38647620D01*
X11350714Y40473334D02*
X11826904Y40473334D01*
X11255476Y40187620D02*
X11588809Y41187620D01*
X11922142Y40187620D01*
X12779285Y40187620D02*
X12207857Y40187620D01*
X12493571Y40187620D02*
X12493571Y41187620D01*
X12398333Y41044762D01*
X12303095Y40949524D01*
X12207857Y40901905D01*
X11350714Y43013334D02*
X11826904Y43013334D01*
X11255476Y42727620D02*
X11588809Y43727620D01*
X11922142Y42727620D01*
X12207857Y43632381D02*
X12255476Y43680000D01*
X12350714Y43727620D01*
X12588809Y43727620D01*
X12684047Y43680000D01*
X12731666Y43632381D01*
X12779285Y43537143D01*
X12779285Y43441905D01*
X12731666Y43299048D01*
X12160238Y42727620D01*
X12779285Y42727620D01*
X11350714Y45553334D02*
X11826904Y45553334D01*
X11255476Y45267620D02*
X11588809Y46267620D01*
X11922142Y45267620D01*
X12160238Y46267620D02*
X12779285Y46267620D01*
X12445952Y45886667D01*
X12588809Y45886667D01*
X12684047Y45839048D01*
X12731666Y45791429D01*
X12779285Y45696191D01*
X12779285Y45458096D01*
X12731666Y45362858D01*
X12684047Y45315239D01*
X12588809Y45267620D01*
X12303095Y45267620D01*
X12207857Y45315239D01*
X12160238Y45362858D01*
X11350714Y48093334D02*
X11826904Y48093334D01*
X11255476Y47807620D02*
X11588809Y48807620D01*
X11922142Y47807620D01*
X12684047Y48474286D02*
X12684047Y47807620D01*
X12445952Y48855239D02*
X12207857Y48140953D01*
X12826904Y48140953D01*
X11350714Y50633334D02*
X11826904Y50633334D01*
X11255476Y50347620D02*
X11588809Y51347620D01*
X11922142Y50347620D01*
X12731666Y51347620D02*
X12255476Y51347620D01*
X12207857Y50871429D01*
X12255476Y50919048D01*
X12350714Y50966667D01*
X12588809Y50966667D01*
X12684047Y50919048D01*
X12731666Y50871429D01*
X12779285Y50776191D01*
X12779285Y50538096D01*
X12731666Y50442858D01*
X12684047Y50395239D01*
X12588809Y50347620D01*
X12350714Y50347620D01*
X12255476Y50395239D01*
X12207857Y50442858D01*
X11350714Y53173334D02*
X11826904Y53173334D01*
X11255476Y52887620D02*
X11588809Y53887620D01*
X11922142Y52887620D01*
X12684047Y53887620D02*
X12493571Y53887620D01*
X12398333Y53840000D01*
X12350714Y53792381D01*
X12255476Y53649524D01*
X12207857Y53459048D01*
X12207857Y53078096D01*
X12255476Y52982858D01*
X12303095Y52935239D01*
X12398333Y52887620D01*
X12588809Y52887620D01*
X12684047Y52935239D01*
X12731666Y52982858D01*
X12779285Y53078096D01*
X12779285Y53316191D01*
X12731666Y53411429D01*
X12684047Y53459048D01*
X12588809Y53506667D01*
X12398333Y53506667D01*
X12303095Y53459048D01*
X12255476Y53411429D01*
X12207857Y53316191D01*
X11350714Y55713334D02*
X11826904Y55713334D01*
X11255476Y55427620D02*
X11588809Y56427620D01*
X11922142Y55427620D01*
X12160238Y56427620D02*
X12826904Y56427620D01*
X12398333Y55427620D01*
X11065000Y59335000D02*
X12065000Y59335000D01*
X11874523Y57967620D02*
X11541190Y58443810D01*
X11303095Y57967620D02*
X11303095Y58967620D01*
X11684047Y58967620D01*
X11779285Y58920000D01*
X11826904Y58872381D01*
X11874523Y58777143D01*
X11874523Y58634286D01*
X11826904Y58539048D01*
X11779285Y58491429D01*
X11684047Y58443810D01*
X11303095Y58443810D01*
X12065000Y59335000D02*
X13065000Y59335000D01*
X12303095Y57967620D02*
X12303095Y58967620D01*
X12541190Y58967620D01*
X12684047Y58920000D01*
X12779285Y58824762D01*
X12826904Y58729524D01*
X12874523Y58539048D01*
X12874523Y58396191D01*
X12826904Y58205715D01*
X12779285Y58110477D01*
X12684047Y58015239D01*
X12541190Y57967620D01*
X12303095Y57967620D01*
X10993571Y61875000D02*
X12136428Y61875000D01*
X11136428Y61507620D02*
X11374523Y60507620D01*
X11565000Y61221905D01*
X11755476Y60507620D01*
X11993571Y61507620D01*
X12136428Y61875000D02*
X13136428Y61875000D01*
X12945952Y60507620D02*
X12612619Y60983810D01*
X12374523Y60507620D02*
X12374523Y61507620D01*
X12755476Y61507620D01*
X12850714Y61460000D01*
X12898333Y61412381D01*
X12945952Y61317143D01*
X12945952Y61174286D01*
X12898333Y61079048D01*
X12850714Y61031429D01*
X12755476Y60983810D01*
X12374523Y60983810D01*
D11*
X11041190Y64350000D02*
X11612619Y64350000D01*
X11160238Y63047620D02*
X11160238Y64047620D01*
X11326904Y63333334D01*
X11493571Y64047620D01*
X11493571Y63047620D01*
X11612619Y64350000D02*
X12112619Y64350000D01*
X12017380Y63047620D02*
X11850714Y63523810D01*
X11731666Y63047620D02*
X11731666Y64047620D01*
X11922142Y64047620D01*
X11969761Y64000000D01*
X11993571Y63952381D01*
X12017380Y63857143D01*
X12017380Y63714286D01*
X11993571Y63619048D01*
X11969761Y63571429D01*
X11922142Y63523810D01*
X11731666Y63523810D01*
X12112619Y64350000D02*
X12565000Y64350000D01*
X12231666Y63571429D02*
X12398333Y63571429D01*
X12469761Y63047620D02*
X12231666Y63047620D01*
X12231666Y64047620D01*
X12469761Y64047620D01*
X12565000Y64350000D02*
X13088809Y64350000D01*
X13017380Y62952381D02*
X12969761Y63000000D01*
X12922142Y63095239D01*
X12850714Y63238096D01*
X12803095Y63285715D01*
X12755476Y63285715D01*
X12779285Y63047620D02*
X12731666Y63095239D01*
X12684047Y63190477D01*
X12660238Y63380953D01*
X12660238Y63714286D01*
X12684047Y63904762D01*
X12731666Y64000000D01*
X12779285Y64047620D01*
X12874523Y64047620D01*
X12922142Y64000000D01*
X12969761Y63904762D01*
X12993571Y63714286D01*
X12993571Y63380953D01*
X12969761Y63190477D01*
X12922142Y63095239D01*
X12874523Y63047620D01*
X12779285Y63047620D01*
X10945952Y66890000D02*
X11184047Y66890000D01*
X11065000Y65587620D02*
X11065000Y66587620D01*
X11184047Y66890000D02*
X11707857Y66890000D01*
X11398333Y66587620D02*
X11493571Y66587620D01*
X11541190Y66540000D01*
X11588809Y66444762D01*
X11612619Y66254286D01*
X11612619Y65920953D01*
X11588809Y65730477D01*
X11541190Y65635239D01*
X11493571Y65587620D01*
X11398333Y65587620D01*
X11350714Y65635239D01*
X11303095Y65730477D01*
X11279285Y65920953D01*
X11279285Y66254286D01*
X11303095Y66444762D01*
X11350714Y66540000D01*
X11398333Y66587620D01*
X11707857Y66890000D02*
X12207857Y66890000D01*
X12112619Y65587620D02*
X11945952Y66063810D01*
X11826904Y65587620D02*
X11826904Y66587620D01*
X12017380Y66587620D01*
X12065000Y66540000D01*
X12088809Y66492381D01*
X12112619Y66397143D01*
X12112619Y66254286D01*
X12088809Y66159048D01*
X12065000Y66111429D01*
X12017380Y66063810D01*
X11826904Y66063810D01*
X12207857Y66890000D02*
X12660238Y66890000D01*
X12326904Y66111429D02*
X12493571Y66111429D01*
X12565000Y65587620D02*
X12326904Y65587620D01*
X12326904Y66587620D01*
X12565000Y66587620D01*
X12660238Y66890000D02*
X13184047Y66890000D01*
X13112619Y65492381D02*
X13065000Y65540000D01*
X13017380Y65635239D01*
X12945952Y65778096D01*
X12898333Y65825715D01*
X12850714Y65825715D01*
X12874523Y65587620D02*
X12826904Y65635239D01*
X12779285Y65730477D01*
X12755476Y65920953D01*
X12755476Y66254286D01*
X12779285Y66444762D01*
X12826904Y66540000D01*
X12874523Y66587620D01*
X12969761Y66587620D01*
X13017380Y66540000D01*
X13065000Y66444762D01*
X13088809Y66254286D01*
X13088809Y65920953D01*
X13065000Y65730477D01*
X13017380Y65635239D01*
X12969761Y65587620D01*
X12874523Y65587620D01*
D12*
X56427857Y58321667D02*
X59427857Y58321667D01*
X59427857Y57559762D01*
X59285000Y57369286D01*
X59142142Y57274048D01*
X58856428Y57178810D01*
X58427857Y57178810D01*
X58142142Y57274048D01*
X57999285Y57369286D01*
X57856428Y57559762D01*
X57856428Y58321667D01*
X56713571Y55178810D02*
X56570714Y55274048D01*
X56427857Y55559762D01*
X56427857Y55750239D01*
X56570714Y56035953D01*
X56856428Y56226429D01*
X57142142Y56321667D01*
X57713571Y56416905D01*
X58142142Y56416905D01*
X58713571Y56321667D01*
X58999285Y56226429D01*
X59285000Y56035953D01*
X59427857Y55750239D01*
X59427857Y55559762D01*
X59285000Y55274048D01*
X59142142Y55178810D01*
X57570714Y54321667D02*
X57570714Y52797858D01*
X58142142Y51559762D02*
X58285000Y51750239D01*
X58427857Y51845477D01*
X58713571Y51940715D01*
X58856428Y51940715D01*
X59142142Y51845477D01*
X59285000Y51750239D01*
X59427857Y51559762D01*
X59427857Y51178810D01*
X59285000Y50988334D01*
X59142142Y50893096D01*
X58856428Y50797858D01*
X58713571Y50797858D01*
X58427857Y50893096D01*
X58285000Y50988334D01*
X58142142Y51178810D01*
X58142142Y51559762D01*
X57999285Y51750239D01*
X57856428Y51845477D01*
X57570714Y51940715D01*
X56999285Y51940715D01*
X56713571Y51845477D01*
X56570714Y51750239D01*
X56427857Y51559762D01*
X56427857Y51178810D01*
X56570714Y50988334D01*
X56713571Y50893096D01*
X56999285Y50797858D01*
X57570714Y50797858D01*
X57856428Y50893096D01*
X57999285Y50988334D01*
X58142142Y51178810D01*
X59427857Y49559762D02*
X59427857Y49369286D01*
X59285000Y49178810D01*
X59142142Y49083572D01*
X58856428Y48988334D01*
X58285000Y48893096D01*
X57570714Y48893096D01*
X56999285Y48988334D01*
X56713571Y49083572D01*
X56570714Y49178810D01*
X56427857Y49369286D01*
X56427857Y49559762D01*
X56570714Y49750239D01*
X56713571Y49845477D01*
X56999285Y49940715D01*
X57570714Y50035953D01*
X58285000Y50035953D01*
X58856428Y49940715D01*
X59142142Y49845477D01*
X59285000Y49750239D01*
X59427857Y49559762D01*
X59427857Y47655000D02*
X59427857Y47464524D01*
X59285000Y47274048D01*
X59142142Y47178810D01*
X58856428Y47083572D01*
X58285000Y46988334D01*
X57570714Y46988334D01*
X56999285Y47083572D01*
X56713571Y47178810D01*
X56570714Y47274048D01*
X56427857Y47464524D01*
X56427857Y47655000D01*
X56570714Y47845477D01*
X56713571Y47940715D01*
X56999285Y48035953D01*
X57570714Y48131191D01*
X58285000Y48131191D01*
X58856428Y48035953D01*
X59142142Y47940715D01*
X59285000Y47845477D01*
X59427857Y47655000D01*
X56427857Y45083572D02*
X56427857Y46226429D01*
X56427857Y45655000D02*
X59427857Y45655000D01*
X58999285Y45845477D01*
X58713571Y46035953D01*
X58570714Y46226429D01*
X59427857Y42893096D02*
X59427857Y41655000D01*
X58285000Y42321667D01*
X58285000Y42035953D01*
X58142142Y41845477D01*
X57999285Y41750239D01*
X57713571Y41655000D01*
X56999285Y41655000D01*
X56713571Y41750239D01*
X56570714Y41845477D01*
X56427857Y42035953D01*
X56427857Y42607381D01*
X56570714Y42797858D01*
X56713571Y42893096D01*
X59142142Y40893096D02*
X59285000Y40797858D01*
X59427857Y40607381D01*
X59427857Y40131191D01*
X59285000Y39940715D01*
X59142142Y39845477D01*
X58856428Y39750239D01*
X58570714Y39750239D01*
X58142142Y39845477D01*
X56427857Y40988334D01*
X56427857Y39750239D01*
X56427857Y38893096D02*
X59427857Y38893096D01*
X56427857Y37750239D02*
X58142142Y38607381D01*
X59427857Y37750239D02*
X57713571Y38893096D01*
X56427857Y35750239D02*
X57856428Y36416905D01*
X56427857Y36893096D02*
X59427857Y36893096D01*
X59427857Y36131191D01*
X59285000Y35940715D01*
X59142142Y35845477D01*
X58856428Y35750239D01*
X58427857Y35750239D01*
X58142142Y35845477D01*
X57999285Y35940715D01*
X57856428Y36131191D01*
X57856428Y36893096D01*
X57285000Y34988334D02*
X57285000Y34035953D01*
X56427857Y35178810D02*
X59427857Y34512143D01*
X56427857Y33845477D01*
X56427857Y33178810D02*
X59427857Y33178810D01*
X57285000Y32512143D01*
X59427857Y31845477D01*
X56427857Y31845477D01*
X57999285Y28702620D02*
X57856428Y28416905D01*
X57713571Y28321667D01*
X57427857Y28226429D01*
X56999285Y28226429D01*
X56713571Y28321667D01*
X56570714Y28416905D01*
X56427857Y28607381D01*
X56427857Y29369286D01*
X59427857Y29369286D01*
X59427857Y28702620D01*
X59285000Y28512143D01*
X59142142Y28416905D01*
X58856428Y28321667D01*
X58570714Y28321667D01*
X58285000Y28416905D01*
X58142142Y28512143D01*
X57999285Y28702620D01*
X57999285Y29369286D01*
X59427857Y26988334D02*
X59427857Y26607381D01*
X59285000Y26416905D01*
X58999285Y26226429D01*
X58427857Y26131191D01*
X57427857Y26131191D01*
X56856428Y26226429D01*
X56570714Y26416905D01*
X56427857Y26607381D01*
X56427857Y26988334D01*
X56570714Y27178810D01*
X56856428Y27369286D01*
X57427857Y27464524D01*
X58427857Y27464524D01*
X58999285Y27369286D01*
X59285000Y27178810D01*
X59427857Y26988334D01*
X57285000Y25369286D02*
X57285000Y24416905D01*
X56427857Y25559762D02*
X59427857Y24893096D01*
X56427857Y24226429D01*
X56427857Y22416905D02*
X57856428Y23083572D01*
X56427857Y23559762D02*
X59427857Y23559762D01*
X59427857Y22797858D01*
X59285000Y22607381D01*
X59142142Y22512143D01*
X58856428Y22416905D01*
X58427857Y22416905D01*
X58142142Y22512143D01*
X57999285Y22607381D01*
X57856428Y22797858D01*
X57856428Y23559762D01*
X56427857Y21559762D02*
X59427857Y21559762D01*
X59427857Y21083572D01*
X59285000Y20797858D01*
X58999285Y20607381D01*
X58713571Y20512143D01*
X58142142Y20416905D01*
X57713571Y20416905D01*
X57142142Y20512143D01*
X56856428Y20607381D01*
X56570714Y20797858D01*
X56427857Y21083572D01*
X56427857Y21559762D01*
X56427857Y16893096D02*
X57856428Y17559762D01*
X56427857Y18035953D02*
X59427857Y18035953D01*
X59427857Y17274048D01*
X59285000Y17083572D01*
X59142142Y16988334D01*
X58856428Y16893096D01*
X58427857Y16893096D01*
X58142142Y16988334D01*
X57999285Y17083572D01*
X57856428Y17274048D01*
X57856428Y18035953D01*
X56570714Y15274048D02*
X56427857Y15464524D01*
X56427857Y15845477D01*
X56570714Y16035953D01*
X56856428Y16131191D01*
X57999285Y16131191D01*
X58285000Y16035953D01*
X58427857Y15845477D01*
X58427857Y15464524D01*
X58285000Y15274048D01*
X57999285Y15178810D01*
X57713571Y15178810D01*
X57427857Y16131191D01*
X58427857Y14512143D02*
X56427857Y14035953D01*
X58427857Y13559762D01*
X56427857Y11750239D02*
X56427857Y12893096D01*
X56427857Y12321667D02*
X59427857Y12321667D01*
X58999285Y12512143D01*
X58713571Y12702620D01*
X58570714Y12893096D01*
X56713571Y10893096D02*
X56570714Y10797858D01*
X56427857Y10893096D01*
X56570714Y10988334D01*
X56713571Y10893096D01*
X56427857Y10893096D01*
X59427857Y10131191D02*
X59427857Y8893096D01*
X58285000Y9559762D01*
X58285000Y9274048D01*
X58142142Y9083572D01*
X57999285Y8988334D01*
X57713571Y8893096D01*
X56999285Y8893096D01*
X56713571Y8988334D01*
X56570714Y9083572D01*
X56427857Y9274048D01*
X56427857Y9845477D01*
X56570714Y10035953D01*
X56713571Y10131191D01*
D13*
X14585000Y10034775D02*
X14085000Y10034775D01*
X14335000Y10284775D02*
X14335000Y9784775D01*
X13144000Y4879000D02*
X12576000Y4879000D01*
X13378000Y4919000D02*
X12342000Y4919000D01*
X13537000Y4959000D02*
X12183000Y4959000D01*
X13665000Y4999000D02*
X12055000Y4999000D01*
X13775000Y5039000D02*
X11945000Y5039000D01*
X13871000Y5079000D02*
X11849000Y5079000D01*
X13958000Y5119000D02*
X11762000Y5119000D01*
X14038000Y5159000D02*
X11682000Y5159000D01*
X11820000Y5199000D02*
X11609000Y5199000D01*
X14111000Y5199000D02*
X13900000Y5199000D01*
X11820000Y5239000D02*
X11541000Y5239000D01*
X14179000Y5239000D02*
X13900000Y5239000D01*
X11820000Y5279000D02*
X11477000Y5279000D01*
X14243000Y5279000D02*
X13900000Y5279000D01*
X11820000Y5319000D02*
X11417000Y5319000D01*
X14303000Y5319000D02*
X13900000Y5319000D01*
X11820000Y5359000D02*
X11360000Y5359000D01*
X14360000Y5359000D02*
X13900000Y5359000D01*
X11820000Y5399000D02*
X11306000Y5399000D01*
X14414000Y5399000D02*
X13900000Y5399000D01*
X11820000Y5439000D02*
X11255000Y5439000D01*
X14465000Y5439000D02*
X13900000Y5439000D01*
X11820000Y5479000D02*
X11207000Y5479000D01*
X14513000Y5479000D02*
X13900000Y5479000D01*
X11820000Y5519000D02*
X11161000Y5519000D01*
X14559000Y5519000D02*
X13900000Y5519000D01*
X11820000Y5559000D02*
X11117000Y5559000D01*
X14603000Y5559000D02*
X13900000Y5559000D01*
X11820000Y5599000D02*
X11075000Y5599000D01*
X14645000Y5599000D02*
X13900000Y5599000D01*
X11820000Y5639000D02*
X11034000Y5639000D01*
X14686000Y5639000D02*
X13900000Y5639000D01*
X11820000Y5679000D02*
X10996000Y5679000D01*
X14724000Y5679000D02*
X13900000Y5679000D01*
X11820000Y5719000D02*
X10959000Y5719000D01*
X14761000Y5719000D02*
X13900000Y5719000D01*
X11820000Y5759000D02*
X10923000Y5759000D01*
X14797000Y5759000D02*
X13900000Y5759000D01*
X11820000Y5799000D02*
X10889000Y5799000D01*
X14831000Y5799000D02*
X13900000Y5799000D01*
X11820000Y5839000D02*
X10856000Y5839000D01*
X14864000Y5839000D02*
X13900000Y5839000D01*
X11820000Y5879000D02*
X10825000Y5879000D01*
X14895000Y5879000D02*
X13900000Y5879000D01*
X11820000Y5919000D02*
X10795000Y5919000D01*
X14925000Y5919000D02*
X13900000Y5919000D01*
X11820000Y5959000D02*
X10765000Y5959000D01*
X14955000Y5959000D02*
X13900000Y5959000D01*
X11820000Y5999000D02*
X10738000Y5999000D01*
X14982000Y5999000D02*
X13900000Y5999000D01*
X11820000Y6039000D02*
X10711000Y6039000D01*
X15009000Y6039000D02*
X13900000Y6039000D01*
X11820000Y6079000D02*
X10685000Y6079000D01*
X15035000Y6079000D02*
X13900000Y6079000D01*
X11820000Y6119000D02*
X10660000Y6119000D01*
X15060000Y6119000D02*
X13900000Y6119000D01*
X11820000Y6159000D02*
X10636000Y6159000D01*
X15084000Y6159000D02*
X13900000Y6159000D01*
X11820000Y6199000D02*
X10613000Y6199000D01*
X15107000Y6199000D02*
X13900000Y6199000D01*
X11820000Y6239000D02*
X10592000Y6239000D01*
X15128000Y6239000D02*
X13900000Y6239000D01*
X11820000Y6279000D02*
X10570000Y6279000D01*
X15150000Y6279000D02*
X13900000Y6279000D01*
X11820000Y6319000D02*
X10550000Y6319000D01*
X15170000Y6319000D02*
X13900000Y6319000D01*
X11820000Y6359000D02*
X10531000Y6359000D01*
X15189000Y6359000D02*
X13900000Y6359000D01*
X11820000Y6399000D02*
X10512000Y6399000D01*
X15208000Y6399000D02*
X13900000Y6399000D01*
X11820000Y6439000D02*
X10495000Y6439000D01*
X15225000Y6439000D02*
X13900000Y6439000D01*
X11820000Y6479000D02*
X10478000Y6479000D01*
X15242000Y6479000D02*
X13900000Y6479000D01*
X11820000Y6519000D02*
X10462000Y6519000D01*
X15258000Y6519000D02*
X13900000Y6519000D01*
X11820000Y6559000D02*
X10446000Y6559000D01*
X15274000Y6559000D02*
X13900000Y6559000D01*
X11820000Y6599000D02*
X10432000Y6599000D01*
X15288000Y6599000D02*
X13900000Y6599000D01*
X11820000Y6639000D02*
X10418000Y6639000D01*
X15302000Y6639000D02*
X13900000Y6639000D01*
X11820000Y6679000D02*
X10405000Y6679000D01*
X15315000Y6679000D02*
X13900000Y6679000D01*
X11820000Y6719000D02*
X10392000Y6719000D01*
X15328000Y6719000D02*
X13900000Y6719000D01*
X11820000Y6759000D02*
X10380000Y6759000D01*
X15340000Y6759000D02*
X13900000Y6759000D01*
X11820000Y6800000D02*
X10369000Y6800000D01*
X15351000Y6800000D02*
X13900000Y6800000D01*
X11820000Y6840000D02*
X10359000Y6840000D01*
X15361000Y6840000D02*
X13900000Y6840000D01*
X11820000Y6880000D02*
X10349000Y6880000D01*
X15371000Y6880000D02*
X13900000Y6880000D01*
X11820000Y6920000D02*
X10340000Y6920000D01*
X15380000Y6920000D02*
X13900000Y6920000D01*
X11820000Y6960000D02*
X10332000Y6960000D01*
X15388000Y6960000D02*
X13900000Y6960000D01*
X11820000Y7000000D02*
X10324000Y7000000D01*
X15396000Y7000000D02*
X13900000Y7000000D01*
X11820000Y7040000D02*
X10317000Y7040000D01*
X15403000Y7040000D02*
X13900000Y7040000D01*
X11820000Y7080000D02*
X10310000Y7080000D01*
X15410000Y7080000D02*
X13900000Y7080000D01*
X11820000Y7120000D02*
X10304000Y7120000D01*
X15416000Y7120000D02*
X13900000Y7120000D01*
X11820000Y7160000D02*
X10299000Y7160000D01*
X15421000Y7160000D02*
X13900000Y7160000D01*
X11820000Y7200000D02*
X10295000Y7200000D01*
X15425000Y7200000D02*
X13900000Y7200000D01*
X11820000Y7240000D02*
X10291000Y7240000D01*
X15429000Y7240000D02*
X13900000Y7240000D01*
X15433000Y7280000D02*
X10287000Y7280000D01*
X15436000Y7320000D02*
X10284000Y7320000D01*
X15438000Y7360000D02*
X10282000Y7360000D01*
X15439000Y7400000D02*
X10281000Y7400000D01*
X15440000Y7440000D02*
X10280000Y7440000D01*
X15440000Y7480000D02*
X10280000Y7480000D01*
X15480000Y7480000D02*
G75*
G03*
X15480000Y7480000I-2620000J0D01*
G01*
X10795000Y13970000D02*
X9525000Y13970000D01*
X10795000Y15240000D02*
X10795000Y13970000D01*
X8482071Y76580000D02*
X8027929Y76580000D01*
X8482071Y75820000D02*
X8027929Y75820000D01*
X5942071Y76580000D02*
X5545000Y76580000D01*
X5942071Y75820000D02*
X5545000Y75820000D01*
X-3115000Y76580000D02*
X2885000Y76580000D01*
X-3115000Y75820000D02*
X-3115000Y76580000D01*
X2885000Y75820000D02*
X-3115000Y75820000D01*
X5545000Y74930000D02*
X2885000Y74930000D01*
X8482071Y74040000D02*
X8027929Y74040000D01*
X8482071Y73280000D02*
X8027929Y73280000D01*
X5942071Y74040000D02*
X5545000Y74040000D01*
X5942071Y73280000D02*
X5545000Y73280000D01*
X-3115000Y74040000D02*
X2885000Y74040000D01*
X-3115000Y73280000D02*
X-3115000Y74040000D01*
X2885000Y73280000D02*
X-3115000Y73280000D01*
X5545000Y72390000D02*
X2885000Y72390000D01*
X8482071Y71500000D02*
X8027929Y71500000D01*
X8482071Y70740000D02*
X8027929Y70740000D01*
X5942071Y71500000D02*
X5545000Y71500000D01*
X5942071Y70740000D02*
X5545000Y70740000D01*
X-3115000Y71500000D02*
X2885000Y71500000D01*
X-3115000Y70740000D02*
X-3115000Y71500000D01*
X2885000Y70740000D02*
X-3115000Y70740000D01*
X5545000Y69850000D02*
X2885000Y69850000D01*
X8482071Y68960000D02*
X8027929Y68960000D01*
X8482071Y68200000D02*
X8027929Y68200000D01*
X5942071Y68960000D02*
X5545000Y68960000D01*
X5942071Y68200000D02*
X5545000Y68200000D01*
X-3115000Y68960000D02*
X2885000Y68960000D01*
X-3115000Y68200000D02*
X-3115000Y68960000D01*
X2885000Y68200000D02*
X-3115000Y68200000D01*
X5545000Y67310000D02*
X2885000Y67310000D01*
X8482071Y66420000D02*
X8027929Y66420000D01*
X8482071Y65660000D02*
X8027929Y65660000D01*
X5942071Y66420000D02*
X5545000Y66420000D01*
X5942071Y65660000D02*
X5545000Y65660000D01*
X-3115000Y66420000D02*
X2885000Y66420000D01*
X-3115000Y65660000D02*
X-3115000Y66420000D01*
X2885000Y65660000D02*
X-3115000Y65660000D01*
X5545000Y64770000D02*
X2885000Y64770000D01*
X8482071Y63880000D02*
X8027929Y63880000D01*
X8482071Y63120000D02*
X8027929Y63120000D01*
X5942071Y63880000D02*
X5545000Y63880000D01*
X5942071Y63120000D02*
X5545000Y63120000D01*
X-3115000Y63880000D02*
X2885000Y63880000D01*
X-3115000Y63120000D02*
X-3115000Y63880000D01*
X2885000Y63120000D02*
X-3115000Y63120000D01*
X5545000Y62230000D02*
X2885000Y62230000D01*
X8482071Y61340000D02*
X8027929Y61340000D01*
X8482071Y60580000D02*
X8027929Y60580000D01*
X5942071Y61340000D02*
X5545000Y61340000D01*
X5942071Y60580000D02*
X5545000Y60580000D01*
X-3115000Y61340000D02*
X2885000Y61340000D01*
X-3115000Y60580000D02*
X-3115000Y61340000D01*
X2885000Y60580000D02*
X-3115000Y60580000D01*
X5545000Y59690000D02*
X2885000Y59690000D01*
X8482071Y58800000D02*
X8027929Y58800000D01*
X8482071Y58040000D02*
X8027929Y58040000D01*
X5942071Y58800000D02*
X5545000Y58800000D01*
X5942071Y58040000D02*
X5545000Y58040000D01*
X-3115000Y58800000D02*
X2885000Y58800000D01*
X-3115000Y58040000D02*
X-3115000Y58800000D01*
X2885000Y58040000D02*
X-3115000Y58040000D01*
X5545000Y57150000D02*
X2885000Y57150000D01*
X8482071Y56260000D02*
X8027929Y56260000D01*
X8482071Y55500000D02*
X8027929Y55500000D01*
X5942071Y56260000D02*
X5545000Y56260000D01*
X5942071Y55500000D02*
X5545000Y55500000D01*
X-3115000Y56260000D02*
X2885000Y56260000D01*
X-3115000Y55500000D02*
X-3115000Y56260000D01*
X2885000Y55500000D02*
X-3115000Y55500000D01*
X5545000Y54610000D02*
X2885000Y54610000D01*
X8482071Y53720000D02*
X8027929Y53720000D01*
X8482071Y52960000D02*
X8027929Y52960000D01*
X5942071Y53720000D02*
X5545000Y53720000D01*
X5942071Y52960000D02*
X5545000Y52960000D01*
X-3115000Y53720000D02*
X2885000Y53720000D01*
X-3115000Y52960000D02*
X-3115000Y53720000D01*
X2885000Y52960000D02*
X-3115000Y52960000D01*
X5545000Y52070000D02*
X2885000Y52070000D01*
X8482071Y51180000D02*
X8027929Y51180000D01*
X8482071Y50420000D02*
X8027929Y50420000D01*
X5942071Y51180000D02*
X5545000Y51180000D01*
X5942071Y50420000D02*
X5545000Y50420000D01*
X-3115000Y51180000D02*
X2885000Y51180000D01*
X-3115000Y50420000D02*
X-3115000Y51180000D01*
X2885000Y50420000D02*
X-3115000Y50420000D01*
X5545000Y49530000D02*
X2885000Y49530000D01*
X8482071Y48640000D02*
X8027929Y48640000D01*
X8482071Y47880000D02*
X8027929Y47880000D01*
X5942071Y48640000D02*
X5545000Y48640000D01*
X5942071Y47880000D02*
X5545000Y47880000D01*
X-3115000Y48640000D02*
X2885000Y48640000D01*
X-3115000Y47880000D02*
X-3115000Y48640000D01*
X2885000Y47880000D02*
X-3115000Y47880000D01*
X5545000Y46990000D02*
X2885000Y46990000D01*
X8482071Y46100000D02*
X8027929Y46100000D01*
X8482071Y45340000D02*
X8027929Y45340000D01*
X5942071Y46100000D02*
X5545000Y46100000D01*
X5942071Y45340000D02*
X5545000Y45340000D01*
X-3115000Y46100000D02*
X2885000Y46100000D01*
X-3115000Y45340000D02*
X-3115000Y46100000D01*
X2885000Y45340000D02*
X-3115000Y45340000D01*
X5545000Y44450000D02*
X2885000Y44450000D01*
X8482071Y43560000D02*
X8027929Y43560000D01*
X8482071Y42800000D02*
X8027929Y42800000D01*
X5942071Y43560000D02*
X5545000Y43560000D01*
X5942071Y42800000D02*
X5545000Y42800000D01*
X-3115000Y43560000D02*
X2885000Y43560000D01*
X-3115000Y42800000D02*
X-3115000Y43560000D01*
X2885000Y42800000D02*
X-3115000Y42800000D01*
X5545000Y41910000D02*
X2885000Y41910000D01*
X8482071Y41020000D02*
X8027929Y41020000D01*
X8482071Y40260000D02*
X8027929Y40260000D01*
X5942071Y41020000D02*
X5545000Y41020000D01*
X5942071Y40260000D02*
X5545000Y40260000D01*
X-3115000Y41020000D02*
X2885000Y41020000D01*
X-3115000Y40260000D02*
X-3115000Y41020000D01*
X2885000Y40260000D02*
X-3115000Y40260000D01*
X5545000Y39370000D02*
X2885000Y39370000D01*
X8482071Y38480000D02*
X8027929Y38480000D01*
X8482071Y37720000D02*
X8027929Y37720000D01*
X5942071Y38480000D02*
X5545000Y38480000D01*
X5942071Y37720000D02*
X5545000Y37720000D01*
X-3115000Y38480000D02*
X2885000Y38480000D01*
X-3115000Y37720000D02*
X-3115000Y38480000D01*
X2885000Y37720000D02*
X-3115000Y37720000D01*
X5545000Y36830000D02*
X2885000Y36830000D01*
X8482071Y35940000D02*
X8027929Y35940000D01*
X8482071Y35180000D02*
X8027929Y35180000D01*
X5942071Y35940000D02*
X5545000Y35940000D01*
X5942071Y35180000D02*
X5545000Y35180000D01*
X-3115000Y35940000D02*
X2885000Y35940000D01*
X-3115000Y35180000D02*
X-3115000Y35940000D01*
X2885000Y35180000D02*
X-3115000Y35180000D01*
X5545000Y34290000D02*
X2885000Y34290000D01*
X8482071Y33400000D02*
X8027929Y33400000D01*
X8482071Y32640000D02*
X8027929Y32640000D01*
X5942071Y33400000D02*
X5545000Y33400000D01*
X5942071Y32640000D02*
X5545000Y32640000D01*
X-3115000Y33400000D02*
X2885000Y33400000D01*
X-3115000Y32640000D02*
X-3115000Y33400000D01*
X2885000Y32640000D02*
X-3115000Y32640000D01*
X5545000Y31750000D02*
X2885000Y31750000D01*
X8482071Y30860000D02*
X8027929Y30860000D01*
X8482071Y30100000D02*
X8027929Y30100000D01*
X5942071Y30860000D02*
X5545000Y30860000D01*
X5942071Y30100000D02*
X5545000Y30100000D01*
X-3115000Y30860000D02*
X2885000Y30860000D01*
X-3115000Y30100000D02*
X-3115000Y30860000D01*
X2885000Y30100000D02*
X-3115000Y30100000D01*
X5545000Y29210000D02*
X2885000Y29210000D01*
X8482071Y28320000D02*
X8027929Y28320000D01*
X8482071Y27560000D02*
X8027929Y27560000D01*
X5942071Y28320000D02*
X5545000Y28320000D01*
X5942071Y27560000D02*
X5545000Y27560000D01*
X-3115000Y28320000D02*
X2885000Y28320000D01*
X-3115000Y27560000D02*
X-3115000Y28320000D01*
X2885000Y27560000D02*
X-3115000Y27560000D01*
X5545000Y26670000D02*
X2885000Y26670000D01*
X8482071Y25780000D02*
X8027929Y25780000D01*
X8482071Y25020000D02*
X8027929Y25020000D01*
X5942071Y25780000D02*
X5545000Y25780000D01*
X5942071Y25020000D02*
X5545000Y25020000D01*
X-3115000Y25780000D02*
X2885000Y25780000D01*
X-3115000Y25020000D02*
X-3115000Y25780000D01*
X2885000Y25020000D02*
X-3115000Y25020000D01*
X5545000Y24130000D02*
X2885000Y24130000D01*
X8482071Y23240000D02*
X8027929Y23240000D01*
X8482071Y22480000D02*
X8027929Y22480000D01*
X5942071Y23240000D02*
X5545000Y23240000D01*
X5942071Y22480000D02*
X5545000Y22480000D01*
X-3115000Y23240000D02*
X2885000Y23240000D01*
X-3115000Y22480000D02*
X-3115000Y23240000D01*
X2885000Y22480000D02*
X-3115000Y22480000D01*
X5545000Y21590000D02*
X2885000Y21590000D01*
X8482071Y20700000D02*
X8027929Y20700000D01*
X8482071Y19940000D02*
X8027929Y19940000D01*
X5942071Y20700000D02*
X5545000Y20700000D01*
X5942071Y19940000D02*
X5545000Y19940000D01*
X-3115000Y20700000D02*
X2885000Y20700000D01*
X-3115000Y19940000D02*
X-3115000Y20700000D01*
X2885000Y19940000D02*
X-3115000Y19940000D01*
X5545000Y19050000D02*
X2885000Y19050000D01*
X8482071Y18160000D02*
X8027929Y18160000D01*
X8482071Y17400000D02*
X8027929Y17400000D01*
X5942071Y18160000D02*
X5545000Y18160000D01*
X5942071Y17400000D02*
X5545000Y17400000D01*
X-3115000Y18160000D02*
X2885000Y18160000D01*
X-3115000Y17400000D02*
X-3115000Y18160000D01*
X2885000Y17400000D02*
X-3115000Y17400000D01*
X5545000Y16510000D02*
X2885000Y16510000D01*
X8415000Y15620000D02*
X8027929Y15620000D01*
X8415000Y14860000D02*
X8027929Y14860000D01*
X5942071Y15620000D02*
X5545000Y15620000D01*
X5942071Y14860000D02*
X5545000Y14860000D01*
X2885000Y15520000D02*
X-3115000Y15520000D01*
X2885000Y15400000D02*
X-3115000Y15400000D01*
X2885000Y15280000D02*
X-3115000Y15280000D01*
X2885000Y15160000D02*
X-3115000Y15160000D01*
X2885000Y15040000D02*
X-3115000Y15040000D01*
X2885000Y14920000D02*
X-3115000Y14920000D01*
X-3115000Y15620000D02*
X2885000Y15620000D01*
X-3115000Y14860000D02*
X-3115000Y15620000D01*
X2885000Y14860000D02*
X-3115000Y14860000D01*
X2885000Y13910000D02*
X5545000Y13910000D01*
X2885000Y77530000D02*
X2885000Y13910000D01*
X5545000Y77530000D02*
X2885000Y77530000D01*
X5545000Y13910000D02*
X5545000Y77530000D01*
X44050000Y86260000D02*
X39810000Y86260000D01*
X44050000Y89000000D02*
X39810000Y89000000D01*
X44050000Y86260000D02*
X44050000Y86965000D01*
X44050000Y88295000D02*
X44050000Y89000000D01*
X39810000Y86260000D02*
X39810000Y86965000D01*
X39810000Y88295000D02*
X39810000Y89000000D01*
X35960000Y47020000D02*
X35960000Y47725000D01*
X35960000Y44985000D02*
X35960000Y45690000D01*
X40200000Y47020000D02*
X40200000Y47725000D01*
X40200000Y44985000D02*
X40200000Y45690000D01*
X40200000Y47725000D02*
X35960000Y47725000D01*
X40200000Y44985000D02*
X35960000Y44985000D01*
X40910000Y85785000D02*
X39660000Y85785000D01*
X39660000Y85785000D02*
X39660000Y55185000D01*
X39660000Y55185000D02*
X44160000Y55185000D01*
X44160000Y55185000D02*
X44160000Y85785000D01*
X44160000Y85785000D02*
X42910000Y85785000D01*
X42910000Y85785000D02*
G75*
G02*
X40910000Y85785000I-1000000J0D01*
G01*
X37060000Y44510000D02*
X32000000Y44510000D01*
X32000000Y44510000D02*
X32000000Y8830000D01*
X32000000Y8830000D02*
X44120000Y8830000D01*
X44120000Y8830000D02*
X44120000Y44510000D01*
X44120000Y44510000D02*
X39060000Y44510000D01*
X39060000Y44510000D02*
G75*
G02*
X37060000Y44510000I-1000000J0D01*
G01*
X60285000Y75565000D02*
G75*
G03*
X60285000Y75565000I-2500000J0D01*
G01*
X56240000Y73005000D02*
X59330000Y73005000D01*
X57785462Y78555000D02*
G75*
G03*
X56240170Y73005000I-462J-2990000D01*
G01*
X57784538Y78555000D02*
G75*
G02*
X59329830Y73005000I462J-2990000D01*
G01*
X59330000Y65425000D02*
X56240000Y65425000D01*
X60285000Y62865000D02*
G75*
G03*
X60285000Y62865000I-2500000J0D01*
G01*
X57785462Y59875000D02*
G75*
G02*
X56240170Y65425000I-462J2990000D01*
G01*
X57784538Y59875000D02*
G75*
G03*
X59329830Y65425000I462J2990000D01*
G01*
X50165000Y57555000D02*
X50165000Y58325000D01*
X50165000Y65635000D02*
X50165000Y64865000D01*
X51535000Y58325000D02*
X51535000Y64865000D01*
X48795000Y58325000D02*
X51535000Y58325000D01*
X48795000Y64865000D02*
X48795000Y58325000D01*
X51535000Y64865000D02*
X48795000Y64865000D01*
X48795000Y71025000D02*
X51535000Y71025000D01*
X51535000Y71025000D02*
X51535000Y77565000D01*
X51535000Y77565000D02*
X48795000Y77565000D01*
X48795000Y77565000D02*
X48795000Y71025000D01*
X50165000Y70255000D02*
X50165000Y71025000D01*
X50165000Y78335000D02*
X50165000Y77565000D01*
X18475000Y13910000D02*
X17145000Y13910000D01*
X18475000Y15240000D02*
X18475000Y13910000D01*
X15875000Y13910000D02*
X13275000Y13910000D01*
X15875000Y16510000D02*
X15875000Y13910000D01*
X18475000Y16510000D02*
X15875000Y16510000D01*
X13275000Y13910000D02*
X13275000Y77530000D01*
X18475000Y16510000D02*
X18475000Y77530000D01*
X18475000Y77530000D02*
X13275000Y77530000D01*
X37060000Y44510000D02*
X35810000Y44510000D01*
X35810000Y44510000D02*
X35810000Y8830000D01*
X35810000Y8830000D02*
X40310000Y8830000D01*
X40310000Y8830000D02*
X40310000Y44510000D01*
X40310000Y44510000D02*
X39060000Y44510000D01*
X39060000Y44510000D02*
G75*
G02*
X37060000Y44510000I-1000000J0D01*
G01*
X25840000Y75595000D02*
X25840000Y76300000D01*
X25840000Y73560000D02*
X25840000Y74265000D01*
X30080000Y75595000D02*
X30080000Y76300000D01*
X30080000Y73560000D02*
X30080000Y74265000D01*
X30080000Y76300000D02*
X25840000Y76300000D01*
X30080000Y73560000D02*
X25840000Y73560000D01*
X30190000Y73085000D02*
X28940000Y73085000D01*
X30190000Y55185000D02*
X30190000Y73085000D01*
X25690000Y55185000D02*
X30190000Y55185000D01*
X25690000Y73085000D02*
X25690000Y55185000D01*
X26940000Y73085000D02*
X25690000Y73085000D01*
X28940000Y73085000D02*
G75*
G02*
X26940000Y73085000I-1000000J0D01*
G01*
D10*
X16152857Y7786667D02*
X16105238Y7834286D01*
X16057619Y7977143D01*
X16057619Y8072381D01*
X16105238Y8215239D01*
X16200476Y8310477D01*
X16295714Y8358096D01*
X16486190Y8405715D01*
X16629047Y8405715D01*
X16819523Y8358096D01*
X16914761Y8310477D01*
X17010000Y8215239D01*
X17057619Y8072381D01*
X17057619Y7977143D01*
X17010000Y7834286D01*
X16962380Y7786667D01*
X17057619Y7453334D02*
X17057619Y6834286D01*
X16676666Y7167620D01*
X16676666Y7024762D01*
X16629047Y6929524D01*
X16581428Y6881905D01*
X16486190Y6834286D01*
X16248095Y6834286D01*
X16152857Y6881905D01*
X16105238Y6929524D01*
X16057619Y7024762D01*
X16057619Y7310477D01*
X16105238Y7405715D01*
X16152857Y7453334D01*
X3536666Y13517620D02*
X3536666Y12803334D01*
X3489047Y12660477D01*
X3393809Y12565239D01*
X3250952Y12517620D01*
X3155714Y12517620D01*
X4536666Y12517620D02*
X3965238Y12517620D01*
X4250952Y12517620D02*
X4250952Y13517620D01*
X4155714Y13374762D01*
X4060476Y13279524D01*
X3965238Y13231905D01*
X37742857Y87796667D02*
X37695238Y87844286D01*
X37647619Y87987143D01*
X37647619Y88082381D01*
X37695238Y88225239D01*
X37790476Y88320477D01*
X37885714Y88368096D01*
X38076190Y88415715D01*
X38219047Y88415715D01*
X38409523Y88368096D01*
X38504761Y88320477D01*
X38600000Y88225239D01*
X38647619Y88082381D01*
X38647619Y87987143D01*
X38600000Y87844286D01*
X38552380Y87796667D01*
X37647619Y86844286D02*
X37647619Y87415715D01*
X37647619Y87130000D02*
X38647619Y87130000D01*
X38504761Y87225239D01*
X38409523Y87320477D01*
X38361904Y87415715D01*
X33892857Y46521667D02*
X33845238Y46569286D01*
X33797619Y46712143D01*
X33797619Y46807381D01*
X33845238Y46950239D01*
X33940476Y47045477D01*
X34035714Y47093096D01*
X34226190Y47140715D01*
X34369047Y47140715D01*
X34559523Y47093096D01*
X34654761Y47045477D01*
X34750000Y46950239D01*
X34797619Y46807381D01*
X34797619Y46712143D01*
X34750000Y46569286D01*
X34702380Y46521667D01*
X34702380Y46140715D02*
X34750000Y46093096D01*
X34797619Y45997858D01*
X34797619Y45759762D01*
X34750000Y45664524D01*
X34702380Y45616905D01*
X34607142Y45569286D01*
X34511904Y45569286D01*
X34369047Y45616905D01*
X33797619Y46188334D01*
X33797619Y45569286D01*
X35472619Y77596905D02*
X34663095Y77596905D01*
X34567857Y77549286D01*
X34520238Y77501667D01*
X34472619Y77406429D01*
X34472619Y77215953D01*
X34520238Y77120715D01*
X34567857Y77073096D01*
X34663095Y77025477D01*
X35472619Y77025477D01*
X34472619Y76025477D02*
X34472619Y76596905D01*
X34472619Y76311191D02*
X35472619Y76311191D01*
X35329761Y76406429D01*
X35234523Y76501667D01*
X35186904Y76596905D01*
X28447619Y31876905D02*
X27638095Y31876905D01*
X27542857Y31829286D01*
X27495238Y31781667D01*
X27447619Y31686429D01*
X27447619Y31495953D01*
X27495238Y31400715D01*
X27542857Y31353096D01*
X27638095Y31305477D01*
X28447619Y31305477D01*
X28352380Y30876905D02*
X28400000Y30829286D01*
X28447619Y30734048D01*
X28447619Y30495953D01*
X28400000Y30400715D01*
X28352380Y30353096D01*
X28257142Y30305477D01*
X28161904Y30305477D01*
X28019047Y30353096D01*
X27447619Y30924524D01*
X27447619Y30305477D01*
X53522619Y76303096D02*
X54522619Y76303096D01*
X54522619Y76065000D01*
X54475000Y75922143D01*
X54379761Y75826905D01*
X54284523Y75779286D01*
X54094047Y75731667D01*
X53951190Y75731667D01*
X53760714Y75779286D01*
X53665476Y75826905D01*
X53570238Y75922143D01*
X53522619Y76065000D01*
X53522619Y76303096D01*
X53522619Y74779286D02*
X53522619Y75350715D01*
X53522619Y75065000D02*
X54522619Y75065000D01*
X54379761Y75160239D01*
X54284523Y75255477D01*
X54236904Y75350715D01*
X53522619Y63603096D02*
X54522619Y63603096D01*
X54522619Y63365000D01*
X54475000Y63222143D01*
X54379761Y63126905D01*
X54284523Y63079286D01*
X54094047Y63031667D01*
X53951190Y63031667D01*
X53760714Y63079286D01*
X53665476Y63126905D01*
X53570238Y63222143D01*
X53522619Y63365000D01*
X53522619Y63603096D01*
X54427380Y62650715D02*
X54475000Y62603096D01*
X54522619Y62507858D01*
X54522619Y62269762D01*
X54475000Y62174524D01*
X54427380Y62126905D01*
X54332142Y62079286D01*
X54236904Y62079286D01*
X54094047Y62126905D01*
X53522619Y62698334D01*
X53522619Y62079286D01*
X52252619Y56681667D02*
X52728809Y57015000D01*
X52252619Y57253096D02*
X53252619Y57253096D01*
X53252619Y56872143D01*
X53205000Y56776905D01*
X53157380Y56729286D01*
X53062142Y56681667D01*
X52919285Y56681667D01*
X52824047Y56729286D01*
X52776428Y56776905D01*
X52728809Y56872143D01*
X52728809Y57253096D01*
X52252619Y55729286D02*
X52252619Y56300715D01*
X52252619Y56015000D02*
X53252619Y56015000D01*
X53109761Y56110239D01*
X53014523Y56205477D01*
X52966904Y56300715D01*
X49712619Y82081667D02*
X50188809Y82415000D01*
X49712619Y82653096D02*
X50712619Y82653096D01*
X50712619Y82272143D01*
X50665000Y82176905D01*
X50617380Y82129286D01*
X50522142Y82081667D01*
X50379285Y82081667D01*
X50284047Y82129286D01*
X50236428Y82176905D01*
X50188809Y82272143D01*
X50188809Y82653096D01*
X50617380Y81700715D02*
X50665000Y81653096D01*
X50712619Y81557858D01*
X50712619Y81319762D01*
X50665000Y81224524D01*
X50617380Y81176905D01*
X50522142Y81129286D01*
X50426904Y81129286D01*
X50284047Y81176905D01*
X49712619Y81748334D01*
X49712619Y81129286D01*
X15541666Y13457620D02*
X15541666Y12743334D01*
X15494047Y12600477D01*
X15398809Y12505239D01*
X15255952Y12457620D01*
X15160714Y12457620D01*
X15970238Y13362381D02*
X16017857Y13410000D01*
X16113095Y13457620D01*
X16351190Y13457620D01*
X16446428Y13410000D01*
X16494047Y13362381D01*
X16541666Y13267143D01*
X16541666Y13171905D01*
X16494047Y13029048D01*
X15922619Y12457620D01*
X16541666Y12457620D01*
X38857619Y28451905D02*
X38048095Y28451905D01*
X37952857Y28404286D01*
X37905238Y28356667D01*
X37857619Y28261429D01*
X37857619Y28070953D01*
X37905238Y27975715D01*
X37952857Y27928096D01*
X38048095Y27880477D01*
X38857619Y27880477D01*
X38857619Y27499524D02*
X38857619Y26880477D01*
X38476666Y27213810D01*
X38476666Y27070953D01*
X38429047Y26975715D01*
X38381428Y26928096D01*
X38286190Y26880477D01*
X38048095Y26880477D01*
X37952857Y26928096D01*
X37905238Y26975715D01*
X37857619Y27070953D01*
X37857619Y27356667D01*
X37905238Y27451905D01*
X37952857Y27499524D01*
X24407857Y75096667D02*
X24360238Y75144286D01*
X24312619Y75287143D01*
X24312619Y75382381D01*
X24360238Y75525239D01*
X24455476Y75620477D01*
X24550714Y75668096D01*
X24741190Y75715715D01*
X24884047Y75715715D01*
X25074523Y75668096D01*
X25169761Y75620477D01*
X25265000Y75525239D01*
X25312619Y75382381D01*
X25312619Y75287143D01*
X25265000Y75144286D01*
X25217380Y75096667D01*
X24979285Y74239524D02*
X24312619Y74239524D01*
X25360238Y74477620D02*
X24645952Y74715715D01*
X24645952Y74096667D01*
X21897618Y64601906D02*
X21088094Y64601906D01*
X20992856Y64554287D01*
X20945237Y64506668D01*
X20897618Y64411430D01*
X20897618Y64220954D01*
X20945237Y64125716D01*
X20992856Y64078097D01*
X21088094Y64030478D01*
X21897618Y64030478D01*
X21564284Y63125716D02*
X20897618Y63125716D01*
X21945237Y63363811D02*
X21230951Y63601906D01*
X21230951Y62982859D01*
M02*
