G04 #@! TF.GenerationSoftware,KiCad,Pcbnew,(5.1.9)-1*
G04 #@! TF.CreationDate,2026-01-15T21:52:05+09:00*
G04 #@! TF.ProjectId,PC-8001_RAM,50432d38-3030-4315-9f52-414d2e6b6963,rev?*
G04 #@! TF.SameCoordinates,PX53920b0PY93c3260*
G04 #@! TF.FileFunction,Soldermask,Top*
G04 #@! TF.FilePolarity,Negative*
%FSLAX46Y46*%
G04 Gerber Fmt 4.6, Leading zero omitted, Abs format (unit mm)*
G04 Created by KiCad (PCBNEW (5.1.9)-1) date 2026-01-15 21:52:05*
%MOMM*%
%LPD*%
G01*
G04 APERTURE LIST*
%ADD10C,3.200000*%
%ADD11R,1.600000X1.600000*%
%ADD12C,1.600000*%
%ADD13R,1.700000X1.700000*%
%ADD14O,1.700000X1.700000*%
%ADD15R,2.400000X1.600000*%
%ADD16O,2.400000X1.600000*%
%ADD17R,1.800000X1.800000*%
%ADD18C,1.800000*%
%ADD19O,1.600000X1.600000*%
G04 APERTURE END LIST*
D10*
X5000000Y86000000D03*
X57500000Y86000000D03*
X57500000Y5000000D03*
X5000000Y5000000D03*
D11*
X12860000Y8730000D03*
D12*
X12860000Y6230000D03*
D13*
X9525000Y15240000D03*
D14*
X6985000Y15240000D03*
X9525000Y17780000D03*
X6985000Y17780000D03*
X9525000Y20320000D03*
X6985000Y20320000D03*
X9525000Y22860000D03*
X6985000Y22860000D03*
X9525000Y25400000D03*
X6985000Y25400000D03*
X9525000Y27940000D03*
X6985000Y27940000D03*
X9525000Y30480000D03*
X6985000Y30480000D03*
X9525000Y33020000D03*
X6985000Y33020000D03*
X9525000Y35560000D03*
X6985000Y35560000D03*
X9525000Y38100000D03*
X6985000Y38100000D03*
X9525000Y40640000D03*
X6985000Y40640000D03*
X9525000Y43180000D03*
X6985000Y43180000D03*
X9525000Y45720000D03*
X6985000Y45720000D03*
X9525000Y48260000D03*
X6985000Y48260000D03*
X9525000Y50800000D03*
X6985000Y50800000D03*
X9525000Y53340000D03*
X6985000Y53340000D03*
X9525000Y55880000D03*
X6985000Y55880000D03*
X9525000Y58420000D03*
X6985000Y58420000D03*
X9525000Y60960000D03*
X6985000Y60960000D03*
X9525000Y63500000D03*
X6985000Y63500000D03*
X9525000Y66040000D03*
X6985000Y66040000D03*
X9525000Y68580000D03*
X6985000Y68580000D03*
X9525000Y71120000D03*
X6985000Y71120000D03*
X9525000Y73660000D03*
X6985000Y73660000D03*
X9525000Y76200000D03*
X6985000Y76200000D03*
D12*
X43180000Y87630000D03*
X40680000Y87630000D03*
X36830000Y46355000D03*
X39330000Y46355000D03*
D15*
X38100000Y84455000D03*
D16*
X45720000Y56515000D03*
X38100000Y81915000D03*
X45720000Y59055000D03*
X38100000Y79375000D03*
X45720000Y61595000D03*
X38100000Y76835000D03*
X45720000Y64135000D03*
X38100000Y74295000D03*
X45720000Y66675000D03*
X38100000Y71755000D03*
X45720000Y69215000D03*
X38100000Y69215000D03*
X45720000Y71755000D03*
X38100000Y66675000D03*
X45720000Y74295000D03*
X38100000Y64135000D03*
X45720000Y76835000D03*
X38100000Y61595000D03*
X45720000Y79375000D03*
X38100000Y59055000D03*
X45720000Y81915000D03*
X38100000Y56515000D03*
X45720000Y84455000D03*
D15*
X30440000Y43180000D03*
D16*
X45680000Y10160000D03*
X30440000Y40640000D03*
X45680000Y12700000D03*
X30440000Y38100000D03*
X45680000Y15240000D03*
X30440000Y35560000D03*
X45680000Y17780000D03*
X30440000Y33020000D03*
X45680000Y20320000D03*
X30440000Y30480000D03*
X45680000Y22860000D03*
X30440000Y27940000D03*
X45680000Y25400000D03*
X30440000Y25400000D03*
X45680000Y27940000D03*
X30440000Y22860000D03*
X45680000Y30480000D03*
X30440000Y20320000D03*
X45680000Y33020000D03*
X30440000Y17780000D03*
X45680000Y35560000D03*
X30440000Y15240000D03*
X45680000Y38100000D03*
X30440000Y12700000D03*
X45680000Y40640000D03*
X30440000Y10160000D03*
X45680000Y43180000D03*
D17*
X57785000Y74295000D03*
D18*
X57785000Y76835000D03*
X57785000Y61595000D03*
D17*
X57785000Y64135000D03*
D19*
X50165000Y56515000D03*
D12*
X50165000Y66675000D03*
X50165000Y69215000D03*
D19*
X50165000Y79375000D03*
D13*
X17145000Y15240000D03*
D14*
X14605000Y15240000D03*
X17145000Y17780000D03*
X14605000Y17780000D03*
X17145000Y20320000D03*
X14605000Y20320000D03*
X17145000Y22860000D03*
X14605000Y22860000D03*
X17145000Y25400000D03*
X14605000Y25400000D03*
X17145000Y27940000D03*
X14605000Y27940000D03*
X17145000Y30480000D03*
X14605000Y30480000D03*
X17145000Y33020000D03*
X14605000Y33020000D03*
X17145000Y35560000D03*
X14605000Y35560000D03*
X17145000Y38100000D03*
X14605000Y38100000D03*
X17145000Y40640000D03*
X14605000Y40640000D03*
X17145000Y43180000D03*
X14605000Y43180000D03*
X17145000Y45720000D03*
X14605000Y45720000D03*
X17145000Y48260000D03*
X14605000Y48260000D03*
X17145000Y50800000D03*
X14605000Y50800000D03*
X17145000Y53340000D03*
X14605000Y53340000D03*
X17145000Y55880000D03*
X14605000Y55880000D03*
X17145000Y58420000D03*
X14605000Y58420000D03*
X17145000Y60960000D03*
X14605000Y60960000D03*
X17145000Y63500000D03*
X14605000Y63500000D03*
X17145000Y66040000D03*
X14605000Y66040000D03*
X17145000Y68580000D03*
X14605000Y68580000D03*
X17145000Y71120000D03*
X14605000Y71120000D03*
X17145000Y73660000D03*
X14605000Y73660000D03*
X17145000Y76200000D03*
X14605000Y76200000D03*
D15*
X34250000Y43180000D03*
D16*
X41870000Y10160000D03*
X34250000Y40640000D03*
X41870000Y12700000D03*
X34250000Y38100000D03*
X41870000Y15240000D03*
X34250000Y35560000D03*
X41870000Y17780000D03*
X34250000Y33020000D03*
X41870000Y20320000D03*
X34250000Y30480000D03*
X41870000Y22860000D03*
X34250000Y27940000D03*
X41870000Y25400000D03*
X34250000Y25400000D03*
X41870000Y27940000D03*
X34250000Y22860000D03*
X41870000Y30480000D03*
X34250000Y20320000D03*
X41870000Y33020000D03*
X34250000Y17780000D03*
X41870000Y35560000D03*
X34250000Y15240000D03*
X41870000Y38100000D03*
X34250000Y12700000D03*
X41870000Y40640000D03*
X34250000Y10160000D03*
X41870000Y43180000D03*
D12*
X29210000Y74930000D03*
X26710000Y74930000D03*
D15*
X24130000Y71755000D03*
D16*
X31750000Y56515000D03*
X24130000Y69215000D03*
X31750000Y59055000D03*
X24130000Y66675000D03*
X31750000Y61595000D03*
X24130000Y64135000D03*
X31750000Y64135000D03*
X24130000Y61595000D03*
X31750000Y66675000D03*
X24130000Y59055000D03*
X31750000Y69215000D03*
X24130000Y56515000D03*
X31750000Y71755000D03*
M02*
